G04 #@! TF.GenerationSoftware,KiCad,Pcbnew,5.0.2+dfsg1-1*
G04 #@! TF.CreationDate,2020-12-10T00:07:48-08:00*
G04 #@! TF.ProjectId,chronopy,6368726f-6e6f-4707-992e-6b696361645f,rev?*
G04 #@! TF.SameCoordinates,Original*
G04 #@! TF.FileFunction,Legend,Bot*
G04 #@! TF.FilePolarity,Positive*
%FSLAX46Y46*%
G04 Gerber Fmt 4.6, Leading zero omitted, Abs format (unit mm)*
G04 Created by KiCad (PCBNEW 5.0.2+dfsg1-1) date Thu 10 Dec 2020 12:07:48 AM PST*
%MOMM*%
%LPD*%
G01*
G04 APERTURE LIST*
%ADD10C,0.127000*%
%ADD11C,0.080000*%
%ADD12C,0.120000*%
%ADD13C,0.200000*%
%ADD14C,0.152400*%
%ADD15C,0.300000*%
%ADD16C,0.160000*%
%ADD17C,0.100000*%
%ADD18C,0.050000*%
%ADD19C,0.254000*%
%ADD20C,0.203200*%
%ADD21C,0.250000*%
%ADD22C,0.010000*%
%ADD23C,0.015000*%
G04 APERTURE END LIST*
D10*
G04 #@! TO.C,J7*
X131401354Y-78112319D02*
G75*
G03X131401354Y-78112319I-635000J0D01*
G01*
X134322354Y-76702619D02*
X131057176Y-76702619D01*
X131057176Y-76702619D02*
G75*
G03X130504514Y-76829179I9J-1270003D01*
G01*
X130504514Y-76829179D02*
X128839024Y-77634159D01*
X128839024Y-77634158D02*
G75*
G03X128480354Y-78205885I276333J-571725D01*
G01*
X128480354Y-78205885D02*
X128480354Y-79288753D01*
X128480354Y-79288753D02*
G75*
G03X128839024Y-79860479I635003J-1D01*
G01*
X128839024Y-79860479D02*
X130504514Y-80665459D01*
X130504514Y-80665459D02*
G75*
G03X131057176Y-80792019I552671J1143443D01*
G01*
X131057176Y-80792019D02*
X134322354Y-80792019D01*
X134322354Y-80792019D02*
G75*
G03X135592354Y-79522019I0J1270000D01*
G01*
X135592354Y-79522019D02*
X135592354Y-77972619D01*
X135592354Y-77972619D02*
G75*
G03X134322354Y-76702619I-1270000J0D01*
G01*
D11*
G04 #@! TO.C,M1*
X133948754Y-113570719D02*
X125795354Y-113570719D01*
X125795354Y-113570719D02*
X125795354Y-117329919D01*
X125795354Y-117329919D02*
X131967554Y-117329919D01*
D12*
G04 #@! TO.C,D2*
X134615354Y-114001119D02*
X134615354Y-116551119D01*
X136315354Y-114001119D02*
X136315354Y-116551119D01*
X134615354Y-114001119D02*
X136315354Y-114001119D01*
G04 #@! TO.C,R24*
X124489354Y-109637119D02*
X124989354Y-109637119D01*
X124989354Y-110697119D02*
X124489354Y-110697119D01*
G04 #@! TO.C,Q3*
X128968154Y-111943119D02*
X128038154Y-111943119D01*
X125808154Y-111943119D02*
X126738154Y-111943119D01*
X125808154Y-111943119D02*
X125808154Y-109783119D01*
X128968154Y-111943119D02*
X128968154Y-110483119D01*
G04 #@! TO.C,TP7*
X138781555Y-89923319D02*
G75*
G03X138781555Y-89923319I-700000J0D01*
G01*
D11*
G04 #@! TO.C,U4*
X104914554Y-80410719D02*
X106478554Y-80410719D01*
X106478554Y-80410719D02*
X106478554Y-78550719D01*
X104914554Y-80410719D02*
X104914554Y-78550719D01*
X106478554Y-78550719D02*
X104914554Y-78550719D01*
X104731354Y-78848919D02*
G75*
G03X104731354Y-78848919I-50800J0D01*
G01*
D13*
G04 #@! TO.C,IC2*
X114259000Y-86727000D02*
X115659000Y-86727000D01*
X115659000Y-87927000D02*
X114259000Y-87927000D01*
X116314000Y-86990000D02*
G75*
G03X116314000Y-86990000I-24000J0D01*
G01*
D12*
G04 #@! TO.C,C18*
X107309354Y-77930519D02*
X107309354Y-77430519D01*
X108249354Y-77430519D02*
X108249354Y-77930519D01*
G04 #@! TO.C,C19*
X107309354Y-80064119D02*
X107309354Y-79564119D01*
X108249354Y-79564119D02*
X108249354Y-80064119D01*
G04 #@! TO.C,R21*
X105743954Y-77201919D02*
X105743954Y-77701919D01*
X104683954Y-77701919D02*
X104683954Y-77201919D01*
G04 #@! TO.C,R22*
X105979354Y-77701919D02*
X105979354Y-77201919D01*
X107039354Y-77201919D02*
X107039354Y-77701919D01*
G04 #@! TO.C,R23*
X105508375Y-81898919D02*
X105833933Y-81898919D01*
X105508375Y-80878919D02*
X105833933Y-80878919D01*
G04 #@! TO.C,C17*
X137032354Y-106746319D02*
X137532354Y-106746319D01*
X137532354Y-107686319D02*
X137032354Y-107686319D01*
G04 #@! TO.C,J6*
X100926553Y-93909043D02*
X100926553Y-93833720D01*
X100926553Y-93833720D02*
X99806553Y-93833720D01*
X99806553Y-93833720D02*
X99806553Y-100303720D01*
X99806553Y-100303720D02*
X100926553Y-100303720D01*
X100926553Y-100303720D02*
X100926553Y-100228397D01*
X99806553Y-94268720D02*
X95806553Y-94268720D01*
X95806553Y-94268720D02*
X95806553Y-94788720D01*
X95806553Y-94788720D02*
X99806553Y-94788720D01*
X99806553Y-94328720D02*
X95806553Y-94328720D01*
X99806553Y-94448720D02*
X95806553Y-94448720D01*
X99806553Y-94568720D02*
X95806553Y-94568720D01*
X99806553Y-94688720D02*
X95806553Y-94688720D01*
X100926553Y-95163720D02*
X99806553Y-95163720D01*
X100926553Y-95148397D02*
X100926553Y-95179043D01*
X99806553Y-95538720D02*
X95806553Y-95538720D01*
X95806553Y-95538720D02*
X95806553Y-96058720D01*
X95806553Y-96058720D02*
X99806553Y-96058720D01*
X100926553Y-96433720D02*
X99806553Y-96433720D01*
X100926553Y-96418397D02*
X100926553Y-96449043D01*
X99806553Y-96808720D02*
X95806553Y-96808720D01*
X95806553Y-96808720D02*
X95806553Y-97328720D01*
X95806553Y-97328720D02*
X99806553Y-97328720D01*
X100926553Y-97703720D02*
X99806553Y-97703720D01*
X100926553Y-97688397D02*
X100926553Y-97719043D01*
X99806553Y-98078720D02*
X95806553Y-98078720D01*
X95806553Y-98078720D02*
X95806553Y-98598720D01*
X95806553Y-98598720D02*
X99806553Y-98598720D01*
X100926553Y-98973720D02*
X99806553Y-98973720D01*
X100926553Y-98958397D02*
X100926553Y-98989043D01*
X99806553Y-99348720D02*
X95806553Y-99348720D01*
X95806553Y-99348720D02*
X95806553Y-99868720D01*
X95806553Y-99868720D02*
X99806553Y-99868720D01*
X103396553Y-94528720D02*
X103396553Y-93768720D01*
X103396553Y-93768720D02*
X102636553Y-93768720D01*
G04 #@! TO.C,MK1*
X136462354Y-106436319D02*
X140682354Y-106436319D01*
X140682354Y-106436319D02*
X140682354Y-103216319D01*
X140682354Y-103216319D02*
X136462354Y-103216319D01*
X136462354Y-103216319D02*
X136462354Y-106436319D01*
G04 #@! TO.C,J5*
X121862354Y-103106319D02*
X121462354Y-103106319D01*
X118462354Y-99406319D02*
X118462354Y-98806319D01*
X121462354Y-99406319D02*
X121462354Y-98806319D01*
X118462354Y-103606319D02*
X118462354Y-104206319D01*
D14*
X118262354Y-102606319D02*
X118562354Y-102806319D01*
X118262354Y-103006319D02*
X118262354Y-102606319D01*
X118562354Y-102806319D02*
X118262354Y-103006319D01*
D12*
X121462354Y-98806319D02*
X118462354Y-98806319D01*
X121462354Y-104206319D02*
X118462354Y-104206319D01*
X121462354Y-103106319D02*
X121462354Y-104206319D01*
G04 #@! TO.C,J4*
X117602354Y-90826319D02*
X117602354Y-90326319D01*
X117602354Y-95746319D02*
X117602354Y-96246319D01*
X113660222Y-94936319D02*
X113660222Y-95236319D01*
X113872354Y-95086319D02*
X113660222Y-94936319D01*
X113660222Y-95236319D02*
X113872354Y-95086319D01*
X114112354Y-96246319D02*
X117602354Y-96246319D01*
X114112354Y-95746319D02*
X114112354Y-96246319D01*
X114112354Y-90326319D02*
X117602354Y-90326319D01*
X114112354Y-90826319D02*
X114112354Y-90326319D01*
G04 #@! TO.C,C1*
X131008200Y-104716400D02*
X131008200Y-105216400D01*
X130068200Y-105216400D02*
X130068200Y-104716400D01*
G04 #@! TO.C,C2*
X129814400Y-104716400D02*
X129814400Y-105216400D01*
X128874400Y-105216400D02*
X128874400Y-104716400D01*
G04 #@! TO.C,C3*
X113708800Y-77409400D02*
X113208800Y-77409400D01*
X113208800Y-76469400D02*
X113708800Y-76469400D01*
G04 #@! TO.C,C4*
X118105000Y-84077000D02*
X118105000Y-84577000D01*
X117165000Y-84577000D02*
X117165000Y-84077000D01*
G04 #@! TO.C,C5*
X113708800Y-81409400D02*
X113208800Y-81409400D01*
X113208800Y-80469400D02*
X113708800Y-80469400D01*
G04 #@! TO.C,C6*
X112711000Y-83820000D02*
X112711000Y-84320000D01*
X111771000Y-84320000D02*
X111771000Y-83820000D01*
G04 #@! TO.C,C7*
X111711000Y-83820000D02*
X111711000Y-84320000D01*
X110771000Y-84320000D02*
X110771000Y-83820000D01*
G04 #@! TO.C,C9*
X112679800Y-109908200D02*
X113179800Y-109908200D01*
X113179800Y-110848200D02*
X112679800Y-110848200D01*
G04 #@! TO.C,C10*
X112659800Y-112328200D02*
X113159800Y-112328200D01*
X113159800Y-113268200D02*
X112659800Y-113268200D01*
G04 #@! TO.C,C13*
X116779278Y-117358676D02*
X116279278Y-117358676D01*
X116279278Y-116418676D02*
X116779278Y-116418676D01*
G04 #@! TO.C,C14*
X123481000Y-117538000D02*
X123981000Y-117538000D01*
X123981000Y-118478000D02*
X123481000Y-118478000D01*
G04 #@! TO.C,C15*
X113179800Y-109848200D02*
X112679800Y-109848200D01*
X112679800Y-108908200D02*
X113179800Y-108908200D01*
G04 #@! TO.C,C16*
X113179800Y-111848200D02*
X112679800Y-111848200D01*
X112679800Y-110908200D02*
X113179800Y-110908200D01*
G04 #@! TO.C,C8*
X110711000Y-83820000D02*
X110711000Y-84320000D01*
X109771000Y-84320000D02*
X109771000Y-83820000D01*
G04 #@! TO.C,C12*
X123184356Y-115332219D02*
X123701512Y-115332219D01*
X123184356Y-116752219D02*
X123701512Y-116752219D01*
G04 #@! TO.C,C11*
X123184356Y-113173219D02*
X123701512Y-113173219D01*
X123184356Y-114593219D02*
X123701512Y-114593219D01*
G04 #@! TO.C,Y1*
X128844000Y-103629000D02*
X128844000Y-102429000D01*
X129844000Y-102329000D02*
X130044000Y-102329000D01*
X129844000Y-103729000D02*
X130044000Y-103729000D01*
G04 #@! TO.C,D1*
X124454000Y-84850000D02*
X122754000Y-84850000D01*
X122754000Y-84850000D02*
X122754000Y-82300000D01*
X124454000Y-84850000D02*
X124454000Y-82300000D01*
D10*
G04 #@! TO.C,J3*
X99250000Y-110894000D02*
X99250000Y-107294000D01*
X103500000Y-106094000D02*
X101225000Y-106094000D01*
X103500000Y-106894000D02*
X103500000Y-106094000D01*
X103500000Y-112094000D02*
X101225000Y-112094000D01*
X103500000Y-111294000D02*
X103500000Y-112094000D01*
D15*
X104310000Y-111544000D02*
G75*
G03X104310000Y-111544000I-100000J0D01*
G01*
D16*
G04 #@! TO.C,U5*
X115234800Y-109373200D02*
G75*
G03X115234800Y-109373200I-80000J0D01*
G01*
D17*
X115354800Y-109628200D02*
X114929800Y-109628200D01*
D18*
X114929800Y-109628200D02*
X114954800Y-109623200D01*
D10*
G04 #@! TO.C,U3*
X126500000Y-91750000D02*
X126500000Y-101950000D01*
X126500000Y-91750000D02*
X136800000Y-91750000D01*
X136800000Y-101950000D02*
X126500000Y-101950000D01*
D13*
X136950000Y-102350000D02*
G75*
G03X136950000Y-102350000I-100000J0D01*
G01*
D12*
G04 #@! TO.C,R13*
X119679800Y-109408200D02*
X119179800Y-109408200D01*
X119179800Y-108348200D02*
X119679800Y-108348200D01*
G04 #@! TO.C,R14*
X128530000Y-82275000D02*
X128530000Y-82775000D01*
X127470000Y-82775000D02*
X127470000Y-82275000D01*
G04 #@! TO.C,R15*
X107224035Y-114691273D02*
X107724035Y-114691273D01*
X107724035Y-115751273D02*
X107224035Y-115751273D01*
G04 #@! TO.C,R16*
X110264035Y-118316673D02*
X109764035Y-118316673D01*
X109764035Y-117256673D02*
X110264035Y-117256673D01*
G04 #@! TO.C,R17*
X116279278Y-117628676D02*
X116779278Y-117628676D01*
X116779278Y-118688676D02*
X116279278Y-118688676D01*
G04 #@! TO.C,R18*
X132617600Y-109020400D02*
X132617600Y-109520400D01*
X131557600Y-109520400D02*
X131557600Y-109020400D01*
G04 #@! TO.C,R19*
X133887600Y-109020400D02*
X133887600Y-109520400D01*
X132827600Y-109520400D02*
X132827600Y-109020400D01*
G04 #@! TO.C,R1*
X114569035Y-78008273D02*
X114569035Y-77508273D01*
X115629035Y-77508273D02*
X115629035Y-78008273D01*
G04 #@! TO.C,R11*
X119679800Y-110408200D02*
X119179800Y-110408200D01*
X119179800Y-109348200D02*
X119679800Y-109348200D01*
G04 #@! TO.C,R20*
X128530000Y-84100000D02*
X128530000Y-84600000D01*
X127470000Y-84600000D02*
X127470000Y-84100000D01*
G04 #@! TO.C,R12*
X117959800Y-107628200D02*
X117959800Y-108128200D01*
X116899800Y-108128200D02*
X116899800Y-107628200D01*
G04 #@! TO.C,R10*
X119679800Y-111408200D02*
X119179800Y-111408200D01*
X119179800Y-110348200D02*
X119679800Y-110348200D01*
G04 #@! TO.C,R9*
X111705000Y-114030000D02*
X112205000Y-114030000D01*
X112205000Y-115090000D02*
X111705000Y-115090000D01*
G04 #@! TO.C,R8*
X129754354Y-107401919D02*
X130254354Y-107401919D01*
X130254354Y-108461919D02*
X129754354Y-108461919D01*
G04 #@! TO.C,R7*
X135113754Y-108290919D02*
X135613754Y-108290919D01*
X135613754Y-109350919D02*
X135113754Y-109350919D01*
G04 #@! TO.C,R6*
X125608920Y-104595340D02*
X125608920Y-104095340D01*
X126668920Y-104095340D02*
X126668920Y-104595340D01*
G04 #@! TO.C,R5*
X111208800Y-81469400D02*
X110708800Y-81469400D01*
X110708800Y-80409400D02*
X111208800Y-80409400D01*
G04 #@! TO.C,R4*
X110708800Y-76409400D02*
X111208800Y-76409400D01*
X111208800Y-77469400D02*
X110708800Y-77469400D01*
G04 #@! TO.C,R3*
X139017354Y-88167319D02*
X138517354Y-88167319D01*
X138517354Y-87107319D02*
X139017354Y-87107319D01*
G04 #@! TO.C,R2*
X121016154Y-89868519D02*
X121016154Y-89368519D01*
X122076154Y-89368519D02*
X122076154Y-89868519D01*
D19*
G04 #@! TO.C,J2*
X107747354Y-83421919D02*
X107747354Y-85634919D01*
X103747354Y-83421919D02*
X103747354Y-85768919D01*
X106514354Y-87671919D02*
X105025354Y-87671919D01*
X107747354Y-83421919D02*
X106892354Y-83421919D01*
X103747354Y-83421919D02*
X104647354Y-83421919D01*
D12*
G04 #@! TO.C,U1*
X136370400Y-83846800D02*
X131770400Y-83846800D01*
X136370400Y-87246800D02*
X131870400Y-87246800D01*
D20*
X131120400Y-82996800D02*
X131120400Y-88096800D01*
X137220400Y-88096800D02*
X137220400Y-82996800D01*
D13*
X136482203Y-89396800D02*
G75*
G03X136482203Y-89396800I-111803J0D01*
G01*
D21*
G04 #@! TO.C,IC1*
X114483800Y-77539400D02*
G75*
G03X114483800Y-77539400I-125000J0D01*
G01*
D12*
G04 #@! TO.C,Q1*
X119796000Y-84917000D02*
X121256000Y-84917000D01*
X119796000Y-81757000D02*
X121956000Y-81757000D01*
X119796000Y-81757000D02*
X119796000Y-82687000D01*
X119796000Y-84917000D02*
X119796000Y-83987000D01*
G04 #@! TO.C,Q2*
X125820000Y-106190000D02*
X125820000Y-107650000D01*
X128980000Y-106190000D02*
X128980000Y-108350000D01*
X128980000Y-106190000D02*
X128050000Y-106190000D01*
X125820000Y-106190000D02*
X126750000Y-106190000D01*
G04 #@! TO.C,U2*
X114059000Y-83217000D02*
X116509000Y-83217000D01*
X115859000Y-86437000D02*
X114059000Y-86437000D01*
G04 #@! TO.C,TP8*
X122653000Y-86512000D02*
G75*
G03X122653000Y-86512000I-700000J0D01*
G01*
G04 #@! TO.C,TP3*
X127733000Y-86512000D02*
G75*
G03X127733000Y-86512000I-700000J0D01*
G01*
G04 #@! TO.C,TP4*
X125193000Y-86512000D02*
G75*
G03X125193000Y-86512000I-700000J0D01*
G01*
G04 #@! TO.C,TP5*
X134865000Y-111410000D02*
G75*
G03X134865000Y-111410000I-700000J0D01*
G01*
G04 #@! TO.C,TP6*
X131898600Y-111440578D02*
G75*
G03X131898600Y-111440578I-700000J0D01*
G01*
G04 #@! TO.C,TP9*
X141321554Y-89923319D02*
G75*
G03X141321554Y-89923319I-700000J0D01*
G01*
G04 #@! TO.C,TP10*
X117420154Y-79356919D02*
G75*
G03X117420154Y-79356919I-700000J0D01*
G01*
G04 #@! TO.C,TP12*
X108758754Y-81922319D02*
G75*
G03X108758754Y-81922319I-700000J0D01*
G01*
G04 #@! TO.C,J1*
X118175000Y-80437500D02*
X118625000Y-80437500D01*
X118175000Y-78587500D02*
X118175000Y-80437500D01*
X125975000Y-76037500D02*
X125975000Y-76287500D01*
X118175000Y-76037500D02*
X118175000Y-76287500D01*
X125975000Y-78587500D02*
X125975000Y-80437500D01*
X125975000Y-80437500D02*
X125525000Y-80437500D01*
X120375000Y-80987500D02*
X120825000Y-80987500D01*
X120375000Y-80987500D02*
X120375000Y-80537500D01*
D22*
G04 #@! TO.C,Ref\002A\002A*
G36*
X102984191Y-104016519D02*
X102926238Y-104067185D01*
X102895013Y-104149002D01*
X102889854Y-104211485D01*
X102894093Y-104283654D01*
X102911447Y-104333081D01*
X102948870Y-104378907D01*
X102951726Y-104381780D01*
X103022234Y-104431908D01*
X103080354Y-104443652D01*
X103153328Y-104424763D01*
X103208982Y-104381780D01*
X103257163Y-104305474D01*
X103272402Y-104212868D01*
X103253476Y-104115700D01*
X103239887Y-104085333D01*
X103204057Y-104034231D01*
X103155611Y-104007741D01*
X103081341Y-103999275D01*
X103067077Y-103999152D01*
X102984191Y-104016519D01*
X102984191Y-104016519D01*
G37*
X102984191Y-104016519D02*
X102926238Y-104067185D01*
X102895013Y-104149002D01*
X102889854Y-104211485D01*
X102894093Y-104283654D01*
X102911447Y-104333081D01*
X102948870Y-104378907D01*
X102951726Y-104381780D01*
X103022234Y-104431908D01*
X103080354Y-104443652D01*
X103153328Y-104424763D01*
X103208982Y-104381780D01*
X103257163Y-104305474D01*
X103272402Y-104212868D01*
X103253476Y-104115700D01*
X103239887Y-104085333D01*
X103204057Y-104034231D01*
X103155611Y-104007741D01*
X103081341Y-103999275D01*
X103067077Y-103999152D01*
X102984191Y-104016519D01*
G36*
X99675903Y-103518935D02*
X99526519Y-103616953D01*
X99404442Y-103737101D01*
X99318412Y-103869157D01*
X99290667Y-103930299D01*
X99273295Y-103985276D01*
X99263940Y-104047383D01*
X99260248Y-104129911D01*
X99259770Y-104200236D01*
X99261052Y-104302950D01*
X99266472Y-104376677D01*
X99278394Y-104434725D01*
X99299180Y-104490403D01*
X99318641Y-104531783D01*
X99415655Y-104683926D01*
X99540865Y-104805225D01*
X99691319Y-104893505D01*
X99864064Y-104946591D01*
X99887110Y-104950649D01*
X99937728Y-104955285D01*
X100028008Y-104959464D01*
X100155279Y-104963144D01*
X100316873Y-104966285D01*
X100510121Y-104968845D01*
X100732351Y-104970783D01*
X100980896Y-104972059D01*
X101253084Y-104972631D01*
X101318229Y-104972659D01*
X102614687Y-104972819D01*
X102614687Y-103787486D01*
X102549309Y-103787486D01*
X102520759Y-103866861D01*
X102478696Y-103983124D01*
X102433708Y-104106318D01*
X102388274Y-104229780D01*
X102344874Y-104346848D01*
X102305987Y-104450860D01*
X102274094Y-104535154D01*
X102251674Y-104593068D01*
X102241207Y-104617941D01*
X102241163Y-104618014D01*
X102215715Y-104626608D01*
X102160877Y-104630684D01*
X102101414Y-104629823D01*
X101972828Y-104623569D01*
X101895981Y-104375723D01*
X101865386Y-104279328D01*
X101838296Y-104198177D01*
X101817584Y-104140589D01*
X101806118Y-104114882D01*
X101805896Y-104114639D01*
X101795843Y-104128877D01*
X101776784Y-104174637D01*
X101751726Y-104242847D01*
X101723680Y-104324439D01*
X101695654Y-104410340D01*
X101670659Y-104491481D01*
X101651702Y-104558790D01*
X101641794Y-104603198D01*
X101641020Y-104611620D01*
X101622507Y-104625672D01*
X101565705Y-104631092D01*
X101500906Y-104629828D01*
X101360791Y-104623569D01*
X101207305Y-104204588D01*
X101054509Y-103787486D01*
X101006020Y-103787486D01*
X101006020Y-104634152D01*
X100730854Y-104634152D01*
X100730854Y-103787486D01*
X100667354Y-103787486D01*
X100667354Y-104634152D01*
X100392187Y-104634152D01*
X100392187Y-104219952D01*
X100328569Y-104219952D01*
X100310568Y-104327391D01*
X100262464Y-104433933D01*
X100192271Y-104526891D01*
X100108000Y-104593574D01*
X100085664Y-104604655D01*
X100021701Y-104623092D01*
X99945814Y-104632895D01*
X99931812Y-104633324D01*
X99841854Y-104634152D01*
X99841854Y-104528319D01*
X99843283Y-104465658D01*
X99851829Y-104434410D01*
X99873883Y-104423661D01*
X99903818Y-104422486D01*
X99971913Y-104403539D01*
X100021459Y-104350020D01*
X100048997Y-104266908D01*
X100053520Y-104207002D01*
X100047960Y-104132670D01*
X100027272Y-104081636D01*
X100001566Y-104051107D01*
X99950307Y-104015038D01*
X99897706Y-103999186D01*
X99895733Y-103999152D01*
X99863770Y-103995851D01*
X99847825Y-103978719D01*
X99842379Y-103936914D01*
X99841854Y-103893319D01*
X99841854Y-103787486D01*
X99927572Y-103787486D01*
X100045437Y-103807513D01*
X100151129Y-103863417D01*
X100236467Y-103948928D01*
X100293273Y-104057779D01*
X100297435Y-104070931D01*
X100315643Y-104140598D01*
X100326848Y-104199574D01*
X100328569Y-104219952D01*
X100392187Y-104219952D01*
X100392187Y-103787486D01*
X100667354Y-103787486D01*
X100730854Y-103787486D01*
X101006020Y-103787486D01*
X101054509Y-103787486D01*
X101053820Y-103785607D01*
X101182966Y-103791838D01*
X101312113Y-103798069D01*
X101394940Y-104078527D01*
X101425908Y-104180092D01*
X101453734Y-104265262D01*
X101475873Y-104326692D01*
X101489783Y-104357038D01*
X101492039Y-104358986D01*
X101502584Y-104339773D01*
X101521782Y-104287004D01*
X101547210Y-104207978D01*
X101576444Y-104109998D01*
X101587204Y-104072302D01*
X101668097Y-103785619D01*
X101925363Y-103798069D01*
X101972382Y-103956819D01*
X102001198Y-104054813D01*
X102030840Y-104156737D01*
X102053963Y-104237277D01*
X102074475Y-104301751D01*
X102092714Y-104345830D01*
X102102897Y-104358870D01*
X102113597Y-104339646D01*
X102133136Y-104286930D01*
X102159044Y-104208022D01*
X102188847Y-104110224D01*
X102199673Y-104073120D01*
X102282075Y-103787486D01*
X102549309Y-103787486D01*
X102614687Y-103787486D01*
X102752270Y-103787486D01*
X102826224Y-103788405D01*
X102867415Y-103793628D01*
X102885409Y-103806857D01*
X102889772Y-103831791D01*
X102889854Y-103840702D01*
X102889854Y-103893919D01*
X102974154Y-103838132D01*
X103030660Y-103805463D01*
X103082999Y-103790662D01*
X103150638Y-103789339D01*
X103181914Y-103791275D01*
X103308628Y-103817977D01*
X103408413Y-103876803D01*
X103479930Y-103966154D01*
X103521840Y-104084431D01*
X103533169Y-104210819D01*
X103516916Y-104354965D01*
X103470808Y-104470055D01*
X103395715Y-104555065D01*
X103292507Y-104608975D01*
X103176504Y-104630045D01*
X103097606Y-104631935D01*
X103042297Y-104622912D01*
X102992392Y-104598918D01*
X102969229Y-104583781D01*
X102889854Y-104529595D01*
X102889854Y-104972819D01*
X103011562Y-104970178D01*
X103104068Y-104965577D01*
X103200368Y-104956907D01*
X103240273Y-104951826D01*
X103408510Y-104906484D01*
X103559092Y-104824253D01*
X103687502Y-104708484D01*
X103789225Y-104562528D01*
X103804534Y-104532941D01*
X103838714Y-104459461D01*
X103859384Y-104399234D01*
X103869813Y-104336490D01*
X103873268Y-104255455D01*
X103873394Y-104200681D01*
X103871215Y-104101002D01*
X103863549Y-104028094D01*
X103847379Y-103966463D01*
X103819692Y-103900618D01*
X103811768Y-103884053D01*
X103718964Y-103736983D01*
X103597283Y-103613187D01*
X103455150Y-103521105D01*
X103444346Y-103515921D01*
X103323770Y-103459402D01*
X99788937Y-103459402D01*
X99675903Y-103518935D01*
X99675903Y-103518935D01*
G37*
X99675903Y-103518935D02*
X99526519Y-103616953D01*
X99404442Y-103737101D01*
X99318412Y-103869157D01*
X99290667Y-103930299D01*
X99273295Y-103985276D01*
X99263940Y-104047383D01*
X99260248Y-104129911D01*
X99259770Y-104200236D01*
X99261052Y-104302950D01*
X99266472Y-104376677D01*
X99278394Y-104434725D01*
X99299180Y-104490403D01*
X99318641Y-104531783D01*
X99415655Y-104683926D01*
X99540865Y-104805225D01*
X99691319Y-104893505D01*
X99864064Y-104946591D01*
X99887110Y-104950649D01*
X99937728Y-104955285D01*
X100028008Y-104959464D01*
X100155279Y-104963144D01*
X100316873Y-104966285D01*
X100510121Y-104968845D01*
X100732351Y-104970783D01*
X100980896Y-104972059D01*
X101253084Y-104972631D01*
X101318229Y-104972659D01*
X102614687Y-104972819D01*
X102614687Y-103787486D01*
X102549309Y-103787486D01*
X102520759Y-103866861D01*
X102478696Y-103983124D01*
X102433708Y-104106318D01*
X102388274Y-104229780D01*
X102344874Y-104346848D01*
X102305987Y-104450860D01*
X102274094Y-104535154D01*
X102251674Y-104593068D01*
X102241207Y-104617941D01*
X102241163Y-104618014D01*
X102215715Y-104626608D01*
X102160877Y-104630684D01*
X102101414Y-104629823D01*
X101972828Y-104623569D01*
X101895981Y-104375723D01*
X101865386Y-104279328D01*
X101838296Y-104198177D01*
X101817584Y-104140589D01*
X101806118Y-104114882D01*
X101805896Y-104114639D01*
X101795843Y-104128877D01*
X101776784Y-104174637D01*
X101751726Y-104242847D01*
X101723680Y-104324439D01*
X101695654Y-104410340D01*
X101670659Y-104491481D01*
X101651702Y-104558790D01*
X101641794Y-104603198D01*
X101641020Y-104611620D01*
X101622507Y-104625672D01*
X101565705Y-104631092D01*
X101500906Y-104629828D01*
X101360791Y-104623569D01*
X101207305Y-104204588D01*
X101054509Y-103787486D01*
X101006020Y-103787486D01*
X101006020Y-104634152D01*
X100730854Y-104634152D01*
X100730854Y-103787486D01*
X100667354Y-103787486D01*
X100667354Y-104634152D01*
X100392187Y-104634152D01*
X100392187Y-104219952D01*
X100328569Y-104219952D01*
X100310568Y-104327391D01*
X100262464Y-104433933D01*
X100192271Y-104526891D01*
X100108000Y-104593574D01*
X100085664Y-104604655D01*
X100021701Y-104623092D01*
X99945814Y-104632895D01*
X99931812Y-104633324D01*
X99841854Y-104634152D01*
X99841854Y-104528319D01*
X99843283Y-104465658D01*
X99851829Y-104434410D01*
X99873883Y-104423661D01*
X99903818Y-104422486D01*
X99971913Y-104403539D01*
X100021459Y-104350020D01*
X100048997Y-104266908D01*
X100053520Y-104207002D01*
X100047960Y-104132670D01*
X100027272Y-104081636D01*
X100001566Y-104051107D01*
X99950307Y-104015038D01*
X99897706Y-103999186D01*
X99895733Y-103999152D01*
X99863770Y-103995851D01*
X99847825Y-103978719D01*
X99842379Y-103936914D01*
X99841854Y-103893319D01*
X99841854Y-103787486D01*
X99927572Y-103787486D01*
X100045437Y-103807513D01*
X100151129Y-103863417D01*
X100236467Y-103948928D01*
X100293273Y-104057779D01*
X100297435Y-104070931D01*
X100315643Y-104140598D01*
X100326848Y-104199574D01*
X100328569Y-104219952D01*
X100392187Y-104219952D01*
X100392187Y-103787486D01*
X100667354Y-103787486D01*
X100730854Y-103787486D01*
X101006020Y-103787486D01*
X101054509Y-103787486D01*
X101053820Y-103785607D01*
X101182966Y-103791838D01*
X101312113Y-103798069D01*
X101394940Y-104078527D01*
X101425908Y-104180092D01*
X101453734Y-104265262D01*
X101475873Y-104326692D01*
X101489783Y-104357038D01*
X101492039Y-104358986D01*
X101502584Y-104339773D01*
X101521782Y-104287004D01*
X101547210Y-104207978D01*
X101576444Y-104109998D01*
X101587204Y-104072302D01*
X101668097Y-103785619D01*
X101925363Y-103798069D01*
X101972382Y-103956819D01*
X102001198Y-104054813D01*
X102030840Y-104156737D01*
X102053963Y-104237277D01*
X102074475Y-104301751D01*
X102092714Y-104345830D01*
X102102897Y-104358870D01*
X102113597Y-104339646D01*
X102133136Y-104286930D01*
X102159044Y-104208022D01*
X102188847Y-104110224D01*
X102199673Y-104073120D01*
X102282075Y-103787486D01*
X102549309Y-103787486D01*
X102614687Y-103787486D01*
X102752270Y-103787486D01*
X102826224Y-103788405D01*
X102867415Y-103793628D01*
X102885409Y-103806857D01*
X102889772Y-103831791D01*
X102889854Y-103840702D01*
X102889854Y-103893919D01*
X102974154Y-103838132D01*
X103030660Y-103805463D01*
X103082999Y-103790662D01*
X103150638Y-103789339D01*
X103181914Y-103791275D01*
X103308628Y-103817977D01*
X103408413Y-103876803D01*
X103479930Y-103966154D01*
X103521840Y-104084431D01*
X103533169Y-104210819D01*
X103516916Y-104354965D01*
X103470808Y-104470055D01*
X103395715Y-104555065D01*
X103292507Y-104608975D01*
X103176504Y-104630045D01*
X103097606Y-104631935D01*
X103042297Y-104622912D01*
X102992392Y-104598918D01*
X102969229Y-104583781D01*
X102889854Y-104529595D01*
X102889854Y-104972819D01*
X103011562Y-104970178D01*
X103104068Y-104965577D01*
X103200368Y-104956907D01*
X103240273Y-104951826D01*
X103408510Y-104906484D01*
X103559092Y-104824253D01*
X103687502Y-104708484D01*
X103789225Y-104562528D01*
X103804534Y-104532941D01*
X103838714Y-104459461D01*
X103859384Y-104399234D01*
X103869813Y-104336490D01*
X103873268Y-104255455D01*
X103873394Y-104200681D01*
X103871215Y-104101002D01*
X103863549Y-104028094D01*
X103847379Y-103966463D01*
X103819692Y-103900618D01*
X103811768Y-103884053D01*
X103718964Y-103736983D01*
X103597283Y-103613187D01*
X103455150Y-103521105D01*
X103444346Y-103515921D01*
X103323770Y-103459402D01*
X99788937Y-103459402D01*
X99675903Y-103518935D01*
G04 #@! TO.C,J7*
D23*
X132303545Y-81362361D02*
X132303545Y-81934914D01*
X132341715Y-82049425D01*
X132418056Y-82125766D01*
X132532567Y-82163936D01*
X132608907Y-82163936D01*
X131998183Y-81362361D02*
X131463800Y-81362361D01*
X131807332Y-82163936D01*
G04 #@! TO.C,M1*
D14*
X130315201Y-118302980D02*
X130315201Y-117667980D01*
X130103534Y-118121552D01*
X129891868Y-117667980D01*
X129891868Y-118302980D01*
X129256868Y-118302980D02*
X129619725Y-118302980D01*
X129438296Y-118302980D02*
X129438296Y-117667980D01*
X129498773Y-117758695D01*
X129559249Y-117819171D01*
X129619725Y-117849409D01*
G04 #@! TO.C,D2*
X135883244Y-118150580D02*
X135883244Y-117515580D01*
X135732054Y-117515580D01*
X135641339Y-117545819D01*
X135580863Y-117606295D01*
X135550625Y-117666771D01*
X135520387Y-117787723D01*
X135520387Y-117878438D01*
X135550625Y-117999390D01*
X135580863Y-118059866D01*
X135641339Y-118120342D01*
X135732054Y-118150580D01*
X135883244Y-118150580D01*
X135278482Y-117576057D02*
X135248244Y-117545819D01*
X135187768Y-117515580D01*
X135036577Y-117515580D01*
X134976101Y-117545819D01*
X134945863Y-117576057D01*
X134915625Y-117636533D01*
X134915625Y-117697009D01*
X134945863Y-117787723D01*
X135308720Y-118150580D01*
X134915625Y-118150580D01*
G04 #@! TO.C,R24*
X124951568Y-109209780D02*
X125163234Y-108907399D01*
X125314425Y-109209780D02*
X125314425Y-108574780D01*
X125072520Y-108574780D01*
X125012044Y-108605019D01*
X124981806Y-108635257D01*
X124951568Y-108695733D01*
X124951568Y-108786447D01*
X124981806Y-108846923D01*
X125012044Y-108877161D01*
X125072520Y-108907399D01*
X125314425Y-108907399D01*
X124709663Y-108635257D02*
X124679425Y-108605019D01*
X124618949Y-108574780D01*
X124467758Y-108574780D01*
X124407282Y-108605019D01*
X124377044Y-108635257D01*
X124346806Y-108695733D01*
X124346806Y-108756209D01*
X124377044Y-108846923D01*
X124739901Y-109209780D01*
X124346806Y-109209780D01*
X123802520Y-108786447D02*
X123802520Y-109209780D01*
X123953711Y-108544542D02*
X124104901Y-108998114D01*
X123711806Y-108998114D01*
G04 #@! TO.C,Q3*
X124883230Y-112165857D02*
X124943706Y-112135619D01*
X125004182Y-112075142D01*
X125094896Y-111984428D01*
X125155373Y-111954190D01*
X125215849Y-111954190D01*
X125185611Y-112105380D02*
X125246087Y-112075142D01*
X125306563Y-112014666D01*
X125336801Y-111893714D01*
X125336801Y-111682047D01*
X125306563Y-111561095D01*
X125246087Y-111500619D01*
X125185611Y-111470380D01*
X125064658Y-111470380D01*
X125004182Y-111500619D01*
X124943706Y-111561095D01*
X124913468Y-111682047D01*
X124913468Y-111893714D01*
X124943706Y-112014666D01*
X125004182Y-112075142D01*
X125064658Y-112105380D01*
X125185611Y-112105380D01*
X124701801Y-111470380D02*
X124308706Y-111470380D01*
X124520373Y-111712285D01*
X124429658Y-111712285D01*
X124369182Y-111742523D01*
X124338944Y-111772761D01*
X124308706Y-111833238D01*
X124308706Y-111984428D01*
X124338944Y-112044904D01*
X124369182Y-112075142D01*
X124429658Y-112105380D01*
X124611087Y-112105380D01*
X124671563Y-112075142D01*
X124701801Y-112044904D01*
G04 #@! TO.C,TP7*
X138857463Y-90794780D02*
X138494606Y-90794780D01*
X138676034Y-91429780D02*
X138676034Y-90794780D01*
X138282939Y-91429780D02*
X138282939Y-90794780D01*
X138041034Y-90794780D01*
X137980558Y-90825019D01*
X137950320Y-90855257D01*
X137920082Y-90915733D01*
X137920082Y-91006447D01*
X137950320Y-91066923D01*
X137980558Y-91097161D01*
X138041034Y-91127399D01*
X138282939Y-91127399D01*
X137708415Y-90794780D02*
X137285082Y-90794780D01*
X137557225Y-91429780D01*
G04 #@! TO.C,U4*
X103647015Y-79203309D02*
X104161063Y-79203309D01*
X104221539Y-79233547D01*
X104251777Y-79263785D01*
X104282015Y-79324261D01*
X104282015Y-79445214D01*
X104251777Y-79505690D01*
X104221539Y-79535928D01*
X104161063Y-79566166D01*
X103647015Y-79566166D01*
X103858682Y-80140690D02*
X104282015Y-80140690D01*
X103616777Y-79989499D02*
X104070349Y-79838309D01*
X104070349Y-80231404D01*
G04 #@! TO.C,IC2*
X115587434Y-89143780D02*
X115587434Y-88508780D01*
X114922196Y-89083304D02*
X114952434Y-89113542D01*
X115043149Y-89143780D01*
X115103625Y-89143780D01*
X115194339Y-89113542D01*
X115254815Y-89053066D01*
X115285054Y-88992590D01*
X115315292Y-88871638D01*
X115315292Y-88780923D01*
X115285054Y-88659971D01*
X115254815Y-88599495D01*
X115194339Y-88539019D01*
X115103625Y-88508780D01*
X115043149Y-88508780D01*
X114952434Y-88539019D01*
X114922196Y-88569257D01*
X114680292Y-88569257D02*
X114650054Y-88539019D01*
X114589577Y-88508780D01*
X114438387Y-88508780D01*
X114377911Y-88539019D01*
X114347673Y-88569257D01*
X114317434Y-88629733D01*
X114317434Y-88690209D01*
X114347673Y-88780923D01*
X114710530Y-89143780D01*
X114317434Y-89143780D01*
G04 #@! TO.C,C18*
X109047539Y-77170704D02*
X109077777Y-77140466D01*
X109108015Y-77049752D01*
X109108015Y-76989276D01*
X109077777Y-76898561D01*
X109017301Y-76838085D01*
X108956825Y-76807847D01*
X108835873Y-76777609D01*
X108745158Y-76777609D01*
X108624206Y-76807847D01*
X108563730Y-76838085D01*
X108503254Y-76898561D01*
X108473015Y-76989276D01*
X108473015Y-77049752D01*
X108503254Y-77140466D01*
X108533492Y-77170704D01*
X109108015Y-77775466D02*
X109108015Y-77412609D01*
X109108015Y-77594038D02*
X108473015Y-77594038D01*
X108563730Y-77533561D01*
X108624206Y-77473085D01*
X108654444Y-77412609D01*
X108745158Y-78138323D02*
X108714920Y-78077847D01*
X108684682Y-78047609D01*
X108624206Y-78017371D01*
X108593968Y-78017371D01*
X108533492Y-78047609D01*
X108503254Y-78077847D01*
X108473015Y-78138323D01*
X108473015Y-78259276D01*
X108503254Y-78319752D01*
X108533492Y-78349990D01*
X108593968Y-78380228D01*
X108624206Y-78380228D01*
X108684682Y-78349990D01*
X108714920Y-78319752D01*
X108745158Y-78259276D01*
X108745158Y-78138323D01*
X108775396Y-78077847D01*
X108805634Y-78047609D01*
X108866111Y-78017371D01*
X108987063Y-78017371D01*
X109047539Y-78047609D01*
X109077777Y-78077847D01*
X109108015Y-78138323D01*
X109108015Y-78259276D01*
X109077777Y-78319752D01*
X109047539Y-78349990D01*
X108987063Y-78380228D01*
X108866111Y-78380228D01*
X108805634Y-78349990D01*
X108775396Y-78319752D01*
X108745158Y-78259276D01*
G04 #@! TO.C,C19*
X109098339Y-79456704D02*
X109128577Y-79426466D01*
X109158815Y-79335752D01*
X109158815Y-79275276D01*
X109128577Y-79184561D01*
X109068101Y-79124085D01*
X109007625Y-79093847D01*
X108886673Y-79063609D01*
X108795958Y-79063609D01*
X108675006Y-79093847D01*
X108614530Y-79124085D01*
X108554054Y-79184561D01*
X108523815Y-79275276D01*
X108523815Y-79335752D01*
X108554054Y-79426466D01*
X108584292Y-79456704D01*
X109158815Y-80061466D02*
X109158815Y-79698609D01*
X109158815Y-79880038D02*
X108523815Y-79880038D01*
X108614530Y-79819561D01*
X108675006Y-79759085D01*
X108705244Y-79698609D01*
X109158815Y-80363847D02*
X109158815Y-80484799D01*
X109128577Y-80545276D01*
X109098339Y-80575514D01*
X109007625Y-80635990D01*
X108886673Y-80666228D01*
X108644768Y-80666228D01*
X108584292Y-80635990D01*
X108554054Y-80605752D01*
X108523815Y-80545276D01*
X108523815Y-80424323D01*
X108554054Y-80363847D01*
X108584292Y-80333609D01*
X108644768Y-80303371D01*
X108795958Y-80303371D01*
X108856434Y-80333609D01*
X108886673Y-80363847D01*
X108916911Y-80424323D01*
X108916911Y-80545276D01*
X108886673Y-80605752D01*
X108856434Y-80635990D01*
X108795958Y-80666228D01*
G04 #@! TO.C,R21*
X104383615Y-76992904D02*
X104081234Y-76781238D01*
X104383615Y-76630047D02*
X103748615Y-76630047D01*
X103748615Y-76871952D01*
X103778854Y-76932428D01*
X103809092Y-76962666D01*
X103869568Y-76992904D01*
X103960282Y-76992904D01*
X104020758Y-76962666D01*
X104050996Y-76932428D01*
X104081234Y-76871952D01*
X104081234Y-76630047D01*
X103809092Y-77234809D02*
X103778854Y-77265047D01*
X103748615Y-77325523D01*
X103748615Y-77476714D01*
X103778854Y-77537190D01*
X103809092Y-77567428D01*
X103869568Y-77597666D01*
X103930044Y-77597666D01*
X104020758Y-77567428D01*
X104383615Y-77204571D01*
X104383615Y-77597666D01*
X104383615Y-78202428D02*
X104383615Y-77839571D01*
X104383615Y-78020999D02*
X103748615Y-78020999D01*
X103839330Y-77960523D01*
X103899806Y-77900047D01*
X103930044Y-77839571D01*
G04 #@! TO.C,R22*
X106866768Y-76646980D02*
X107078434Y-76344599D01*
X107229625Y-76646980D02*
X107229625Y-76011980D01*
X106987720Y-76011980D01*
X106927244Y-76042219D01*
X106897006Y-76072457D01*
X106866768Y-76132933D01*
X106866768Y-76223647D01*
X106897006Y-76284123D01*
X106927244Y-76314361D01*
X106987720Y-76344599D01*
X107229625Y-76344599D01*
X106624863Y-76072457D02*
X106594625Y-76042219D01*
X106534149Y-76011980D01*
X106382958Y-76011980D01*
X106322482Y-76042219D01*
X106292244Y-76072457D01*
X106262006Y-76132933D01*
X106262006Y-76193409D01*
X106292244Y-76284123D01*
X106655101Y-76646980D01*
X106262006Y-76646980D01*
X106020101Y-76072457D02*
X105989863Y-76042219D01*
X105929387Y-76011980D01*
X105778196Y-76011980D01*
X105717720Y-76042219D01*
X105687482Y-76072457D01*
X105657244Y-76132933D01*
X105657244Y-76193409D01*
X105687482Y-76284123D01*
X106050339Y-76646980D01*
X105657244Y-76646980D01*
G04 #@! TO.C,R23*
X103666368Y-81752380D02*
X103878034Y-81449999D01*
X104029225Y-81752380D02*
X104029225Y-81117380D01*
X103787320Y-81117380D01*
X103726844Y-81147619D01*
X103696606Y-81177857D01*
X103666368Y-81238333D01*
X103666368Y-81329047D01*
X103696606Y-81389523D01*
X103726844Y-81419761D01*
X103787320Y-81449999D01*
X104029225Y-81449999D01*
X103424463Y-81177857D02*
X103394225Y-81147619D01*
X103333749Y-81117380D01*
X103182558Y-81117380D01*
X103122082Y-81147619D01*
X103091844Y-81177857D01*
X103061606Y-81238333D01*
X103061606Y-81298809D01*
X103091844Y-81389523D01*
X103454701Y-81752380D01*
X103061606Y-81752380D01*
X102849939Y-81117380D02*
X102456844Y-81117380D01*
X102668511Y-81359285D01*
X102577796Y-81359285D01*
X102517320Y-81389523D01*
X102487082Y-81419761D01*
X102456844Y-81480238D01*
X102456844Y-81631428D01*
X102487082Y-81691904D01*
X102517320Y-81722142D01*
X102577796Y-81752380D01*
X102759225Y-81752380D01*
X102819701Y-81722142D01*
X102849939Y-81691904D01*
G04 #@! TO.C,C17*
X135695768Y-107828504D02*
X135726006Y-107858742D01*
X135816720Y-107888980D01*
X135877196Y-107888980D01*
X135967911Y-107858742D01*
X136028387Y-107798266D01*
X136058625Y-107737790D01*
X136088863Y-107616838D01*
X136088863Y-107526123D01*
X136058625Y-107405171D01*
X136028387Y-107344695D01*
X135967911Y-107284219D01*
X135877196Y-107253980D01*
X135816720Y-107253980D01*
X135726006Y-107284219D01*
X135695768Y-107314457D01*
X135091006Y-107888980D02*
X135453863Y-107888980D01*
X135272434Y-107888980D02*
X135272434Y-107253980D01*
X135332911Y-107344695D01*
X135393387Y-107405171D01*
X135453863Y-107435409D01*
X134879339Y-107253980D02*
X134456006Y-107253980D01*
X134728149Y-107888980D01*
G04 #@! TO.C,J6*
X99780719Y-92545981D02*
X99780719Y-92999553D01*
X99810957Y-93090267D01*
X99871433Y-93150743D01*
X99962148Y-93180981D01*
X100022624Y-93180981D01*
X99206195Y-92545981D02*
X99327148Y-92545981D01*
X99387624Y-92576220D01*
X99417862Y-92606458D01*
X99478338Y-92697172D01*
X99508576Y-92818124D01*
X99508576Y-93060029D01*
X99478338Y-93120505D01*
X99448100Y-93150743D01*
X99387624Y-93180981D01*
X99266672Y-93180981D01*
X99206195Y-93150743D01*
X99175957Y-93120505D01*
X99145719Y-93060029D01*
X99145719Y-92908839D01*
X99175957Y-92848362D01*
X99206195Y-92818124D01*
X99266672Y-92787886D01*
X99387624Y-92787886D01*
X99448100Y-92818124D01*
X99478338Y-92848362D01*
X99508576Y-92908839D01*
G04 #@! TO.C,MK1*
X135915901Y-105221980D02*
X135915901Y-104586980D01*
X135704234Y-105040552D01*
X135492568Y-104586980D01*
X135492568Y-105221980D01*
X135190187Y-105221980D02*
X135190187Y-104586980D01*
X134827330Y-105221980D02*
X135099473Y-104859123D01*
X134827330Y-104586980D02*
X135190187Y-104949838D01*
X134222568Y-105221980D02*
X134585425Y-105221980D01*
X134403996Y-105221980D02*
X134403996Y-104586980D01*
X134464473Y-104677695D01*
X134524949Y-104738171D01*
X134585425Y-104768409D01*
G04 #@! TO.C,J5*
X120132220Y-104536180D02*
X120132220Y-104989752D01*
X120162458Y-105080466D01*
X120222934Y-105140942D01*
X120313649Y-105171180D01*
X120374125Y-105171180D01*
X119527458Y-104536180D02*
X119829839Y-104536180D01*
X119860077Y-104838561D01*
X119829839Y-104808323D01*
X119769363Y-104778085D01*
X119618173Y-104778085D01*
X119557696Y-104808323D01*
X119527458Y-104838561D01*
X119497220Y-104899038D01*
X119497220Y-105050228D01*
X119527458Y-105110704D01*
X119557696Y-105140942D01*
X119618173Y-105171180D01*
X119769363Y-105171180D01*
X119829839Y-105140942D01*
X119860077Y-105110704D01*
G04 #@! TO.C,J4*
X116169820Y-96687580D02*
X116169820Y-97141152D01*
X116200058Y-97231866D01*
X116260534Y-97292342D01*
X116351249Y-97322580D01*
X116411725Y-97322580D01*
X115595296Y-96899247D02*
X115595296Y-97322580D01*
X115746487Y-96657342D02*
X115897677Y-97110914D01*
X115504582Y-97110914D01*
G04 #@! TO.C,C1*
X130815339Y-106454485D02*
X130845577Y-106424247D01*
X130875815Y-106333533D01*
X130875815Y-106273057D01*
X130845577Y-106182342D01*
X130785101Y-106121866D01*
X130724625Y-106091628D01*
X130603673Y-106061390D01*
X130512958Y-106061390D01*
X130392006Y-106091628D01*
X130331530Y-106121866D01*
X130271054Y-106182342D01*
X130240815Y-106273057D01*
X130240815Y-106333533D01*
X130271054Y-106424247D01*
X130301292Y-106454485D01*
X130875815Y-107059247D02*
X130875815Y-106696390D01*
X130875815Y-106877819D02*
X130240815Y-106877819D01*
X130331530Y-106817342D01*
X130392006Y-106756866D01*
X130422244Y-106696390D01*
G04 #@! TO.C,C2*
X129773939Y-106378285D02*
X129804177Y-106348047D01*
X129834415Y-106257333D01*
X129834415Y-106196857D01*
X129804177Y-106106142D01*
X129743701Y-106045666D01*
X129683225Y-106015428D01*
X129562273Y-105985190D01*
X129471558Y-105985190D01*
X129350606Y-106015428D01*
X129290130Y-106045666D01*
X129229654Y-106106142D01*
X129199415Y-106196857D01*
X129199415Y-106257333D01*
X129229654Y-106348047D01*
X129259892Y-106378285D01*
X129259892Y-106620190D02*
X129229654Y-106650428D01*
X129199415Y-106710904D01*
X129199415Y-106862095D01*
X129229654Y-106922571D01*
X129259892Y-106952809D01*
X129320368Y-106983047D01*
X129380844Y-106983047D01*
X129471558Y-106952809D01*
X129834415Y-106589952D01*
X129834415Y-106983047D01*
G04 #@! TO.C,C3*
X115073387Y-76891304D02*
X115103625Y-76921542D01*
X115194339Y-76951780D01*
X115254815Y-76951780D01*
X115345530Y-76921542D01*
X115406006Y-76861066D01*
X115436244Y-76800590D01*
X115466482Y-76679638D01*
X115466482Y-76588923D01*
X115436244Y-76467971D01*
X115406006Y-76407495D01*
X115345530Y-76347019D01*
X115254815Y-76316780D01*
X115194339Y-76316780D01*
X115103625Y-76347019D01*
X115073387Y-76377257D01*
X114861720Y-76316780D02*
X114468625Y-76316780D01*
X114680292Y-76558685D01*
X114589577Y-76558685D01*
X114529101Y-76588923D01*
X114498863Y-76619161D01*
X114468625Y-76679638D01*
X114468625Y-76830828D01*
X114498863Y-76891304D01*
X114529101Y-76921542D01*
X114589577Y-76951780D01*
X114771006Y-76951780D01*
X114831482Y-76921542D01*
X114861720Y-76891304D01*
G04 #@! TO.C,C4*
X117925785Y-86025166D02*
X117956023Y-85994928D01*
X117986261Y-85904214D01*
X117986261Y-85843738D01*
X117956023Y-85753023D01*
X117895547Y-85692547D01*
X117835071Y-85662309D01*
X117714119Y-85632071D01*
X117623404Y-85632071D01*
X117502452Y-85662309D01*
X117441976Y-85692547D01*
X117381500Y-85753023D01*
X117351261Y-85843738D01*
X117351261Y-85904214D01*
X117381500Y-85994928D01*
X117411738Y-86025166D01*
X117562928Y-86569452D02*
X117986261Y-86569452D01*
X117321023Y-86418261D02*
X117774595Y-86267071D01*
X117774595Y-86660166D01*
G04 #@! TO.C,C5*
X113549387Y-82326904D02*
X113579625Y-82357142D01*
X113670339Y-82387380D01*
X113730815Y-82387380D01*
X113821530Y-82357142D01*
X113882006Y-82296666D01*
X113912244Y-82236190D01*
X113942482Y-82115238D01*
X113942482Y-82024523D01*
X113912244Y-81903571D01*
X113882006Y-81843095D01*
X113821530Y-81782619D01*
X113730815Y-81752380D01*
X113670339Y-81752380D01*
X113579625Y-81782619D01*
X113549387Y-81812857D01*
X112974863Y-81752380D02*
X113277244Y-81752380D01*
X113307482Y-82054761D01*
X113277244Y-82024523D01*
X113216768Y-81994285D01*
X113065577Y-81994285D01*
X113005101Y-82024523D01*
X112974863Y-82054761D01*
X112944625Y-82115238D01*
X112944625Y-82266428D01*
X112974863Y-82326904D01*
X113005101Y-82357142D01*
X113065577Y-82387380D01*
X113216768Y-82387380D01*
X113277244Y-82357142D01*
X113307482Y-82326904D01*
G04 #@! TO.C,C6*
X112531785Y-85768166D02*
X112562023Y-85737928D01*
X112592261Y-85647214D01*
X112592261Y-85586738D01*
X112562023Y-85496023D01*
X112501547Y-85435547D01*
X112441071Y-85405309D01*
X112320119Y-85375071D01*
X112229404Y-85375071D01*
X112108452Y-85405309D01*
X112047976Y-85435547D01*
X111987500Y-85496023D01*
X111957261Y-85586738D01*
X111957261Y-85647214D01*
X111987500Y-85737928D01*
X112017738Y-85768166D01*
X111957261Y-86312452D02*
X111957261Y-86191500D01*
X111987500Y-86131023D01*
X112017738Y-86100785D01*
X112108452Y-86040309D01*
X112229404Y-86010071D01*
X112471309Y-86010071D01*
X112531785Y-86040309D01*
X112562023Y-86070547D01*
X112592261Y-86131023D01*
X112592261Y-86251976D01*
X112562023Y-86312452D01*
X112531785Y-86342690D01*
X112471309Y-86372928D01*
X112320119Y-86372928D01*
X112259642Y-86342690D01*
X112229404Y-86312452D01*
X112199166Y-86251976D01*
X112199166Y-86131023D01*
X112229404Y-86070547D01*
X112259642Y-86040309D01*
X112320119Y-86010071D01*
G04 #@! TO.C,C7*
X111531785Y-85768166D02*
X111562023Y-85737928D01*
X111592261Y-85647214D01*
X111592261Y-85586738D01*
X111562023Y-85496023D01*
X111501547Y-85435547D01*
X111441071Y-85405309D01*
X111320119Y-85375071D01*
X111229404Y-85375071D01*
X111108452Y-85405309D01*
X111047976Y-85435547D01*
X110987500Y-85496023D01*
X110957261Y-85586738D01*
X110957261Y-85647214D01*
X110987500Y-85737928D01*
X111017738Y-85768166D01*
X110957261Y-85979833D02*
X110957261Y-86403166D01*
X111592261Y-86131023D01*
G04 #@! TO.C,C9*
X112868187Y-106233104D02*
X112898425Y-106263342D01*
X112989139Y-106293580D01*
X113049615Y-106293580D01*
X113140330Y-106263342D01*
X113200806Y-106202866D01*
X113231044Y-106142390D01*
X113261282Y-106021438D01*
X113261282Y-105930723D01*
X113231044Y-105809771D01*
X113200806Y-105749295D01*
X113140330Y-105688819D01*
X113049615Y-105658580D01*
X112989139Y-105658580D01*
X112898425Y-105688819D01*
X112868187Y-105719057D01*
X112565806Y-106293580D02*
X112444854Y-106293580D01*
X112384377Y-106263342D01*
X112354139Y-106233104D01*
X112293663Y-106142390D01*
X112263425Y-106021438D01*
X112263425Y-105779533D01*
X112293663Y-105719057D01*
X112323901Y-105688819D01*
X112384377Y-105658580D01*
X112505330Y-105658580D01*
X112565806Y-105688819D01*
X112596044Y-105719057D01*
X112626282Y-105779533D01*
X112626282Y-105930723D01*
X112596044Y-105991199D01*
X112565806Y-106021438D01*
X112505330Y-106051676D01*
X112384377Y-106051676D01*
X112323901Y-106021438D01*
X112293663Y-105991199D01*
X112263425Y-105930723D01*
G04 #@! TO.C,C10*
X113170568Y-108233104D02*
X113200806Y-108263342D01*
X113291520Y-108293580D01*
X113351996Y-108293580D01*
X113442711Y-108263342D01*
X113503187Y-108202866D01*
X113533425Y-108142390D01*
X113563663Y-108021438D01*
X113563663Y-107930723D01*
X113533425Y-107809771D01*
X113503187Y-107749295D01*
X113442711Y-107688819D01*
X113351996Y-107658580D01*
X113291520Y-107658580D01*
X113200806Y-107688819D01*
X113170568Y-107719057D01*
X112565806Y-108293580D02*
X112928663Y-108293580D01*
X112747234Y-108293580D02*
X112747234Y-107658580D01*
X112807711Y-107749295D01*
X112868187Y-107809771D01*
X112928663Y-107840009D01*
X112172711Y-107658580D02*
X112112234Y-107658580D01*
X112051758Y-107688819D01*
X112021520Y-107719057D01*
X111991282Y-107779533D01*
X111961044Y-107900485D01*
X111961044Y-108051676D01*
X111991282Y-108172628D01*
X112021520Y-108233104D01*
X112051758Y-108263342D01*
X112112234Y-108293580D01*
X112172711Y-108293580D01*
X112233187Y-108263342D01*
X112263425Y-108233104D01*
X112293663Y-108172628D01*
X112323901Y-108051676D01*
X112323901Y-107900485D01*
X112293663Y-107779533D01*
X112263425Y-107719057D01*
X112233187Y-107688819D01*
X112172711Y-107658580D01*
G04 #@! TO.C,C13*
X114670568Y-117179461D02*
X114700806Y-117209699D01*
X114791520Y-117239937D01*
X114851996Y-117239937D01*
X114942711Y-117209699D01*
X115003187Y-117149223D01*
X115033425Y-117088747D01*
X115063663Y-116967795D01*
X115063663Y-116877080D01*
X115033425Y-116756128D01*
X115003187Y-116695652D01*
X114942711Y-116635176D01*
X114851996Y-116604937D01*
X114791520Y-116604937D01*
X114700806Y-116635176D01*
X114670568Y-116665414D01*
X114065806Y-117239937D02*
X114428663Y-117239937D01*
X114247234Y-117239937D02*
X114247234Y-116604937D01*
X114307711Y-116695652D01*
X114368187Y-116756128D01*
X114428663Y-116786366D01*
X113854139Y-116604937D02*
X113461044Y-116604937D01*
X113672711Y-116846842D01*
X113581996Y-116846842D01*
X113521520Y-116877080D01*
X113491282Y-116907318D01*
X113461044Y-116967795D01*
X113461044Y-117118985D01*
X113491282Y-117179461D01*
X113521520Y-117209699D01*
X113581996Y-117239937D01*
X113763425Y-117239937D01*
X113823901Y-117209699D01*
X113854139Y-117179461D01*
G04 #@! TO.C,C14*
X121827368Y-118217104D02*
X121857606Y-118247342D01*
X121948320Y-118277580D01*
X122008796Y-118277580D01*
X122099511Y-118247342D01*
X122159987Y-118186866D01*
X122190225Y-118126390D01*
X122220463Y-118005438D01*
X122220463Y-117914723D01*
X122190225Y-117793771D01*
X122159987Y-117733295D01*
X122099511Y-117672819D01*
X122008796Y-117642580D01*
X121948320Y-117642580D01*
X121857606Y-117672819D01*
X121827368Y-117703057D01*
X121222606Y-118277580D02*
X121585463Y-118277580D01*
X121404034Y-118277580D02*
X121404034Y-117642580D01*
X121464511Y-117733295D01*
X121524987Y-117793771D01*
X121585463Y-117824009D01*
X120678320Y-117854247D02*
X120678320Y-118277580D01*
X120829511Y-117612342D02*
X120980701Y-118065914D01*
X120587606Y-118065914D01*
G04 #@! TO.C,C15*
X113170568Y-105233104D02*
X113200806Y-105263342D01*
X113291520Y-105293580D01*
X113351996Y-105293580D01*
X113442711Y-105263342D01*
X113503187Y-105202866D01*
X113533425Y-105142390D01*
X113563663Y-105021438D01*
X113563663Y-104930723D01*
X113533425Y-104809771D01*
X113503187Y-104749295D01*
X113442711Y-104688819D01*
X113351996Y-104658580D01*
X113291520Y-104658580D01*
X113200806Y-104688819D01*
X113170568Y-104719057D01*
X112565806Y-105293580D02*
X112928663Y-105293580D01*
X112747234Y-105293580D02*
X112747234Y-104658580D01*
X112807711Y-104749295D01*
X112868187Y-104809771D01*
X112928663Y-104840009D01*
X111991282Y-104658580D02*
X112293663Y-104658580D01*
X112323901Y-104960961D01*
X112293663Y-104930723D01*
X112233187Y-104900485D01*
X112081996Y-104900485D01*
X112021520Y-104930723D01*
X111991282Y-104960961D01*
X111961044Y-105021438D01*
X111961044Y-105172628D01*
X111991282Y-105233104D01*
X112021520Y-105263342D01*
X112081996Y-105293580D01*
X112233187Y-105293580D01*
X112293663Y-105263342D01*
X112323901Y-105233104D01*
G04 #@! TO.C,C16*
X113170568Y-107233104D02*
X113200806Y-107263342D01*
X113291520Y-107293580D01*
X113351996Y-107293580D01*
X113442711Y-107263342D01*
X113503187Y-107202866D01*
X113533425Y-107142390D01*
X113563663Y-107021438D01*
X113563663Y-106930723D01*
X113533425Y-106809771D01*
X113503187Y-106749295D01*
X113442711Y-106688819D01*
X113351996Y-106658580D01*
X113291520Y-106658580D01*
X113200806Y-106688819D01*
X113170568Y-106719057D01*
X112565806Y-107293580D02*
X112928663Y-107293580D01*
X112747234Y-107293580D02*
X112747234Y-106658580D01*
X112807711Y-106749295D01*
X112868187Y-106809771D01*
X112928663Y-106840009D01*
X112021520Y-106658580D02*
X112142473Y-106658580D01*
X112202949Y-106688819D01*
X112233187Y-106719057D01*
X112293663Y-106809771D01*
X112323901Y-106930723D01*
X112323901Y-107172628D01*
X112293663Y-107233104D01*
X112263425Y-107263342D01*
X112202949Y-107293580D01*
X112081996Y-107293580D01*
X112021520Y-107263342D01*
X111991282Y-107233104D01*
X111961044Y-107172628D01*
X111961044Y-107021438D01*
X111991282Y-106960961D01*
X112021520Y-106930723D01*
X112081996Y-106900485D01*
X112202949Y-106900485D01*
X112263425Y-106930723D01*
X112293663Y-106960961D01*
X112323901Y-107021438D01*
G04 #@! TO.C,C8*
X110531785Y-85768166D02*
X110562023Y-85737928D01*
X110592261Y-85647214D01*
X110592261Y-85586738D01*
X110562023Y-85496023D01*
X110501547Y-85435547D01*
X110441071Y-85405309D01*
X110320119Y-85375071D01*
X110229404Y-85375071D01*
X110108452Y-85405309D01*
X110047976Y-85435547D01*
X109987500Y-85496023D01*
X109957261Y-85586738D01*
X109957261Y-85647214D01*
X109987500Y-85737928D01*
X110017738Y-85768166D01*
X110229404Y-86131023D02*
X110199166Y-86070547D01*
X110168928Y-86040309D01*
X110108452Y-86010071D01*
X110078214Y-86010071D01*
X110017738Y-86040309D01*
X109987500Y-86070547D01*
X109957261Y-86131023D01*
X109957261Y-86251976D01*
X109987500Y-86312452D01*
X110017738Y-86342690D01*
X110078214Y-86372928D01*
X110108452Y-86372928D01*
X110168928Y-86342690D01*
X110199166Y-86312452D01*
X110229404Y-86251976D01*
X110229404Y-86131023D01*
X110259642Y-86070547D01*
X110289880Y-86040309D01*
X110350357Y-86010071D01*
X110471309Y-86010071D01*
X110531785Y-86040309D01*
X110562023Y-86070547D01*
X110592261Y-86131023D01*
X110592261Y-86251976D01*
X110562023Y-86312452D01*
X110531785Y-86342690D01*
X110471309Y-86372928D01*
X110350357Y-86372928D01*
X110289880Y-86342690D01*
X110259642Y-86312452D01*
X110229404Y-86251976D01*
G04 #@! TO.C,C12*
X121344768Y-116235904D02*
X121375006Y-116266142D01*
X121465720Y-116296380D01*
X121526196Y-116296380D01*
X121616911Y-116266142D01*
X121677387Y-116205666D01*
X121707625Y-116145190D01*
X121737863Y-116024238D01*
X121737863Y-115933523D01*
X121707625Y-115812571D01*
X121677387Y-115752095D01*
X121616911Y-115691619D01*
X121526196Y-115661380D01*
X121465720Y-115661380D01*
X121375006Y-115691619D01*
X121344768Y-115721857D01*
X120740006Y-116296380D02*
X121102863Y-116296380D01*
X120921434Y-116296380D02*
X120921434Y-115661380D01*
X120981911Y-115752095D01*
X121042387Y-115812571D01*
X121102863Y-115842809D01*
X120498101Y-115721857D02*
X120467863Y-115691619D01*
X120407387Y-115661380D01*
X120256196Y-115661380D01*
X120195720Y-115691619D01*
X120165482Y-115721857D01*
X120135244Y-115782333D01*
X120135244Y-115842809D01*
X120165482Y-115933523D01*
X120528339Y-116296380D01*
X120135244Y-116296380D01*
G04 #@! TO.C,C11*
X121293968Y-114153104D02*
X121324206Y-114183342D01*
X121414920Y-114213580D01*
X121475396Y-114213580D01*
X121566111Y-114183342D01*
X121626587Y-114122866D01*
X121656825Y-114062390D01*
X121687063Y-113941438D01*
X121687063Y-113850723D01*
X121656825Y-113729771D01*
X121626587Y-113669295D01*
X121566111Y-113608819D01*
X121475396Y-113578580D01*
X121414920Y-113578580D01*
X121324206Y-113608819D01*
X121293968Y-113639057D01*
X120689206Y-114213580D02*
X121052063Y-114213580D01*
X120870634Y-114213580D02*
X120870634Y-113578580D01*
X120931111Y-113669295D01*
X120991587Y-113729771D01*
X121052063Y-113760009D01*
X120084444Y-114213580D02*
X120447301Y-114213580D01*
X120265873Y-114213580D02*
X120265873Y-113578580D01*
X120326349Y-113669295D01*
X120386825Y-113729771D01*
X120447301Y-113760009D01*
G04 #@! TO.C,Y1*
X128427134Y-103039999D02*
X128427134Y-103342380D01*
X128638801Y-102707380D02*
X128427134Y-103039999D01*
X128215468Y-102707380D01*
X127671182Y-103342380D02*
X128034039Y-103342380D01*
X127852611Y-103342380D02*
X127852611Y-102707380D01*
X127913087Y-102798095D01*
X127973563Y-102858571D01*
X128034039Y-102888809D01*
G04 #@! TO.C,D1*
X125542261Y-82944509D02*
X124907261Y-82944509D01*
X124907261Y-83095700D01*
X124937500Y-83186414D01*
X124997976Y-83246890D01*
X125058452Y-83277128D01*
X125179404Y-83307366D01*
X125270119Y-83307366D01*
X125391071Y-83277128D01*
X125451547Y-83246890D01*
X125512023Y-83186414D01*
X125542261Y-83095700D01*
X125542261Y-82944509D01*
X125542261Y-83912128D02*
X125542261Y-83549271D01*
X125542261Y-83730700D02*
X124907261Y-83730700D01*
X124997976Y-83670223D01*
X125058452Y-83609747D01*
X125088690Y-83549271D01*
G04 #@! TO.C,J3*
X103215820Y-112689580D02*
X103215820Y-113143152D01*
X103246058Y-113233866D01*
X103306534Y-113294342D01*
X103397249Y-113324580D01*
X103457725Y-113324580D01*
X102973915Y-112689580D02*
X102580820Y-112689580D01*
X102792487Y-112931485D01*
X102701773Y-112931485D01*
X102641296Y-112961723D01*
X102611058Y-112991961D01*
X102580820Y-113052438D01*
X102580820Y-113203628D01*
X102611058Y-113264104D01*
X102641296Y-113294342D01*
X102701773Y-113324580D01*
X102883201Y-113324580D01*
X102943677Y-113294342D01*
X102973915Y-113264104D01*
G04 #@! TO.C,U5*
X116913609Y-114030461D02*
X116913609Y-114544509D01*
X116883371Y-114604985D01*
X116853133Y-114635223D01*
X116792657Y-114665461D01*
X116671704Y-114665461D01*
X116611228Y-114635223D01*
X116580990Y-114604985D01*
X116550752Y-114544509D01*
X116550752Y-114030461D01*
X115945990Y-114030461D02*
X116248371Y-114030461D01*
X116278609Y-114332842D01*
X116248371Y-114302604D01*
X116187895Y-114272366D01*
X116036704Y-114272366D01*
X115976228Y-114302604D01*
X115945990Y-114332842D01*
X115915752Y-114393319D01*
X115915752Y-114544509D01*
X115945990Y-114604985D01*
X115976228Y-114635223D01*
X116036704Y-114665461D01*
X116187895Y-114665461D01*
X116248371Y-114635223D01*
X116278609Y-114604985D01*
G04 #@! TO.C,U3*
X136228563Y-102326380D02*
X136228563Y-102840428D01*
X136198325Y-102900904D01*
X136168087Y-102931142D01*
X136107611Y-102961380D01*
X135986658Y-102961380D01*
X135926182Y-102931142D01*
X135895944Y-102900904D01*
X135865706Y-102840428D01*
X135865706Y-102326380D01*
X135623801Y-102326380D02*
X135230706Y-102326380D01*
X135442373Y-102568285D01*
X135351658Y-102568285D01*
X135291182Y-102598523D01*
X135260944Y-102628761D01*
X135230706Y-102689238D01*
X135230706Y-102840428D01*
X135260944Y-102900904D01*
X135291182Y-102931142D01*
X135351658Y-102961380D01*
X135533087Y-102961380D01*
X135593563Y-102931142D01*
X135623801Y-102900904D01*
G04 #@! TO.C,R13*
X122170568Y-109165461D02*
X122382234Y-108863080D01*
X122533425Y-109165461D02*
X122533425Y-108530461D01*
X122291520Y-108530461D01*
X122231044Y-108560700D01*
X122200806Y-108590938D01*
X122170568Y-108651414D01*
X122170568Y-108742128D01*
X122200806Y-108802604D01*
X122231044Y-108832842D01*
X122291520Y-108863080D01*
X122533425Y-108863080D01*
X121565806Y-109165461D02*
X121928663Y-109165461D01*
X121747234Y-109165461D02*
X121747234Y-108530461D01*
X121807711Y-108621176D01*
X121868187Y-108681652D01*
X121928663Y-108711890D01*
X121354139Y-108530461D02*
X120961044Y-108530461D01*
X121172711Y-108772366D01*
X121081996Y-108772366D01*
X121021520Y-108802604D01*
X120991282Y-108832842D01*
X120961044Y-108893319D01*
X120961044Y-109044509D01*
X120991282Y-109104985D01*
X121021520Y-109135223D01*
X121081996Y-109165461D01*
X121263425Y-109165461D01*
X121323901Y-109135223D01*
X121354139Y-109104985D01*
G04 #@! TO.C,R14*
X129549615Y-81848104D02*
X129247234Y-81636438D01*
X129549615Y-81485247D02*
X128914615Y-81485247D01*
X128914615Y-81727152D01*
X128944854Y-81787628D01*
X128975092Y-81817866D01*
X129035568Y-81848104D01*
X129126282Y-81848104D01*
X129186758Y-81817866D01*
X129216996Y-81787628D01*
X129247234Y-81727152D01*
X129247234Y-81485247D01*
X129549615Y-82452866D02*
X129549615Y-82090009D01*
X129549615Y-82271438D02*
X128914615Y-82271438D01*
X129005330Y-82210961D01*
X129065806Y-82150485D01*
X129096044Y-82090009D01*
X129126282Y-82997152D02*
X129549615Y-82997152D01*
X128884377Y-82845961D02*
X129337949Y-82694771D01*
X129337949Y-83087866D01*
G04 #@! TO.C,R15*
X107843568Y-116893580D02*
X108055234Y-116591199D01*
X108206425Y-116893580D02*
X108206425Y-116258580D01*
X107964520Y-116258580D01*
X107904044Y-116288819D01*
X107873806Y-116319057D01*
X107843568Y-116379533D01*
X107843568Y-116470247D01*
X107873806Y-116530723D01*
X107904044Y-116560961D01*
X107964520Y-116591199D01*
X108206425Y-116591199D01*
X107238806Y-116893580D02*
X107601663Y-116893580D01*
X107420234Y-116893580D02*
X107420234Y-116258580D01*
X107480711Y-116349295D01*
X107541187Y-116409771D01*
X107601663Y-116440009D01*
X106664282Y-116258580D02*
X106966663Y-116258580D01*
X106996901Y-116560961D01*
X106966663Y-116530723D01*
X106906187Y-116500485D01*
X106754996Y-116500485D01*
X106694520Y-116530723D01*
X106664282Y-116560961D01*
X106634044Y-116621438D01*
X106634044Y-116772628D01*
X106664282Y-116833104D01*
X106694520Y-116863342D01*
X106754996Y-116893580D01*
X106906187Y-116893580D01*
X106966663Y-116863342D01*
X106996901Y-116833104D01*
G04 #@! TO.C,R16*
X112378568Y-118023580D02*
X112590234Y-117721199D01*
X112741425Y-118023580D02*
X112741425Y-117388580D01*
X112499520Y-117388580D01*
X112439044Y-117418819D01*
X112408806Y-117449057D01*
X112378568Y-117509533D01*
X112378568Y-117600247D01*
X112408806Y-117660723D01*
X112439044Y-117690961D01*
X112499520Y-117721199D01*
X112741425Y-117721199D01*
X111773806Y-118023580D02*
X112136663Y-118023580D01*
X111955234Y-118023580D02*
X111955234Y-117388580D01*
X112015711Y-117479295D01*
X112076187Y-117539771D01*
X112136663Y-117570009D01*
X111229520Y-117388580D02*
X111350473Y-117388580D01*
X111410949Y-117418819D01*
X111441187Y-117449057D01*
X111501663Y-117539771D01*
X111531901Y-117660723D01*
X111531901Y-117902628D01*
X111501663Y-117963104D01*
X111471425Y-117993342D01*
X111410949Y-118023580D01*
X111289996Y-118023580D01*
X111229520Y-117993342D01*
X111199282Y-117963104D01*
X111169044Y-117902628D01*
X111169044Y-117751438D01*
X111199282Y-117690961D01*
X111229520Y-117660723D01*
X111289996Y-117630485D01*
X111410949Y-117630485D01*
X111471425Y-117660723D01*
X111501663Y-117690961D01*
X111531901Y-117751438D01*
G04 #@! TO.C,R17*
X114670568Y-118445937D02*
X114882234Y-118143556D01*
X115033425Y-118445937D02*
X115033425Y-117810937D01*
X114791520Y-117810937D01*
X114731044Y-117841176D01*
X114700806Y-117871414D01*
X114670568Y-117931890D01*
X114670568Y-118022604D01*
X114700806Y-118083080D01*
X114731044Y-118113318D01*
X114791520Y-118143556D01*
X115033425Y-118143556D01*
X114065806Y-118445937D02*
X114428663Y-118445937D01*
X114247234Y-118445937D02*
X114247234Y-117810937D01*
X114307711Y-117901652D01*
X114368187Y-117962128D01*
X114428663Y-117992366D01*
X113854139Y-117810937D02*
X113430806Y-117810937D01*
X113702949Y-118445937D01*
G04 #@! TO.C,R18*
X132349015Y-106964904D02*
X132046634Y-106753238D01*
X132349015Y-106602047D02*
X131714015Y-106602047D01*
X131714015Y-106843952D01*
X131744254Y-106904428D01*
X131774492Y-106934666D01*
X131834968Y-106964904D01*
X131925682Y-106964904D01*
X131986158Y-106934666D01*
X132016396Y-106904428D01*
X132046634Y-106843952D01*
X132046634Y-106602047D01*
X132349015Y-107569666D02*
X132349015Y-107206809D01*
X132349015Y-107388238D02*
X131714015Y-107388238D01*
X131804730Y-107327761D01*
X131865206Y-107267285D01*
X131895444Y-107206809D01*
X131986158Y-107932523D02*
X131955920Y-107872047D01*
X131925682Y-107841809D01*
X131865206Y-107811571D01*
X131834968Y-107811571D01*
X131774492Y-107841809D01*
X131744254Y-107872047D01*
X131714015Y-107932523D01*
X131714015Y-108053476D01*
X131744254Y-108113952D01*
X131774492Y-108144190D01*
X131834968Y-108174428D01*
X131865206Y-108174428D01*
X131925682Y-108144190D01*
X131955920Y-108113952D01*
X131986158Y-108053476D01*
X131986158Y-107932523D01*
X132016396Y-107872047D01*
X132046634Y-107841809D01*
X132107111Y-107811571D01*
X132228063Y-107811571D01*
X132288539Y-107841809D01*
X132318777Y-107872047D01*
X132349015Y-107932523D01*
X132349015Y-108053476D01*
X132318777Y-108113952D01*
X132288539Y-108144190D01*
X132228063Y-108174428D01*
X132107111Y-108174428D01*
X132046634Y-108144190D01*
X132016396Y-108113952D01*
X131986158Y-108053476D01*
G04 #@! TO.C,R19*
X133619015Y-106990304D02*
X133316634Y-106778638D01*
X133619015Y-106627447D02*
X132984015Y-106627447D01*
X132984015Y-106869352D01*
X133014254Y-106929828D01*
X133044492Y-106960066D01*
X133104968Y-106990304D01*
X133195682Y-106990304D01*
X133256158Y-106960066D01*
X133286396Y-106929828D01*
X133316634Y-106869352D01*
X133316634Y-106627447D01*
X133619015Y-107595066D02*
X133619015Y-107232209D01*
X133619015Y-107413638D02*
X132984015Y-107413638D01*
X133074730Y-107353161D01*
X133135206Y-107292685D01*
X133165444Y-107232209D01*
X133619015Y-107897447D02*
X133619015Y-108018399D01*
X133588777Y-108078876D01*
X133558539Y-108109114D01*
X133467825Y-108169590D01*
X133346873Y-108199828D01*
X133104968Y-108199828D01*
X133044492Y-108169590D01*
X133014254Y-108139352D01*
X132984015Y-108078876D01*
X132984015Y-107957923D01*
X133014254Y-107897447D01*
X133044492Y-107867209D01*
X133104968Y-107836971D01*
X133256158Y-107836971D01*
X133316634Y-107867209D01*
X133346873Y-107897447D01*
X133377111Y-107957923D01*
X133377111Y-108078876D01*
X133346873Y-108139352D01*
X133316634Y-108169590D01*
X133256158Y-108199828D01*
G04 #@! TO.C,R1*
X115432615Y-79301885D02*
X115130234Y-79090219D01*
X115432615Y-78939028D02*
X114797615Y-78939028D01*
X114797615Y-79180933D01*
X114827854Y-79241409D01*
X114858092Y-79271647D01*
X114918568Y-79301885D01*
X115009282Y-79301885D01*
X115069758Y-79271647D01*
X115099996Y-79241409D01*
X115130234Y-79180933D01*
X115130234Y-78939028D01*
X115432615Y-79906647D02*
X115432615Y-79543790D01*
X115432615Y-79725219D02*
X114797615Y-79725219D01*
X114888330Y-79664742D01*
X114948806Y-79604266D01*
X114979044Y-79543790D01*
G04 #@! TO.C,R11*
X122170568Y-110165461D02*
X122382234Y-109863080D01*
X122533425Y-110165461D02*
X122533425Y-109530461D01*
X122291520Y-109530461D01*
X122231044Y-109560700D01*
X122200806Y-109590938D01*
X122170568Y-109651414D01*
X122170568Y-109742128D01*
X122200806Y-109802604D01*
X122231044Y-109832842D01*
X122291520Y-109863080D01*
X122533425Y-109863080D01*
X121565806Y-110165461D02*
X121928663Y-110165461D01*
X121747234Y-110165461D02*
X121747234Y-109530461D01*
X121807711Y-109621176D01*
X121868187Y-109681652D01*
X121928663Y-109711890D01*
X120961044Y-110165461D02*
X121323901Y-110165461D01*
X121142473Y-110165461D02*
X121142473Y-109530461D01*
X121202949Y-109621176D01*
X121263425Y-109681652D01*
X121323901Y-109711890D01*
G04 #@! TO.C,R20*
X129549615Y-84848104D02*
X129247234Y-84636438D01*
X129549615Y-84485247D02*
X128914615Y-84485247D01*
X128914615Y-84727152D01*
X128944854Y-84787628D01*
X128975092Y-84817866D01*
X129035568Y-84848104D01*
X129126282Y-84848104D01*
X129186758Y-84817866D01*
X129216996Y-84787628D01*
X129247234Y-84727152D01*
X129247234Y-84485247D01*
X128975092Y-85090009D02*
X128944854Y-85120247D01*
X128914615Y-85180723D01*
X128914615Y-85331914D01*
X128944854Y-85392390D01*
X128975092Y-85422628D01*
X129035568Y-85452866D01*
X129096044Y-85452866D01*
X129186758Y-85422628D01*
X129549615Y-85059771D01*
X129549615Y-85452866D01*
X128914615Y-85845961D02*
X128914615Y-85906438D01*
X128944854Y-85966914D01*
X128975092Y-85997152D01*
X129035568Y-86027390D01*
X129156520Y-86057628D01*
X129307711Y-86057628D01*
X129428663Y-86027390D01*
X129489139Y-85997152D01*
X129519377Y-85966914D01*
X129549615Y-85906438D01*
X129549615Y-85845961D01*
X129519377Y-85785485D01*
X129489139Y-85755247D01*
X129428663Y-85725009D01*
X129307711Y-85694771D01*
X129156520Y-85694771D01*
X129035568Y-85725009D01*
X128975092Y-85755247D01*
X128944854Y-85785485D01*
X128914615Y-85845961D01*
G04 #@! TO.C,R12*
X116579615Y-106968104D02*
X116277234Y-106756438D01*
X116579615Y-106605247D02*
X115944615Y-106605247D01*
X115944615Y-106847152D01*
X115974854Y-106907628D01*
X116005092Y-106937866D01*
X116065568Y-106968104D01*
X116156282Y-106968104D01*
X116216758Y-106937866D01*
X116246996Y-106907628D01*
X116277234Y-106847152D01*
X116277234Y-106605247D01*
X116579615Y-107572866D02*
X116579615Y-107210009D01*
X116579615Y-107391438D02*
X115944615Y-107391438D01*
X116035330Y-107330961D01*
X116095806Y-107270485D01*
X116126044Y-107210009D01*
X116005092Y-107814771D02*
X115974854Y-107845009D01*
X115944615Y-107905485D01*
X115944615Y-108056676D01*
X115974854Y-108117152D01*
X116005092Y-108147390D01*
X116065568Y-108177628D01*
X116126044Y-108177628D01*
X116216758Y-108147390D01*
X116579615Y-107784533D01*
X116579615Y-108177628D01*
G04 #@! TO.C,R10*
X122170568Y-111165461D02*
X122382234Y-110863080D01*
X122533425Y-111165461D02*
X122533425Y-110530461D01*
X122291520Y-110530461D01*
X122231044Y-110560700D01*
X122200806Y-110590938D01*
X122170568Y-110651414D01*
X122170568Y-110742128D01*
X122200806Y-110802604D01*
X122231044Y-110832842D01*
X122291520Y-110863080D01*
X122533425Y-110863080D01*
X121565806Y-111165461D02*
X121928663Y-111165461D01*
X121747234Y-111165461D02*
X121747234Y-110530461D01*
X121807711Y-110621176D01*
X121868187Y-110681652D01*
X121928663Y-110711890D01*
X121172711Y-110530461D02*
X121112234Y-110530461D01*
X121051758Y-110560700D01*
X121021520Y-110590938D01*
X120991282Y-110651414D01*
X120961044Y-110772366D01*
X120961044Y-110923557D01*
X120991282Y-111044509D01*
X121021520Y-111104985D01*
X121051758Y-111135223D01*
X121112234Y-111165461D01*
X121172711Y-111165461D01*
X121233187Y-111135223D01*
X121263425Y-111104985D01*
X121293663Y-111044509D01*
X121323901Y-110923557D01*
X121323901Y-110772366D01*
X121293663Y-110651414D01*
X121263425Y-110590938D01*
X121233187Y-110560700D01*
X121172711Y-110530461D01*
G04 #@! TO.C,R9*
X112076187Y-116067780D02*
X112287854Y-115765399D01*
X112439044Y-116067780D02*
X112439044Y-115432780D01*
X112197139Y-115432780D01*
X112136663Y-115463019D01*
X112106425Y-115493257D01*
X112076187Y-115553733D01*
X112076187Y-115644447D01*
X112106425Y-115704923D01*
X112136663Y-115735161D01*
X112197139Y-115765399D01*
X112439044Y-115765399D01*
X111773806Y-116067780D02*
X111652854Y-116067780D01*
X111592377Y-116037542D01*
X111562139Y-116007304D01*
X111501663Y-115916590D01*
X111471425Y-115795638D01*
X111471425Y-115553733D01*
X111501663Y-115493257D01*
X111531901Y-115463019D01*
X111592377Y-115432780D01*
X111713330Y-115432780D01*
X111773806Y-115463019D01*
X111804044Y-115493257D01*
X111834282Y-115553733D01*
X111834282Y-115704923D01*
X111804044Y-115765399D01*
X111773806Y-115795638D01*
X111713330Y-115825876D01*
X111592377Y-115825876D01*
X111531901Y-115795638D01*
X111501663Y-115765399D01*
X111471425Y-115704923D01*
G04 #@! TO.C,R8*
X130110187Y-109463780D02*
X130321854Y-109161399D01*
X130473044Y-109463780D02*
X130473044Y-108828780D01*
X130231139Y-108828780D01*
X130170663Y-108859019D01*
X130140425Y-108889257D01*
X130110187Y-108949733D01*
X130110187Y-109040447D01*
X130140425Y-109100923D01*
X130170663Y-109131161D01*
X130231139Y-109161399D01*
X130473044Y-109161399D01*
X129747330Y-109100923D02*
X129807806Y-109070685D01*
X129838044Y-109040447D01*
X129868282Y-108979971D01*
X129868282Y-108949733D01*
X129838044Y-108889257D01*
X129807806Y-108859019D01*
X129747330Y-108828780D01*
X129626377Y-108828780D01*
X129565901Y-108859019D01*
X129535663Y-108889257D01*
X129505425Y-108949733D01*
X129505425Y-108979971D01*
X129535663Y-109040447D01*
X129565901Y-109070685D01*
X129626377Y-109100923D01*
X129747330Y-109100923D01*
X129807806Y-109131161D01*
X129838044Y-109161399D01*
X129868282Y-109221876D01*
X129868282Y-109342828D01*
X129838044Y-109403304D01*
X129807806Y-109433542D01*
X129747330Y-109463780D01*
X129626377Y-109463780D01*
X129565901Y-109433542D01*
X129535663Y-109403304D01*
X129505425Y-109342828D01*
X129505425Y-109221876D01*
X129535663Y-109161399D01*
X129565901Y-109131161D01*
X129626377Y-109100923D01*
G04 #@! TO.C,R7*
X137374587Y-108777980D02*
X137586254Y-108475599D01*
X137737444Y-108777980D02*
X137737444Y-108142980D01*
X137495539Y-108142980D01*
X137435063Y-108173219D01*
X137404825Y-108203457D01*
X137374587Y-108263933D01*
X137374587Y-108354647D01*
X137404825Y-108415123D01*
X137435063Y-108445361D01*
X137495539Y-108475599D01*
X137737444Y-108475599D01*
X137162920Y-108142980D02*
X136739587Y-108142980D01*
X137011730Y-108777980D01*
G04 #@! TO.C,R6*
X125299615Y-104150485D02*
X124997234Y-103938819D01*
X125299615Y-103787628D02*
X124664615Y-103787628D01*
X124664615Y-104029533D01*
X124694854Y-104090009D01*
X124725092Y-104120247D01*
X124785568Y-104150485D01*
X124876282Y-104150485D01*
X124936758Y-104120247D01*
X124966996Y-104090009D01*
X124997234Y-104029533D01*
X124997234Y-103787628D01*
X124664615Y-104694771D02*
X124664615Y-104573819D01*
X124694854Y-104513342D01*
X124725092Y-104483104D01*
X124815806Y-104422628D01*
X124936758Y-104392390D01*
X125178663Y-104392390D01*
X125239139Y-104422628D01*
X125269377Y-104452866D01*
X125299615Y-104513342D01*
X125299615Y-104634295D01*
X125269377Y-104694771D01*
X125239139Y-104725009D01*
X125178663Y-104755247D01*
X125027473Y-104755247D01*
X124966996Y-104725009D01*
X124936758Y-104694771D01*
X124906520Y-104634295D01*
X124906520Y-104513342D01*
X124936758Y-104452866D01*
X124966996Y-104422628D01*
X125027473Y-104392390D01*
G04 #@! TO.C,R5*
X111085587Y-82412780D02*
X111297254Y-82110399D01*
X111448444Y-82412780D02*
X111448444Y-81777780D01*
X111206539Y-81777780D01*
X111146063Y-81808019D01*
X111115825Y-81838257D01*
X111085587Y-81898733D01*
X111085587Y-81989447D01*
X111115825Y-82049923D01*
X111146063Y-82080161D01*
X111206539Y-82110399D01*
X111448444Y-82110399D01*
X110511063Y-81777780D02*
X110813444Y-81777780D01*
X110843682Y-82080161D01*
X110813444Y-82049923D01*
X110752968Y-82019685D01*
X110601777Y-82019685D01*
X110541301Y-82049923D01*
X110511063Y-82080161D01*
X110480825Y-82140638D01*
X110480825Y-82291828D01*
X110511063Y-82352304D01*
X110541301Y-82382542D01*
X110601777Y-82412780D01*
X110752968Y-82412780D01*
X110813444Y-82382542D01*
X110843682Y-82352304D01*
G04 #@! TO.C,R4*
X109971615Y-76812685D02*
X109669234Y-76601019D01*
X109971615Y-76449828D02*
X109336615Y-76449828D01*
X109336615Y-76691733D01*
X109366854Y-76752209D01*
X109397092Y-76782447D01*
X109457568Y-76812685D01*
X109548282Y-76812685D01*
X109608758Y-76782447D01*
X109638996Y-76752209D01*
X109669234Y-76691733D01*
X109669234Y-76449828D01*
X109548282Y-77356971D02*
X109971615Y-77356971D01*
X109306377Y-77205780D02*
X109759949Y-77054590D01*
X109759949Y-77447685D01*
G04 #@! TO.C,R3*
X140778187Y-87924580D02*
X140989854Y-87622199D01*
X141141044Y-87924580D02*
X141141044Y-87289580D01*
X140899139Y-87289580D01*
X140838663Y-87319819D01*
X140808425Y-87350057D01*
X140778187Y-87410533D01*
X140778187Y-87501247D01*
X140808425Y-87561723D01*
X140838663Y-87591961D01*
X140899139Y-87622199D01*
X141141044Y-87622199D01*
X140566520Y-87289580D02*
X140173425Y-87289580D01*
X140385092Y-87531485D01*
X140294377Y-87531485D01*
X140233901Y-87561723D01*
X140203663Y-87591961D01*
X140173425Y-87652438D01*
X140173425Y-87803628D01*
X140203663Y-87864104D01*
X140233901Y-87894342D01*
X140294377Y-87924580D01*
X140475806Y-87924580D01*
X140536282Y-87894342D01*
X140566520Y-87864104D01*
G04 #@! TO.C,R2*
X120520769Y-89744004D02*
X120218388Y-89532338D01*
X120520769Y-89381147D02*
X119885769Y-89381147D01*
X119885769Y-89623052D01*
X119916008Y-89683528D01*
X119946246Y-89713766D01*
X120006722Y-89744004D01*
X120097436Y-89744004D01*
X120157912Y-89713766D01*
X120188150Y-89683528D01*
X120218388Y-89623052D01*
X120218388Y-89381147D01*
X119946246Y-89985909D02*
X119916008Y-90016147D01*
X119885769Y-90076623D01*
X119885769Y-90227814D01*
X119916008Y-90288290D01*
X119946246Y-90318528D01*
X120006722Y-90348766D01*
X120067198Y-90348766D01*
X120157912Y-90318528D01*
X120520769Y-89955671D01*
X120520769Y-90348766D01*
G04 #@! TO.C,J2*
X104485820Y-82361980D02*
X104485820Y-82815552D01*
X104516058Y-82906266D01*
X104576534Y-82966742D01*
X104667249Y-82996980D01*
X104727725Y-82996980D01*
X104213677Y-82422457D02*
X104183439Y-82392219D01*
X104122963Y-82361980D01*
X103971773Y-82361980D01*
X103911296Y-82392219D01*
X103881058Y-82422457D01*
X103850820Y-82482933D01*
X103850820Y-82543409D01*
X103881058Y-82634123D01*
X104243915Y-82996980D01*
X103850820Y-82996980D01*
G04 #@! TO.C,U1*
X134501809Y-89034461D02*
X134501809Y-89548509D01*
X134471571Y-89608985D01*
X134441333Y-89639223D01*
X134380857Y-89669461D01*
X134259904Y-89669461D01*
X134199428Y-89639223D01*
X134169190Y-89608985D01*
X134138952Y-89548509D01*
X134138952Y-89034461D01*
X133503952Y-89669461D02*
X133866809Y-89669461D01*
X133685380Y-89669461D02*
X133685380Y-89034461D01*
X133745857Y-89125176D01*
X133806333Y-89185652D01*
X133866809Y-89215890D01*
G04 #@! TO.C,IC1*
X115943034Y-81142780D02*
X115943034Y-80507780D01*
X115277796Y-81082304D02*
X115308034Y-81112542D01*
X115398749Y-81142780D01*
X115459225Y-81142780D01*
X115549939Y-81112542D01*
X115610415Y-81052066D01*
X115640654Y-80991590D01*
X115670892Y-80870638D01*
X115670892Y-80779923D01*
X115640654Y-80658971D01*
X115610415Y-80598495D01*
X115549939Y-80538019D01*
X115459225Y-80507780D01*
X115398749Y-80507780D01*
X115308034Y-80538019D01*
X115277796Y-80568257D01*
X114673034Y-81142780D02*
X115035892Y-81142780D01*
X114854463Y-81142780D02*
X114854463Y-80507780D01*
X114914939Y-80598495D01*
X114975415Y-80658971D01*
X115035892Y-80689209D01*
G04 #@! TO.C,Q1*
X120072830Y-86104057D02*
X120133306Y-86073819D01*
X120193782Y-86013342D01*
X120284496Y-85922628D01*
X120344973Y-85892390D01*
X120405449Y-85892390D01*
X120375211Y-86043580D02*
X120435687Y-86013342D01*
X120496163Y-85952866D01*
X120526401Y-85831914D01*
X120526401Y-85620247D01*
X120496163Y-85499295D01*
X120435687Y-85438819D01*
X120375211Y-85408580D01*
X120254258Y-85408580D01*
X120193782Y-85438819D01*
X120133306Y-85499295D01*
X120103068Y-85620247D01*
X120103068Y-85831914D01*
X120133306Y-85952866D01*
X120193782Y-86013342D01*
X120254258Y-86043580D01*
X120375211Y-86043580D01*
X119498306Y-86043580D02*
X119861163Y-86043580D01*
X119679734Y-86043580D02*
X119679734Y-85408580D01*
X119740211Y-85499295D01*
X119800687Y-85559771D01*
X119861163Y-85590009D01*
G04 #@! TO.C,Q2*
X124807030Y-106933457D02*
X124867506Y-106903219D01*
X124927982Y-106842742D01*
X125018696Y-106752028D01*
X125079173Y-106721790D01*
X125139649Y-106721790D01*
X125109411Y-106872980D02*
X125169887Y-106842742D01*
X125230363Y-106782266D01*
X125260601Y-106661314D01*
X125260601Y-106449647D01*
X125230363Y-106328695D01*
X125169887Y-106268219D01*
X125109411Y-106237980D01*
X124988458Y-106237980D01*
X124927982Y-106268219D01*
X124867506Y-106328695D01*
X124837268Y-106449647D01*
X124837268Y-106661314D01*
X124867506Y-106782266D01*
X124927982Y-106842742D01*
X124988458Y-106872980D01*
X125109411Y-106872980D01*
X124595363Y-106298457D02*
X124565125Y-106268219D01*
X124504649Y-106237980D01*
X124353458Y-106237980D01*
X124292982Y-106268219D01*
X124262744Y-106298457D01*
X124232506Y-106358933D01*
X124232506Y-106419409D01*
X124262744Y-106510123D01*
X124625601Y-106872980D01*
X124232506Y-106872980D01*
G04 #@! TO.C,U2*
X115679963Y-82260380D02*
X115679963Y-82774428D01*
X115649725Y-82834904D01*
X115619487Y-82865142D01*
X115559011Y-82895380D01*
X115438058Y-82895380D01*
X115377582Y-82865142D01*
X115347344Y-82834904D01*
X115317106Y-82774428D01*
X115317106Y-82260380D01*
X115044963Y-82320857D02*
X115014725Y-82290619D01*
X114954249Y-82260380D01*
X114803058Y-82260380D01*
X114742582Y-82290619D01*
X114712344Y-82320857D01*
X114682106Y-82381333D01*
X114682106Y-82441809D01*
X114712344Y-82532523D01*
X115075201Y-82895380D01*
X114682106Y-82895380D01*
G04 #@! TO.C,TP8*
X122563663Y-87908580D02*
X122200806Y-87908580D01*
X122382234Y-88543580D02*
X122382234Y-87908580D01*
X121989139Y-88543580D02*
X121989139Y-87908580D01*
X121747234Y-87908580D01*
X121686758Y-87938819D01*
X121656520Y-87969057D01*
X121626282Y-88029533D01*
X121626282Y-88120247D01*
X121656520Y-88180723D01*
X121686758Y-88210961D01*
X121747234Y-88241199D01*
X121989139Y-88241199D01*
X121263425Y-88180723D02*
X121323901Y-88150485D01*
X121354139Y-88120247D01*
X121384377Y-88059771D01*
X121384377Y-88029533D01*
X121354139Y-87969057D01*
X121323901Y-87938819D01*
X121263425Y-87908580D01*
X121142473Y-87908580D01*
X121081996Y-87938819D01*
X121051758Y-87969057D01*
X121021520Y-88029533D01*
X121021520Y-88059771D01*
X121051758Y-88120247D01*
X121081996Y-88150485D01*
X121142473Y-88180723D01*
X121263425Y-88180723D01*
X121323901Y-88210961D01*
X121354139Y-88241199D01*
X121384377Y-88301676D01*
X121384377Y-88422628D01*
X121354139Y-88483104D01*
X121323901Y-88513342D01*
X121263425Y-88543580D01*
X121142473Y-88543580D01*
X121081996Y-88513342D01*
X121051758Y-88483104D01*
X121021520Y-88422628D01*
X121021520Y-88301676D01*
X121051758Y-88241199D01*
X121081996Y-88210961D01*
X121142473Y-88180723D01*
G04 #@! TO.C,TP3*
X127813663Y-87908580D02*
X127450806Y-87908580D01*
X127632234Y-88543580D02*
X127632234Y-87908580D01*
X127239139Y-88543580D02*
X127239139Y-87908580D01*
X126997234Y-87908580D01*
X126936758Y-87938819D01*
X126906520Y-87969057D01*
X126876282Y-88029533D01*
X126876282Y-88120247D01*
X126906520Y-88180723D01*
X126936758Y-88210961D01*
X126997234Y-88241199D01*
X127239139Y-88241199D01*
X126664615Y-87908580D02*
X126271520Y-87908580D01*
X126483187Y-88150485D01*
X126392473Y-88150485D01*
X126331996Y-88180723D01*
X126301758Y-88210961D01*
X126271520Y-88271438D01*
X126271520Y-88422628D01*
X126301758Y-88483104D01*
X126331996Y-88513342D01*
X126392473Y-88543580D01*
X126573901Y-88543580D01*
X126634377Y-88513342D01*
X126664615Y-88483104D01*
G04 #@! TO.C,TP4*
X125313663Y-87908580D02*
X124950806Y-87908580D01*
X125132234Y-88543580D02*
X125132234Y-87908580D01*
X124739139Y-88543580D02*
X124739139Y-87908580D01*
X124497234Y-87908580D01*
X124436758Y-87938819D01*
X124406520Y-87969057D01*
X124376282Y-88029533D01*
X124376282Y-88120247D01*
X124406520Y-88180723D01*
X124436758Y-88210961D01*
X124497234Y-88241199D01*
X124739139Y-88241199D01*
X123831996Y-88120247D02*
X123831996Y-88543580D01*
X123983187Y-87878342D02*
X124134377Y-88331914D01*
X123741282Y-88331914D01*
G04 #@! TO.C,TP5*
X134895063Y-112486380D02*
X134532206Y-112486380D01*
X134713634Y-113121380D02*
X134713634Y-112486380D01*
X134320539Y-113121380D02*
X134320539Y-112486380D01*
X134078634Y-112486380D01*
X134018158Y-112516619D01*
X133987920Y-112546857D01*
X133957682Y-112607333D01*
X133957682Y-112698047D01*
X133987920Y-112758523D01*
X134018158Y-112788761D01*
X134078634Y-112818999D01*
X134320539Y-112818999D01*
X133383158Y-112486380D02*
X133685539Y-112486380D01*
X133715777Y-112788761D01*
X133685539Y-112758523D01*
X133625063Y-112728285D01*
X133473873Y-112728285D01*
X133413396Y-112758523D01*
X133383158Y-112788761D01*
X133352920Y-112849238D01*
X133352920Y-113000428D01*
X133383158Y-113060904D01*
X133413396Y-113091142D01*
X133473873Y-113121380D01*
X133625063Y-113121380D01*
X133685539Y-113091142D01*
X133715777Y-113060904D01*
G04 #@! TO.C,TP6*
X131923263Y-112410180D02*
X131560406Y-112410180D01*
X131741834Y-113045180D02*
X131741834Y-112410180D01*
X131348739Y-113045180D02*
X131348739Y-112410180D01*
X131106834Y-112410180D01*
X131046358Y-112440419D01*
X131016120Y-112470657D01*
X130985882Y-112531133D01*
X130985882Y-112621847D01*
X131016120Y-112682323D01*
X131046358Y-112712561D01*
X131106834Y-112742799D01*
X131348739Y-112742799D01*
X130441596Y-112410180D02*
X130562549Y-112410180D01*
X130623025Y-112440419D01*
X130653263Y-112470657D01*
X130713739Y-112561371D01*
X130743977Y-112682323D01*
X130743977Y-112924228D01*
X130713739Y-112984704D01*
X130683501Y-113014942D01*
X130623025Y-113045180D01*
X130502073Y-113045180D01*
X130441596Y-113014942D01*
X130411358Y-112984704D01*
X130381120Y-112924228D01*
X130381120Y-112773038D01*
X130411358Y-112712561D01*
X130441596Y-112682323D01*
X130502073Y-112652085D01*
X130623025Y-112652085D01*
X130683501Y-112682323D01*
X130713739Y-112712561D01*
X130743977Y-112773038D01*
G04 #@! TO.C,TP9*
X141422863Y-90769380D02*
X141060006Y-90769380D01*
X141241434Y-91404380D02*
X141241434Y-90769380D01*
X140848339Y-91404380D02*
X140848339Y-90769380D01*
X140606434Y-90769380D01*
X140545958Y-90799619D01*
X140515720Y-90829857D01*
X140485482Y-90890333D01*
X140485482Y-90981047D01*
X140515720Y-91041523D01*
X140545958Y-91071761D01*
X140606434Y-91101999D01*
X140848339Y-91101999D01*
X140183101Y-91404380D02*
X140062149Y-91404380D01*
X140001673Y-91374142D01*
X139971434Y-91343904D01*
X139910958Y-91253190D01*
X139880720Y-91132238D01*
X139880720Y-90890333D01*
X139910958Y-90829857D01*
X139941196Y-90799619D01*
X140001673Y-90769380D01*
X140122625Y-90769380D01*
X140183101Y-90799619D01*
X140213339Y-90829857D01*
X140243577Y-90890333D01*
X140243577Y-91041523D01*
X140213339Y-91101999D01*
X140183101Y-91132238D01*
X140122625Y-91162476D01*
X140001673Y-91162476D01*
X139941196Y-91132238D01*
X139910958Y-91101999D01*
X139880720Y-91041523D01*
G04 #@! TO.C,TP10*
X117210615Y-80539228D02*
X117210615Y-80902085D01*
X117845615Y-80720657D02*
X117210615Y-80720657D01*
X117845615Y-81113752D02*
X117210615Y-81113752D01*
X117210615Y-81355657D01*
X117240854Y-81416133D01*
X117271092Y-81446371D01*
X117331568Y-81476609D01*
X117422282Y-81476609D01*
X117482758Y-81446371D01*
X117512996Y-81416133D01*
X117543234Y-81355657D01*
X117543234Y-81113752D01*
X117845615Y-82081371D02*
X117845615Y-81718514D01*
X117845615Y-81899942D02*
X117210615Y-81899942D01*
X117301330Y-81839466D01*
X117361806Y-81778990D01*
X117392044Y-81718514D01*
X117210615Y-82474466D02*
X117210615Y-82534942D01*
X117240854Y-82595419D01*
X117271092Y-82625657D01*
X117331568Y-82655895D01*
X117452520Y-82686133D01*
X117603711Y-82686133D01*
X117724663Y-82655895D01*
X117785139Y-82625657D01*
X117815377Y-82595419D01*
X117845615Y-82534942D01*
X117845615Y-82474466D01*
X117815377Y-82413990D01*
X117785139Y-82383752D01*
X117724663Y-82353514D01*
X117603711Y-82323276D01*
X117452520Y-82323276D01*
X117331568Y-82353514D01*
X117271092Y-82383752D01*
X117240854Y-82413990D01*
X117210615Y-82474466D01*
G04 #@! TO.C,TP12*
X109031815Y-81631428D02*
X109031815Y-81994285D01*
X109666815Y-81812857D02*
X109031815Y-81812857D01*
X109666815Y-82205952D02*
X109031815Y-82205952D01*
X109031815Y-82447857D01*
X109062054Y-82508333D01*
X109092292Y-82538571D01*
X109152768Y-82568809D01*
X109243482Y-82568809D01*
X109303958Y-82538571D01*
X109334196Y-82508333D01*
X109364434Y-82447857D01*
X109364434Y-82205952D01*
X109666815Y-83173571D02*
X109666815Y-82810714D01*
X109666815Y-82992142D02*
X109031815Y-82992142D01*
X109122530Y-82931666D01*
X109183006Y-82871190D01*
X109213244Y-82810714D01*
X109092292Y-83415476D02*
X109062054Y-83445714D01*
X109031815Y-83506190D01*
X109031815Y-83657380D01*
X109062054Y-83717857D01*
X109092292Y-83748095D01*
X109152768Y-83778333D01*
X109213244Y-83778333D01*
X109303958Y-83748095D01*
X109666815Y-83385238D01*
X109666815Y-83778333D01*
G04 #@! TO.C,J1*
X126228220Y-80990380D02*
X126228220Y-81443952D01*
X126258458Y-81534666D01*
X126318934Y-81595142D01*
X126409649Y-81625380D01*
X126470125Y-81625380D01*
X125593220Y-81625380D02*
X125956077Y-81625380D01*
X125774649Y-81625380D02*
X125774649Y-80990380D01*
X125835125Y-81081095D01*
X125895601Y-81141571D01*
X125956077Y-81171809D01*
G04 #@! TD*
M02*
