G04 #@! TF.GenerationSoftware,KiCad,Pcbnew,5.0.2+dfsg1-1*
G04 #@! TF.CreationDate,2020-12-10T00:07:48-08:00*
G04 #@! TF.ProjectId,chronopy,6368726f-6e6f-4707-992e-6b696361645f,rev?*
G04 #@! TF.SameCoordinates,Original*
G04 #@! TF.FileFunction,Copper,L1,Top*
G04 #@! TF.FilePolarity,Positive*
%FSLAX46Y46*%
G04 Gerber Fmt 4.6, Leading zero omitted, Abs format (unit mm)*
G04 Created by KiCad (PCBNEW 5.0.2+dfsg1-1) date Thu 10 Dec 2020 12:07:48 AM PST*
%MOMM*%
%LPD*%
G01*
G04 APERTURE LIST*
G04 #@! TA.AperFunction,SMDPad,CuDef*
%ADD10R,1.800000X0.750000*%
G04 #@! TD*
G04 #@! TA.AperFunction,SMDPad,CuDef*
%ADD11R,0.900000X1.300000*%
G04 #@! TD*
G04 #@! TA.AperFunction,SMDPad,CuDef*
%ADD12R,1.800000X0.600000*%
G04 #@! TD*
G04 #@! TA.AperFunction,SMDPad,CuDef*
%ADD13R,0.718820X0.599440*%
G04 #@! TD*
G04 #@! TA.AperFunction,ComponentPad*
%ADD14R,1.000000X1.000000*%
G04 #@! TD*
G04 #@! TA.AperFunction,ComponentPad*
%ADD15O,1.000000X1.000000*%
G04 #@! TD*
G04 #@! TA.AperFunction,SMDPad,CuDef*
%ADD16R,0.500000X0.500000*%
G04 #@! TD*
G04 #@! TA.AperFunction,ComponentPad*
%ADD17C,1.450000*%
G04 #@! TD*
G04 #@! TA.AperFunction,ComponentPad*
%ADD18O,1.200000X1.900000*%
G04 #@! TD*
G04 #@! TA.AperFunction,ViaPad*
%ADD19C,0.508000*%
G04 #@! TD*
G04 #@! TA.AperFunction,Conductor*
%ADD20C,0.152400*%
G04 #@! TD*
G04 #@! TA.AperFunction,Conductor*
%ADD21C,0.254000*%
G04 #@! TD*
G04 APERTURE END LIST*
D10*
G04 #@! TO.P,SW1,1*
G04 #@! TO.N,GND*
X139137354Y-109907319D03*
X139137354Y-112357319D03*
D11*
G04 #@! TO.P,SW1,3*
G04 #@! TO.N,N/C*
X141087354Y-109282319D03*
D12*
G04 #@! TO.P,SW1,2*
G04 #@! TO.N,SW_A*
X139137354Y-111132319D03*
D11*
G04 #@! TO.P,SW1,3*
G04 #@! TO.N,N/C*
X141087354Y-112982319D03*
G04 #@! TD*
G04 #@! TO.P,SW3,3*
G04 #@! TO.N,N/C*
X99363354Y-82231319D03*
D12*
G04 #@! TO.P,SW3,2*
G04 #@! TO.N,SW_C*
X101313354Y-84081319D03*
D11*
G04 #@! TO.P,SW3,3*
G04 #@! TO.N,N/C*
X99363354Y-85931319D03*
D10*
G04 #@! TO.P,SW3,1*
G04 #@! TO.N,GND*
X101313354Y-82856319D03*
X101313354Y-85306319D03*
G04 #@! TD*
G04 #@! TO.P,SW2,1*
G04 #@! TO.N,GND*
X101313354Y-112357319D03*
X101313354Y-109907319D03*
D11*
G04 #@! TO.P,SW2,3*
G04 #@! TO.N,N/C*
X99363354Y-112982319D03*
D12*
G04 #@! TO.P,SW2,2*
G04 #@! TO.N,SW_B*
X101313354Y-111132319D03*
D11*
G04 #@! TO.P,SW2,3*
G04 #@! TO.N,N/C*
X99363354Y-109282319D03*
G04 #@! TD*
G04 #@! TO.P,SW4,3*
G04 #@! TO.N,N/C*
X141087354Y-85931319D03*
D12*
G04 #@! TO.P,SW4,2*
G04 #@! TO.N,SW_D*
X139137354Y-84081319D03*
D11*
G04 #@! TO.P,SW4,3*
G04 #@! TO.N,N/C*
X141087354Y-82231319D03*
D10*
G04 #@! TO.P,SW4,1*
G04 #@! TO.N,GND*
X139137354Y-85306319D03*
X139137354Y-82856319D03*
G04 #@! TD*
D13*
G04 #@! TO.P,U7,8*
G04 #@! TO.N,Net-(C13-Pad1)*
X118645920Y-117258700D03*
G04 #@! TO.P,U7,7*
G04 #@! TO.N,IIC_SCL*
X119616200Y-117258700D03*
G04 #@! TO.P,U7,6*
G04 #@! TO.N,GND*
X120581400Y-117258700D03*
G04 #@! TO.P,U7,5*
G04 #@! TO.N,+3V0*
X121551680Y-117258700D03*
G04 #@! TO.P,U7,4*
G04 #@! TO.N,Net-(U7-Pad3)*
X121551680Y-115861700D03*
G04 #@! TO.P,U7,3*
X120581400Y-115861700D03*
G04 #@! TO.P,U7,2*
G04 #@! TO.N,GES_INT*
X119616200Y-115861700D03*
G04 #@! TO.P,U7,1*
G04 #@! TO.N,IIC_SDA*
X118645920Y-115861700D03*
G04 #@! TD*
D14*
G04 #@! TO.P,J6,1*
G04 #@! TO.N,+3V0*
X102636553Y-94528720D03*
D15*
G04 #@! TO.P,J6,2*
G04 #@! TO.N,GND*
X101366553Y-94528720D03*
G04 #@! TO.P,J6,3*
G04 #@! TO.N,GPIO0_7*
X102636553Y-95798720D03*
G04 #@! TO.P,J6,4*
G04 #@! TO.N,GPIO0_15*
X101366553Y-95798720D03*
G04 #@! TO.P,J6,5*
G04 #@! TO.N,GPIO0_6*
X102636553Y-97068720D03*
G04 #@! TO.P,J6,6*
G04 #@! TO.N,GPIO0_19*
X101366553Y-97068720D03*
G04 #@! TO.P,J6,7*
G04 #@! TO.N,GPIO0_5*
X102636553Y-98338720D03*
G04 #@! TO.P,J6,8*
G04 #@! TO.N,GPIO0_21*
X101366553Y-98338720D03*
G04 #@! TO.P,J6,9*
G04 #@! TO.N,GPIO0_4*
X102636553Y-99608720D03*
G04 #@! TO.P,J6,10*
G04 #@! TO.N,GPIO0_24*
X101366553Y-99608720D03*
G04 #@! TD*
D16*
G04 #@! TO.P,U6,1*
G04 #@! TO.N,GND*
X107130435Y-115265873D03*
G04 #@! TO.P,U6,2*
G04 #@! TO.N,Net-(R15-Pad1)*
X107930435Y-115265873D03*
G04 #@! TO.P,U6,3*
G04 #@! TO.N,IIC_SDA*
X108730435Y-115265873D03*
G04 #@! TO.P,U6,4*
G04 #@! TO.N,IIC_SCL*
X109530435Y-115265873D03*
G04 #@! TO.P,U6,5*
G04 #@! TO.N,Net-(R16-Pad1)*
X109550435Y-117665873D03*
G04 #@! TO.P,U6,6*
G04 #@! TO.N,+3V0*
X108730435Y-117665873D03*
G04 #@! TO.P,U6,7*
G04 #@! TO.N,GND*
X107930435Y-117665873D03*
G04 #@! TO.P,U6,8*
G04 #@! TO.N,+3V0*
X107130435Y-117665873D03*
G04 #@! TD*
D17*
G04 #@! TO.P,J1,6*
G04 #@! TO.N,GND*
X119575000Y-80137500D03*
X124575000Y-80137500D03*
D18*
X118575000Y-77437500D03*
X125575000Y-77437500D03*
G04 #@! TD*
D19*
G04 #@! TO.N,+BATT*
X126825000Y-84000000D03*
X124025000Y-83675000D03*
G04 #@! TO.N,CHGSTAT*
X111132154Y-80196754D03*
X126642354Y-89126319D03*
G04 #@! TO.N,GND*
X129334994Y-106230000D03*
X130535000Y-106250000D03*
X115089035Y-76613273D03*
X138025000Y-104820000D03*
X140475000Y-104830000D03*
X139245000Y-103600000D03*
X139245000Y-106057400D03*
X110459035Y-118493673D03*
X117075000Y-113640000D03*
X115787600Y-113640000D03*
X114305000Y-113080000D03*
X114295000Y-112440000D03*
X111655000Y-109380000D03*
X111655000Y-110370000D03*
X111655000Y-111370000D03*
X111635000Y-112800000D03*
X124985000Y-118000000D03*
X125288400Y-116031400D03*
X125288400Y-113881400D03*
X106229035Y-115253673D03*
X136836954Y-91700000D03*
X136195000Y-95200000D03*
X136205000Y-98500000D03*
X136836954Y-101930000D03*
X135745000Y-101940000D03*
X134655000Y-101940000D03*
X129625000Y-99590000D03*
X130525000Y-95750000D03*
X128045000Y-91769800D03*
X116995000Y-84820000D03*
X112898800Y-79313400D03*
X112038800Y-79323400D03*
X112898800Y-78543400D03*
X112028800Y-78553400D03*
X112215000Y-85500000D03*
X111205000Y-85520000D03*
X110235000Y-85520000D03*
X118600000Y-108000000D03*
X128124998Y-85599998D03*
X118452354Y-91786319D03*
X116032354Y-95786319D03*
X116032354Y-90796319D03*
X119182354Y-91776319D03*
X115622354Y-94486319D03*
X116032354Y-95086319D03*
X118089964Y-99256319D03*
X118089964Y-103746319D03*
X122552352Y-100226319D03*
X107935354Y-118406319D03*
X120592354Y-118136319D03*
X133282354Y-117966319D03*
X135942354Y-107216319D03*
X131622354Y-88076319D03*
X128055000Y-101978929D03*
X105042354Y-110615319D03*
X116455000Y-87633709D03*
X114789744Y-116887477D03*
X106814154Y-79839519D03*
X108515954Y-80372919D03*
X104274154Y-82125519D03*
X104243380Y-77020129D03*
X102597754Y-109913119D03*
X102597754Y-112376919D03*
X102597754Y-85300519D03*
X102597754Y-82862119D03*
X137802154Y-109913119D03*
X137802154Y-112351519D03*
X133306354Y-76994719D03*
X137903764Y-82862119D03*
X137903764Y-85300519D03*
X139757954Y-89059719D03*
X108414344Y-77121719D03*
G04 #@! TO.N,SW_B*
X112425000Y-113810000D03*
X122422354Y-99066319D03*
G04 #@! TO.N,SW_A*
X137624354Y-111132319D03*
G04 #@! TO.N,+3V0*
X108719035Y-118393674D03*
X107119035Y-118403673D03*
X122505000Y-117240000D03*
X120462354Y-110876319D03*
X120462354Y-109876319D03*
X120472354Y-108876319D03*
X117432354Y-106776319D03*
X115982354Y-108546319D03*
X113272354Y-112066319D03*
X122322354Y-102776319D03*
X128832354Y-100426319D03*
X116032354Y-93886319D03*
X116712354Y-94186319D03*
X110242354Y-82786319D03*
X111242354Y-82786319D03*
X112242354Y-82786319D03*
X136072354Y-81916319D03*
X105042354Y-109605319D03*
X126422354Y-107066319D03*
X134182354Y-108816319D03*
X107035354Y-115926319D03*
X115472354Y-118156319D03*
X138602354Y-107216319D03*
X126452354Y-96286319D03*
X113202354Y-108746319D03*
X110780625Y-114501390D03*
X121546154Y-90710719D03*
X109811354Y-80931719D03*
X129216954Y-110192519D03*
X123603554Y-110192519D03*
X130461554Y-107093719D03*
X139910354Y-87637319D03*
X130766354Y-77045523D03*
X138894354Y-90736119D03*
G04 #@! TO.N,LCD_DC*
X130970000Y-96316400D03*
X112822354Y-92096319D03*
G04 #@! TO.N,LCD_CLK*
X126042400Y-94360600D03*
X119572354Y-94466741D03*
G04 #@! TO.N,LCD_MOSI*
X113469951Y-92654556D03*
X128592354Y-90186317D03*
G04 #@! TO.N,LCD_RST*
X113812331Y-93256319D03*
X129152354Y-90706319D03*
G04 #@! TO.N,LCD_CS*
X129725400Y-91287200D03*
X118542354Y-93916319D03*
G04 #@! TO.N,QSPI_CLK*
X133545000Y-81920000D03*
X132445000Y-94920000D03*
G04 #@! TO.N,QSPI_DIO0*
X132275000Y-81910000D03*
X131355000Y-94930000D03*
G04 #@! TO.N,~RESET*
X134125000Y-89680000D03*
X132061753Y-76994718D03*
G04 #@! TO.N,QSPI_DIO3*
X134815000Y-81920000D03*
X133555000Y-94920000D03*
G04 #@! TO.N,SWDIO*
X130766354Y-80271319D03*
X135846354Y-80144323D03*
G04 #@! TO.N,ACC_INT*
X132445000Y-98790000D03*
X119175000Y-111860000D03*
G04 #@! TO.N,GES_INT*
X119605000Y-115000000D03*
G04 #@! TO.N,ACC_AG_NT*
X118735000Y-112470000D03*
X133555000Y-98790000D03*
G04 #@! TO.N,IIC_SCL*
X132075000Y-110470000D03*
X115285000Y-108820000D03*
X122582344Y-101756319D03*
X123092354Y-98496319D03*
X115272354Y-115086319D03*
X104243398Y-80169719D03*
X102216754Y-89262919D03*
X109531954Y-114408919D03*
G04 #@! TO.N,IIC_SDA*
X116546700Y-115861700D03*
X133365000Y-110480000D03*
X116645000Y-108780000D03*
X120482356Y-102248919D03*
X123712354Y-97376319D03*
X104248457Y-79102919D03*
X101505554Y-89262919D03*
X108719154Y-114408919D03*
G04 #@! TO.N,Net-(C13-Pad1)*
X117745000Y-117260000D03*
G04 #@! TO.N,Net-(R16-Pad1)*
X109569035Y-118493673D03*
G04 #@! TO.N,Net-(R15-Pad1)*
X107929035Y-115923673D03*
G04 #@! TO.N,SW_C*
X127100000Y-88425000D03*
X121546154Y-88425000D03*
X102597754Y-84081319D03*
G04 #@! TO.N,SW_D*
X134703354Y-95130319D03*
X138259354Y-88399319D03*
G04 #@! TO.N,BATVSENSE*
X131900000Y-95575000D03*
X131882354Y-89286319D03*
G04 #@! TO.N,TS_INT*
X131352354Y-98796319D03*
X125602354Y-101246319D03*
G04 #@! TO.N,TS_RST*
X130592354Y-97946319D03*
X124892354Y-100756319D03*
G04 #@! TO.N,GPIO0_4*
X130002354Y-98886319D03*
G04 #@! TO.N,GPIO0_15*
X128124957Y-89703716D03*
G04 #@! TO.N,GPIO0_5*
X120334954Y-97966319D03*
G04 #@! TO.N,GPIO0_19*
X128082354Y-87316319D03*
X119262354Y-87316317D03*
G04 #@! TO.N,GPIO0_6*
X131002354Y-97396319D03*
G04 #@! TO.N,GPIO0_21*
X127622354Y-87906319D03*
X117742354Y-87916319D03*
G04 #@! TO.N,GPIO0_7*
X120334954Y-96866319D03*
G04 #@! TO.N,GPIO0_24*
X132382600Y-96316319D03*
G04 #@! TD*
D20*
G04 #@! TO.N,+BATT*
X126825000Y-84000000D02*
X124350000Y-84000000D01*
X124350000Y-84000000D02*
X124025000Y-83675000D01*
G04 #@! TO.N,CHGSTAT*
X114272354Y-89126319D02*
X126642354Y-89126319D01*
X111132154Y-80196754D02*
X112276789Y-80196754D01*
X112276789Y-80196754D02*
X112732354Y-80652319D01*
X112732354Y-80652319D02*
X112732354Y-87586319D01*
X112732354Y-87586319D02*
X114272354Y-89126319D01*
G04 #@! TO.N,GND*
X106241235Y-115265873D02*
X106229035Y-115253673D01*
X107130435Y-115265873D02*
X106241235Y-115265873D01*
X107930435Y-117665873D02*
X107930435Y-118401400D01*
X107930435Y-118401400D02*
X107935354Y-118406319D01*
X120581400Y-117258700D02*
X120581400Y-118125365D01*
X120581400Y-118125365D02*
X120592354Y-118136319D01*
X133290073Y-117958600D02*
X133282354Y-117966319D01*
X101313354Y-109907319D02*
X102591954Y-109907319D01*
X102591954Y-109907319D02*
X102597754Y-109913119D01*
X101313354Y-112357319D02*
X102578154Y-112357319D01*
X102578154Y-112357319D02*
X102597754Y-112376919D01*
X101313354Y-85306319D02*
X102591954Y-85306319D01*
X102591954Y-85306319D02*
X102597754Y-85300519D01*
X101313354Y-82856319D02*
X102591954Y-82856319D01*
X102591954Y-82856319D02*
X102597754Y-82862119D01*
X139137354Y-109907319D02*
X137807954Y-109907319D01*
X137807954Y-109907319D02*
X137802154Y-109913119D01*
X139137354Y-112357319D02*
X137807954Y-112357319D01*
X137807954Y-112357319D02*
X137802154Y-112351519D01*
X137909564Y-85306319D02*
X137903764Y-85300519D01*
X137909564Y-82856319D02*
X137903764Y-82862119D01*
X139137354Y-82856319D02*
X137909564Y-82856319D01*
X139137354Y-85306319D02*
X137909564Y-85306319D01*
G04 #@! TO.N,SW_B*
X112446600Y-113831600D02*
X112425000Y-113810000D01*
X112425000Y-113810000D02*
X104234035Y-113810000D01*
X104234035Y-113810000D02*
X103334354Y-112910319D01*
X103334354Y-112910319D02*
X103334354Y-111640319D01*
X102826354Y-111132319D02*
X101313354Y-111132319D01*
X103334354Y-111640319D02*
X102826354Y-111132319D01*
X122168355Y-99320318D02*
X122422354Y-99066319D01*
X113077273Y-113810000D02*
X113754955Y-113132318D01*
X112425000Y-113810000D02*
X113077273Y-113810000D01*
X113754955Y-100473718D02*
X114312354Y-99916319D01*
X113754955Y-113132318D02*
X113754955Y-100473718D01*
X114312354Y-99916319D02*
X121572354Y-99916319D01*
X121572354Y-99916319D02*
X122168355Y-99320318D01*
G04 #@! TO.N,SW_A*
X139137354Y-111132319D02*
X137624354Y-111132319D01*
G04 #@! TO.N,+3V0*
X108730435Y-118382274D02*
X108719035Y-118393674D01*
X108730435Y-117665873D02*
X108730435Y-118382274D01*
X107130435Y-118392273D02*
X107119035Y-118403673D01*
X107130435Y-117665873D02*
X107130435Y-118392273D01*
X122486300Y-117258700D02*
X122505000Y-117240000D01*
X121551680Y-117258700D02*
X122486300Y-117258700D01*
G04 #@! TO.N,LCD_DC*
X130610790Y-96316400D02*
X130970000Y-96316400D01*
X127692435Y-96316400D02*
X130610790Y-96316400D01*
X112822354Y-95756319D02*
X113382435Y-96316400D01*
X112822354Y-92096319D02*
X112822354Y-95756319D01*
X113382435Y-96316400D02*
X119842354Y-96316400D01*
X126684154Y-95308119D02*
X127692435Y-96316400D01*
X119842354Y-96316400D02*
X120850635Y-95308119D01*
X120850635Y-95308119D02*
X126684154Y-95308119D01*
G04 #@! TO.N,LCD_CLK*
X119598361Y-94440734D02*
X119572354Y-94466741D01*
X126042400Y-94360600D02*
X125962266Y-94440734D01*
X125962266Y-94440734D02*
X119598361Y-94440734D01*
G04 #@! TO.N,LCD_MOSI*
X125284117Y-92654556D02*
X127752356Y-90186317D01*
X113469951Y-92654556D02*
X125284117Y-92654556D01*
X127752356Y-90186317D02*
X128592354Y-90186317D01*
G04 #@! TO.N,LCD_RST*
X128002154Y-90706319D02*
X129152354Y-90706319D01*
X113812331Y-93256319D02*
X125452154Y-93256319D01*
X125452154Y-93256319D02*
X128002154Y-90706319D01*
G04 #@! TO.N,LCD_CS*
X118901564Y-93916319D02*
X118542354Y-93916319D01*
X127134154Y-92285519D02*
X125503354Y-93916319D01*
X129725400Y-91287200D02*
X128727081Y-92285519D01*
X125503354Y-93916319D02*
X118901564Y-93916319D01*
X128727081Y-92285519D02*
X127134154Y-92285519D01*
G04 #@! TO.N,QSPI_CLK*
X133545000Y-82279210D02*
X133545000Y-81920000D01*
X133545000Y-83730000D02*
X133545000Y-82279210D01*
X132445000Y-94920000D02*
X132445000Y-84830000D01*
X132445000Y-84830000D02*
X133545000Y-83730000D01*
G04 #@! TO.N,QSPI_DIO0*
X132264954Y-81920046D02*
X132275000Y-81910000D01*
X132264954Y-83420919D02*
X132264954Y-81920046D01*
X131101001Y-84584872D02*
X132264954Y-83420919D01*
X131355000Y-94930000D02*
X131101001Y-94676001D01*
X131101001Y-94676001D02*
X131101001Y-84584872D01*
G04 #@! TO.N,~RESET*
X134125000Y-89680000D02*
X134135681Y-89669319D01*
X132315752Y-76740719D02*
X132061753Y-76994718D01*
X132544352Y-76512119D02*
X132315752Y-76740719D01*
X135643154Y-76512119D02*
X132544352Y-76512119D01*
X136554955Y-77423920D02*
X135643154Y-76512119D01*
X134125000Y-89680000D02*
X136554955Y-87250045D01*
X136554955Y-87250045D02*
X136554955Y-77423920D01*
G04 #@! TO.N,QSPI_DIO3*
X134815000Y-82210000D02*
X134815000Y-81920000D01*
X133555000Y-94920000D02*
X133555000Y-84975673D01*
X134815000Y-83715673D02*
X134815000Y-82210000D01*
X133555000Y-84975673D02*
X134815000Y-83715673D01*
G04 #@! TO.N,SWDIO*
X135592355Y-80398322D02*
X135846354Y-80144323D01*
X135363758Y-80626919D02*
X135592355Y-80398322D01*
X130766354Y-80271319D02*
X131121954Y-80626919D01*
X131121954Y-80626919D02*
X135363758Y-80626919D01*
G04 #@! TO.N,ACC_INT*
X132445000Y-105800000D02*
X132445000Y-98790000D01*
X132445000Y-107353673D02*
X132445000Y-105800000D01*
X121148673Y-111860000D02*
X121495354Y-111513319D01*
X119175000Y-111860000D02*
X121148673Y-111860000D01*
X121495354Y-111513319D02*
X121495354Y-108363719D01*
X121495354Y-108363719D02*
X122132754Y-107726319D01*
X132072354Y-107726319D02*
X132445000Y-107353673D01*
X122132754Y-107726319D02*
X132072354Y-107726319D01*
G04 #@! TO.N,GES_INT*
X119616200Y-115011200D02*
X119605000Y-115000000D01*
X119616200Y-115861700D02*
X119616200Y-115011200D01*
G04 #@! TO.N,ACC_AG_NT*
X119094210Y-112470000D02*
X118735000Y-112470000D01*
X121453073Y-112470000D02*
X119094210Y-112470000D01*
X122506354Y-108216319D02*
X122003354Y-108719319D01*
X133555000Y-98790000D02*
X133555000Y-107803673D01*
X133142354Y-108216319D02*
X122506354Y-108216319D01*
X133555000Y-107803673D02*
X133142354Y-108216319D01*
X122003354Y-108719319D02*
X122003354Y-111919719D01*
X122003354Y-111919719D02*
X121453073Y-112470000D01*
G04 #@! TO.N,IIC_SCL*
X122582344Y-101756319D02*
X123092354Y-101246309D01*
X123092354Y-98855529D02*
X123092354Y-98496319D01*
X123092354Y-101246309D02*
X123092354Y-98855529D01*
X115285000Y-115073673D02*
X115272354Y-115086319D01*
X115285000Y-108820000D02*
X115285000Y-115073673D01*
X115272354Y-115445529D02*
X115272354Y-115086319D01*
X115272354Y-117136319D02*
X115272354Y-115445529D01*
X116316035Y-118180000D02*
X115272354Y-117136319D01*
X119616200Y-117258700D02*
X119616200Y-117710820D01*
X119147020Y-118180000D02*
X116316035Y-118180000D01*
X119616200Y-117710820D02*
X119147020Y-118180000D01*
X122223134Y-101756319D02*
X122582344Y-101756319D01*
X115882354Y-101756319D02*
X122223134Y-101756319D01*
X115285000Y-108820000D02*
X115285000Y-102353673D01*
X115285000Y-102353673D02*
X115882354Y-101756319D01*
X132075000Y-109640000D02*
X132075000Y-110470000D01*
X131771319Y-109336319D02*
X132075000Y-109640000D01*
X119616200Y-116806580D02*
X119862780Y-116560000D01*
X122943154Y-109887719D02*
X123494554Y-109336319D01*
X119616200Y-117258700D02*
X119616200Y-116806580D01*
X119862780Y-116560000D02*
X122392273Y-116560000D01*
X123494554Y-109336319D02*
X131771319Y-109336319D01*
X122392273Y-116560000D02*
X122943154Y-116009119D01*
X122943154Y-116009119D02*
X122943154Y-109887719D01*
X109530435Y-115265873D02*
X109530435Y-114410438D01*
X109530435Y-114410438D02*
X109531954Y-114408919D01*
X102216754Y-88653319D02*
X102216754Y-89262919D01*
X103613754Y-80804719D02*
X103613754Y-87256319D01*
X104243398Y-80169719D02*
X104243398Y-80175075D01*
X103613754Y-87256319D02*
X102216754Y-88653319D01*
X104243398Y-80175075D02*
X103613754Y-80804719D01*
G04 #@! TO.N,IIC_SDA*
X118645920Y-115861700D02*
X116546700Y-115861700D01*
X120482356Y-102248919D02*
X123179754Y-102248919D01*
X123179754Y-102248919D02*
X123712354Y-101716319D01*
X123712354Y-98176319D02*
X123712354Y-97376319D01*
X123712354Y-101716319D02*
X123712354Y-98176319D01*
X116546700Y-115502490D02*
X116546700Y-115861700D01*
X116546700Y-109237510D02*
X116546700Y-115502490D01*
X116645000Y-109139210D02*
X116546700Y-109237510D01*
X116645000Y-108780000D02*
X116645000Y-109139210D01*
X120459756Y-102226319D02*
X120482356Y-102248919D01*
X117252354Y-102226319D02*
X120459756Y-102226319D01*
X116645000Y-108780000D02*
X116645000Y-102833673D01*
X116645000Y-102833673D02*
X117252354Y-102226319D01*
X133365000Y-109308965D02*
X133365000Y-110480000D01*
X132876035Y-108820000D02*
X133365000Y-109308965D01*
X122994873Y-108820000D02*
X132876035Y-108820000D01*
X118645920Y-114769080D02*
X118965000Y-114450000D01*
X118965000Y-114450000D02*
X121759073Y-114450000D01*
X121759073Y-114450000D02*
X122460554Y-113748519D01*
X122460554Y-109354319D02*
X122994873Y-108820000D01*
X118645920Y-115861700D02*
X118645920Y-114769080D01*
X122460554Y-113748519D02*
X122460554Y-109354319D01*
X108730435Y-115265873D02*
X108730435Y-114420200D01*
X108730435Y-114420200D02*
X108719154Y-114408919D01*
X103080354Y-86976919D02*
X101505554Y-88551719D01*
X103080354Y-80550719D02*
X103080354Y-86976919D01*
X101505554Y-88551719D02*
X101505554Y-89262919D01*
X104248457Y-79102919D02*
X104248457Y-79382616D01*
X104248457Y-79382616D02*
X103080354Y-80550719D01*
G04 #@! TO.N,Net-(C13-Pad1)*
X117746300Y-117258700D02*
X117745000Y-117260000D01*
X118645920Y-117258700D02*
X117746300Y-117258700D01*
G04 #@! TO.N,Net-(R16-Pad1)*
X109550436Y-118475073D02*
X109569035Y-118493673D01*
X109550435Y-117665873D02*
X109550436Y-118475073D01*
G04 #@! TO.N,Net-(R15-Pad1)*
X107929035Y-115923673D02*
X107929035Y-115267273D01*
X107929035Y-115267273D02*
X107930436Y-115265873D01*
D21*
G04 #@! TO.N,Net-(U7-Pad3)*
X120581400Y-115233600D02*
X120715000Y-115100000D01*
X120581400Y-115861700D02*
X120581400Y-115233600D01*
X120715000Y-115100000D02*
X121415000Y-115100000D01*
X121415000Y-115100000D02*
X121551680Y-115236680D01*
X121551680Y-115236680D02*
X121551680Y-115861700D01*
D20*
G04 #@! TO.N,SW_C*
X127100000Y-88425000D02*
X121546154Y-88425000D01*
X102597754Y-84081319D02*
X101313354Y-84081319D01*
G04 #@! TO.N,SW_D*
X134703354Y-95130319D02*
X134703354Y-92818919D01*
X138259354Y-89262919D02*
X138259354Y-88399319D01*
X134703354Y-92818919D02*
X138259354Y-89262919D01*
X137776754Y-84081319D02*
X139137354Y-84081319D01*
X137294154Y-86824519D02*
X137294154Y-84563919D01*
X137294154Y-84563919D02*
X137776754Y-84081319D01*
X138259354Y-88399319D02*
X138259354Y-87789719D01*
X138259354Y-87789719D02*
X137294154Y-86824519D01*
G04 #@! TO.N,BATVSENSE*
X131900000Y-95575000D02*
X131900000Y-89303965D01*
X131900000Y-89303965D02*
X131882354Y-89286319D01*
G04 #@! TO.N,TS_INT*
X131352354Y-101046719D02*
X131352354Y-98796319D01*
X130902754Y-101496319D02*
X131352354Y-101046719D01*
X126211564Y-101496319D02*
X130902754Y-101496319D01*
X125602354Y-101246319D02*
X125961564Y-101246319D01*
X125961564Y-101246319D02*
X126211564Y-101496319D01*
G04 #@! TO.N,TS_RST*
X130122754Y-101006319D02*
X130592354Y-100536719D01*
X126482354Y-101006319D02*
X130122754Y-101006319D01*
X124892354Y-100756319D02*
X126232354Y-100756319D01*
X130592354Y-100536719D02*
X130592354Y-97946319D01*
X126232354Y-100756319D02*
X126482354Y-101006319D01*
G04 #@! TO.N,GPIO0_4*
X127102354Y-98886319D02*
X130002354Y-98886319D01*
X125092354Y-96876319D02*
X127102354Y-98886319D01*
X113322354Y-98636319D02*
X120902354Y-98636319D01*
X112612354Y-99346319D02*
X113322354Y-98636319D01*
X112612354Y-112522319D02*
X112612354Y-99346319D01*
X104142354Y-100230919D02*
X104142354Y-112606319D01*
X111843354Y-113291319D02*
X112612354Y-112522319D01*
X120902354Y-98636319D02*
X122662354Y-96876319D01*
X103520155Y-99608720D02*
X104142354Y-100230919D01*
X104142354Y-112606319D02*
X104827354Y-113291319D01*
X122662354Y-96876319D02*
X125092354Y-96876319D01*
X102636553Y-99608720D02*
X103520155Y-99608720D01*
X104827354Y-113291319D02*
X111843354Y-113291319D01*
G04 #@! TO.N,GPIO0_15*
X127604957Y-89703716D02*
X128124957Y-89703716D01*
X113606766Y-90036319D02*
X127272354Y-90036319D01*
X127272354Y-90036319D02*
X127604957Y-89703716D01*
X111106166Y-87535719D02*
X113606766Y-90036319D01*
X101366553Y-95798720D02*
X100466555Y-95798720D01*
X105645754Y-87535719D02*
X111106166Y-87535719D01*
X99901554Y-93279919D02*
X105645754Y-87535719D01*
X100466555Y-95798720D02*
X99901554Y-95233719D01*
X99901554Y-95233719D02*
X99901554Y-93279919D01*
G04 #@! TO.N,GPIO0_5*
X104776555Y-98338720D02*
X105591554Y-99153719D01*
X102636553Y-98338720D02*
X104776555Y-98338720D01*
X119975744Y-97966319D02*
X120334954Y-97966319D01*
X112137601Y-98681072D02*
X112862354Y-97956319D01*
X105642354Y-111896319D02*
X106402354Y-112656319D01*
X105591554Y-99153719D02*
X105642354Y-99204519D01*
X106402354Y-112656319D02*
X111082931Y-112656319D01*
X111082931Y-112656319D02*
X112137601Y-111601649D01*
X119965744Y-97956319D02*
X119975744Y-97966319D01*
X112862354Y-97956319D02*
X119965744Y-97956319D01*
X105642354Y-99204519D02*
X105642354Y-111896319D01*
X112137601Y-111601649D02*
X112137601Y-98681072D01*
G04 #@! TO.N,GPIO0_19*
X128082354Y-87316319D02*
X119262356Y-87316319D01*
X119262356Y-87316319D02*
X119262354Y-87316317D01*
G04 #@! TO.N,GPIO0_6*
X130072354Y-97396319D02*
X131002354Y-97396319D01*
X126702354Y-97396319D02*
X130072354Y-97396319D01*
X125376154Y-96070119D02*
X126702354Y-97396319D01*
X121938554Y-96070119D02*
X125376154Y-96070119D01*
X112592354Y-97396319D02*
X120612354Y-97396319D01*
X111672354Y-89447519D02*
X111672354Y-96476319D01*
X104236553Y-97068720D02*
X105032354Y-96272919D01*
X106534754Y-88450119D02*
X110674954Y-88450119D01*
X102636553Y-97068720D02*
X104236553Y-97068720D01*
X111672354Y-96476319D02*
X112592354Y-97396319D01*
X105032354Y-96272919D02*
X105032354Y-89952519D01*
X120612354Y-97396319D02*
X121938554Y-96070119D01*
X110674954Y-88450119D02*
X111672354Y-89447519D01*
X105032354Y-89952519D02*
X106534754Y-88450119D01*
G04 #@! TO.N,GPIO0_21*
X117752354Y-87906319D02*
X117742354Y-87916319D01*
X127622354Y-87906319D02*
X117752354Y-87906319D01*
G04 #@! TO.N,GPIO0_7*
X103876553Y-95798720D02*
X102636553Y-95798720D01*
X104301554Y-95373719D02*
X103876553Y-95798720D01*
X104352354Y-95322919D02*
X104301554Y-95373719D01*
X104352354Y-89736319D02*
X104352354Y-95322919D01*
X113152354Y-96866319D02*
X112262354Y-95976319D01*
X112262354Y-95976319D02*
X112262354Y-89351719D01*
X106121154Y-87967519D02*
X104352354Y-89736319D01*
X112262354Y-89351719D02*
X110878154Y-87967519D01*
X120334954Y-96866319D02*
X113152354Y-96866319D01*
X110878154Y-87967519D02*
X106121154Y-87967519D01*
G04 #@! TO.N,GPIO0_24*
X132382600Y-96316319D02*
X131805569Y-96316319D01*
X111339954Y-87103919D02*
X105290154Y-87103919D01*
X131805569Y-96316319D02*
X130522354Y-95033104D01*
X127089753Y-89608920D02*
X113844955Y-89608920D01*
X127562754Y-89135919D02*
X127089753Y-89608920D01*
X99933754Y-99603719D02*
X101361552Y-99603719D01*
X99372354Y-99042319D02*
X99933754Y-99603719D01*
X130522354Y-95033104D02*
X130522354Y-90716319D01*
X130522354Y-90716319D02*
X128941954Y-89135919D01*
X128941954Y-89135919D02*
X127562754Y-89135919D01*
X113844955Y-89608920D02*
X111339954Y-87103919D01*
X105290154Y-87103919D02*
X99372354Y-93021719D01*
X99372354Y-93021719D02*
X99372354Y-99042319D01*
X101361552Y-99603719D02*
X101366553Y-99608720D01*
G04 #@! TD*
M02*
