G04 #@! TF.GenerationSoftware,KiCad,Pcbnew,5.0.2+dfsg1-1*
G04 #@! TF.CreationDate,2020-09-10T20:55:01-07:00*
G04 #@! TF.ProjectId,chronopy,6368726f-6e6f-4707-992e-6b696361645f,rev?*
G04 #@! TF.SameCoordinates,Original*
G04 #@! TF.FileFunction,Copper,L1,Top*
G04 #@! TF.FilePolarity,Positive*
%FSLAX46Y46*%
G04 Gerber Fmt 4.6, Leading zero omitted, Abs format (unit mm)*
G04 Created by KiCad (PCBNEW 5.0.2+dfsg1-1) date Thu 10 Sep 2020 08:55:01 PM PDT*
%MOMM*%
%LPD*%
G01*
G04 APERTURE LIST*
G04 #@! TA.AperFunction,ComponentPad*
%ADD10C,1.450000*%
G04 #@! TD*
G04 #@! TA.AperFunction,ComponentPad*
%ADD11O,1.200000X1.900000*%
G04 #@! TD*
G04 #@! TA.AperFunction,SMDPad,CuDef*
%ADD12R,0.718820X0.599440*%
G04 #@! TD*
G04 #@! TA.AperFunction,WasherPad*
%ADD13C,1.200000*%
G04 #@! TD*
G04 #@! TA.AperFunction,SMDPad,CuDef*
%ADD14R,0.500000X0.500000*%
G04 #@! TD*
G04 #@! TA.AperFunction,SMDPad,CuDef*
%ADD15R,1.600000X1.400000*%
G04 #@! TD*
G04 #@! TA.AperFunction,ViaPad*
%ADD16C,0.508000*%
G04 #@! TD*
G04 #@! TA.AperFunction,Conductor*
%ADD17C,0.152400*%
G04 #@! TD*
G04 #@! TA.AperFunction,Conductor*
%ADD18C,0.254000*%
G04 #@! TD*
G04 APERTURE END LIST*
D10*
G04 #@! TO.P,J1,6*
G04 #@! TO.N,GND*
X119575000Y-80137500D03*
X124575000Y-80137500D03*
D11*
X118575000Y-77437500D03*
X125575000Y-77437500D03*
G04 #@! TD*
D12*
G04 #@! TO.P,U7,1*
G04 #@! TO.N,IIC_SDA*
X118645920Y-115861700D03*
G04 #@! TO.P,U7,2*
G04 #@! TO.N,GES_INT*
X119616200Y-115861700D03*
G04 #@! TO.P,U7,3*
G04 #@! TO.N,Net-(U7-Pad3)*
X120581400Y-115861700D03*
G04 #@! TO.P,U7,4*
X121551680Y-115861700D03*
G04 #@! TO.P,U7,5*
G04 #@! TO.N,+3V0*
X121551680Y-117258700D03*
G04 #@! TO.P,U7,6*
G04 #@! TO.N,GND*
X120581400Y-117258700D03*
G04 #@! TO.P,U7,7*
G04 #@! TO.N,IIC_SCL*
X119616200Y-117258700D03*
G04 #@! TO.P,U7,8*
G04 #@! TO.N,Net-(C13-Pad1)*
X118645920Y-117258700D03*
G04 #@! TD*
D13*
G04 #@! TO.P,MIC1,*
G04 #@! TO.N,*
X139250400Y-104825400D03*
G04 #@! TD*
D14*
G04 #@! TO.P,U6,1*
G04 #@! TO.N,GND*
X140602800Y-108451400D03*
G04 #@! TO.P,U6,2*
G04 #@! TO.N,Net-(R15-Pad1)*
X140602800Y-109251400D03*
G04 #@! TO.P,U6,3*
G04 #@! TO.N,IIC_SDA*
X140602800Y-110051400D03*
G04 #@! TO.P,U6,4*
G04 #@! TO.N,IIC_SCL*
X140602800Y-110851400D03*
G04 #@! TO.P,U6,5*
G04 #@! TO.N,Net-(R16-Pad1)*
X138202800Y-110871400D03*
G04 #@! TO.P,U6,6*
G04 #@! TO.N,+3V0*
X138202800Y-110051400D03*
G04 #@! TO.P,U6,7*
G04 #@! TO.N,GND*
X138202800Y-109251400D03*
G04 #@! TO.P,U6,8*
G04 #@! TO.N,+3V0*
X138202800Y-108451400D03*
G04 #@! TD*
D15*
G04 #@! TO.P,SW1,2*
G04 #@! TO.N,GND*
X127522400Y-117958600D03*
X134722400Y-117958600D03*
G04 #@! TO.P,SW1,1*
G04 #@! TO.N,SW_A*
X127522400Y-114958600D03*
X134722400Y-114958600D03*
G04 #@! TD*
G04 #@! TO.P,SW2,1*
G04 #@! TO.N,SW_B*
X112446600Y-114984000D03*
X105246600Y-114984000D03*
G04 #@! TO.P,SW2,2*
G04 #@! TO.N,GND*
X112446600Y-117984000D03*
X105246600Y-117984000D03*
G04 #@! TD*
G04 #@! TO.P,SW3,2*
G04 #@! TO.N,GND*
X105246600Y-80050000D03*
X112446600Y-80050000D03*
G04 #@! TO.P,SW3,1*
G04 #@! TO.N,SW_C*
X105246600Y-77050000D03*
X112446600Y-77050000D03*
G04 #@! TD*
G04 #@! TO.P,SW4,1*
G04 #@! TO.N,SW_D*
X134722400Y-77050000D03*
X127522400Y-77050000D03*
G04 #@! TO.P,SW4,2*
G04 #@! TO.N,GND*
X134722400Y-80050000D03*
X127522400Y-80050000D03*
G04 #@! TD*
D16*
G04 #@! TO.N,+BATT*
X126825000Y-84000000D03*
X124025000Y-83675000D03*
G04 #@! TO.N,CHGSTAT*
X110175000Y-81025000D03*
X108925000Y-86100000D03*
X111950000Y-86800000D03*
X114925000Y-90150000D03*
X123900000Y-91400000D03*
X126900000Y-89500000D03*
G04 #@! TO.N,GND*
X129334994Y-106230000D03*
X130535000Y-106250000D03*
X103835000Y-111920000D03*
X115095000Y-77040000D03*
X122285000Y-100740000D03*
X138025000Y-104820000D03*
X140475000Y-104830000D03*
X139245000Y-103600000D03*
X139245000Y-106057400D03*
X137375000Y-111780000D03*
X115145000Y-116900000D03*
X117075000Y-113640000D03*
X115787600Y-113640000D03*
X114305000Y-113080000D03*
X114295000Y-112440000D03*
X111655000Y-109380000D03*
X111655000Y-110370000D03*
X111655000Y-111370000D03*
X111635000Y-112800000D03*
X124985000Y-118000000D03*
X126025000Y-116260000D03*
X126025000Y-114110000D03*
X140615000Y-107550000D03*
X140245000Y-90350000D03*
X122385000Y-102250000D03*
X122785000Y-99750000D03*
X122345000Y-99250000D03*
X122765000Y-98750000D03*
X122355000Y-98240000D03*
X122775000Y-97740000D03*
X122375000Y-97240000D03*
X122815000Y-96730000D03*
X122375000Y-96240000D03*
X122795879Y-95741043D03*
X122379524Y-92242470D03*
X136845000Y-91700000D03*
X136195000Y-95200000D03*
X136205000Y-98500000D03*
X136845000Y-101930000D03*
X135745000Y-101940000D03*
X134655000Y-101940000D03*
X128055000Y-101960000D03*
X129625000Y-99590000D03*
X130525000Y-95750000D03*
X128045000Y-91769800D03*
X116455000Y-87650000D03*
X116995000Y-84820000D03*
X111070000Y-79415000D03*
X110210000Y-79425000D03*
X111070000Y-78645000D03*
X110200000Y-78655000D03*
X108220000Y-79305000D03*
X112215000Y-85500000D03*
X111205000Y-85520000D03*
X110235000Y-85520000D03*
X111070800Y-80314000D03*
X118600000Y-108000000D03*
X103775000Y-80175000D03*
X103775000Y-80875000D03*
X103200000Y-80500000D03*
X128125000Y-85600000D03*
X131935000Y-89275000D03*
G04 #@! TO.N,SW_B*
X125205000Y-99040000D03*
X112425000Y-113810000D03*
G04 #@! TO.N,SW_A*
X134735000Y-113730000D03*
G04 #@! TO.N,+3V0*
X137475000Y-110040000D03*
X137465000Y-108440000D03*
X122505000Y-117240000D03*
X107800000Y-83175000D03*
X107800000Y-81025000D03*
G04 #@! TO.N,LCD_DC*
X122370238Y-95236107D03*
X130970000Y-96316400D03*
G04 #@! TO.N,LCD_CLK*
X122805344Y-94739304D03*
X126042400Y-94360600D03*
G04 #@! TO.N,LCD_MOSI*
X122816600Y-92737540D03*
X128633200Y-89534600D03*
G04 #@! TO.N,LCD_RST*
X122385234Y-93237595D03*
X129141200Y-90195000D03*
G04 #@! TO.N,LCD_CS*
X122374640Y-94238680D03*
X129725400Y-91287200D03*
G04 #@! TO.N,LCD_TE*
X122814589Y-93739377D03*
X130258800Y-90779200D03*
G04 #@! TO.N,QSPI_CLK*
X133545000Y-81920000D03*
X132445000Y-94920000D03*
G04 #@! TO.N,QSPI_DIO0*
X132275000Y-81910000D03*
X131355000Y-94930000D03*
G04 #@! TO.N,~RESET*
X134125000Y-89680000D03*
X139125000Y-89250000D03*
G04 #@! TO.N,QSPI_DIO3*
X134815000Y-81920000D03*
X133555000Y-94920000D03*
G04 #@! TO.N,ACC_INT*
X132445000Y-98790000D03*
X119175000Y-111860000D03*
G04 #@! TO.N,GES_INT*
X119605000Y-115000000D03*
G04 #@! TO.N,ACC_AG_NT*
X118735000Y-112470000D03*
X133555000Y-98790000D03*
G04 #@! TO.N,IIC_SCL*
X114985000Y-115379100D03*
X125805000Y-98480000D03*
X132075000Y-110470000D03*
X115285000Y-108820000D03*
G04 #@! TO.N,IIC_SDA*
X116546700Y-115861700D03*
X126415000Y-97410000D03*
X133365000Y-110480000D03*
X116645000Y-108780000D03*
G04 #@! TO.N,Net-(C13-Pad1)*
X117745000Y-117260000D03*
G04 #@! TO.N,Net-(R16-Pad1)*
X137375000Y-110890000D03*
G04 #@! TO.N,Net-(R15-Pad1)*
X139945000Y-109250000D03*
G04 #@! TO.N,Net-(U3-Pad60)*
X135450000Y-94975000D03*
G04 #@! TO.N,SW_C*
X107075000Y-77050000D03*
X118275000Y-88425000D03*
X127100000Y-88425000D03*
X120900000Y-88425000D03*
G04 #@! TO.N,SW_D*
X136195000Y-77030000D03*
X135150000Y-91075000D03*
X134650000Y-94975000D03*
G04 #@! TO.N,BATVSENSE*
X131900000Y-95575000D03*
X129075000Y-83850000D03*
X130600000Y-85400000D03*
X131900000Y-91025000D03*
G04 #@! TD*
D17*
G04 #@! TO.N,+BATT*
X126825000Y-84000000D02*
X124350000Y-84000000D01*
X124350000Y-84000000D02*
X124025000Y-83675000D01*
G04 #@! TO.N,CHGSTAT*
X110175000Y-81025000D02*
X108925000Y-82275000D01*
X108925000Y-82275000D02*
X108925000Y-86100000D01*
X111950000Y-86800000D02*
X111950000Y-88050000D01*
X111950000Y-88050000D02*
X113250000Y-89350000D01*
X114125000Y-89350000D02*
X114925000Y-90150000D01*
X113250000Y-89350000D02*
X114125000Y-89350000D01*
X124975000Y-91400000D02*
X123900000Y-91400000D01*
X126900000Y-89500000D02*
X126875000Y-89500000D01*
X126875000Y-89500000D02*
X124975000Y-91400000D01*
G04 #@! TO.N,GND*
X140602800Y-107562200D02*
X140615000Y-107550000D01*
X140602800Y-108451400D02*
X140602800Y-107562200D01*
G04 #@! TO.N,SW_B*
X125205000Y-99040000D02*
X125195000Y-99050000D01*
X125195000Y-99050000D02*
X125195000Y-102650000D01*
X125195000Y-102650000D02*
X124775000Y-103070000D01*
X124775000Y-103070000D02*
X113835000Y-103070000D01*
X113835000Y-103070000D02*
X112425000Y-104480000D01*
X112425000Y-104480000D02*
X112425000Y-113810000D01*
X112446600Y-113831600D02*
X112425000Y-113810000D01*
X112446600Y-114984000D02*
X112446600Y-113831600D01*
X105246600Y-114984000D02*
X112446600Y-114984000D01*
G04 #@! TO.N,SW_A*
X134722400Y-114958600D02*
X133770000Y-114958600D01*
X133770000Y-114958600D02*
X127522400Y-114958600D01*
X134735000Y-113730000D02*
X134735000Y-114946000D01*
X134735000Y-114946000D02*
X134722400Y-114958600D01*
G04 #@! TO.N,+3V0*
X137486400Y-110051400D02*
X137475000Y-110040000D01*
X138202800Y-110051400D02*
X137486400Y-110051400D01*
X137476400Y-108451400D02*
X137465000Y-108440000D01*
X138202800Y-108451400D02*
X137476400Y-108451400D01*
X122486300Y-117258700D02*
X122505000Y-117240000D01*
X121551680Y-117258700D02*
X122486300Y-117258700D01*
X107800000Y-83175000D02*
X107800000Y-81025000D01*
G04 #@! TO.N,LCD_DC*
X122371031Y-95236900D02*
X127147300Y-95236900D01*
X122370238Y-95236107D02*
X122371031Y-95236900D01*
X127147300Y-95236900D02*
X128226800Y-96316400D01*
X128226800Y-96316400D02*
X130970000Y-96316400D01*
G04 #@! TO.N,LCD_CLK*
X124901696Y-94739304D02*
X125280400Y-94360600D01*
X122805344Y-94739304D02*
X124901696Y-94739304D01*
X125280400Y-94360600D02*
X126042400Y-94360600D01*
G04 #@! TO.N,LCD_MOSI*
X124407460Y-92737540D02*
X127610400Y-89534600D01*
X122816600Y-92737540D02*
X124407460Y-92737540D01*
X127610400Y-89534600D02*
X128273990Y-89534600D01*
X128273990Y-89534600D02*
X128633200Y-89534600D01*
G04 #@! TO.N,LCD_RST*
X124587405Y-93237595D02*
X127630000Y-90195000D01*
X122385234Y-93237595D02*
X124587405Y-93237595D01*
X127630000Y-90195000D02*
X129141200Y-90195000D01*
G04 #@! TO.N,LCD_CS*
X124741920Y-94238680D02*
X127693400Y-91287200D01*
X122374640Y-94238680D02*
X124741920Y-94238680D01*
X127693400Y-91287200D02*
X129366190Y-91287200D01*
X129366190Y-91287200D02*
X129725400Y-91287200D01*
G04 #@! TO.N,LCD_TE*
X124705623Y-93739377D02*
X127665800Y-90779200D01*
X122814589Y-93739377D02*
X124705623Y-93739377D01*
X127665800Y-90779200D02*
X130258800Y-90779200D01*
G04 #@! TO.N,QSPI_CLK*
X132445000Y-84830000D02*
X133545000Y-83730000D01*
X132445000Y-94920000D02*
X132445000Y-84830000D01*
X133545000Y-83730000D02*
X133545000Y-82210000D01*
X133545000Y-82210000D02*
X133545000Y-81920000D01*
G04 #@! TO.N,QSPI_DIO0*
X132275000Y-83530000D02*
X132275000Y-82200000D01*
X131355000Y-84450000D02*
X132275000Y-83530000D01*
X131355000Y-94930000D02*
X131355000Y-84450000D01*
X132275000Y-82200000D02*
X132275000Y-81910000D01*
G04 #@! TO.N,~RESET*
X138948999Y-89426001D02*
X139125000Y-89250000D01*
X134125000Y-89680000D02*
X135030000Y-88775000D01*
X138650000Y-88775000D02*
X139125000Y-89250000D01*
X135030000Y-88775000D02*
X138650000Y-88775000D01*
G04 #@! TO.N,QSPI_DIO3*
X134815000Y-83980000D02*
X134815000Y-82210000D01*
X133555000Y-85240000D02*
X134815000Y-83980000D01*
X133555000Y-94920000D02*
X133555000Y-85240000D01*
X134815000Y-82210000D02*
X134815000Y-81920000D01*
G04 #@! TO.N,ACC_INT*
X132145000Y-107900000D02*
X132445000Y-107600000D01*
X122225000Y-111590000D02*
X122225000Y-108710000D01*
X123035000Y-107900000D02*
X132145000Y-107900000D01*
X121955000Y-111860000D02*
X122225000Y-111590000D01*
X122225000Y-108710000D02*
X123035000Y-107900000D01*
X132445000Y-107600000D02*
X132445000Y-105800000D01*
X119175000Y-111860000D02*
X121955000Y-111860000D01*
X132445000Y-105800000D02*
X132445000Y-98790000D01*
G04 #@! TO.N,GES_INT*
X119616200Y-115011200D02*
X119605000Y-115000000D01*
X119616200Y-115861700D02*
X119616200Y-115011200D01*
G04 #@! TO.N,ACC_AG_NT*
X122745000Y-112030000D02*
X122305000Y-112470000D01*
X122745000Y-108960000D02*
X122745000Y-112030000D01*
X123385000Y-108320000D02*
X122745000Y-108960000D01*
X132505000Y-108320000D02*
X123385000Y-108320000D01*
X119094210Y-112470000D02*
X118735000Y-112470000D01*
X133555000Y-98790000D02*
X133555000Y-107270000D01*
X133555000Y-107270000D02*
X132505000Y-108320000D01*
X122305000Y-112470000D02*
X119094210Y-112470000D01*
G04 #@! TO.N,IIC_SCL*
X114985000Y-115379100D02*
X114985000Y-115490000D01*
X114985000Y-114385000D02*
X114985000Y-115379100D01*
X123715000Y-109700000D02*
X124215000Y-109200000D01*
X123715000Y-115470000D02*
X123715000Y-109700000D01*
X131635000Y-109200000D02*
X132075000Y-109640000D01*
X122625000Y-116560000D02*
X123715000Y-115470000D01*
X119862780Y-116560000D02*
X122625000Y-116560000D01*
X119616200Y-117258700D02*
X119616200Y-116806580D01*
X119616200Y-116806580D02*
X119862780Y-116560000D01*
X124215000Y-109200000D02*
X131635000Y-109200000D01*
X132075000Y-109640000D02*
X132075000Y-110470000D01*
X140602800Y-112262200D02*
X140075000Y-112790000D01*
X140602800Y-110851400D02*
X140602800Y-112262200D01*
X140075000Y-112790000D02*
X133585000Y-112790000D01*
X133585000Y-112790000D02*
X132945000Y-112150000D01*
X132945000Y-112150000D02*
X132945000Y-111340000D01*
X132945000Y-111340000D02*
X132075000Y-110470000D01*
X125805000Y-103070000D02*
X125805000Y-98839210D01*
X116275000Y-104610000D02*
X117295000Y-103590000D01*
X125285000Y-103590000D02*
X125805000Y-103070000D01*
X117295000Y-103590000D02*
X125285000Y-103590000D01*
X115285000Y-108820000D02*
X116275000Y-107830000D01*
X116275000Y-107830000D02*
X116275000Y-104610000D01*
X125805000Y-98839210D02*
X125805000Y-98480000D01*
X115285000Y-108820000D02*
X114985000Y-109120000D01*
X114985000Y-115490000D02*
X117675000Y-118180000D01*
X117675000Y-118180000D02*
X119385000Y-118180000D01*
X119385000Y-118180000D02*
X119616200Y-117948800D01*
X119616200Y-117948800D02*
X119616200Y-117258700D01*
X114985000Y-109120000D02*
X114985000Y-114385000D01*
G04 #@! TO.N,IIC_SDA*
X116546700Y-115861700D02*
X115289810Y-114604810D01*
X118645920Y-115861700D02*
X116546700Y-115861700D01*
X115289810Y-114604810D02*
X115289810Y-110135190D01*
X115289810Y-110135190D02*
X116645000Y-108780000D01*
X123295000Y-109450000D02*
X123925000Y-108820000D01*
X123925000Y-108820000D02*
X132475000Y-108820000D01*
X123295000Y-113950000D02*
X123295000Y-109450000D01*
X118645920Y-115861700D02*
X118645920Y-114769080D01*
X122795000Y-114450000D02*
X123295000Y-113950000D01*
X118965000Y-114450000D02*
X122795000Y-114450000D01*
X118645920Y-114769080D02*
X118965000Y-114450000D01*
X132475000Y-108820000D02*
X133365000Y-109710000D01*
X133365000Y-109710000D02*
X133365000Y-110480000D01*
X139925000Y-110180000D02*
X140053600Y-110051400D01*
X139925000Y-112060000D02*
X139925000Y-110180000D01*
X139585000Y-112400000D02*
X139925000Y-112060000D01*
X133915000Y-112400000D02*
X139585000Y-112400000D01*
X133365000Y-110480000D02*
X133365000Y-111850000D01*
X133365000Y-111850000D02*
X133915000Y-112400000D01*
X140053600Y-110051400D02*
X140602800Y-110051400D01*
X116645000Y-104830000D02*
X117495000Y-103980000D01*
X116645000Y-108780000D02*
X116645000Y-104830000D01*
X117495000Y-103980000D02*
X125575000Y-103980000D01*
X125575000Y-103980000D02*
X126415000Y-103140000D01*
X126415000Y-103140000D02*
X126415000Y-97769210D01*
X126415000Y-97769210D02*
X126415000Y-97410000D01*
G04 #@! TO.N,Net-(C13-Pad1)*
X117746300Y-117258700D02*
X117745000Y-117260000D01*
X118645920Y-117258700D02*
X117746300Y-117258700D01*
G04 #@! TO.N,Net-(R16-Pad1)*
X137393600Y-110871400D02*
X137375000Y-110890000D01*
X138202800Y-110871400D02*
X137393600Y-110871400D01*
G04 #@! TO.N,Net-(R15-Pad1)*
X139945000Y-109250000D02*
X140601400Y-109250000D01*
X140601400Y-109250000D02*
X140602800Y-109251400D01*
D18*
G04 #@! TO.N,Net-(U7-Pad3)*
X120581400Y-115233600D02*
X120715000Y-115100000D01*
X120581400Y-115861700D02*
X120581400Y-115233600D01*
X120715000Y-115100000D02*
X121415000Y-115100000D01*
X121415000Y-115100000D02*
X121551680Y-115236680D01*
X121551680Y-115236680D02*
X121551680Y-115861700D01*
D17*
G04 #@! TO.N,SW_C*
X114135000Y-77050000D02*
X114950000Y-77865000D01*
X112446600Y-77050000D02*
X114135000Y-77050000D01*
X114950000Y-77865000D02*
X114950000Y-82500000D01*
X114950000Y-87625000D02*
X115750000Y-88425000D01*
X114950000Y-82500000D02*
X114950000Y-83250000D01*
X114950000Y-82500000D02*
X114950000Y-87625000D01*
X112446600Y-77050000D02*
X112446600Y-77446600D01*
X105246600Y-77050000D02*
X107075000Y-77050000D01*
X107075000Y-77050000D02*
X112446600Y-77050000D01*
X115750000Y-88425000D02*
X117350000Y-88425000D01*
X120900000Y-88425000D02*
X123205000Y-88425000D01*
X123205000Y-88425000D02*
X127100000Y-88425000D01*
X117350000Y-88425000D02*
X118275000Y-88425000D01*
G04 #@! TO.N,SW_D*
X134722400Y-77050000D02*
X136175000Y-77050000D01*
X136175000Y-77050000D02*
X136195000Y-77030000D01*
X127522400Y-77050000D02*
X134722400Y-77050000D01*
X134650000Y-94975000D02*
X134650000Y-91575000D01*
X134650000Y-91575000D02*
X135150000Y-91075000D01*
G04 #@! TO.N,BATVSENSE*
X131900000Y-95575000D02*
X131900000Y-91025000D01*
X129075000Y-83850000D02*
X130600000Y-85375000D01*
X130600000Y-85375000D02*
X130600000Y-85400000D01*
G04 #@! TD*
G04 #@! TO.N,GND*
G36*
X104213522Y-76350000D02*
X104213522Y-77750000D01*
X104231264Y-77839195D01*
X104281789Y-77914811D01*
X104357405Y-77965336D01*
X104446600Y-77983078D01*
X106046600Y-77983078D01*
X106135795Y-77965336D01*
X106211411Y-77914811D01*
X106261936Y-77839195D01*
X106279678Y-77750000D01*
X106279678Y-77354800D01*
X106697300Y-77354800D01*
X106801629Y-77459129D01*
X106979005Y-77532600D01*
X107170995Y-77532600D01*
X107348371Y-77459129D01*
X107452700Y-77354800D01*
X111413522Y-77354800D01*
X111413522Y-77750000D01*
X111431264Y-77839195D01*
X111481789Y-77914811D01*
X111557405Y-77965336D01*
X111646600Y-77983078D01*
X113246600Y-77983078D01*
X113335795Y-77965336D01*
X113411411Y-77914811D01*
X113461936Y-77839195D01*
X113479678Y-77750000D01*
X113479678Y-77354800D01*
X114008748Y-77354800D01*
X114645200Y-77991253D01*
X114645201Y-82469978D01*
X114645200Y-82469983D01*
X114645201Y-87594981D01*
X114639230Y-87625000D01*
X114662885Y-87743926D01*
X114713248Y-87819300D01*
X114713251Y-87819303D01*
X114730253Y-87844748D01*
X114755698Y-87861750D01*
X115513250Y-88619303D01*
X115530252Y-88644748D01*
X115555697Y-88661750D01*
X115555699Y-88661752D01*
X115610504Y-88698371D01*
X115631073Y-88712115D01*
X115719982Y-88729800D01*
X115719985Y-88729800D01*
X115750000Y-88735770D01*
X115780014Y-88729800D01*
X117897300Y-88729800D01*
X118001629Y-88834129D01*
X118179005Y-88907600D01*
X118370995Y-88907600D01*
X118548371Y-88834129D01*
X118684129Y-88698371D01*
X118757600Y-88520995D01*
X118757600Y-88329005D01*
X120417400Y-88329005D01*
X120417400Y-88520995D01*
X120490871Y-88698371D01*
X120626629Y-88834129D01*
X120804005Y-88907600D01*
X120995995Y-88907600D01*
X121173371Y-88834129D01*
X121277700Y-88729800D01*
X126722300Y-88729800D01*
X126826629Y-88834129D01*
X127004005Y-88907600D01*
X127195995Y-88907600D01*
X127373371Y-88834129D01*
X127509129Y-88698371D01*
X127582600Y-88520995D01*
X127582600Y-88329005D01*
X127509129Y-88151629D01*
X127373371Y-88015871D01*
X127195995Y-87942400D01*
X127004005Y-87942400D01*
X126826629Y-88015871D01*
X126722300Y-88120200D01*
X121277700Y-88120200D01*
X121173371Y-88015871D01*
X120995995Y-87942400D01*
X120804005Y-87942400D01*
X120626629Y-88015871D01*
X120490871Y-88151629D01*
X120417400Y-88329005D01*
X118757600Y-88329005D01*
X118684129Y-88151629D01*
X118548371Y-88015871D01*
X118370995Y-87942400D01*
X118179005Y-87942400D01*
X118001629Y-88015871D01*
X117897300Y-88120200D01*
X115876253Y-88120200D01*
X115254800Y-87498748D01*
X115254800Y-83579005D01*
X123542400Y-83579005D01*
X123542400Y-83770995D01*
X123615871Y-83948371D01*
X123751629Y-84084129D01*
X123929005Y-84157600D01*
X124076548Y-84157600D01*
X124113248Y-84194300D01*
X124130252Y-84219748D01*
X124231073Y-84287115D01*
X124319982Y-84304800D01*
X124319986Y-84304800D01*
X124349999Y-84310770D01*
X124380012Y-84304800D01*
X126447300Y-84304800D01*
X126551629Y-84409129D01*
X126729005Y-84482600D01*
X126920995Y-84482600D01*
X127098371Y-84409129D01*
X127234129Y-84273371D01*
X127307600Y-84095995D01*
X127307600Y-83904005D01*
X127245469Y-83754005D01*
X128592400Y-83754005D01*
X128592400Y-83945995D01*
X128665871Y-84123371D01*
X128801629Y-84259129D01*
X128979005Y-84332600D01*
X129126548Y-84332600D01*
X130117400Y-85323452D01*
X130117400Y-85495995D01*
X130190871Y-85673371D01*
X130326629Y-85809129D01*
X130504005Y-85882600D01*
X130695995Y-85882600D01*
X130873371Y-85809129D01*
X131009129Y-85673371D01*
X131050201Y-85574214D01*
X131050200Y-94552300D01*
X130945871Y-94656629D01*
X130872400Y-94834005D01*
X130872400Y-95025995D01*
X130945871Y-95203371D01*
X131081629Y-95339129D01*
X131259005Y-95412600D01*
X131444906Y-95412600D01*
X131417400Y-95479005D01*
X131417400Y-95670995D01*
X131490871Y-95848371D01*
X131626629Y-95984129D01*
X131804005Y-96057600D01*
X131995995Y-96057600D01*
X132173371Y-95984129D01*
X132309129Y-95848371D01*
X132382600Y-95670995D01*
X132382600Y-95479005D01*
X132350952Y-95402600D01*
X132540995Y-95402600D01*
X132718371Y-95329129D01*
X132854129Y-95193371D01*
X132927600Y-95015995D01*
X132927600Y-94824005D01*
X133072400Y-94824005D01*
X133072400Y-95015995D01*
X133145871Y-95193371D01*
X133281629Y-95329129D01*
X133459005Y-95402600D01*
X133650995Y-95402600D01*
X133828371Y-95329129D01*
X133964129Y-95193371D01*
X134037600Y-95015995D01*
X134037600Y-94879005D01*
X134167400Y-94879005D01*
X134167400Y-95070995D01*
X134240871Y-95248371D01*
X134376629Y-95384129D01*
X134554005Y-95457600D01*
X134745995Y-95457600D01*
X134923371Y-95384129D01*
X135050000Y-95257500D01*
X135176629Y-95384129D01*
X135354005Y-95457600D01*
X135545995Y-95457600D01*
X135723371Y-95384129D01*
X135859129Y-95248371D01*
X135932600Y-95070995D01*
X135932600Y-94879005D01*
X135859129Y-94701629D01*
X135723371Y-94565871D01*
X135545995Y-94492400D01*
X135354005Y-94492400D01*
X135176629Y-94565871D01*
X135050000Y-94692500D01*
X134954800Y-94597300D01*
X134954800Y-91701252D01*
X135098452Y-91557600D01*
X135245995Y-91557600D01*
X135423371Y-91484129D01*
X135559129Y-91348371D01*
X135632600Y-91170995D01*
X135632600Y-90979005D01*
X135559129Y-90801629D01*
X135423371Y-90665871D01*
X135245995Y-90592400D01*
X135054005Y-90592400D01*
X134876629Y-90665871D01*
X134740871Y-90801629D01*
X134667400Y-90979005D01*
X134667400Y-91126548D01*
X134455698Y-91338250D01*
X134430253Y-91355252D01*
X134413251Y-91380697D01*
X134413248Y-91380700D01*
X134362885Y-91456074D01*
X134339230Y-91575000D01*
X134345201Y-91605019D01*
X134345200Y-94597300D01*
X134240871Y-94701629D01*
X134167400Y-94879005D01*
X134037600Y-94879005D01*
X134037600Y-94824005D01*
X133964129Y-94646629D01*
X133859800Y-94542300D01*
X133859800Y-90092514D01*
X134029005Y-90162600D01*
X134220995Y-90162600D01*
X134398371Y-90089129D01*
X134534129Y-89953371D01*
X134607600Y-89775995D01*
X134607600Y-89628452D01*
X135156252Y-89079800D01*
X138523748Y-89079800D01*
X138642400Y-89198452D01*
X138642400Y-89345995D01*
X138650333Y-89365147D01*
X138638229Y-89426001D01*
X138661884Y-89544927D01*
X138729251Y-89645749D01*
X138830073Y-89713116D01*
X138948999Y-89736771D01*
X139009853Y-89724667D01*
X139029005Y-89732600D01*
X139220995Y-89732600D01*
X139398371Y-89659129D01*
X139534129Y-89523371D01*
X139607600Y-89345995D01*
X139607600Y-89154005D01*
X139534129Y-88976629D01*
X139398371Y-88840871D01*
X139220995Y-88767400D01*
X139073452Y-88767400D01*
X138886752Y-88580700D01*
X138869748Y-88555252D01*
X138768927Y-88487885D01*
X138680018Y-88470200D01*
X138680014Y-88470200D01*
X138650000Y-88464230D01*
X138619986Y-88470200D01*
X135060012Y-88470200D01*
X135029999Y-88464230D01*
X134999986Y-88470200D01*
X134999982Y-88470200D01*
X134911073Y-88487885D01*
X134810252Y-88555252D01*
X134793248Y-88580700D01*
X134176548Y-89197400D01*
X134029005Y-89197400D01*
X133859800Y-89267486D01*
X133859800Y-85366252D01*
X135009304Y-84216749D01*
X135034748Y-84199748D01*
X135051750Y-84174303D01*
X135051752Y-84174301D01*
X135075186Y-84139229D01*
X135102115Y-84098927D01*
X135119800Y-84010018D01*
X135119800Y-84010014D01*
X135125770Y-83980001D01*
X135119800Y-83949988D01*
X135119800Y-82297700D01*
X135224129Y-82193371D01*
X135297600Y-82015995D01*
X135297600Y-81824005D01*
X135224129Y-81646629D01*
X135088371Y-81510871D01*
X134910995Y-81437400D01*
X134719005Y-81437400D01*
X134541629Y-81510871D01*
X134405871Y-81646629D01*
X134332400Y-81824005D01*
X134332400Y-82015995D01*
X134405871Y-82193371D01*
X134510201Y-82297701D01*
X134510200Y-83853747D01*
X133360698Y-85003250D01*
X133335253Y-85020252D01*
X133318251Y-85045697D01*
X133318248Y-85045700D01*
X133267885Y-85121074D01*
X133244230Y-85240000D01*
X133250201Y-85270019D01*
X133250200Y-94542300D01*
X133145871Y-94646629D01*
X133072400Y-94824005D01*
X132927600Y-94824005D01*
X132854129Y-94646629D01*
X132749800Y-94542300D01*
X132749800Y-84956252D01*
X133739304Y-83966749D01*
X133764748Y-83949748D01*
X133781750Y-83924303D01*
X133781752Y-83924301D01*
X133832115Y-83848927D01*
X133838443Y-83817115D01*
X133849800Y-83760018D01*
X133849800Y-83760015D01*
X133855770Y-83730000D01*
X133849800Y-83699986D01*
X133849800Y-82297700D01*
X133954129Y-82193371D01*
X134027600Y-82015995D01*
X134027600Y-81824005D01*
X133954129Y-81646629D01*
X133818371Y-81510871D01*
X133640995Y-81437400D01*
X133449005Y-81437400D01*
X133271629Y-81510871D01*
X133135871Y-81646629D01*
X133062400Y-81824005D01*
X133062400Y-82015995D01*
X133135871Y-82193371D01*
X133240201Y-82297701D01*
X133240200Y-83603747D01*
X132250698Y-84593250D01*
X132225253Y-84610252D01*
X132208251Y-84635697D01*
X132208248Y-84635700D01*
X132157885Y-84711074D01*
X132134230Y-84830000D01*
X132140201Y-84860019D01*
X132140200Y-90602131D01*
X131995995Y-90542400D01*
X131804005Y-90542400D01*
X131659800Y-90602131D01*
X131659800Y-84576252D01*
X132469301Y-83766751D01*
X132494748Y-83749748D01*
X132562115Y-83648927D01*
X132579800Y-83560018D01*
X132579800Y-83560014D01*
X132585770Y-83530001D01*
X132579800Y-83499988D01*
X132579800Y-82287700D01*
X132684129Y-82183371D01*
X132757600Y-82005995D01*
X132757600Y-81814005D01*
X132684129Y-81636629D01*
X132548371Y-81500871D01*
X132370995Y-81427400D01*
X132179005Y-81427400D01*
X132001629Y-81500871D01*
X131865871Y-81636629D01*
X131792400Y-81814005D01*
X131792400Y-82005995D01*
X131865871Y-82183371D01*
X131970201Y-82287701D01*
X131970200Y-83403748D01*
X131160698Y-84213250D01*
X131135253Y-84230252D01*
X131118251Y-84255697D01*
X131118248Y-84255700D01*
X131067885Y-84331074D01*
X131044230Y-84450000D01*
X131050201Y-84480019D01*
X131050201Y-85225786D01*
X131009129Y-85126629D01*
X130873371Y-84990871D01*
X130695995Y-84917400D01*
X130573452Y-84917400D01*
X129557600Y-83901548D01*
X129557600Y-83754005D01*
X129484129Y-83576629D01*
X129348371Y-83440871D01*
X129170995Y-83367400D01*
X128979005Y-83367400D01*
X128801629Y-83440871D01*
X128665871Y-83576629D01*
X128592400Y-83754005D01*
X127245469Y-83754005D01*
X127234129Y-83726629D01*
X127098371Y-83590871D01*
X126920995Y-83517400D01*
X126729005Y-83517400D01*
X126551629Y-83590871D01*
X126447300Y-83695200D01*
X124507600Y-83695200D01*
X124507600Y-83579005D01*
X124434129Y-83401629D01*
X124298371Y-83265871D01*
X124120995Y-83192400D01*
X123929005Y-83192400D01*
X123751629Y-83265871D01*
X123615871Y-83401629D01*
X123542400Y-83579005D01*
X115254800Y-83579005D01*
X115254800Y-80819519D01*
X118964823Y-80819519D01*
X119045386Y-80952878D01*
X119397732Y-81093485D01*
X119777065Y-81088552D01*
X120104614Y-80952878D01*
X120185177Y-80819519D01*
X123964823Y-80819519D01*
X124045386Y-80952878D01*
X124397732Y-81093485D01*
X124777065Y-81088552D01*
X125104614Y-80952878D01*
X125185177Y-80819519D01*
X124575000Y-80209342D01*
X123964823Y-80819519D01*
X120185177Y-80819519D01*
X119575000Y-80209342D01*
X118964823Y-80819519D01*
X115254800Y-80819519D01*
X115254800Y-79960232D01*
X118619015Y-79960232D01*
X118623948Y-80339565D01*
X118759622Y-80667114D01*
X118892981Y-80747677D01*
X119503158Y-80137500D01*
X119646842Y-80137500D01*
X120257019Y-80747677D01*
X120390378Y-80667114D01*
X120530985Y-80314768D01*
X120526375Y-79960232D01*
X123619015Y-79960232D01*
X123623948Y-80339565D01*
X123759622Y-80667114D01*
X123892981Y-80747677D01*
X124503158Y-80137500D01*
X124646842Y-80137500D01*
X125257019Y-80747677D01*
X125390378Y-80667114D01*
X125530985Y-80314768D01*
X125528946Y-80157950D01*
X126493800Y-80157950D01*
X126493800Y-80795472D01*
X126528603Y-80879492D01*
X126592909Y-80943798D01*
X126676929Y-80978600D01*
X127414450Y-80978600D01*
X127471600Y-80921450D01*
X127471600Y-80100800D01*
X127573200Y-80100800D01*
X127573200Y-80921450D01*
X127630350Y-80978600D01*
X128367871Y-80978600D01*
X128451891Y-80943798D01*
X128516197Y-80879492D01*
X128551000Y-80795472D01*
X128551000Y-80157950D01*
X133693800Y-80157950D01*
X133693800Y-80795472D01*
X133728603Y-80879492D01*
X133792909Y-80943798D01*
X133876929Y-80978600D01*
X134614450Y-80978600D01*
X134671600Y-80921450D01*
X134671600Y-80100800D01*
X134773200Y-80100800D01*
X134773200Y-80921450D01*
X134830350Y-80978600D01*
X135567871Y-80978600D01*
X135651891Y-80943798D01*
X135716197Y-80879492D01*
X135751000Y-80795472D01*
X135751000Y-80157950D01*
X135693850Y-80100800D01*
X134773200Y-80100800D01*
X134671600Y-80100800D01*
X133750950Y-80100800D01*
X133693800Y-80157950D01*
X128551000Y-80157950D01*
X128493850Y-80100800D01*
X127573200Y-80100800D01*
X127471600Y-80100800D01*
X126550950Y-80100800D01*
X126493800Y-80157950D01*
X125528946Y-80157950D01*
X125526052Y-79935435D01*
X125390378Y-79607886D01*
X125257019Y-79527323D01*
X124646842Y-80137500D01*
X124503158Y-80137500D01*
X123892981Y-79527323D01*
X123759622Y-79607886D01*
X123619015Y-79960232D01*
X120526375Y-79960232D01*
X120526052Y-79935435D01*
X120390378Y-79607886D01*
X120257019Y-79527323D01*
X119646842Y-80137500D01*
X119503158Y-80137500D01*
X118892981Y-79527323D01*
X118759622Y-79607886D01*
X118619015Y-79960232D01*
X115254800Y-79960232D01*
X115254800Y-79455481D01*
X118964823Y-79455481D01*
X119575000Y-80065658D01*
X120185177Y-79455481D01*
X123964823Y-79455481D01*
X124575000Y-80065658D01*
X125185177Y-79455481D01*
X125104614Y-79322122D01*
X125060526Y-79304528D01*
X126493800Y-79304528D01*
X126493800Y-79942050D01*
X126550950Y-79999200D01*
X127471600Y-79999200D01*
X127471600Y-79178550D01*
X127573200Y-79178550D01*
X127573200Y-79999200D01*
X128493850Y-79999200D01*
X128551000Y-79942050D01*
X128551000Y-79304528D01*
X133693800Y-79304528D01*
X133693800Y-79942050D01*
X133750950Y-79999200D01*
X134671600Y-79999200D01*
X134671600Y-79178550D01*
X134773200Y-79178550D01*
X134773200Y-79999200D01*
X135693850Y-79999200D01*
X135751000Y-79942050D01*
X135751000Y-79304528D01*
X135716197Y-79220508D01*
X135651891Y-79156202D01*
X135567871Y-79121400D01*
X134830350Y-79121400D01*
X134773200Y-79178550D01*
X134671600Y-79178550D01*
X134614450Y-79121400D01*
X133876929Y-79121400D01*
X133792909Y-79156202D01*
X133728603Y-79220508D01*
X133693800Y-79304528D01*
X128551000Y-79304528D01*
X128516197Y-79220508D01*
X128451891Y-79156202D01*
X128367871Y-79121400D01*
X127630350Y-79121400D01*
X127573200Y-79178550D01*
X127471600Y-79178550D01*
X127414450Y-79121400D01*
X126676929Y-79121400D01*
X126592909Y-79156202D01*
X126528603Y-79220508D01*
X126493800Y-79304528D01*
X125060526Y-79304528D01*
X124752268Y-79181515D01*
X124372935Y-79186448D01*
X124045386Y-79322122D01*
X123964823Y-79455481D01*
X120185177Y-79455481D01*
X120104614Y-79322122D01*
X119752268Y-79181515D01*
X119372935Y-79186448D01*
X119045386Y-79322122D01*
X118964823Y-79455481D01*
X115254800Y-79455481D01*
X115254800Y-77895014D01*
X115260770Y-77864999D01*
X115254800Y-77834983D01*
X115254800Y-77834982D01*
X115237115Y-77746073D01*
X115228485Y-77733157D01*
X115186752Y-77670699D01*
X115186750Y-77670697D01*
X115169748Y-77645252D01*
X115144304Y-77628251D01*
X115004353Y-77488300D01*
X117746400Y-77488300D01*
X117746400Y-77838300D01*
X117828914Y-78151525D01*
X118025013Y-78409330D01*
X118304842Y-78572467D01*
X118395448Y-78596412D01*
X118524200Y-78557276D01*
X118524200Y-77488300D01*
X118625800Y-77488300D01*
X118625800Y-78557276D01*
X118754552Y-78596412D01*
X118845158Y-78572467D01*
X119124987Y-78409330D01*
X119321086Y-78151525D01*
X119403600Y-77838300D01*
X119403600Y-77488300D01*
X124746400Y-77488300D01*
X124746400Y-77838300D01*
X124828914Y-78151525D01*
X125025013Y-78409330D01*
X125304842Y-78572467D01*
X125395448Y-78596412D01*
X125524200Y-78557276D01*
X125524200Y-77488300D01*
X125625800Y-77488300D01*
X125625800Y-78557276D01*
X125754552Y-78596412D01*
X125845158Y-78572467D01*
X126124987Y-78409330D01*
X126183692Y-78332152D01*
X136803120Y-78332152D01*
X136803120Y-79178008D01*
X137126814Y-79959476D01*
X137724924Y-80557586D01*
X138506392Y-80881280D01*
X139352248Y-80881280D01*
X139395173Y-80863500D01*
X139395428Y-80863500D01*
X140176896Y-80539806D01*
X140775006Y-79941696D01*
X141098700Y-79160228D01*
X141098700Y-78314372D01*
X140775006Y-77532904D01*
X140176896Y-76934794D01*
X139395428Y-76611100D01*
X138549572Y-76611100D01*
X138506647Y-76628880D01*
X138506392Y-76628880D01*
X137724924Y-76952574D01*
X137126814Y-77550684D01*
X136803120Y-78332152D01*
X126183692Y-78332152D01*
X126321086Y-78151525D01*
X126403600Y-77838300D01*
X126403600Y-77488300D01*
X125625800Y-77488300D01*
X125524200Y-77488300D01*
X124746400Y-77488300D01*
X119403600Y-77488300D01*
X118625800Y-77488300D01*
X118524200Y-77488300D01*
X117746400Y-77488300D01*
X115004353Y-77488300D01*
X114371752Y-76855700D01*
X114354748Y-76830252D01*
X114253927Y-76762885D01*
X114165018Y-76745200D01*
X114165014Y-76745200D01*
X114135000Y-76739230D01*
X114104986Y-76745200D01*
X113479678Y-76745200D01*
X113479678Y-76350000D01*
X113466740Y-76284957D01*
X118371348Y-76284957D01*
X118304842Y-76302533D01*
X118025013Y-76465670D01*
X117828914Y-76723475D01*
X117746400Y-77036700D01*
X117746400Y-77386700D01*
X118524200Y-77386700D01*
X118524200Y-77366700D01*
X118625800Y-77366700D01*
X118625800Y-77386700D01*
X119403600Y-77386700D01*
X119403600Y-77036700D01*
X119321086Y-76723475D01*
X119124987Y-76465670D01*
X118845158Y-76302533D01*
X118778652Y-76284957D01*
X125371348Y-76284957D01*
X125304842Y-76302533D01*
X125025013Y-76465670D01*
X124828914Y-76723475D01*
X124746400Y-77036700D01*
X124746400Y-77386700D01*
X125524200Y-77386700D01*
X125524200Y-77366700D01*
X125625800Y-77366700D01*
X125625800Y-77386700D01*
X126403600Y-77386700D01*
X126403600Y-77036700D01*
X126321086Y-76723475D01*
X126124987Y-76465670D01*
X125845158Y-76302533D01*
X125778652Y-76284957D01*
X126502260Y-76284957D01*
X126489322Y-76350000D01*
X126489322Y-77750000D01*
X126507064Y-77839195D01*
X126557589Y-77914811D01*
X126633205Y-77965336D01*
X126722400Y-77983078D01*
X128322400Y-77983078D01*
X128411595Y-77965336D01*
X128487211Y-77914811D01*
X128537736Y-77839195D01*
X128555478Y-77750000D01*
X128555478Y-77354800D01*
X133689322Y-77354800D01*
X133689322Y-77750000D01*
X133707064Y-77839195D01*
X133757589Y-77914811D01*
X133833205Y-77965336D01*
X133922400Y-77983078D01*
X135522400Y-77983078D01*
X135611595Y-77965336D01*
X135687211Y-77914811D01*
X135737736Y-77839195D01*
X135755478Y-77750000D01*
X135755478Y-77354800D01*
X135837300Y-77354800D01*
X135921629Y-77439129D01*
X136099005Y-77512600D01*
X136290995Y-77512600D01*
X136468371Y-77439129D01*
X136604129Y-77303371D01*
X136677600Y-77125995D01*
X136677600Y-76934005D01*
X136604129Y-76756629D01*
X136468371Y-76620871D01*
X136290995Y-76547400D01*
X136099005Y-76547400D01*
X135921629Y-76620871D01*
X135797300Y-76745200D01*
X135755478Y-76745200D01*
X135755478Y-76350000D01*
X135742540Y-76284957D01*
X138612565Y-76284957D01*
X138906486Y-76299700D01*
X139184467Y-76341885D01*
X139452369Y-76410442D01*
X139708968Y-76503997D01*
X139952994Y-76621200D01*
X140183094Y-76760694D01*
X140397895Y-76921116D01*
X140595969Y-77101062D01*
X140775924Y-77299148D01*
X140936334Y-77513935D01*
X141075826Y-77744034D01*
X141193028Y-77988057D01*
X141286584Y-78244659D01*
X141355140Y-78512563D01*
X141397325Y-78790539D01*
X141412069Y-79084482D01*
X141412069Y-91663800D01*
X137095000Y-91663800D01*
X137065840Y-91669600D01*
X137041118Y-91686118D01*
X137024600Y-91710840D01*
X137018800Y-91740000D01*
X137018800Y-101970000D01*
X137024600Y-101999160D01*
X137041118Y-102023882D01*
X137065840Y-102040400D01*
X137095000Y-102046200D01*
X141412068Y-102046200D01*
X141412068Y-115927699D01*
X141397325Y-116221623D01*
X141355139Y-116499623D01*
X141286582Y-116767553D01*
X141193024Y-117024192D01*
X141075816Y-117268265D01*
X140936318Y-117498413D01*
X140775902Y-117713248D01*
X140595944Y-117911380D01*
X140397862Y-118091378D01*
X140183066Y-118251838D01*
X139952967Y-118391371D01*
X139708945Y-118508609D01*
X139452342Y-118602194D01*
X139184447Y-118670772D01*
X138906487Y-118712969D01*
X138612565Y-118727719D01*
X135741205Y-118727719D01*
X135751000Y-118704072D01*
X135751000Y-118066550D01*
X135693850Y-118009400D01*
X134773200Y-118009400D01*
X134773200Y-118029400D01*
X134671600Y-118029400D01*
X134671600Y-118009400D01*
X133750950Y-118009400D01*
X133693800Y-118066550D01*
X133693800Y-118704072D01*
X133703595Y-118727719D01*
X128541205Y-118727719D01*
X128551000Y-118704072D01*
X128551000Y-118066550D01*
X128493850Y-118009400D01*
X127573200Y-118009400D01*
X127573200Y-118029400D01*
X127471600Y-118029400D01*
X127471600Y-118009400D01*
X126550950Y-118009400D01*
X126493800Y-118066550D01*
X126493800Y-118704072D01*
X126503595Y-118727719D01*
X113475200Y-118727719D01*
X113475200Y-118091950D01*
X113418050Y-118034800D01*
X112497400Y-118034800D01*
X112497400Y-118054800D01*
X112395800Y-118054800D01*
X112395800Y-118034800D01*
X111475150Y-118034800D01*
X111418000Y-118091950D01*
X111418000Y-118727719D01*
X106275200Y-118727719D01*
X106275200Y-118091950D01*
X106218050Y-118034800D01*
X105297400Y-118034800D01*
X105297400Y-118054800D01*
X105195800Y-118054800D01*
X105195800Y-118034800D01*
X104275150Y-118034800D01*
X104218000Y-118091950D01*
X104218000Y-118727719D01*
X101769325Y-118727719D01*
X101475401Y-118712969D01*
X101197421Y-118670772D01*
X100929502Y-118602194D01*
X100672864Y-118508607D01*
X100428795Y-118391365D01*
X100198646Y-118251826D01*
X99983807Y-118091367D01*
X99785670Y-117911359D01*
X99605668Y-117713227D01*
X99445206Y-117498387D01*
X99305663Y-117268232D01*
X99188424Y-117024170D01*
X99094836Y-116767530D01*
X99026256Y-116499605D01*
X98984059Y-116221624D01*
X98969309Y-115927698D01*
X98969309Y-115830172D01*
X99317800Y-115830172D01*
X99317800Y-116676028D01*
X99641494Y-117457496D01*
X100239604Y-118055606D01*
X101021072Y-118379300D01*
X101866928Y-118379300D01*
X102648396Y-118055606D01*
X103246506Y-117457496D01*
X103337205Y-117238528D01*
X104218000Y-117238528D01*
X104218000Y-117876050D01*
X104275150Y-117933200D01*
X105195800Y-117933200D01*
X105195800Y-117112550D01*
X105297400Y-117112550D01*
X105297400Y-117933200D01*
X106218050Y-117933200D01*
X106275200Y-117876050D01*
X106275200Y-117238528D01*
X111418000Y-117238528D01*
X111418000Y-117876050D01*
X111475150Y-117933200D01*
X112395800Y-117933200D01*
X112395800Y-117112550D01*
X112497400Y-117112550D01*
X112497400Y-117933200D01*
X113418050Y-117933200D01*
X113475200Y-117876050D01*
X113475200Y-117238528D01*
X113440397Y-117154508D01*
X113376091Y-117090202D01*
X113292071Y-117055400D01*
X112554550Y-117055400D01*
X112497400Y-117112550D01*
X112395800Y-117112550D01*
X112338650Y-117055400D01*
X111601129Y-117055400D01*
X111517109Y-117090202D01*
X111452803Y-117154508D01*
X111418000Y-117238528D01*
X106275200Y-117238528D01*
X106240397Y-117154508D01*
X106176091Y-117090202D01*
X106092071Y-117055400D01*
X105354550Y-117055400D01*
X105297400Y-117112550D01*
X105195800Y-117112550D01*
X105138650Y-117055400D01*
X104401129Y-117055400D01*
X104317109Y-117090202D01*
X104252803Y-117154508D01*
X104218000Y-117238528D01*
X103337205Y-117238528D01*
X103570200Y-116676028D01*
X103570200Y-115830172D01*
X103246506Y-115048704D01*
X102648396Y-114450594D01*
X102246202Y-114284000D01*
X104213522Y-114284000D01*
X104213522Y-115684000D01*
X104231264Y-115773195D01*
X104281789Y-115848811D01*
X104357405Y-115899336D01*
X104446600Y-115917078D01*
X106046600Y-115917078D01*
X106135795Y-115899336D01*
X106211411Y-115848811D01*
X106261936Y-115773195D01*
X106279678Y-115684000D01*
X106279678Y-115288800D01*
X111413522Y-115288800D01*
X111413522Y-115684000D01*
X111431264Y-115773195D01*
X111481789Y-115848811D01*
X111557405Y-115899336D01*
X111646600Y-115917078D01*
X113246600Y-115917078D01*
X113335795Y-115899336D01*
X113411411Y-115848811D01*
X113461936Y-115773195D01*
X113479678Y-115684000D01*
X113479678Y-114284000D01*
X113461936Y-114194805D01*
X113411411Y-114119189D01*
X113335795Y-114068664D01*
X113246600Y-114050922D01*
X112847570Y-114050922D01*
X112907600Y-113905995D01*
X112907600Y-113714005D01*
X112834129Y-113536629D01*
X112729800Y-113432300D01*
X112729800Y-104606252D01*
X113961252Y-103374800D01*
X117072213Y-103374800D01*
X117058250Y-103395697D01*
X116080698Y-104373250D01*
X116055253Y-104390252D01*
X116038251Y-104415697D01*
X116038248Y-104415700D01*
X115987885Y-104491074D01*
X115964230Y-104610000D01*
X115970201Y-104640019D01*
X115970200Y-107703748D01*
X115336548Y-108337400D01*
X115189005Y-108337400D01*
X115011629Y-108410871D01*
X114875871Y-108546629D01*
X114802400Y-108724005D01*
X114802400Y-108871548D01*
X114790699Y-108883248D01*
X114765252Y-108900252D01*
X114748249Y-108925699D01*
X114748248Y-108925700D01*
X114725330Y-108960000D01*
X114697885Y-109001074D01*
X114680200Y-109089983D01*
X114680200Y-109089986D01*
X114674230Y-109120000D01*
X114680200Y-109150014D01*
X114680201Y-114354978D01*
X114680200Y-114354983D01*
X114680201Y-115001399D01*
X114575871Y-115105729D01*
X114502400Y-115283105D01*
X114502400Y-115475095D01*
X114575871Y-115652471D01*
X114711629Y-115788229D01*
X114889005Y-115861700D01*
X114925648Y-115861700D01*
X117438248Y-118374300D01*
X117455252Y-118399748D01*
X117556073Y-118467115D01*
X117644982Y-118484800D01*
X117644986Y-118484800D01*
X117674999Y-118490770D01*
X117705012Y-118484800D01*
X119354986Y-118484800D01*
X119385000Y-118490770D01*
X119415014Y-118484800D01*
X119415018Y-118484800D01*
X119503927Y-118467115D01*
X119604748Y-118399748D01*
X119621752Y-118374300D01*
X119810501Y-118185551D01*
X119835948Y-118168548D01*
X119903315Y-118067727D01*
X119921000Y-117978818D01*
X119921000Y-117978814D01*
X119926970Y-117948801D01*
X119921000Y-117918788D01*
X119921000Y-117791498D01*
X119975610Y-117791498D01*
X120064805Y-117773756D01*
X120095302Y-117753379D01*
X120176518Y-117787020D01*
X120473450Y-117787020D01*
X120530600Y-117729870D01*
X120530600Y-117309500D01*
X120510600Y-117309500D01*
X120510600Y-117207900D01*
X120530600Y-117207900D01*
X120530600Y-117187900D01*
X120632200Y-117187900D01*
X120632200Y-117207900D01*
X120652200Y-117207900D01*
X120652200Y-117309500D01*
X120632200Y-117309500D01*
X120632200Y-117729870D01*
X120689350Y-117787020D01*
X120986282Y-117787020D01*
X121070302Y-117752217D01*
X121070517Y-117752002D01*
X121103075Y-117773756D01*
X121192270Y-117791498D01*
X121911090Y-117791498D01*
X122000285Y-117773756D01*
X122075901Y-117723231D01*
X122126426Y-117647615D01*
X122143158Y-117563500D01*
X122146000Y-117563500D01*
X122231629Y-117649129D01*
X122409005Y-117722600D01*
X122600995Y-117722600D01*
X122778371Y-117649129D01*
X122914129Y-117513371D01*
X122987600Y-117335995D01*
X122987600Y-117213128D01*
X126493800Y-117213128D01*
X126493800Y-117850650D01*
X126550950Y-117907800D01*
X127471600Y-117907800D01*
X127471600Y-117087150D01*
X127573200Y-117087150D01*
X127573200Y-117907800D01*
X128493850Y-117907800D01*
X128551000Y-117850650D01*
X128551000Y-117213128D01*
X133693800Y-117213128D01*
X133693800Y-117850650D01*
X133750950Y-117907800D01*
X134671600Y-117907800D01*
X134671600Y-117087150D01*
X134773200Y-117087150D01*
X134773200Y-117907800D01*
X135693850Y-117907800D01*
X135751000Y-117850650D01*
X135751000Y-117213128D01*
X135716197Y-117129108D01*
X135651891Y-117064802D01*
X135567871Y-117030000D01*
X134830350Y-117030000D01*
X134773200Y-117087150D01*
X134671600Y-117087150D01*
X134614450Y-117030000D01*
X133876929Y-117030000D01*
X133792909Y-117064802D01*
X133728603Y-117129108D01*
X133693800Y-117213128D01*
X128551000Y-117213128D01*
X128516197Y-117129108D01*
X128451891Y-117064802D01*
X128367871Y-117030000D01*
X127630350Y-117030000D01*
X127573200Y-117087150D01*
X127471600Y-117087150D01*
X127414450Y-117030000D01*
X126676929Y-117030000D01*
X126592909Y-117064802D01*
X126528603Y-117129108D01*
X126493800Y-117213128D01*
X122987600Y-117213128D01*
X122987600Y-117144005D01*
X122914129Y-116966629D01*
X122778371Y-116830871D01*
X122772115Y-116828280D01*
X122844748Y-116779748D01*
X122861752Y-116754300D01*
X123909304Y-115706749D01*
X123934748Y-115689748D01*
X123951750Y-115664303D01*
X123951752Y-115664301D01*
X124002115Y-115588927D01*
X124004888Y-115574985D01*
X124019800Y-115500018D01*
X124019800Y-115500015D01*
X124025770Y-115470000D01*
X124019800Y-115439985D01*
X124019800Y-114258600D01*
X126489322Y-114258600D01*
X126489322Y-115658600D01*
X126507064Y-115747795D01*
X126557589Y-115823411D01*
X126633205Y-115873936D01*
X126722400Y-115891678D01*
X128322400Y-115891678D01*
X128411595Y-115873936D01*
X128487211Y-115823411D01*
X128537736Y-115747795D01*
X128555478Y-115658600D01*
X128555478Y-115263400D01*
X133689322Y-115263400D01*
X133689322Y-115658600D01*
X133707064Y-115747795D01*
X133757589Y-115823411D01*
X133833205Y-115873936D01*
X133922400Y-115891678D01*
X135522400Y-115891678D01*
X135611595Y-115873936D01*
X135673291Y-115832712D01*
X136815820Y-115832712D01*
X136815820Y-116678568D01*
X137139514Y-117460036D01*
X137737624Y-118058146D01*
X138519092Y-118381840D01*
X139364948Y-118381840D01*
X140146416Y-118058146D01*
X140744526Y-117460036D01*
X141068220Y-116678568D01*
X141068220Y-115832712D01*
X140744526Y-115051244D01*
X140146416Y-114453134D01*
X139364948Y-114129440D01*
X138519092Y-114129440D01*
X137737624Y-114453134D01*
X137139514Y-115051244D01*
X136815820Y-115832712D01*
X135673291Y-115832712D01*
X135687211Y-115823411D01*
X135737736Y-115747795D01*
X135755478Y-115658600D01*
X135755478Y-114258600D01*
X135737736Y-114169405D01*
X135687211Y-114093789D01*
X135611595Y-114043264D01*
X135522400Y-114025522D01*
X135121978Y-114025522D01*
X135144129Y-114003371D01*
X135217600Y-113825995D01*
X135217600Y-113634005D01*
X135144129Y-113456629D01*
X135008371Y-113320871D01*
X134830995Y-113247400D01*
X134639005Y-113247400D01*
X134461629Y-113320871D01*
X134325871Y-113456629D01*
X134252400Y-113634005D01*
X134252400Y-113825995D01*
X134325871Y-114003371D01*
X134348022Y-114025522D01*
X133922400Y-114025522D01*
X133833205Y-114043264D01*
X133757589Y-114093789D01*
X133707064Y-114169405D01*
X133689322Y-114258600D01*
X133689322Y-114653800D01*
X128555478Y-114653800D01*
X128555478Y-114258600D01*
X128537736Y-114169405D01*
X128487211Y-114093789D01*
X128411595Y-114043264D01*
X128322400Y-114025522D01*
X126722400Y-114025522D01*
X126633205Y-114043264D01*
X126557589Y-114093789D01*
X126507064Y-114169405D01*
X126489322Y-114258600D01*
X124019800Y-114258600D01*
X124019800Y-109826252D01*
X124341253Y-109504800D01*
X131508748Y-109504800D01*
X131770200Y-109766253D01*
X131770201Y-110092299D01*
X131665871Y-110196629D01*
X131592400Y-110374005D01*
X131592400Y-110565995D01*
X131665871Y-110743371D01*
X131801629Y-110879129D01*
X131979005Y-110952600D01*
X132126548Y-110952600D01*
X132640201Y-111466254D01*
X132640200Y-112119985D01*
X132634230Y-112150000D01*
X132640200Y-112180014D01*
X132640200Y-112180017D01*
X132657885Y-112268926D01*
X132725252Y-112369748D01*
X132750700Y-112386752D01*
X133348248Y-112984300D01*
X133365252Y-113009748D01*
X133466073Y-113077115D01*
X133554982Y-113094800D01*
X133554985Y-113094800D01*
X133585000Y-113100770D01*
X133615015Y-113094800D01*
X140044986Y-113094800D01*
X140075000Y-113100770D01*
X140105014Y-113094800D01*
X140105018Y-113094800D01*
X140193927Y-113077115D01*
X140294748Y-113009748D01*
X140311752Y-112984300D01*
X140797103Y-112498950D01*
X140822548Y-112481948D01*
X140839550Y-112456503D01*
X140839552Y-112456501D01*
X140889915Y-112381127D01*
X140897942Y-112340771D01*
X140907600Y-112292218D01*
X140907600Y-112292215D01*
X140913570Y-112262200D01*
X140907600Y-112232186D01*
X140907600Y-111323578D01*
X140941995Y-111316736D01*
X141017611Y-111266211D01*
X141068136Y-111190595D01*
X141085878Y-111101400D01*
X141085878Y-110601400D01*
X141068136Y-110512205D01*
X141027507Y-110451400D01*
X141068136Y-110390595D01*
X141085878Y-110301400D01*
X141085878Y-109801400D01*
X141068136Y-109712205D01*
X141027507Y-109651400D01*
X141068136Y-109590595D01*
X141085878Y-109501400D01*
X141085878Y-109001400D01*
X141068136Y-108912205D01*
X141026939Y-108850550D01*
X141046597Y-108830892D01*
X141081400Y-108746872D01*
X141081400Y-108559350D01*
X141024250Y-108502200D01*
X140653600Y-108502200D01*
X140653600Y-108522200D01*
X140552000Y-108522200D01*
X140552000Y-108502200D01*
X140181350Y-108502200D01*
X140124200Y-108559350D01*
X140124200Y-108746872D01*
X140151697Y-108813254D01*
X140040995Y-108767400D01*
X139849005Y-108767400D01*
X139671629Y-108840871D01*
X139535871Y-108976629D01*
X139462400Y-109154005D01*
X139462400Y-109345995D01*
X139535871Y-109523371D01*
X139671629Y-109659129D01*
X139849005Y-109732600D01*
X140040995Y-109732600D01*
X140155538Y-109685155D01*
X140137464Y-109712205D01*
X140130622Y-109746600D01*
X140083614Y-109746600D01*
X140053600Y-109740630D01*
X140023585Y-109746600D01*
X140023582Y-109746600D01*
X139934673Y-109764285D01*
X139833852Y-109831652D01*
X139816848Y-109857100D01*
X139730698Y-109943250D01*
X139705253Y-109960252D01*
X139688251Y-109985697D01*
X139688248Y-109985700D01*
X139637885Y-110061074D01*
X139614230Y-110180000D01*
X139620201Y-110210019D01*
X139620200Y-111933748D01*
X139458748Y-112095200D01*
X134041252Y-112095200D01*
X133669800Y-111723748D01*
X133669800Y-110857700D01*
X133733495Y-110794005D01*
X136892400Y-110794005D01*
X136892400Y-110985995D01*
X136965871Y-111163371D01*
X137101629Y-111299129D01*
X137279005Y-111372600D01*
X137470995Y-111372600D01*
X137648371Y-111299129D01*
X137737371Y-111210129D01*
X137737464Y-111210595D01*
X137787989Y-111286211D01*
X137863605Y-111336736D01*
X137952800Y-111354478D01*
X138452800Y-111354478D01*
X138541995Y-111336736D01*
X138617611Y-111286211D01*
X138668136Y-111210595D01*
X138685878Y-111121400D01*
X138685878Y-110621400D01*
X138668136Y-110532205D01*
X138620826Y-110461400D01*
X138668136Y-110390595D01*
X138685878Y-110301400D01*
X138685878Y-109801400D01*
X138668136Y-109712205D01*
X138626939Y-109650550D01*
X138646597Y-109630892D01*
X138681400Y-109546872D01*
X138681400Y-109359350D01*
X138624250Y-109302200D01*
X138253600Y-109302200D01*
X138253600Y-109322200D01*
X138152000Y-109322200D01*
X138152000Y-109302200D01*
X137781350Y-109302200D01*
X137724200Y-109359350D01*
X137724200Y-109546872D01*
X137759003Y-109630892D01*
X137778661Y-109650550D01*
X137774411Y-109656911D01*
X137748371Y-109630871D01*
X137570995Y-109557400D01*
X137379005Y-109557400D01*
X137201629Y-109630871D01*
X137065871Y-109766629D01*
X136992400Y-109944005D01*
X136992400Y-110135995D01*
X137065871Y-110313371D01*
X137194785Y-110442285D01*
X137101629Y-110480871D01*
X136965871Y-110616629D01*
X136892400Y-110794005D01*
X133733495Y-110794005D01*
X133774129Y-110753371D01*
X133847600Y-110575995D01*
X133847600Y-110384005D01*
X133774129Y-110206629D01*
X133669800Y-110102300D01*
X133669800Y-109740014D01*
X133675770Y-109709999D01*
X133669800Y-109679983D01*
X133669800Y-109679982D01*
X133652115Y-109591073D01*
X133636913Y-109568322D01*
X133601752Y-109515699D01*
X133601750Y-109515697D01*
X133584748Y-109490252D01*
X133559304Y-109473251D01*
X132711752Y-108625700D01*
X132694748Y-108600252D01*
X132664473Y-108580023D01*
X132724748Y-108539748D01*
X132741752Y-108514300D01*
X132912047Y-108344005D01*
X136982400Y-108344005D01*
X136982400Y-108535995D01*
X137055871Y-108713371D01*
X137191629Y-108849129D01*
X137369005Y-108922600D01*
X137560995Y-108922600D01*
X137738371Y-108849129D01*
X137761273Y-108826227D01*
X137778661Y-108852250D01*
X137759003Y-108871908D01*
X137724200Y-108955928D01*
X137724200Y-109143450D01*
X137781350Y-109200600D01*
X138152000Y-109200600D01*
X138152000Y-109180600D01*
X138253600Y-109180600D01*
X138253600Y-109200600D01*
X138624250Y-109200600D01*
X138681400Y-109143450D01*
X138681400Y-108955928D01*
X138646597Y-108871908D01*
X138626939Y-108852250D01*
X138668136Y-108790595D01*
X138685878Y-108701400D01*
X138685878Y-108201400D01*
X138676834Y-108155928D01*
X140124200Y-108155928D01*
X140124200Y-108343450D01*
X140181350Y-108400600D01*
X140552000Y-108400600D01*
X140552000Y-108029950D01*
X140653600Y-108029950D01*
X140653600Y-108400600D01*
X141024250Y-108400600D01*
X141081400Y-108343450D01*
X141081400Y-108155928D01*
X141046597Y-108071908D01*
X140982291Y-108007602D01*
X140898271Y-107972800D01*
X140710750Y-107972800D01*
X140653600Y-108029950D01*
X140552000Y-108029950D01*
X140494850Y-107972800D01*
X140307329Y-107972800D01*
X140223309Y-108007602D01*
X140159003Y-108071908D01*
X140124200Y-108155928D01*
X138676834Y-108155928D01*
X138668136Y-108112205D01*
X138617611Y-108036589D01*
X138541995Y-107986064D01*
X138452800Y-107968322D01*
X137952800Y-107968322D01*
X137863605Y-107986064D01*
X137787989Y-108036589D01*
X137770405Y-108062905D01*
X137738371Y-108030871D01*
X137560995Y-107957400D01*
X137369005Y-107957400D01*
X137191629Y-108030871D01*
X137055871Y-108166629D01*
X136982400Y-108344005D01*
X132912047Y-108344005D01*
X133749300Y-107506752D01*
X133774748Y-107489748D01*
X133842115Y-107388927D01*
X133859800Y-107300018D01*
X133859800Y-107300014D01*
X133865770Y-107270001D01*
X133859800Y-107239988D01*
X133859800Y-104660581D01*
X138421800Y-104660581D01*
X138421800Y-104990219D01*
X138547947Y-105294764D01*
X138781036Y-105527853D01*
X139085581Y-105654000D01*
X139415219Y-105654000D01*
X139719764Y-105527853D01*
X139952853Y-105294764D01*
X140079000Y-104990219D01*
X140079000Y-104660581D01*
X139952853Y-104356036D01*
X139719764Y-104122947D01*
X139415219Y-103996800D01*
X139085581Y-103996800D01*
X138781036Y-104122947D01*
X138547947Y-104356036D01*
X138421800Y-104660581D01*
X133859800Y-104660581D01*
X133859800Y-99167700D01*
X133964129Y-99063371D01*
X134037600Y-98885995D01*
X134037600Y-98694005D01*
X133964129Y-98516629D01*
X133828371Y-98380871D01*
X133650995Y-98307400D01*
X133459005Y-98307400D01*
X133281629Y-98380871D01*
X133145871Y-98516629D01*
X133072400Y-98694005D01*
X133072400Y-98885995D01*
X133145871Y-99063371D01*
X133250200Y-99167700D01*
X133250201Y-107143747D01*
X132746292Y-107647656D01*
X132749800Y-107630018D01*
X132749800Y-107630015D01*
X132755770Y-107600001D01*
X132749800Y-107569986D01*
X132749800Y-99167700D01*
X132854129Y-99063371D01*
X132927600Y-98885995D01*
X132927600Y-98694005D01*
X132854129Y-98516629D01*
X132718371Y-98380871D01*
X132540995Y-98307400D01*
X132349005Y-98307400D01*
X132171629Y-98380871D01*
X132035871Y-98516629D01*
X131962400Y-98694005D01*
X131962400Y-98885995D01*
X132035871Y-99063371D01*
X132140201Y-99167701D01*
X132140200Y-105830017D01*
X132140201Y-105830022D01*
X132140200Y-107473747D01*
X132018748Y-107595200D01*
X123065014Y-107595200D01*
X123035000Y-107589230D01*
X123004985Y-107595200D01*
X123004982Y-107595200D01*
X122916073Y-107612885D01*
X122840699Y-107663248D01*
X122840697Y-107663250D01*
X122815252Y-107680252D01*
X122798250Y-107705697D01*
X122030698Y-108473250D01*
X122005253Y-108490252D01*
X121988251Y-108515697D01*
X121988248Y-108515700D01*
X121937885Y-108591074D01*
X121914230Y-108710000D01*
X121920201Y-108740019D01*
X121920200Y-111463748D01*
X121828748Y-111555200D01*
X119552700Y-111555200D01*
X119448371Y-111450871D01*
X119270995Y-111377400D01*
X119079005Y-111377400D01*
X118901629Y-111450871D01*
X118765871Y-111586629D01*
X118692400Y-111764005D01*
X118692400Y-111955995D01*
X118705408Y-111987400D01*
X118639005Y-111987400D01*
X118461629Y-112060871D01*
X118325871Y-112196629D01*
X118252400Y-112374005D01*
X118252400Y-112565995D01*
X118325871Y-112743371D01*
X118461629Y-112879129D01*
X118639005Y-112952600D01*
X118830995Y-112952600D01*
X119008371Y-112879129D01*
X119112700Y-112774800D01*
X122274986Y-112774800D01*
X122305000Y-112780770D01*
X122335014Y-112774800D01*
X122335018Y-112774800D01*
X122423927Y-112757115D01*
X122524748Y-112689748D01*
X122541752Y-112664300D01*
X122939303Y-112266750D01*
X122964748Y-112249748D01*
X122981750Y-112224303D01*
X122981752Y-112224301D01*
X122990200Y-112211657D01*
X122990200Y-113823747D01*
X122668748Y-114145200D01*
X118995012Y-114145200D01*
X118964999Y-114139230D01*
X118934986Y-114145200D01*
X118934982Y-114145200D01*
X118846073Y-114162885D01*
X118745252Y-114230252D01*
X118728248Y-114255700D01*
X118451618Y-114532330D01*
X118426173Y-114549332D01*
X118409171Y-114574777D01*
X118409168Y-114574780D01*
X118358805Y-114650154D01*
X118335150Y-114769080D01*
X118341121Y-114799099D01*
X118341120Y-115328902D01*
X118286510Y-115328902D01*
X118197315Y-115346644D01*
X118121699Y-115397169D01*
X118071174Y-115472785D01*
X118054442Y-115556900D01*
X116924400Y-115556900D01*
X116820071Y-115452571D01*
X116642695Y-115379100D01*
X116495153Y-115379100D01*
X115594610Y-114478558D01*
X115594610Y-110261442D01*
X116593453Y-109262600D01*
X116740995Y-109262600D01*
X116918371Y-109189129D01*
X117054129Y-109053371D01*
X117127600Y-108875995D01*
X117127600Y-108684005D01*
X117054129Y-108506629D01*
X116949800Y-108402300D01*
X116949800Y-104956252D01*
X117621252Y-104284800D01*
X125544986Y-104284800D01*
X125575000Y-104290770D01*
X125605014Y-104284800D01*
X125605018Y-104284800D01*
X125693927Y-104267115D01*
X125794748Y-104199748D01*
X125811752Y-104174300D01*
X126609301Y-103376751D01*
X126634748Y-103359748D01*
X126702115Y-103258927D01*
X126719800Y-103170018D01*
X126719800Y-103170014D01*
X126725770Y-103140001D01*
X126719800Y-103109988D01*
X126719800Y-97787700D01*
X126824129Y-97683371D01*
X126897600Y-97505995D01*
X126897600Y-97314005D01*
X126824129Y-97136629D01*
X126688371Y-97000871D01*
X126510995Y-96927400D01*
X126319005Y-96927400D01*
X126141629Y-97000871D01*
X126005871Y-97136629D01*
X125932400Y-97314005D01*
X125932400Y-97505995D01*
X126005871Y-97683371D01*
X126110200Y-97787700D01*
X126110200Y-97799227D01*
X126110201Y-97799232D01*
X126110201Y-98102701D01*
X126078371Y-98070871D01*
X125900995Y-97997400D01*
X125709005Y-97997400D01*
X125531629Y-98070871D01*
X125395871Y-98206629D01*
X125322400Y-98384005D01*
X125322400Y-98566266D01*
X125300995Y-98557400D01*
X125109005Y-98557400D01*
X124931629Y-98630871D01*
X124795871Y-98766629D01*
X124722400Y-98944005D01*
X124722400Y-99135995D01*
X124795871Y-99313371D01*
X124890200Y-99407700D01*
X124890201Y-102523746D01*
X124648748Y-102765200D01*
X113865012Y-102765200D01*
X113834999Y-102759230D01*
X113804986Y-102765200D01*
X113804982Y-102765200D01*
X113716073Y-102782885D01*
X113615252Y-102850252D01*
X113598248Y-102875700D01*
X112230700Y-104243248D01*
X112205252Y-104260252D01*
X112188249Y-104285699D01*
X112188248Y-104285700D01*
X112179208Y-104299229D01*
X112137885Y-104361074D01*
X112120200Y-104449983D01*
X112120200Y-104449986D01*
X112114230Y-104480000D01*
X112120200Y-104510014D01*
X112120201Y-113432299D01*
X112015871Y-113536629D01*
X111942400Y-113714005D01*
X111942400Y-113905995D01*
X112002430Y-114050922D01*
X111646600Y-114050922D01*
X111557405Y-114068664D01*
X111481789Y-114119189D01*
X111431264Y-114194805D01*
X111413522Y-114284000D01*
X111413522Y-114679200D01*
X106279678Y-114679200D01*
X106279678Y-114284000D01*
X106261936Y-114194805D01*
X106211411Y-114119189D01*
X106135795Y-114068664D01*
X106046600Y-114050922D01*
X104446600Y-114050922D01*
X104357405Y-114068664D01*
X104281789Y-114119189D01*
X104231264Y-114194805D01*
X104213522Y-114284000D01*
X102246202Y-114284000D01*
X101866928Y-114126900D01*
X101021072Y-114126900D01*
X100239604Y-114450594D01*
X99641494Y-115048704D01*
X99317800Y-115830172D01*
X98969309Y-115830172D01*
X98969309Y-87701806D01*
X106673305Y-87701806D01*
X106674653Y-87715735D01*
X106674652Y-107296432D01*
X106673305Y-107310351D01*
X106674652Y-107323792D01*
X106674652Y-107337311D01*
X106677382Y-107351037D01*
X106683959Y-107416664D01*
X106683812Y-107417158D01*
X106689474Y-107471692D01*
X106692169Y-107498588D01*
X106692316Y-107499069D01*
X106692368Y-107499571D01*
X106700356Y-107525411D01*
X106716357Y-107577836D01*
X106716685Y-107578234D01*
X106722538Y-107597169D01*
X106722537Y-107597182D01*
X106739129Y-107650837D01*
X106747005Y-107676316D01*
X106747010Y-107676326D01*
X106747015Y-107676341D01*
X106762911Y-107705700D01*
X106786449Y-107749182D01*
X106786458Y-107749189D01*
X106820730Y-107812487D01*
X106833498Y-107836247D01*
X106833780Y-107836589D01*
X106833990Y-107836977D01*
X106851132Y-107857637D01*
X106931251Y-107954821D01*
X106948172Y-107975533D01*
X106948653Y-107975930D01*
X106949050Y-107976411D01*
X106969762Y-107993332D01*
X107066946Y-108073451D01*
X107087606Y-108090593D01*
X107087994Y-108090803D01*
X107088336Y-108091085D01*
X107112119Y-108103865D01*
X107175394Y-108138125D01*
X107175401Y-108138134D01*
X107214971Y-108159554D01*
X107248241Y-108177568D01*
X107248259Y-108177573D01*
X107248267Y-108177578D01*
X107269283Y-108184075D01*
X107327400Y-108202046D01*
X107327413Y-108202045D01*
X107346348Y-108207898D01*
X107346746Y-108208226D01*
X107399064Y-108224194D01*
X107425010Y-108232215D01*
X107425515Y-108232267D01*
X107425995Y-108232414D01*
X107452857Y-108235106D01*
X107507425Y-108240771D01*
X107507919Y-108240624D01*
X107573545Y-108247201D01*
X107587271Y-108249931D01*
X107600790Y-108249931D01*
X107614231Y-108251278D01*
X107628150Y-108249931D01*
X110830014Y-108249931D01*
X110843933Y-108251278D01*
X110857374Y-108249931D01*
X110870894Y-108249931D01*
X110884621Y-108247201D01*
X110950246Y-108240624D01*
X110950740Y-108240771D01*
X111005274Y-108235109D01*
X111032170Y-108232414D01*
X111032651Y-108232267D01*
X111033153Y-108232215D01*
X111058993Y-108224227D01*
X111111418Y-108208226D01*
X111111816Y-108207898D01*
X111130751Y-108202045D01*
X111130764Y-108202046D01*
X111186446Y-108184828D01*
X111209898Y-108177578D01*
X111209908Y-108177573D01*
X111209923Y-108177568D01*
X111239590Y-108161505D01*
X111282764Y-108138134D01*
X111282771Y-108138125D01*
X111346069Y-108103853D01*
X111369829Y-108091085D01*
X111370171Y-108090803D01*
X111370559Y-108090593D01*
X111391219Y-108073451D01*
X111488403Y-107993332D01*
X111509115Y-107976411D01*
X111509512Y-107975930D01*
X111509993Y-107975533D01*
X111526914Y-107954821D01*
X111607033Y-107857637D01*
X111624175Y-107836977D01*
X111624385Y-107836589D01*
X111624667Y-107836247D01*
X111637447Y-107812464D01*
X111671707Y-107749189D01*
X111671716Y-107749182D01*
X111695254Y-107705700D01*
X111711150Y-107676342D01*
X111711155Y-107676324D01*
X111711160Y-107676316D01*
X111717657Y-107655300D01*
X111735628Y-107597183D01*
X111735627Y-107597170D01*
X111741480Y-107578235D01*
X111741808Y-107577837D01*
X111757782Y-107525499D01*
X111765797Y-107499573D01*
X111765849Y-107499068D01*
X111765996Y-107498588D01*
X111768688Y-107471726D01*
X111774353Y-107417158D01*
X111774206Y-107416664D01*
X111780783Y-107351038D01*
X111783513Y-107337312D01*
X111783513Y-107323793D01*
X111784860Y-107310352D01*
X111783513Y-107296433D01*
X111783513Y-95140112D01*
X121887638Y-95140112D01*
X121887638Y-95332102D01*
X121961109Y-95509478D01*
X122096867Y-95645236D01*
X122274243Y-95718707D01*
X122466233Y-95718707D01*
X122643609Y-95645236D01*
X122747145Y-95541700D01*
X127021048Y-95541700D01*
X127990048Y-96510700D01*
X128007052Y-96536148D01*
X128107873Y-96603515D01*
X128196782Y-96621200D01*
X128196785Y-96621200D01*
X128226800Y-96627170D01*
X128256815Y-96621200D01*
X130592300Y-96621200D01*
X130696629Y-96725529D01*
X130874005Y-96799000D01*
X131065995Y-96799000D01*
X131243371Y-96725529D01*
X131379129Y-96589771D01*
X131452600Y-96412395D01*
X131452600Y-96220405D01*
X131379129Y-96043029D01*
X131243371Y-95907271D01*
X131065995Y-95833800D01*
X130874005Y-95833800D01*
X130696629Y-95907271D01*
X130592300Y-96011600D01*
X128353052Y-96011600D01*
X127384052Y-95042600D01*
X127367048Y-95017152D01*
X127266227Y-94949785D01*
X127177318Y-94932100D01*
X127177314Y-94932100D01*
X127147300Y-94926130D01*
X127117286Y-94932100D01*
X125139952Y-94932100D01*
X125406652Y-94665400D01*
X125664700Y-94665400D01*
X125769029Y-94769729D01*
X125946405Y-94843200D01*
X126138395Y-94843200D01*
X126315771Y-94769729D01*
X126451529Y-94633971D01*
X126525000Y-94456595D01*
X126525000Y-94264605D01*
X126451529Y-94087229D01*
X126315771Y-93951471D01*
X126138395Y-93878000D01*
X125946405Y-93878000D01*
X125769029Y-93951471D01*
X125664700Y-94055800D01*
X125355852Y-94055800D01*
X127819653Y-91592000D01*
X129347700Y-91592000D01*
X129452029Y-91696329D01*
X129629405Y-91769800D01*
X129821395Y-91769800D01*
X129998771Y-91696329D01*
X130134529Y-91560571D01*
X130208000Y-91383195D01*
X130208000Y-91261800D01*
X130354795Y-91261800D01*
X130532171Y-91188329D01*
X130667929Y-91052571D01*
X130741400Y-90875195D01*
X130741400Y-90683205D01*
X130667929Y-90505829D01*
X130532171Y-90370071D01*
X130354795Y-90296600D01*
X130162805Y-90296600D01*
X129985429Y-90370071D01*
X129881100Y-90474400D01*
X129544300Y-90474400D01*
X129550329Y-90468371D01*
X129623800Y-90290995D01*
X129623800Y-90099005D01*
X129550329Y-89921629D01*
X129414571Y-89785871D01*
X129237195Y-89712400D01*
X129081916Y-89712400D01*
X129115800Y-89630595D01*
X129115800Y-89438605D01*
X129042329Y-89261229D01*
X128906571Y-89125471D01*
X128729195Y-89052000D01*
X128537205Y-89052000D01*
X128359829Y-89125471D01*
X128255500Y-89229800D01*
X127640412Y-89229800D01*
X127610399Y-89223830D01*
X127580386Y-89229800D01*
X127580382Y-89229800D01*
X127491473Y-89247485D01*
X127390652Y-89314852D01*
X127373648Y-89340300D01*
X127361319Y-89352629D01*
X127309129Y-89226629D01*
X127173371Y-89090871D01*
X126995995Y-89017400D01*
X126804005Y-89017400D01*
X126626629Y-89090871D01*
X126490871Y-89226629D01*
X126417400Y-89404005D01*
X126417400Y-89526547D01*
X124848748Y-91095200D01*
X124277700Y-91095200D01*
X124173371Y-90990871D01*
X123995995Y-90917400D01*
X123804005Y-90917400D01*
X123626629Y-90990871D01*
X123490871Y-91126629D01*
X123417400Y-91304005D01*
X123417400Y-91495995D01*
X123490871Y-91673371D01*
X123626629Y-91809129D01*
X123804005Y-91882600D01*
X123995995Y-91882600D01*
X124173371Y-91809129D01*
X124277700Y-91704800D01*
X124944986Y-91704800D01*
X124975000Y-91710770D01*
X125005014Y-91704800D01*
X125005018Y-91704800D01*
X125010173Y-91703775D01*
X124281208Y-92432740D01*
X123194300Y-92432740D01*
X123089971Y-92328411D01*
X122912595Y-92254940D01*
X122720605Y-92254940D01*
X122543229Y-92328411D01*
X122407471Y-92464169D01*
X122334000Y-92641545D01*
X122334000Y-92754995D01*
X122289239Y-92754995D01*
X122111863Y-92828466D01*
X121976105Y-92964224D01*
X121902634Y-93141600D01*
X121902634Y-93333590D01*
X121976105Y-93510966D01*
X122111863Y-93646724D01*
X122289239Y-93720195D01*
X122331989Y-93720195D01*
X122331989Y-93756080D01*
X122278645Y-93756080D01*
X122101269Y-93829551D01*
X121965511Y-93965309D01*
X121892040Y-94142685D01*
X121892040Y-94334675D01*
X121965511Y-94512051D01*
X122101269Y-94647809D01*
X122278645Y-94721280D01*
X122322744Y-94721280D01*
X122322744Y-94753507D01*
X122274243Y-94753507D01*
X122096867Y-94826978D01*
X121961109Y-94962736D01*
X121887638Y-95140112D01*
X111783513Y-95140112D01*
X111783513Y-88314565D01*
X113013248Y-89544300D01*
X113030252Y-89569748D01*
X113131073Y-89637115D01*
X113219982Y-89654800D01*
X113219985Y-89654800D01*
X113250000Y-89660770D01*
X113280015Y-89654800D01*
X113998748Y-89654800D01*
X114442400Y-90098453D01*
X114442400Y-90245995D01*
X114515871Y-90423371D01*
X114651629Y-90559129D01*
X114829005Y-90632600D01*
X115020995Y-90632600D01*
X115198371Y-90559129D01*
X115334129Y-90423371D01*
X115407600Y-90245995D01*
X115407600Y-90054005D01*
X115334129Y-89876629D01*
X115198371Y-89740871D01*
X115020995Y-89667400D01*
X114873453Y-89667400D01*
X114361752Y-89155700D01*
X114344748Y-89130252D01*
X114243927Y-89062885D01*
X114155018Y-89045200D01*
X114155014Y-89045200D01*
X114125000Y-89039230D01*
X114094986Y-89045200D01*
X113376252Y-89045200D01*
X112254800Y-87923748D01*
X112254800Y-87177700D01*
X112359129Y-87073371D01*
X112432600Y-86895995D01*
X112432600Y-86704005D01*
X112359129Y-86526629D01*
X112223371Y-86390871D01*
X112045995Y-86317400D01*
X111854005Y-86317400D01*
X111676629Y-86390871D01*
X111540871Y-86526629D01*
X111467400Y-86704005D01*
X111467400Y-86895995D01*
X111540871Y-87073371D01*
X111645200Y-87177700D01*
X111645200Y-87214012D01*
X111637447Y-87199693D01*
X111624667Y-87175910D01*
X111624385Y-87175568D01*
X111624175Y-87175180D01*
X111607033Y-87154520D01*
X111526923Y-87057347D01*
X111509992Y-87036623D01*
X111509511Y-87036227D01*
X111509115Y-87035746D01*
X111488389Y-87018814D01*
X111391256Y-86938738D01*
X111370560Y-86921566D01*
X111370170Y-86921355D01*
X111369827Y-86921072D01*
X111346112Y-86908329D01*
X111282772Y-86874033D01*
X111282764Y-86874023D01*
X111238022Y-86849803D01*
X111209925Y-86834590D01*
X111209909Y-86834585D01*
X111209898Y-86834579D01*
X111182503Y-86826110D01*
X111130766Y-86810112D01*
X111130754Y-86810113D01*
X111111816Y-86804259D01*
X111111418Y-86803931D01*
X111058993Y-86787930D01*
X111033153Y-86779942D01*
X111032651Y-86779890D01*
X111032170Y-86779743D01*
X111005274Y-86777048D01*
X110950740Y-86771386D01*
X110950246Y-86771533D01*
X110884621Y-86764956D01*
X110870894Y-86762226D01*
X110857374Y-86762226D01*
X110843933Y-86760879D01*
X110830014Y-86762226D01*
X107628150Y-86762226D01*
X107614231Y-86760879D01*
X107600790Y-86762226D01*
X107587271Y-86762226D01*
X107573545Y-86764956D01*
X107507919Y-86771533D01*
X107507425Y-86771386D01*
X107452857Y-86777051D01*
X107425995Y-86779743D01*
X107425515Y-86779890D01*
X107425010Y-86779942D01*
X107399064Y-86787963D01*
X107346746Y-86803931D01*
X107346348Y-86804259D01*
X107327411Y-86810113D01*
X107327398Y-86810112D01*
X107273374Y-86826817D01*
X107248267Y-86834579D01*
X107248257Y-86834584D01*
X107248239Y-86834590D01*
X107215936Y-86852081D01*
X107175401Y-86874023D01*
X107175393Y-86874032D01*
X107112006Y-86908354D01*
X107088338Y-86921072D01*
X107087997Y-86921353D01*
X107087604Y-86921566D01*
X107066804Y-86938825D01*
X106969776Y-87018814D01*
X106949050Y-87035746D01*
X106948654Y-87036227D01*
X106948173Y-87036623D01*
X106931242Y-87057347D01*
X106851132Y-87154520D01*
X106833990Y-87175180D01*
X106833780Y-87175568D01*
X106833498Y-87175910D01*
X106820730Y-87199670D01*
X106786458Y-87262968D01*
X106786449Y-87262975D01*
X106760041Y-87311758D01*
X106747015Y-87335816D01*
X106747012Y-87335827D01*
X106747004Y-87335841D01*
X106737396Y-87366923D01*
X106722537Y-87414975D01*
X106722538Y-87414987D01*
X106716684Y-87433925D01*
X106716357Y-87434322D01*
X106700371Y-87486698D01*
X106692368Y-87512587D01*
X106692316Y-87513089D01*
X106692169Y-87513570D01*
X106689473Y-87540470D01*
X106683812Y-87595000D01*
X106683959Y-87595494D01*
X106677382Y-87661128D01*
X106674653Y-87674845D01*
X106674653Y-87688355D01*
X106673305Y-87701806D01*
X98969309Y-87701806D01*
X98969309Y-86004005D01*
X108442400Y-86004005D01*
X108442400Y-86195995D01*
X108515871Y-86373371D01*
X108651629Y-86509129D01*
X108829005Y-86582600D01*
X109020995Y-86582600D01*
X109198371Y-86509129D01*
X109334129Y-86373371D01*
X109407600Y-86195995D01*
X109407600Y-86004005D01*
X109334129Y-85826629D01*
X109229800Y-85722300D01*
X109229800Y-82401252D01*
X110123453Y-81507600D01*
X110270995Y-81507600D01*
X110448371Y-81434129D01*
X110584129Y-81298371D01*
X110657600Y-81120995D01*
X110657600Y-80929005D01*
X110584129Y-80751629D01*
X110448371Y-80615871D01*
X110270995Y-80542400D01*
X110079005Y-80542400D01*
X109901629Y-80615871D01*
X109765871Y-80751629D01*
X109692400Y-80929005D01*
X109692400Y-81076547D01*
X108730700Y-82038248D01*
X108705252Y-82055252D01*
X108637885Y-82156074D01*
X108620200Y-82244983D01*
X108620200Y-82244986D01*
X108614230Y-82275000D01*
X108620200Y-82305014D01*
X108620201Y-85722299D01*
X108515871Y-85826629D01*
X108442400Y-86004005D01*
X98969309Y-86004005D01*
X98969309Y-79084462D01*
X98984059Y-78790539D01*
X99026256Y-78512579D01*
X99073093Y-78329612D01*
X99310180Y-78329612D01*
X99310180Y-79175468D01*
X99633874Y-79956936D01*
X100231984Y-80555046D01*
X101013452Y-80878740D01*
X101859308Y-80878740D01*
X102640776Y-80555046D01*
X103037872Y-80157950D01*
X104218000Y-80157950D01*
X104218000Y-80795472D01*
X104252803Y-80879492D01*
X104317109Y-80943798D01*
X104401129Y-80978600D01*
X105138650Y-80978600D01*
X105195800Y-80921450D01*
X105195800Y-80100800D01*
X105297400Y-80100800D01*
X105297400Y-80921450D01*
X105354550Y-80978600D01*
X106092071Y-80978600D01*
X106176091Y-80943798D01*
X106190884Y-80929005D01*
X107317400Y-80929005D01*
X107317400Y-81120995D01*
X107390871Y-81298371D01*
X107495201Y-81402701D01*
X107495200Y-82797300D01*
X107390871Y-82901629D01*
X107317400Y-83079005D01*
X107317400Y-83270995D01*
X107390871Y-83448371D01*
X107526629Y-83584129D01*
X107704005Y-83657600D01*
X107895995Y-83657600D01*
X108073371Y-83584129D01*
X108209129Y-83448371D01*
X108282600Y-83270995D01*
X108282600Y-83079005D01*
X108209129Y-82901629D01*
X108104800Y-82797300D01*
X108104800Y-81402700D01*
X108209129Y-81298371D01*
X108282600Y-81120995D01*
X108282600Y-80929005D01*
X108209129Y-80751629D01*
X108073371Y-80615871D01*
X107895995Y-80542400D01*
X107704005Y-80542400D01*
X107526629Y-80615871D01*
X107390871Y-80751629D01*
X107317400Y-80929005D01*
X106190884Y-80929005D01*
X106240397Y-80879492D01*
X106275200Y-80795472D01*
X106275200Y-80157950D01*
X111418000Y-80157950D01*
X111418000Y-80795472D01*
X111452803Y-80879492D01*
X111517109Y-80943798D01*
X111601129Y-80978600D01*
X112338650Y-80978600D01*
X112395800Y-80921450D01*
X112395800Y-80100800D01*
X112497400Y-80100800D01*
X112497400Y-80921450D01*
X112554550Y-80978600D01*
X113292071Y-80978600D01*
X113376091Y-80943798D01*
X113440397Y-80879492D01*
X113475200Y-80795472D01*
X113475200Y-80157950D01*
X113418050Y-80100800D01*
X112497400Y-80100800D01*
X112395800Y-80100800D01*
X111475150Y-80100800D01*
X111418000Y-80157950D01*
X106275200Y-80157950D01*
X106218050Y-80100800D01*
X105297400Y-80100800D01*
X105195800Y-80100800D01*
X104275150Y-80100800D01*
X104218000Y-80157950D01*
X103037872Y-80157950D01*
X103238886Y-79956936D01*
X103509121Y-79304528D01*
X104218000Y-79304528D01*
X104218000Y-79942050D01*
X104275150Y-79999200D01*
X105195800Y-79999200D01*
X105195800Y-79178550D01*
X105297400Y-79178550D01*
X105297400Y-79999200D01*
X106218050Y-79999200D01*
X106275200Y-79942050D01*
X106275200Y-79304528D01*
X111418000Y-79304528D01*
X111418000Y-79942050D01*
X111475150Y-79999200D01*
X112395800Y-79999200D01*
X112395800Y-79178550D01*
X112497400Y-79178550D01*
X112497400Y-79999200D01*
X113418050Y-79999200D01*
X113475200Y-79942050D01*
X113475200Y-79304528D01*
X113440397Y-79220508D01*
X113376091Y-79156202D01*
X113292071Y-79121400D01*
X112554550Y-79121400D01*
X112497400Y-79178550D01*
X112395800Y-79178550D01*
X112338650Y-79121400D01*
X111601129Y-79121400D01*
X111517109Y-79156202D01*
X111452803Y-79220508D01*
X111418000Y-79304528D01*
X106275200Y-79304528D01*
X106240397Y-79220508D01*
X106176091Y-79156202D01*
X106092071Y-79121400D01*
X105354550Y-79121400D01*
X105297400Y-79178550D01*
X105195800Y-79178550D01*
X105138650Y-79121400D01*
X104401129Y-79121400D01*
X104317109Y-79156202D01*
X104252803Y-79220508D01*
X104218000Y-79304528D01*
X103509121Y-79304528D01*
X103562580Y-79175468D01*
X103562580Y-78329612D01*
X103238886Y-77548144D01*
X102640776Y-76950034D01*
X101859308Y-76626340D01*
X101013452Y-76626340D01*
X100231984Y-76950034D01*
X99633874Y-77548144D01*
X99310180Y-78329612D01*
X99073093Y-78329612D01*
X99094834Y-78244684D01*
X99188417Y-77988088D01*
X99305656Y-77744060D01*
X99445191Y-77513958D01*
X99605653Y-77299161D01*
X99785649Y-77101082D01*
X99983779Y-76921124D01*
X100198612Y-76760711D01*
X100428771Y-76621205D01*
X100672829Y-76504004D01*
X100929473Y-76410445D01*
X101197405Y-76341886D01*
X101475403Y-76299701D01*
X101769328Y-76284957D01*
X104226460Y-76284957D01*
X104213522Y-76350000D01*
X104213522Y-76350000D01*
G37*
X104213522Y-76350000D02*
X104213522Y-77750000D01*
X104231264Y-77839195D01*
X104281789Y-77914811D01*
X104357405Y-77965336D01*
X104446600Y-77983078D01*
X106046600Y-77983078D01*
X106135795Y-77965336D01*
X106211411Y-77914811D01*
X106261936Y-77839195D01*
X106279678Y-77750000D01*
X106279678Y-77354800D01*
X106697300Y-77354800D01*
X106801629Y-77459129D01*
X106979005Y-77532600D01*
X107170995Y-77532600D01*
X107348371Y-77459129D01*
X107452700Y-77354800D01*
X111413522Y-77354800D01*
X111413522Y-77750000D01*
X111431264Y-77839195D01*
X111481789Y-77914811D01*
X111557405Y-77965336D01*
X111646600Y-77983078D01*
X113246600Y-77983078D01*
X113335795Y-77965336D01*
X113411411Y-77914811D01*
X113461936Y-77839195D01*
X113479678Y-77750000D01*
X113479678Y-77354800D01*
X114008748Y-77354800D01*
X114645200Y-77991253D01*
X114645201Y-82469978D01*
X114645200Y-82469983D01*
X114645201Y-87594981D01*
X114639230Y-87625000D01*
X114662885Y-87743926D01*
X114713248Y-87819300D01*
X114713251Y-87819303D01*
X114730253Y-87844748D01*
X114755698Y-87861750D01*
X115513250Y-88619303D01*
X115530252Y-88644748D01*
X115555697Y-88661750D01*
X115555699Y-88661752D01*
X115610504Y-88698371D01*
X115631073Y-88712115D01*
X115719982Y-88729800D01*
X115719985Y-88729800D01*
X115750000Y-88735770D01*
X115780014Y-88729800D01*
X117897300Y-88729800D01*
X118001629Y-88834129D01*
X118179005Y-88907600D01*
X118370995Y-88907600D01*
X118548371Y-88834129D01*
X118684129Y-88698371D01*
X118757600Y-88520995D01*
X118757600Y-88329005D01*
X120417400Y-88329005D01*
X120417400Y-88520995D01*
X120490871Y-88698371D01*
X120626629Y-88834129D01*
X120804005Y-88907600D01*
X120995995Y-88907600D01*
X121173371Y-88834129D01*
X121277700Y-88729800D01*
X126722300Y-88729800D01*
X126826629Y-88834129D01*
X127004005Y-88907600D01*
X127195995Y-88907600D01*
X127373371Y-88834129D01*
X127509129Y-88698371D01*
X127582600Y-88520995D01*
X127582600Y-88329005D01*
X127509129Y-88151629D01*
X127373371Y-88015871D01*
X127195995Y-87942400D01*
X127004005Y-87942400D01*
X126826629Y-88015871D01*
X126722300Y-88120200D01*
X121277700Y-88120200D01*
X121173371Y-88015871D01*
X120995995Y-87942400D01*
X120804005Y-87942400D01*
X120626629Y-88015871D01*
X120490871Y-88151629D01*
X120417400Y-88329005D01*
X118757600Y-88329005D01*
X118684129Y-88151629D01*
X118548371Y-88015871D01*
X118370995Y-87942400D01*
X118179005Y-87942400D01*
X118001629Y-88015871D01*
X117897300Y-88120200D01*
X115876253Y-88120200D01*
X115254800Y-87498748D01*
X115254800Y-83579005D01*
X123542400Y-83579005D01*
X123542400Y-83770995D01*
X123615871Y-83948371D01*
X123751629Y-84084129D01*
X123929005Y-84157600D01*
X124076548Y-84157600D01*
X124113248Y-84194300D01*
X124130252Y-84219748D01*
X124231073Y-84287115D01*
X124319982Y-84304800D01*
X124319986Y-84304800D01*
X124349999Y-84310770D01*
X124380012Y-84304800D01*
X126447300Y-84304800D01*
X126551629Y-84409129D01*
X126729005Y-84482600D01*
X126920995Y-84482600D01*
X127098371Y-84409129D01*
X127234129Y-84273371D01*
X127307600Y-84095995D01*
X127307600Y-83904005D01*
X127245469Y-83754005D01*
X128592400Y-83754005D01*
X128592400Y-83945995D01*
X128665871Y-84123371D01*
X128801629Y-84259129D01*
X128979005Y-84332600D01*
X129126548Y-84332600D01*
X130117400Y-85323452D01*
X130117400Y-85495995D01*
X130190871Y-85673371D01*
X130326629Y-85809129D01*
X130504005Y-85882600D01*
X130695995Y-85882600D01*
X130873371Y-85809129D01*
X131009129Y-85673371D01*
X131050201Y-85574214D01*
X131050200Y-94552300D01*
X130945871Y-94656629D01*
X130872400Y-94834005D01*
X130872400Y-95025995D01*
X130945871Y-95203371D01*
X131081629Y-95339129D01*
X131259005Y-95412600D01*
X131444906Y-95412600D01*
X131417400Y-95479005D01*
X131417400Y-95670995D01*
X131490871Y-95848371D01*
X131626629Y-95984129D01*
X131804005Y-96057600D01*
X131995995Y-96057600D01*
X132173371Y-95984129D01*
X132309129Y-95848371D01*
X132382600Y-95670995D01*
X132382600Y-95479005D01*
X132350952Y-95402600D01*
X132540995Y-95402600D01*
X132718371Y-95329129D01*
X132854129Y-95193371D01*
X132927600Y-95015995D01*
X132927600Y-94824005D01*
X133072400Y-94824005D01*
X133072400Y-95015995D01*
X133145871Y-95193371D01*
X133281629Y-95329129D01*
X133459005Y-95402600D01*
X133650995Y-95402600D01*
X133828371Y-95329129D01*
X133964129Y-95193371D01*
X134037600Y-95015995D01*
X134037600Y-94879005D01*
X134167400Y-94879005D01*
X134167400Y-95070995D01*
X134240871Y-95248371D01*
X134376629Y-95384129D01*
X134554005Y-95457600D01*
X134745995Y-95457600D01*
X134923371Y-95384129D01*
X135050000Y-95257500D01*
X135176629Y-95384129D01*
X135354005Y-95457600D01*
X135545995Y-95457600D01*
X135723371Y-95384129D01*
X135859129Y-95248371D01*
X135932600Y-95070995D01*
X135932600Y-94879005D01*
X135859129Y-94701629D01*
X135723371Y-94565871D01*
X135545995Y-94492400D01*
X135354005Y-94492400D01*
X135176629Y-94565871D01*
X135050000Y-94692500D01*
X134954800Y-94597300D01*
X134954800Y-91701252D01*
X135098452Y-91557600D01*
X135245995Y-91557600D01*
X135423371Y-91484129D01*
X135559129Y-91348371D01*
X135632600Y-91170995D01*
X135632600Y-90979005D01*
X135559129Y-90801629D01*
X135423371Y-90665871D01*
X135245995Y-90592400D01*
X135054005Y-90592400D01*
X134876629Y-90665871D01*
X134740871Y-90801629D01*
X134667400Y-90979005D01*
X134667400Y-91126548D01*
X134455698Y-91338250D01*
X134430253Y-91355252D01*
X134413251Y-91380697D01*
X134413248Y-91380700D01*
X134362885Y-91456074D01*
X134339230Y-91575000D01*
X134345201Y-91605019D01*
X134345200Y-94597300D01*
X134240871Y-94701629D01*
X134167400Y-94879005D01*
X134037600Y-94879005D01*
X134037600Y-94824005D01*
X133964129Y-94646629D01*
X133859800Y-94542300D01*
X133859800Y-90092514D01*
X134029005Y-90162600D01*
X134220995Y-90162600D01*
X134398371Y-90089129D01*
X134534129Y-89953371D01*
X134607600Y-89775995D01*
X134607600Y-89628452D01*
X135156252Y-89079800D01*
X138523748Y-89079800D01*
X138642400Y-89198452D01*
X138642400Y-89345995D01*
X138650333Y-89365147D01*
X138638229Y-89426001D01*
X138661884Y-89544927D01*
X138729251Y-89645749D01*
X138830073Y-89713116D01*
X138948999Y-89736771D01*
X139009853Y-89724667D01*
X139029005Y-89732600D01*
X139220995Y-89732600D01*
X139398371Y-89659129D01*
X139534129Y-89523371D01*
X139607600Y-89345995D01*
X139607600Y-89154005D01*
X139534129Y-88976629D01*
X139398371Y-88840871D01*
X139220995Y-88767400D01*
X139073452Y-88767400D01*
X138886752Y-88580700D01*
X138869748Y-88555252D01*
X138768927Y-88487885D01*
X138680018Y-88470200D01*
X138680014Y-88470200D01*
X138650000Y-88464230D01*
X138619986Y-88470200D01*
X135060012Y-88470200D01*
X135029999Y-88464230D01*
X134999986Y-88470200D01*
X134999982Y-88470200D01*
X134911073Y-88487885D01*
X134810252Y-88555252D01*
X134793248Y-88580700D01*
X134176548Y-89197400D01*
X134029005Y-89197400D01*
X133859800Y-89267486D01*
X133859800Y-85366252D01*
X135009304Y-84216749D01*
X135034748Y-84199748D01*
X135051750Y-84174303D01*
X135051752Y-84174301D01*
X135075186Y-84139229D01*
X135102115Y-84098927D01*
X135119800Y-84010018D01*
X135119800Y-84010014D01*
X135125770Y-83980001D01*
X135119800Y-83949988D01*
X135119800Y-82297700D01*
X135224129Y-82193371D01*
X135297600Y-82015995D01*
X135297600Y-81824005D01*
X135224129Y-81646629D01*
X135088371Y-81510871D01*
X134910995Y-81437400D01*
X134719005Y-81437400D01*
X134541629Y-81510871D01*
X134405871Y-81646629D01*
X134332400Y-81824005D01*
X134332400Y-82015995D01*
X134405871Y-82193371D01*
X134510201Y-82297701D01*
X134510200Y-83853747D01*
X133360698Y-85003250D01*
X133335253Y-85020252D01*
X133318251Y-85045697D01*
X133318248Y-85045700D01*
X133267885Y-85121074D01*
X133244230Y-85240000D01*
X133250201Y-85270019D01*
X133250200Y-94542300D01*
X133145871Y-94646629D01*
X133072400Y-94824005D01*
X132927600Y-94824005D01*
X132854129Y-94646629D01*
X132749800Y-94542300D01*
X132749800Y-84956252D01*
X133739304Y-83966749D01*
X133764748Y-83949748D01*
X133781750Y-83924303D01*
X133781752Y-83924301D01*
X133832115Y-83848927D01*
X133838443Y-83817115D01*
X133849800Y-83760018D01*
X133849800Y-83760015D01*
X133855770Y-83730000D01*
X133849800Y-83699986D01*
X133849800Y-82297700D01*
X133954129Y-82193371D01*
X134027600Y-82015995D01*
X134027600Y-81824005D01*
X133954129Y-81646629D01*
X133818371Y-81510871D01*
X133640995Y-81437400D01*
X133449005Y-81437400D01*
X133271629Y-81510871D01*
X133135871Y-81646629D01*
X133062400Y-81824005D01*
X133062400Y-82015995D01*
X133135871Y-82193371D01*
X133240201Y-82297701D01*
X133240200Y-83603747D01*
X132250698Y-84593250D01*
X132225253Y-84610252D01*
X132208251Y-84635697D01*
X132208248Y-84635700D01*
X132157885Y-84711074D01*
X132134230Y-84830000D01*
X132140201Y-84860019D01*
X132140200Y-90602131D01*
X131995995Y-90542400D01*
X131804005Y-90542400D01*
X131659800Y-90602131D01*
X131659800Y-84576252D01*
X132469301Y-83766751D01*
X132494748Y-83749748D01*
X132562115Y-83648927D01*
X132579800Y-83560018D01*
X132579800Y-83560014D01*
X132585770Y-83530001D01*
X132579800Y-83499988D01*
X132579800Y-82287700D01*
X132684129Y-82183371D01*
X132757600Y-82005995D01*
X132757600Y-81814005D01*
X132684129Y-81636629D01*
X132548371Y-81500871D01*
X132370995Y-81427400D01*
X132179005Y-81427400D01*
X132001629Y-81500871D01*
X131865871Y-81636629D01*
X131792400Y-81814005D01*
X131792400Y-82005995D01*
X131865871Y-82183371D01*
X131970201Y-82287701D01*
X131970200Y-83403748D01*
X131160698Y-84213250D01*
X131135253Y-84230252D01*
X131118251Y-84255697D01*
X131118248Y-84255700D01*
X131067885Y-84331074D01*
X131044230Y-84450000D01*
X131050201Y-84480019D01*
X131050201Y-85225786D01*
X131009129Y-85126629D01*
X130873371Y-84990871D01*
X130695995Y-84917400D01*
X130573452Y-84917400D01*
X129557600Y-83901548D01*
X129557600Y-83754005D01*
X129484129Y-83576629D01*
X129348371Y-83440871D01*
X129170995Y-83367400D01*
X128979005Y-83367400D01*
X128801629Y-83440871D01*
X128665871Y-83576629D01*
X128592400Y-83754005D01*
X127245469Y-83754005D01*
X127234129Y-83726629D01*
X127098371Y-83590871D01*
X126920995Y-83517400D01*
X126729005Y-83517400D01*
X126551629Y-83590871D01*
X126447300Y-83695200D01*
X124507600Y-83695200D01*
X124507600Y-83579005D01*
X124434129Y-83401629D01*
X124298371Y-83265871D01*
X124120995Y-83192400D01*
X123929005Y-83192400D01*
X123751629Y-83265871D01*
X123615871Y-83401629D01*
X123542400Y-83579005D01*
X115254800Y-83579005D01*
X115254800Y-80819519D01*
X118964823Y-80819519D01*
X119045386Y-80952878D01*
X119397732Y-81093485D01*
X119777065Y-81088552D01*
X120104614Y-80952878D01*
X120185177Y-80819519D01*
X123964823Y-80819519D01*
X124045386Y-80952878D01*
X124397732Y-81093485D01*
X124777065Y-81088552D01*
X125104614Y-80952878D01*
X125185177Y-80819519D01*
X124575000Y-80209342D01*
X123964823Y-80819519D01*
X120185177Y-80819519D01*
X119575000Y-80209342D01*
X118964823Y-80819519D01*
X115254800Y-80819519D01*
X115254800Y-79960232D01*
X118619015Y-79960232D01*
X118623948Y-80339565D01*
X118759622Y-80667114D01*
X118892981Y-80747677D01*
X119503158Y-80137500D01*
X119646842Y-80137500D01*
X120257019Y-80747677D01*
X120390378Y-80667114D01*
X120530985Y-80314768D01*
X120526375Y-79960232D01*
X123619015Y-79960232D01*
X123623948Y-80339565D01*
X123759622Y-80667114D01*
X123892981Y-80747677D01*
X124503158Y-80137500D01*
X124646842Y-80137500D01*
X125257019Y-80747677D01*
X125390378Y-80667114D01*
X125530985Y-80314768D01*
X125528946Y-80157950D01*
X126493800Y-80157950D01*
X126493800Y-80795472D01*
X126528603Y-80879492D01*
X126592909Y-80943798D01*
X126676929Y-80978600D01*
X127414450Y-80978600D01*
X127471600Y-80921450D01*
X127471600Y-80100800D01*
X127573200Y-80100800D01*
X127573200Y-80921450D01*
X127630350Y-80978600D01*
X128367871Y-80978600D01*
X128451891Y-80943798D01*
X128516197Y-80879492D01*
X128551000Y-80795472D01*
X128551000Y-80157950D01*
X133693800Y-80157950D01*
X133693800Y-80795472D01*
X133728603Y-80879492D01*
X133792909Y-80943798D01*
X133876929Y-80978600D01*
X134614450Y-80978600D01*
X134671600Y-80921450D01*
X134671600Y-80100800D01*
X134773200Y-80100800D01*
X134773200Y-80921450D01*
X134830350Y-80978600D01*
X135567871Y-80978600D01*
X135651891Y-80943798D01*
X135716197Y-80879492D01*
X135751000Y-80795472D01*
X135751000Y-80157950D01*
X135693850Y-80100800D01*
X134773200Y-80100800D01*
X134671600Y-80100800D01*
X133750950Y-80100800D01*
X133693800Y-80157950D01*
X128551000Y-80157950D01*
X128493850Y-80100800D01*
X127573200Y-80100800D01*
X127471600Y-80100800D01*
X126550950Y-80100800D01*
X126493800Y-80157950D01*
X125528946Y-80157950D01*
X125526052Y-79935435D01*
X125390378Y-79607886D01*
X125257019Y-79527323D01*
X124646842Y-80137500D01*
X124503158Y-80137500D01*
X123892981Y-79527323D01*
X123759622Y-79607886D01*
X123619015Y-79960232D01*
X120526375Y-79960232D01*
X120526052Y-79935435D01*
X120390378Y-79607886D01*
X120257019Y-79527323D01*
X119646842Y-80137500D01*
X119503158Y-80137500D01*
X118892981Y-79527323D01*
X118759622Y-79607886D01*
X118619015Y-79960232D01*
X115254800Y-79960232D01*
X115254800Y-79455481D01*
X118964823Y-79455481D01*
X119575000Y-80065658D01*
X120185177Y-79455481D01*
X123964823Y-79455481D01*
X124575000Y-80065658D01*
X125185177Y-79455481D01*
X125104614Y-79322122D01*
X125060526Y-79304528D01*
X126493800Y-79304528D01*
X126493800Y-79942050D01*
X126550950Y-79999200D01*
X127471600Y-79999200D01*
X127471600Y-79178550D01*
X127573200Y-79178550D01*
X127573200Y-79999200D01*
X128493850Y-79999200D01*
X128551000Y-79942050D01*
X128551000Y-79304528D01*
X133693800Y-79304528D01*
X133693800Y-79942050D01*
X133750950Y-79999200D01*
X134671600Y-79999200D01*
X134671600Y-79178550D01*
X134773200Y-79178550D01*
X134773200Y-79999200D01*
X135693850Y-79999200D01*
X135751000Y-79942050D01*
X135751000Y-79304528D01*
X135716197Y-79220508D01*
X135651891Y-79156202D01*
X135567871Y-79121400D01*
X134830350Y-79121400D01*
X134773200Y-79178550D01*
X134671600Y-79178550D01*
X134614450Y-79121400D01*
X133876929Y-79121400D01*
X133792909Y-79156202D01*
X133728603Y-79220508D01*
X133693800Y-79304528D01*
X128551000Y-79304528D01*
X128516197Y-79220508D01*
X128451891Y-79156202D01*
X128367871Y-79121400D01*
X127630350Y-79121400D01*
X127573200Y-79178550D01*
X127471600Y-79178550D01*
X127414450Y-79121400D01*
X126676929Y-79121400D01*
X126592909Y-79156202D01*
X126528603Y-79220508D01*
X126493800Y-79304528D01*
X125060526Y-79304528D01*
X124752268Y-79181515D01*
X124372935Y-79186448D01*
X124045386Y-79322122D01*
X123964823Y-79455481D01*
X120185177Y-79455481D01*
X120104614Y-79322122D01*
X119752268Y-79181515D01*
X119372935Y-79186448D01*
X119045386Y-79322122D01*
X118964823Y-79455481D01*
X115254800Y-79455481D01*
X115254800Y-77895014D01*
X115260770Y-77864999D01*
X115254800Y-77834983D01*
X115254800Y-77834982D01*
X115237115Y-77746073D01*
X115228485Y-77733157D01*
X115186752Y-77670699D01*
X115186750Y-77670697D01*
X115169748Y-77645252D01*
X115144304Y-77628251D01*
X115004353Y-77488300D01*
X117746400Y-77488300D01*
X117746400Y-77838300D01*
X117828914Y-78151525D01*
X118025013Y-78409330D01*
X118304842Y-78572467D01*
X118395448Y-78596412D01*
X118524200Y-78557276D01*
X118524200Y-77488300D01*
X118625800Y-77488300D01*
X118625800Y-78557276D01*
X118754552Y-78596412D01*
X118845158Y-78572467D01*
X119124987Y-78409330D01*
X119321086Y-78151525D01*
X119403600Y-77838300D01*
X119403600Y-77488300D01*
X124746400Y-77488300D01*
X124746400Y-77838300D01*
X124828914Y-78151525D01*
X125025013Y-78409330D01*
X125304842Y-78572467D01*
X125395448Y-78596412D01*
X125524200Y-78557276D01*
X125524200Y-77488300D01*
X125625800Y-77488300D01*
X125625800Y-78557276D01*
X125754552Y-78596412D01*
X125845158Y-78572467D01*
X126124987Y-78409330D01*
X126183692Y-78332152D01*
X136803120Y-78332152D01*
X136803120Y-79178008D01*
X137126814Y-79959476D01*
X137724924Y-80557586D01*
X138506392Y-80881280D01*
X139352248Y-80881280D01*
X139395173Y-80863500D01*
X139395428Y-80863500D01*
X140176896Y-80539806D01*
X140775006Y-79941696D01*
X141098700Y-79160228D01*
X141098700Y-78314372D01*
X140775006Y-77532904D01*
X140176896Y-76934794D01*
X139395428Y-76611100D01*
X138549572Y-76611100D01*
X138506647Y-76628880D01*
X138506392Y-76628880D01*
X137724924Y-76952574D01*
X137126814Y-77550684D01*
X136803120Y-78332152D01*
X126183692Y-78332152D01*
X126321086Y-78151525D01*
X126403600Y-77838300D01*
X126403600Y-77488300D01*
X125625800Y-77488300D01*
X125524200Y-77488300D01*
X124746400Y-77488300D01*
X119403600Y-77488300D01*
X118625800Y-77488300D01*
X118524200Y-77488300D01*
X117746400Y-77488300D01*
X115004353Y-77488300D01*
X114371752Y-76855700D01*
X114354748Y-76830252D01*
X114253927Y-76762885D01*
X114165018Y-76745200D01*
X114165014Y-76745200D01*
X114135000Y-76739230D01*
X114104986Y-76745200D01*
X113479678Y-76745200D01*
X113479678Y-76350000D01*
X113466740Y-76284957D01*
X118371348Y-76284957D01*
X118304842Y-76302533D01*
X118025013Y-76465670D01*
X117828914Y-76723475D01*
X117746400Y-77036700D01*
X117746400Y-77386700D01*
X118524200Y-77386700D01*
X118524200Y-77366700D01*
X118625800Y-77366700D01*
X118625800Y-77386700D01*
X119403600Y-77386700D01*
X119403600Y-77036700D01*
X119321086Y-76723475D01*
X119124987Y-76465670D01*
X118845158Y-76302533D01*
X118778652Y-76284957D01*
X125371348Y-76284957D01*
X125304842Y-76302533D01*
X125025013Y-76465670D01*
X124828914Y-76723475D01*
X124746400Y-77036700D01*
X124746400Y-77386700D01*
X125524200Y-77386700D01*
X125524200Y-77366700D01*
X125625800Y-77366700D01*
X125625800Y-77386700D01*
X126403600Y-77386700D01*
X126403600Y-77036700D01*
X126321086Y-76723475D01*
X126124987Y-76465670D01*
X125845158Y-76302533D01*
X125778652Y-76284957D01*
X126502260Y-76284957D01*
X126489322Y-76350000D01*
X126489322Y-77750000D01*
X126507064Y-77839195D01*
X126557589Y-77914811D01*
X126633205Y-77965336D01*
X126722400Y-77983078D01*
X128322400Y-77983078D01*
X128411595Y-77965336D01*
X128487211Y-77914811D01*
X128537736Y-77839195D01*
X128555478Y-77750000D01*
X128555478Y-77354800D01*
X133689322Y-77354800D01*
X133689322Y-77750000D01*
X133707064Y-77839195D01*
X133757589Y-77914811D01*
X133833205Y-77965336D01*
X133922400Y-77983078D01*
X135522400Y-77983078D01*
X135611595Y-77965336D01*
X135687211Y-77914811D01*
X135737736Y-77839195D01*
X135755478Y-77750000D01*
X135755478Y-77354800D01*
X135837300Y-77354800D01*
X135921629Y-77439129D01*
X136099005Y-77512600D01*
X136290995Y-77512600D01*
X136468371Y-77439129D01*
X136604129Y-77303371D01*
X136677600Y-77125995D01*
X136677600Y-76934005D01*
X136604129Y-76756629D01*
X136468371Y-76620871D01*
X136290995Y-76547400D01*
X136099005Y-76547400D01*
X135921629Y-76620871D01*
X135797300Y-76745200D01*
X135755478Y-76745200D01*
X135755478Y-76350000D01*
X135742540Y-76284957D01*
X138612565Y-76284957D01*
X138906486Y-76299700D01*
X139184467Y-76341885D01*
X139452369Y-76410442D01*
X139708968Y-76503997D01*
X139952994Y-76621200D01*
X140183094Y-76760694D01*
X140397895Y-76921116D01*
X140595969Y-77101062D01*
X140775924Y-77299148D01*
X140936334Y-77513935D01*
X141075826Y-77744034D01*
X141193028Y-77988057D01*
X141286584Y-78244659D01*
X141355140Y-78512563D01*
X141397325Y-78790539D01*
X141412069Y-79084482D01*
X141412069Y-91663800D01*
X137095000Y-91663800D01*
X137065840Y-91669600D01*
X137041118Y-91686118D01*
X137024600Y-91710840D01*
X137018800Y-91740000D01*
X137018800Y-101970000D01*
X137024600Y-101999160D01*
X137041118Y-102023882D01*
X137065840Y-102040400D01*
X137095000Y-102046200D01*
X141412068Y-102046200D01*
X141412068Y-115927699D01*
X141397325Y-116221623D01*
X141355139Y-116499623D01*
X141286582Y-116767553D01*
X141193024Y-117024192D01*
X141075816Y-117268265D01*
X140936318Y-117498413D01*
X140775902Y-117713248D01*
X140595944Y-117911380D01*
X140397862Y-118091378D01*
X140183066Y-118251838D01*
X139952967Y-118391371D01*
X139708945Y-118508609D01*
X139452342Y-118602194D01*
X139184447Y-118670772D01*
X138906487Y-118712969D01*
X138612565Y-118727719D01*
X135741205Y-118727719D01*
X135751000Y-118704072D01*
X135751000Y-118066550D01*
X135693850Y-118009400D01*
X134773200Y-118009400D01*
X134773200Y-118029400D01*
X134671600Y-118029400D01*
X134671600Y-118009400D01*
X133750950Y-118009400D01*
X133693800Y-118066550D01*
X133693800Y-118704072D01*
X133703595Y-118727719D01*
X128541205Y-118727719D01*
X128551000Y-118704072D01*
X128551000Y-118066550D01*
X128493850Y-118009400D01*
X127573200Y-118009400D01*
X127573200Y-118029400D01*
X127471600Y-118029400D01*
X127471600Y-118009400D01*
X126550950Y-118009400D01*
X126493800Y-118066550D01*
X126493800Y-118704072D01*
X126503595Y-118727719D01*
X113475200Y-118727719D01*
X113475200Y-118091950D01*
X113418050Y-118034800D01*
X112497400Y-118034800D01*
X112497400Y-118054800D01*
X112395800Y-118054800D01*
X112395800Y-118034800D01*
X111475150Y-118034800D01*
X111418000Y-118091950D01*
X111418000Y-118727719D01*
X106275200Y-118727719D01*
X106275200Y-118091950D01*
X106218050Y-118034800D01*
X105297400Y-118034800D01*
X105297400Y-118054800D01*
X105195800Y-118054800D01*
X105195800Y-118034800D01*
X104275150Y-118034800D01*
X104218000Y-118091950D01*
X104218000Y-118727719D01*
X101769325Y-118727719D01*
X101475401Y-118712969D01*
X101197421Y-118670772D01*
X100929502Y-118602194D01*
X100672864Y-118508607D01*
X100428795Y-118391365D01*
X100198646Y-118251826D01*
X99983807Y-118091367D01*
X99785670Y-117911359D01*
X99605668Y-117713227D01*
X99445206Y-117498387D01*
X99305663Y-117268232D01*
X99188424Y-117024170D01*
X99094836Y-116767530D01*
X99026256Y-116499605D01*
X98984059Y-116221624D01*
X98969309Y-115927698D01*
X98969309Y-115830172D01*
X99317800Y-115830172D01*
X99317800Y-116676028D01*
X99641494Y-117457496D01*
X100239604Y-118055606D01*
X101021072Y-118379300D01*
X101866928Y-118379300D01*
X102648396Y-118055606D01*
X103246506Y-117457496D01*
X103337205Y-117238528D01*
X104218000Y-117238528D01*
X104218000Y-117876050D01*
X104275150Y-117933200D01*
X105195800Y-117933200D01*
X105195800Y-117112550D01*
X105297400Y-117112550D01*
X105297400Y-117933200D01*
X106218050Y-117933200D01*
X106275200Y-117876050D01*
X106275200Y-117238528D01*
X111418000Y-117238528D01*
X111418000Y-117876050D01*
X111475150Y-117933200D01*
X112395800Y-117933200D01*
X112395800Y-117112550D01*
X112497400Y-117112550D01*
X112497400Y-117933200D01*
X113418050Y-117933200D01*
X113475200Y-117876050D01*
X113475200Y-117238528D01*
X113440397Y-117154508D01*
X113376091Y-117090202D01*
X113292071Y-117055400D01*
X112554550Y-117055400D01*
X112497400Y-117112550D01*
X112395800Y-117112550D01*
X112338650Y-117055400D01*
X111601129Y-117055400D01*
X111517109Y-117090202D01*
X111452803Y-117154508D01*
X111418000Y-117238528D01*
X106275200Y-117238528D01*
X106240397Y-117154508D01*
X106176091Y-117090202D01*
X106092071Y-117055400D01*
X105354550Y-117055400D01*
X105297400Y-117112550D01*
X105195800Y-117112550D01*
X105138650Y-117055400D01*
X104401129Y-117055400D01*
X104317109Y-117090202D01*
X104252803Y-117154508D01*
X104218000Y-117238528D01*
X103337205Y-117238528D01*
X103570200Y-116676028D01*
X103570200Y-115830172D01*
X103246506Y-115048704D01*
X102648396Y-114450594D01*
X102246202Y-114284000D01*
X104213522Y-114284000D01*
X104213522Y-115684000D01*
X104231264Y-115773195D01*
X104281789Y-115848811D01*
X104357405Y-115899336D01*
X104446600Y-115917078D01*
X106046600Y-115917078D01*
X106135795Y-115899336D01*
X106211411Y-115848811D01*
X106261936Y-115773195D01*
X106279678Y-115684000D01*
X106279678Y-115288800D01*
X111413522Y-115288800D01*
X111413522Y-115684000D01*
X111431264Y-115773195D01*
X111481789Y-115848811D01*
X111557405Y-115899336D01*
X111646600Y-115917078D01*
X113246600Y-115917078D01*
X113335795Y-115899336D01*
X113411411Y-115848811D01*
X113461936Y-115773195D01*
X113479678Y-115684000D01*
X113479678Y-114284000D01*
X113461936Y-114194805D01*
X113411411Y-114119189D01*
X113335795Y-114068664D01*
X113246600Y-114050922D01*
X112847570Y-114050922D01*
X112907600Y-113905995D01*
X112907600Y-113714005D01*
X112834129Y-113536629D01*
X112729800Y-113432300D01*
X112729800Y-104606252D01*
X113961252Y-103374800D01*
X117072213Y-103374800D01*
X117058250Y-103395697D01*
X116080698Y-104373250D01*
X116055253Y-104390252D01*
X116038251Y-104415697D01*
X116038248Y-104415700D01*
X115987885Y-104491074D01*
X115964230Y-104610000D01*
X115970201Y-104640019D01*
X115970200Y-107703748D01*
X115336548Y-108337400D01*
X115189005Y-108337400D01*
X115011629Y-108410871D01*
X114875871Y-108546629D01*
X114802400Y-108724005D01*
X114802400Y-108871548D01*
X114790699Y-108883248D01*
X114765252Y-108900252D01*
X114748249Y-108925699D01*
X114748248Y-108925700D01*
X114725330Y-108960000D01*
X114697885Y-109001074D01*
X114680200Y-109089983D01*
X114680200Y-109089986D01*
X114674230Y-109120000D01*
X114680200Y-109150014D01*
X114680201Y-114354978D01*
X114680200Y-114354983D01*
X114680201Y-115001399D01*
X114575871Y-115105729D01*
X114502400Y-115283105D01*
X114502400Y-115475095D01*
X114575871Y-115652471D01*
X114711629Y-115788229D01*
X114889005Y-115861700D01*
X114925648Y-115861700D01*
X117438248Y-118374300D01*
X117455252Y-118399748D01*
X117556073Y-118467115D01*
X117644982Y-118484800D01*
X117644986Y-118484800D01*
X117674999Y-118490770D01*
X117705012Y-118484800D01*
X119354986Y-118484800D01*
X119385000Y-118490770D01*
X119415014Y-118484800D01*
X119415018Y-118484800D01*
X119503927Y-118467115D01*
X119604748Y-118399748D01*
X119621752Y-118374300D01*
X119810501Y-118185551D01*
X119835948Y-118168548D01*
X119903315Y-118067727D01*
X119921000Y-117978818D01*
X119921000Y-117978814D01*
X119926970Y-117948801D01*
X119921000Y-117918788D01*
X119921000Y-117791498D01*
X119975610Y-117791498D01*
X120064805Y-117773756D01*
X120095302Y-117753379D01*
X120176518Y-117787020D01*
X120473450Y-117787020D01*
X120530600Y-117729870D01*
X120530600Y-117309500D01*
X120510600Y-117309500D01*
X120510600Y-117207900D01*
X120530600Y-117207900D01*
X120530600Y-117187900D01*
X120632200Y-117187900D01*
X120632200Y-117207900D01*
X120652200Y-117207900D01*
X120652200Y-117309500D01*
X120632200Y-117309500D01*
X120632200Y-117729870D01*
X120689350Y-117787020D01*
X120986282Y-117787020D01*
X121070302Y-117752217D01*
X121070517Y-117752002D01*
X121103075Y-117773756D01*
X121192270Y-117791498D01*
X121911090Y-117791498D01*
X122000285Y-117773756D01*
X122075901Y-117723231D01*
X122126426Y-117647615D01*
X122143158Y-117563500D01*
X122146000Y-117563500D01*
X122231629Y-117649129D01*
X122409005Y-117722600D01*
X122600995Y-117722600D01*
X122778371Y-117649129D01*
X122914129Y-117513371D01*
X122987600Y-117335995D01*
X122987600Y-117213128D01*
X126493800Y-117213128D01*
X126493800Y-117850650D01*
X126550950Y-117907800D01*
X127471600Y-117907800D01*
X127471600Y-117087150D01*
X127573200Y-117087150D01*
X127573200Y-117907800D01*
X128493850Y-117907800D01*
X128551000Y-117850650D01*
X128551000Y-117213128D01*
X133693800Y-117213128D01*
X133693800Y-117850650D01*
X133750950Y-117907800D01*
X134671600Y-117907800D01*
X134671600Y-117087150D01*
X134773200Y-117087150D01*
X134773200Y-117907800D01*
X135693850Y-117907800D01*
X135751000Y-117850650D01*
X135751000Y-117213128D01*
X135716197Y-117129108D01*
X135651891Y-117064802D01*
X135567871Y-117030000D01*
X134830350Y-117030000D01*
X134773200Y-117087150D01*
X134671600Y-117087150D01*
X134614450Y-117030000D01*
X133876929Y-117030000D01*
X133792909Y-117064802D01*
X133728603Y-117129108D01*
X133693800Y-117213128D01*
X128551000Y-117213128D01*
X128516197Y-117129108D01*
X128451891Y-117064802D01*
X128367871Y-117030000D01*
X127630350Y-117030000D01*
X127573200Y-117087150D01*
X127471600Y-117087150D01*
X127414450Y-117030000D01*
X126676929Y-117030000D01*
X126592909Y-117064802D01*
X126528603Y-117129108D01*
X126493800Y-117213128D01*
X122987600Y-117213128D01*
X122987600Y-117144005D01*
X122914129Y-116966629D01*
X122778371Y-116830871D01*
X122772115Y-116828280D01*
X122844748Y-116779748D01*
X122861752Y-116754300D01*
X123909304Y-115706749D01*
X123934748Y-115689748D01*
X123951750Y-115664303D01*
X123951752Y-115664301D01*
X124002115Y-115588927D01*
X124004888Y-115574985D01*
X124019800Y-115500018D01*
X124019800Y-115500015D01*
X124025770Y-115470000D01*
X124019800Y-115439985D01*
X124019800Y-114258600D01*
X126489322Y-114258600D01*
X126489322Y-115658600D01*
X126507064Y-115747795D01*
X126557589Y-115823411D01*
X126633205Y-115873936D01*
X126722400Y-115891678D01*
X128322400Y-115891678D01*
X128411595Y-115873936D01*
X128487211Y-115823411D01*
X128537736Y-115747795D01*
X128555478Y-115658600D01*
X128555478Y-115263400D01*
X133689322Y-115263400D01*
X133689322Y-115658600D01*
X133707064Y-115747795D01*
X133757589Y-115823411D01*
X133833205Y-115873936D01*
X133922400Y-115891678D01*
X135522400Y-115891678D01*
X135611595Y-115873936D01*
X135673291Y-115832712D01*
X136815820Y-115832712D01*
X136815820Y-116678568D01*
X137139514Y-117460036D01*
X137737624Y-118058146D01*
X138519092Y-118381840D01*
X139364948Y-118381840D01*
X140146416Y-118058146D01*
X140744526Y-117460036D01*
X141068220Y-116678568D01*
X141068220Y-115832712D01*
X140744526Y-115051244D01*
X140146416Y-114453134D01*
X139364948Y-114129440D01*
X138519092Y-114129440D01*
X137737624Y-114453134D01*
X137139514Y-115051244D01*
X136815820Y-115832712D01*
X135673291Y-115832712D01*
X135687211Y-115823411D01*
X135737736Y-115747795D01*
X135755478Y-115658600D01*
X135755478Y-114258600D01*
X135737736Y-114169405D01*
X135687211Y-114093789D01*
X135611595Y-114043264D01*
X135522400Y-114025522D01*
X135121978Y-114025522D01*
X135144129Y-114003371D01*
X135217600Y-113825995D01*
X135217600Y-113634005D01*
X135144129Y-113456629D01*
X135008371Y-113320871D01*
X134830995Y-113247400D01*
X134639005Y-113247400D01*
X134461629Y-113320871D01*
X134325871Y-113456629D01*
X134252400Y-113634005D01*
X134252400Y-113825995D01*
X134325871Y-114003371D01*
X134348022Y-114025522D01*
X133922400Y-114025522D01*
X133833205Y-114043264D01*
X133757589Y-114093789D01*
X133707064Y-114169405D01*
X133689322Y-114258600D01*
X133689322Y-114653800D01*
X128555478Y-114653800D01*
X128555478Y-114258600D01*
X128537736Y-114169405D01*
X128487211Y-114093789D01*
X128411595Y-114043264D01*
X128322400Y-114025522D01*
X126722400Y-114025522D01*
X126633205Y-114043264D01*
X126557589Y-114093789D01*
X126507064Y-114169405D01*
X126489322Y-114258600D01*
X124019800Y-114258600D01*
X124019800Y-109826252D01*
X124341253Y-109504800D01*
X131508748Y-109504800D01*
X131770200Y-109766253D01*
X131770201Y-110092299D01*
X131665871Y-110196629D01*
X131592400Y-110374005D01*
X131592400Y-110565995D01*
X131665871Y-110743371D01*
X131801629Y-110879129D01*
X131979005Y-110952600D01*
X132126548Y-110952600D01*
X132640201Y-111466254D01*
X132640200Y-112119985D01*
X132634230Y-112150000D01*
X132640200Y-112180014D01*
X132640200Y-112180017D01*
X132657885Y-112268926D01*
X132725252Y-112369748D01*
X132750700Y-112386752D01*
X133348248Y-112984300D01*
X133365252Y-113009748D01*
X133466073Y-113077115D01*
X133554982Y-113094800D01*
X133554985Y-113094800D01*
X133585000Y-113100770D01*
X133615015Y-113094800D01*
X140044986Y-113094800D01*
X140075000Y-113100770D01*
X140105014Y-113094800D01*
X140105018Y-113094800D01*
X140193927Y-113077115D01*
X140294748Y-113009748D01*
X140311752Y-112984300D01*
X140797103Y-112498950D01*
X140822548Y-112481948D01*
X140839550Y-112456503D01*
X140839552Y-112456501D01*
X140889915Y-112381127D01*
X140897942Y-112340771D01*
X140907600Y-112292218D01*
X140907600Y-112292215D01*
X140913570Y-112262200D01*
X140907600Y-112232186D01*
X140907600Y-111323578D01*
X140941995Y-111316736D01*
X141017611Y-111266211D01*
X141068136Y-111190595D01*
X141085878Y-111101400D01*
X141085878Y-110601400D01*
X141068136Y-110512205D01*
X141027507Y-110451400D01*
X141068136Y-110390595D01*
X141085878Y-110301400D01*
X141085878Y-109801400D01*
X141068136Y-109712205D01*
X141027507Y-109651400D01*
X141068136Y-109590595D01*
X141085878Y-109501400D01*
X141085878Y-109001400D01*
X141068136Y-108912205D01*
X141026939Y-108850550D01*
X141046597Y-108830892D01*
X141081400Y-108746872D01*
X141081400Y-108559350D01*
X141024250Y-108502200D01*
X140653600Y-108502200D01*
X140653600Y-108522200D01*
X140552000Y-108522200D01*
X140552000Y-108502200D01*
X140181350Y-108502200D01*
X140124200Y-108559350D01*
X140124200Y-108746872D01*
X140151697Y-108813254D01*
X140040995Y-108767400D01*
X139849005Y-108767400D01*
X139671629Y-108840871D01*
X139535871Y-108976629D01*
X139462400Y-109154005D01*
X139462400Y-109345995D01*
X139535871Y-109523371D01*
X139671629Y-109659129D01*
X139849005Y-109732600D01*
X140040995Y-109732600D01*
X140155538Y-109685155D01*
X140137464Y-109712205D01*
X140130622Y-109746600D01*
X140083614Y-109746600D01*
X140053600Y-109740630D01*
X140023585Y-109746600D01*
X140023582Y-109746600D01*
X139934673Y-109764285D01*
X139833852Y-109831652D01*
X139816848Y-109857100D01*
X139730698Y-109943250D01*
X139705253Y-109960252D01*
X139688251Y-109985697D01*
X139688248Y-109985700D01*
X139637885Y-110061074D01*
X139614230Y-110180000D01*
X139620201Y-110210019D01*
X139620200Y-111933748D01*
X139458748Y-112095200D01*
X134041252Y-112095200D01*
X133669800Y-111723748D01*
X133669800Y-110857700D01*
X133733495Y-110794005D01*
X136892400Y-110794005D01*
X136892400Y-110985995D01*
X136965871Y-111163371D01*
X137101629Y-111299129D01*
X137279005Y-111372600D01*
X137470995Y-111372600D01*
X137648371Y-111299129D01*
X137737371Y-111210129D01*
X137737464Y-111210595D01*
X137787989Y-111286211D01*
X137863605Y-111336736D01*
X137952800Y-111354478D01*
X138452800Y-111354478D01*
X138541995Y-111336736D01*
X138617611Y-111286211D01*
X138668136Y-111210595D01*
X138685878Y-111121400D01*
X138685878Y-110621400D01*
X138668136Y-110532205D01*
X138620826Y-110461400D01*
X138668136Y-110390595D01*
X138685878Y-110301400D01*
X138685878Y-109801400D01*
X138668136Y-109712205D01*
X138626939Y-109650550D01*
X138646597Y-109630892D01*
X138681400Y-109546872D01*
X138681400Y-109359350D01*
X138624250Y-109302200D01*
X138253600Y-109302200D01*
X138253600Y-109322200D01*
X138152000Y-109322200D01*
X138152000Y-109302200D01*
X137781350Y-109302200D01*
X137724200Y-109359350D01*
X137724200Y-109546872D01*
X137759003Y-109630892D01*
X137778661Y-109650550D01*
X137774411Y-109656911D01*
X137748371Y-109630871D01*
X137570995Y-109557400D01*
X137379005Y-109557400D01*
X137201629Y-109630871D01*
X137065871Y-109766629D01*
X136992400Y-109944005D01*
X136992400Y-110135995D01*
X137065871Y-110313371D01*
X137194785Y-110442285D01*
X137101629Y-110480871D01*
X136965871Y-110616629D01*
X136892400Y-110794005D01*
X133733495Y-110794005D01*
X133774129Y-110753371D01*
X133847600Y-110575995D01*
X133847600Y-110384005D01*
X133774129Y-110206629D01*
X133669800Y-110102300D01*
X133669800Y-109740014D01*
X133675770Y-109709999D01*
X133669800Y-109679983D01*
X133669800Y-109679982D01*
X133652115Y-109591073D01*
X133636913Y-109568322D01*
X133601752Y-109515699D01*
X133601750Y-109515697D01*
X133584748Y-109490252D01*
X133559304Y-109473251D01*
X132711752Y-108625700D01*
X132694748Y-108600252D01*
X132664473Y-108580023D01*
X132724748Y-108539748D01*
X132741752Y-108514300D01*
X132912047Y-108344005D01*
X136982400Y-108344005D01*
X136982400Y-108535995D01*
X137055871Y-108713371D01*
X137191629Y-108849129D01*
X137369005Y-108922600D01*
X137560995Y-108922600D01*
X137738371Y-108849129D01*
X137761273Y-108826227D01*
X137778661Y-108852250D01*
X137759003Y-108871908D01*
X137724200Y-108955928D01*
X137724200Y-109143450D01*
X137781350Y-109200600D01*
X138152000Y-109200600D01*
X138152000Y-109180600D01*
X138253600Y-109180600D01*
X138253600Y-109200600D01*
X138624250Y-109200600D01*
X138681400Y-109143450D01*
X138681400Y-108955928D01*
X138646597Y-108871908D01*
X138626939Y-108852250D01*
X138668136Y-108790595D01*
X138685878Y-108701400D01*
X138685878Y-108201400D01*
X138676834Y-108155928D01*
X140124200Y-108155928D01*
X140124200Y-108343450D01*
X140181350Y-108400600D01*
X140552000Y-108400600D01*
X140552000Y-108029950D01*
X140653600Y-108029950D01*
X140653600Y-108400600D01*
X141024250Y-108400600D01*
X141081400Y-108343450D01*
X141081400Y-108155928D01*
X141046597Y-108071908D01*
X140982291Y-108007602D01*
X140898271Y-107972800D01*
X140710750Y-107972800D01*
X140653600Y-108029950D01*
X140552000Y-108029950D01*
X140494850Y-107972800D01*
X140307329Y-107972800D01*
X140223309Y-108007602D01*
X140159003Y-108071908D01*
X140124200Y-108155928D01*
X138676834Y-108155928D01*
X138668136Y-108112205D01*
X138617611Y-108036589D01*
X138541995Y-107986064D01*
X138452800Y-107968322D01*
X137952800Y-107968322D01*
X137863605Y-107986064D01*
X137787989Y-108036589D01*
X137770405Y-108062905D01*
X137738371Y-108030871D01*
X137560995Y-107957400D01*
X137369005Y-107957400D01*
X137191629Y-108030871D01*
X137055871Y-108166629D01*
X136982400Y-108344005D01*
X132912047Y-108344005D01*
X133749300Y-107506752D01*
X133774748Y-107489748D01*
X133842115Y-107388927D01*
X133859800Y-107300018D01*
X133859800Y-107300014D01*
X133865770Y-107270001D01*
X133859800Y-107239988D01*
X133859800Y-104660581D01*
X138421800Y-104660581D01*
X138421800Y-104990219D01*
X138547947Y-105294764D01*
X138781036Y-105527853D01*
X139085581Y-105654000D01*
X139415219Y-105654000D01*
X139719764Y-105527853D01*
X139952853Y-105294764D01*
X140079000Y-104990219D01*
X140079000Y-104660581D01*
X139952853Y-104356036D01*
X139719764Y-104122947D01*
X139415219Y-103996800D01*
X139085581Y-103996800D01*
X138781036Y-104122947D01*
X138547947Y-104356036D01*
X138421800Y-104660581D01*
X133859800Y-104660581D01*
X133859800Y-99167700D01*
X133964129Y-99063371D01*
X134037600Y-98885995D01*
X134037600Y-98694005D01*
X133964129Y-98516629D01*
X133828371Y-98380871D01*
X133650995Y-98307400D01*
X133459005Y-98307400D01*
X133281629Y-98380871D01*
X133145871Y-98516629D01*
X133072400Y-98694005D01*
X133072400Y-98885995D01*
X133145871Y-99063371D01*
X133250200Y-99167700D01*
X133250201Y-107143747D01*
X132746292Y-107647656D01*
X132749800Y-107630018D01*
X132749800Y-107630015D01*
X132755770Y-107600001D01*
X132749800Y-107569986D01*
X132749800Y-99167700D01*
X132854129Y-99063371D01*
X132927600Y-98885995D01*
X132927600Y-98694005D01*
X132854129Y-98516629D01*
X132718371Y-98380871D01*
X132540995Y-98307400D01*
X132349005Y-98307400D01*
X132171629Y-98380871D01*
X132035871Y-98516629D01*
X131962400Y-98694005D01*
X131962400Y-98885995D01*
X132035871Y-99063371D01*
X132140201Y-99167701D01*
X132140200Y-105830017D01*
X132140201Y-105830022D01*
X132140200Y-107473747D01*
X132018748Y-107595200D01*
X123065014Y-107595200D01*
X123035000Y-107589230D01*
X123004985Y-107595200D01*
X123004982Y-107595200D01*
X122916073Y-107612885D01*
X122840699Y-107663248D01*
X122840697Y-107663250D01*
X122815252Y-107680252D01*
X122798250Y-107705697D01*
X122030698Y-108473250D01*
X122005253Y-108490252D01*
X121988251Y-108515697D01*
X121988248Y-108515700D01*
X121937885Y-108591074D01*
X121914230Y-108710000D01*
X121920201Y-108740019D01*
X121920200Y-111463748D01*
X121828748Y-111555200D01*
X119552700Y-111555200D01*
X119448371Y-111450871D01*
X119270995Y-111377400D01*
X119079005Y-111377400D01*
X118901629Y-111450871D01*
X118765871Y-111586629D01*
X118692400Y-111764005D01*
X118692400Y-111955995D01*
X118705408Y-111987400D01*
X118639005Y-111987400D01*
X118461629Y-112060871D01*
X118325871Y-112196629D01*
X118252400Y-112374005D01*
X118252400Y-112565995D01*
X118325871Y-112743371D01*
X118461629Y-112879129D01*
X118639005Y-112952600D01*
X118830995Y-112952600D01*
X119008371Y-112879129D01*
X119112700Y-112774800D01*
X122274986Y-112774800D01*
X122305000Y-112780770D01*
X122335014Y-112774800D01*
X122335018Y-112774800D01*
X122423927Y-112757115D01*
X122524748Y-112689748D01*
X122541752Y-112664300D01*
X122939303Y-112266750D01*
X122964748Y-112249748D01*
X122981750Y-112224303D01*
X122981752Y-112224301D01*
X122990200Y-112211657D01*
X122990200Y-113823747D01*
X122668748Y-114145200D01*
X118995012Y-114145200D01*
X118964999Y-114139230D01*
X118934986Y-114145200D01*
X118934982Y-114145200D01*
X118846073Y-114162885D01*
X118745252Y-114230252D01*
X118728248Y-114255700D01*
X118451618Y-114532330D01*
X118426173Y-114549332D01*
X118409171Y-114574777D01*
X118409168Y-114574780D01*
X118358805Y-114650154D01*
X118335150Y-114769080D01*
X118341121Y-114799099D01*
X118341120Y-115328902D01*
X118286510Y-115328902D01*
X118197315Y-115346644D01*
X118121699Y-115397169D01*
X118071174Y-115472785D01*
X118054442Y-115556900D01*
X116924400Y-115556900D01*
X116820071Y-115452571D01*
X116642695Y-115379100D01*
X116495153Y-115379100D01*
X115594610Y-114478558D01*
X115594610Y-110261442D01*
X116593453Y-109262600D01*
X116740995Y-109262600D01*
X116918371Y-109189129D01*
X117054129Y-109053371D01*
X117127600Y-108875995D01*
X117127600Y-108684005D01*
X117054129Y-108506629D01*
X116949800Y-108402300D01*
X116949800Y-104956252D01*
X117621252Y-104284800D01*
X125544986Y-104284800D01*
X125575000Y-104290770D01*
X125605014Y-104284800D01*
X125605018Y-104284800D01*
X125693927Y-104267115D01*
X125794748Y-104199748D01*
X125811752Y-104174300D01*
X126609301Y-103376751D01*
X126634748Y-103359748D01*
X126702115Y-103258927D01*
X126719800Y-103170018D01*
X126719800Y-103170014D01*
X126725770Y-103140001D01*
X126719800Y-103109988D01*
X126719800Y-97787700D01*
X126824129Y-97683371D01*
X126897600Y-97505995D01*
X126897600Y-97314005D01*
X126824129Y-97136629D01*
X126688371Y-97000871D01*
X126510995Y-96927400D01*
X126319005Y-96927400D01*
X126141629Y-97000871D01*
X126005871Y-97136629D01*
X125932400Y-97314005D01*
X125932400Y-97505995D01*
X126005871Y-97683371D01*
X126110200Y-97787700D01*
X126110200Y-97799227D01*
X126110201Y-97799232D01*
X126110201Y-98102701D01*
X126078371Y-98070871D01*
X125900995Y-97997400D01*
X125709005Y-97997400D01*
X125531629Y-98070871D01*
X125395871Y-98206629D01*
X125322400Y-98384005D01*
X125322400Y-98566266D01*
X125300995Y-98557400D01*
X125109005Y-98557400D01*
X124931629Y-98630871D01*
X124795871Y-98766629D01*
X124722400Y-98944005D01*
X124722400Y-99135995D01*
X124795871Y-99313371D01*
X124890200Y-99407700D01*
X124890201Y-102523746D01*
X124648748Y-102765200D01*
X113865012Y-102765200D01*
X113834999Y-102759230D01*
X113804986Y-102765200D01*
X113804982Y-102765200D01*
X113716073Y-102782885D01*
X113615252Y-102850252D01*
X113598248Y-102875700D01*
X112230700Y-104243248D01*
X112205252Y-104260252D01*
X112188249Y-104285699D01*
X112188248Y-104285700D01*
X112179208Y-104299229D01*
X112137885Y-104361074D01*
X112120200Y-104449983D01*
X112120200Y-104449986D01*
X112114230Y-104480000D01*
X112120200Y-104510014D01*
X112120201Y-113432299D01*
X112015871Y-113536629D01*
X111942400Y-113714005D01*
X111942400Y-113905995D01*
X112002430Y-114050922D01*
X111646600Y-114050922D01*
X111557405Y-114068664D01*
X111481789Y-114119189D01*
X111431264Y-114194805D01*
X111413522Y-114284000D01*
X111413522Y-114679200D01*
X106279678Y-114679200D01*
X106279678Y-114284000D01*
X106261936Y-114194805D01*
X106211411Y-114119189D01*
X106135795Y-114068664D01*
X106046600Y-114050922D01*
X104446600Y-114050922D01*
X104357405Y-114068664D01*
X104281789Y-114119189D01*
X104231264Y-114194805D01*
X104213522Y-114284000D01*
X102246202Y-114284000D01*
X101866928Y-114126900D01*
X101021072Y-114126900D01*
X100239604Y-114450594D01*
X99641494Y-115048704D01*
X99317800Y-115830172D01*
X98969309Y-115830172D01*
X98969309Y-87701806D01*
X106673305Y-87701806D01*
X106674653Y-87715735D01*
X106674652Y-107296432D01*
X106673305Y-107310351D01*
X106674652Y-107323792D01*
X106674652Y-107337311D01*
X106677382Y-107351037D01*
X106683959Y-107416664D01*
X106683812Y-107417158D01*
X106689474Y-107471692D01*
X106692169Y-107498588D01*
X106692316Y-107499069D01*
X106692368Y-107499571D01*
X106700356Y-107525411D01*
X106716357Y-107577836D01*
X106716685Y-107578234D01*
X106722538Y-107597169D01*
X106722537Y-107597182D01*
X106739129Y-107650837D01*
X106747005Y-107676316D01*
X106747010Y-107676326D01*
X106747015Y-107676341D01*
X106762911Y-107705700D01*
X106786449Y-107749182D01*
X106786458Y-107749189D01*
X106820730Y-107812487D01*
X106833498Y-107836247D01*
X106833780Y-107836589D01*
X106833990Y-107836977D01*
X106851132Y-107857637D01*
X106931251Y-107954821D01*
X106948172Y-107975533D01*
X106948653Y-107975930D01*
X106949050Y-107976411D01*
X106969762Y-107993332D01*
X107066946Y-108073451D01*
X107087606Y-108090593D01*
X107087994Y-108090803D01*
X107088336Y-108091085D01*
X107112119Y-108103865D01*
X107175394Y-108138125D01*
X107175401Y-108138134D01*
X107214971Y-108159554D01*
X107248241Y-108177568D01*
X107248259Y-108177573D01*
X107248267Y-108177578D01*
X107269283Y-108184075D01*
X107327400Y-108202046D01*
X107327413Y-108202045D01*
X107346348Y-108207898D01*
X107346746Y-108208226D01*
X107399064Y-108224194D01*
X107425010Y-108232215D01*
X107425515Y-108232267D01*
X107425995Y-108232414D01*
X107452857Y-108235106D01*
X107507425Y-108240771D01*
X107507919Y-108240624D01*
X107573545Y-108247201D01*
X107587271Y-108249931D01*
X107600790Y-108249931D01*
X107614231Y-108251278D01*
X107628150Y-108249931D01*
X110830014Y-108249931D01*
X110843933Y-108251278D01*
X110857374Y-108249931D01*
X110870894Y-108249931D01*
X110884621Y-108247201D01*
X110950246Y-108240624D01*
X110950740Y-108240771D01*
X111005274Y-108235109D01*
X111032170Y-108232414D01*
X111032651Y-108232267D01*
X111033153Y-108232215D01*
X111058993Y-108224227D01*
X111111418Y-108208226D01*
X111111816Y-108207898D01*
X111130751Y-108202045D01*
X111130764Y-108202046D01*
X111186446Y-108184828D01*
X111209898Y-108177578D01*
X111209908Y-108177573D01*
X111209923Y-108177568D01*
X111239590Y-108161505D01*
X111282764Y-108138134D01*
X111282771Y-108138125D01*
X111346069Y-108103853D01*
X111369829Y-108091085D01*
X111370171Y-108090803D01*
X111370559Y-108090593D01*
X111391219Y-108073451D01*
X111488403Y-107993332D01*
X111509115Y-107976411D01*
X111509512Y-107975930D01*
X111509993Y-107975533D01*
X111526914Y-107954821D01*
X111607033Y-107857637D01*
X111624175Y-107836977D01*
X111624385Y-107836589D01*
X111624667Y-107836247D01*
X111637447Y-107812464D01*
X111671707Y-107749189D01*
X111671716Y-107749182D01*
X111695254Y-107705700D01*
X111711150Y-107676342D01*
X111711155Y-107676324D01*
X111711160Y-107676316D01*
X111717657Y-107655300D01*
X111735628Y-107597183D01*
X111735627Y-107597170D01*
X111741480Y-107578235D01*
X111741808Y-107577837D01*
X111757782Y-107525499D01*
X111765797Y-107499573D01*
X111765849Y-107499068D01*
X111765996Y-107498588D01*
X111768688Y-107471726D01*
X111774353Y-107417158D01*
X111774206Y-107416664D01*
X111780783Y-107351038D01*
X111783513Y-107337312D01*
X111783513Y-107323793D01*
X111784860Y-107310352D01*
X111783513Y-107296433D01*
X111783513Y-95140112D01*
X121887638Y-95140112D01*
X121887638Y-95332102D01*
X121961109Y-95509478D01*
X122096867Y-95645236D01*
X122274243Y-95718707D01*
X122466233Y-95718707D01*
X122643609Y-95645236D01*
X122747145Y-95541700D01*
X127021048Y-95541700D01*
X127990048Y-96510700D01*
X128007052Y-96536148D01*
X128107873Y-96603515D01*
X128196782Y-96621200D01*
X128196785Y-96621200D01*
X128226800Y-96627170D01*
X128256815Y-96621200D01*
X130592300Y-96621200D01*
X130696629Y-96725529D01*
X130874005Y-96799000D01*
X131065995Y-96799000D01*
X131243371Y-96725529D01*
X131379129Y-96589771D01*
X131452600Y-96412395D01*
X131452600Y-96220405D01*
X131379129Y-96043029D01*
X131243371Y-95907271D01*
X131065995Y-95833800D01*
X130874005Y-95833800D01*
X130696629Y-95907271D01*
X130592300Y-96011600D01*
X128353052Y-96011600D01*
X127384052Y-95042600D01*
X127367048Y-95017152D01*
X127266227Y-94949785D01*
X127177318Y-94932100D01*
X127177314Y-94932100D01*
X127147300Y-94926130D01*
X127117286Y-94932100D01*
X125139952Y-94932100D01*
X125406652Y-94665400D01*
X125664700Y-94665400D01*
X125769029Y-94769729D01*
X125946405Y-94843200D01*
X126138395Y-94843200D01*
X126315771Y-94769729D01*
X126451529Y-94633971D01*
X126525000Y-94456595D01*
X126525000Y-94264605D01*
X126451529Y-94087229D01*
X126315771Y-93951471D01*
X126138395Y-93878000D01*
X125946405Y-93878000D01*
X125769029Y-93951471D01*
X125664700Y-94055800D01*
X125355852Y-94055800D01*
X127819653Y-91592000D01*
X129347700Y-91592000D01*
X129452029Y-91696329D01*
X129629405Y-91769800D01*
X129821395Y-91769800D01*
X129998771Y-91696329D01*
X130134529Y-91560571D01*
X130208000Y-91383195D01*
X130208000Y-91261800D01*
X130354795Y-91261800D01*
X130532171Y-91188329D01*
X130667929Y-91052571D01*
X130741400Y-90875195D01*
X130741400Y-90683205D01*
X130667929Y-90505829D01*
X130532171Y-90370071D01*
X130354795Y-90296600D01*
X130162805Y-90296600D01*
X129985429Y-90370071D01*
X129881100Y-90474400D01*
X129544300Y-90474400D01*
X129550329Y-90468371D01*
X129623800Y-90290995D01*
X129623800Y-90099005D01*
X129550329Y-89921629D01*
X129414571Y-89785871D01*
X129237195Y-89712400D01*
X129081916Y-89712400D01*
X129115800Y-89630595D01*
X129115800Y-89438605D01*
X129042329Y-89261229D01*
X128906571Y-89125471D01*
X128729195Y-89052000D01*
X128537205Y-89052000D01*
X128359829Y-89125471D01*
X128255500Y-89229800D01*
X127640412Y-89229800D01*
X127610399Y-89223830D01*
X127580386Y-89229800D01*
X127580382Y-89229800D01*
X127491473Y-89247485D01*
X127390652Y-89314852D01*
X127373648Y-89340300D01*
X127361319Y-89352629D01*
X127309129Y-89226629D01*
X127173371Y-89090871D01*
X126995995Y-89017400D01*
X126804005Y-89017400D01*
X126626629Y-89090871D01*
X126490871Y-89226629D01*
X126417400Y-89404005D01*
X126417400Y-89526547D01*
X124848748Y-91095200D01*
X124277700Y-91095200D01*
X124173371Y-90990871D01*
X123995995Y-90917400D01*
X123804005Y-90917400D01*
X123626629Y-90990871D01*
X123490871Y-91126629D01*
X123417400Y-91304005D01*
X123417400Y-91495995D01*
X123490871Y-91673371D01*
X123626629Y-91809129D01*
X123804005Y-91882600D01*
X123995995Y-91882600D01*
X124173371Y-91809129D01*
X124277700Y-91704800D01*
X124944986Y-91704800D01*
X124975000Y-91710770D01*
X125005014Y-91704800D01*
X125005018Y-91704800D01*
X125010173Y-91703775D01*
X124281208Y-92432740D01*
X123194300Y-92432740D01*
X123089971Y-92328411D01*
X122912595Y-92254940D01*
X122720605Y-92254940D01*
X122543229Y-92328411D01*
X122407471Y-92464169D01*
X122334000Y-92641545D01*
X122334000Y-92754995D01*
X122289239Y-92754995D01*
X122111863Y-92828466D01*
X121976105Y-92964224D01*
X121902634Y-93141600D01*
X121902634Y-93333590D01*
X121976105Y-93510966D01*
X122111863Y-93646724D01*
X122289239Y-93720195D01*
X122331989Y-93720195D01*
X122331989Y-93756080D01*
X122278645Y-93756080D01*
X122101269Y-93829551D01*
X121965511Y-93965309D01*
X121892040Y-94142685D01*
X121892040Y-94334675D01*
X121965511Y-94512051D01*
X122101269Y-94647809D01*
X122278645Y-94721280D01*
X122322744Y-94721280D01*
X122322744Y-94753507D01*
X122274243Y-94753507D01*
X122096867Y-94826978D01*
X121961109Y-94962736D01*
X121887638Y-95140112D01*
X111783513Y-95140112D01*
X111783513Y-88314565D01*
X113013248Y-89544300D01*
X113030252Y-89569748D01*
X113131073Y-89637115D01*
X113219982Y-89654800D01*
X113219985Y-89654800D01*
X113250000Y-89660770D01*
X113280015Y-89654800D01*
X113998748Y-89654800D01*
X114442400Y-90098453D01*
X114442400Y-90245995D01*
X114515871Y-90423371D01*
X114651629Y-90559129D01*
X114829005Y-90632600D01*
X115020995Y-90632600D01*
X115198371Y-90559129D01*
X115334129Y-90423371D01*
X115407600Y-90245995D01*
X115407600Y-90054005D01*
X115334129Y-89876629D01*
X115198371Y-89740871D01*
X115020995Y-89667400D01*
X114873453Y-89667400D01*
X114361752Y-89155700D01*
X114344748Y-89130252D01*
X114243927Y-89062885D01*
X114155018Y-89045200D01*
X114155014Y-89045200D01*
X114125000Y-89039230D01*
X114094986Y-89045200D01*
X113376252Y-89045200D01*
X112254800Y-87923748D01*
X112254800Y-87177700D01*
X112359129Y-87073371D01*
X112432600Y-86895995D01*
X112432600Y-86704005D01*
X112359129Y-86526629D01*
X112223371Y-86390871D01*
X112045995Y-86317400D01*
X111854005Y-86317400D01*
X111676629Y-86390871D01*
X111540871Y-86526629D01*
X111467400Y-86704005D01*
X111467400Y-86895995D01*
X111540871Y-87073371D01*
X111645200Y-87177700D01*
X111645200Y-87214012D01*
X111637447Y-87199693D01*
X111624667Y-87175910D01*
X111624385Y-87175568D01*
X111624175Y-87175180D01*
X111607033Y-87154520D01*
X111526923Y-87057347D01*
X111509992Y-87036623D01*
X111509511Y-87036227D01*
X111509115Y-87035746D01*
X111488389Y-87018814D01*
X111391256Y-86938738D01*
X111370560Y-86921566D01*
X111370170Y-86921355D01*
X111369827Y-86921072D01*
X111346112Y-86908329D01*
X111282772Y-86874033D01*
X111282764Y-86874023D01*
X111238022Y-86849803D01*
X111209925Y-86834590D01*
X111209909Y-86834585D01*
X111209898Y-86834579D01*
X111182503Y-86826110D01*
X111130766Y-86810112D01*
X111130754Y-86810113D01*
X111111816Y-86804259D01*
X111111418Y-86803931D01*
X111058993Y-86787930D01*
X111033153Y-86779942D01*
X111032651Y-86779890D01*
X111032170Y-86779743D01*
X111005274Y-86777048D01*
X110950740Y-86771386D01*
X110950246Y-86771533D01*
X110884621Y-86764956D01*
X110870894Y-86762226D01*
X110857374Y-86762226D01*
X110843933Y-86760879D01*
X110830014Y-86762226D01*
X107628150Y-86762226D01*
X107614231Y-86760879D01*
X107600790Y-86762226D01*
X107587271Y-86762226D01*
X107573545Y-86764956D01*
X107507919Y-86771533D01*
X107507425Y-86771386D01*
X107452857Y-86777051D01*
X107425995Y-86779743D01*
X107425515Y-86779890D01*
X107425010Y-86779942D01*
X107399064Y-86787963D01*
X107346746Y-86803931D01*
X107346348Y-86804259D01*
X107327411Y-86810113D01*
X107327398Y-86810112D01*
X107273374Y-86826817D01*
X107248267Y-86834579D01*
X107248257Y-86834584D01*
X107248239Y-86834590D01*
X107215936Y-86852081D01*
X107175401Y-86874023D01*
X107175393Y-86874032D01*
X107112006Y-86908354D01*
X107088338Y-86921072D01*
X107087997Y-86921353D01*
X107087604Y-86921566D01*
X107066804Y-86938825D01*
X106969776Y-87018814D01*
X106949050Y-87035746D01*
X106948654Y-87036227D01*
X106948173Y-87036623D01*
X106931242Y-87057347D01*
X106851132Y-87154520D01*
X106833990Y-87175180D01*
X106833780Y-87175568D01*
X106833498Y-87175910D01*
X106820730Y-87199670D01*
X106786458Y-87262968D01*
X106786449Y-87262975D01*
X106760041Y-87311758D01*
X106747015Y-87335816D01*
X106747012Y-87335827D01*
X106747004Y-87335841D01*
X106737396Y-87366923D01*
X106722537Y-87414975D01*
X106722538Y-87414987D01*
X106716684Y-87433925D01*
X106716357Y-87434322D01*
X106700371Y-87486698D01*
X106692368Y-87512587D01*
X106692316Y-87513089D01*
X106692169Y-87513570D01*
X106689473Y-87540470D01*
X106683812Y-87595000D01*
X106683959Y-87595494D01*
X106677382Y-87661128D01*
X106674653Y-87674845D01*
X106674653Y-87688355D01*
X106673305Y-87701806D01*
X98969309Y-87701806D01*
X98969309Y-86004005D01*
X108442400Y-86004005D01*
X108442400Y-86195995D01*
X108515871Y-86373371D01*
X108651629Y-86509129D01*
X108829005Y-86582600D01*
X109020995Y-86582600D01*
X109198371Y-86509129D01*
X109334129Y-86373371D01*
X109407600Y-86195995D01*
X109407600Y-86004005D01*
X109334129Y-85826629D01*
X109229800Y-85722300D01*
X109229800Y-82401252D01*
X110123453Y-81507600D01*
X110270995Y-81507600D01*
X110448371Y-81434129D01*
X110584129Y-81298371D01*
X110657600Y-81120995D01*
X110657600Y-80929005D01*
X110584129Y-80751629D01*
X110448371Y-80615871D01*
X110270995Y-80542400D01*
X110079005Y-80542400D01*
X109901629Y-80615871D01*
X109765871Y-80751629D01*
X109692400Y-80929005D01*
X109692400Y-81076547D01*
X108730700Y-82038248D01*
X108705252Y-82055252D01*
X108637885Y-82156074D01*
X108620200Y-82244983D01*
X108620200Y-82244986D01*
X108614230Y-82275000D01*
X108620200Y-82305014D01*
X108620201Y-85722299D01*
X108515871Y-85826629D01*
X108442400Y-86004005D01*
X98969309Y-86004005D01*
X98969309Y-79084462D01*
X98984059Y-78790539D01*
X99026256Y-78512579D01*
X99073093Y-78329612D01*
X99310180Y-78329612D01*
X99310180Y-79175468D01*
X99633874Y-79956936D01*
X100231984Y-80555046D01*
X101013452Y-80878740D01*
X101859308Y-80878740D01*
X102640776Y-80555046D01*
X103037872Y-80157950D01*
X104218000Y-80157950D01*
X104218000Y-80795472D01*
X104252803Y-80879492D01*
X104317109Y-80943798D01*
X104401129Y-80978600D01*
X105138650Y-80978600D01*
X105195800Y-80921450D01*
X105195800Y-80100800D01*
X105297400Y-80100800D01*
X105297400Y-80921450D01*
X105354550Y-80978600D01*
X106092071Y-80978600D01*
X106176091Y-80943798D01*
X106190884Y-80929005D01*
X107317400Y-80929005D01*
X107317400Y-81120995D01*
X107390871Y-81298371D01*
X107495201Y-81402701D01*
X107495200Y-82797300D01*
X107390871Y-82901629D01*
X107317400Y-83079005D01*
X107317400Y-83270995D01*
X107390871Y-83448371D01*
X107526629Y-83584129D01*
X107704005Y-83657600D01*
X107895995Y-83657600D01*
X108073371Y-83584129D01*
X108209129Y-83448371D01*
X108282600Y-83270995D01*
X108282600Y-83079005D01*
X108209129Y-82901629D01*
X108104800Y-82797300D01*
X108104800Y-81402700D01*
X108209129Y-81298371D01*
X108282600Y-81120995D01*
X108282600Y-80929005D01*
X108209129Y-80751629D01*
X108073371Y-80615871D01*
X107895995Y-80542400D01*
X107704005Y-80542400D01*
X107526629Y-80615871D01*
X107390871Y-80751629D01*
X107317400Y-80929005D01*
X106190884Y-80929005D01*
X106240397Y-80879492D01*
X106275200Y-80795472D01*
X106275200Y-80157950D01*
X111418000Y-80157950D01*
X111418000Y-80795472D01*
X111452803Y-80879492D01*
X111517109Y-80943798D01*
X111601129Y-80978600D01*
X112338650Y-80978600D01*
X112395800Y-80921450D01*
X112395800Y-80100800D01*
X112497400Y-80100800D01*
X112497400Y-80921450D01*
X112554550Y-80978600D01*
X113292071Y-80978600D01*
X113376091Y-80943798D01*
X113440397Y-80879492D01*
X113475200Y-80795472D01*
X113475200Y-80157950D01*
X113418050Y-80100800D01*
X112497400Y-80100800D01*
X112395800Y-80100800D01*
X111475150Y-80100800D01*
X111418000Y-80157950D01*
X106275200Y-80157950D01*
X106218050Y-80100800D01*
X105297400Y-80100800D01*
X105195800Y-80100800D01*
X104275150Y-80100800D01*
X104218000Y-80157950D01*
X103037872Y-80157950D01*
X103238886Y-79956936D01*
X103509121Y-79304528D01*
X104218000Y-79304528D01*
X104218000Y-79942050D01*
X104275150Y-79999200D01*
X105195800Y-79999200D01*
X105195800Y-79178550D01*
X105297400Y-79178550D01*
X105297400Y-79999200D01*
X106218050Y-79999200D01*
X106275200Y-79942050D01*
X106275200Y-79304528D01*
X111418000Y-79304528D01*
X111418000Y-79942050D01*
X111475150Y-79999200D01*
X112395800Y-79999200D01*
X112395800Y-79178550D01*
X112497400Y-79178550D01*
X112497400Y-79999200D01*
X113418050Y-79999200D01*
X113475200Y-79942050D01*
X113475200Y-79304528D01*
X113440397Y-79220508D01*
X113376091Y-79156202D01*
X113292071Y-79121400D01*
X112554550Y-79121400D01*
X112497400Y-79178550D01*
X112395800Y-79178550D01*
X112338650Y-79121400D01*
X111601129Y-79121400D01*
X111517109Y-79156202D01*
X111452803Y-79220508D01*
X111418000Y-79304528D01*
X106275200Y-79304528D01*
X106240397Y-79220508D01*
X106176091Y-79156202D01*
X106092071Y-79121400D01*
X105354550Y-79121400D01*
X105297400Y-79178550D01*
X105195800Y-79178550D01*
X105138650Y-79121400D01*
X104401129Y-79121400D01*
X104317109Y-79156202D01*
X104252803Y-79220508D01*
X104218000Y-79304528D01*
X103509121Y-79304528D01*
X103562580Y-79175468D01*
X103562580Y-78329612D01*
X103238886Y-77548144D01*
X102640776Y-76950034D01*
X101859308Y-76626340D01*
X101013452Y-76626340D01*
X100231984Y-76950034D01*
X99633874Y-77548144D01*
X99310180Y-78329612D01*
X99073093Y-78329612D01*
X99094834Y-78244684D01*
X99188417Y-77988088D01*
X99305656Y-77744060D01*
X99445191Y-77513958D01*
X99605653Y-77299161D01*
X99785649Y-77101082D01*
X99983779Y-76921124D01*
X100198612Y-76760711D01*
X100428771Y-76621205D01*
X100672829Y-76504004D01*
X100929473Y-76410445D01*
X101197405Y-76341886D01*
X101475403Y-76299701D01*
X101769328Y-76284957D01*
X104226460Y-76284957D01*
X104213522Y-76350000D01*
G04 #@! TD*
M02*
