G04 #@! TF.GenerationSoftware,KiCad,Pcbnew,5.0.2+dfsg1-1*
G04 #@! TF.CreationDate,2020-12-10T00:07:48-08:00*
G04 #@! TF.ProjectId,chronopy,6368726f-6e6f-4707-992e-6b696361645f,rev?*
G04 #@! TF.SameCoordinates,Original*
G04 #@! TF.FileFunction,Soldermask,Bot*
G04 #@! TF.FilePolarity,Negative*
%FSLAX46Y46*%
G04 Gerber Fmt 4.6, Leading zero omitted, Abs format (unit mm)*
G04 Created by KiCad (PCBNEW 5.0.2+dfsg1-1) date Thu 10 Dec 2020 12:07:48 AM PST*
%MOMM*%
%LPD*%
G01*
G04 APERTURE LIST*
%ADD10C,0.010000*%
%ADD11C,0.100000*%
G04 APERTURE END LIST*
D10*
G04 #@! TO.C,Ref\002A\002A*
G36*
X99820687Y-103890379D02*
X99821502Y-103961693D01*
X99827081Y-104000538D01*
X99842129Y-104016778D01*
X99871350Y-104020278D01*
X99882651Y-104020319D01*
X99949786Y-104039482D01*
X99999951Y-104092384D01*
X100028093Y-104172142D01*
X100032354Y-104224257D01*
X100017459Y-104314839D01*
X99974383Y-104375300D01*
X99905536Y-104403314D01*
X99847145Y-104402899D01*
X99831014Y-104416385D01*
X99822534Y-104464751D01*
X99820687Y-104527391D01*
X99820687Y-104655319D01*
X99921229Y-104653977D01*
X99993301Y-104648947D01*
X100055230Y-104637897D01*
X100071615Y-104632672D01*
X100187066Y-104566326D01*
X100269954Y-104473049D01*
X100319985Y-104353309D01*
X100336860Y-104209531D01*
X100320165Y-104067365D01*
X100270196Y-103950238D01*
X100188933Y-103860376D01*
X100078355Y-103800000D01*
X99947155Y-103771907D01*
X99820687Y-103760439D01*
X99820687Y-103890379D01*
X99820687Y-103890379D01*
G37*
X99820687Y-103890379D02*
X99821502Y-103961693D01*
X99827081Y-104000538D01*
X99842129Y-104016778D01*
X99871350Y-104020278D01*
X99882651Y-104020319D01*
X99949786Y-104039482D01*
X99999951Y-104092384D01*
X100028093Y-104172142D01*
X100032354Y-104224257D01*
X100017459Y-104314839D01*
X99974383Y-104375300D01*
X99905536Y-104403314D01*
X99847145Y-104402899D01*
X99831014Y-104416385D01*
X99822534Y-104464751D01*
X99820687Y-104527391D01*
X99820687Y-104655319D01*
X99921229Y-104653977D01*
X99993301Y-104648947D01*
X100055230Y-104637897D01*
X100071615Y-104632672D01*
X100187066Y-104566326D01*
X100269954Y-104473049D01*
X100319985Y-104353309D01*
X100336860Y-104209531D01*
X100320165Y-104067365D01*
X100270196Y-103950238D01*
X100188933Y-103860376D01*
X100078355Y-103800000D01*
X99947155Y-103771907D01*
X99820687Y-103760439D01*
X99820687Y-103890379D01*
G36*
X100371020Y-104655319D02*
X100667354Y-104655319D01*
X100667354Y-103766319D01*
X100371020Y-103766319D01*
X100371020Y-104655319D01*
X100371020Y-104655319D01*
G37*
X100371020Y-104655319D02*
X100667354Y-104655319D01*
X100667354Y-103766319D01*
X100371020Y-103766319D01*
X100371020Y-104655319D01*
G36*
X101793510Y-103770665D02*
X101651604Y-103776902D01*
X101577520Y-104036095D01*
X101548735Y-104133577D01*
X101523133Y-104214333D01*
X101503275Y-104270691D01*
X101491724Y-104294981D01*
X101490913Y-104295386D01*
X101478088Y-104277133D01*
X101460323Y-104230962D01*
X101452485Y-104205527D01*
X101433879Y-104141715D01*
X101408077Y-104054240D01*
X101380061Y-103959980D01*
X101374573Y-103941605D01*
X101322563Y-103767642D01*
X100709687Y-103767642D01*
X100709687Y-104657173D01*
X100863145Y-104650954D01*
X101016604Y-104644736D01*
X101027187Y-104221402D01*
X101037770Y-103798069D01*
X101194440Y-104227556D01*
X101351110Y-104657044D01*
X101500223Y-104650890D01*
X101649335Y-104644736D01*
X101724553Y-104393104D01*
X101799770Y-104141473D01*
X101881264Y-104398396D01*
X101962757Y-104655319D01*
X102109470Y-104655319D01*
X102202390Y-104651404D01*
X102254163Y-104639609D01*
X102265617Y-104628861D01*
X102275430Y-104601687D01*
X102297376Y-104541111D01*
X102329137Y-104453519D01*
X102368399Y-104345299D01*
X102412844Y-104222840D01*
X102423703Y-104192927D01*
X102468371Y-104069442D01*
X102507669Y-103959962D01*
X102539449Y-103870537D01*
X102561566Y-103807215D01*
X102571873Y-103776046D01*
X102572354Y-103773958D01*
X102552979Y-103770125D01*
X102501893Y-103768839D01*
X102429657Y-103770328D01*
X102420589Y-103770683D01*
X102268823Y-103776902D01*
X102242131Y-103861569D01*
X102223819Y-103920691D01*
X102197978Y-104005423D01*
X102169163Y-104100801D01*
X102158378Y-104136736D01*
X102101316Y-104327236D01*
X102070990Y-104221402D01*
X102050053Y-104149326D01*
X102022290Y-104055052D01*
X101993102Y-103956909D01*
X101988040Y-103939999D01*
X101935417Y-103764429D01*
X101793510Y-103770665D01*
X101793510Y-103770665D01*
G37*
X101793510Y-103770665D02*
X101651604Y-103776902D01*
X101577520Y-104036095D01*
X101548735Y-104133577D01*
X101523133Y-104214333D01*
X101503275Y-104270691D01*
X101491724Y-104294981D01*
X101490913Y-104295386D01*
X101478088Y-104277133D01*
X101460323Y-104230962D01*
X101452485Y-104205527D01*
X101433879Y-104141715D01*
X101408077Y-104054240D01*
X101380061Y-103959980D01*
X101374573Y-103941605D01*
X101322563Y-103767642D01*
X100709687Y-103767642D01*
X100709687Y-104657173D01*
X100863145Y-104650954D01*
X101016604Y-104644736D01*
X101027187Y-104221402D01*
X101037770Y-103798069D01*
X101194440Y-104227556D01*
X101351110Y-104657044D01*
X101500223Y-104650890D01*
X101649335Y-104644736D01*
X101724553Y-104393104D01*
X101799770Y-104141473D01*
X101881264Y-104398396D01*
X101962757Y-104655319D01*
X102109470Y-104655319D01*
X102202390Y-104651404D01*
X102254163Y-104639609D01*
X102265617Y-104628861D01*
X102275430Y-104601687D01*
X102297376Y-104541111D01*
X102329137Y-104453519D01*
X102368399Y-104345299D01*
X102412844Y-104222840D01*
X102423703Y-104192927D01*
X102468371Y-104069442D01*
X102507669Y-103959962D01*
X102539449Y-103870537D01*
X102561566Y-103807215D01*
X102571873Y-103776046D01*
X102572354Y-103773958D01*
X102552979Y-103770125D01*
X102501893Y-103768839D01*
X102429657Y-103770328D01*
X102420589Y-103770683D01*
X102268823Y-103776902D01*
X102242131Y-103861569D01*
X102223819Y-103920691D01*
X102197978Y-104005423D01*
X102169163Y-104100801D01*
X102158378Y-104136736D01*
X102101316Y-104327236D01*
X102070990Y-104221402D01*
X102050053Y-104149326D01*
X102022290Y-104055052D01*
X101993102Y-103956909D01*
X101988040Y-103939999D01*
X101935417Y-103764429D01*
X101793510Y-103770665D01*
G36*
X102598483Y-104364277D02*
X102604104Y-104962236D01*
X102742584Y-104968394D01*
X102815732Y-104969419D01*
X102871257Y-104966065D01*
X102896042Y-104959575D01*
X102902695Y-104932999D01*
X102907831Y-104874564D01*
X102910684Y-104794737D01*
X102911020Y-104754344D01*
X102911346Y-104664564D01*
X102913540Y-104610630D01*
X102919428Y-104586050D01*
X102930835Y-104584338D01*
X102949588Y-104599003D01*
X102953682Y-104602699D01*
X103008133Y-104630643D01*
X103088641Y-104647729D01*
X103179993Y-104652538D01*
X103266979Y-104643646D01*
X103299891Y-104635047D01*
X103358927Y-104603662D01*
X103422307Y-104552541D01*
X103449493Y-104524074D01*
X103515648Y-104418822D01*
X103551124Y-104300147D01*
X103555126Y-104221166D01*
X103249687Y-104221166D01*
X103234013Y-104308201D01*
X103192466Y-104373529D01*
X103133260Y-104412870D01*
X103064612Y-104421946D01*
X102994734Y-104396476D01*
X102962975Y-104370531D01*
X102927708Y-104323097D01*
X102912821Y-104263553D01*
X102911020Y-104218437D01*
X102925134Y-104122172D01*
X102967172Y-104057372D01*
X103036677Y-104024563D01*
X103082507Y-104020319D01*
X103161587Y-104038185D01*
X103217028Y-104089520D01*
X103246005Y-104170930D01*
X103249687Y-104221166D01*
X103555126Y-104221166D01*
X103557399Y-104176326D01*
X103535947Y-104055636D01*
X103488244Y-103946354D01*
X103415767Y-103856758D01*
X103319990Y-103795126D01*
X103319489Y-103794916D01*
X103224976Y-103770952D01*
X103121011Y-103768592D01*
X103025761Y-103787176D01*
X102981872Y-103807168D01*
X102937684Y-103832660D01*
X102916934Y-103835849D01*
X102907070Y-103816720D01*
X102904479Y-103807088D01*
X102893552Y-103785541D01*
X102868491Y-103773177D01*
X102819734Y-103767577D01*
X102743339Y-103766319D01*
X102592861Y-103766319D01*
X102598483Y-104364277D01*
X102598483Y-104364277D01*
G37*
X102598483Y-104364277D02*
X102604104Y-104962236D01*
X102742584Y-104968394D01*
X102815732Y-104969419D01*
X102871257Y-104966065D01*
X102896042Y-104959575D01*
X102902695Y-104932999D01*
X102907831Y-104874564D01*
X102910684Y-104794737D01*
X102911020Y-104754344D01*
X102911346Y-104664564D01*
X102913540Y-104610630D01*
X102919428Y-104586050D01*
X102930835Y-104584338D01*
X102949588Y-104599003D01*
X102953682Y-104602699D01*
X103008133Y-104630643D01*
X103088641Y-104647729D01*
X103179993Y-104652538D01*
X103266979Y-104643646D01*
X103299891Y-104635047D01*
X103358927Y-104603662D01*
X103422307Y-104552541D01*
X103449493Y-104524074D01*
X103515648Y-104418822D01*
X103551124Y-104300147D01*
X103555126Y-104221166D01*
X103249687Y-104221166D01*
X103234013Y-104308201D01*
X103192466Y-104373529D01*
X103133260Y-104412870D01*
X103064612Y-104421946D01*
X102994734Y-104396476D01*
X102962975Y-104370531D01*
X102927708Y-104323097D01*
X102912821Y-104263553D01*
X102911020Y-104218437D01*
X102925134Y-104122172D01*
X102967172Y-104057372D01*
X103036677Y-104024563D01*
X103082507Y-104020319D01*
X103161587Y-104038185D01*
X103217028Y-104089520D01*
X103246005Y-104170930D01*
X103249687Y-104221166D01*
X103555126Y-104221166D01*
X103557399Y-104176326D01*
X103535947Y-104055636D01*
X103488244Y-103946354D01*
X103415767Y-103856758D01*
X103319990Y-103795126D01*
X103319489Y-103794916D01*
X103224976Y-103770952D01*
X103121011Y-103768592D01*
X103025761Y-103787176D01*
X102981872Y-103807168D01*
X102937684Y-103832660D01*
X102916934Y-103835849D01*
X102907070Y-103816720D01*
X102904479Y-103807088D01*
X102893552Y-103785541D01*
X102868491Y-103773177D01*
X102819734Y-103767577D01*
X102743339Y-103766319D01*
X102592861Y-103766319D01*
X102598483Y-104364277D01*
D11*
G36*
X117204678Y-118484076D02*
X116753878Y-118484076D01*
X116753878Y-117833276D01*
X117204678Y-117833276D01*
X117204678Y-118484076D01*
X117204678Y-118484076D01*
G37*
G36*
X116304678Y-118484076D02*
X115853878Y-118484076D01*
X115853878Y-117833276D01*
X116304678Y-117833276D01*
X116304678Y-118484076D01*
X116304678Y-118484076D01*
G37*
G36*
X123506400Y-118283400D02*
X122855600Y-118283400D01*
X122855600Y-117732600D01*
X123506400Y-117732600D01*
X123506400Y-118283400D01*
X123506400Y-118283400D01*
G37*
G36*
X124606400Y-118283400D02*
X123955600Y-118283400D01*
X123955600Y-117732600D01*
X124606400Y-117732600D01*
X124606400Y-118283400D01*
X124606400Y-118283400D01*
G37*
G36*
X110689435Y-118112073D02*
X110238635Y-118112073D01*
X110238635Y-117461273D01*
X110689435Y-117461273D01*
X110689435Y-118112073D01*
X110689435Y-118112073D01*
G37*
G36*
X109789435Y-118112073D02*
X109338635Y-118112073D01*
X109338635Y-117461273D01*
X109789435Y-117461273D01*
X109789435Y-118112073D01*
X109789435Y-118112073D01*
G37*
G36*
X139372376Y-114836938D02*
X139372379Y-114836939D01*
X139372378Y-114836939D01*
X139640884Y-114948157D01*
X139640885Y-114948158D01*
X139882536Y-115109624D01*
X140088036Y-115315124D01*
X140088038Y-115315127D01*
X140249503Y-115556776D01*
X140335526Y-115764454D01*
X140360722Y-115825284D01*
X140417420Y-116110324D01*
X140417420Y-116400956D01*
X140360722Y-116685996D01*
X140360721Y-116685998D01*
X140249503Y-116954504D01*
X140249502Y-116954505D01*
X140088036Y-117196156D01*
X139882536Y-117401656D01*
X139882533Y-117401658D01*
X139640884Y-117563123D01*
X139433206Y-117649146D01*
X139372376Y-117674342D01*
X139087336Y-117731040D01*
X138796704Y-117731040D01*
X138511664Y-117674342D01*
X138450834Y-117649146D01*
X138243156Y-117563123D01*
X138001507Y-117401658D01*
X138001504Y-117401656D01*
X137796004Y-117196156D01*
X137634538Y-116954505D01*
X137634537Y-116954504D01*
X137523319Y-116685998D01*
X137523318Y-116685996D01*
X137466620Y-116400956D01*
X137466620Y-116110324D01*
X137523318Y-115825284D01*
X137548514Y-115764454D01*
X137634537Y-115556776D01*
X137796002Y-115315127D01*
X137796004Y-115315124D01*
X138001504Y-115109624D01*
X138243155Y-114948158D01*
X138243156Y-114948157D01*
X138511662Y-114836939D01*
X138511661Y-114836939D01*
X138511664Y-114836938D01*
X138796704Y-114780240D01*
X139087336Y-114780240D01*
X139372376Y-114836938D01*
X139372376Y-114836938D01*
G37*
G36*
X101874356Y-114834398D02*
X101935186Y-114859594D01*
X102142864Y-114945617D01*
X102375589Y-115101119D01*
X102384516Y-115107084D01*
X102590016Y-115312584D01*
X102590018Y-115312587D01*
X102751483Y-115554236D01*
X102837506Y-115761914D01*
X102862702Y-115822744D01*
X102919400Y-116107784D01*
X102919400Y-116398416D01*
X102862702Y-116683456D01*
X102862701Y-116683458D01*
X102751483Y-116951964D01*
X102749785Y-116954505D01*
X102590016Y-117193616D01*
X102384516Y-117399116D01*
X102384513Y-117399118D01*
X102142864Y-117560583D01*
X101935186Y-117646606D01*
X101874356Y-117671802D01*
X101589316Y-117728500D01*
X101298684Y-117728500D01*
X101013644Y-117671802D01*
X100952814Y-117646606D01*
X100745136Y-117560583D01*
X100503487Y-117399118D01*
X100503484Y-117399116D01*
X100297984Y-117193616D01*
X100138215Y-116954505D01*
X100136517Y-116951964D01*
X100025299Y-116683458D01*
X100025298Y-116683456D01*
X99968600Y-116398416D01*
X99968600Y-116107784D01*
X100025298Y-115822744D01*
X100050494Y-115761914D01*
X100136517Y-115554236D01*
X100297982Y-115312587D01*
X100297984Y-115312584D01*
X100503484Y-115107084D01*
X100512411Y-115101119D01*
X100745136Y-114945617D01*
X100952814Y-114859594D01*
X101013644Y-114834398D01*
X101298684Y-114777700D01*
X101589316Y-114777700D01*
X101874356Y-114834398D01*
X101874356Y-114834398D01*
G37*
G36*
X131988354Y-117201119D02*
X125937554Y-117201119D01*
X125937554Y-113750319D01*
X131988354Y-113750319D01*
X131988354Y-117201119D01*
X131988354Y-117201119D01*
G37*
G36*
X133988354Y-117201119D02*
X132537554Y-117201119D01*
X132537554Y-115850319D01*
X133988354Y-115850319D01*
X133988354Y-117201119D01*
X133988354Y-117201119D01*
G37*
G36*
X116304678Y-117164076D02*
X115653878Y-117164076D01*
X115653878Y-116613276D01*
X116304678Y-116613276D01*
X116304678Y-117164076D01*
X116304678Y-117164076D01*
G37*
G36*
X117404678Y-117164076D02*
X116753878Y-117164076D01*
X116753878Y-116613276D01*
X117404678Y-116613276D01*
X117404678Y-117164076D01*
X117404678Y-117164076D01*
G37*
G36*
X135715754Y-116876519D02*
X135214954Y-116876519D01*
X135214954Y-116225719D01*
X135715754Y-116225719D01*
X135715754Y-116876519D01*
X135715754Y-116876519D01*
G37*
G36*
X122862102Y-115321139D02*
X122898375Y-115332142D01*
X122931802Y-115350010D01*
X122961100Y-115374053D01*
X122985143Y-115403351D01*
X123003011Y-115436778D01*
X123014014Y-115473051D01*
X123018334Y-115516910D01*
X123018334Y-116567528D01*
X123014014Y-116611387D01*
X123003011Y-116647660D01*
X122985143Y-116681087D01*
X122961100Y-116710385D01*
X122931802Y-116734428D01*
X122898375Y-116752296D01*
X122862102Y-116763299D01*
X122818243Y-116767619D01*
X122192625Y-116767619D01*
X122148766Y-116763299D01*
X122112493Y-116752296D01*
X122079066Y-116734428D01*
X122049768Y-116710385D01*
X122025725Y-116681087D01*
X122007857Y-116647660D01*
X121996854Y-116611387D01*
X121992534Y-116567528D01*
X121992534Y-115516910D01*
X121996854Y-115473051D01*
X122007857Y-115436778D01*
X122025725Y-115403351D01*
X122049768Y-115374053D01*
X122079066Y-115350010D01*
X122112493Y-115332142D01*
X122148766Y-115321139D01*
X122192625Y-115316819D01*
X122818243Y-115316819D01*
X122862102Y-115321139D01*
X122862102Y-115321139D01*
G37*
G36*
X124737102Y-115321139D02*
X124773375Y-115332142D01*
X124806802Y-115350010D01*
X124836100Y-115374053D01*
X124860143Y-115403351D01*
X124878011Y-115436778D01*
X124889014Y-115473051D01*
X124893334Y-115516910D01*
X124893334Y-116567528D01*
X124889014Y-116611387D01*
X124878011Y-116647660D01*
X124860143Y-116681087D01*
X124836100Y-116710385D01*
X124806802Y-116734428D01*
X124773375Y-116752296D01*
X124737102Y-116763299D01*
X124693243Y-116767619D01*
X124067625Y-116767619D01*
X124023766Y-116763299D01*
X123987493Y-116752296D01*
X123954066Y-116734428D01*
X123924768Y-116710385D01*
X123900725Y-116681087D01*
X123882857Y-116647660D01*
X123871854Y-116611387D01*
X123867534Y-116567528D01*
X123867534Y-115516910D01*
X123871854Y-115473051D01*
X123882857Y-115436778D01*
X123900725Y-115403351D01*
X123924768Y-115374053D01*
X123954066Y-115350010D01*
X123987493Y-115332142D01*
X124023766Y-115321139D01*
X124067625Y-115316819D01*
X124693243Y-115316819D01*
X124737102Y-115321139D01*
X124737102Y-115321139D01*
G37*
G36*
X107249435Y-115546673D02*
X106798635Y-115546673D01*
X106798635Y-114895873D01*
X107249435Y-114895873D01*
X107249435Y-115546673D01*
X107249435Y-115546673D01*
G37*
G36*
X108149435Y-115546673D02*
X107698635Y-115546673D01*
X107698635Y-114895873D01*
X108149435Y-114895873D01*
X108149435Y-115546673D01*
X108149435Y-115546673D01*
G37*
G36*
X133988354Y-115101119D02*
X132537554Y-115101119D01*
X132537554Y-113750319D01*
X133988354Y-113750319D01*
X133988354Y-115101119D01*
X133988354Y-115101119D01*
G37*
G36*
X112630400Y-114885400D02*
X112179600Y-114885400D01*
X112179600Y-114234600D01*
X112630400Y-114234600D01*
X112630400Y-114885400D01*
X112630400Y-114885400D01*
G37*
G36*
X111730400Y-114885400D02*
X111279600Y-114885400D01*
X111279600Y-114234600D01*
X111730400Y-114234600D01*
X111730400Y-114885400D01*
X111730400Y-114885400D01*
G37*
G36*
X135715754Y-114776519D02*
X135214954Y-114776519D01*
X135214954Y-114125719D01*
X135715754Y-114125719D01*
X135715754Y-114776519D01*
X135715754Y-114776519D01*
G37*
G36*
X124737102Y-113162139D02*
X124773375Y-113173142D01*
X124806802Y-113191010D01*
X124836100Y-113215053D01*
X124860143Y-113244351D01*
X124878011Y-113277778D01*
X124889014Y-113314051D01*
X124893334Y-113357910D01*
X124893334Y-114408528D01*
X124889014Y-114452387D01*
X124878011Y-114488660D01*
X124860143Y-114522087D01*
X124836100Y-114551385D01*
X124806802Y-114575428D01*
X124773375Y-114593296D01*
X124737102Y-114604299D01*
X124693243Y-114608619D01*
X124067625Y-114608619D01*
X124023766Y-114604299D01*
X123987493Y-114593296D01*
X123954066Y-114575428D01*
X123924768Y-114551385D01*
X123900725Y-114522087D01*
X123882857Y-114488660D01*
X123871854Y-114452387D01*
X123867534Y-114408528D01*
X123867534Y-113357910D01*
X123871854Y-113314051D01*
X123882857Y-113277778D01*
X123900725Y-113244351D01*
X123924768Y-113215053D01*
X123954066Y-113191010D01*
X123987493Y-113173142D01*
X124023766Y-113162139D01*
X124067625Y-113157819D01*
X124693243Y-113157819D01*
X124737102Y-113162139D01*
X124737102Y-113162139D01*
G37*
G36*
X122862102Y-113162139D02*
X122898375Y-113173142D01*
X122931802Y-113191010D01*
X122961100Y-113215053D01*
X122985143Y-113244351D01*
X123003011Y-113277778D01*
X123014014Y-113314051D01*
X123018334Y-113357910D01*
X123018334Y-114408528D01*
X123014014Y-114452387D01*
X123003011Y-114488660D01*
X122985143Y-114522087D01*
X122961100Y-114551385D01*
X122931802Y-114575428D01*
X122898375Y-114593296D01*
X122862102Y-114604299D01*
X122818243Y-114608619D01*
X122192625Y-114608619D01*
X122148766Y-114604299D01*
X122112493Y-114593296D01*
X122079066Y-114575428D01*
X122049768Y-114551385D01*
X122025725Y-114522087D01*
X122007857Y-114488660D01*
X121996854Y-114452387D01*
X121992534Y-114408528D01*
X121992534Y-113357910D01*
X121996854Y-113314051D01*
X122007857Y-113277778D01*
X122025725Y-113244351D01*
X122049768Y-113215053D01*
X122079066Y-113191010D01*
X122112493Y-113173142D01*
X122148766Y-113162139D01*
X122192625Y-113157819D01*
X122818243Y-113157819D01*
X122862102Y-113162139D01*
X122862102Y-113162139D01*
G37*
G36*
X140146854Y-112896345D02*
X140215173Y-112924644D01*
X140276658Y-112965727D01*
X140328946Y-113018015D01*
X140370029Y-113079500D01*
X140398328Y-113147819D01*
X140412754Y-113220344D01*
X140412754Y-113294294D01*
X140398328Y-113366819D01*
X140370029Y-113435138D01*
X140328946Y-113496623D01*
X140276658Y-113548911D01*
X140215173Y-113589994D01*
X140146854Y-113618293D01*
X140074329Y-113632719D01*
X140000379Y-113632719D01*
X139927854Y-113618293D01*
X139859535Y-113589994D01*
X139798050Y-113548911D01*
X139745762Y-113496623D01*
X139704679Y-113435138D01*
X139676380Y-113366819D01*
X139661954Y-113294294D01*
X139661954Y-113220344D01*
X139676380Y-113147819D01*
X139704679Y-113079500D01*
X139745762Y-113018015D01*
X139798050Y-112965727D01*
X139859535Y-112924644D01*
X139927854Y-112896345D01*
X140000379Y-112881919D01*
X140074329Y-112881919D01*
X140146854Y-112896345D01*
X140146854Y-112896345D01*
G37*
G36*
X100522854Y-112896345D02*
X100591173Y-112924644D01*
X100652658Y-112965727D01*
X100704946Y-113018015D01*
X100746029Y-113079500D01*
X100774328Y-113147819D01*
X100788754Y-113220344D01*
X100788754Y-113294294D01*
X100774328Y-113366819D01*
X100746029Y-113435138D01*
X100704946Y-113496623D01*
X100652658Y-113548911D01*
X100591173Y-113589994D01*
X100522854Y-113618293D01*
X100450329Y-113632719D01*
X100376379Y-113632719D01*
X100303854Y-113618293D01*
X100235535Y-113589994D01*
X100174050Y-113548911D01*
X100121762Y-113496623D01*
X100080679Y-113435138D01*
X100052380Y-113366819D01*
X100037954Y-113294294D01*
X100037954Y-113220344D01*
X100052380Y-113147819D01*
X100080679Y-113079500D01*
X100121762Y-113018015D01*
X100174050Y-112965727D01*
X100235535Y-112924644D01*
X100303854Y-112896345D01*
X100376379Y-112881919D01*
X100450329Y-112881919D01*
X100522854Y-112896345D01*
X100522854Y-112896345D01*
G37*
G36*
X117249715Y-109630635D02*
X117261266Y-109652246D01*
X117276812Y-109671188D01*
X117295754Y-109686734D01*
X117317365Y-109698285D01*
X117340814Y-109705398D01*
X117365200Y-109707800D01*
X117945200Y-109707800D01*
X117945200Y-113048600D01*
X117365200Y-113048600D01*
X117340814Y-113051002D01*
X117317365Y-113058115D01*
X117295754Y-113069666D01*
X117276812Y-113085212D01*
X117261266Y-113104154D01*
X117249715Y-113125765D01*
X117245822Y-113138600D01*
X115613778Y-113138600D01*
X115609885Y-113125765D01*
X115598334Y-113104154D01*
X115582788Y-113085212D01*
X115563846Y-113069666D01*
X115542235Y-113058115D01*
X115518786Y-113051002D01*
X115494400Y-113048600D01*
X114914400Y-113048600D01*
X114914400Y-110323600D01*
X115495200Y-110323600D01*
X115495200Y-112432800D01*
X115497602Y-112457186D01*
X115504715Y-112480635D01*
X115516266Y-112502246D01*
X115531812Y-112521188D01*
X115550754Y-112536734D01*
X115572365Y-112548285D01*
X115595814Y-112555398D01*
X115620200Y-112557800D01*
X117239400Y-112557800D01*
X117263786Y-112555398D01*
X117287235Y-112548285D01*
X117308846Y-112536734D01*
X117327788Y-112521188D01*
X117343334Y-112502246D01*
X117354885Y-112480635D01*
X117361998Y-112457186D01*
X117364400Y-112432800D01*
X117364400Y-110323600D01*
X117361998Y-110299214D01*
X117354885Y-110275765D01*
X117343334Y-110254154D01*
X117327788Y-110235212D01*
X117308846Y-110219666D01*
X117287235Y-110208115D01*
X117263786Y-110201002D01*
X117239400Y-110198600D01*
X115620200Y-110198600D01*
X115595814Y-110201002D01*
X115572365Y-110208115D01*
X115550754Y-110219666D01*
X115531812Y-110235212D01*
X115516266Y-110254154D01*
X115504715Y-110275765D01*
X115497602Y-110299214D01*
X115495200Y-110323600D01*
X114914400Y-110323600D01*
X114914400Y-109707800D01*
X115494400Y-109707800D01*
X115518786Y-109705398D01*
X115542235Y-109698285D01*
X115563846Y-109686734D01*
X115582788Y-109671188D01*
X115598334Y-109652246D01*
X115609885Y-109630635D01*
X115613778Y-109617800D01*
X117245822Y-109617800D01*
X117249715Y-109630635D01*
X117249715Y-109630635D01*
G37*
G36*
X112685200Y-113073600D02*
X112034400Y-113073600D01*
X112034400Y-112522800D01*
X112685200Y-112522800D01*
X112685200Y-113073600D01*
X112685200Y-113073600D01*
G37*
G36*
X113785200Y-113073600D02*
X113134400Y-113073600D01*
X113134400Y-112522800D01*
X113785200Y-112522800D01*
X113785200Y-113073600D01*
X113785200Y-113073600D01*
G37*
G36*
X127813554Y-112658519D02*
X126962754Y-112658519D01*
X126962754Y-111707719D01*
X127813554Y-111707719D01*
X127813554Y-112658519D01*
X127813554Y-112658519D01*
G37*
G36*
X100875400Y-112519400D02*
X99024600Y-112519400D01*
X99024600Y-111268600D01*
X100875400Y-111268600D01*
X100875400Y-112519400D01*
X100875400Y-112519400D01*
G37*
G36*
X131351854Y-110935369D02*
X131447470Y-110974974D01*
X131533526Y-111032475D01*
X131606703Y-111105652D01*
X131664204Y-111191708D01*
X131703809Y-111287324D01*
X131724000Y-111388831D01*
X131724000Y-111492325D01*
X131703809Y-111593832D01*
X131664204Y-111689448D01*
X131606703Y-111775504D01*
X131533526Y-111848681D01*
X131447470Y-111906182D01*
X131351854Y-111945787D01*
X131250347Y-111965978D01*
X131146853Y-111965978D01*
X131045346Y-111945787D01*
X130949730Y-111906182D01*
X130863674Y-111848681D01*
X130790497Y-111775504D01*
X130732996Y-111689448D01*
X130693391Y-111593832D01*
X130673200Y-111492325D01*
X130673200Y-111388831D01*
X130693391Y-111287324D01*
X130732996Y-111191708D01*
X130790497Y-111105652D01*
X130863674Y-111032475D01*
X130949730Y-110974974D01*
X131045346Y-110935369D01*
X131146853Y-110915178D01*
X131250347Y-110915178D01*
X131351854Y-110935369D01*
X131351854Y-110935369D01*
G37*
G36*
X134318254Y-110904791D02*
X134413870Y-110944396D01*
X134499926Y-111001897D01*
X134573103Y-111075074D01*
X134630604Y-111161130D01*
X134670209Y-111256746D01*
X134690400Y-111358253D01*
X134690400Y-111461747D01*
X134670209Y-111563254D01*
X134630604Y-111658870D01*
X134573103Y-111744926D01*
X134499926Y-111818103D01*
X134413870Y-111875604D01*
X134318254Y-111915209D01*
X134216747Y-111935400D01*
X134113253Y-111935400D01*
X134011746Y-111915209D01*
X133916130Y-111875604D01*
X133830074Y-111818103D01*
X133756897Y-111744926D01*
X133699396Y-111658870D01*
X133659791Y-111563254D01*
X133639600Y-111461747D01*
X133639600Y-111358253D01*
X133659791Y-111256746D01*
X133699396Y-111161130D01*
X133756897Y-111075074D01*
X133830074Y-111001897D01*
X133916130Y-110944396D01*
X134011746Y-110904791D01*
X134113253Y-110884600D01*
X134216747Y-110884600D01*
X134318254Y-110904791D01*
X134318254Y-110904791D01*
G37*
G36*
X112705200Y-111653600D02*
X112054400Y-111653600D01*
X112054400Y-111102800D01*
X112705200Y-111102800D01*
X112705200Y-111653600D01*
X112705200Y-111653600D01*
G37*
G36*
X113805200Y-111653600D02*
X113154400Y-111653600D01*
X113154400Y-111102800D01*
X113805200Y-111102800D01*
X113805200Y-111653600D01*
X113805200Y-111653600D01*
G37*
G36*
X120105200Y-111203600D02*
X119654400Y-111203600D01*
X119654400Y-110552800D01*
X120105200Y-110552800D01*
X120105200Y-111203600D01*
X120105200Y-111203600D01*
G37*
G36*
X119205200Y-111203600D02*
X118754400Y-111203600D01*
X118754400Y-110552800D01*
X119205200Y-110552800D01*
X119205200Y-111203600D01*
X119205200Y-111203600D01*
G37*
G36*
X104625400Y-110919400D02*
X103024600Y-110919400D01*
X103024600Y-110268600D01*
X104625400Y-110268600D01*
X104625400Y-110919400D01*
X104625400Y-110919400D01*
G37*
G36*
X128763554Y-110658519D02*
X127912754Y-110658519D01*
X127912754Y-109707719D01*
X128763554Y-109707719D01*
X128763554Y-110658519D01*
X128763554Y-110658519D01*
G37*
G36*
X126863554Y-110658519D02*
X126012754Y-110658519D01*
X126012754Y-109707719D01*
X126863554Y-109707719D01*
X126863554Y-110658519D01*
X126863554Y-110658519D01*
G37*
G36*
X113805200Y-110653600D02*
X113154400Y-110653600D01*
X113154400Y-110102800D01*
X113805200Y-110102800D01*
X113805200Y-110653600D01*
X113805200Y-110653600D01*
G37*
G36*
X112705200Y-110653600D02*
X112054400Y-110653600D01*
X112054400Y-110102800D01*
X112705200Y-110102800D01*
X112705200Y-110653600D01*
X112705200Y-110653600D01*
G37*
G36*
X125414754Y-110492519D02*
X124963954Y-110492519D01*
X124963954Y-109841719D01*
X125414754Y-109841719D01*
X125414754Y-110492519D01*
X125414754Y-110492519D01*
G37*
G36*
X124514754Y-110492519D02*
X124063954Y-110492519D01*
X124063954Y-109841719D01*
X124514754Y-109841719D01*
X124514754Y-110492519D01*
X124514754Y-110492519D01*
G37*
G36*
X119205200Y-110203600D02*
X118754400Y-110203600D01*
X118754400Y-109552800D01*
X119205200Y-109552800D01*
X119205200Y-110203600D01*
X119205200Y-110203600D01*
G37*
G36*
X120105200Y-110203600D02*
X119654400Y-110203600D01*
X119654400Y-109552800D01*
X120105200Y-109552800D01*
X120105200Y-110203600D01*
X120105200Y-110203600D01*
G37*
G36*
X132413000Y-109945800D02*
X131762200Y-109945800D01*
X131762200Y-109495000D01*
X132413000Y-109495000D01*
X132413000Y-109945800D01*
X132413000Y-109945800D01*
G37*
G36*
X133683000Y-109945800D02*
X133032200Y-109945800D01*
X133032200Y-109495000D01*
X133683000Y-109495000D01*
X133683000Y-109945800D01*
X133683000Y-109945800D01*
G37*
G36*
X104625400Y-109919400D02*
X103024600Y-109919400D01*
X103024600Y-109268600D01*
X104625400Y-109268600D01*
X104625400Y-109919400D01*
X104625400Y-109919400D01*
G37*
G36*
X112705200Y-109653600D02*
X112054400Y-109653600D01*
X112054400Y-109102800D01*
X112705200Y-109102800D01*
X112705200Y-109653600D01*
X112705200Y-109653600D01*
G37*
G36*
X113805200Y-109653600D02*
X113154400Y-109653600D01*
X113154400Y-109102800D01*
X113805200Y-109102800D01*
X113805200Y-109653600D01*
X113805200Y-109653600D01*
G37*
G36*
X100522854Y-108646345D02*
X100591173Y-108674644D01*
X100652658Y-108715727D01*
X100704946Y-108768015D01*
X100746029Y-108829500D01*
X100774328Y-108897819D01*
X100788754Y-108970344D01*
X100788754Y-109044294D01*
X100774328Y-109116819D01*
X100746029Y-109185138D01*
X100704946Y-109246623D01*
X100652658Y-109298911D01*
X100591173Y-109339994D01*
X100522854Y-109368293D01*
X100450329Y-109382719D01*
X100376379Y-109382719D01*
X100303854Y-109368293D01*
X100235535Y-109339994D01*
X100174050Y-109298911D01*
X100121762Y-109246623D01*
X100080679Y-109185138D01*
X100052380Y-109116819D01*
X100037954Y-109044294D01*
X100037954Y-108970344D01*
X100052380Y-108897819D01*
X100080679Y-108829500D01*
X100121762Y-108768015D01*
X100174050Y-108715727D01*
X100235535Y-108674644D01*
X100303854Y-108646345D01*
X100376379Y-108631919D01*
X100450329Y-108631919D01*
X100522854Y-108646345D01*
X100522854Y-108646345D01*
G37*
G36*
X140146854Y-108646345D02*
X140215173Y-108674644D01*
X140276658Y-108715727D01*
X140328946Y-108768015D01*
X140370029Y-108829500D01*
X140398328Y-108897819D01*
X140412754Y-108970344D01*
X140412754Y-109044294D01*
X140398328Y-109116819D01*
X140370029Y-109185138D01*
X140328946Y-109246623D01*
X140276658Y-109298911D01*
X140215173Y-109339994D01*
X140146854Y-109368293D01*
X140074329Y-109382719D01*
X140000379Y-109382719D01*
X139927854Y-109368293D01*
X139859535Y-109339994D01*
X139798050Y-109298911D01*
X139745762Y-109246623D01*
X139704679Y-109185138D01*
X139676380Y-109116819D01*
X139661954Y-109044294D01*
X139661954Y-108970344D01*
X139676380Y-108897819D01*
X139704679Y-108829500D01*
X139745762Y-108768015D01*
X139798050Y-108715727D01*
X139859535Y-108674644D01*
X139927854Y-108646345D01*
X140000379Y-108631919D01*
X140074329Y-108631919D01*
X140146854Y-108646345D01*
X140146854Y-108646345D01*
G37*
G36*
X119205200Y-109203600D02*
X118754400Y-109203600D01*
X118754400Y-108552800D01*
X119205200Y-108552800D01*
X119205200Y-109203600D01*
X119205200Y-109203600D01*
G37*
G36*
X120105200Y-109203600D02*
X119654400Y-109203600D01*
X119654400Y-108552800D01*
X120105200Y-108552800D01*
X120105200Y-109203600D01*
X120105200Y-109203600D01*
G37*
G36*
X136039154Y-109146319D02*
X135588354Y-109146319D01*
X135588354Y-108495519D01*
X136039154Y-108495519D01*
X136039154Y-109146319D01*
X136039154Y-109146319D01*
G37*
G36*
X135139154Y-109146319D02*
X134688354Y-109146319D01*
X134688354Y-108495519D01*
X135139154Y-108495519D01*
X135139154Y-109146319D01*
X135139154Y-109146319D01*
G37*
G36*
X132413000Y-109045800D02*
X131762200Y-109045800D01*
X131762200Y-108595000D01*
X132413000Y-108595000D01*
X132413000Y-109045800D01*
X132413000Y-109045800D01*
G37*
G36*
X133683000Y-109045800D02*
X133032200Y-109045800D01*
X133032200Y-108595000D01*
X133683000Y-108595000D01*
X133683000Y-109045800D01*
X133683000Y-109045800D01*
G37*
G36*
X104625400Y-108919400D02*
X103024600Y-108919400D01*
X103024600Y-108268600D01*
X104625400Y-108268600D01*
X104625400Y-108919400D01*
X104625400Y-108919400D01*
G37*
G36*
X117755200Y-108553600D02*
X117104400Y-108553600D01*
X117104400Y-108102800D01*
X117755200Y-108102800D01*
X117755200Y-108553600D01*
X117755200Y-108553600D01*
G37*
G36*
X126875400Y-108425400D02*
X126024600Y-108425400D01*
X126024600Y-107474600D01*
X126875400Y-107474600D01*
X126875400Y-108425400D01*
X126875400Y-108425400D01*
G37*
G36*
X128775400Y-108425400D02*
X127924600Y-108425400D01*
X127924600Y-107474600D01*
X128775400Y-107474600D01*
X128775400Y-108425400D01*
X128775400Y-108425400D01*
G37*
G36*
X130679754Y-108257319D02*
X130228954Y-108257319D01*
X130228954Y-107606519D01*
X130679754Y-107606519D01*
X130679754Y-108257319D01*
X130679754Y-108257319D01*
G37*
G36*
X129779754Y-108257319D02*
X129328954Y-108257319D01*
X129328954Y-107606519D01*
X129779754Y-107606519D01*
X129779754Y-108257319D01*
X129779754Y-108257319D01*
G37*
G36*
X104625400Y-107919400D02*
X103024600Y-107919400D01*
X103024600Y-107268600D01*
X104625400Y-107268600D01*
X104625400Y-107919400D01*
X104625400Y-107919400D01*
G37*
G36*
X117755200Y-107653600D02*
X117104400Y-107653600D01*
X117104400Y-107202800D01*
X117755200Y-107202800D01*
X117755200Y-107653600D01*
X117755200Y-107653600D01*
G37*
G36*
X138157754Y-107491719D02*
X137506954Y-107491719D01*
X137506954Y-106940919D01*
X138157754Y-106940919D01*
X138157754Y-107491719D01*
X138157754Y-107491719D01*
G37*
G36*
X137057754Y-107491719D02*
X136406954Y-107491719D01*
X136406954Y-106940919D01*
X137057754Y-106940919D01*
X137057754Y-107491719D01*
X137057754Y-107491719D01*
G37*
G36*
X100875400Y-106919400D02*
X99024600Y-106919400D01*
X99024600Y-105668600D01*
X100875400Y-105668600D01*
X100875400Y-106919400D01*
X100875400Y-106919400D01*
G37*
G36*
X127825400Y-106425400D02*
X126974600Y-106425400D01*
X126974600Y-105474600D01*
X127825400Y-105474600D01*
X127825400Y-106425400D01*
X127825400Y-106425400D01*
G37*
G36*
X138022754Y-106051719D02*
X136821954Y-106051719D01*
X136821954Y-105300919D01*
X138022754Y-105300919D01*
X138022754Y-106051719D01*
X138022754Y-106051719D01*
G37*
G36*
X139428857Y-103775599D02*
X139445868Y-103778599D01*
X139629578Y-103829891D01*
X139645683Y-103836137D01*
X139815936Y-103922139D01*
X139830518Y-103931393D01*
X139980826Y-104048827D01*
X139993332Y-104060736D01*
X140117970Y-104205129D01*
X140127924Y-104219240D01*
X140222138Y-104385088D01*
X140229162Y-104400866D01*
X140289373Y-104581865D01*
X140293197Y-104598701D01*
X140317432Y-104790528D01*
X140318123Y-104800411D01*
X140318430Y-104822460D01*
X140318016Y-104832362D01*
X140299148Y-105024787D01*
X140295794Y-105041724D01*
X140240661Y-105224334D01*
X140234082Y-105240296D01*
X140144534Y-105408710D01*
X140134972Y-105423103D01*
X140014425Y-105570909D01*
X140002249Y-105583170D01*
X139855281Y-105704752D01*
X139840960Y-105714412D01*
X139673174Y-105805133D01*
X139657261Y-105811822D01*
X139475035Y-105868230D01*
X139458128Y-105871701D01*
X139268430Y-105891640D01*
X139251163Y-105891760D01*
X139061195Y-105874472D01*
X139044232Y-105871236D01*
X138861253Y-105817382D01*
X138845244Y-105810914D01*
X138676198Y-105722539D01*
X138661746Y-105713082D01*
X138513100Y-105593568D01*
X138500759Y-105581483D01*
X138378151Y-105435364D01*
X138368392Y-105421111D01*
X138276504Y-105253967D01*
X138269699Y-105238092D01*
X138266903Y-105229277D01*
X138257240Y-105206758D01*
X138243369Y-105186558D01*
X138242841Y-105186043D01*
X138243838Y-105175919D01*
X138241436Y-105151533D01*
X138237987Y-105138123D01*
X138212024Y-105056277D01*
X138208434Y-105039384D01*
X138187172Y-104849829D01*
X138186930Y-104832563D01*
X138188318Y-104816035D01*
X138188318Y-104816034D01*
X138202892Y-104642484D01*
X138206010Y-104625497D01*
X138238791Y-104511173D01*
X138243204Y-104487069D01*
X138242832Y-104462750D01*
X138251688Y-104451959D01*
X138263976Y-104428530D01*
X138264943Y-104426087D01*
X138352134Y-104256434D01*
X138361484Y-104241925D01*
X138479970Y-104092433D01*
X138491965Y-104080011D01*
X138637223Y-103956388D01*
X138651402Y-103946533D01*
X138817900Y-103853481D01*
X138833735Y-103846562D01*
X139015139Y-103787621D01*
X139032005Y-103783912D01*
X139221410Y-103761327D01*
X139238675Y-103760965D01*
X139428857Y-103775599D01*
X139428857Y-103775599D01*
G37*
G36*
X130813600Y-105841800D02*
X130262800Y-105841800D01*
X130262800Y-105191000D01*
X130813600Y-105191000D01*
X130813600Y-105841800D01*
X130813600Y-105841800D01*
G37*
G36*
X129619800Y-105841800D02*
X129069000Y-105841800D01*
X129069000Y-105191000D01*
X129619800Y-105191000D01*
X129619800Y-105841800D01*
X129619800Y-105841800D01*
G37*
G36*
X126464320Y-105020740D02*
X125813520Y-105020740D01*
X125813520Y-104569940D01*
X126464320Y-104569940D01*
X126464320Y-105020740D01*
X126464320Y-105020740D01*
G37*
G36*
X130813600Y-104741800D02*
X130262800Y-104741800D01*
X130262800Y-104091000D01*
X130813600Y-104091000D01*
X130813600Y-104741800D01*
X130813600Y-104741800D01*
G37*
G36*
X129619800Y-104741800D02*
X129069000Y-104741800D01*
X129069000Y-104091000D01*
X129619800Y-104091000D01*
X129619800Y-104741800D01*
X129619800Y-104741800D01*
G37*
G36*
X138022754Y-104351719D02*
X136821954Y-104351719D01*
X136821954Y-103600919D01*
X138022754Y-103600919D01*
X138022754Y-104351719D01*
X138022754Y-104351719D01*
G37*
G36*
X126464320Y-104120740D02*
X125813520Y-104120740D01*
X125813520Y-103669940D01*
X126464320Y-103669940D01*
X126464320Y-104120740D01*
X126464320Y-104120740D01*
G37*
G36*
X119437754Y-103981719D02*
X118586954Y-103981719D01*
X118586954Y-103530919D01*
X119437754Y-103530919D01*
X119437754Y-103981719D01*
X119437754Y-103981719D01*
G37*
G36*
X130869400Y-103654400D02*
X130218600Y-103654400D01*
X130218600Y-102403600D01*
X130869400Y-102403600D01*
X130869400Y-103654400D01*
X130869400Y-103654400D01*
G37*
G36*
X129669400Y-103654400D02*
X129018600Y-103654400D01*
X129018600Y-102403600D01*
X129669400Y-102403600D01*
X129669400Y-103654400D01*
X129669400Y-103654400D01*
G37*
G36*
X121937754Y-102931719D02*
X121086954Y-102931719D01*
X121086954Y-100080919D01*
X121937754Y-100080919D01*
X121937754Y-102931719D01*
X121937754Y-102931719D01*
G37*
G36*
X128325400Y-101525400D02*
X127774600Y-101525400D01*
X127774600Y-100974600D01*
X128325400Y-100974600D01*
X128325400Y-101525400D01*
X128325400Y-101525400D01*
G37*
G36*
X129425400Y-101525400D02*
X128874600Y-101525400D01*
X128874600Y-100974600D01*
X129425400Y-100974600D01*
X129425400Y-101525400D01*
X129425400Y-101525400D01*
G37*
G36*
X134925400Y-101525400D02*
X134374600Y-101525400D01*
X134374600Y-100974600D01*
X134925400Y-100974600D01*
X134925400Y-101525400D01*
X134925400Y-101525400D01*
G37*
G36*
X130525400Y-101525400D02*
X129974600Y-101525400D01*
X129974600Y-100974600D01*
X130525400Y-100974600D01*
X130525400Y-101525400D01*
X130525400Y-101525400D01*
G37*
G36*
X131625400Y-101525400D02*
X131074600Y-101525400D01*
X131074600Y-100974600D01*
X131625400Y-100974600D01*
X131625400Y-101525400D01*
X131625400Y-101525400D01*
G37*
G36*
X132725400Y-101525400D02*
X132174600Y-101525400D01*
X132174600Y-100974600D01*
X132725400Y-100974600D01*
X132725400Y-101525400D01*
X132725400Y-101525400D01*
G37*
G36*
X133825400Y-101525400D02*
X133274600Y-101525400D01*
X133274600Y-100974600D01*
X133825400Y-100974600D01*
X133825400Y-101525400D01*
X133825400Y-101525400D01*
G37*
G36*
X136025400Y-101525400D02*
X135474600Y-101525400D01*
X135474600Y-100974600D01*
X136025400Y-100974600D01*
X136025400Y-101525400D01*
X136025400Y-101525400D01*
G37*
G36*
X137125400Y-101525400D02*
X136574600Y-101525400D01*
X136574600Y-100974600D01*
X137125400Y-100974600D01*
X137125400Y-101525400D01*
X137125400Y-101525400D01*
G37*
G36*
X127425400Y-100975400D02*
X126874600Y-100975400D01*
X126874600Y-100424600D01*
X127425400Y-100424600D01*
X127425400Y-100975400D01*
X127425400Y-100975400D01*
G37*
G36*
X136575400Y-100625400D02*
X136024600Y-100625400D01*
X136024600Y-100074600D01*
X136575400Y-100074600D01*
X136575400Y-100625400D01*
X136575400Y-100625400D01*
G37*
G36*
X135475400Y-100625400D02*
X134924600Y-100625400D01*
X134924600Y-100074600D01*
X135475400Y-100074600D01*
X135475400Y-100625400D01*
X135475400Y-100625400D01*
G37*
G36*
X134375400Y-100625400D02*
X133824600Y-100625400D01*
X133824600Y-100074600D01*
X134375400Y-100074600D01*
X134375400Y-100625400D01*
X134375400Y-100625400D01*
G37*
G36*
X129975400Y-100625400D02*
X129424600Y-100625400D01*
X129424600Y-100074600D01*
X129975400Y-100074600D01*
X129975400Y-100625400D01*
X129975400Y-100625400D01*
G37*
G36*
X132175400Y-100625400D02*
X131624600Y-100625400D01*
X131624600Y-100074600D01*
X132175400Y-100074600D01*
X132175400Y-100625400D01*
X132175400Y-100625400D01*
G37*
G36*
X133275400Y-100625400D02*
X132724600Y-100625400D01*
X132724600Y-100074600D01*
X133275400Y-100074600D01*
X133275400Y-100625400D01*
X133275400Y-100625400D01*
G37*
G36*
X131075400Y-100625400D02*
X130524600Y-100625400D01*
X130524600Y-100074600D01*
X131075400Y-100074600D01*
X131075400Y-100625400D01*
X131075400Y-100625400D01*
G37*
G36*
X128325400Y-100425400D02*
X127774600Y-100425400D01*
X127774600Y-99874600D01*
X128325400Y-99874600D01*
X128325400Y-100425400D01*
X128325400Y-100425400D01*
G37*
G36*
X101430956Y-94007121D02*
X101469549Y-94010922D01*
X101519068Y-94025943D01*
X101568589Y-94040965D01*
X101617376Y-94067043D01*
X101659862Y-94089752D01*
X101659864Y-94089753D01*
X101659863Y-94089753D01*
X101739865Y-94155408D01*
X101805520Y-94235410D01*
X101854308Y-94326684D01*
X101859245Y-94342961D01*
X101866536Y-94366995D01*
X101875913Y-94389632D01*
X101889526Y-94410007D01*
X101906853Y-94427334D01*
X101927228Y-94440948D01*
X101949867Y-94450325D01*
X101973900Y-94455106D01*
X101998404Y-94455106D01*
X102022438Y-94450326D01*
X102045077Y-94440948D01*
X102065452Y-94427335D01*
X102082779Y-94410008D01*
X102096393Y-94389633D01*
X102105770Y-94366994D01*
X102110551Y-94342961D01*
X102111153Y-94330708D01*
X102111153Y-94003320D01*
X103161953Y-94003320D01*
X103161953Y-95054120D01*
X102834565Y-95054120D01*
X102810179Y-95056522D01*
X102786730Y-95063635D01*
X102765119Y-95075186D01*
X102746177Y-95090732D01*
X102730631Y-95109674D01*
X102719080Y-95131285D01*
X102711967Y-95154734D01*
X102709565Y-95179120D01*
X102711967Y-95203506D01*
X102719080Y-95226955D01*
X102730631Y-95248566D01*
X102746177Y-95267508D01*
X102765119Y-95283054D01*
X102786730Y-95294605D01*
X102798276Y-95298736D01*
X102815925Y-95304090D01*
X102838589Y-95310965D01*
X102887376Y-95337043D01*
X102929862Y-95359752D01*
X102929864Y-95359753D01*
X102929863Y-95359753D01*
X103009865Y-95425408D01*
X103075520Y-95505410D01*
X103124308Y-95596684D01*
X103124308Y-95596685D01*
X103154351Y-95695724D01*
X103164495Y-95798720D01*
X103155797Y-95887039D01*
X103154351Y-95901715D01*
X103124308Y-96000756D01*
X103075520Y-96092030D01*
X103009865Y-96172032D01*
X102937035Y-96231801D01*
X102929862Y-96237688D01*
X102887376Y-96260397D01*
X102838589Y-96286475D01*
X102802519Y-96297416D01*
X102747508Y-96314104D01*
X102724873Y-96323480D01*
X102704498Y-96337093D01*
X102687171Y-96354420D01*
X102673557Y-96374795D01*
X102664180Y-96397434D01*
X102659399Y-96421467D01*
X102659399Y-96445971D01*
X102664179Y-96470005D01*
X102673557Y-96492644D01*
X102687170Y-96513019D01*
X102704497Y-96530346D01*
X102724872Y-96543960D01*
X102747508Y-96553336D01*
X102802519Y-96570024D01*
X102838589Y-96580965D01*
X102887376Y-96607043D01*
X102929862Y-96629752D01*
X102929864Y-96629753D01*
X102929863Y-96629753D01*
X103009865Y-96695408D01*
X103075520Y-96775410D01*
X103124308Y-96866684D01*
X103124308Y-96866685D01*
X103154351Y-96965724D01*
X103164495Y-97068720D01*
X103155797Y-97157039D01*
X103154351Y-97171715D01*
X103124308Y-97270756D01*
X103075520Y-97362030D01*
X103009865Y-97442032D01*
X102937035Y-97501801D01*
X102929862Y-97507688D01*
X102887376Y-97530397D01*
X102838589Y-97556475D01*
X102802519Y-97567416D01*
X102747508Y-97584104D01*
X102724873Y-97593480D01*
X102704498Y-97607093D01*
X102687171Y-97624420D01*
X102673557Y-97644795D01*
X102664180Y-97667434D01*
X102659399Y-97691467D01*
X102659399Y-97715971D01*
X102664179Y-97740005D01*
X102673557Y-97762644D01*
X102687170Y-97783019D01*
X102704497Y-97800346D01*
X102724872Y-97813960D01*
X102747508Y-97823336D01*
X102802519Y-97840024D01*
X102838589Y-97850965D01*
X102887376Y-97877043D01*
X102929862Y-97899752D01*
X102929864Y-97899753D01*
X102929863Y-97899753D01*
X103009865Y-97965408D01*
X103075520Y-98045410D01*
X103124308Y-98136684D01*
X103124308Y-98136685D01*
X103154351Y-98235724D01*
X103164495Y-98338720D01*
X103155797Y-98427039D01*
X103154351Y-98441715D01*
X103124308Y-98540756D01*
X103075520Y-98632030D01*
X103009865Y-98712032D01*
X102937036Y-98771801D01*
X102929862Y-98777688D01*
X102887376Y-98800397D01*
X102838589Y-98826475D01*
X102802519Y-98837416D01*
X102747508Y-98854104D01*
X102724873Y-98863480D01*
X102704498Y-98877093D01*
X102687171Y-98894420D01*
X102673557Y-98914795D01*
X102664180Y-98937434D01*
X102659399Y-98961467D01*
X102659399Y-98985971D01*
X102664179Y-99010005D01*
X102673557Y-99032644D01*
X102687170Y-99053019D01*
X102704497Y-99070346D01*
X102724872Y-99083960D01*
X102747508Y-99093336D01*
X102802519Y-99110024D01*
X102838589Y-99120965D01*
X102887376Y-99147043D01*
X102929862Y-99169752D01*
X102929864Y-99169753D01*
X102929863Y-99169753D01*
X103009865Y-99235408D01*
X103069634Y-99308238D01*
X103075521Y-99315411D01*
X103080860Y-99325400D01*
X103124308Y-99406684D01*
X103124308Y-99406685D01*
X103154351Y-99505724D01*
X103164495Y-99608720D01*
X103155797Y-99697039D01*
X103154351Y-99711715D01*
X103124308Y-99810756D01*
X103098230Y-99859543D01*
X103089755Y-99875400D01*
X103075520Y-99902030D01*
X103009865Y-99982032D01*
X102937036Y-100041801D01*
X102929862Y-100047688D01*
X102887376Y-100070397D01*
X102838589Y-100096475D01*
X102789069Y-100111496D01*
X102739549Y-100126518D01*
X102700956Y-100130319D01*
X102662364Y-100134120D01*
X102610742Y-100134120D01*
X102572150Y-100130319D01*
X102533557Y-100126518D01*
X102484037Y-100111496D01*
X102434517Y-100096475D01*
X102385730Y-100070397D01*
X102343244Y-100047688D01*
X102336070Y-100041801D01*
X102263241Y-99982032D01*
X102197586Y-99902030D01*
X102183352Y-99875400D01*
X102174876Y-99859543D01*
X102148798Y-99810756D01*
X102121171Y-99719679D01*
X102111793Y-99697040D01*
X102098180Y-99676665D01*
X102080853Y-99659338D01*
X102060478Y-99645724D01*
X102037839Y-99636347D01*
X102013806Y-99631566D01*
X101989302Y-99631566D01*
X101965268Y-99636346D01*
X101942629Y-99645724D01*
X101922254Y-99659337D01*
X101904927Y-99676664D01*
X101891313Y-99697039D01*
X101881935Y-99719679D01*
X101854308Y-99810756D01*
X101828230Y-99859543D01*
X101819755Y-99875400D01*
X101805520Y-99902030D01*
X101739865Y-99982032D01*
X101667036Y-100041801D01*
X101659862Y-100047688D01*
X101617376Y-100070397D01*
X101568589Y-100096475D01*
X101519069Y-100111496D01*
X101469549Y-100126518D01*
X101430956Y-100130319D01*
X101392364Y-100134120D01*
X101340742Y-100134120D01*
X101302150Y-100130319D01*
X101263557Y-100126518D01*
X101214037Y-100111496D01*
X101164517Y-100096475D01*
X101115730Y-100070397D01*
X101073244Y-100047688D01*
X101066070Y-100041801D01*
X100993241Y-99982032D01*
X100927586Y-99902030D01*
X100913352Y-99875400D01*
X100904876Y-99859543D01*
X100878798Y-99810756D01*
X100848755Y-99711715D01*
X100847310Y-99697039D01*
X100838611Y-99608720D01*
X100848755Y-99505724D01*
X100878798Y-99406685D01*
X100878798Y-99406684D01*
X100922246Y-99325400D01*
X100927585Y-99315411D01*
X100933472Y-99308238D01*
X100993241Y-99235408D01*
X101073243Y-99169753D01*
X101073242Y-99169753D01*
X101073244Y-99169752D01*
X101115730Y-99147043D01*
X101164517Y-99120965D01*
X101200587Y-99110024D01*
X101255598Y-99093336D01*
X101278233Y-99083960D01*
X101298608Y-99070347D01*
X101315935Y-99053020D01*
X101329549Y-99032645D01*
X101338926Y-99010006D01*
X101343707Y-98985973D01*
X101343707Y-98961469D01*
X101343707Y-98961467D01*
X101389399Y-98961467D01*
X101389399Y-98985971D01*
X101394179Y-99010005D01*
X101403557Y-99032644D01*
X101417170Y-99053019D01*
X101434497Y-99070346D01*
X101454872Y-99083960D01*
X101477508Y-99093336D01*
X101532519Y-99110024D01*
X101568589Y-99120965D01*
X101617376Y-99147043D01*
X101659862Y-99169752D01*
X101659864Y-99169753D01*
X101659863Y-99169753D01*
X101739865Y-99235408D01*
X101799634Y-99308238D01*
X101805521Y-99315411D01*
X101810860Y-99325400D01*
X101854308Y-99406684D01*
X101881935Y-99497761D01*
X101891313Y-99520400D01*
X101904926Y-99540775D01*
X101922253Y-99558102D01*
X101942628Y-99571716D01*
X101965267Y-99581093D01*
X101989300Y-99585874D01*
X102013804Y-99585874D01*
X102037838Y-99581094D01*
X102060477Y-99571716D01*
X102080852Y-99558103D01*
X102098179Y-99540776D01*
X102111793Y-99520401D01*
X102121171Y-99497761D01*
X102148798Y-99406684D01*
X102192246Y-99325400D01*
X102197585Y-99315411D01*
X102203472Y-99308238D01*
X102263241Y-99235408D01*
X102343243Y-99169753D01*
X102343242Y-99169753D01*
X102343244Y-99169752D01*
X102385730Y-99147043D01*
X102434517Y-99120965D01*
X102470587Y-99110024D01*
X102525598Y-99093336D01*
X102548233Y-99083960D01*
X102568608Y-99070347D01*
X102585935Y-99053020D01*
X102599549Y-99032645D01*
X102608926Y-99010006D01*
X102613707Y-98985973D01*
X102613707Y-98961469D01*
X102608927Y-98937435D01*
X102599549Y-98914796D01*
X102585936Y-98894421D01*
X102568609Y-98877094D01*
X102548234Y-98863480D01*
X102525598Y-98854104D01*
X102470587Y-98837416D01*
X102434517Y-98826475D01*
X102385730Y-98800397D01*
X102343244Y-98777688D01*
X102336070Y-98771801D01*
X102263241Y-98712032D01*
X102197586Y-98632030D01*
X102148798Y-98540756D01*
X102121171Y-98449679D01*
X102111793Y-98427040D01*
X102098180Y-98406665D01*
X102080853Y-98389338D01*
X102060478Y-98375724D01*
X102037839Y-98366347D01*
X102013806Y-98361566D01*
X101989302Y-98361566D01*
X101965268Y-98366346D01*
X101942629Y-98375724D01*
X101922254Y-98389337D01*
X101904927Y-98406664D01*
X101891313Y-98427039D01*
X101881935Y-98449679D01*
X101854308Y-98540756D01*
X101805520Y-98632030D01*
X101739865Y-98712032D01*
X101667036Y-98771801D01*
X101659862Y-98777688D01*
X101617376Y-98800397D01*
X101568589Y-98826475D01*
X101532519Y-98837416D01*
X101477508Y-98854104D01*
X101454873Y-98863480D01*
X101434498Y-98877093D01*
X101417171Y-98894420D01*
X101403557Y-98914795D01*
X101394180Y-98937434D01*
X101389399Y-98961467D01*
X101343707Y-98961467D01*
X101338927Y-98937435D01*
X101329549Y-98914796D01*
X101315936Y-98894421D01*
X101298609Y-98877094D01*
X101278234Y-98863480D01*
X101255598Y-98854104D01*
X101200587Y-98837416D01*
X101164517Y-98826475D01*
X101115730Y-98800397D01*
X101073244Y-98777688D01*
X101066070Y-98771801D01*
X100993241Y-98712032D01*
X100927586Y-98632030D01*
X100878798Y-98540756D01*
X100848755Y-98441715D01*
X100847310Y-98427039D01*
X100838611Y-98338720D01*
X100848755Y-98235724D01*
X100878798Y-98136685D01*
X100878798Y-98136684D01*
X100927586Y-98045410D01*
X100993241Y-97965408D01*
X101073243Y-97899753D01*
X101073242Y-97899753D01*
X101073244Y-97899752D01*
X101115730Y-97877043D01*
X101164517Y-97850965D01*
X101200587Y-97840024D01*
X101255598Y-97823336D01*
X101278233Y-97813960D01*
X101298608Y-97800347D01*
X101315935Y-97783020D01*
X101329549Y-97762645D01*
X101338926Y-97740006D01*
X101343707Y-97715973D01*
X101343707Y-97691469D01*
X101343707Y-97691467D01*
X101389399Y-97691467D01*
X101389399Y-97715971D01*
X101394179Y-97740005D01*
X101403557Y-97762644D01*
X101417170Y-97783019D01*
X101434497Y-97800346D01*
X101454872Y-97813960D01*
X101477508Y-97823336D01*
X101532519Y-97840024D01*
X101568589Y-97850965D01*
X101617376Y-97877043D01*
X101659862Y-97899752D01*
X101659864Y-97899753D01*
X101659863Y-97899753D01*
X101739865Y-97965408D01*
X101805520Y-98045410D01*
X101854308Y-98136684D01*
X101854308Y-98136685D01*
X101880977Y-98224600D01*
X101881935Y-98227761D01*
X101891313Y-98250400D01*
X101904926Y-98270775D01*
X101922253Y-98288102D01*
X101942628Y-98301716D01*
X101965267Y-98311093D01*
X101989300Y-98315874D01*
X102013804Y-98315874D01*
X102037838Y-98311094D01*
X102060477Y-98301716D01*
X102080852Y-98288103D01*
X102098179Y-98270776D01*
X102111793Y-98250401D01*
X102121171Y-98227761D01*
X102122130Y-98224600D01*
X102148798Y-98136685D01*
X102148798Y-98136684D01*
X102197586Y-98045410D01*
X102263241Y-97965408D01*
X102343243Y-97899753D01*
X102343242Y-97899753D01*
X102343244Y-97899752D01*
X102385730Y-97877043D01*
X102434517Y-97850965D01*
X102470587Y-97840024D01*
X102525598Y-97823336D01*
X102548233Y-97813960D01*
X102568608Y-97800347D01*
X102585935Y-97783020D01*
X102599549Y-97762645D01*
X102608926Y-97740006D01*
X102613707Y-97715973D01*
X102613707Y-97691469D01*
X102608927Y-97667435D01*
X102599549Y-97644796D01*
X102585936Y-97624421D01*
X102568609Y-97607094D01*
X102548234Y-97593480D01*
X102525598Y-97584104D01*
X102470587Y-97567416D01*
X102434517Y-97556475D01*
X102385730Y-97530397D01*
X102343244Y-97507688D01*
X102336071Y-97501801D01*
X102263241Y-97442032D01*
X102197586Y-97362030D01*
X102148798Y-97270756D01*
X102121171Y-97179679D01*
X102111793Y-97157040D01*
X102098180Y-97136665D01*
X102080853Y-97119338D01*
X102060478Y-97105724D01*
X102037839Y-97096347D01*
X102013806Y-97091566D01*
X101989302Y-97091566D01*
X101965268Y-97096346D01*
X101942629Y-97105724D01*
X101922254Y-97119337D01*
X101904927Y-97136664D01*
X101891313Y-97157039D01*
X101881935Y-97179679D01*
X101854308Y-97270756D01*
X101805520Y-97362030D01*
X101739865Y-97442032D01*
X101667035Y-97501801D01*
X101659862Y-97507688D01*
X101617376Y-97530397D01*
X101568589Y-97556475D01*
X101532519Y-97567416D01*
X101477508Y-97584104D01*
X101454873Y-97593480D01*
X101434498Y-97607093D01*
X101417171Y-97624420D01*
X101403557Y-97644795D01*
X101394180Y-97667434D01*
X101389399Y-97691467D01*
X101343707Y-97691467D01*
X101338927Y-97667435D01*
X101329549Y-97644796D01*
X101315936Y-97624421D01*
X101298609Y-97607094D01*
X101278234Y-97593480D01*
X101255598Y-97584104D01*
X101200587Y-97567416D01*
X101164517Y-97556475D01*
X101115730Y-97530397D01*
X101073244Y-97507688D01*
X101066071Y-97501801D01*
X100993241Y-97442032D01*
X100927586Y-97362030D01*
X100878798Y-97270756D01*
X100848755Y-97171715D01*
X100847310Y-97157039D01*
X100838611Y-97068720D01*
X100848755Y-96965724D01*
X100878798Y-96866685D01*
X100878798Y-96866684D01*
X100927586Y-96775410D01*
X100993241Y-96695408D01*
X101073243Y-96629753D01*
X101073242Y-96629753D01*
X101073244Y-96629752D01*
X101115730Y-96607043D01*
X101164517Y-96580965D01*
X101200587Y-96570024D01*
X101255598Y-96553336D01*
X101278233Y-96543960D01*
X101298608Y-96530347D01*
X101315935Y-96513020D01*
X101329549Y-96492645D01*
X101338926Y-96470006D01*
X101343707Y-96445973D01*
X101343707Y-96421469D01*
X101343707Y-96421467D01*
X101389399Y-96421467D01*
X101389399Y-96445971D01*
X101394179Y-96470005D01*
X101403557Y-96492644D01*
X101417170Y-96513019D01*
X101434497Y-96530346D01*
X101454872Y-96543960D01*
X101477508Y-96553336D01*
X101532519Y-96570024D01*
X101568589Y-96580965D01*
X101617376Y-96607043D01*
X101659862Y-96629752D01*
X101659864Y-96629753D01*
X101659863Y-96629753D01*
X101739865Y-96695408D01*
X101805520Y-96775410D01*
X101854308Y-96866684D01*
X101881935Y-96957761D01*
X101891313Y-96980400D01*
X101904926Y-97000775D01*
X101922253Y-97018102D01*
X101942628Y-97031716D01*
X101965267Y-97041093D01*
X101989300Y-97045874D01*
X102013804Y-97045874D01*
X102037838Y-97041094D01*
X102060477Y-97031716D01*
X102080852Y-97018103D01*
X102098179Y-97000776D01*
X102111793Y-96980401D01*
X102121171Y-96957761D01*
X102148798Y-96866684D01*
X102197586Y-96775410D01*
X102263241Y-96695408D01*
X102343243Y-96629753D01*
X102343242Y-96629753D01*
X102343244Y-96629752D01*
X102385730Y-96607043D01*
X102434517Y-96580965D01*
X102470587Y-96570024D01*
X102525598Y-96553336D01*
X102548233Y-96543960D01*
X102568608Y-96530347D01*
X102585935Y-96513020D01*
X102599549Y-96492645D01*
X102608926Y-96470006D01*
X102613707Y-96445973D01*
X102613707Y-96421469D01*
X102608927Y-96397435D01*
X102599549Y-96374796D01*
X102585936Y-96354421D01*
X102568609Y-96337094D01*
X102548234Y-96323480D01*
X102525598Y-96314104D01*
X102470587Y-96297416D01*
X102434517Y-96286475D01*
X102385730Y-96260397D01*
X102343244Y-96237688D01*
X102336071Y-96231801D01*
X102263241Y-96172032D01*
X102197586Y-96092030D01*
X102148798Y-96000756D01*
X102121171Y-95909679D01*
X102111793Y-95887040D01*
X102098180Y-95866665D01*
X102080853Y-95849338D01*
X102060478Y-95835724D01*
X102037839Y-95826347D01*
X102013806Y-95821566D01*
X101989302Y-95821566D01*
X101965268Y-95826346D01*
X101942629Y-95835724D01*
X101922254Y-95849337D01*
X101904927Y-95866664D01*
X101891313Y-95887039D01*
X101881935Y-95909679D01*
X101854308Y-96000756D01*
X101805520Y-96092030D01*
X101739865Y-96172032D01*
X101667035Y-96231801D01*
X101659862Y-96237688D01*
X101617376Y-96260397D01*
X101568589Y-96286475D01*
X101532519Y-96297416D01*
X101477508Y-96314104D01*
X101454873Y-96323480D01*
X101434498Y-96337093D01*
X101417171Y-96354420D01*
X101403557Y-96374795D01*
X101394180Y-96397434D01*
X101389399Y-96421467D01*
X101343707Y-96421467D01*
X101338927Y-96397435D01*
X101329549Y-96374796D01*
X101315936Y-96354421D01*
X101298609Y-96337094D01*
X101278234Y-96323480D01*
X101255598Y-96314104D01*
X101200587Y-96297416D01*
X101164517Y-96286475D01*
X101115730Y-96260397D01*
X101073244Y-96237688D01*
X101066071Y-96231801D01*
X100993241Y-96172032D01*
X100927586Y-96092030D01*
X100878798Y-96000756D01*
X100848755Y-95901715D01*
X100847310Y-95887039D01*
X100838611Y-95798720D01*
X100848755Y-95695724D01*
X100878798Y-95596685D01*
X100878798Y-95596684D01*
X100927586Y-95505410D01*
X100993241Y-95425408D01*
X101073243Y-95359753D01*
X101073242Y-95359753D01*
X101073244Y-95359752D01*
X101115730Y-95337043D01*
X101164517Y-95310965D01*
X101235741Y-95289360D01*
X101255598Y-95283336D01*
X101278233Y-95273960D01*
X101298608Y-95260347D01*
X101315935Y-95243020D01*
X101329549Y-95222645D01*
X101338926Y-95200006D01*
X101343707Y-95175973D01*
X101343707Y-95151469D01*
X101343707Y-95151467D01*
X101389399Y-95151467D01*
X101389399Y-95175971D01*
X101394179Y-95200005D01*
X101403557Y-95222644D01*
X101417170Y-95243019D01*
X101434497Y-95260346D01*
X101454872Y-95273960D01*
X101477508Y-95283336D01*
X101497365Y-95289360D01*
X101568589Y-95310965D01*
X101617376Y-95337043D01*
X101659862Y-95359752D01*
X101659864Y-95359753D01*
X101659863Y-95359753D01*
X101739865Y-95425408D01*
X101805520Y-95505410D01*
X101854308Y-95596684D01*
X101881935Y-95687761D01*
X101891313Y-95710400D01*
X101904926Y-95730775D01*
X101922253Y-95748102D01*
X101942628Y-95761716D01*
X101965267Y-95771093D01*
X101989300Y-95775874D01*
X102013804Y-95775874D01*
X102037838Y-95771094D01*
X102060477Y-95761716D01*
X102080852Y-95748103D01*
X102098179Y-95730776D01*
X102111793Y-95710401D01*
X102121171Y-95687761D01*
X102148798Y-95596684D01*
X102197586Y-95505410D01*
X102263241Y-95425408D01*
X102343243Y-95359753D01*
X102343242Y-95359753D01*
X102343244Y-95359752D01*
X102385730Y-95337043D01*
X102434517Y-95310965D01*
X102457181Y-95304090D01*
X102474828Y-95298737D01*
X102497465Y-95289360D01*
X102517840Y-95275747D01*
X102535167Y-95258420D01*
X102548781Y-95238045D01*
X102558158Y-95215406D01*
X102562939Y-95191373D01*
X102562939Y-95166869D01*
X102558159Y-95142835D01*
X102548781Y-95120196D01*
X102535168Y-95099821D01*
X102517841Y-95082494D01*
X102497466Y-95068880D01*
X102474827Y-95059503D01*
X102450794Y-95054722D01*
X102438541Y-95054120D01*
X102111153Y-95054120D01*
X102111153Y-94726732D01*
X102108751Y-94702346D01*
X102101638Y-94678897D01*
X102090087Y-94657286D01*
X102074541Y-94638344D01*
X102055599Y-94622798D01*
X102033988Y-94611247D01*
X102010539Y-94604134D01*
X101986153Y-94601732D01*
X101961767Y-94604134D01*
X101938318Y-94611247D01*
X101916707Y-94622798D01*
X101897765Y-94638344D01*
X101882219Y-94657286D01*
X101870668Y-94678897D01*
X101866535Y-94690447D01*
X101854308Y-94730756D01*
X101805520Y-94822030D01*
X101739865Y-94902032D01*
X101667135Y-94961719D01*
X101659862Y-94967688D01*
X101617376Y-94990397D01*
X101568589Y-95016475D01*
X101532519Y-95027416D01*
X101477508Y-95044104D01*
X101454873Y-95053480D01*
X101434498Y-95067093D01*
X101417171Y-95084420D01*
X101403557Y-95104795D01*
X101394180Y-95127434D01*
X101389399Y-95151467D01*
X101343707Y-95151467D01*
X101338927Y-95127435D01*
X101329549Y-95104796D01*
X101315936Y-95084421D01*
X101298609Y-95067094D01*
X101278234Y-95053480D01*
X101255598Y-95044104D01*
X101200587Y-95027416D01*
X101164517Y-95016475D01*
X101115730Y-94990397D01*
X101073244Y-94967688D01*
X101065971Y-94961719D01*
X100993241Y-94902032D01*
X100927586Y-94822030D01*
X100878798Y-94730756D01*
X100856512Y-94657286D01*
X100848755Y-94631716D01*
X100838611Y-94528720D01*
X100848755Y-94425724D01*
X100873861Y-94342961D01*
X100878798Y-94326684D01*
X100927586Y-94235410D01*
X100993241Y-94155408D01*
X101073243Y-94089753D01*
X101073242Y-94089753D01*
X101073244Y-94089752D01*
X101115730Y-94067043D01*
X101164517Y-94040965D01*
X101214038Y-94025943D01*
X101263557Y-94010922D01*
X101302150Y-94007121D01*
X101340742Y-94003320D01*
X101392364Y-94003320D01*
X101430956Y-94007121D01*
X101430956Y-94007121D01*
G37*
G36*
X127425400Y-99875400D02*
X126874600Y-99875400D01*
X126874600Y-99324600D01*
X127425400Y-99324600D01*
X127425400Y-99875400D01*
X127425400Y-99875400D01*
G37*
G36*
X129225400Y-99875400D02*
X128674600Y-99875400D01*
X128674600Y-99324600D01*
X129225400Y-99324600D01*
X129225400Y-99875400D01*
X129225400Y-99875400D01*
G37*
G36*
X134925400Y-99725400D02*
X134374600Y-99725400D01*
X134374600Y-99174600D01*
X134925400Y-99174600D01*
X134925400Y-99725400D01*
X134925400Y-99725400D01*
G37*
G36*
X133825400Y-99725400D02*
X133274600Y-99725400D01*
X133274600Y-99174600D01*
X133825400Y-99174600D01*
X133825400Y-99725400D01*
X133825400Y-99725400D01*
G37*
G36*
X136025400Y-99725400D02*
X135474600Y-99725400D01*
X135474600Y-99174600D01*
X136025400Y-99174600D01*
X136025400Y-99725400D01*
X136025400Y-99725400D01*
G37*
G36*
X132725400Y-99725400D02*
X132174600Y-99725400D01*
X132174600Y-99174600D01*
X132725400Y-99174600D01*
X132725400Y-99725400D01*
X132725400Y-99725400D01*
G37*
G36*
X131625400Y-99725400D02*
X131074600Y-99725400D01*
X131074600Y-99174600D01*
X131625400Y-99174600D01*
X131625400Y-99725400D01*
X131625400Y-99725400D01*
G37*
G36*
X119437754Y-99481719D02*
X118586954Y-99481719D01*
X118586954Y-99030919D01*
X119437754Y-99030919D01*
X119437754Y-99481719D01*
X119437754Y-99481719D01*
G37*
G36*
X128325400Y-99325400D02*
X127774600Y-99325400D01*
X127774600Y-98774600D01*
X128325400Y-98774600D01*
X128325400Y-99325400D01*
X128325400Y-99325400D01*
G37*
G36*
X127425400Y-98775400D02*
X126874600Y-98775400D01*
X126874600Y-98224600D01*
X127425400Y-98224600D01*
X127425400Y-98775400D01*
X127425400Y-98775400D01*
G37*
G36*
X137125400Y-98775400D02*
X136574600Y-98775400D01*
X136574600Y-98224600D01*
X137125400Y-98224600D01*
X137125400Y-98775400D01*
X137125400Y-98775400D01*
G37*
G36*
X129225400Y-98775400D02*
X128674600Y-98775400D01*
X128674600Y-98224600D01*
X129225400Y-98224600D01*
X129225400Y-98775400D01*
X129225400Y-98775400D01*
G37*
G36*
X128325400Y-98225400D02*
X127774600Y-98225400D01*
X127774600Y-97674600D01*
X128325400Y-97674600D01*
X128325400Y-98225400D01*
X128325400Y-98225400D01*
G37*
G36*
X130125400Y-98225400D02*
X129574600Y-98225400D01*
X129574600Y-97674600D01*
X130125400Y-97674600D01*
X130125400Y-98225400D01*
X130125400Y-98225400D01*
G37*
G36*
X127425400Y-97675400D02*
X126874600Y-97675400D01*
X126874600Y-97124600D01*
X127425400Y-97124600D01*
X127425400Y-97675400D01*
X127425400Y-97675400D01*
G37*
G36*
X129225400Y-97675400D02*
X128674600Y-97675400D01*
X128674600Y-97124600D01*
X129225400Y-97124600D01*
X129225400Y-97675400D01*
X129225400Y-97675400D01*
G37*
G36*
X128325400Y-97125400D02*
X127774600Y-97125400D01*
X127774600Y-96574600D01*
X128325400Y-96574600D01*
X128325400Y-97125400D01*
X128325400Y-97125400D01*
G37*
G36*
X130125400Y-97125400D02*
X129574600Y-97125400D01*
X129574600Y-96574600D01*
X130125400Y-96574600D01*
X130125400Y-97125400D01*
X130125400Y-97125400D01*
G37*
G36*
X127425400Y-96575400D02*
X126874600Y-96575400D01*
X126874600Y-96024600D01*
X127425400Y-96024600D01*
X127425400Y-96575400D01*
X127425400Y-96575400D01*
G37*
G36*
X129225400Y-96575400D02*
X128674600Y-96575400D01*
X128674600Y-96024600D01*
X129225400Y-96024600D01*
X129225400Y-96575400D01*
X129225400Y-96575400D01*
G37*
G36*
X128325400Y-96025400D02*
X127774600Y-96025400D01*
X127774600Y-95474600D01*
X128325400Y-95474600D01*
X128325400Y-96025400D01*
X128325400Y-96025400D01*
G37*
G36*
X130125400Y-96025400D02*
X129574600Y-96025400D01*
X129574600Y-95474600D01*
X130125400Y-95474600D01*
X130125400Y-96025400D01*
X130125400Y-96025400D01*
G37*
G36*
X115507754Y-96011719D02*
X114606954Y-96011719D01*
X114606954Y-95560919D01*
X115507754Y-95560919D01*
X115507754Y-96011719D01*
X115507754Y-96011719D01*
G37*
G36*
X129225400Y-95475400D02*
X128674600Y-95475400D01*
X128674600Y-94924600D01*
X129225400Y-94924600D01*
X129225400Y-95475400D01*
X129225400Y-95475400D01*
G37*
G36*
X127425400Y-95475400D02*
X126874600Y-95475400D01*
X126874600Y-94924600D01*
X127425400Y-94924600D01*
X127425400Y-95475400D01*
X127425400Y-95475400D01*
G37*
G36*
X137125400Y-95475400D02*
X136574600Y-95475400D01*
X136574600Y-94924600D01*
X137125400Y-94924600D01*
X137125400Y-95475400D01*
X137125400Y-95475400D01*
G37*
G36*
X115157754Y-95241719D02*
X114306954Y-95241719D01*
X114306954Y-94930919D01*
X115157754Y-94930919D01*
X115157754Y-95241719D01*
X115157754Y-95241719D01*
G37*
G36*
X117957754Y-94961719D02*
X117256954Y-94961719D01*
X117256954Y-91610919D01*
X117957754Y-91610919D01*
X117957754Y-94961719D01*
X117957754Y-94961719D01*
G37*
G36*
X128325400Y-94925400D02*
X127774600Y-94925400D01*
X127774600Y-94374600D01*
X128325400Y-94374600D01*
X128325400Y-94925400D01*
X128325400Y-94925400D01*
G37*
G36*
X115157754Y-94641719D02*
X114306954Y-94641719D01*
X114306954Y-94330919D01*
X115157754Y-94330919D01*
X115157754Y-94641719D01*
X115157754Y-94641719D01*
G37*
G36*
X136025400Y-94525400D02*
X135474600Y-94525400D01*
X135474600Y-93974600D01*
X136025400Y-93974600D01*
X136025400Y-94525400D01*
X136025400Y-94525400D01*
G37*
G36*
X134925400Y-94525400D02*
X134374600Y-94525400D01*
X134374600Y-93974600D01*
X134925400Y-93974600D01*
X134925400Y-94525400D01*
X134925400Y-94525400D01*
G37*
G36*
X133825400Y-94525400D02*
X133274600Y-94525400D01*
X133274600Y-93974600D01*
X133825400Y-93974600D01*
X133825400Y-94525400D01*
X133825400Y-94525400D01*
G37*
G36*
X132725400Y-94525400D02*
X132174600Y-94525400D01*
X132174600Y-93974600D01*
X132725400Y-93974600D01*
X132725400Y-94525400D01*
X132725400Y-94525400D01*
G37*
G36*
X131625400Y-94525400D02*
X131074600Y-94525400D01*
X131074600Y-93974600D01*
X131625400Y-93974600D01*
X131625400Y-94525400D01*
X131625400Y-94525400D01*
G37*
G36*
X127425400Y-94375400D02*
X126874600Y-94375400D01*
X126874600Y-93824600D01*
X127425400Y-93824600D01*
X127425400Y-94375400D01*
X127425400Y-94375400D01*
G37*
G36*
X129225400Y-94375400D02*
X128674600Y-94375400D01*
X128674600Y-93824600D01*
X129225400Y-93824600D01*
X129225400Y-94375400D01*
X129225400Y-94375400D01*
G37*
G36*
X115157754Y-94041719D02*
X114306954Y-94041719D01*
X114306954Y-93730919D01*
X115157754Y-93730919D01*
X115157754Y-94041719D01*
X115157754Y-94041719D01*
G37*
G36*
X128325400Y-93825400D02*
X127774600Y-93825400D01*
X127774600Y-93274600D01*
X128325400Y-93274600D01*
X128325400Y-93825400D01*
X128325400Y-93825400D01*
G37*
G36*
X134375400Y-93625400D02*
X133824600Y-93625400D01*
X133824600Y-93074600D01*
X134375400Y-93074600D01*
X134375400Y-93625400D01*
X134375400Y-93625400D01*
G37*
G36*
X135475400Y-93625400D02*
X134924600Y-93625400D01*
X134924600Y-93074600D01*
X135475400Y-93074600D01*
X135475400Y-93625400D01*
X135475400Y-93625400D01*
G37*
G36*
X133275400Y-93625400D02*
X132724600Y-93625400D01*
X132724600Y-93074600D01*
X133275400Y-93074600D01*
X133275400Y-93625400D01*
X133275400Y-93625400D01*
G37*
G36*
X129975400Y-93625400D02*
X129424600Y-93625400D01*
X129424600Y-93074600D01*
X129975400Y-93074600D01*
X129975400Y-93625400D01*
X129975400Y-93625400D01*
G37*
G36*
X131075400Y-93625400D02*
X130524600Y-93625400D01*
X130524600Y-93074600D01*
X131075400Y-93074600D01*
X131075400Y-93625400D01*
X131075400Y-93625400D01*
G37*
G36*
X132175400Y-93625400D02*
X131624600Y-93625400D01*
X131624600Y-93074600D01*
X132175400Y-93074600D01*
X132175400Y-93625400D01*
X132175400Y-93625400D01*
G37*
G36*
X136575400Y-93625400D02*
X136024600Y-93625400D01*
X136024600Y-93074600D01*
X136575400Y-93074600D01*
X136575400Y-93625400D01*
X136575400Y-93625400D01*
G37*
G36*
X115157754Y-93441719D02*
X114306954Y-93441719D01*
X114306954Y-93130919D01*
X115157754Y-93130919D01*
X115157754Y-93441719D01*
X115157754Y-93441719D01*
G37*
G36*
X127425400Y-93275400D02*
X126874600Y-93275400D01*
X126874600Y-92724600D01*
X127425400Y-92724600D01*
X127425400Y-93275400D01*
X127425400Y-93275400D01*
G37*
G36*
X115157754Y-92841719D02*
X114306954Y-92841719D01*
X114306954Y-92530919D01*
X115157754Y-92530919D01*
X115157754Y-92841719D01*
X115157754Y-92841719D01*
G37*
G36*
X129425400Y-92725400D02*
X128874600Y-92725400D01*
X128874600Y-92174600D01*
X129425400Y-92174600D01*
X129425400Y-92725400D01*
X129425400Y-92725400D01*
G37*
G36*
X134925400Y-92725400D02*
X134374600Y-92725400D01*
X134374600Y-92174600D01*
X134925400Y-92174600D01*
X134925400Y-92725400D01*
X134925400Y-92725400D01*
G37*
G36*
X133825400Y-92725400D02*
X133274600Y-92725400D01*
X133274600Y-92174600D01*
X133825400Y-92174600D01*
X133825400Y-92725400D01*
X133825400Y-92725400D01*
G37*
G36*
X137125400Y-92725400D02*
X136574600Y-92725400D01*
X136574600Y-92174600D01*
X137125400Y-92174600D01*
X137125400Y-92725400D01*
X137125400Y-92725400D01*
G37*
G36*
X132725400Y-92725400D02*
X132174600Y-92725400D01*
X132174600Y-92174600D01*
X132725400Y-92174600D01*
X132725400Y-92725400D01*
X132725400Y-92725400D01*
G37*
G36*
X128325400Y-92725400D02*
X127774600Y-92725400D01*
X127774600Y-92174600D01*
X128325400Y-92174600D01*
X128325400Y-92725400D01*
X128325400Y-92725400D01*
G37*
G36*
X130525400Y-92725400D02*
X129974600Y-92725400D01*
X129974600Y-92174600D01*
X130525400Y-92174600D01*
X130525400Y-92725400D01*
X130525400Y-92725400D01*
G37*
G36*
X131625400Y-92725400D02*
X131074600Y-92725400D01*
X131074600Y-92174600D01*
X131625400Y-92174600D01*
X131625400Y-92725400D01*
X131625400Y-92725400D01*
G37*
G36*
X136025400Y-92725400D02*
X135474600Y-92725400D01*
X135474600Y-92174600D01*
X136025400Y-92174600D01*
X136025400Y-92725400D01*
X136025400Y-92725400D01*
G37*
G36*
X115157754Y-92241719D02*
X114306954Y-92241719D01*
X114306954Y-91930919D01*
X115157754Y-91930919D01*
X115157754Y-92241719D01*
X115157754Y-92241719D01*
G37*
G36*
X115157754Y-91641719D02*
X114306954Y-91641719D01*
X114306954Y-91330919D01*
X115157754Y-91330919D01*
X115157754Y-91641719D01*
X115157754Y-91641719D01*
G37*
G36*
X115507754Y-91011719D02*
X114606954Y-91011719D01*
X114606954Y-90560919D01*
X115507754Y-90560919D01*
X115507754Y-91011719D01*
X115507754Y-91011719D01*
G37*
G36*
X140774808Y-89418110D02*
X140870424Y-89457715D01*
X140956480Y-89515216D01*
X141029657Y-89588393D01*
X141087158Y-89674449D01*
X141126763Y-89770065D01*
X141146954Y-89871572D01*
X141146954Y-89975066D01*
X141126763Y-90076573D01*
X141087158Y-90172189D01*
X141029657Y-90258245D01*
X140956480Y-90331422D01*
X140870424Y-90388923D01*
X140774808Y-90428528D01*
X140673301Y-90448719D01*
X140569807Y-90448719D01*
X140468300Y-90428528D01*
X140372684Y-90388923D01*
X140286628Y-90331422D01*
X140213451Y-90258245D01*
X140155950Y-90172189D01*
X140116345Y-90076573D01*
X140096154Y-89975066D01*
X140096154Y-89871572D01*
X140116345Y-89770065D01*
X140155950Y-89674449D01*
X140213451Y-89588393D01*
X140286628Y-89515216D01*
X140372684Y-89457715D01*
X140468300Y-89418110D01*
X140569807Y-89397919D01*
X140673301Y-89397919D01*
X140774808Y-89418110D01*
X140774808Y-89418110D01*
G37*
G36*
X138234809Y-89418110D02*
X138330425Y-89457715D01*
X138416481Y-89515216D01*
X138489658Y-89588393D01*
X138547159Y-89674449D01*
X138586764Y-89770065D01*
X138606955Y-89871572D01*
X138606955Y-89975066D01*
X138586764Y-90076573D01*
X138547159Y-90172189D01*
X138489658Y-90258245D01*
X138416481Y-90331422D01*
X138330425Y-90388923D01*
X138234809Y-90428528D01*
X138133302Y-90448719D01*
X138029808Y-90448719D01*
X137928301Y-90428528D01*
X137832685Y-90388923D01*
X137746629Y-90331422D01*
X137673452Y-90258245D01*
X137615951Y-90172189D01*
X137576346Y-90076573D01*
X137556155Y-89975066D01*
X137556155Y-89871572D01*
X137576346Y-89770065D01*
X137615951Y-89674449D01*
X137673452Y-89588393D01*
X137746629Y-89515216D01*
X137832685Y-89457715D01*
X137928301Y-89418110D01*
X138029808Y-89397919D01*
X138133302Y-89397919D01*
X138234809Y-89418110D01*
X138234809Y-89418110D01*
G37*
G36*
X121871554Y-90293919D02*
X121220754Y-90293919D01*
X121220754Y-89843119D01*
X121871554Y-89843119D01*
X121871554Y-90293919D01*
X121871554Y-90293919D01*
G37*
G36*
X121871554Y-89393919D02*
X121220754Y-89393919D01*
X121220754Y-88943119D01*
X121871554Y-88943119D01*
X121871554Y-89393919D01*
X121871554Y-89393919D01*
G37*
G36*
X133770800Y-88807200D02*
X133300000Y-88807200D01*
X133300000Y-87356400D01*
X133770800Y-87356400D01*
X133770800Y-88807200D01*
X133770800Y-88807200D01*
G37*
G36*
X136310800Y-88807200D02*
X135840000Y-88807200D01*
X135840000Y-87356400D01*
X136310800Y-87356400D01*
X136310800Y-88807200D01*
X136310800Y-88807200D01*
G37*
G36*
X132500800Y-88807200D02*
X132030000Y-88807200D01*
X132030000Y-87356400D01*
X132500800Y-87356400D01*
X132500800Y-88807200D01*
X132500800Y-88807200D01*
G37*
G36*
X135040800Y-88807200D02*
X134570000Y-88807200D01*
X134570000Y-87356400D01*
X135040800Y-87356400D01*
X135040800Y-88807200D01*
X135040800Y-88807200D01*
G37*
G36*
X139442754Y-87962719D02*
X138991954Y-87962719D01*
X138991954Y-87311919D01*
X139442754Y-87311919D01*
X139442754Y-87962719D01*
X139442754Y-87962719D01*
G37*
G36*
X138542754Y-87962719D02*
X138091954Y-87962719D01*
X138091954Y-87311919D01*
X138542754Y-87311919D01*
X138542754Y-87962719D01*
X138542754Y-87962719D01*
G37*
G36*
X104572754Y-87897319D02*
X103321954Y-87897319D01*
X103321954Y-86046519D01*
X104572754Y-86046519D01*
X104572754Y-87897319D01*
X104572754Y-87897319D01*
G37*
G36*
X108172754Y-87897319D02*
X106921954Y-87897319D01*
X106921954Y-86046519D01*
X108172754Y-86046519D01*
X108172754Y-87897319D01*
X108172754Y-87897319D01*
G37*
G36*
X114394400Y-87827400D02*
X113823600Y-87827400D01*
X113823600Y-87476600D01*
X114394400Y-87476600D01*
X114394400Y-87827400D01*
X114394400Y-87827400D01*
G37*
G36*
X116074400Y-87827400D02*
X115503600Y-87827400D01*
X115503600Y-87476600D01*
X116074400Y-87476600D01*
X116074400Y-87827400D01*
X116074400Y-87827400D01*
G37*
G36*
X114394400Y-87177400D02*
X113823600Y-87177400D01*
X113823600Y-86826600D01*
X114394400Y-86826600D01*
X114394400Y-87177400D01*
X114394400Y-87177400D01*
G37*
G36*
X116074400Y-87177400D02*
X115503600Y-87177400D01*
X115503600Y-86826600D01*
X116074400Y-86826600D01*
X116074400Y-87177400D01*
X116074400Y-87177400D01*
G37*
G36*
X127186254Y-86006791D02*
X127281870Y-86046396D01*
X127367926Y-86103897D01*
X127441103Y-86177074D01*
X127498604Y-86263130D01*
X127538209Y-86358746D01*
X127558400Y-86460253D01*
X127558400Y-86563747D01*
X127538209Y-86665254D01*
X127498604Y-86760870D01*
X127441103Y-86846926D01*
X127367926Y-86920103D01*
X127281870Y-86977604D01*
X127186254Y-87017209D01*
X127084747Y-87037400D01*
X126981253Y-87037400D01*
X126879746Y-87017209D01*
X126784130Y-86977604D01*
X126698074Y-86920103D01*
X126624897Y-86846926D01*
X126567396Y-86760870D01*
X126527791Y-86665254D01*
X126507600Y-86563747D01*
X126507600Y-86460253D01*
X126527791Y-86358746D01*
X126567396Y-86263130D01*
X126624897Y-86177074D01*
X126698074Y-86103897D01*
X126784130Y-86046396D01*
X126879746Y-86006791D01*
X126981253Y-85986600D01*
X127084747Y-85986600D01*
X127186254Y-86006791D01*
X127186254Y-86006791D01*
G37*
G36*
X124646254Y-86006791D02*
X124741870Y-86046396D01*
X124827926Y-86103897D01*
X124901103Y-86177074D01*
X124958604Y-86263130D01*
X124998209Y-86358746D01*
X125018400Y-86460253D01*
X125018400Y-86563747D01*
X124998209Y-86665254D01*
X124958604Y-86760870D01*
X124901103Y-86846926D01*
X124827926Y-86920103D01*
X124741870Y-86977604D01*
X124646254Y-87017209D01*
X124544747Y-87037400D01*
X124441253Y-87037400D01*
X124339746Y-87017209D01*
X124244130Y-86977604D01*
X124158074Y-86920103D01*
X124084897Y-86846926D01*
X124027396Y-86760870D01*
X123987791Y-86665254D01*
X123967600Y-86563747D01*
X123967600Y-86460253D01*
X123987791Y-86358746D01*
X124027396Y-86263130D01*
X124084897Y-86177074D01*
X124158074Y-86103897D01*
X124244130Y-86046396D01*
X124339746Y-86006791D01*
X124441253Y-85986600D01*
X124544747Y-85986600D01*
X124646254Y-86006791D01*
X124646254Y-86006791D01*
G37*
G36*
X122106254Y-86006791D02*
X122201870Y-86046396D01*
X122287926Y-86103897D01*
X122361103Y-86177074D01*
X122418604Y-86263130D01*
X122458209Y-86358746D01*
X122478400Y-86460253D01*
X122478400Y-86563747D01*
X122458209Y-86665254D01*
X122418604Y-86760870D01*
X122361103Y-86846926D01*
X122287926Y-86920103D01*
X122201870Y-86977604D01*
X122106254Y-87017209D01*
X122004747Y-87037400D01*
X121901253Y-87037400D01*
X121799746Y-87017209D01*
X121704130Y-86977604D01*
X121618074Y-86920103D01*
X121544897Y-86846926D01*
X121487396Y-86760870D01*
X121447791Y-86665254D01*
X121427600Y-86563747D01*
X121427600Y-86460253D01*
X121447791Y-86358746D01*
X121487396Y-86263130D01*
X121544897Y-86177074D01*
X121618074Y-86103897D01*
X121704130Y-86046396D01*
X121799746Y-86006791D01*
X121901253Y-85986600D01*
X122004747Y-85986600D01*
X122106254Y-86006791D01*
X122106254Y-86006791D01*
G37*
G36*
X136195800Y-86722200D02*
X132145000Y-86722200D01*
X132145000Y-84371400D01*
X136195800Y-84371400D01*
X136195800Y-86722200D01*
X136195800Y-86722200D01*
G37*
G36*
X140146854Y-85845345D02*
X140215173Y-85873644D01*
X140276658Y-85914727D01*
X140328946Y-85967015D01*
X140370029Y-86028500D01*
X140398328Y-86096819D01*
X140412754Y-86169344D01*
X140412754Y-86243294D01*
X140398328Y-86315819D01*
X140370029Y-86384138D01*
X140328946Y-86445623D01*
X140276658Y-86497911D01*
X140215173Y-86538994D01*
X140146854Y-86567293D01*
X140074329Y-86581719D01*
X140000379Y-86581719D01*
X139927854Y-86567293D01*
X139859535Y-86538994D01*
X139798050Y-86497911D01*
X139745762Y-86445623D01*
X139704679Y-86384138D01*
X139676380Y-86315819D01*
X139661954Y-86243294D01*
X139661954Y-86169344D01*
X139676380Y-86096819D01*
X139704679Y-86028500D01*
X139745762Y-85967015D01*
X139798050Y-85914727D01*
X139859535Y-85873644D01*
X139927854Y-85845345D01*
X140000379Y-85830919D01*
X140074329Y-85830919D01*
X140146854Y-85845345D01*
X140146854Y-85845345D01*
G37*
G36*
X100522854Y-85845345D02*
X100591173Y-85873644D01*
X100652658Y-85914727D01*
X100704946Y-85967015D01*
X100746029Y-86028500D01*
X100774328Y-86096819D01*
X100788754Y-86169344D01*
X100788754Y-86243294D01*
X100774328Y-86315819D01*
X100746029Y-86384138D01*
X100704946Y-86445623D01*
X100652658Y-86497911D01*
X100591173Y-86538994D01*
X100522854Y-86567293D01*
X100450329Y-86581719D01*
X100376379Y-86581719D01*
X100303854Y-86567293D01*
X100235535Y-86538994D01*
X100174050Y-86497911D01*
X100121762Y-86445623D01*
X100080679Y-86384138D01*
X100052380Y-86315819D01*
X100037954Y-86243294D01*
X100037954Y-86169344D01*
X100052380Y-86096819D01*
X100080679Y-86028500D01*
X100121762Y-85967015D01*
X100174050Y-85914727D01*
X100235535Y-85873644D01*
X100303854Y-85845345D01*
X100376379Y-85830919D01*
X100450329Y-85830919D01*
X100522854Y-85845345D01*
X100522854Y-85845345D01*
G37*
G36*
X116614400Y-86127400D02*
X115503600Y-86127400D01*
X115503600Y-83526600D01*
X116614400Y-83526600D01*
X116614400Y-86127400D01*
X116614400Y-86127400D01*
G37*
G36*
X114414400Y-86127400D02*
X113303600Y-86127400D01*
X113303600Y-85426600D01*
X114414400Y-85426600D01*
X114414400Y-86127400D01*
X114414400Y-86127400D01*
G37*
G36*
X117910400Y-85202400D02*
X117359600Y-85202400D01*
X117359600Y-84551600D01*
X117910400Y-84551600D01*
X117910400Y-85202400D01*
X117910400Y-85202400D01*
G37*
G36*
X128325400Y-85025400D02*
X127674600Y-85025400D01*
X127674600Y-84574600D01*
X128325400Y-84574600D01*
X128325400Y-85025400D01*
X128325400Y-85025400D01*
G37*
G36*
X112516400Y-84945400D02*
X111965600Y-84945400D01*
X111965600Y-84294600D01*
X112516400Y-84294600D01*
X112516400Y-84945400D01*
X112516400Y-84945400D01*
G37*
G36*
X110516400Y-84945400D02*
X109965600Y-84945400D01*
X109965600Y-84294600D01*
X110516400Y-84294600D01*
X110516400Y-84945400D01*
X110516400Y-84945400D01*
G37*
G36*
X111516400Y-84945400D02*
X110965600Y-84945400D01*
X110965600Y-84294600D01*
X111516400Y-84294600D01*
X111516400Y-84945400D01*
X111516400Y-84945400D01*
G37*
G36*
X123854400Y-84725400D02*
X123353600Y-84725400D01*
X123353600Y-84074600D01*
X123854400Y-84074600D01*
X123854400Y-84725400D01*
X123854400Y-84725400D01*
G37*
G36*
X122031400Y-84712400D02*
X121080600Y-84712400D01*
X121080600Y-83861600D01*
X122031400Y-83861600D01*
X122031400Y-84712400D01*
X122031400Y-84712400D01*
G37*
G36*
X114414400Y-84227400D02*
X113303600Y-84227400D01*
X113303600Y-83526600D01*
X114414400Y-83526600D01*
X114414400Y-84227400D01*
X114414400Y-84227400D01*
G37*
G36*
X128325400Y-84125400D02*
X127674600Y-84125400D01*
X127674600Y-83674600D01*
X128325400Y-83674600D01*
X128325400Y-84125400D01*
X128325400Y-84125400D01*
G37*
G36*
X117910400Y-84102400D02*
X117359600Y-84102400D01*
X117359600Y-83451600D01*
X117910400Y-83451600D01*
X117910400Y-84102400D01*
X117910400Y-84102400D01*
G37*
G36*
X105572754Y-83897319D02*
X104921954Y-83897319D01*
X104921954Y-82296519D01*
X105572754Y-82296519D01*
X105572754Y-83897319D01*
X105572754Y-83897319D01*
G37*
G36*
X106572754Y-83897319D02*
X105921954Y-83897319D01*
X105921954Y-82296519D01*
X106572754Y-82296519D01*
X106572754Y-83897319D01*
X106572754Y-83897319D01*
G37*
G36*
X112516400Y-83845400D02*
X111965600Y-83845400D01*
X111965600Y-83194600D01*
X112516400Y-83194600D01*
X112516400Y-83845400D01*
X112516400Y-83845400D01*
G37*
G36*
X111516400Y-83845400D02*
X110965600Y-83845400D01*
X110965600Y-83194600D01*
X111516400Y-83194600D01*
X111516400Y-83845400D01*
X111516400Y-83845400D01*
G37*
G36*
X110516400Y-83845400D02*
X109965600Y-83845400D01*
X109965600Y-83194600D01*
X110516400Y-83194600D01*
X110516400Y-83845400D01*
X110516400Y-83845400D01*
G37*
G36*
X120031400Y-83762400D02*
X119080600Y-83762400D01*
X119080600Y-82911600D01*
X120031400Y-82911600D01*
X120031400Y-83762400D01*
X120031400Y-83762400D01*
G37*
G36*
X136310800Y-83737200D02*
X135840000Y-83737200D01*
X135840000Y-82286400D01*
X136310800Y-82286400D01*
X136310800Y-83737200D01*
X136310800Y-83737200D01*
G37*
G36*
X135040800Y-83737200D02*
X134570000Y-83737200D01*
X134570000Y-82286400D01*
X135040800Y-82286400D01*
X135040800Y-83737200D01*
X135040800Y-83737200D01*
G37*
G36*
X133770800Y-83737200D02*
X133300000Y-83737200D01*
X133300000Y-82286400D01*
X133770800Y-82286400D01*
X133770800Y-83737200D01*
X133770800Y-83737200D01*
G37*
G36*
X132500800Y-83737200D02*
X132030000Y-83737200D01*
X132030000Y-82286400D01*
X132500800Y-82286400D01*
X132500800Y-83737200D01*
X132500800Y-83737200D01*
G37*
G36*
X128325400Y-83200400D02*
X127674600Y-83200400D01*
X127674600Y-82749600D01*
X128325400Y-82749600D01*
X128325400Y-83200400D01*
X128325400Y-83200400D01*
G37*
G36*
X122031400Y-82812400D02*
X121080600Y-82812400D01*
X121080600Y-81961600D01*
X122031400Y-81961600D01*
X122031400Y-82812400D01*
X122031400Y-82812400D01*
G37*
G36*
X123854400Y-82625400D02*
X123353600Y-82625400D01*
X123353600Y-81974600D01*
X123854400Y-81974600D01*
X123854400Y-82625400D01*
X123854400Y-82625400D01*
G37*
G36*
X108212008Y-81417110D02*
X108307624Y-81456715D01*
X108393680Y-81514216D01*
X108466857Y-81587393D01*
X108524358Y-81673449D01*
X108563963Y-81769065D01*
X108584154Y-81870572D01*
X108584154Y-81974066D01*
X108563963Y-82075573D01*
X108524358Y-82171189D01*
X108466857Y-82257245D01*
X108393680Y-82330422D01*
X108307624Y-82387923D01*
X108212008Y-82427528D01*
X108110501Y-82447719D01*
X108007007Y-82447719D01*
X107905500Y-82427528D01*
X107809884Y-82387923D01*
X107723828Y-82330422D01*
X107650651Y-82257245D01*
X107593150Y-82171189D01*
X107553545Y-82075573D01*
X107533354Y-81974066D01*
X107533354Y-81870572D01*
X107553545Y-81769065D01*
X107593150Y-81673449D01*
X107650651Y-81587393D01*
X107723828Y-81514216D01*
X107809884Y-81456715D01*
X107905500Y-81417110D01*
X108007007Y-81396919D01*
X108110501Y-81396919D01*
X108212008Y-81417110D01*
X108212008Y-81417110D01*
G37*
G36*
X100522854Y-81595345D02*
X100591173Y-81623644D01*
X100652658Y-81664727D01*
X100704946Y-81717015D01*
X100746029Y-81778500D01*
X100774328Y-81846819D01*
X100788754Y-81919344D01*
X100788754Y-81993294D01*
X100774328Y-82065819D01*
X100746029Y-82134138D01*
X100704946Y-82195623D01*
X100652658Y-82247911D01*
X100591173Y-82288994D01*
X100522854Y-82317293D01*
X100450329Y-82331719D01*
X100376379Y-82331719D01*
X100303854Y-82317293D01*
X100235535Y-82288994D01*
X100174050Y-82247911D01*
X100121762Y-82195623D01*
X100080679Y-82134138D01*
X100052380Y-82065819D01*
X100037954Y-81993294D01*
X100037954Y-81919344D01*
X100052380Y-81846819D01*
X100080679Y-81778500D01*
X100121762Y-81717015D01*
X100174050Y-81664727D01*
X100235535Y-81623644D01*
X100303854Y-81595345D01*
X100376379Y-81580919D01*
X100450329Y-81580919D01*
X100522854Y-81595345D01*
X100522854Y-81595345D01*
G37*
G36*
X140146854Y-81595345D02*
X140215173Y-81623644D01*
X140276658Y-81664727D01*
X140328946Y-81717015D01*
X140370029Y-81778500D01*
X140398328Y-81846819D01*
X140412754Y-81919344D01*
X140412754Y-81993294D01*
X140398328Y-82065819D01*
X140370029Y-82134138D01*
X140328946Y-82195623D01*
X140276658Y-82247911D01*
X140215173Y-82288994D01*
X140146854Y-82317293D01*
X140074329Y-82331719D01*
X140000379Y-82331719D01*
X139927854Y-82317293D01*
X139859535Y-82288994D01*
X139798050Y-82247911D01*
X139745762Y-82195623D01*
X139704679Y-82134138D01*
X139676380Y-82065819D01*
X139661954Y-81993294D01*
X139661954Y-81919344D01*
X139676380Y-81846819D01*
X139704679Y-81778500D01*
X139745762Y-81717015D01*
X139798050Y-81664727D01*
X139859535Y-81623644D01*
X139927854Y-81595345D01*
X140000379Y-81580919D01*
X140074329Y-81580919D01*
X140146854Y-81595345D01*
X140146854Y-81595345D01*
G37*
G36*
X128325400Y-82300400D02*
X127674600Y-82300400D01*
X127674600Y-81849600D01*
X128325400Y-81849600D01*
X128325400Y-82300400D01*
X128325400Y-82300400D01*
G37*
G36*
X105210446Y-80892358D02*
X105242026Y-80901938D01*
X105271130Y-80917495D01*
X105296642Y-80938431D01*
X105317578Y-80963943D01*
X105333135Y-80993047D01*
X105342715Y-81024627D01*
X105346554Y-81063609D01*
X105346554Y-81714229D01*
X105342715Y-81753211D01*
X105333135Y-81784791D01*
X105317578Y-81813895D01*
X105296642Y-81839407D01*
X105271130Y-81860343D01*
X105242026Y-81875900D01*
X105210446Y-81885480D01*
X105171464Y-81889319D01*
X104595844Y-81889319D01*
X104556862Y-81885480D01*
X104525282Y-81875900D01*
X104496178Y-81860343D01*
X104470666Y-81839407D01*
X104449730Y-81813895D01*
X104434173Y-81784791D01*
X104424593Y-81753211D01*
X104420754Y-81714229D01*
X104420754Y-81063609D01*
X104424593Y-81024627D01*
X104434173Y-80993047D01*
X104449730Y-80963943D01*
X104470666Y-80938431D01*
X104496178Y-80917495D01*
X104525282Y-80901938D01*
X104556862Y-80892358D01*
X104595844Y-80888519D01*
X105171464Y-80888519D01*
X105210446Y-80892358D01*
X105210446Y-80892358D01*
G37*
G36*
X106785446Y-80892358D02*
X106817026Y-80901938D01*
X106846130Y-80917495D01*
X106871642Y-80938431D01*
X106892578Y-80963943D01*
X106908135Y-80993047D01*
X106917715Y-81024627D01*
X106921554Y-81063609D01*
X106921554Y-81714229D01*
X106917715Y-81753211D01*
X106908135Y-81784791D01*
X106892578Y-81813895D01*
X106871642Y-81839407D01*
X106846130Y-81860343D01*
X106817026Y-81875900D01*
X106785446Y-81885480D01*
X106746464Y-81889319D01*
X106170844Y-81889319D01*
X106131862Y-81885480D01*
X106100282Y-81875900D01*
X106071178Y-81860343D01*
X106045666Y-81839407D01*
X106024730Y-81813895D01*
X106009173Y-81784791D01*
X105999593Y-81753211D01*
X105995754Y-81714229D01*
X105995754Y-81063609D01*
X105999593Y-81024627D01*
X106009173Y-80993047D01*
X106024730Y-80963943D01*
X106045666Y-80938431D01*
X106071178Y-80917495D01*
X106100282Y-80901938D01*
X106131862Y-80892358D01*
X106170844Y-80888519D01*
X106746464Y-80888519D01*
X106785446Y-80892358D01*
X106785446Y-80892358D01*
G37*
G36*
X111634200Y-81264800D02*
X111183400Y-81264800D01*
X111183400Y-80614000D01*
X111634200Y-80614000D01*
X111634200Y-81264800D01*
X111634200Y-81264800D01*
G37*
G36*
X110734200Y-81264800D02*
X110283400Y-81264800D01*
X110283400Y-80614000D01*
X110734200Y-80614000D01*
X110734200Y-81264800D01*
X110734200Y-81264800D01*
G37*
G36*
X114334200Y-81214800D02*
X113683400Y-81214800D01*
X113683400Y-80664000D01*
X114334200Y-80664000D01*
X114334200Y-81214800D01*
X114334200Y-81214800D01*
G37*
G36*
X113234200Y-81214800D02*
X112583400Y-81214800D01*
X112583400Y-80664000D01*
X113234200Y-80664000D01*
X113234200Y-81214800D01*
X113234200Y-81214800D01*
G37*
G36*
X119793884Y-79415937D02*
X119930445Y-79472502D01*
X119930448Y-79472504D01*
X120046691Y-79550175D01*
X120053356Y-79554629D01*
X120157871Y-79659144D01*
X120157873Y-79659147D01*
X120157874Y-79659148D01*
X120180869Y-79693562D01*
X120239998Y-79782055D01*
X120296563Y-79918616D01*
X120302002Y-79945961D01*
X120309115Y-79969410D01*
X120320666Y-79991021D01*
X120336211Y-80009963D01*
X120355153Y-80025508D01*
X120376764Y-80037060D01*
X120400213Y-80044173D01*
X120424600Y-80046575D01*
X120448986Y-80044173D01*
X120472435Y-80037060D01*
X120494046Y-80025509D01*
X120512988Y-80009964D01*
X120528533Y-79991022D01*
X120540085Y-79969411D01*
X120547198Y-79945962D01*
X120549600Y-79921575D01*
X120549600Y-79437100D01*
X123600400Y-79437100D01*
X123600400Y-79921575D01*
X123602802Y-79945961D01*
X123609915Y-79969410D01*
X123621466Y-79991021D01*
X123637012Y-80009963D01*
X123655954Y-80025509D01*
X123677565Y-80037060D01*
X123701014Y-80044173D01*
X123725400Y-80046575D01*
X123749786Y-80044173D01*
X123773235Y-80037060D01*
X123794846Y-80025509D01*
X123813788Y-80009963D01*
X123829334Y-79991021D01*
X123840885Y-79969410D01*
X123847998Y-79945961D01*
X123853437Y-79918616D01*
X123910002Y-79782055D01*
X123969131Y-79693562D01*
X123992126Y-79659148D01*
X123992127Y-79659147D01*
X123992129Y-79659144D01*
X124096644Y-79554629D01*
X124103310Y-79550175D01*
X124219552Y-79472504D01*
X124219555Y-79472502D01*
X124356116Y-79415937D01*
X124501091Y-79387100D01*
X124648909Y-79387100D01*
X124793884Y-79415937D01*
X124930445Y-79472502D01*
X124930448Y-79472504D01*
X125046691Y-79550175D01*
X125053356Y-79554629D01*
X125157871Y-79659144D01*
X125157873Y-79659147D01*
X125157874Y-79659148D01*
X125180869Y-79693562D01*
X125239998Y-79782055D01*
X125296563Y-79918616D01*
X125325400Y-80063591D01*
X125325400Y-80211409D01*
X125296563Y-80356384D01*
X125239998Y-80492945D01*
X125157871Y-80615856D01*
X125053356Y-80720371D01*
X124930445Y-80802498D01*
X124793884Y-80859063D01*
X124648909Y-80887900D01*
X124501091Y-80887900D01*
X124356116Y-80859063D01*
X124219555Y-80802498D01*
X124096644Y-80720371D01*
X123992129Y-80615856D01*
X123910002Y-80492945D01*
X123853437Y-80356384D01*
X123847998Y-80329039D01*
X123840885Y-80305590D01*
X123829334Y-80283979D01*
X123813789Y-80265037D01*
X123794847Y-80249492D01*
X123773236Y-80237940D01*
X123749787Y-80230827D01*
X123725400Y-80228425D01*
X123701014Y-80230827D01*
X123677565Y-80237940D01*
X123655954Y-80249491D01*
X123637012Y-80265036D01*
X123621467Y-80283978D01*
X123609915Y-80305589D01*
X123602802Y-80329038D01*
X123600400Y-80353425D01*
X123600400Y-80837900D01*
X120549600Y-80837900D01*
X120549600Y-80353425D01*
X120547198Y-80329039D01*
X120540085Y-80305590D01*
X120528534Y-80283979D01*
X120512988Y-80265037D01*
X120494046Y-80249491D01*
X120472435Y-80237940D01*
X120448986Y-80230827D01*
X120424600Y-80228425D01*
X120400214Y-80230827D01*
X120376765Y-80237940D01*
X120355154Y-80249491D01*
X120336212Y-80265037D01*
X120320666Y-80283979D01*
X120309115Y-80305590D01*
X120302002Y-80329039D01*
X120296563Y-80356384D01*
X120239998Y-80492945D01*
X120157871Y-80615856D01*
X120053356Y-80720371D01*
X119930445Y-80802498D01*
X119793884Y-80859063D01*
X119648909Y-80887900D01*
X119501091Y-80887900D01*
X119356116Y-80859063D01*
X119219555Y-80802498D01*
X119096644Y-80720371D01*
X118992129Y-80615856D01*
X118910002Y-80492945D01*
X118853437Y-80356384D01*
X118824600Y-80211409D01*
X118824600Y-80063591D01*
X118853437Y-79918616D01*
X118910002Y-79782055D01*
X118969131Y-79693562D01*
X118992126Y-79659148D01*
X118992127Y-79659147D01*
X118992129Y-79659144D01*
X119096644Y-79554629D01*
X119103310Y-79550175D01*
X119219552Y-79472504D01*
X119219555Y-79472502D01*
X119356116Y-79415937D01*
X119501091Y-79387100D01*
X119648909Y-79387100D01*
X119793884Y-79415937D01*
X119793884Y-79415937D01*
G37*
G36*
X108054754Y-80689519D02*
X107503954Y-80689519D01*
X107503954Y-80038719D01*
X108054754Y-80038719D01*
X108054754Y-80689519D01*
X108054754Y-80689519D01*
G37*
G36*
X134731941Y-79250417D02*
X134829013Y-79290625D01*
X134916380Y-79349002D01*
X134990671Y-79423293D01*
X135049048Y-79510660D01*
X135089256Y-79607732D01*
X135109754Y-79710782D01*
X135109754Y-79815856D01*
X135089256Y-79918906D01*
X135049048Y-80015978D01*
X134990671Y-80103345D01*
X134916380Y-80177636D01*
X134829013Y-80236013D01*
X134731941Y-80276221D01*
X134628891Y-80296719D01*
X134523817Y-80296719D01*
X134420767Y-80276221D01*
X134323695Y-80236013D01*
X134236328Y-80177636D01*
X134162037Y-80103345D01*
X134103660Y-80015978D01*
X134063452Y-79918906D01*
X134042954Y-79815856D01*
X134042954Y-79710782D01*
X134063452Y-79607732D01*
X134103660Y-79510660D01*
X134162037Y-79423293D01*
X134236328Y-79349002D01*
X134323695Y-79290625D01*
X134420767Y-79250417D01*
X134523817Y-79229919D01*
X134628891Y-79229919D01*
X134731941Y-79250417D01*
X134731941Y-79250417D01*
G37*
G36*
X139359676Y-77336378D02*
X139359679Y-77336379D01*
X139359678Y-77336379D01*
X139628184Y-77447597D01*
X139819951Y-77575732D01*
X139869836Y-77609064D01*
X140075336Y-77814564D01*
X140075338Y-77814567D01*
X140236803Y-78056216D01*
X140298022Y-78204013D01*
X140348022Y-78324724D01*
X140404720Y-78609764D01*
X140404720Y-78900396D01*
X140348022Y-79185436D01*
X140348021Y-79185438D01*
X140236803Y-79453944D01*
X140140819Y-79597594D01*
X140075336Y-79695596D01*
X139869836Y-79901096D01*
X139869833Y-79901098D01*
X139628184Y-80062563D01*
X139475959Y-80125616D01*
X139359676Y-80173782D01*
X139074636Y-80230480D01*
X138784004Y-80230480D01*
X138498964Y-80173782D01*
X138382681Y-80125616D01*
X138230456Y-80062563D01*
X137988807Y-79901098D01*
X137988804Y-79901096D01*
X137783304Y-79695596D01*
X137717821Y-79597594D01*
X137621837Y-79453944D01*
X137510619Y-79185438D01*
X137510618Y-79185436D01*
X137453920Y-78900396D01*
X137453920Y-78609764D01*
X137510618Y-78324724D01*
X137560618Y-78204013D01*
X137621837Y-78056216D01*
X137783302Y-77814567D01*
X137783304Y-77814564D01*
X137988804Y-77609064D01*
X138038689Y-77575732D01*
X138230456Y-77447597D01*
X138498962Y-77336379D01*
X138498961Y-77336379D01*
X138498964Y-77336378D01*
X138784004Y-77279680D01*
X139074636Y-77279680D01*
X139359676Y-77336378D01*
X139359676Y-77336378D01*
G37*
G36*
X101866736Y-77333838D02*
X101927566Y-77359034D01*
X102135244Y-77445057D01*
X102185534Y-77478660D01*
X102376896Y-77606524D01*
X102582396Y-77812024D01*
X102582398Y-77812027D01*
X102743863Y-78053676D01*
X102822789Y-78244221D01*
X102855082Y-78322184D01*
X102911780Y-78607224D01*
X102911780Y-78897856D01*
X102855082Y-79182896D01*
X102835604Y-79229919D01*
X102743863Y-79451404D01*
X102662752Y-79572795D01*
X102582396Y-79693056D01*
X102376896Y-79898556D01*
X102376893Y-79898558D01*
X102135244Y-80060023D01*
X101936157Y-80142487D01*
X101866736Y-80171242D01*
X101581696Y-80227940D01*
X101291064Y-80227940D01*
X101006024Y-80171242D01*
X100936603Y-80142487D01*
X100737516Y-80060023D01*
X100495867Y-79898558D01*
X100495864Y-79898556D01*
X100290364Y-79693056D01*
X100210008Y-79572795D01*
X100128897Y-79451404D01*
X100037156Y-79229919D01*
X100017678Y-79182896D01*
X99960980Y-78897856D01*
X99960980Y-78607224D01*
X100017678Y-78322184D01*
X100049971Y-78244221D01*
X100128897Y-78053676D01*
X100290362Y-77812027D01*
X100290364Y-77812024D01*
X100495864Y-77606524D01*
X100687226Y-77478660D01*
X100737516Y-77445057D01*
X100945194Y-77359034D01*
X101006024Y-77333838D01*
X101291064Y-77277140D01*
X101581696Y-77277140D01*
X101866736Y-77333838D01*
X101866736Y-77333838D01*
G37*
G36*
X105334590Y-78755330D02*
X105358322Y-78765160D01*
X105358324Y-78765161D01*
X105379680Y-78779431D01*
X105397842Y-78797593D01*
X105412112Y-78818949D01*
X105412113Y-78818951D01*
X105421943Y-78842683D01*
X105426954Y-78867876D01*
X105426954Y-78893562D01*
X105421943Y-78918755D01*
X105412113Y-78942487D01*
X105412112Y-78942489D01*
X105397842Y-78963845D01*
X105373031Y-78988656D01*
X105368544Y-78992339D01*
X105353001Y-79011283D01*
X105341451Y-79032895D01*
X105334340Y-79056345D01*
X105331941Y-79080731D01*
X105334345Y-79105117D01*
X105341461Y-79128566D01*
X105353014Y-79150175D01*
X105368561Y-79169116D01*
X105373044Y-79172795D01*
X105404491Y-79204242D01*
X105408174Y-79208729D01*
X105427118Y-79224272D01*
X105448730Y-79235822D01*
X105472180Y-79242933D01*
X105496566Y-79245332D01*
X105520952Y-79242928D01*
X105544401Y-79235812D01*
X105566010Y-79224259D01*
X105584951Y-79208712D01*
X105588630Y-79204229D01*
X105613428Y-79179431D01*
X105634784Y-79165161D01*
X105634786Y-79165160D01*
X105658518Y-79155330D01*
X105683711Y-79150319D01*
X105709397Y-79150319D01*
X105734590Y-79155330D01*
X105758322Y-79165160D01*
X105758324Y-79165161D01*
X105779680Y-79179431D01*
X105804491Y-79204242D01*
X105808174Y-79208729D01*
X105827118Y-79224272D01*
X105848730Y-79235822D01*
X105872180Y-79242933D01*
X105896566Y-79245332D01*
X105920952Y-79242928D01*
X105944401Y-79235812D01*
X105966010Y-79224259D01*
X105984951Y-79208712D01*
X105988630Y-79204229D01*
X106020077Y-79172782D01*
X106024564Y-79169099D01*
X106040107Y-79150155D01*
X106051657Y-79128543D01*
X106058768Y-79105093D01*
X106061167Y-79080707D01*
X106058763Y-79056321D01*
X106051647Y-79032872D01*
X106040094Y-79011263D01*
X106024547Y-78992322D01*
X106020064Y-78988643D01*
X105995266Y-78963845D01*
X105980996Y-78942489D01*
X105980995Y-78942487D01*
X105971165Y-78918755D01*
X105966154Y-78893562D01*
X105966154Y-78867876D01*
X105971165Y-78842683D01*
X105980995Y-78818951D01*
X105980996Y-78818949D01*
X105995266Y-78797593D01*
X106013428Y-78779431D01*
X106034784Y-78765161D01*
X106034786Y-78765160D01*
X106058518Y-78755330D01*
X106083711Y-78750319D01*
X106109397Y-78750319D01*
X106134590Y-78755330D01*
X106158322Y-78765160D01*
X106158324Y-78765161D01*
X106179680Y-78779431D01*
X106197842Y-78797593D01*
X106212112Y-78818949D01*
X106212113Y-78818951D01*
X106221943Y-78842683D01*
X106226954Y-78867876D01*
X106226954Y-78893562D01*
X106221943Y-78918755D01*
X106212113Y-78942487D01*
X106212112Y-78942489D01*
X106197842Y-78963845D01*
X106173031Y-78988656D01*
X106168544Y-78992339D01*
X106153001Y-79011283D01*
X106141451Y-79032895D01*
X106134340Y-79056345D01*
X106131941Y-79080731D01*
X106134345Y-79105117D01*
X106141461Y-79128566D01*
X106153014Y-79150175D01*
X106168561Y-79169116D01*
X106173044Y-79172795D01*
X106197842Y-79197593D01*
X106205283Y-79208729D01*
X106212113Y-79218951D01*
X106221943Y-79242683D01*
X106226954Y-79267876D01*
X106226954Y-79293562D01*
X106221943Y-79318755D01*
X106212712Y-79341040D01*
X106212112Y-79342489D01*
X106197842Y-79363845D01*
X106173031Y-79388656D01*
X106168544Y-79392339D01*
X106153001Y-79411283D01*
X106141451Y-79432895D01*
X106134340Y-79456345D01*
X106131941Y-79480731D01*
X106134345Y-79505117D01*
X106141461Y-79528566D01*
X106153014Y-79550175D01*
X106168561Y-79569116D01*
X106173044Y-79572795D01*
X106197842Y-79597593D01*
X106212112Y-79618949D01*
X106212113Y-79618951D01*
X106221943Y-79642683D01*
X106226954Y-79667876D01*
X106226954Y-79693562D01*
X106221943Y-79718755D01*
X106213226Y-79739800D01*
X106212112Y-79742489D01*
X106197842Y-79763845D01*
X106173031Y-79788656D01*
X106168544Y-79792339D01*
X106153001Y-79811283D01*
X106141451Y-79832895D01*
X106134340Y-79856345D01*
X106131941Y-79880731D01*
X106134345Y-79905117D01*
X106141461Y-79928566D01*
X106153014Y-79950175D01*
X106168561Y-79969116D01*
X106173044Y-79972795D01*
X106197842Y-79997593D01*
X106210127Y-80015979D01*
X106212113Y-80018951D01*
X106221943Y-80042683D01*
X106226954Y-80067876D01*
X106226954Y-80093562D01*
X106221943Y-80118755D01*
X106212113Y-80142487D01*
X106212112Y-80142489D01*
X106197842Y-80163845D01*
X106179680Y-80182007D01*
X106158324Y-80196277D01*
X106158323Y-80196278D01*
X106158322Y-80196278D01*
X106134590Y-80206108D01*
X106109397Y-80211119D01*
X106083711Y-80211119D01*
X106058518Y-80206108D01*
X106034786Y-80196278D01*
X106034785Y-80196278D01*
X106034784Y-80196277D01*
X106013428Y-80182007D01*
X105988617Y-80157196D01*
X105984934Y-80152709D01*
X105965990Y-80137166D01*
X105944378Y-80125616D01*
X105920928Y-80118505D01*
X105896542Y-80116106D01*
X105872156Y-80118510D01*
X105848707Y-80125626D01*
X105827098Y-80137179D01*
X105808157Y-80152726D01*
X105804478Y-80157209D01*
X105779680Y-80182007D01*
X105758324Y-80196277D01*
X105758323Y-80196278D01*
X105758322Y-80196278D01*
X105734590Y-80206108D01*
X105709397Y-80211119D01*
X105683711Y-80211119D01*
X105658518Y-80206108D01*
X105634786Y-80196278D01*
X105634785Y-80196278D01*
X105634784Y-80196277D01*
X105613428Y-80182007D01*
X105588617Y-80157196D01*
X105584934Y-80152709D01*
X105565990Y-80137166D01*
X105544378Y-80125616D01*
X105520928Y-80118505D01*
X105496542Y-80116106D01*
X105472156Y-80118510D01*
X105448707Y-80125626D01*
X105427098Y-80137179D01*
X105408157Y-80152726D01*
X105404478Y-80157209D01*
X105379680Y-80182007D01*
X105358324Y-80196277D01*
X105358323Y-80196278D01*
X105358322Y-80196278D01*
X105334590Y-80206108D01*
X105309397Y-80211119D01*
X105283711Y-80211119D01*
X105258518Y-80206108D01*
X105234786Y-80196278D01*
X105234785Y-80196278D01*
X105234784Y-80196277D01*
X105213428Y-80182007D01*
X105195266Y-80163845D01*
X105180996Y-80142489D01*
X105180995Y-80142487D01*
X105171165Y-80118755D01*
X105166154Y-80093562D01*
X105166154Y-80067876D01*
X105171165Y-80042683D01*
X105180995Y-80018951D01*
X105182981Y-80015979D01*
X105195266Y-79997593D01*
X105220077Y-79972782D01*
X105224564Y-79969099D01*
X105240107Y-79950155D01*
X105251657Y-79928543D01*
X105258768Y-79905093D01*
X105261167Y-79880707D01*
X105258763Y-79856321D01*
X105251647Y-79832872D01*
X105240094Y-79811263D01*
X105224547Y-79792322D01*
X105220064Y-79788643D01*
X105195266Y-79763845D01*
X105180996Y-79742489D01*
X105179882Y-79739800D01*
X105171165Y-79718755D01*
X105166154Y-79693562D01*
X105166154Y-79667876D01*
X105171165Y-79642683D01*
X105180995Y-79618951D01*
X105180996Y-79618949D01*
X105195266Y-79597593D01*
X105220077Y-79572782D01*
X105224564Y-79569099D01*
X105240107Y-79550155D01*
X105251657Y-79528543D01*
X105258768Y-79505093D01*
X105261164Y-79480731D01*
X105331941Y-79480731D01*
X105334345Y-79505117D01*
X105341461Y-79528566D01*
X105353014Y-79550175D01*
X105368561Y-79569116D01*
X105373044Y-79572795D01*
X105397842Y-79597593D01*
X105412112Y-79618949D01*
X105412113Y-79618951D01*
X105421943Y-79642683D01*
X105426954Y-79667876D01*
X105426954Y-79693562D01*
X105421943Y-79718755D01*
X105413226Y-79739800D01*
X105412112Y-79742489D01*
X105397842Y-79763845D01*
X105373031Y-79788656D01*
X105368544Y-79792339D01*
X105353001Y-79811283D01*
X105341451Y-79832895D01*
X105334340Y-79856345D01*
X105331941Y-79880731D01*
X105334345Y-79905117D01*
X105341461Y-79928566D01*
X105353014Y-79950175D01*
X105368561Y-79969116D01*
X105373044Y-79972795D01*
X105404491Y-80004242D01*
X105408174Y-80008729D01*
X105427118Y-80024272D01*
X105448730Y-80035822D01*
X105472180Y-80042933D01*
X105496566Y-80045332D01*
X105520952Y-80042928D01*
X105544401Y-80035812D01*
X105566010Y-80024259D01*
X105584951Y-80008712D01*
X105588630Y-80004229D01*
X105613428Y-79979431D01*
X105634784Y-79965161D01*
X105634786Y-79965160D01*
X105658518Y-79955330D01*
X105683711Y-79950319D01*
X105709397Y-79950319D01*
X105734590Y-79955330D01*
X105758322Y-79965160D01*
X105758324Y-79965161D01*
X105779680Y-79979431D01*
X105804491Y-80004242D01*
X105808174Y-80008729D01*
X105827118Y-80024272D01*
X105848730Y-80035822D01*
X105872180Y-80042933D01*
X105896566Y-80045332D01*
X105920952Y-80042928D01*
X105944401Y-80035812D01*
X105966010Y-80024259D01*
X105984951Y-80008712D01*
X105988630Y-80004229D01*
X106020077Y-79972782D01*
X106024564Y-79969099D01*
X106040107Y-79950155D01*
X106051657Y-79928543D01*
X106058768Y-79905093D01*
X106061167Y-79880707D01*
X106058763Y-79856321D01*
X106051647Y-79832872D01*
X106040094Y-79811263D01*
X106024547Y-79792322D01*
X106020064Y-79788643D01*
X105995266Y-79763845D01*
X105980996Y-79742489D01*
X105979882Y-79739800D01*
X105971165Y-79718755D01*
X105966154Y-79693562D01*
X105966154Y-79667876D01*
X105971165Y-79642683D01*
X105980995Y-79618951D01*
X105980996Y-79618949D01*
X105995266Y-79597593D01*
X106020077Y-79572782D01*
X106024564Y-79569099D01*
X106040107Y-79550155D01*
X106051657Y-79528543D01*
X106058768Y-79505093D01*
X106061167Y-79480707D01*
X106058763Y-79456321D01*
X106051647Y-79432872D01*
X106040094Y-79411263D01*
X106024547Y-79392322D01*
X106020064Y-79388643D01*
X105988617Y-79357196D01*
X105984934Y-79352709D01*
X105965990Y-79337166D01*
X105944378Y-79325616D01*
X105920928Y-79318505D01*
X105896542Y-79316106D01*
X105872156Y-79318510D01*
X105848707Y-79325626D01*
X105827098Y-79337179D01*
X105808157Y-79352726D01*
X105804478Y-79357209D01*
X105779680Y-79382007D01*
X105758324Y-79396277D01*
X105758323Y-79396278D01*
X105758322Y-79396278D01*
X105734590Y-79406108D01*
X105709397Y-79411119D01*
X105683711Y-79411119D01*
X105658518Y-79406108D01*
X105634786Y-79396278D01*
X105634785Y-79396278D01*
X105634784Y-79396277D01*
X105613428Y-79382007D01*
X105588617Y-79357196D01*
X105584934Y-79352709D01*
X105565990Y-79337166D01*
X105544378Y-79325616D01*
X105520928Y-79318505D01*
X105496542Y-79316106D01*
X105472156Y-79318510D01*
X105448707Y-79325626D01*
X105427098Y-79337179D01*
X105408157Y-79352726D01*
X105404478Y-79357209D01*
X105373031Y-79388656D01*
X105368544Y-79392339D01*
X105353001Y-79411283D01*
X105341451Y-79432895D01*
X105334340Y-79456345D01*
X105331941Y-79480731D01*
X105261164Y-79480731D01*
X105261167Y-79480707D01*
X105258763Y-79456321D01*
X105251647Y-79432872D01*
X105240094Y-79411263D01*
X105224547Y-79392322D01*
X105220064Y-79388643D01*
X105195266Y-79363845D01*
X105180996Y-79342489D01*
X105180396Y-79341040D01*
X105171165Y-79318755D01*
X105166154Y-79293562D01*
X105166154Y-79267876D01*
X105171165Y-79242683D01*
X105180995Y-79218951D01*
X105187825Y-79208729D01*
X105195266Y-79197593D01*
X105220077Y-79172782D01*
X105224564Y-79169099D01*
X105240107Y-79150155D01*
X105251657Y-79128543D01*
X105258768Y-79105093D01*
X105261167Y-79080707D01*
X105258763Y-79056321D01*
X105251647Y-79032872D01*
X105240094Y-79011263D01*
X105224547Y-78992322D01*
X105220064Y-78988643D01*
X105195266Y-78963845D01*
X105180996Y-78942489D01*
X105180995Y-78942487D01*
X105171165Y-78918755D01*
X105166154Y-78893562D01*
X105166154Y-78867876D01*
X105171165Y-78842683D01*
X105180995Y-78818951D01*
X105180996Y-78818949D01*
X105195266Y-78797593D01*
X105213428Y-78779431D01*
X105234784Y-78765161D01*
X105234786Y-78765160D01*
X105258518Y-78755330D01*
X105283711Y-78750319D01*
X105309397Y-78750319D01*
X105334590Y-78755330D01*
X105334590Y-78755330D01*
G37*
G36*
X116873408Y-78851710D02*
X116969024Y-78891315D01*
X117055080Y-78948816D01*
X117128257Y-79021993D01*
X117185758Y-79108049D01*
X117225363Y-79203665D01*
X117245554Y-79305172D01*
X117245554Y-79408666D01*
X117225363Y-79510173D01*
X117185758Y-79605789D01*
X117128257Y-79691845D01*
X117055080Y-79765022D01*
X116969024Y-79822523D01*
X116873408Y-79862128D01*
X116771901Y-79882319D01*
X116668407Y-79882319D01*
X116566900Y-79862128D01*
X116471284Y-79822523D01*
X116385228Y-79765022D01*
X116312051Y-79691845D01*
X116254550Y-79605789D01*
X116214945Y-79510173D01*
X116194754Y-79408666D01*
X116194754Y-79305172D01*
X116214945Y-79203665D01*
X116254550Y-79108049D01*
X116312051Y-79021993D01*
X116385228Y-78948816D01*
X116471284Y-78891315D01*
X116566900Y-78851710D01*
X116668407Y-78831519D01*
X116771901Y-78831519D01*
X116873408Y-78851710D01*
X116873408Y-78851710D01*
G37*
G36*
X111386602Y-78038386D02*
X111393715Y-78061835D01*
X111405266Y-78083446D01*
X111420812Y-78102388D01*
X111439754Y-78117934D01*
X111461365Y-78129485D01*
X111484814Y-78136598D01*
X111509200Y-78139000D01*
X113408400Y-78139000D01*
X113432786Y-78136598D01*
X113456235Y-78129485D01*
X113477846Y-78117934D01*
X113496788Y-78102388D01*
X113512334Y-78083446D01*
X113523885Y-78061835D01*
X113530998Y-78038386D01*
X113533400Y-78014000D01*
X114384200Y-78014000D01*
X114384200Y-79864800D01*
X113533400Y-79864800D01*
X113530998Y-79840414D01*
X113523885Y-79816965D01*
X113512334Y-79795354D01*
X113496788Y-79776412D01*
X113477846Y-79760866D01*
X113456235Y-79749315D01*
X113432786Y-79742202D01*
X113408400Y-79739800D01*
X111509200Y-79739800D01*
X111484814Y-79742202D01*
X111461365Y-79749315D01*
X111439754Y-79760866D01*
X111420812Y-79776412D01*
X111405266Y-79795354D01*
X111393715Y-79816965D01*
X111386602Y-79840414D01*
X111384200Y-79864800D01*
X110533400Y-79864800D01*
X110533400Y-78014000D01*
X111384200Y-78014000D01*
X111386602Y-78038386D01*
X111386602Y-78038386D01*
G37*
G36*
X132158598Y-78979324D02*
X132158600Y-78979325D01*
X132158601Y-78979325D01*
X132234872Y-79010917D01*
X132267730Y-79032872D01*
X132303518Y-79056785D01*
X132361888Y-79115155D01*
X132361890Y-79115158D01*
X132407756Y-79183801D01*
X132435349Y-79250417D01*
X132439349Y-79260075D01*
X132455454Y-79341040D01*
X132455454Y-79423598D01*
X132449418Y-79453945D01*
X132439348Y-79504566D01*
X132407756Y-79580837D01*
X132389785Y-79607732D01*
X132361888Y-79649483D01*
X132303518Y-79707853D01*
X132303515Y-79707855D01*
X132234872Y-79753721D01*
X132158601Y-79785313D01*
X132158600Y-79785313D01*
X132158598Y-79785314D01*
X132077633Y-79801419D01*
X131995075Y-79801419D01*
X131914110Y-79785314D01*
X131914108Y-79785313D01*
X131914107Y-79785313D01*
X131837836Y-79753721D01*
X131769193Y-79707855D01*
X131769190Y-79707853D01*
X131710820Y-79649483D01*
X131682923Y-79607732D01*
X131664952Y-79580837D01*
X131633360Y-79504566D01*
X131623291Y-79453945D01*
X131617254Y-79423598D01*
X131617254Y-79341040D01*
X131633359Y-79260075D01*
X131637359Y-79250417D01*
X131664952Y-79183801D01*
X131710818Y-79115158D01*
X131710820Y-79115155D01*
X131769190Y-79056785D01*
X131804978Y-79032872D01*
X131837836Y-79010917D01*
X131914107Y-78979325D01*
X131914108Y-78979325D01*
X131914110Y-78979324D01*
X131995075Y-78963219D01*
X132077633Y-78963219D01*
X132158598Y-78979324D01*
X132158598Y-78979324D01*
G37*
G36*
X130888598Y-78979324D02*
X130888600Y-78979325D01*
X130888601Y-78979325D01*
X130964872Y-79010917D01*
X130997730Y-79032872D01*
X131033518Y-79056785D01*
X131091888Y-79115155D01*
X131091890Y-79115158D01*
X131137756Y-79183801D01*
X131165349Y-79250417D01*
X131169349Y-79260075D01*
X131185454Y-79341040D01*
X131185454Y-79423598D01*
X131179418Y-79453945D01*
X131169348Y-79504566D01*
X131137756Y-79580837D01*
X131119785Y-79607732D01*
X131091888Y-79649483D01*
X131033518Y-79707853D01*
X131033515Y-79707855D01*
X130964872Y-79753721D01*
X130888601Y-79785313D01*
X130888600Y-79785313D01*
X130888598Y-79785314D01*
X130807633Y-79801419D01*
X130725075Y-79801419D01*
X130644110Y-79785314D01*
X130644108Y-79785313D01*
X130644107Y-79785313D01*
X130567836Y-79753721D01*
X130499193Y-79707855D01*
X130499190Y-79707853D01*
X130440820Y-79649483D01*
X130412923Y-79607732D01*
X130394952Y-79580837D01*
X130363360Y-79504566D01*
X130353291Y-79453945D01*
X130347254Y-79423598D01*
X130347254Y-79341040D01*
X130363359Y-79260075D01*
X130367359Y-79250417D01*
X130394952Y-79183801D01*
X130440818Y-79115158D01*
X130440820Y-79115155D01*
X130499190Y-79056785D01*
X130534978Y-79032872D01*
X130567836Y-79010917D01*
X130644107Y-78979325D01*
X130644108Y-78979325D01*
X130644110Y-78979324D01*
X130725075Y-78963219D01*
X130807633Y-78963219D01*
X130888598Y-78979324D01*
X130888598Y-78979324D01*
G37*
G36*
X133428598Y-78979324D02*
X133428600Y-78979325D01*
X133428601Y-78979325D01*
X133504872Y-79010917D01*
X133537730Y-79032872D01*
X133573518Y-79056785D01*
X133631888Y-79115155D01*
X133631890Y-79115158D01*
X133677756Y-79183801D01*
X133705349Y-79250417D01*
X133709349Y-79260075D01*
X133725454Y-79341040D01*
X133725454Y-79423598D01*
X133719418Y-79453945D01*
X133709348Y-79504566D01*
X133677756Y-79580837D01*
X133659785Y-79607732D01*
X133631888Y-79649483D01*
X133573518Y-79707853D01*
X133573515Y-79707855D01*
X133504872Y-79753721D01*
X133428601Y-79785313D01*
X133428600Y-79785313D01*
X133428598Y-79785314D01*
X133347633Y-79801419D01*
X133265075Y-79801419D01*
X133184110Y-79785314D01*
X133184108Y-79785313D01*
X133184107Y-79785313D01*
X133107836Y-79753721D01*
X133039193Y-79707855D01*
X133039190Y-79707853D01*
X132980820Y-79649483D01*
X132952923Y-79607732D01*
X132934952Y-79580837D01*
X132903360Y-79504566D01*
X132893291Y-79453945D01*
X132887254Y-79423598D01*
X132887254Y-79341040D01*
X132903359Y-79260075D01*
X132907359Y-79250417D01*
X132934952Y-79183801D01*
X132980818Y-79115158D01*
X132980820Y-79115155D01*
X133039190Y-79056785D01*
X133074978Y-79032872D01*
X133107836Y-79010917D01*
X133184107Y-78979325D01*
X133184108Y-78979325D01*
X133184110Y-78979324D01*
X133265075Y-78963219D01*
X133347633Y-78963219D01*
X133428598Y-78979324D01*
X133428598Y-78979324D01*
G37*
G36*
X108054754Y-79589519D02*
X107503954Y-79589519D01*
X107503954Y-78938719D01*
X108054754Y-78938719D01*
X108054754Y-79589519D01*
X108054754Y-79589519D01*
G37*
G36*
X129651941Y-78234417D02*
X129749013Y-78274625D01*
X129836380Y-78333002D01*
X129910671Y-78407293D01*
X129969048Y-78494660D01*
X130009256Y-78591732D01*
X130029754Y-78694782D01*
X130029754Y-78799856D01*
X130009256Y-78902906D01*
X129969048Y-78999978D01*
X129910671Y-79087345D01*
X129836380Y-79161636D01*
X129749013Y-79220013D01*
X129651941Y-79260221D01*
X129548891Y-79280719D01*
X129443817Y-79280719D01*
X129340767Y-79260221D01*
X129243695Y-79220013D01*
X129156328Y-79161636D01*
X129082037Y-79087345D01*
X129023660Y-78999978D01*
X128983452Y-78902906D01*
X128962954Y-78799856D01*
X128962954Y-78694782D01*
X128983452Y-78591732D01*
X129023660Y-78494660D01*
X129082037Y-78407293D01*
X129156328Y-78333002D01*
X129243695Y-78274625D01*
X129340767Y-78234417D01*
X129443817Y-78213919D01*
X129548891Y-78213919D01*
X129651941Y-78234417D01*
X129651941Y-78234417D01*
G37*
G36*
X108054754Y-78555919D02*
X107503954Y-78555919D01*
X107503954Y-77905119D01*
X108054754Y-77905119D01*
X108054754Y-78555919D01*
X108054754Y-78555919D01*
G37*
G36*
X130888598Y-77709324D02*
X130888600Y-77709325D01*
X130888601Y-77709325D01*
X130964872Y-77740917D01*
X130964873Y-77740918D01*
X131033518Y-77786785D01*
X131091888Y-77845155D01*
X131091890Y-77845158D01*
X131137756Y-77913801D01*
X131166366Y-77982873D01*
X131169349Y-77990075D01*
X131185454Y-78071040D01*
X131185454Y-78153598D01*
X131169886Y-78231864D01*
X131169348Y-78234566D01*
X131137756Y-78310837D01*
X131137755Y-78310838D01*
X131091888Y-78379483D01*
X131033518Y-78437853D01*
X131033515Y-78437855D01*
X130964872Y-78483721D01*
X130888601Y-78515313D01*
X130888600Y-78515313D01*
X130888598Y-78515314D01*
X130807633Y-78531419D01*
X130725075Y-78531419D01*
X130644110Y-78515314D01*
X130644108Y-78515313D01*
X130644107Y-78515313D01*
X130567836Y-78483721D01*
X130499193Y-78437855D01*
X130499190Y-78437853D01*
X130440820Y-78379483D01*
X130394953Y-78310838D01*
X130394952Y-78310837D01*
X130363360Y-78234566D01*
X130362823Y-78231864D01*
X130347254Y-78153598D01*
X130347254Y-78071040D01*
X130363359Y-77990075D01*
X130366342Y-77982873D01*
X130394952Y-77913801D01*
X130440818Y-77845158D01*
X130440820Y-77845155D01*
X130499190Y-77786785D01*
X130567835Y-77740918D01*
X130567836Y-77740917D01*
X130644107Y-77709325D01*
X130644108Y-77709325D01*
X130644110Y-77709324D01*
X130725075Y-77693219D01*
X130807633Y-77693219D01*
X130888598Y-77709324D01*
X130888598Y-77709324D01*
G37*
G36*
X133428598Y-77709324D02*
X133428600Y-77709325D01*
X133428601Y-77709325D01*
X133504872Y-77740917D01*
X133504873Y-77740918D01*
X133573518Y-77786785D01*
X133631888Y-77845155D01*
X133631890Y-77845158D01*
X133677756Y-77913801D01*
X133706366Y-77982873D01*
X133709349Y-77990075D01*
X133725454Y-78071040D01*
X133725454Y-78153598D01*
X133709886Y-78231864D01*
X133709348Y-78234566D01*
X133677756Y-78310837D01*
X133677755Y-78310838D01*
X133631888Y-78379483D01*
X133573518Y-78437853D01*
X133573515Y-78437855D01*
X133504872Y-78483721D01*
X133428601Y-78515313D01*
X133428600Y-78515313D01*
X133428598Y-78515314D01*
X133347633Y-78531419D01*
X133265075Y-78531419D01*
X133184110Y-78515314D01*
X133184108Y-78515313D01*
X133184107Y-78515313D01*
X133107836Y-78483721D01*
X133039193Y-78437855D01*
X133039190Y-78437853D01*
X132980820Y-78379483D01*
X132934953Y-78310838D01*
X132934952Y-78310837D01*
X132903360Y-78234566D01*
X132902823Y-78231864D01*
X132887254Y-78153598D01*
X132887254Y-78071040D01*
X132903359Y-77990075D01*
X132906342Y-77982873D01*
X132934952Y-77913801D01*
X132980818Y-77845158D01*
X132980820Y-77845155D01*
X133039190Y-77786785D01*
X133107835Y-77740918D01*
X133107836Y-77740917D01*
X133184107Y-77709325D01*
X133184108Y-77709325D01*
X133184110Y-77709324D01*
X133265075Y-77693219D01*
X133347633Y-77693219D01*
X133428598Y-77709324D01*
X133428598Y-77709324D01*
G37*
G36*
X132158598Y-77709324D02*
X132158600Y-77709325D01*
X132158601Y-77709325D01*
X132234872Y-77740917D01*
X132234873Y-77740918D01*
X132303518Y-77786785D01*
X132361888Y-77845155D01*
X132361890Y-77845158D01*
X132407756Y-77913801D01*
X132436366Y-77982873D01*
X132439349Y-77990075D01*
X132455454Y-78071040D01*
X132455454Y-78153598D01*
X132439886Y-78231864D01*
X132439348Y-78234566D01*
X132407756Y-78310837D01*
X132407755Y-78310838D01*
X132361888Y-78379483D01*
X132303518Y-78437853D01*
X132303515Y-78437855D01*
X132234872Y-78483721D01*
X132158601Y-78515313D01*
X132158600Y-78515313D01*
X132158598Y-78515314D01*
X132077633Y-78531419D01*
X131995075Y-78531419D01*
X131914110Y-78515314D01*
X131914108Y-78515313D01*
X131914107Y-78515313D01*
X131837836Y-78483721D01*
X131769193Y-78437855D01*
X131769190Y-78437853D01*
X131710820Y-78379483D01*
X131664953Y-78310838D01*
X131664952Y-78310837D01*
X131633360Y-78234566D01*
X131632823Y-78231864D01*
X131617254Y-78153598D01*
X131617254Y-78071040D01*
X131633359Y-77990075D01*
X131636342Y-77982873D01*
X131664952Y-77913801D01*
X131710818Y-77845158D01*
X131710820Y-77845155D01*
X131769190Y-77786785D01*
X131837835Y-77740918D01*
X131837836Y-77740917D01*
X131914107Y-77709325D01*
X131914108Y-77709325D01*
X131914110Y-77709324D01*
X131995075Y-77693219D01*
X132077633Y-77693219D01*
X132158598Y-77709324D01*
X132158598Y-77709324D01*
G37*
G36*
X115424435Y-78433673D02*
X114773635Y-78433673D01*
X114773635Y-77982873D01*
X115424435Y-77982873D01*
X115424435Y-78433673D01*
X115424435Y-78433673D01*
G37*
G36*
X118599618Y-76461499D02*
X118611857Y-76462100D01*
X119100400Y-76462100D01*
X119100400Y-76712449D01*
X119102802Y-76736835D01*
X119115159Y-76771370D01*
X119155590Y-76847012D01*
X119191351Y-76964900D01*
X119200400Y-77056776D01*
X119200400Y-77818224D01*
X119197747Y-77845158D01*
X119191351Y-77910101D01*
X119179431Y-77949396D01*
X119155590Y-78027988D01*
X119115158Y-78103632D01*
X119105782Y-78126265D01*
X119100400Y-78162549D01*
X119100400Y-78412900D01*
X118611857Y-78412900D01*
X118599617Y-78413501D01*
X118575000Y-78415926D01*
X118550382Y-78413501D01*
X118538143Y-78412900D01*
X116849600Y-78412900D01*
X116849600Y-76462100D01*
X118538143Y-76462100D01*
X118550383Y-76461499D01*
X118575000Y-76459074D01*
X118599618Y-76461499D01*
X118599618Y-76461499D01*
G37*
G36*
X125599617Y-76461499D02*
X125611857Y-76462100D01*
X127300400Y-76462100D01*
X127300400Y-78412900D01*
X125611857Y-78412900D01*
X125599618Y-78413501D01*
X125575000Y-78415926D01*
X125550383Y-78413501D01*
X125538143Y-78412900D01*
X125049600Y-78412900D01*
X125049600Y-78162549D01*
X125047198Y-78138163D01*
X125034842Y-78103630D01*
X124994410Y-78027988D01*
X124958649Y-77910100D01*
X124949600Y-77818224D01*
X124949600Y-77056777D01*
X124958649Y-76964901D01*
X124958650Y-76964899D01*
X124970569Y-76925605D01*
X124994410Y-76847013D01*
X125034842Y-76771369D01*
X125044218Y-76748736D01*
X125049600Y-76712450D01*
X125049600Y-76462100D01*
X125538143Y-76462100D01*
X125550382Y-76461499D01*
X125575000Y-76459074D01*
X125599617Y-76461499D01*
X125599617Y-76461499D01*
G37*
G36*
X121850400Y-78412900D02*
X120299600Y-78412900D01*
X120299600Y-76462100D01*
X121850400Y-76462100D01*
X121850400Y-78412900D01*
X121850400Y-78412900D01*
G37*
G36*
X123850400Y-78412900D02*
X122299600Y-78412900D01*
X122299600Y-76462100D01*
X123850400Y-76462100D01*
X123850400Y-78412900D01*
X123850400Y-78412900D01*
G37*
G36*
X134731941Y-77218417D02*
X134829013Y-77258625D01*
X134916380Y-77317002D01*
X134990671Y-77391293D01*
X135049048Y-77478660D01*
X135089256Y-77575732D01*
X135109754Y-77678782D01*
X135109754Y-77783856D01*
X135089256Y-77886906D01*
X135049048Y-77983978D01*
X134990671Y-78071345D01*
X134916380Y-78145636D01*
X134829013Y-78204013D01*
X134731941Y-78244221D01*
X134628891Y-78264719D01*
X134523817Y-78264719D01*
X134420767Y-78244221D01*
X134323695Y-78204013D01*
X134236328Y-78145636D01*
X134162037Y-78071345D01*
X134103660Y-77983978D01*
X134063452Y-77886906D01*
X134042954Y-77783856D01*
X134042954Y-77678782D01*
X134063452Y-77575732D01*
X134103660Y-77478660D01*
X134162037Y-77391293D01*
X134236328Y-77317002D01*
X134323695Y-77258625D01*
X134420767Y-77218417D01*
X134523817Y-77197919D01*
X134628891Y-77197919D01*
X134731941Y-77218417D01*
X134731941Y-77218417D01*
G37*
G36*
X106834754Y-78127319D02*
X106183954Y-78127319D01*
X106183954Y-77676519D01*
X106834754Y-77676519D01*
X106834754Y-78127319D01*
X106834754Y-78127319D01*
G37*
G36*
X105539354Y-78127319D02*
X104888554Y-78127319D01*
X104888554Y-77676519D01*
X105539354Y-77676519D01*
X105539354Y-78127319D01*
X105539354Y-78127319D01*
G37*
G36*
X115424435Y-77533673D02*
X114773635Y-77533673D01*
X114773635Y-77082873D01*
X115424435Y-77082873D01*
X115424435Y-77533673D01*
X115424435Y-77533673D01*
G37*
G36*
X108054754Y-77455919D02*
X107503954Y-77455919D01*
X107503954Y-76805119D01*
X108054754Y-76805119D01*
X108054754Y-77455919D01*
X108054754Y-77455919D01*
G37*
G36*
X111634200Y-77264800D02*
X111183400Y-77264800D01*
X111183400Y-76614000D01*
X111634200Y-76614000D01*
X111634200Y-77264800D01*
X111634200Y-77264800D01*
G37*
G36*
X110734200Y-77264800D02*
X110283400Y-77264800D01*
X110283400Y-76614000D01*
X110734200Y-76614000D01*
X110734200Y-77264800D01*
X110734200Y-77264800D01*
G37*
G36*
X105539354Y-77227319D02*
X104888554Y-77227319D01*
X104888554Y-76776519D01*
X105539354Y-76776519D01*
X105539354Y-77227319D01*
X105539354Y-77227319D01*
G37*
G36*
X106834754Y-77227319D02*
X106183954Y-77227319D01*
X106183954Y-76776519D01*
X106834754Y-76776519D01*
X106834754Y-77227319D01*
X106834754Y-77227319D01*
G37*
G36*
X114334200Y-77214800D02*
X113683400Y-77214800D01*
X113683400Y-76664000D01*
X114334200Y-76664000D01*
X114334200Y-77214800D01*
X114334200Y-77214800D01*
G37*
G36*
X113234200Y-77214800D02*
X112583400Y-77214800D01*
X112583400Y-76664000D01*
X113234200Y-76664000D01*
X113234200Y-77214800D01*
X113234200Y-77214800D01*
G37*
M02*
