G04 #@! TF.GenerationSoftware,KiCad,Pcbnew,5.0.2+dfsg1-1*
G04 #@! TF.CreationDate,2020-12-10T00:07:48-08:00*
G04 #@! TF.ProjectId,chronopy,6368726f-6e6f-4707-992e-6b696361645f,rev?*
G04 #@! TF.SameCoordinates,Original*
G04 #@! TF.FileFunction,Copper,L4,Bot*
G04 #@! TF.FilePolarity,Positive*
%FSLAX46Y46*%
G04 Gerber Fmt 4.6, Leading zero omitted, Abs format (unit mm)*
G04 Created by KiCad (PCBNEW 5.0.2+dfsg1-1) date Thu 10 Dec 2020 12:07:48 AM PST*
%MOMM*%
%LPD*%
G01*
G04 APERTURE LIST*
G04 #@! TA.AperFunction,EtchedComponent*
%ADD10C,0.010000*%
G04 #@! TD*
G04 #@! TA.AperFunction,BGAPad,CuDef*
%ADD11C,0.787400*%
G04 #@! TD*
G04 #@! TA.AperFunction,SMDPad,CuDef*
%ADD12R,1.400000X1.300000*%
G04 #@! TD*
G04 #@! TA.AperFunction,SMDPad,CuDef*
%ADD13R,6.000000X3.400000*%
G04 #@! TD*
G04 #@! TA.AperFunction,SMDPad,CuDef*
%ADD14R,0.450000X0.600000*%
G04 #@! TD*
G04 #@! TA.AperFunction,SMDPad,CuDef*
%ADD15R,0.400000X0.600000*%
G04 #@! TD*
G04 #@! TA.AperFunction,SMDPad,CuDef*
%ADD16R,0.800000X0.900000*%
G04 #@! TD*
G04 #@! TA.AperFunction,BGAPad,CuDef*
%ADD17C,1.000000*%
G04 #@! TD*
G04 #@! TA.AperFunction,BGAPad,CuDef*
%ADD18C,0.210000*%
G04 #@! TD*
G04 #@! TA.AperFunction,SMDPad,CuDef*
%ADD19R,0.520000X0.300000*%
G04 #@! TD*
G04 #@! TA.AperFunction,SMDPad,CuDef*
%ADD20R,0.500000X0.600000*%
G04 #@! TD*
G04 #@! TA.AperFunction,SMDPad,CuDef*
%ADD21R,0.600000X0.400000*%
G04 #@! TD*
G04 #@! TA.AperFunction,Conductor*
%ADD22C,0.100000*%
G04 #@! TD*
G04 #@! TA.AperFunction,SMDPad,CuDef*
%ADD23C,0.875000*%
G04 #@! TD*
G04 #@! TA.AperFunction,SMDPad,CuDef*
%ADD24R,0.600000X0.500000*%
G04 #@! TD*
G04 #@! TA.AperFunction,ComponentPad*
%ADD25R,1.000000X1.000000*%
G04 #@! TD*
G04 #@! TA.AperFunction,ComponentPad*
%ADD26O,1.000000X1.000000*%
G04 #@! TD*
G04 #@! TA.AperFunction,SMDPad,CuDef*
%ADD27R,0.450000X0.700000*%
G04 #@! TD*
G04 #@! TA.AperFunction,SMDPad,CuDef*
%ADD28C,0.400000*%
G04 #@! TD*
G04 #@! TA.AperFunction,SMDPad,CuDef*
%ADD29R,0.800000X0.300000*%
G04 #@! TD*
G04 #@! TA.AperFunction,SMDPad,CuDef*
%ADD30R,0.800000X0.400000*%
G04 #@! TD*
G04 #@! TA.AperFunction,SMDPad,CuDef*
%ADD31R,0.850000X0.400000*%
G04 #@! TD*
G04 #@! TA.AperFunction,SMDPad,CuDef*
%ADD32R,0.650000X0.300000*%
G04 #@! TD*
G04 #@! TA.AperFunction,SMDPad,CuDef*
%ADD33R,0.800000X0.260000*%
G04 #@! TD*
G04 #@! TA.AperFunction,SMDPad,CuDef*
%ADD34C,0.975000*%
G04 #@! TD*
G04 #@! TA.AperFunction,SMDPad,CuDef*
%ADD35R,0.600000X1.200000*%
G04 #@! TD*
G04 #@! TA.AperFunction,SMDPad,CuDef*
%ADD36R,1.550000X0.600000*%
G04 #@! TD*
G04 #@! TA.AperFunction,SMDPad,CuDef*
%ADD37R,1.800000X1.200000*%
G04 #@! TD*
G04 #@! TA.AperFunction,SMDPad,CuDef*
%ADD38R,0.530000X0.280000*%
G04 #@! TD*
G04 #@! TA.AperFunction,SMDPad,CuDef*
%ADD39R,0.280000X0.530000*%
G04 #@! TD*
G04 #@! TA.AperFunction,SMDPad,CuDef*
%ADD40R,0.500000X0.500000*%
G04 #@! TD*
G04 #@! TA.AperFunction,SMDPad,CuDef*
%ADD41R,0.600000X1.550000*%
G04 #@! TD*
G04 #@! TA.AperFunction,SMDPad,CuDef*
%ADD42R,1.200000X1.800000*%
G04 #@! TD*
G04 #@! TA.AperFunction,SMDPad,CuDef*
%ADD43R,0.420000X1.400000*%
G04 #@! TD*
G04 #@! TA.AperFunction,SMDPad,CuDef*
%ADD44R,4.000000X2.300000*%
G04 #@! TD*
G04 #@! TA.AperFunction,SMDPad,CuDef*
%ADD45R,1.750000X1.550000*%
G04 #@! TD*
G04 #@! TA.AperFunction,SMDPad,CuDef*
%ADD46R,0.900000X0.800000*%
G04 #@! TD*
G04 #@! TA.AperFunction,SMDPad,CuDef*
%ADD47R,1.060000X0.650000*%
G04 #@! TD*
G04 #@! TA.AperFunction,SMDPad,CuDef*
%ADD48R,1.500000X1.900000*%
G04 #@! TD*
G04 #@! TA.AperFunction,ComponentPad*
%ADD49C,1.450000*%
G04 #@! TD*
G04 #@! TA.AperFunction,SMDPad,CuDef*
%ADD50R,0.400000X1.350000*%
G04 #@! TD*
G04 #@! TA.AperFunction,ComponentPad*
%ADD51O,1.200000X1.900000*%
G04 #@! TD*
G04 #@! TA.AperFunction,SMDPad,CuDef*
%ADD52R,2.200000X1.900000*%
G04 #@! TD*
G04 #@! TA.AperFunction,ViaPad*
%ADD53C,0.508000*%
G04 #@! TD*
G04 #@! TA.AperFunction,Conductor*
%ADD54C,0.152400*%
G04 #@! TD*
G04 #@! TA.AperFunction,Conductor*
%ADD55C,0.508000*%
G04 #@! TD*
G04 #@! TA.AperFunction,Conductor*
%ADD56C,0.254000*%
G04 #@! TD*
G04 APERTURE END LIST*
D10*
G04 #@! TO.C,Ref\002A\002A*
G36*
X99820687Y-103890698D02*
X99821507Y-103961902D01*
X99827115Y-104000650D01*
X99842232Y-104016817D01*
X99871580Y-104020280D01*
X99882651Y-104020319D01*
X99949385Y-104039519D01*
X99999713Y-104091937D01*
X100027804Y-104169801D01*
X100031681Y-104218965D01*
X100025195Y-104282766D01*
X100009949Y-104332041D01*
X100005222Y-104339653D01*
X99956721Y-104383596D01*
X99900059Y-104409338D01*
X99853971Y-104409562D01*
X99835446Y-104408700D01*
X99825278Y-104429450D01*
X99821181Y-104479805D01*
X99820687Y-104526054D01*
X99820687Y-104655319D01*
X99921229Y-104653977D01*
X99993301Y-104648947D01*
X100055230Y-104637897D01*
X100071615Y-104632672D01*
X100187087Y-104566407D01*
X100269860Y-104473300D01*
X100319823Y-104353530D01*
X100336860Y-104207649D01*
X100333969Y-104121404D01*
X100321171Y-104057800D01*
X100293483Y-103997430D01*
X100274837Y-103966148D01*
X100193013Y-103868735D01*
X100087951Y-103804888D01*
X99956319Y-103772696D01*
X99933721Y-103770450D01*
X99820687Y-103761077D01*
X99820687Y-103890698D01*
X99820687Y-103890698D01*
G37*
X99820687Y-103890698D02*
X99821507Y-103961902D01*
X99827115Y-104000650D01*
X99842232Y-104016817D01*
X99871580Y-104020280D01*
X99882651Y-104020319D01*
X99949385Y-104039519D01*
X99999713Y-104091937D01*
X100027804Y-104169801D01*
X100031681Y-104218965D01*
X100025195Y-104282766D01*
X100009949Y-104332041D01*
X100005222Y-104339653D01*
X99956721Y-104383596D01*
X99900059Y-104409338D01*
X99853971Y-104409562D01*
X99835446Y-104408700D01*
X99825278Y-104429450D01*
X99821181Y-104479805D01*
X99820687Y-104526054D01*
X99820687Y-104655319D01*
X99921229Y-104653977D01*
X99993301Y-104648947D01*
X100055230Y-104637897D01*
X100071615Y-104632672D01*
X100187087Y-104566407D01*
X100269860Y-104473300D01*
X100319823Y-104353530D01*
X100336860Y-104207649D01*
X100333969Y-104121404D01*
X100321171Y-104057800D01*
X100293483Y-103997430D01*
X100274837Y-103966148D01*
X100193013Y-103868735D01*
X100087951Y-103804888D01*
X99956319Y-103772696D01*
X99933721Y-103770450D01*
X99820687Y-103761077D01*
X99820687Y-103890698D01*
G36*
X100371020Y-104655319D02*
X100667354Y-104655319D01*
X100667354Y-103766319D01*
X100371020Y-103766319D01*
X100371020Y-104655319D01*
X100371020Y-104655319D01*
G37*
X100371020Y-104655319D02*
X100667354Y-104655319D01*
X100667354Y-103766319D01*
X100371020Y-103766319D01*
X100371020Y-104655319D01*
G36*
X101793510Y-103770665D02*
X101651604Y-103776902D01*
X101577520Y-104036095D01*
X101548735Y-104133577D01*
X101523133Y-104214333D01*
X101503275Y-104270691D01*
X101491724Y-104294981D01*
X101490913Y-104295386D01*
X101478088Y-104277133D01*
X101460323Y-104230962D01*
X101452485Y-104205527D01*
X101433879Y-104141715D01*
X101408077Y-104054240D01*
X101380061Y-103959980D01*
X101374573Y-103941605D01*
X101322563Y-103767642D01*
X100709687Y-103767642D01*
X100709687Y-104657173D01*
X100863145Y-104650954D01*
X101016604Y-104644736D01*
X101037770Y-103799094D01*
X101194123Y-104228075D01*
X101350475Y-104657057D01*
X101500043Y-104650896D01*
X101649612Y-104644736D01*
X101724237Y-104391482D01*
X101798861Y-104138228D01*
X101880012Y-104396773D01*
X101961162Y-104655319D01*
X102108672Y-104655319D01*
X102201774Y-104651448D01*
X102253818Y-104639772D01*
X102265617Y-104628861D01*
X102275430Y-104601687D01*
X102297376Y-104541111D01*
X102329137Y-104453519D01*
X102368399Y-104345299D01*
X102412844Y-104222840D01*
X102423703Y-104192927D01*
X102468371Y-104069442D01*
X102507669Y-103959962D01*
X102539449Y-103870537D01*
X102561566Y-103807215D01*
X102571873Y-103776046D01*
X102572354Y-103773958D01*
X102552979Y-103770125D01*
X102501893Y-103768839D01*
X102429657Y-103770328D01*
X102420589Y-103770683D01*
X102268823Y-103776902D01*
X102241829Y-103861569D01*
X102223379Y-103920695D01*
X102197432Y-104005433D01*
X102168561Y-104100817D01*
X102157776Y-104136736D01*
X102100718Y-104327236D01*
X102070691Y-104221402D01*
X102049899Y-104149332D01*
X102022243Y-104055064D01*
X101993106Y-103956926D01*
X101988040Y-103939999D01*
X101935417Y-103764429D01*
X101793510Y-103770665D01*
X101793510Y-103770665D01*
G37*
X101793510Y-103770665D02*
X101651604Y-103776902D01*
X101577520Y-104036095D01*
X101548735Y-104133577D01*
X101523133Y-104214333D01*
X101503275Y-104270691D01*
X101491724Y-104294981D01*
X101490913Y-104295386D01*
X101478088Y-104277133D01*
X101460323Y-104230962D01*
X101452485Y-104205527D01*
X101433879Y-104141715D01*
X101408077Y-104054240D01*
X101380061Y-103959980D01*
X101374573Y-103941605D01*
X101322563Y-103767642D01*
X100709687Y-103767642D01*
X100709687Y-104657173D01*
X100863145Y-104650954D01*
X101016604Y-104644736D01*
X101037770Y-103799094D01*
X101194123Y-104228075D01*
X101350475Y-104657057D01*
X101500043Y-104650896D01*
X101649612Y-104644736D01*
X101724237Y-104391482D01*
X101798861Y-104138228D01*
X101880012Y-104396773D01*
X101961162Y-104655319D01*
X102108672Y-104655319D01*
X102201774Y-104651448D01*
X102253818Y-104639772D01*
X102265617Y-104628861D01*
X102275430Y-104601687D01*
X102297376Y-104541111D01*
X102329137Y-104453519D01*
X102368399Y-104345299D01*
X102412844Y-104222840D01*
X102423703Y-104192927D01*
X102468371Y-104069442D01*
X102507669Y-103959962D01*
X102539449Y-103870537D01*
X102561566Y-103807215D01*
X102571873Y-103776046D01*
X102572354Y-103773958D01*
X102552979Y-103770125D01*
X102501893Y-103768839D01*
X102429657Y-103770328D01*
X102420589Y-103770683D01*
X102268823Y-103776902D01*
X102241829Y-103861569D01*
X102223379Y-103920695D01*
X102197432Y-104005433D01*
X102168561Y-104100817D01*
X102157776Y-104136736D01*
X102100718Y-104327236D01*
X102070691Y-104221402D01*
X102049899Y-104149332D01*
X102022243Y-104055064D01*
X101993106Y-103956926D01*
X101988040Y-103939999D01*
X101935417Y-103764429D01*
X101793510Y-103770665D01*
G36*
X102598483Y-104364277D02*
X102604104Y-104962236D01*
X102742584Y-104968394D01*
X102815732Y-104969419D01*
X102871257Y-104966065D01*
X102896042Y-104959575D01*
X102902695Y-104932999D01*
X102907831Y-104874564D01*
X102910684Y-104794737D01*
X102911020Y-104754344D01*
X102911346Y-104664564D01*
X102913540Y-104610630D01*
X102919428Y-104586050D01*
X102930835Y-104584338D01*
X102949588Y-104599003D01*
X102953682Y-104602699D01*
X103008133Y-104630643D01*
X103088641Y-104647729D01*
X103179993Y-104652538D01*
X103266979Y-104643646D01*
X103299891Y-104635047D01*
X103358927Y-104603662D01*
X103422307Y-104552541D01*
X103449493Y-104524074D01*
X103515648Y-104418822D01*
X103551124Y-104300147D01*
X103554075Y-104241912D01*
X103248431Y-104241912D01*
X103221096Y-104331583D01*
X103218383Y-104336958D01*
X103167046Y-104397305D01*
X103099718Y-104423145D01*
X103026739Y-104413120D01*
X102962975Y-104370531D01*
X102927708Y-104323097D01*
X102912821Y-104263553D01*
X102911020Y-104218437D01*
X102925134Y-104122172D01*
X102967172Y-104057372D01*
X103036677Y-104024563D01*
X103082507Y-104020319D01*
X103158074Y-104038366D01*
X103213318Y-104086910D01*
X103244638Y-104157557D01*
X103248431Y-104241912D01*
X103554075Y-104241912D01*
X103557399Y-104176326D01*
X103535947Y-104055636D01*
X103488244Y-103946354D01*
X103415767Y-103856758D01*
X103319990Y-103795126D01*
X103319489Y-103794916D01*
X103224976Y-103770952D01*
X103121011Y-103768592D01*
X103025761Y-103787176D01*
X102981872Y-103807168D01*
X102937684Y-103832660D01*
X102916934Y-103835849D01*
X102907070Y-103816720D01*
X102904479Y-103807088D01*
X102893552Y-103785541D01*
X102868491Y-103773177D01*
X102819734Y-103767577D01*
X102743339Y-103766319D01*
X102592861Y-103766319D01*
X102598483Y-104364277D01*
X102598483Y-104364277D01*
G37*
X102598483Y-104364277D02*
X102604104Y-104962236D01*
X102742584Y-104968394D01*
X102815732Y-104969419D01*
X102871257Y-104966065D01*
X102896042Y-104959575D01*
X102902695Y-104932999D01*
X102907831Y-104874564D01*
X102910684Y-104794737D01*
X102911020Y-104754344D01*
X102911346Y-104664564D01*
X102913540Y-104610630D01*
X102919428Y-104586050D01*
X102930835Y-104584338D01*
X102949588Y-104599003D01*
X102953682Y-104602699D01*
X103008133Y-104630643D01*
X103088641Y-104647729D01*
X103179993Y-104652538D01*
X103266979Y-104643646D01*
X103299891Y-104635047D01*
X103358927Y-104603662D01*
X103422307Y-104552541D01*
X103449493Y-104524074D01*
X103515648Y-104418822D01*
X103551124Y-104300147D01*
X103554075Y-104241912D01*
X103248431Y-104241912D01*
X103221096Y-104331583D01*
X103218383Y-104336958D01*
X103167046Y-104397305D01*
X103099718Y-104423145D01*
X103026739Y-104413120D01*
X102962975Y-104370531D01*
X102927708Y-104323097D01*
X102912821Y-104263553D01*
X102911020Y-104218437D01*
X102925134Y-104122172D01*
X102967172Y-104057372D01*
X103036677Y-104024563D01*
X103082507Y-104020319D01*
X103158074Y-104038366D01*
X103213318Y-104086910D01*
X103244638Y-104157557D01*
X103248431Y-104241912D01*
X103554075Y-104241912D01*
X103557399Y-104176326D01*
X103535947Y-104055636D01*
X103488244Y-103946354D01*
X103415767Y-103856758D01*
X103319990Y-103795126D01*
X103319489Y-103794916D01*
X103224976Y-103770952D01*
X103121011Y-103768592D01*
X103025761Y-103787176D01*
X102981872Y-103807168D01*
X102937684Y-103832660D01*
X102916934Y-103835849D01*
X102907070Y-103816720D01*
X102904479Y-103807088D01*
X102893552Y-103785541D01*
X102868491Y-103773177D01*
X102819734Y-103767577D01*
X102743339Y-103766319D01*
X102592861Y-103766319D01*
X102598483Y-104364277D01*
G04 #@! TD*
D11*
G04 #@! TO.P,J7,1*
G04 #@! TO.N,+3V0*
X130766354Y-78112319D03*
G04 #@! TO.P,J7,3*
G04 #@! TO.N,~RESET*
X132036354Y-78112319D03*
G04 #@! TO.P,J7,5*
G04 #@! TO.N,GND*
X133306354Y-78112319D03*
G04 #@! TO.P,J7,6*
G04 #@! TO.N,Net-(J7-Pad6)*
X133306354Y-79382319D03*
G04 #@! TO.P,J7,4*
G04 #@! TO.N,SWCLK*
X132036354Y-79382319D03*
G04 #@! TO.P,J7,2*
G04 #@! TO.N,SWDIO*
X130766354Y-79382319D03*
G04 #@! TD*
D12*
G04 #@! TO.P,M1,1*
G04 #@! TO.N,Net-(D2-Pad1)*
X133262954Y-114425719D03*
G04 #@! TO.P,M1,2*
G04 #@! TO.N,GND*
X133262954Y-116525719D03*
D13*
G04 #@! TO.P,M1,3*
G04 #@! TO.N,N/C*
X128962954Y-115475719D03*
G04 #@! TD*
D14*
G04 #@! TO.P,D2,2*
G04 #@! TO.N,GND*
X135465354Y-116551119D03*
G04 #@! TO.P,D2,1*
G04 #@! TO.N,Net-(D2-Pad1)*
X135465354Y-114451119D03*
G04 #@! TD*
D15*
G04 #@! TO.P,R24,2*
G04 #@! TO.N,MOTOR_EN*
X125189354Y-110167119D03*
G04 #@! TO.P,R24,1*
G04 #@! TO.N,+3V0*
X124289354Y-110167119D03*
G04 #@! TD*
D16*
G04 #@! TO.P,Q3,1*
G04 #@! TO.N,MOTOR_EN*
X126438154Y-110183119D03*
G04 #@! TO.P,Q3,2*
G04 #@! TO.N,+3V0*
X128338154Y-110183119D03*
G04 #@! TO.P,Q3,3*
G04 #@! TO.N,Net-(D2-Pad1)*
X127388154Y-112183119D03*
G04 #@! TD*
D17*
G04 #@! TO.P,TP7,1*
G04 #@! TO.N,+3V0*
X138081555Y-89923319D03*
G04 #@! TD*
D18*
G04 #@! TO.P,U4,B2*
G04 #@! TO.N,Net-(R21-Pad1)*
X105696554Y-79280719D03*
G04 #@! TO.P,U4,B1*
G04 #@! TO.N,IIC_SDA*
X105296554Y-79280719D03*
G04 #@! TO.P,U4,C1*
G04 #@! TO.N,IIC_SCL*
X105296554Y-79680719D03*
G04 #@! TO.P,U4,A1*
G04 #@! TO.N,Net-(U4-PadA1)*
X105296554Y-78880719D03*
G04 #@! TO.P,U4,B3*
G04 #@! TO.N,+BATT*
X106096554Y-79280719D03*
G04 #@! TO.P,U4,C3*
G04 #@! TO.N,GND*
X106096554Y-79680719D03*
G04 #@! TO.P,U4,A3*
G04 #@! TO.N,Net-(C18-Pad1)*
X106096554Y-78880719D03*
G04 #@! TO.P,U4,D1*
G04 #@! TO.N,GND*
X105296554Y-80080719D03*
G04 #@! TO.P,U4,D3*
G04 #@! TO.N,Net-(J2-Pad1)*
X106096554Y-80080719D03*
G04 #@! TO.P,U4,D2*
G04 #@! TO.N,N/C*
X105696554Y-80080719D03*
G04 #@! TD*
D19*
G04 #@! TO.P,IC2,1*
G04 #@! TO.N,Net-(IC2-Pad1)*
X115789000Y-87002000D03*
G04 #@! TO.P,IC2,2*
G04 #@! TO.N,GND*
X115789000Y-87652000D03*
G04 #@! TO.P,IC2,3*
G04 #@! TO.N,Net-(IC2-Pad3)*
X114109000Y-87652000D03*
G04 #@! TO.P,IC2,4*
G04 #@! TO.N,VBUS*
X114109000Y-87002000D03*
G04 #@! TD*
D20*
G04 #@! TO.P,C18,2*
G04 #@! TO.N,GND*
X107779354Y-77130519D03*
G04 #@! TO.P,C18,1*
G04 #@! TO.N,Net-(C18-Pad1)*
X107779354Y-78230519D03*
G04 #@! TD*
G04 #@! TO.P,C19,1*
G04 #@! TO.N,+BATT*
X107779354Y-79264119D03*
G04 #@! TO.P,C19,2*
G04 #@! TO.N,GND*
X107779354Y-80364119D03*
G04 #@! TD*
D21*
G04 #@! TO.P,R21,1*
G04 #@! TO.N,Net-(R21-Pad1)*
X105213954Y-77901919D03*
G04 #@! TO.P,R21,2*
G04 #@! TO.N,GND*
X105213954Y-77001919D03*
G04 #@! TD*
G04 #@! TO.P,R22,2*
G04 #@! TO.N,+BATT*
X106509354Y-77001919D03*
G04 #@! TO.P,R22,1*
G04 #@! TO.N,Net-(C18-Pad1)*
X106509354Y-77901919D03*
G04 #@! TD*
D22*
G04 #@! TO.N,GND*
G04 #@! TO.C,R23*
G36*
X105123845Y-80914972D02*
X105145080Y-80918122D01*
X105165904Y-80923338D01*
X105186116Y-80930570D01*
X105205522Y-80939749D01*
X105223935Y-80950785D01*
X105241178Y-80963573D01*
X105257084Y-80977989D01*
X105271500Y-80993895D01*
X105284288Y-81011138D01*
X105295324Y-81029551D01*
X105304503Y-81048957D01*
X105311735Y-81069169D01*
X105316951Y-81089993D01*
X105320101Y-81111228D01*
X105321154Y-81132669D01*
X105321154Y-81645169D01*
X105320101Y-81666610D01*
X105316951Y-81687845D01*
X105311735Y-81708669D01*
X105304503Y-81728881D01*
X105295324Y-81748287D01*
X105284288Y-81766700D01*
X105271500Y-81783943D01*
X105257084Y-81799849D01*
X105241178Y-81814265D01*
X105223935Y-81827053D01*
X105205522Y-81838089D01*
X105186116Y-81847268D01*
X105165904Y-81854500D01*
X105145080Y-81859716D01*
X105123845Y-81862866D01*
X105102404Y-81863919D01*
X104664904Y-81863919D01*
X104643463Y-81862866D01*
X104622228Y-81859716D01*
X104601404Y-81854500D01*
X104581192Y-81847268D01*
X104561786Y-81838089D01*
X104543373Y-81827053D01*
X104526130Y-81814265D01*
X104510224Y-81799849D01*
X104495808Y-81783943D01*
X104483020Y-81766700D01*
X104471984Y-81748287D01*
X104462805Y-81728881D01*
X104455573Y-81708669D01*
X104450357Y-81687845D01*
X104447207Y-81666610D01*
X104446154Y-81645169D01*
X104446154Y-81132669D01*
X104447207Y-81111228D01*
X104450357Y-81089993D01*
X104455573Y-81069169D01*
X104462805Y-81048957D01*
X104471984Y-81029551D01*
X104483020Y-81011138D01*
X104495808Y-80993895D01*
X104510224Y-80977989D01*
X104526130Y-80963573D01*
X104543373Y-80950785D01*
X104561786Y-80939749D01*
X104581192Y-80930570D01*
X104601404Y-80923338D01*
X104622228Y-80918122D01*
X104643463Y-80914972D01*
X104664904Y-80913919D01*
X105102404Y-80913919D01*
X105123845Y-80914972D01*
X105123845Y-80914972D01*
G37*
D23*
G04 #@! TD*
G04 #@! TO.P,R23,1*
G04 #@! TO.N,GND*
X104883654Y-81388919D03*
D22*
G04 #@! TO.N,Net-(J2-Pad1)*
G04 #@! TO.C,R23*
G36*
X106698845Y-80914972D02*
X106720080Y-80918122D01*
X106740904Y-80923338D01*
X106761116Y-80930570D01*
X106780522Y-80939749D01*
X106798935Y-80950785D01*
X106816178Y-80963573D01*
X106832084Y-80977989D01*
X106846500Y-80993895D01*
X106859288Y-81011138D01*
X106870324Y-81029551D01*
X106879503Y-81048957D01*
X106886735Y-81069169D01*
X106891951Y-81089993D01*
X106895101Y-81111228D01*
X106896154Y-81132669D01*
X106896154Y-81645169D01*
X106895101Y-81666610D01*
X106891951Y-81687845D01*
X106886735Y-81708669D01*
X106879503Y-81728881D01*
X106870324Y-81748287D01*
X106859288Y-81766700D01*
X106846500Y-81783943D01*
X106832084Y-81799849D01*
X106816178Y-81814265D01*
X106798935Y-81827053D01*
X106780522Y-81838089D01*
X106761116Y-81847268D01*
X106740904Y-81854500D01*
X106720080Y-81859716D01*
X106698845Y-81862866D01*
X106677404Y-81863919D01*
X106239904Y-81863919D01*
X106218463Y-81862866D01*
X106197228Y-81859716D01*
X106176404Y-81854500D01*
X106156192Y-81847268D01*
X106136786Y-81838089D01*
X106118373Y-81827053D01*
X106101130Y-81814265D01*
X106085224Y-81799849D01*
X106070808Y-81783943D01*
X106058020Y-81766700D01*
X106046984Y-81748287D01*
X106037805Y-81728881D01*
X106030573Y-81708669D01*
X106025357Y-81687845D01*
X106022207Y-81666610D01*
X106021154Y-81645169D01*
X106021154Y-81132669D01*
X106022207Y-81111228D01*
X106025357Y-81089993D01*
X106030573Y-81069169D01*
X106037805Y-81048957D01*
X106046984Y-81029551D01*
X106058020Y-81011138D01*
X106070808Y-80993895D01*
X106085224Y-80977989D01*
X106101130Y-80963573D01*
X106118373Y-80950785D01*
X106136786Y-80939749D01*
X106156192Y-80930570D01*
X106176404Y-80923338D01*
X106197228Y-80918122D01*
X106218463Y-80914972D01*
X106239904Y-80913919D01*
X106677404Y-80913919D01*
X106698845Y-80914972D01*
X106698845Y-80914972D01*
G37*
D23*
G04 #@! TD*
G04 #@! TO.P,R23,2*
G04 #@! TO.N,Net-(J2-Pad1)*
X106458654Y-81388919D03*
D24*
G04 #@! TO.P,C17,1*
G04 #@! TO.N,+3V0*
X137832354Y-107216319D03*
G04 #@! TO.P,C17,2*
G04 #@! TO.N,GND*
X136732354Y-107216319D03*
G04 #@! TD*
D25*
G04 #@! TO.P,J6,1*
G04 #@! TO.N,+3V0*
X102636553Y-94528720D03*
D26*
G04 #@! TO.P,J6,2*
G04 #@! TO.N,GND*
X101366553Y-94528720D03*
G04 #@! TO.P,J6,3*
G04 #@! TO.N,GPIO0_7*
X102636553Y-95798720D03*
G04 #@! TO.P,J6,4*
G04 #@! TO.N,GPIO0_15*
X101366553Y-95798720D03*
G04 #@! TO.P,J6,5*
G04 #@! TO.N,GPIO0_6*
X102636553Y-97068720D03*
G04 #@! TO.P,J6,6*
G04 #@! TO.N,GPIO0_19*
X101366553Y-97068720D03*
G04 #@! TO.P,J6,7*
G04 #@! TO.N,GPIO0_5*
X102636553Y-98338720D03*
G04 #@! TO.P,J6,8*
G04 #@! TO.N,GPIO0_21*
X101366553Y-98338720D03*
G04 #@! TO.P,J6,9*
G04 #@! TO.N,GPIO0_4*
X102636553Y-99608720D03*
G04 #@! TO.P,J6,10*
G04 #@! TO.N,GPIO0_24*
X101366553Y-99608720D03*
G04 #@! TD*
D27*
G04 #@! TO.P,MK1,1*
G04 #@! TO.N,MIC_DATAOUT*
X137072354Y-105676319D03*
G04 #@! TO.P,MK1,2*
G04 #@! TO.N,+3V0*
X137772354Y-105676319D03*
G04 #@! TO.P,MK1,3*
G04 #@! TO.N,MIC_BCLK*
X137072354Y-103976319D03*
G04 #@! TO.P,MK1,4*
G04 #@! TO.N,MIC_SEL*
X137772354Y-103976319D03*
D28*
G04 #@! TO.P,MK1,5*
G04 #@! TO.N,GND*
X139252354Y-105636319D03*
D22*
G04 #@! TD*
G04 #@! TO.N,GND*
G04 #@! TO.C,MK1*
G36*
X139332142Y-103789384D02*
X139432948Y-103802119D01*
X139532031Y-103824630D01*
X139628444Y-103856702D01*
X139721267Y-103898030D01*
X139809614Y-103948218D01*
X139892642Y-104006788D01*
X139969558Y-104073180D01*
X140039629Y-104146762D01*
X140102185Y-104226829D01*
X140156629Y-104312619D01*
X140202441Y-104403313D01*
X140239185Y-104498044D01*
X140266509Y-104595909D01*
X140284153Y-104695972D01*
X140291949Y-104797280D01*
X140292354Y-104826319D01*
X140287390Y-104927805D01*
X140272547Y-105028323D01*
X140247966Y-105126912D01*
X140213882Y-105222632D01*
X140170619Y-105314569D01*
X140118592Y-105401846D01*
X140058296Y-105483629D01*
X139990308Y-105559139D01*
X139915275Y-105627653D01*
X139833915Y-105688518D01*
X139747003Y-105741154D01*
X139655370Y-105785057D01*
X139559890Y-105819808D01*
X139461475Y-105845077D01*
X139361064Y-105860622D01*
X139259615Y-105866294D01*
X139158096Y-105862039D01*
X139057477Y-105847898D01*
X138958719Y-105824006D01*
X138862763Y-105790590D01*
X138770526Y-105747971D01*
X138682888Y-105696554D01*
X138600686Y-105636830D01*
X138524704Y-105569371D01*
X138455668Y-105494818D01*
X138394236Y-105413885D01*
X138340995Y-105327343D01*
X138296453Y-105236019D01*
X138261036Y-105140784D01*
X138235080Y-105042547D01*
X138218835Y-104942247D01*
X138212455Y-104840840D01*
X138213244Y-104818221D01*
X138672411Y-104818221D01*
X138674388Y-104874852D01*
X138681883Y-104931020D01*
X138694822Y-104986189D01*
X138713084Y-105039831D01*
X138736493Y-105091436D01*
X138764825Y-105140510D01*
X138797812Y-105186585D01*
X138835137Y-105229221D01*
X138876444Y-105268011D01*
X138921340Y-105302586D01*
X138969395Y-105332614D01*
X139020152Y-105357809D01*
X139073124Y-105377932D01*
X139127808Y-105392789D01*
X139183680Y-105402239D01*
X139240207Y-105406192D01*
X139296851Y-105404610D01*
X139353070Y-105397507D01*
X139408327Y-105384953D01*
X139462096Y-105367067D01*
X139513863Y-105344019D01*
X139563134Y-105316029D01*
X139609438Y-105283365D01*
X139652333Y-105246339D01*
X139691411Y-105205303D01*
X139726298Y-105160650D01*
X139756661Y-105112805D01*
X139782210Y-105062226D01*
X139802702Y-105009395D01*
X139817941Y-104954817D01*
X139827781Y-104899012D01*
X139832128Y-104842514D01*
X139832354Y-104826319D01*
X139829586Y-104769721D01*
X139821308Y-104713663D01*
X139807599Y-104658681D01*
X139788591Y-104605298D01*
X139764464Y-104554025D01*
X139735448Y-104505352D01*
X139701822Y-104459742D01*
X139663905Y-104417631D01*
X139622060Y-104379421D01*
X139576686Y-104345477D01*
X139528216Y-104316123D01*
X139477113Y-104291638D01*
X139423865Y-104272258D01*
X139368979Y-104258165D01*
X139312981Y-104249496D01*
X139256403Y-104246333D01*
X139199787Y-104248706D01*
X139143673Y-104256592D01*
X139088596Y-104269917D01*
X139035082Y-104288552D01*
X138983642Y-104312321D01*
X138934767Y-104340996D01*
X138888924Y-104374303D01*
X138846549Y-104411925D01*
X138808048Y-104453502D01*
X138773788Y-104498638D01*
X138744096Y-104546902D01*
X138719256Y-104597833D01*
X138699503Y-104650944D01*
X138685028Y-104705730D01*
X138675969Y-104761667D01*
X138672411Y-104818221D01*
X138213244Y-104818221D01*
X138216001Y-104739294D01*
X138229440Y-104638579D01*
X138252642Y-104539656D01*
X138285386Y-104443469D01*
X138327361Y-104350937D01*
X138378165Y-104262942D01*
X138437313Y-104180325D01*
X138504241Y-104103874D01*
X138578309Y-104034319D01*
X138658812Y-103972324D01*
X138744980Y-103918480D01*
X138835991Y-103873302D01*
X138930976Y-103837220D01*
X139029029Y-103810580D01*
X139129214Y-103793635D01*
X139230574Y-103786547D01*
X139332142Y-103789384D01*
X139332142Y-103789384D01*
G37*
D29*
G04 #@! TO.P,J5,6*
G04 #@! TO.N,GND*
X121512354Y-100256319D03*
G04 #@! TO.P,J5,5*
G04 #@! TO.N,TS_RST*
X121512354Y-100756319D03*
G04 #@! TO.P,J5,4*
G04 #@! TO.N,TS_INT*
X121512354Y-101256319D03*
G04 #@! TO.P,J5,3*
G04 #@! TO.N,IIC_SDA*
X121512354Y-101756319D03*
G04 #@! TO.P,J5,2*
G04 #@! TO.N,IIC_SCL*
X121512354Y-102256319D03*
G04 #@! TO.P,J5,1*
G04 #@! TO.N,+3V0*
X121512354Y-102756319D03*
D30*
G04 #@! TO.P,J5,MP*
G04 #@! TO.N,GND*
X119012354Y-103756319D03*
X119012354Y-99256319D03*
G04 #@! TD*
D31*
G04 #@! TO.P,J4,MP*
G04 #@! TO.N,GND*
X115057354Y-90786319D03*
X115057354Y-95786319D03*
D32*
G04 #@! TO.P,J4,12*
X117607354Y-91786319D03*
G04 #@! TO.P,J4,10*
X117607354Y-92386319D03*
G04 #@! TO.P,J4,8*
G04 #@! TO.N,LCD_CLK*
X117607354Y-92986319D03*
G04 #@! TO.P,J4,6*
G04 #@! TO.N,LCD_CS*
X117607354Y-93586319D03*
G04 #@! TO.P,J4,4*
G04 #@! TO.N,+3V0*
X117607354Y-94186319D03*
G04 #@! TO.P,J4,2*
G04 #@! TO.N,Net-(J4-Pad2)*
X117607354Y-94786319D03*
D33*
G04 #@! TO.P,J4,13*
G04 #@! TO.N,Net-(J4-Pad13)*
X114732354Y-91486319D03*
G04 #@! TO.P,J4,11*
G04 #@! TO.N,LCD_DC*
X114732354Y-92086319D03*
G04 #@! TO.P,J4,9*
G04 #@! TO.N,LCD_MOSI*
X114732354Y-92686319D03*
G04 #@! TO.P,J4,7*
G04 #@! TO.N,LCD_RST*
X114732354Y-93286319D03*
G04 #@! TO.P,J4,5*
G04 #@! TO.N,+3V0*
X114732354Y-93886319D03*
G04 #@! TO.P,J4,3*
G04 #@! TO.N,GND*
X114732354Y-94486319D03*
G04 #@! TO.P,J4,1*
X114732354Y-95086319D03*
G04 #@! TD*
D20*
G04 #@! TO.P,C1,2*
G04 #@! TO.N,GND*
X130538200Y-105516400D03*
G04 #@! TO.P,C1,1*
G04 #@! TO.N,XL1*
X130538200Y-104416400D03*
G04 #@! TD*
G04 #@! TO.P,C2,2*
G04 #@! TO.N,GND*
X129344400Y-105516400D03*
G04 #@! TO.P,C2,1*
G04 #@! TO.N,XL2*
X129344400Y-104416400D03*
G04 #@! TD*
D24*
G04 #@! TO.P,C3,2*
G04 #@! TO.N,GND*
X112908800Y-76939400D03*
G04 #@! TO.P,C3,1*
G04 #@! TO.N,+5P*
X114008800Y-76939400D03*
G04 #@! TD*
D20*
G04 #@! TO.P,C4,2*
G04 #@! TO.N,GND*
X117635000Y-84877000D03*
G04 #@! TO.P,C4,1*
G04 #@! TO.N,VBUS*
X117635000Y-83777000D03*
G04 #@! TD*
D24*
G04 #@! TO.P,C5,2*
G04 #@! TO.N,GND*
X112908800Y-80939400D03*
G04 #@! TO.P,C5,1*
G04 #@! TO.N,+BATT*
X114008800Y-80939400D03*
G04 #@! TD*
D20*
G04 #@! TO.P,C6,2*
G04 #@! TO.N,GND*
X112241000Y-84620000D03*
G04 #@! TO.P,C6,1*
G04 #@! TO.N,+3V0*
X112241000Y-83520000D03*
G04 #@! TD*
G04 #@! TO.P,C7,2*
G04 #@! TO.N,GND*
X111241000Y-84620000D03*
G04 #@! TO.P,C7,1*
G04 #@! TO.N,+3V0*
X111241000Y-83520000D03*
G04 #@! TD*
D24*
G04 #@! TO.P,C9,2*
G04 #@! TO.N,Net-(C9-Pad2)*
X113479800Y-110378200D03*
G04 #@! TO.P,C9,1*
G04 #@! TO.N,GND*
X112379800Y-110378200D03*
G04 #@! TD*
G04 #@! TO.P,C10,2*
G04 #@! TO.N,Net-(C10-Pad2)*
X113459800Y-112798200D03*
G04 #@! TO.P,C10,1*
G04 #@! TO.N,GND*
X112359800Y-112798200D03*
G04 #@! TD*
G04 #@! TO.P,C13,2*
G04 #@! TO.N,GND*
X115979278Y-116888676D03*
G04 #@! TO.P,C13,1*
G04 #@! TO.N,Net-(C13-Pad1)*
X117079278Y-116888676D03*
G04 #@! TD*
G04 #@! TO.P,C14,2*
G04 #@! TO.N,GND*
X124281000Y-118008000D03*
G04 #@! TO.P,C14,1*
G04 #@! TO.N,+3V0*
X123181000Y-118008000D03*
G04 #@! TD*
G04 #@! TO.P,C15,2*
G04 #@! TO.N,GND*
X112379800Y-109378200D03*
G04 #@! TO.P,C15,1*
G04 #@! TO.N,+3V0*
X113479800Y-109378200D03*
G04 #@! TD*
G04 #@! TO.P,C16,2*
G04 #@! TO.N,GND*
X112379800Y-111378200D03*
G04 #@! TO.P,C16,1*
G04 #@! TO.N,+3V0*
X113479800Y-111378200D03*
G04 #@! TD*
D20*
G04 #@! TO.P,C8,2*
G04 #@! TO.N,GND*
X110241000Y-84620000D03*
G04 #@! TO.P,C8,1*
G04 #@! TO.N,+3V0*
X110241000Y-83520000D03*
G04 #@! TD*
D22*
G04 #@! TO.N,GND*
G04 #@! TO.C,C12*
G36*
X124648076Y-115343393D02*
X124671737Y-115346903D01*
X124694941Y-115352715D01*
X124717463Y-115360773D01*
X124739087Y-115371001D01*
X124759604Y-115383298D01*
X124778817Y-115397548D01*
X124796541Y-115413612D01*
X124812605Y-115431336D01*
X124826855Y-115450549D01*
X124839152Y-115471066D01*
X124849380Y-115492690D01*
X124857438Y-115515212D01*
X124863250Y-115538416D01*
X124866760Y-115562077D01*
X124867934Y-115585969D01*
X124867934Y-116498469D01*
X124866760Y-116522361D01*
X124863250Y-116546022D01*
X124857438Y-116569226D01*
X124849380Y-116591748D01*
X124839152Y-116613372D01*
X124826855Y-116633889D01*
X124812605Y-116653102D01*
X124796541Y-116670826D01*
X124778817Y-116686890D01*
X124759604Y-116701140D01*
X124739087Y-116713437D01*
X124717463Y-116723665D01*
X124694941Y-116731723D01*
X124671737Y-116737535D01*
X124648076Y-116741045D01*
X124624184Y-116742219D01*
X124136684Y-116742219D01*
X124112792Y-116741045D01*
X124089131Y-116737535D01*
X124065927Y-116731723D01*
X124043405Y-116723665D01*
X124021781Y-116713437D01*
X124001264Y-116701140D01*
X123982051Y-116686890D01*
X123964327Y-116670826D01*
X123948263Y-116653102D01*
X123934013Y-116633889D01*
X123921716Y-116613372D01*
X123911488Y-116591748D01*
X123903430Y-116569226D01*
X123897618Y-116546022D01*
X123894108Y-116522361D01*
X123892934Y-116498469D01*
X123892934Y-115585969D01*
X123894108Y-115562077D01*
X123897618Y-115538416D01*
X123903430Y-115515212D01*
X123911488Y-115492690D01*
X123921716Y-115471066D01*
X123934013Y-115450549D01*
X123948263Y-115431336D01*
X123964327Y-115413612D01*
X123982051Y-115397548D01*
X124001264Y-115383298D01*
X124021781Y-115371001D01*
X124043405Y-115360773D01*
X124065927Y-115352715D01*
X124089131Y-115346903D01*
X124112792Y-115343393D01*
X124136684Y-115342219D01*
X124624184Y-115342219D01*
X124648076Y-115343393D01*
X124648076Y-115343393D01*
G37*
D34*
G04 #@! TD*
G04 #@! TO.P,C12,2*
G04 #@! TO.N,GND*
X124380434Y-116042219D03*
D22*
G04 #@! TO.N,+3V0*
G04 #@! TO.C,C12*
G36*
X122773076Y-115343393D02*
X122796737Y-115346903D01*
X122819941Y-115352715D01*
X122842463Y-115360773D01*
X122864087Y-115371001D01*
X122884604Y-115383298D01*
X122903817Y-115397548D01*
X122921541Y-115413612D01*
X122937605Y-115431336D01*
X122951855Y-115450549D01*
X122964152Y-115471066D01*
X122974380Y-115492690D01*
X122982438Y-115515212D01*
X122988250Y-115538416D01*
X122991760Y-115562077D01*
X122992934Y-115585969D01*
X122992934Y-116498469D01*
X122991760Y-116522361D01*
X122988250Y-116546022D01*
X122982438Y-116569226D01*
X122974380Y-116591748D01*
X122964152Y-116613372D01*
X122951855Y-116633889D01*
X122937605Y-116653102D01*
X122921541Y-116670826D01*
X122903817Y-116686890D01*
X122884604Y-116701140D01*
X122864087Y-116713437D01*
X122842463Y-116723665D01*
X122819941Y-116731723D01*
X122796737Y-116737535D01*
X122773076Y-116741045D01*
X122749184Y-116742219D01*
X122261684Y-116742219D01*
X122237792Y-116741045D01*
X122214131Y-116737535D01*
X122190927Y-116731723D01*
X122168405Y-116723665D01*
X122146781Y-116713437D01*
X122126264Y-116701140D01*
X122107051Y-116686890D01*
X122089327Y-116670826D01*
X122073263Y-116653102D01*
X122059013Y-116633889D01*
X122046716Y-116613372D01*
X122036488Y-116591748D01*
X122028430Y-116569226D01*
X122022618Y-116546022D01*
X122019108Y-116522361D01*
X122017934Y-116498469D01*
X122017934Y-115585969D01*
X122019108Y-115562077D01*
X122022618Y-115538416D01*
X122028430Y-115515212D01*
X122036488Y-115492690D01*
X122046716Y-115471066D01*
X122059013Y-115450549D01*
X122073263Y-115431336D01*
X122089327Y-115413612D01*
X122107051Y-115397548D01*
X122126264Y-115383298D01*
X122146781Y-115371001D01*
X122168405Y-115360773D01*
X122190927Y-115352715D01*
X122214131Y-115346903D01*
X122237792Y-115343393D01*
X122261684Y-115342219D01*
X122749184Y-115342219D01*
X122773076Y-115343393D01*
X122773076Y-115343393D01*
G37*
D34*
G04 #@! TD*
G04 #@! TO.P,C12,1*
G04 #@! TO.N,+3V0*
X122505434Y-116042219D03*
D22*
G04 #@! TO.N,GND*
G04 #@! TO.C,C11*
G36*
X124648076Y-113184393D02*
X124671737Y-113187903D01*
X124694941Y-113193715D01*
X124717463Y-113201773D01*
X124739087Y-113212001D01*
X124759604Y-113224298D01*
X124778817Y-113238548D01*
X124796541Y-113254612D01*
X124812605Y-113272336D01*
X124826855Y-113291549D01*
X124839152Y-113312066D01*
X124849380Y-113333690D01*
X124857438Y-113356212D01*
X124863250Y-113379416D01*
X124866760Y-113403077D01*
X124867934Y-113426969D01*
X124867934Y-114339469D01*
X124866760Y-114363361D01*
X124863250Y-114387022D01*
X124857438Y-114410226D01*
X124849380Y-114432748D01*
X124839152Y-114454372D01*
X124826855Y-114474889D01*
X124812605Y-114494102D01*
X124796541Y-114511826D01*
X124778817Y-114527890D01*
X124759604Y-114542140D01*
X124739087Y-114554437D01*
X124717463Y-114564665D01*
X124694941Y-114572723D01*
X124671737Y-114578535D01*
X124648076Y-114582045D01*
X124624184Y-114583219D01*
X124136684Y-114583219D01*
X124112792Y-114582045D01*
X124089131Y-114578535D01*
X124065927Y-114572723D01*
X124043405Y-114564665D01*
X124021781Y-114554437D01*
X124001264Y-114542140D01*
X123982051Y-114527890D01*
X123964327Y-114511826D01*
X123948263Y-114494102D01*
X123934013Y-114474889D01*
X123921716Y-114454372D01*
X123911488Y-114432748D01*
X123903430Y-114410226D01*
X123897618Y-114387022D01*
X123894108Y-114363361D01*
X123892934Y-114339469D01*
X123892934Y-113426969D01*
X123894108Y-113403077D01*
X123897618Y-113379416D01*
X123903430Y-113356212D01*
X123911488Y-113333690D01*
X123921716Y-113312066D01*
X123934013Y-113291549D01*
X123948263Y-113272336D01*
X123964327Y-113254612D01*
X123982051Y-113238548D01*
X124001264Y-113224298D01*
X124021781Y-113212001D01*
X124043405Y-113201773D01*
X124065927Y-113193715D01*
X124089131Y-113187903D01*
X124112792Y-113184393D01*
X124136684Y-113183219D01*
X124624184Y-113183219D01*
X124648076Y-113184393D01*
X124648076Y-113184393D01*
G37*
D34*
G04 #@! TD*
G04 #@! TO.P,C11,2*
G04 #@! TO.N,GND*
X124380434Y-113883219D03*
D22*
G04 #@! TO.N,+3V0*
G04 #@! TO.C,C11*
G36*
X122773076Y-113184393D02*
X122796737Y-113187903D01*
X122819941Y-113193715D01*
X122842463Y-113201773D01*
X122864087Y-113212001D01*
X122884604Y-113224298D01*
X122903817Y-113238548D01*
X122921541Y-113254612D01*
X122937605Y-113272336D01*
X122951855Y-113291549D01*
X122964152Y-113312066D01*
X122974380Y-113333690D01*
X122982438Y-113356212D01*
X122988250Y-113379416D01*
X122991760Y-113403077D01*
X122992934Y-113426969D01*
X122992934Y-114339469D01*
X122991760Y-114363361D01*
X122988250Y-114387022D01*
X122982438Y-114410226D01*
X122974380Y-114432748D01*
X122964152Y-114454372D01*
X122951855Y-114474889D01*
X122937605Y-114494102D01*
X122921541Y-114511826D01*
X122903817Y-114527890D01*
X122884604Y-114542140D01*
X122864087Y-114554437D01*
X122842463Y-114564665D01*
X122819941Y-114572723D01*
X122796737Y-114578535D01*
X122773076Y-114582045D01*
X122749184Y-114583219D01*
X122261684Y-114583219D01*
X122237792Y-114582045D01*
X122214131Y-114578535D01*
X122190927Y-114572723D01*
X122168405Y-114564665D01*
X122146781Y-114554437D01*
X122126264Y-114542140D01*
X122107051Y-114527890D01*
X122089327Y-114511826D01*
X122073263Y-114494102D01*
X122059013Y-114474889D01*
X122046716Y-114454372D01*
X122036488Y-114432748D01*
X122028430Y-114410226D01*
X122022618Y-114387022D01*
X122019108Y-114363361D01*
X122017934Y-114339469D01*
X122017934Y-113426969D01*
X122019108Y-113403077D01*
X122022618Y-113379416D01*
X122028430Y-113356212D01*
X122036488Y-113333690D01*
X122046716Y-113312066D01*
X122059013Y-113291549D01*
X122073263Y-113272336D01*
X122089327Y-113254612D01*
X122107051Y-113238548D01*
X122126264Y-113224298D01*
X122146781Y-113212001D01*
X122168405Y-113201773D01*
X122190927Y-113193715D01*
X122214131Y-113187903D01*
X122237792Y-113184393D01*
X122261684Y-113183219D01*
X122749184Y-113183219D01*
X122773076Y-113184393D01*
X122773076Y-113184393D01*
G37*
D34*
G04 #@! TD*
G04 #@! TO.P,C11,1*
G04 #@! TO.N,+3V0*
X122505434Y-113883219D03*
D35*
G04 #@! TO.P,Y1,2*
G04 #@! TO.N,XL1*
X130544000Y-103029000D03*
G04 #@! TO.P,Y1,1*
G04 #@! TO.N,XL2*
X129344000Y-103029000D03*
G04 #@! TD*
D14*
G04 #@! TO.P,D1,1*
G04 #@! TO.N,VBUS*
X123604000Y-84400000D03*
G04 #@! TO.P,D1,2*
G04 #@! TO.N,+5P*
X123604000Y-82300000D03*
G04 #@! TD*
D36*
G04 #@! TO.P,J3,4*
G04 #@! TO.N,IIC_SCL*
X103825000Y-107594000D03*
G04 #@! TO.P,J3,3*
G04 #@! TO.N,IIC_SDA*
X103825000Y-108594000D03*
G04 #@! TO.P,J3,2*
G04 #@! TO.N,+3V0*
X103825000Y-109594000D03*
G04 #@! TO.P,J3,1*
G04 #@! TO.N,GND*
X103825000Y-110594000D03*
D37*
G04 #@! TO.P,J3,S1*
G04 #@! TO.N,N/C*
X99950000Y-111894000D03*
G04 #@! TO.P,J3,S2*
X99950000Y-106294000D03*
G04 #@! TD*
D38*
G04 #@! TO.P,U5,18*
G04 #@! TO.N,GND*
X115204800Y-112883200D03*
D39*
G04 #@! TO.P,U5,17*
X115784800Y-112848200D03*
G04 #@! TO.P,U5,16*
X116214800Y-112848200D03*
G04 #@! TO.P,U5,15*
X116644800Y-112848200D03*
G04 #@! TO.P,U5,14*
X117074800Y-112848200D03*
D38*
G04 #@! TO.P,U5,13*
G04 #@! TO.N,Net-(U5-Pad13)*
X117654800Y-112883200D03*
G04 #@! TO.P,U5,12*
G04 #@! TO.N,Net-(U5-Pad12)*
X117654800Y-112453200D03*
G04 #@! TO.P,U5,11*
G04 #@! TO.N,ACC_AG_NT*
X117654800Y-112023200D03*
G04 #@! TO.P,U5,10*
G04 #@! TO.N,ACC_INT*
X117654800Y-111593200D03*
G04 #@! TO.P,U5,9*
G04 #@! TO.N,Net-(U5-Pad9)*
X117654800Y-111163200D03*
G04 #@! TO.P,U5,8*
G04 #@! TO.N,Net-(R10-Pad1)*
X117654800Y-110733200D03*
G04 #@! TO.P,U5,7*
G04 #@! TO.N,Net-(R11-Pad1)*
X117654800Y-110303200D03*
G04 #@! TO.P,U5,6*
G04 #@! TO.N,Net-(R13-Pad1)*
X117654800Y-109873200D03*
D39*
G04 #@! TO.P,U5,5*
G04 #@! TO.N,Net-(R12-Pad1)*
X117074800Y-109908200D03*
G04 #@! TO.P,U5,4*
G04 #@! TO.N,IIC_SDA*
X116644800Y-109908200D03*
G04 #@! TO.P,U5,3*
G04 #@! TO.N,+3V0*
X116214800Y-109908200D03*
G04 #@! TO.P,U5,2*
G04 #@! TO.N,IIC_SCL*
X115784800Y-109908200D03*
D38*
G04 #@! TO.P,U5,1*
G04 #@! TO.N,+3V0*
X115204800Y-109873200D03*
G04 #@! TO.P,U5,24*
G04 #@! TO.N,Net-(C9-Pad2)*
X115204800Y-110303200D03*
G04 #@! TO.P,U5,23*
G04 #@! TO.N,+3V0*
X115204800Y-110733200D03*
G04 #@! TO.P,U5,22*
X115204800Y-111163200D03*
G04 #@! TO.P,U5,21*
G04 #@! TO.N,Net-(C10-Pad2)*
X115204800Y-111593200D03*
G04 #@! TO.P,U5,20*
G04 #@! TO.N,GND*
X115204800Y-112023200D03*
G04 #@! TO.P,U5,19*
X115204800Y-112453200D03*
G04 #@! TD*
D40*
G04 #@! TO.P,U3,1*
G04 #@! TO.N,GND*
X136850000Y-101250000D03*
G04 #@! TO.P,U3,2*
X136300000Y-100350000D03*
G04 #@! TO.P,U3,3*
X135750000Y-101250000D03*
G04 #@! TO.P,U3,4*
X135200000Y-100350000D03*
G04 #@! TO.P,U3,5*
X134650000Y-101250000D03*
G04 #@! TO.P,U3,6*
G04 #@! TO.N,MIC_SEL*
X134100000Y-100350000D03*
G04 #@! TO.P,U3,7*
G04 #@! TO.N,MIC_BCLK*
X133550000Y-101250000D03*
G04 #@! TO.P,U3,8*
G04 #@! TO.N,MIC_DATAOUT*
X133000000Y-100350000D03*
G04 #@! TO.P,U3,9*
G04 #@! TO.N,SW_A*
X132450000Y-101250000D03*
G04 #@! TO.P,U3,10*
G04 #@! TO.N,MOTOR_EN*
X131900000Y-100350000D03*
G04 #@! TO.P,U3,11*
G04 #@! TO.N,GES_INT*
X131350000Y-101250000D03*
G04 #@! TO.P,U3,12*
G04 #@! TO.N,BATVSENSE*
X130800000Y-100350000D03*
G04 #@! TO.P,U3,13*
G04 #@! TO.N,XL1*
X130250000Y-101250000D03*
G04 #@! TO.P,U3,14*
G04 #@! TO.N,XL2*
X129700000Y-100350000D03*
G04 #@! TO.P,U3,15*
G04 #@! TO.N,LCD_BL*
X129150000Y-101250000D03*
G04 #@! TO.P,U3,16*
G04 #@! TO.N,GND*
X128050000Y-101250000D03*
G04 #@! TO.P,U3,17*
G04 #@! TO.N,+3V0*
X128050000Y-100150000D03*
G04 #@! TO.P,U3,18*
G04 #@! TO.N,GND*
X128950000Y-99600000D03*
G04 #@! TO.P,U3,19*
G04 #@! TO.N,SW_B*
X128050000Y-99050000D03*
G04 #@! TO.P,U3,20*
G04 #@! TO.N,GPIO0_4*
X128950000Y-98500000D03*
G04 #@! TO.P,U3,21*
G04 #@! TO.N,GPIO0_5*
X128050000Y-97950000D03*
G04 #@! TO.P,U3,22*
G04 #@! TO.N,GPIO0_6*
X128950000Y-97400000D03*
G04 #@! TO.P,U3,23*
G04 #@! TO.N,GPIO0_7*
X128050000Y-96850000D03*
G04 #@! TO.P,U3,24*
G04 #@! TO.N,LCD_DC*
X128950000Y-96300000D03*
G04 #@! TO.P,U3,25*
G04 #@! TO.N,NFC1*
X128050000Y-95750000D03*
G04 #@! TO.P,U3,26*
G04 #@! TO.N,NFC2*
X128950000Y-95200000D03*
G04 #@! TO.P,U3,27*
G04 #@! TO.N,LCD_CLK*
X128050000Y-94650000D03*
G04 #@! TO.P,U3,28*
G04 #@! TO.N,LCD_MOSI*
X128950000Y-94100000D03*
G04 #@! TO.P,U3,29*
G04 #@! TO.N,GND*
X128050000Y-93550000D03*
G04 #@! TO.P,U3,30*
X128050000Y-92450000D03*
G04 #@! TO.P,U3,31*
G04 #@! TO.N,LCD_RST*
X129150000Y-92450000D03*
G04 #@! TO.P,U3,32*
G04 #@! TO.N,LCD_CS*
X129700000Y-93350000D03*
G04 #@! TO.P,U3,33*
G04 #@! TO.N,GPIO0_15*
X130250000Y-92450000D03*
G04 #@! TO.P,U3,34*
G04 #@! TO.N,CHGSTAT*
X130800000Y-93350000D03*
G04 #@! TO.P,U3,35*
G04 #@! TO.N,SW_C*
X131350000Y-92450000D03*
G04 #@! TO.P,U3,36*
G04 #@! TO.N,GPIO0_21*
X131900000Y-93350000D03*
G04 #@! TO.P,U3,37*
G04 #@! TO.N,GPIO0_19*
X132450000Y-92450000D03*
G04 #@! TO.P,U3,38*
G04 #@! TO.N,QSPI_DIO2*
X133000000Y-93350000D03*
G04 #@! TO.P,U3,39*
G04 #@! TO.N,~RESET*
X133550000Y-92450000D03*
G04 #@! TO.P,U3,40*
G04 #@! TO.N,QSPI_DIO1*
X134100000Y-93350000D03*
G04 #@! TO.P,U3,41*
G04 #@! TO.N,QSPI_~CS*
X134650000Y-92450000D03*
G04 #@! TO.P,U3,42*
G04 #@! TO.N,GPIO0_24*
X135200000Y-93350000D03*
G04 #@! TO.P,U3,43*
G04 #@! TO.N,SWCLK*
X135750000Y-92450000D03*
G04 #@! TO.P,U3,44*
G04 #@! TO.N,SWDIO*
X136300000Y-93350000D03*
G04 #@! TO.P,U3,45*
G04 #@! TO.N,GND*
X136850000Y-92450000D03*
G04 #@! TO.P,U3,46*
X136850000Y-95200000D03*
G04 #@! TO.P,U3,47*
X136850000Y-98500000D03*
G04 #@! TO.P,U3,48*
G04 #@! TO.N,Net-(U3-Pad48)*
X135750000Y-99450000D03*
G04 #@! TO.P,U3,49*
G04 #@! TO.N,Net-(U3-Pad49)*
X134650000Y-99450000D03*
G04 #@! TO.P,U3,50*
G04 #@! TO.N,ACC_AG_NT*
X133550000Y-99450000D03*
G04 #@! TO.P,U3,51*
G04 #@! TO.N,ACC_INT*
X132450000Y-99450000D03*
G04 #@! TO.P,U3,52*
G04 #@! TO.N,TS_INT*
X131350000Y-99450000D03*
G04 #@! TO.P,U3,53*
G04 #@! TO.N,TS_RST*
X129850000Y-97950000D03*
G04 #@! TO.P,U3,54*
G04 #@! TO.N,Net-(U3-Pad54)*
X129850000Y-96850000D03*
G04 #@! TO.P,U3,55*
G04 #@! TO.N,GND*
X129850000Y-95750000D03*
G04 #@! TO.P,U3,56*
G04 #@! TO.N,QSPI_DIO0*
X131350000Y-94250000D03*
G04 #@! TO.P,U3,57*
G04 #@! TO.N,QSPI_CLK*
X132450000Y-94250000D03*
G04 #@! TO.P,U3,58*
G04 #@! TO.N,QSPI_DIO3*
X133550000Y-94250000D03*
G04 #@! TO.P,U3,59*
G04 #@! TO.N,SW_D*
X134650000Y-94250000D03*
G04 #@! TO.P,U3,60*
G04 #@! TO.N,Net-(U3-Pad60)*
X135750000Y-94250000D03*
G04 #@! TO.P,U3,61*
G04 #@! TO.N,Net-(U3-Pad61)*
X127150000Y-100700000D03*
G04 #@! TO.P,U3,62*
G04 #@! TO.N,Net-(U3-Pad62)*
X127150000Y-99600000D03*
G04 #@! TO.P,U3,63*
G04 #@! TO.N,IIC_SCL*
X127150000Y-98500000D03*
G04 #@! TO.P,U3,64*
G04 #@! TO.N,IIC_SDA*
X127150000Y-97400000D03*
G04 #@! TO.P,U3,65*
G04 #@! TO.N,+3V0*
X127150000Y-96300000D03*
G04 #@! TO.P,U3,66*
G04 #@! TO.N,+5P*
X127150000Y-95200000D03*
G04 #@! TO.P,U3,67*
G04 #@! TO.N,D-*
X127150000Y-94100000D03*
G04 #@! TO.P,U3,68*
G04 #@! TO.N,D+*
X127150000Y-93000000D03*
G04 #@! TD*
D15*
G04 #@! TO.P,R13,1*
G04 #@! TO.N,Net-(R13-Pad1)*
X118979800Y-108878200D03*
G04 #@! TO.P,R13,2*
G04 #@! TO.N,+3V0*
X119879800Y-108878200D03*
G04 #@! TD*
D21*
G04 #@! TO.P,R14,1*
G04 #@! TO.N,BATVSENSE*
X128000000Y-82975000D03*
G04 #@! TO.P,R14,2*
G04 #@! TO.N,+BATT*
X128000000Y-82075000D03*
G04 #@! TD*
D15*
G04 #@! TO.P,R15,1*
G04 #@! TO.N,Net-(R15-Pad1)*
X107924035Y-115221273D03*
G04 #@! TO.P,R15,2*
G04 #@! TO.N,+3V0*
X107024035Y-115221273D03*
G04 #@! TD*
G04 #@! TO.P,R16,1*
G04 #@! TO.N,Net-(R16-Pad1)*
X109564035Y-117786673D03*
G04 #@! TO.P,R16,2*
G04 #@! TO.N,GND*
X110464035Y-117786673D03*
G04 #@! TD*
G04 #@! TO.P,R17,1*
G04 #@! TO.N,Net-(C13-Pad1)*
X116979278Y-118158676D03*
G04 #@! TO.P,R17,2*
G04 #@! TO.N,+3V0*
X116079278Y-118158676D03*
G04 #@! TD*
D21*
G04 #@! TO.P,R18,1*
G04 #@! TO.N,IIC_SCL*
X132087600Y-109720400D03*
G04 #@! TO.P,R18,2*
G04 #@! TO.N,+3V0*
X132087600Y-108820400D03*
G04 #@! TD*
G04 #@! TO.P,R19,1*
G04 #@! TO.N,IIC_SDA*
X133357600Y-109720400D03*
G04 #@! TO.P,R19,2*
G04 #@! TO.N,+3V0*
X133357600Y-108820400D03*
G04 #@! TD*
G04 #@! TO.P,R1,1*
G04 #@! TO.N,GND*
X115099035Y-77308273D03*
G04 #@! TO.P,R1,2*
G04 #@! TO.N,+5P*
X115099035Y-78208273D03*
G04 #@! TD*
D15*
G04 #@! TO.P,R11,1*
G04 #@! TO.N,Net-(R11-Pad1)*
X118979800Y-109878200D03*
G04 #@! TO.P,R11,2*
G04 #@! TO.N,+3V0*
X119879800Y-109878200D03*
G04 #@! TD*
D21*
G04 #@! TO.P,R20,1*
G04 #@! TO.N,GND*
X128000000Y-84800000D03*
G04 #@! TO.P,R20,2*
G04 #@! TO.N,BATVSENSE*
X128000000Y-83900000D03*
G04 #@! TD*
G04 #@! TO.P,R12,1*
G04 #@! TO.N,Net-(R12-Pad1)*
X117429800Y-108328200D03*
G04 #@! TO.P,R12,2*
G04 #@! TO.N,+3V0*
X117429800Y-107428200D03*
G04 #@! TD*
D15*
G04 #@! TO.P,R10,1*
G04 #@! TO.N,Net-(R10-Pad1)*
X118979800Y-110878200D03*
G04 #@! TO.P,R10,2*
G04 #@! TO.N,+3V0*
X119879800Y-110878200D03*
G04 #@! TD*
G04 #@! TO.P,R9,1*
G04 #@! TO.N,SW_B*
X112405000Y-114560000D03*
G04 #@! TO.P,R9,2*
G04 #@! TO.N,+3V0*
X111505000Y-114560000D03*
G04 #@! TD*
G04 #@! TO.P,R8,1*
G04 #@! TO.N,+3V0*
X130454354Y-107931919D03*
G04 #@! TO.P,R8,2*
G04 #@! TO.N,LCD_BL*
X129554354Y-107931919D03*
G04 #@! TD*
G04 #@! TO.P,R7,1*
G04 #@! TO.N,SW_A*
X135813754Y-108820919D03*
G04 #@! TO.P,R7,2*
G04 #@! TO.N,+3V0*
X134913754Y-108820919D03*
G04 #@! TD*
D21*
G04 #@! TO.P,R6,1*
G04 #@! TO.N,Net-(J4-Pad2)*
X126138920Y-103895340D03*
G04 #@! TO.P,R6,2*
G04 #@! TO.N,Net-(Q2-Pad3)*
X126138920Y-104795340D03*
G04 #@! TD*
D15*
G04 #@! TO.P,R5,1*
G04 #@! TO.N,+3V0*
X110508800Y-80939400D03*
G04 #@! TO.P,R5,2*
G04 #@! TO.N,CHGSTAT*
X111408800Y-80939400D03*
G04 #@! TD*
G04 #@! TO.P,R4,1*
G04 #@! TO.N,GND*
X111408800Y-76939400D03*
G04 #@! TO.P,R4,2*
G04 #@! TO.N,Net-(IC1-Pad8)*
X110508800Y-76939400D03*
G04 #@! TD*
G04 #@! TO.P,R3,1*
G04 #@! TO.N,SW_D*
X138317354Y-87637319D03*
G04 #@! TO.P,R3,2*
G04 #@! TO.N,+3V0*
X139217354Y-87637319D03*
G04 #@! TD*
D21*
G04 #@! TO.P,R2,1*
G04 #@! TO.N,SW_C*
X121546154Y-89168519D03*
G04 #@! TO.P,R2,2*
G04 #@! TO.N,+3V0*
X121546154Y-90068519D03*
G04 #@! TD*
D41*
G04 #@! TO.P,J2,1*
G04 #@! TO.N,Net-(J2-Pad1)*
X106247354Y-83096919D03*
G04 #@! TO.P,J2,2*
G04 #@! TO.N,+BATT*
X105247354Y-83096919D03*
D42*
G04 #@! TO.P,J2,3*
G04 #@! TO.N,N/C*
X107547354Y-86971919D03*
G04 #@! TO.P,J2,4*
X103947354Y-86971919D03*
G04 #@! TD*
D43*
G04 #@! TO.P,U1,1*
G04 #@! TO.N,QSPI_~CS*
X136075400Y-88081800D03*
G04 #@! TO.P,U1,2*
G04 #@! TO.N,QSPI_DIO1*
X134805400Y-88081800D03*
G04 #@! TO.P,U1,3*
G04 #@! TO.N,QSPI_DIO2*
X133535400Y-88081800D03*
G04 #@! TO.P,U1,4*
G04 #@! TO.N,GND*
X132265400Y-88081800D03*
G04 #@! TO.P,U1,5*
G04 #@! TO.N,QSPI_DIO0*
X132265400Y-83011800D03*
G04 #@! TO.P,U1,6*
G04 #@! TO.N,QSPI_CLK*
X133535400Y-83011800D03*
G04 #@! TO.P,U1,7*
G04 #@! TO.N,QSPI_DIO3*
X134805400Y-83011800D03*
G04 #@! TO.P,U1,8*
G04 #@! TO.N,+3V0*
X136075400Y-83011800D03*
D44*
G04 #@! TO.P,U1,9*
G04 #@! TO.N,N/C*
X134170400Y-85546800D03*
G04 #@! TD*
D29*
G04 #@! TO.P,IC1,1*
G04 #@! TO.N,+5P*
X113958800Y-78189400D03*
G04 #@! TO.P,IC1,2*
X113958800Y-78689400D03*
G04 #@! TO.P,IC1,3*
G04 #@! TO.N,+BATT*
X113958800Y-79189400D03*
G04 #@! TO.P,IC1,4*
X113958800Y-79689400D03*
G04 #@! TO.P,IC1,5*
G04 #@! TO.N,CHGSTAT*
X110958800Y-79689400D03*
G04 #@! TO.P,IC1,6*
G04 #@! TO.N,GND*
X110958800Y-79189400D03*
G04 #@! TO.P,IC1,7*
G04 #@! TO.N,Net-(IC1-Pad7)*
X110958800Y-78689400D03*
G04 #@! TO.P,IC1,8*
G04 #@! TO.N,Net-(IC1-Pad8)*
X110958800Y-78189400D03*
D45*
G04 #@! TO.P,IC1,9*
G04 #@! TO.N,GND*
X112458800Y-78939400D03*
G04 #@! TD*
D46*
G04 #@! TO.P,Q1,3*
G04 #@! TO.N,+BATT*
X119556000Y-83337000D03*
G04 #@! TO.P,Q1,2*
G04 #@! TO.N,VBUS*
X121556000Y-84287000D03*
G04 #@! TO.P,Q1,1*
G04 #@! TO.N,+5P*
X121556000Y-82387000D03*
G04 #@! TD*
D16*
G04 #@! TO.P,Q2,3*
G04 #@! TO.N,Net-(Q2-Pad3)*
X127400000Y-105950000D03*
G04 #@! TO.P,Q2,2*
G04 #@! TO.N,+3V0*
X126450000Y-107950000D03*
G04 #@! TO.P,Q2,1*
G04 #@! TO.N,LCD_BL*
X128350000Y-107950000D03*
G04 #@! TD*
D47*
G04 #@! TO.P,U2,5*
G04 #@! TO.N,+3V0*
X113859000Y-83877000D03*
G04 #@! TO.P,U2,4*
G04 #@! TO.N,Net-(U2-Pad4)*
X113859000Y-85777000D03*
G04 #@! TO.P,U2,3*
G04 #@! TO.N,Net-(IC2-Pad1)*
X116059000Y-85777000D03*
G04 #@! TO.P,U2,2*
G04 #@! TO.N,GND*
X116059000Y-84827000D03*
G04 #@! TO.P,U2,1*
G04 #@! TO.N,VBUS*
X116059000Y-83877000D03*
G04 #@! TD*
D17*
G04 #@! TO.P,TP8,1*
G04 #@! TO.N,VBUS*
X121953000Y-86512000D03*
G04 #@! TD*
G04 #@! TO.P,TP3,1*
G04 #@! TO.N,D+*
X127033000Y-86512000D03*
G04 #@! TD*
G04 #@! TO.P,TP4,1*
G04 #@! TO.N,D-*
X124493000Y-86512000D03*
G04 #@! TD*
G04 #@! TO.P,TP5,1*
G04 #@! TO.N,IIC_SDA*
X134165000Y-111410000D03*
G04 #@! TD*
G04 #@! TO.P,TP6,1*
G04 #@! TO.N,IIC_SCL*
X131198600Y-111440578D03*
G04 #@! TD*
G04 #@! TO.P,TP9,1*
G04 #@! TO.N,GND*
X140621554Y-89923319D03*
G04 #@! TD*
G04 #@! TO.P,TP10,1*
G04 #@! TO.N,+5P*
X116720154Y-79356919D03*
G04 #@! TD*
G04 #@! TO.P,TP12,1*
G04 #@! TO.N,+BATT*
X108058754Y-81922319D03*
G04 #@! TD*
D48*
G04 #@! TO.P,J1,6*
G04 #@! TO.N,GND*
X123075000Y-77437500D03*
D49*
X119575000Y-80137500D03*
D50*
G04 #@! TO.P,J1,2*
G04 #@! TO.N,D-*
X121425000Y-80137500D03*
G04 #@! TO.P,J1,1*
G04 #@! TO.N,+5P*
X120775000Y-80137500D03*
G04 #@! TO.P,J1,5*
G04 #@! TO.N,GND*
X123375000Y-80137500D03*
G04 #@! TO.P,J1,4*
G04 #@! TO.N,Net-(J1-Pad4)*
X122725000Y-80137500D03*
G04 #@! TO.P,J1,3*
G04 #@! TO.N,D+*
X122075000Y-80137500D03*
D49*
G04 #@! TO.P,J1,6*
G04 #@! TO.N,GND*
X124575000Y-80137500D03*
D48*
X121075000Y-77437500D03*
D51*
X118575000Y-77437500D03*
X125575000Y-77437500D03*
D52*
X126175000Y-77437500D03*
X117975000Y-77437500D03*
G04 #@! TD*
D53*
G04 #@! TO.N,+BATT*
X126825000Y-84000000D03*
X124025000Y-83675000D03*
G04 #@! TO.N,CHGSTAT*
X111132154Y-80196754D03*
X126642354Y-89126319D03*
G04 #@! TO.N,GND*
X129334994Y-106230000D03*
X130535000Y-106250000D03*
X115089035Y-76613273D03*
X138025000Y-104820000D03*
X140475000Y-104830000D03*
X139245000Y-103600000D03*
X139245000Y-106057400D03*
X110459035Y-118493673D03*
X117075000Y-113640000D03*
X115787600Y-113640000D03*
X114305000Y-113080000D03*
X114295000Y-112440000D03*
X111655000Y-109380000D03*
X111655000Y-110370000D03*
X111655000Y-111370000D03*
X111635000Y-112800000D03*
X124985000Y-118000000D03*
X125288400Y-116031400D03*
X125288400Y-113881400D03*
X106229035Y-115253673D03*
X136836954Y-91700000D03*
X136195000Y-95200000D03*
X136205000Y-98500000D03*
X136836954Y-101930000D03*
X135745000Y-101940000D03*
X134655000Y-101940000D03*
X129625000Y-99590000D03*
X130525000Y-95750000D03*
X128045000Y-91769800D03*
X116995000Y-84820000D03*
X112898800Y-79313400D03*
X112038800Y-79323400D03*
X112898800Y-78543400D03*
X112028800Y-78553400D03*
X112215000Y-85500000D03*
X111205000Y-85520000D03*
X110235000Y-85520000D03*
X118600000Y-108000000D03*
X128124998Y-85599998D03*
X118452354Y-91786319D03*
X116032354Y-95786319D03*
X116032354Y-90796319D03*
X119182354Y-91776319D03*
X115622354Y-94486319D03*
X116032354Y-95086319D03*
X118089964Y-99256319D03*
X118089964Y-103746319D03*
X122552352Y-100226319D03*
X107935354Y-118406319D03*
X120592354Y-118136319D03*
X133282354Y-117966319D03*
X135942354Y-107216319D03*
X131622354Y-88076319D03*
X128055000Y-101978929D03*
X105042354Y-110615319D03*
X116455000Y-87633709D03*
X114789744Y-116887477D03*
X106814154Y-79839519D03*
X108515954Y-80372919D03*
X104274154Y-82125519D03*
X104243380Y-77020129D03*
X102597754Y-109913119D03*
X102597754Y-112376919D03*
X102597754Y-85300519D03*
X102597754Y-82862119D03*
X137802154Y-109913119D03*
X137802154Y-112351519D03*
X133306354Y-76994719D03*
X137903764Y-82862119D03*
X137903764Y-85300519D03*
X139757954Y-89059719D03*
X108414344Y-77121719D03*
G04 #@! TO.N,SW_B*
X112425000Y-113810000D03*
X122422354Y-99066319D03*
G04 #@! TO.N,SW_A*
X137624354Y-111132319D03*
G04 #@! TO.N,+3V0*
X108719035Y-118393674D03*
X107119035Y-118403673D03*
X122505000Y-117240000D03*
X120462354Y-110876319D03*
X120462354Y-109876319D03*
X120472354Y-108876319D03*
X117432354Y-106776319D03*
X115982354Y-108546319D03*
X113272354Y-112066319D03*
X122322354Y-102776319D03*
X128832354Y-100426319D03*
X116032354Y-93886319D03*
X116712354Y-94186319D03*
X110242354Y-82786319D03*
X111242354Y-82786319D03*
X112242354Y-82786319D03*
X136072354Y-81916319D03*
X105042354Y-109605319D03*
X126422354Y-107066319D03*
X134182354Y-108816319D03*
X107035354Y-115926319D03*
X115472354Y-118156319D03*
X138602354Y-107216319D03*
X126452354Y-96286319D03*
X113202354Y-108746319D03*
X110780625Y-114501390D03*
X121546154Y-90710719D03*
X109811354Y-80931719D03*
X129216954Y-110192519D03*
X123603554Y-110192519D03*
X130461554Y-107093719D03*
X139910354Y-87637319D03*
X130766354Y-77045523D03*
X138894354Y-90736119D03*
G04 #@! TO.N,LCD_DC*
X130970000Y-96316400D03*
X112822354Y-92096319D03*
G04 #@! TO.N,LCD_CLK*
X126042400Y-94360600D03*
X119572354Y-94466741D03*
G04 #@! TO.N,LCD_MOSI*
X113469951Y-92654556D03*
X128592354Y-90186317D03*
G04 #@! TO.N,LCD_RST*
X113812331Y-93256319D03*
X129152354Y-90706319D03*
G04 #@! TO.N,LCD_CS*
X129725400Y-91287200D03*
X118542354Y-93916319D03*
G04 #@! TO.N,QSPI_CLK*
X133545000Y-81920000D03*
X132445000Y-94920000D03*
G04 #@! TO.N,QSPI_DIO0*
X132275000Y-81910000D03*
X131355000Y-94930000D03*
G04 #@! TO.N,~RESET*
X134125000Y-89680000D03*
X132061753Y-76994718D03*
G04 #@! TO.N,QSPI_DIO3*
X134815000Y-81920000D03*
X133555000Y-94920000D03*
G04 #@! TO.N,SWDIO*
X130766354Y-80271319D03*
X135846354Y-80144323D03*
G04 #@! TO.N,ACC_INT*
X132445000Y-98790000D03*
X119175000Y-111860000D03*
G04 #@! TO.N,GES_INT*
X119605000Y-115000000D03*
G04 #@! TO.N,ACC_AG_NT*
X118735000Y-112470000D03*
X133555000Y-98790000D03*
G04 #@! TO.N,IIC_SCL*
X132075000Y-110470000D03*
X115285000Y-108820000D03*
X122582344Y-101756319D03*
X123092354Y-98496319D03*
X115272354Y-115086319D03*
X104243398Y-80169719D03*
X102216754Y-89262919D03*
X109531954Y-114408919D03*
G04 #@! TO.N,IIC_SDA*
X116546700Y-115861700D03*
X133365000Y-110480000D03*
X116645000Y-108780000D03*
X120482356Y-102248919D03*
X123712354Y-97376319D03*
X104248457Y-79102919D03*
X101505554Y-89262919D03*
X108719154Y-114408919D03*
G04 #@! TO.N,Net-(C13-Pad1)*
X117745000Y-117260000D03*
G04 #@! TO.N,Net-(R16-Pad1)*
X109569035Y-118493673D03*
G04 #@! TO.N,Net-(R15-Pad1)*
X107929035Y-115923673D03*
G04 #@! TO.N,SW_C*
X127100000Y-88425000D03*
X121546154Y-88425000D03*
X102597754Y-84081319D03*
G04 #@! TO.N,SW_D*
X134703354Y-95130319D03*
X138259354Y-88399319D03*
G04 #@! TO.N,BATVSENSE*
X131900000Y-95575000D03*
X131882354Y-89286319D03*
G04 #@! TO.N,TS_INT*
X131352354Y-98796319D03*
X125602354Y-101246319D03*
G04 #@! TO.N,TS_RST*
X130592354Y-97946319D03*
X124892354Y-100756319D03*
G04 #@! TO.N,GPIO0_4*
X130002354Y-98886319D03*
G04 #@! TO.N,GPIO0_15*
X128124957Y-89703716D03*
G04 #@! TO.N,GPIO0_5*
X120334954Y-97966319D03*
G04 #@! TO.N,GPIO0_19*
X128082354Y-87316319D03*
X119262354Y-87316317D03*
G04 #@! TO.N,GPIO0_6*
X131002354Y-97396319D03*
G04 #@! TO.N,GPIO0_21*
X127622354Y-87906319D03*
X117742354Y-87916319D03*
G04 #@! TO.N,GPIO0_7*
X120334954Y-96866319D03*
G04 #@! TO.N,GPIO0_24*
X132382600Y-96316319D03*
G04 #@! TD*
D54*
G04 #@! TO.N,+5P*
X114008800Y-76939400D02*
X114008800Y-78139400D01*
X114008800Y-78139400D02*
X113958800Y-78189400D01*
D55*
X121556000Y-82387000D02*
X119762000Y-82387000D01*
X119762000Y-82387000D02*
X119762000Y-82379487D01*
D56*
X120775000Y-80137500D02*
X120775000Y-81025000D01*
D55*
X120775000Y-81374000D02*
X119762000Y-82387000D01*
X120775000Y-81025000D02*
X120775000Y-81374000D01*
X119762000Y-82379487D02*
X115957513Y-78575000D01*
X121556000Y-82387000D02*
X121646681Y-82296319D01*
X123600319Y-82296319D02*
X123604000Y-82300000D01*
X121646681Y-82296319D02*
X123600319Y-82296319D01*
X124325000Y-82300000D02*
X123604000Y-82300000D01*
X124586035Y-95200000D02*
X123275000Y-93888965D01*
X123275000Y-86050000D02*
X124842354Y-84482646D01*
X127150000Y-95200000D02*
X124586035Y-95200000D01*
X123275000Y-93888965D02*
X123275000Y-86050000D01*
X124842354Y-84482646D02*
X124842354Y-82817354D01*
X124842354Y-82817354D02*
X124325000Y-82300000D01*
D54*
G04 #@! TO.N,+BATT*
X128000000Y-82075000D02*
X127300000Y-82075000D01*
X127300000Y-82075000D02*
X126825000Y-82550000D01*
X126825000Y-82550000D02*
X126825000Y-84000000D01*
X123687000Y-83337000D02*
X119556000Y-83337000D01*
X124025000Y-83675000D02*
X123687000Y-83337000D01*
X106113154Y-79264119D02*
X106096554Y-79280719D01*
D56*
X107099154Y-76512119D02*
X108620606Y-76512119D01*
X106609354Y-77001919D02*
X107099154Y-76512119D01*
X108620606Y-76512119D02*
X108874606Y-76766119D01*
X106509354Y-77001919D02*
X106609354Y-77001919D01*
D54*
X108874606Y-76766119D02*
X108947754Y-76839267D01*
D56*
X107779354Y-79264119D02*
X108634154Y-79264119D01*
X108947754Y-78950519D02*
X108947754Y-76839267D01*
X108634154Y-79264119D02*
X108947754Y-78950519D01*
X103689954Y-82684319D02*
X104102554Y-83096919D01*
X103994754Y-76461319D02*
X103689954Y-76766119D01*
X105899754Y-76461319D02*
X103994754Y-76461319D01*
X103689954Y-76766119D02*
X103689954Y-82684319D01*
X106509354Y-77001919D02*
X106440354Y-77001919D01*
X106440354Y-77001919D02*
X105899754Y-76461319D01*
X104102554Y-83096919D02*
X105247354Y-83096919D01*
X107779354Y-79264119D02*
X106458554Y-79264119D01*
D54*
X107550754Y-79264119D02*
X106458554Y-79264119D01*
X106458554Y-79264119D02*
X106113154Y-79264119D01*
D55*
X105247354Y-84140119D02*
X105247354Y-83096919D01*
X107144354Y-84436919D02*
X105544154Y-84436919D01*
X107499954Y-84081319D02*
X107144354Y-84436919D01*
X105544154Y-84436919D02*
X105247354Y-84140119D01*
X108058754Y-81922319D02*
X107499954Y-82481119D01*
X107499954Y-82481119D02*
X107499954Y-84081319D01*
D54*
G04 #@! TO.N,CHGSTAT*
X110958800Y-79689400D02*
X110958800Y-80023400D01*
X111408800Y-80473400D02*
X111408800Y-80939400D01*
X111132154Y-80196754D02*
X111408800Y-80473400D01*
X110958800Y-80023400D02*
X111132154Y-80196754D01*
X127001564Y-89126319D02*
X126642354Y-89126319D01*
X130800000Y-90993965D02*
X128932354Y-89126319D01*
X130800000Y-93350000D02*
X130800000Y-90993965D01*
X128932354Y-89126319D02*
X127001564Y-89126319D01*
G04 #@! TO.N,GND*
X129344400Y-105516400D02*
X129344400Y-106220594D01*
X129344400Y-106220594D02*
X129334994Y-106230000D01*
X130538200Y-105516400D02*
X130538200Y-106246800D01*
X130538200Y-106246800D02*
X130535000Y-106250000D01*
X115099035Y-77308273D02*
X115099035Y-76623273D01*
X115099035Y-76623273D02*
X115089035Y-76613273D01*
X118515000Y-78266000D02*
X118524000Y-78257000D01*
D55*
X118574800Y-78307800D02*
X118524000Y-78257000D01*
D54*
X138030400Y-104825400D02*
X138025000Y-104820000D01*
X138588400Y-104825400D02*
X138030400Y-104825400D01*
X140470400Y-104825400D02*
X140475000Y-104830000D01*
X139912400Y-104825400D02*
X140470400Y-104825400D01*
X139250400Y-104163400D02*
X139250400Y-103605400D01*
X139250400Y-103605400D02*
X139245000Y-103600000D01*
X139250400Y-106052000D02*
X139245000Y-106057400D01*
X139250400Y-105487400D02*
X139250400Y-106052000D01*
D56*
X110464035Y-118488673D02*
X110459035Y-118493673D01*
X110464035Y-117786673D02*
X110464035Y-118488673D01*
D54*
X116644800Y-112848200D02*
X116644800Y-113209800D01*
X116644800Y-113209800D02*
X117075000Y-113640000D01*
X117074800Y-113639800D02*
X117075000Y-113640000D01*
X117074800Y-112848200D02*
X117074800Y-113639800D01*
X116214800Y-112848200D02*
X116214800Y-113212800D01*
X116214800Y-113212800D02*
X115787600Y-113640000D01*
X115784800Y-113637200D02*
X115787600Y-113640000D01*
X115784800Y-112848200D02*
X115784800Y-113637200D01*
X114501800Y-112883200D02*
X114305000Y-113080000D01*
X115204800Y-112883200D02*
X114501800Y-112883200D01*
X115204800Y-112453200D02*
X114308200Y-112453200D01*
X114308200Y-112453200D02*
X114295000Y-112440000D01*
X114711800Y-112023200D02*
X114295000Y-112440000D01*
X115204800Y-112023200D02*
X114711800Y-112023200D01*
X111656800Y-109378200D02*
X111655000Y-109380000D01*
X112379800Y-109378200D02*
X111656800Y-109378200D01*
X111663200Y-110378200D02*
X111655000Y-110370000D01*
X112379800Y-110378200D02*
X111663200Y-110378200D01*
X111663200Y-111378200D02*
X111655000Y-111370000D01*
X112379800Y-111378200D02*
X111663200Y-111378200D01*
X111636800Y-112798200D02*
X111635000Y-112800000D01*
X112359800Y-112798200D02*
X111636800Y-112798200D01*
X124000000Y-77612500D02*
X124902400Y-77612500D01*
X124902400Y-77612500D02*
X126000000Y-77612500D01*
X124000000Y-77612500D02*
X122100000Y-77612500D01*
X124977000Y-118008000D02*
X124985000Y-118000000D01*
X124281000Y-118008000D02*
X124977000Y-118008000D01*
X125277581Y-116042219D02*
X125288400Y-116031400D01*
X124380434Y-116042219D02*
X125277581Y-116042219D01*
X125286581Y-113883219D02*
X125288400Y-113881400D01*
X124380434Y-113883219D02*
X125286581Y-113883219D01*
D56*
X136850000Y-91705000D02*
X136845000Y-91700000D01*
X136850000Y-92450000D02*
X136850000Y-91705000D01*
X136850000Y-95200000D02*
X136195000Y-95200000D01*
X136850000Y-98500000D02*
X136205000Y-98500000D01*
X135200000Y-100350000D02*
X135200000Y-100700000D01*
X135200000Y-100700000D02*
X135750000Y-101250000D01*
X135200000Y-100700000D02*
X134650000Y-101250000D01*
X136300000Y-100350000D02*
X136300000Y-100700000D01*
X136300000Y-100700000D02*
X136850000Y-101250000D01*
X136300000Y-100700000D02*
X135750000Y-101250000D01*
X136850000Y-101925000D02*
X136845000Y-101930000D01*
X136850000Y-101250000D02*
X136850000Y-101925000D01*
X135750000Y-101935000D02*
X135745000Y-101940000D01*
X135750000Y-101250000D02*
X135750000Y-101935000D01*
X134650000Y-101935000D02*
X134655000Y-101940000D01*
X134650000Y-101250000D02*
X134650000Y-101935000D01*
X129615000Y-99600000D02*
X129625000Y-99590000D01*
X128950000Y-99600000D02*
X129615000Y-99600000D01*
X129850000Y-95750000D02*
X130525000Y-95750000D01*
X128050000Y-91774800D02*
X128045000Y-91769800D01*
X128050000Y-92450000D02*
X128050000Y-91774800D01*
X128050000Y-92450000D02*
X128050000Y-93550000D01*
D54*
X132265400Y-87881800D02*
X132265400Y-88539600D01*
X117635000Y-84877000D02*
X117052000Y-84877000D01*
X117052000Y-84877000D02*
X116995000Y-84820000D01*
X116988000Y-84827000D02*
X116995000Y-84820000D01*
X116059000Y-84827000D02*
X116988000Y-84827000D01*
X112241000Y-85364000D02*
X112235000Y-85370000D01*
X112241000Y-84620000D02*
X112241000Y-85364000D01*
X111241000Y-85374000D02*
X111225000Y-85390000D01*
X111241000Y-84620000D02*
X111241000Y-85374000D01*
X110241000Y-85376000D02*
X110255000Y-85390000D01*
X110241000Y-84620000D02*
X110241000Y-85376000D01*
X112908800Y-80221600D02*
X112899600Y-80212400D01*
X112908800Y-80939400D02*
X112908800Y-80221600D01*
D56*
X123375000Y-80137500D02*
X124575000Y-80137500D01*
D54*
X118700000Y-107900000D02*
X118600000Y-108000000D01*
D55*
X119175000Y-77437500D02*
X121075000Y-77437500D01*
X123075000Y-77437500D02*
X121075000Y-77437500D01*
X124975000Y-77437500D02*
X123075000Y-77437500D01*
D54*
X128000000Y-85475000D02*
X128124998Y-85599998D01*
X128000000Y-84800000D02*
X128000000Y-85475000D01*
X117607354Y-91786319D02*
X118452354Y-91786319D01*
X115057354Y-95786319D02*
X116032354Y-95786319D01*
X115057354Y-90786319D02*
X116022354Y-90786319D01*
X116022354Y-90786319D02*
X116032354Y-90796319D01*
X117607354Y-92386319D02*
X117782354Y-92386319D01*
X117852354Y-92386319D02*
X117872354Y-92406319D01*
X117782354Y-92386319D02*
X117852354Y-92386319D01*
X117872354Y-92406319D02*
X118552354Y-92406319D01*
X118552354Y-92406319D02*
X119182354Y-91776319D01*
X114732354Y-94486319D02*
X115622354Y-94486319D01*
X114732354Y-95086319D02*
X116032354Y-95086319D01*
X119012354Y-99256319D02*
X118089964Y-99256319D01*
X119012354Y-103756319D02*
X118099964Y-103756319D01*
X118099964Y-103756319D02*
X118089964Y-103746319D01*
X122522352Y-100256319D02*
X122552352Y-100226319D01*
X121512354Y-100256319D02*
X122522352Y-100256319D01*
X136732354Y-107216319D02*
X135942354Y-107216319D01*
X131627835Y-88081800D02*
X131622354Y-88076319D01*
X132265400Y-88081800D02*
X131627835Y-88081800D01*
D56*
X128050000Y-101973929D02*
X128055000Y-101978929D01*
X128050000Y-101250000D02*
X128050000Y-101973929D01*
D55*
X103846319Y-110615319D02*
X105042354Y-110615319D01*
X103825000Y-110594000D02*
X103846319Y-110615319D01*
D54*
X116436709Y-87652000D02*
X116455000Y-87633709D01*
X115789000Y-87652000D02*
X116436709Y-87652000D01*
D56*
X114790943Y-116888676D02*
X114789744Y-116887477D01*
X115979278Y-116888676D02*
X114790943Y-116888676D01*
D54*
X111904800Y-79189400D02*
X112038800Y-79323400D01*
X110958800Y-79189400D02*
X111904800Y-79189400D01*
X107779354Y-80364119D02*
X108557954Y-80364119D01*
X108329354Y-80364119D02*
X108338154Y-80372919D01*
X112908800Y-78533400D02*
X112898800Y-78543400D01*
X112908800Y-76939400D02*
X112908800Y-78533400D01*
X112028800Y-78194190D02*
X112028800Y-78553400D01*
X112028800Y-77103965D02*
X112028800Y-78194190D01*
X111408800Y-76939400D02*
X111864235Y-76939400D01*
X111864235Y-76939400D02*
X112028800Y-77103965D01*
X105296554Y-80341119D02*
X105296554Y-80080719D01*
X112898800Y-80211600D02*
X112898800Y-79313400D01*
X112908800Y-80221600D02*
X112898800Y-80211600D01*
X105213954Y-77001919D02*
X104261590Y-77001919D01*
X104261590Y-77001919D02*
X104243380Y-77020129D01*
D56*
X135439954Y-116525719D02*
X135465354Y-116551119D01*
X133262954Y-116525719D02*
X135439954Y-116525719D01*
X133262954Y-117946919D02*
X133282354Y-117966319D01*
X133262954Y-116525719D02*
X133262954Y-117946919D01*
D54*
X133306354Y-78112319D02*
X133306354Y-76994719D01*
X140621554Y-89923319D02*
X139757954Y-89059719D01*
X108405544Y-77130519D02*
X108414344Y-77121719D01*
X107779354Y-77130519D02*
X108405544Y-77130519D01*
D56*
X104883654Y-80754019D02*
X105213954Y-80423719D01*
X104883654Y-81388919D02*
X104883654Y-80754019D01*
X105213954Y-80423719D02*
X105296554Y-80341119D01*
X106814154Y-79839519D02*
X106655354Y-79680719D01*
X106655354Y-79680719D02*
X106433154Y-79680719D01*
D54*
X106096554Y-79680719D02*
X106433154Y-79680719D01*
D56*
X104883654Y-81516019D02*
X104274154Y-82125519D01*
X104883654Y-81388919D02*
X104883654Y-81516019D01*
D54*
G04 #@! TO.N,Net-(IC2-Pad1)*
X115789000Y-87002000D02*
X115789000Y-86047000D01*
X115789000Y-86047000D02*
X116059000Y-85777000D01*
G04 #@! TO.N,VBUS*
X114968000Y-86715200D02*
X114681200Y-87002000D01*
X114681200Y-87002000D02*
X114109000Y-87002000D01*
X114968000Y-84285600D02*
X114968000Y-86715200D01*
X116059000Y-83877000D02*
X115376600Y-83877000D01*
X115376600Y-83877000D02*
X114968000Y-84285600D01*
D55*
X121464600Y-84378400D02*
X119006600Y-84378400D01*
X121556000Y-84287000D02*
X121464600Y-84378400D01*
X119006600Y-84378400D02*
X118405200Y-83777000D01*
X118405200Y-83777000D02*
X118393000Y-83777000D01*
X118393000Y-83777000D02*
X117635000Y-83777000D01*
X117635000Y-83777000D02*
X116159000Y-83777000D01*
X116159000Y-83777000D02*
X116059000Y-83877000D01*
X123604000Y-84400000D02*
X121669000Y-84400000D01*
X121669000Y-84400000D02*
X121556000Y-84287000D01*
X121556000Y-86115000D02*
X121953000Y-86512000D01*
X121556000Y-84287000D02*
X121556000Y-86115000D01*
D54*
G04 #@! TO.N,SW_B*
X112405000Y-114560000D02*
X112405000Y-113830000D01*
X112405000Y-113830000D02*
X112425000Y-113810000D01*
X128050000Y-99050000D02*
X122438673Y-99050000D01*
X122438673Y-99050000D02*
X122422354Y-99066319D01*
G04 #@! TO.N,SW_A*
X137624354Y-111132319D02*
X136227354Y-111132319D01*
X135813754Y-110718719D02*
X135813754Y-108820919D01*
X136227354Y-111132319D02*
X135813754Y-110718719D01*
X135813754Y-107924719D02*
X135813754Y-108820919D01*
X135338354Y-107449319D02*
X135813754Y-107924719D01*
X133052354Y-107449319D02*
X135338354Y-107449319D01*
X132450000Y-101250000D02*
X132450000Y-106846965D01*
X132450000Y-106846965D02*
X133052354Y-107449319D01*
G04 #@! TO.N,XL1*
X130538200Y-103609800D02*
X130544000Y-103604000D01*
X130250000Y-101895600D02*
X130544000Y-102189600D01*
X130250000Y-101250000D02*
X130250000Y-101895600D01*
X130544000Y-102189600D02*
X130544000Y-103604000D01*
X130544000Y-104410600D02*
X130538200Y-104416400D01*
X130544000Y-103029000D02*
X130544000Y-104410600D01*
G04 #@! TO.N,XL2*
X129344400Y-103604400D02*
X129344000Y-103604000D01*
X129700000Y-101752000D02*
X129369800Y-102082200D01*
X129700000Y-100350000D02*
X129700000Y-101752000D01*
X129369800Y-102082200D02*
X129369800Y-103578200D01*
X129369800Y-103578200D02*
X129344000Y-103604000D01*
X129344000Y-104416000D02*
X129344400Y-104416400D01*
X129344000Y-103029000D02*
X129344000Y-104416000D01*
G04 #@! TO.N,+3V0*
X113479800Y-109378200D02*
X114138200Y-109378200D01*
X114633200Y-109873200D02*
X115204800Y-109873200D01*
X106991635Y-115253673D02*
X107024035Y-115221273D01*
X119879800Y-110878200D02*
X120460473Y-110878200D01*
X120460473Y-110878200D02*
X120462354Y-110876319D01*
X119879800Y-109878200D02*
X120460473Y-109878200D01*
X120460473Y-109878200D02*
X120462354Y-109876319D01*
X119879800Y-108878200D02*
X120470473Y-108878200D01*
X120470473Y-108878200D02*
X120472354Y-108876319D01*
X117429800Y-107428200D02*
X117429800Y-106778873D01*
X117429800Y-106778873D02*
X117432354Y-106776319D01*
X116214800Y-109908200D02*
X116214800Y-109218765D01*
X116214800Y-109218765D02*
X115982354Y-108986319D01*
X115982354Y-108986319D02*
X115982354Y-108546319D01*
X114382354Y-109622354D02*
X114633200Y-109873200D01*
X114138200Y-109378200D02*
X114382354Y-109622354D01*
X114100473Y-111378200D02*
X113479800Y-111378200D01*
X114341800Y-111136873D02*
X114100473Y-111378200D01*
X114368127Y-111163200D02*
X115204800Y-111163200D01*
X114341800Y-111136873D02*
X114368127Y-111163200D01*
X114341800Y-111136873D02*
X114341800Y-110856873D01*
X114465473Y-110733200D02*
X115204800Y-110733200D01*
X114341800Y-110856873D02*
X114465473Y-110733200D01*
X113282354Y-112056319D02*
X113272354Y-112066319D01*
X113479800Y-111378200D02*
X113282354Y-111575646D01*
X113282354Y-111575646D02*
X113282354Y-112056319D01*
X121512354Y-102756319D02*
X122302354Y-102756319D01*
X122302354Y-102756319D02*
X122322354Y-102776319D01*
X128050000Y-100150000D02*
X128556035Y-100150000D01*
X128556035Y-100150000D02*
X128832354Y-100426319D01*
X127150000Y-96300000D02*
X127109754Y-96300000D01*
X114732354Y-93886319D02*
X116032354Y-93886319D01*
X117607354Y-94186319D02*
X116712354Y-94186319D01*
X110241000Y-83520000D02*
X110241000Y-82787673D01*
X110241000Y-82787673D02*
X110242354Y-82786319D01*
X111241000Y-83520000D02*
X111241000Y-82787673D01*
X111241000Y-82787673D02*
X111242354Y-82786319D01*
X112241000Y-83520000D02*
X112241000Y-82787673D01*
X112241000Y-82787673D02*
X112242354Y-82786319D01*
X113176600Y-83877000D02*
X113859000Y-83877000D01*
X112819600Y-83520000D02*
X113176600Y-83877000D01*
X112241000Y-83520000D02*
X112819600Y-83520000D01*
X136075400Y-83011800D02*
X136075400Y-81919365D01*
X136075400Y-81919365D02*
X136072354Y-81916319D01*
X103825000Y-109594000D02*
X105031035Y-109594000D01*
X105031035Y-109594000D02*
X105042354Y-109605319D01*
X126450000Y-107950000D02*
X126450000Y-107093965D01*
X126450000Y-107093965D02*
X126422354Y-107066319D01*
X126450000Y-107950000D02*
X126602354Y-108102354D01*
X132087600Y-108820400D02*
X133357600Y-108820400D01*
X133357600Y-108820400D02*
X134178273Y-108820400D01*
X134178273Y-108820400D02*
X134182354Y-108816319D01*
X107024035Y-115221273D02*
X107024035Y-115915000D01*
X107024035Y-115915000D02*
X107035354Y-115926319D01*
X122505434Y-116042219D02*
X122505434Y-116274366D01*
X123181000Y-117916000D02*
X122505000Y-117240000D01*
X123181000Y-118008000D02*
X123181000Y-117916000D01*
X122505434Y-114683219D02*
X122505434Y-116042219D01*
X122505434Y-113883219D02*
X122505434Y-114683219D01*
X116079278Y-118158676D02*
X115474711Y-118158676D01*
X115474711Y-118158676D02*
X115472354Y-118156319D01*
X137772354Y-107156319D02*
X137832354Y-107216319D01*
X137772354Y-105676319D02*
X137772354Y-107156319D01*
X137832354Y-107216319D02*
X138602354Y-107216319D01*
X127150000Y-96300000D02*
X126466035Y-96300000D01*
X126466035Y-96300000D02*
X126452354Y-96286319D01*
X111505000Y-114560000D02*
X110839235Y-114560000D01*
X110839235Y-114560000D02*
X110780625Y-114501390D01*
X113202354Y-109100754D02*
X113202354Y-108746319D01*
X113479800Y-109378200D02*
X113202354Y-109100754D01*
X121546154Y-90068519D02*
X121546154Y-90710719D01*
X110508800Y-80939400D02*
X109819035Y-80939400D01*
X109819035Y-80939400D02*
X109811354Y-80931719D01*
X122505434Y-117239566D02*
X122505000Y-117240000D01*
X122505434Y-116042219D02*
X122505434Y-117239566D01*
D56*
X128338154Y-110183119D02*
X129207554Y-110183119D01*
X129207554Y-110183119D02*
X129216954Y-110192519D01*
D54*
X124289354Y-110167119D02*
X123628954Y-110167119D01*
X123628954Y-110167119D02*
X123603554Y-110192519D01*
X130454354Y-107931919D02*
X130454354Y-107100919D01*
X130454354Y-107100919D02*
X130461554Y-107093719D01*
X134186954Y-108820919D02*
X134182354Y-108816319D01*
X134913754Y-108820919D02*
X134186954Y-108820919D01*
X139217354Y-87637319D02*
X139910354Y-87637319D01*
X130766354Y-78112319D02*
X130766354Y-77045523D01*
X138081555Y-89923319D02*
X138081555Y-89923320D01*
X138081555Y-89923320D02*
X138894354Y-90736119D01*
G04 #@! TO.N,LCD_DC*
X130953600Y-96300000D02*
X130970000Y-96316400D01*
X128950000Y-96300000D02*
X130953600Y-96300000D01*
X114732354Y-92086319D02*
X112832354Y-92086319D01*
X112832354Y-92086319D02*
X112822354Y-92096319D01*
G04 #@! TO.N,LCD_CLK*
X126331800Y-94650000D02*
X126042400Y-94360600D01*
X128050000Y-94650000D02*
X126331800Y-94650000D01*
X119572354Y-93436319D02*
X119572354Y-94466741D01*
X117607354Y-92986319D02*
X119122354Y-92986319D01*
X119122354Y-92986319D02*
X119572354Y-93436319D01*
G04 #@! TO.N,LCD_MOSI*
X113501714Y-92686319D02*
X113469951Y-92654556D01*
X114732354Y-92686319D02*
X113501714Y-92686319D01*
X128592354Y-90545527D02*
X128592354Y-90186317D01*
X128950000Y-94100000D02*
X128950000Y-93697600D01*
X128950000Y-93697600D02*
X128592354Y-93339954D01*
X128592354Y-93339954D02*
X128592354Y-90545527D01*
G04 #@! TO.N,LCD_RST*
X113842331Y-93286319D02*
X113812331Y-93256319D01*
X114732354Y-93286319D02*
X113842331Y-93286319D01*
X129150000Y-92450000D02*
X129150000Y-90708673D01*
X129150000Y-90708673D02*
X129152354Y-90706319D01*
G04 #@! TO.N,LCD_CS*
X129725400Y-91287200D02*
X129700000Y-91312600D01*
X129700000Y-91312600D02*
X129700000Y-93350000D01*
X118212354Y-93586319D02*
X118542354Y-93916319D01*
X117607354Y-93586319D02*
X118212354Y-93586319D01*
G04 #@! TO.N,QSPI_~CS*
X136075400Y-89084673D02*
X136075400Y-87881800D01*
X134650000Y-92450000D02*
X134650000Y-90510073D01*
X134650000Y-90510073D02*
X136075400Y-89084673D01*
G04 #@! TO.N,QSPI_DIO1*
X134100000Y-90455000D02*
X134805400Y-89749600D01*
X134100000Y-93350000D02*
X134100000Y-90455000D01*
X134805400Y-89749600D02*
X134805400Y-88564200D01*
X134805400Y-88564200D02*
X134805400Y-87881800D01*
G04 #@! TO.N,QSPI_CLK*
X133545000Y-82210000D02*
X133545000Y-83202200D01*
X133545000Y-83202200D02*
X133535400Y-83211800D01*
X132450000Y-94915000D02*
X132445000Y-94920000D01*
X132450000Y-94250000D02*
X132450000Y-94915000D01*
X133545000Y-82210000D02*
X133545000Y-81920000D01*
G04 #@! TO.N,QSPI_DIO0*
X132275000Y-82200000D02*
X132275000Y-83202200D01*
X132275000Y-83202200D02*
X132265400Y-83211800D01*
X131350000Y-94925000D02*
X131355000Y-94930000D01*
X131350000Y-94250000D02*
X131350000Y-94925000D01*
X132275000Y-82200000D02*
X132275000Y-81910000D01*
G04 #@! TO.N,~RESET*
X133871001Y-89933999D02*
X134125000Y-89680000D01*
X133550000Y-92450000D02*
X133550000Y-90255000D01*
X133550000Y-90255000D02*
X133871001Y-89933999D01*
X132036354Y-77020117D02*
X132061753Y-76994718D01*
X132036354Y-78112319D02*
X132036354Y-77020117D01*
G04 #@! TO.N,QSPI_DIO2*
X133535400Y-89643473D02*
X133535400Y-87881800D01*
X133000000Y-93350000D02*
X133000000Y-90178873D01*
X133000000Y-90178873D02*
X133535400Y-89643473D01*
G04 #@! TO.N,QSPI_DIO3*
X134815000Y-82210000D02*
X134815000Y-83202200D01*
X134815000Y-83202200D02*
X134805400Y-83211800D01*
X133550000Y-94915000D02*
X133555000Y-94920000D01*
X133550000Y-94250000D02*
X133550000Y-94915000D01*
X134815000Y-82210000D02*
X134815000Y-81920000D01*
G04 #@! TO.N,SWCLK*
X132430053Y-79776018D02*
X132036354Y-79382319D01*
X135750000Y-92450000D02*
X135750000Y-89995007D01*
X135750000Y-89995007D02*
X136938554Y-88806453D01*
X136227354Y-80779319D02*
X133433354Y-80779319D01*
X133433354Y-80779319D02*
X132430053Y-79776018D01*
X136938554Y-88806453D02*
X136938554Y-81490519D01*
X136938554Y-81490519D02*
X136227354Y-80779319D01*
G04 #@! TO.N,SWDIO*
X130766354Y-79382319D02*
X130766354Y-80271319D01*
X135846358Y-80144319D02*
X135846354Y-80144323D01*
X136354354Y-80144319D02*
X135846358Y-80144319D01*
X137421154Y-81211119D02*
X136354354Y-80144319D01*
X137421154Y-88881919D02*
X137421154Y-81211119D01*
X136300000Y-90003073D02*
X137421154Y-88881919D01*
X136300000Y-93350000D02*
X136300000Y-90003073D01*
G04 #@! TO.N,MIC_BCLK*
X134122354Y-103976319D02*
X137072354Y-103976319D01*
X133550000Y-101250000D02*
X133550000Y-103403965D01*
X133550000Y-103403965D02*
X134122354Y-103976319D01*
G04 #@! TO.N,MIC_SEL*
X134475000Y-102710000D02*
X134100000Y-102335000D01*
X134100000Y-102335000D02*
X134100000Y-100350000D01*
X134475000Y-102710000D02*
X137366035Y-102710000D01*
X137772354Y-103116319D02*
X137772354Y-103976319D01*
X137366035Y-102710000D02*
X137772354Y-103116319D01*
G04 #@! TO.N,ACC_INT*
X132445000Y-98790000D02*
X132445000Y-99445000D01*
X132445000Y-99445000D02*
X132450000Y-99450000D01*
X118908200Y-111593200D02*
X119175000Y-111860000D01*
X117654800Y-111593200D02*
X118908200Y-111593200D01*
G04 #@! TO.N,GES_INT*
X131350000Y-102045000D02*
X131350000Y-101250000D01*
X131350000Y-107957873D02*
X131350000Y-102045000D01*
X120751873Y-115000000D02*
X121190554Y-114561319D01*
X130486954Y-108820919D02*
X131350000Y-107957873D01*
X119605000Y-115000000D02*
X120751873Y-115000000D01*
X121190554Y-114561319D02*
X121190554Y-109481319D01*
X121190554Y-109481319D02*
X121850954Y-108820919D01*
X121850954Y-108820919D02*
X130486954Y-108820919D01*
G04 #@! TO.N,ACC_AG_NT*
X118481001Y-112216001D02*
X118735000Y-112470000D01*
X118288200Y-112023200D02*
X118481001Y-112216001D01*
X117654800Y-112023200D02*
X118288200Y-112023200D01*
X133550000Y-99450000D02*
X133550000Y-98795000D01*
X133550000Y-98795000D02*
X133555000Y-98790000D01*
G04 #@! TO.N,MIC_DATAOUT*
X133000000Y-104913965D02*
X133000000Y-100350000D01*
X137072354Y-105676319D02*
X133762354Y-105676319D01*
X133762354Y-105676319D02*
X133000000Y-104913965D01*
G04 #@! TO.N,IIC_SCL*
X132075000Y-110470000D02*
X132075000Y-110564178D01*
X132075000Y-110564178D02*
X131198600Y-111440578D01*
X132087600Y-109720400D02*
X132087600Y-110457400D01*
X132087600Y-110457400D02*
X132075000Y-110470000D01*
X115784800Y-109319800D02*
X115285000Y-108820000D01*
X115784800Y-109908200D02*
X115784800Y-109319800D01*
X122082344Y-102256319D02*
X122328345Y-102010318D01*
X122328345Y-102010318D02*
X122582344Y-101756319D01*
X121512354Y-102256319D02*
X122082344Y-102256319D01*
X127150000Y-98500000D02*
X123096035Y-98500000D01*
X123096035Y-98500000D02*
X123092354Y-98496319D01*
X109530435Y-114410438D02*
X109531954Y-114408919D01*
X109530435Y-114916919D02*
X109548154Y-114916919D01*
X109548154Y-114916919D02*
X109887554Y-115256319D01*
X109530435Y-114916919D02*
X109530435Y-114410438D01*
X114913144Y-115086319D02*
X115272354Y-115086319D01*
X114743144Y-115256319D02*
X114913144Y-115086319D01*
X109887554Y-115256319D02*
X114743144Y-115256319D01*
X102191354Y-89288319D02*
X102216754Y-89262919D01*
X105086954Y-92615719D02*
X102191354Y-89720119D01*
X102191354Y-89720119D02*
X102191354Y-89288319D01*
X105086954Y-105879646D02*
X105086954Y-92615719D01*
X103825000Y-107594000D02*
X103825000Y-107141600D01*
X103825000Y-107141600D02*
X105086954Y-105879646D01*
X105391035Y-107594000D02*
X106179154Y-108382119D01*
X103825000Y-107594000D02*
X105391035Y-107594000D01*
X109531954Y-114049709D02*
X109531954Y-114408919D01*
X106179154Y-108382119D02*
X106179154Y-113240519D01*
X106179154Y-113240519D02*
X106483954Y-113545319D01*
X106483954Y-113545319D02*
X109027564Y-113545319D01*
X109027564Y-113545319D02*
X109531954Y-114049709D01*
X104274154Y-80169719D02*
X104243398Y-80169719D01*
X105296554Y-79680719D02*
X104763154Y-79680719D01*
X104763154Y-79680719D02*
X104274154Y-80169719D01*
G04 #@! TO.N,IIC_SDA*
X133365000Y-110480000D02*
X133365000Y-110610000D01*
X133365000Y-110610000D02*
X134165000Y-111410000D01*
X133357600Y-109720400D02*
X133357600Y-110472600D01*
X133357600Y-110472600D02*
X133365000Y-110480000D01*
X116645000Y-108780000D02*
X116645000Y-109908000D01*
X116645000Y-109908000D02*
X116644800Y-109908200D01*
X120482356Y-102233917D02*
X120482356Y-102248919D01*
X121512354Y-101756319D02*
X120959954Y-101756319D01*
X120959954Y-101756319D02*
X120482356Y-102233917D01*
X127150000Y-97400000D02*
X123736035Y-97400000D01*
X123736035Y-97400000D02*
X123712354Y-97376319D01*
X105296554Y-79280719D02*
X104883754Y-79280719D01*
X104705954Y-79102919D02*
X104248457Y-79102919D01*
X104883754Y-79280719D02*
X104705954Y-79102919D01*
X108719154Y-115450319D02*
X108719154Y-114408919D01*
X109130535Y-115861700D02*
X108719154Y-115450319D01*
X105592354Y-113644319D02*
X105592354Y-108975319D01*
X105592354Y-108975319D02*
X105211035Y-108594000D01*
X106102955Y-114154920D02*
X105592354Y-113644319D01*
X105211035Y-108594000D02*
X103825000Y-108594000D01*
X108719154Y-114408919D02*
X108465155Y-114154920D01*
X108465155Y-114154920D02*
X106102955Y-114154920D01*
X109130535Y-115861700D02*
X116546700Y-115861700D01*
X101505554Y-90075719D02*
X101505554Y-89262919D01*
X103825000Y-108594000D02*
X102929635Y-108594000D01*
X102673954Y-108338319D02*
X102673954Y-107195319D01*
X104274154Y-92844319D02*
X101505554Y-90075719D01*
X102929635Y-108594000D02*
X102673954Y-108338319D01*
X102673954Y-107195319D02*
X104274154Y-105595119D01*
X104274154Y-105595119D02*
X104274154Y-92844319D01*
G04 #@! TO.N,D-*
X126774999Y-94100000D02*
X127150000Y-94100000D01*
X125981352Y-93727800D02*
X126402799Y-93727800D01*
X126402799Y-93727800D02*
X126774999Y-94100000D01*
X125585200Y-93331648D02*
X125981352Y-93727800D01*
X125585200Y-87604200D02*
X125585200Y-93331648D01*
X124493000Y-86512000D02*
X125585200Y-87604200D01*
X121572200Y-80759700D02*
X121572200Y-80999150D01*
X121425000Y-80612500D02*
X121572200Y-80759700D01*
X121572200Y-80999150D02*
X122130850Y-81557800D01*
X125151352Y-81557800D02*
X125585200Y-81991648D01*
X121425000Y-80137500D02*
X121425000Y-80612500D01*
X122130850Y-81557800D02*
X125151352Y-81557800D01*
X125585200Y-81991648D02*
X125585200Y-85419800D01*
X125585200Y-85419800D02*
X124493000Y-86512000D01*
G04 #@! TO.N,D+*
X126128648Y-93372200D02*
X126402799Y-93372200D01*
X125940800Y-93184352D02*
X126128648Y-93372200D01*
X126402799Y-93372200D02*
X126774999Y-93000000D01*
X126774999Y-93000000D02*
X127150000Y-93000000D01*
X125940800Y-87604200D02*
X125940800Y-93184352D01*
X127033000Y-86512000D02*
X125940800Y-87604200D01*
X121927800Y-80851854D02*
X122278146Y-81202200D01*
X125940800Y-85419800D02*
X127033000Y-86512000D01*
X122075000Y-80137500D02*
X122075000Y-80612500D01*
X122075000Y-80612500D02*
X121927800Y-80759700D01*
X121927800Y-80759700D02*
X121927800Y-80851854D01*
X122278146Y-81202200D02*
X125298648Y-81202200D01*
X125298648Y-81202200D02*
X125940800Y-81844352D01*
X125940800Y-81844352D02*
X125940800Y-85419800D01*
G04 #@! TO.N,Net-(R10-Pad1)*
X118627400Y-110878200D02*
X118482400Y-110733200D01*
X118979800Y-110878200D02*
X118627400Y-110878200D01*
X118482400Y-110733200D02*
X117654800Y-110733200D01*
G04 #@! TO.N,Net-(R11-Pad1)*
X118072200Y-110303200D02*
X118497200Y-109878200D01*
X117654800Y-110303200D02*
X118072200Y-110303200D01*
X118497200Y-109878200D02*
X118979800Y-109878200D01*
G04 #@! TO.N,Net-(R13-Pad1)*
X117654800Y-109220200D02*
X117996800Y-108878200D01*
X117654800Y-109873200D02*
X117654800Y-109220200D01*
X117996800Y-108878200D02*
X118627400Y-108878200D01*
X118627400Y-108878200D02*
X118979800Y-108878200D01*
G04 #@! TO.N,Net-(R12-Pad1)*
X117429800Y-108935200D02*
X117074800Y-109290200D01*
X117429800Y-108328200D02*
X117429800Y-108935200D01*
X117074800Y-109290200D02*
X117074800Y-109490800D01*
X117074800Y-109490800D02*
X117074800Y-109908200D01*
G04 #@! TO.N,Net-(C9-Pad2)*
X115204800Y-110303200D02*
X113554800Y-110303200D01*
X113554800Y-110303200D02*
X113479800Y-110378200D01*
G04 #@! TO.N,Net-(C10-Pad2)*
X113459800Y-112798200D02*
X113476800Y-112798200D01*
X113459800Y-112578873D02*
X113459800Y-112798200D01*
X115204800Y-111593200D02*
X114445473Y-111593200D01*
X114445473Y-111593200D02*
X113459800Y-112578873D01*
G04 #@! TO.N,LCD_BL*
X129150000Y-101652400D02*
X129150000Y-101250000D01*
X128350000Y-107950000D02*
X128350000Y-102452400D01*
X128350000Y-102452400D02*
X129150000Y-101652400D01*
X129536273Y-107950000D02*
X129554354Y-107931919D01*
X128350000Y-107950000D02*
X129536273Y-107950000D01*
G04 #@! TO.N,Net-(C13-Pad1)*
X117616324Y-118158676D02*
X117755000Y-118020000D01*
X116979278Y-118158676D02*
X117616324Y-118158676D01*
X117755000Y-118020000D02*
X117755000Y-117260000D01*
X117653676Y-116888676D02*
X117745000Y-116980000D01*
X117079278Y-116888676D02*
X117653676Y-116888676D01*
X117745000Y-116980000D02*
X117745000Y-117260000D01*
G04 #@! TO.N,Net-(R16-Pad1)*
X109569035Y-118493673D02*
X109569035Y-117791673D01*
X109569035Y-117791673D02*
X109564035Y-117786673D01*
G04 #@! TO.N,Net-(R15-Pad1)*
X107924035Y-115918673D02*
X107929035Y-115923673D01*
X107924035Y-115221273D02*
X107924035Y-115918673D01*
D56*
G04 #@! TO.N,Net-(Q2-Pad3)*
X126138920Y-105632885D02*
X126138920Y-104795340D01*
X127400000Y-105950000D02*
X126456035Y-105950000D01*
X126456035Y-105950000D02*
X126138920Y-105632885D01*
D54*
G04 #@! TO.N,SW_C*
X121546154Y-89168519D02*
X121546154Y-88425000D01*
X131350000Y-90862565D02*
X131350000Y-92450000D01*
X127100000Y-88425000D02*
X128912435Y-88425000D01*
X128912435Y-88425000D02*
X131350000Y-90862565D01*
X104197954Y-85529119D02*
X102750154Y-84081319D01*
X110522554Y-87586519D02*
X108465154Y-85529119D01*
X111386154Y-87586519D02*
X110522554Y-87586519D01*
X120682835Y-88425000D02*
X120250754Y-87992919D01*
X112173554Y-88373919D02*
X111386154Y-87586519D01*
X119793554Y-86672119D02*
X118193354Y-86672119D01*
X116491554Y-88373919D02*
X112173554Y-88373919D01*
X121546154Y-88425000D02*
X120682835Y-88425000D01*
X118193354Y-86672119D02*
X116491554Y-88373919D01*
X120250754Y-87992919D02*
X120250754Y-87129319D01*
X102750154Y-84081319D02*
X102597754Y-84081319D01*
X108465154Y-85529119D02*
X104197954Y-85529119D01*
X120250754Y-87129319D02*
X119793554Y-86672119D01*
G04 #@! TO.N,SW_D*
X134650000Y-94250000D02*
X134650000Y-95076965D01*
X134650000Y-95076965D02*
X134703354Y-95130319D01*
X138259354Y-87695319D02*
X138317354Y-87637319D01*
X138259354Y-88399319D02*
X138259354Y-87695319D01*
G04 #@! TO.N,BATVSENSE*
X128000000Y-83900000D02*
X128000000Y-82975000D01*
X130800000Y-100350000D02*
X130800000Y-98498673D01*
X131900000Y-97398673D02*
X131900000Y-95575000D01*
X130800000Y-98498673D02*
X131900000Y-97398673D01*
X131628355Y-89032320D02*
X131882354Y-89286319D01*
X130675000Y-88078965D02*
X131628355Y-89032320D01*
X130675000Y-84918965D02*
X130675000Y-88078965D01*
X128000000Y-83900000D02*
X129656035Y-83900000D01*
X129656035Y-83900000D02*
X130675000Y-84918965D01*
G04 #@! TO.N,TS_INT*
X131350000Y-99450000D02*
X131350000Y-98798673D01*
X131350000Y-98798673D02*
X131352354Y-98796319D01*
X121522354Y-101246319D02*
X121512354Y-101256319D01*
X125602354Y-101246319D02*
X121522354Y-101246319D01*
G04 #@! TO.N,TS_RST*
X129850000Y-97950000D02*
X130588673Y-97950000D01*
X130588673Y-97950000D02*
X130592354Y-97946319D01*
X124892354Y-100756319D02*
X121512354Y-100756319D01*
D56*
G04 #@! TO.N,Net-(J4-Pad2)*
X126138920Y-103895340D02*
X120601375Y-103895340D01*
D54*
X119932354Y-103226319D02*
X119952354Y-103246319D01*
D56*
X120162354Y-103456319D02*
X119952354Y-103246319D01*
X120601375Y-103895340D02*
X120162354Y-103456319D01*
X118592354Y-94786319D02*
X117607354Y-94786319D01*
X118992354Y-97736319D02*
X118992354Y-95186319D01*
X119882354Y-98626319D02*
X118992354Y-97736319D01*
X118992354Y-95186319D02*
X118592354Y-94786319D01*
X120162354Y-103456319D02*
X119882354Y-103176319D01*
X119882354Y-103176319D02*
X119882354Y-98626319D01*
D54*
G04 #@! TO.N,GPIO0_4*
X128950000Y-98500000D02*
X129616035Y-98500000D01*
X129616035Y-98500000D02*
X130002354Y-98886319D01*
G04 #@! TO.N,GPIO0_15*
X128864001Y-89703716D02*
X128124957Y-89703716D01*
X130250000Y-92450000D02*
X130250000Y-91089715D01*
X130250000Y-91089715D02*
X128864001Y-89703716D01*
G04 #@! TO.N,GPIO0_5*
X128050000Y-97950000D02*
X120351273Y-97950000D01*
X120351273Y-97950000D02*
X120334954Y-97966319D01*
G04 #@! TO.N,GPIO0_19*
X129124554Y-87316319D02*
X128441564Y-87316319D01*
X132450000Y-92450000D02*
X132450000Y-90641765D01*
X128441564Y-87316319D02*
X128082354Y-87316319D01*
X132450000Y-90641765D02*
X129124554Y-87316319D01*
X117882352Y-88696319D02*
X119262354Y-87316317D01*
X117163352Y-89415319D02*
X117882352Y-88696319D01*
X111851154Y-89415319D02*
X117163352Y-89415319D01*
X111132154Y-88696319D02*
X111851154Y-89415319D01*
X100497555Y-97068720D02*
X99982054Y-96553219D01*
X99992354Y-96542919D02*
X99992354Y-89379119D01*
X101366553Y-97068720D02*
X100497555Y-97068720D01*
X99992354Y-89379119D02*
X100675154Y-88696319D01*
X99982054Y-96553219D02*
X99992354Y-96542919D01*
X100675154Y-88696319D02*
X111132154Y-88696319D01*
G04 #@! TO.N,GPIO0_6*
X128950000Y-97400000D02*
X130998673Y-97400000D01*
X130998673Y-97400000D02*
X131002354Y-97396319D01*
G04 #@! TO.N,GPIO0_21*
X127632354Y-87896319D02*
X127622354Y-87906319D01*
X129044154Y-87896319D02*
X127632354Y-87896319D01*
X131900000Y-93350000D02*
X131900000Y-90752165D01*
X131900000Y-90752165D02*
X129044154Y-87896319D01*
X100246555Y-98338720D02*
X101366553Y-98338720D01*
X99361554Y-97453719D02*
X100246555Y-98338720D01*
X99361554Y-89267119D02*
X99361554Y-97453719D01*
X100398355Y-88230318D02*
X99361554Y-89267119D01*
X117742354Y-87916319D02*
X117428355Y-88230318D01*
X111936155Y-88907319D02*
X111259154Y-88230318D01*
X111259154Y-88230318D02*
X100398355Y-88230318D01*
X117428355Y-88230318D02*
X117422555Y-88230318D01*
X117422555Y-88230318D02*
X116745554Y-88907319D01*
X116745554Y-88907319D02*
X111936155Y-88907319D01*
G04 #@! TO.N,GPIO0_7*
X128050000Y-96850000D02*
X120351273Y-96850000D01*
X120351273Y-96850000D02*
X120334954Y-96866319D01*
G04 #@! TO.N,GPIO0_24*
X134772354Y-96316319D02*
X132382600Y-96316319D01*
X135200000Y-93350000D02*
X135200000Y-95888673D01*
X135200000Y-95888673D02*
X134772354Y-96316319D01*
G04 #@! TO.N,Net-(J2-Pad1)*
X106096554Y-80341119D02*
X106096554Y-80080719D01*
D56*
X106322454Y-82100119D02*
X106316754Y-82100119D01*
X106458654Y-81963919D02*
X106322454Y-82100119D01*
X106458654Y-81388919D02*
X106458654Y-81963919D01*
D54*
X106316754Y-82100119D02*
X106247354Y-82169519D01*
D56*
X106247354Y-83096919D02*
X106247354Y-82169519D01*
X106253054Y-82169519D02*
X106458654Y-81963919D01*
X106247354Y-82169519D02*
X106253054Y-82169519D01*
X106458654Y-80703219D02*
X106204554Y-80449119D01*
X106458654Y-81388919D02*
X106458654Y-80703219D01*
X106204554Y-80449119D02*
X106096554Y-80341119D01*
D54*
G04 #@! TO.N,Net-(C18-Pad1)*
X107399954Y-77901919D02*
X107779354Y-78281319D01*
X106509354Y-77901919D02*
X107399954Y-77901919D01*
D56*
X107450754Y-77901919D02*
X107779354Y-78230519D01*
X106509354Y-77901919D02*
X107450754Y-77901919D01*
D54*
X106096554Y-78880719D02*
X106096554Y-78493319D01*
D56*
X106096554Y-78220319D02*
X106096554Y-78493319D01*
X106509354Y-77901919D02*
X106414954Y-77901919D01*
X106414954Y-77901919D02*
X106096554Y-78220319D01*
D54*
G04 #@! TO.N,Net-(R21-Pad1)*
X105696554Y-79280719D02*
X105696554Y-78284519D01*
D56*
X105313954Y-77901919D02*
X105600554Y-78188519D01*
X105213954Y-77901919D02*
X105313954Y-77901919D01*
X105600554Y-78188519D02*
X105690144Y-78278109D01*
D54*
X105696554Y-78284519D02*
X105690144Y-78278109D01*
G04 #@! TO.N,Net-(IC1-Pad8)*
X110508800Y-77387365D02*
X110508800Y-76939400D01*
X110958800Y-78189400D02*
X110958800Y-77837365D01*
X110958800Y-77837365D02*
X110508800Y-77387365D01*
D56*
G04 #@! TO.N,Net-(D2-Pad1)*
X127388154Y-112183119D02*
X128743754Y-112183119D01*
X128743754Y-112183119D02*
X129318554Y-112757919D01*
X129318554Y-112757919D02*
X132772954Y-112757919D01*
X133262954Y-113247919D02*
X133262954Y-114425719D01*
X132772954Y-112757919D02*
X133262954Y-113247919D01*
X133288354Y-114451119D02*
X133262954Y-114425719D01*
X135465354Y-114451119D02*
X133288354Y-114451119D01*
D54*
G04 #@! TO.N,MOTOR_EN*
X126990554Y-110183119D02*
X126438154Y-110183119D01*
X130689420Y-109278119D02*
X127895554Y-109278119D01*
X127895554Y-109278119D02*
X126990554Y-110183119D01*
X131900000Y-100350000D02*
X131900000Y-108067539D01*
X131900000Y-108067539D02*
X130689420Y-109278119D01*
X126422154Y-110167119D02*
X126438154Y-110183119D01*
X125189354Y-110167119D02*
X126422154Y-110167119D01*
G04 #@! TD*
D56*
G04 #@! TO.N,+BATT*
G36*
X115940754Y-79312581D02*
X115940754Y-79511951D01*
X116059411Y-79798413D01*
X116278660Y-80017662D01*
X116565122Y-80136319D01*
X116764492Y-80136319D01*
X119332556Y-82704384D01*
X119364808Y-82752653D01*
X119377441Y-82771559D01*
X119553878Y-82889451D01*
X119762000Y-82930849D01*
X119814530Y-82920400D01*
X119849654Y-82920400D01*
X119869754Y-82940369D01*
X119869754Y-83573748D01*
X119229816Y-83575910D01*
X117535781Y-82229302D01*
X117491721Y-82206628D01*
X117456754Y-82201719D01*
X108084154Y-82201719D01*
X108084154Y-81617519D01*
X114053154Y-81617519D01*
X114101755Y-81607852D01*
X114142957Y-81580322D01*
X114170487Y-81539120D01*
X114180154Y-81490519D01*
X114180154Y-79153719D01*
X115781892Y-79153719D01*
X115940754Y-79312581D01*
X115940754Y-79312581D01*
G37*
X115940754Y-79312581D02*
X115940754Y-79511951D01*
X116059411Y-79798413D01*
X116278660Y-80017662D01*
X116565122Y-80136319D01*
X116764492Y-80136319D01*
X119332556Y-82704384D01*
X119364808Y-82752653D01*
X119377441Y-82771559D01*
X119553878Y-82889451D01*
X119762000Y-82930849D01*
X119814530Y-82920400D01*
X119849654Y-82920400D01*
X119869754Y-82940369D01*
X119869754Y-83573748D01*
X119229816Y-83575910D01*
X117535781Y-82229302D01*
X117491721Y-82206628D01*
X117456754Y-82201719D01*
X108084154Y-82201719D01*
X108084154Y-81617519D01*
X114053154Y-81617519D01*
X114101755Y-81607852D01*
X114142957Y-81580322D01*
X114170487Y-81539120D01*
X114180154Y-81490519D01*
X114180154Y-79153719D01*
X115781892Y-79153719D01*
X115940754Y-79312581D01*
G04 #@! TO.N,+5P*
G36*
X114799035Y-77793146D02*
X115399035Y-77793146D01*
X115454471Y-77782119D01*
X115679756Y-77782119D01*
X116031120Y-78422840D01*
X115750733Y-78721919D01*
X114154754Y-78721919D01*
X114154754Y-77782119D01*
X114743599Y-77782119D01*
X114799035Y-77793146D01*
X114799035Y-77793146D01*
G37*
X114799035Y-77793146D02*
X115399035Y-77793146D01*
X115454471Y-77782119D01*
X115679756Y-77782119D01*
X116031120Y-78422840D01*
X115750733Y-78721919D01*
X114154754Y-78721919D01*
X114154754Y-77782119D01*
X114743599Y-77782119D01*
X114799035Y-77793146D01*
G04 #@! TD*
M02*
