M48
;DRILL file {KiCad 5.0.2+dfsg1-1} date Thu 10 Dec 2020 12:07:45 AM PST
;FORMAT={-:-/ absolute / inch / decimal}
FMAT,2
INCH,TZ
T1C0.0100
T2C0.0236
T3C0.0256
T4C0.0335
%
G90
G05
T1
X3.9963Y-3.5143
X4.0243Y-3.5143
X4.0393Y-3.2623
X4.0393Y-3.3103
X4.0393Y-3.3583
X4.0393Y-4.3273
X4.0393Y-4.4243
X4.1041Y-3.0323
X4.1041Y-3.1563
X4.1043Y-3.1143
X4.1053Y-3.2333
X4.1355Y-4.3152
X4.1355Y-4.3549
X4.1822Y-4.5375
X4.2053Y-3.1433
X4.214Y-4.564
X4.2173Y-4.6616
X4.2492Y-4.5639
X4.2494Y-4.6617
X4.2683Y-3.0363
X4.2723Y-3.1643
X4.2803Y-4.6612
X4.2803Y-4.5043
X4.3123Y-4.5043
X4.3137Y-4.6651
X4.3233Y-3.1863
X4.34Y-3.3669
X4.3403Y-3.2593
X4.3488Y-4.6651
X4.3614Y-4.5079
X4.3753Y-3.1574
X4.3781Y-3.3669
X4.3796Y-3.2593
X4.3951Y-4.4409
X4.3959Y-4.3063
X4.3959Y-4.3453
X4.3959Y-4.3846
X4.4106Y-3.0927
X4.411Y-3.123
X4.4179Y-3.3661
X4.419Y-3.2593
X4.4262Y-4.4807
X4.4418Y-3.6258
X4.4448Y-3.0923
X4.4448Y-3.1226
X4.4568Y-4.2814
X4.4595Y-4.4121
X4.4673Y-3.6478
X4.4808Y-3.6715
X4.4998Y-4.4268
X4.5002Y-4.452
X4.5193Y-4.6019
X4.5311Y-3.0163
X4.5383Y-4.531
X4.5388Y-4.2843
X4.5462Y-4.6518
X4.5521Y-3.7199
X4.5586Y-4.474
X4.5662Y-4.2735
X4.5682Y-3.5747
X4.5682Y-3.6963
X4.5682Y-3.7436
X4.5682Y-3.7711
X4.5848Y-3.4501
X4.5885Y-4.5615
X4.5923Y-4.2827
X4.595Y-3.7081
X4.6061Y-3.3394
X4.6093Y-4.474
X4.6233Y-4.2038
X4.6355Y-3.4613
X4.6356Y-4.6165
X4.6492Y-3.9077
X4.6492Y-4.0845
X4.6635Y-3.6136
X4.667Y-3.6975
X4.6693Y-4.252
X4.6746Y-4.428
X4.6919Y-4.4039
X4.6922Y-3.6132
X4.6954Y-3.4377
X4.7076Y-3.7192
X4.7089Y-4.5276
X4.7376Y-3.8136
X4.7376Y-3.8569
X4.7426Y-4.3258
X4.7426Y-4.3652
X4.743Y-4.2865
X4.7434Y-4.0255
X4.7477Y-4.651
X4.7853Y-3.4813
X4.7853Y-3.5713
X4.8158Y-4.0463
X4.8198Y-3.9002
X4.823Y-4.6157
X4.8249Y-3.9459
X4.8261Y-4.0062
X4.8462Y-3.8778
X4.8663Y-4.3383
X4.8706Y-3.8337
X4.8829Y-3.2943
X4.917Y-3.9668
X4.9207Y-4.6457
X4.9326Y-4.4835
X4.9326Y-4.5682
X4.945Y-3.9861
X4.9623Y-3.715
X4.9773Y-4.2152
X4.9784Y-3.7908
X4.9859Y-3.5089
X4.9931Y-3.3071
X5.0039Y-3.4813
X5.0245Y-3.4609
X5.0411Y-3.613
X5.0415Y-4.0149
X5.0426Y-3.4377
X5.0443Y-3.5316
X5.0443Y-3.3701
X5.0627Y-3.5506
X5.0721Y-3.9538
X5.0847Y-3.5711
X5.0873Y-4.3383
X5.0919Y-4.1823
X5.1033Y-3.9209
X5.1073Y-3.594
X5.1182Y-3.8932
X5.1363Y-4.2163
X5.1388Y-3.7697
X5.1392Y-4.1831
X5.1414Y-3.8562
X5.1483Y-3.0333
X5.1483Y-3.1603
X5.1563Y-3.792
X5.1576Y-3.8345
X5.1714Y-3.8896
X5.1715Y-3.7374
X5.182Y-3.4676
X5.1922Y-3.5152
X5.1929Y-3.7628
X5.1993Y-3.0313
X5.1998Y-4.3492
X5.2077Y-3.2248
X5.2119Y-3.792
X5.2144Y-3.737
X5.2144Y-3.8894
X5.2473Y-4.6443
X5.2483Y-3.0313
X5.2506Y-4.3496
X5.2577Y-3.2252
X5.2581Y-3.737
X5.2581Y-3.8894
X5.2805Y-3.5307
X5.2828Y-4.2841
X5.3014Y-4.0134
X5.3033Y-3.7453
X5.3077Y-3.2252
X5.3443Y-4.0134
X5.3483Y-3.1553
X5.3521Y-4.2211
X5.3572Y-3.2251
X5.362Y-3.748
X5.3624Y-3.878
X5.3873Y-3.6102
X5.3873Y-4.013
X5.4183Y-4.3753
X5.4253Y-4.3273
X5.4253Y-4.4233
X5.4293Y-3.2623
X5.4293Y-3.3583
X5.4341Y-4.1268
X5.4433Y-3.4803
X5.4568Y-4.2211
X5.4683Y-3.5723
X5.4821Y-4.0787
X5.4821Y-4.1755
X5.5023Y-3.5063
X5.5083Y-3.4503
X5.5305Y-4.1272
T3
X3.9908Y-3.7216
X3.9908Y-3.7716
X3.9908Y-3.8216
X3.9908Y-3.8716
X3.9908Y-3.9216
X4.0408Y-3.7216
X4.0408Y-3.7716
X4.0408Y-3.8216
X4.0408Y-3.8716
X4.0408Y-3.9216
T4
X4.7077Y-3.155
X4.9045Y-3.155
T2
X4.6683Y-3.0625G85X4.6683Y-3.0349
G05
X4.9439Y-3.0349G85X4.9439Y-3.0625
G05
T0
M30
