G04 #@! TF.GenerationSoftware,KiCad,Pcbnew,5.0.2+dfsg1-1*
G04 #@! TF.CreationDate,2020-12-10T00:07:48-08:00*
G04 #@! TF.ProjectId,chronopy,6368726f-6e6f-4707-992e-6b696361645f,rev?*
G04 #@! TF.SameCoordinates,Original*
G04 #@! TF.FileFunction,Copper,L3,Inr*
G04 #@! TF.FilePolarity,Positive*
%FSLAX46Y46*%
G04 Gerber Fmt 4.6, Leading zero omitted, Abs format (unit mm)*
G04 Created by KiCad (PCBNEW 5.0.2+dfsg1-1) date Thu 10 Dec 2020 12:07:48 AM PST*
%MOMM*%
%LPD*%
G01*
G04 APERTURE LIST*
G04 #@! TA.AperFunction,ViaPad*
%ADD10R,1.000000X1.000000*%
G04 #@! TD*
G04 #@! TA.AperFunction,ViaPad*
%ADD11O,1.000000X1.000000*%
G04 #@! TD*
G04 #@! TA.AperFunction,ViaPad*
%ADD12C,1.450000*%
G04 #@! TD*
G04 #@! TA.AperFunction,ViaPad*
%ADD13O,1.200000X1.900000*%
G04 #@! TD*
G04 #@! TA.AperFunction,ViaPad*
%ADD14C,0.508000*%
G04 #@! TD*
G04 #@! TA.AperFunction,Conductor*
%ADD15C,0.152400*%
G04 #@! TD*
G04 APERTURE END LIST*
D10*
G04 #@! TO.N,+3V0*
G04 #@! TO.C,J6*
X102636553Y-94528720D03*
D11*
G04 #@! TO.N,GND*
X101366553Y-94528720D03*
G04 #@! TO.N,GPIO0_7*
X102636553Y-95798720D03*
G04 #@! TO.N,GPIO0_15*
X101366553Y-95798720D03*
G04 #@! TO.N,GPIO0_6*
X102636553Y-97068720D03*
G04 #@! TO.N,GPIO0_19*
X101366553Y-97068720D03*
G04 #@! TO.N,GPIO0_5*
X102636553Y-98338720D03*
G04 #@! TO.N,GPIO0_21*
X101366553Y-98338720D03*
G04 #@! TO.N,GPIO0_4*
X102636553Y-99608720D03*
G04 #@! TO.N,GPIO0_24*
X101366553Y-99608720D03*
G04 #@! TD*
D12*
G04 #@! TO.N,GND*
G04 #@! TO.C,J1*
X119575000Y-80137500D03*
X124575000Y-80137500D03*
D13*
X118575000Y-77437500D03*
X125575000Y-77437500D03*
G04 #@! TD*
D14*
G04 #@! TO.N,+BATT*
X126825000Y-84000000D03*
X124025000Y-83675000D03*
G04 #@! TO.N,CHGSTAT*
X111132154Y-80196754D03*
X126642354Y-89126319D03*
G04 #@! TO.N,GND*
X129334994Y-106230000D03*
X130535000Y-106250000D03*
X115089035Y-76613273D03*
X138025000Y-104820000D03*
X140475000Y-104830000D03*
X139245000Y-103600000D03*
X139245000Y-106057400D03*
X110459035Y-118493673D03*
X117075000Y-113640000D03*
X115787600Y-113640000D03*
X114305000Y-113080000D03*
X114295000Y-112440000D03*
X111655000Y-109380000D03*
X111655000Y-110370000D03*
X111655000Y-111370000D03*
X111635000Y-112800000D03*
X124985000Y-118000000D03*
X125288400Y-116031400D03*
X125288400Y-113881400D03*
X106229035Y-115253673D03*
X136836954Y-91700000D03*
X136195000Y-95200000D03*
X136205000Y-98500000D03*
X136836954Y-101930000D03*
X135745000Y-101940000D03*
X134655000Y-101940000D03*
X129625000Y-99590000D03*
X130525000Y-95750000D03*
X128045000Y-91769800D03*
X116995000Y-84820000D03*
X112898800Y-79313400D03*
X112038800Y-79323400D03*
X112898800Y-78543400D03*
X112028800Y-78553400D03*
X112215000Y-85500000D03*
X111205000Y-85520000D03*
X110235000Y-85520000D03*
X118600000Y-108000000D03*
X128124998Y-85599998D03*
X118452354Y-91786319D03*
X116032354Y-95786319D03*
X116032354Y-90796319D03*
X119182354Y-91776319D03*
X115622354Y-94486319D03*
X116032354Y-95086319D03*
X118089964Y-99256319D03*
X118089964Y-103746319D03*
X122552352Y-100226319D03*
X107935354Y-118406319D03*
X120592354Y-118136319D03*
X133282354Y-117966319D03*
X135942354Y-107216319D03*
X131622354Y-88076319D03*
X128055000Y-101978929D03*
X105042354Y-110615319D03*
X116455000Y-87633709D03*
X114789744Y-116887477D03*
X106814154Y-79839519D03*
X108515954Y-80372919D03*
X104274154Y-82125519D03*
X104243380Y-77020129D03*
X102597754Y-109913119D03*
X102597754Y-112376919D03*
X102597754Y-85300519D03*
X102597754Y-82862119D03*
X137802154Y-109913119D03*
X137802154Y-112351519D03*
X133306354Y-76994719D03*
X137903764Y-82862119D03*
X137903764Y-85300519D03*
X139757954Y-89059719D03*
X108414344Y-77121719D03*
G04 #@! TO.N,SW_B*
X112425000Y-113810000D03*
X122422354Y-99066319D03*
G04 #@! TO.N,SW_A*
X137624354Y-111132319D03*
G04 #@! TO.N,+3V0*
X108719035Y-118393674D03*
X107119035Y-118403673D03*
X122505000Y-117240000D03*
X120462354Y-110876319D03*
X120462354Y-109876319D03*
X120472354Y-108876319D03*
X117432354Y-106776319D03*
X115982354Y-108546319D03*
X113272354Y-112066319D03*
X122322354Y-102776319D03*
X128832354Y-100426319D03*
X116032354Y-93886319D03*
X116712354Y-94186319D03*
X110242354Y-82786319D03*
X111242354Y-82786319D03*
X112242354Y-82786319D03*
X136072354Y-81916319D03*
X105042354Y-109605319D03*
X126422354Y-107066319D03*
X134182354Y-108816319D03*
X107035354Y-115926319D03*
X115472354Y-118156319D03*
X138602354Y-107216319D03*
X126452354Y-96286319D03*
X113202354Y-108746319D03*
X110780625Y-114501390D03*
X121546154Y-90710719D03*
X109811354Y-80931719D03*
X129216954Y-110192519D03*
X123603554Y-110192519D03*
X130461554Y-107093719D03*
X139910354Y-87637319D03*
X130766354Y-77045523D03*
X138894354Y-90736119D03*
G04 #@! TO.N,LCD_DC*
X130970000Y-96316400D03*
X112822354Y-92096319D03*
G04 #@! TO.N,LCD_CLK*
X126042400Y-94360600D03*
X119572354Y-94466741D03*
G04 #@! TO.N,LCD_MOSI*
X113469951Y-92654556D03*
X128592354Y-90186317D03*
G04 #@! TO.N,LCD_RST*
X113812331Y-93256319D03*
X129152354Y-90706319D03*
G04 #@! TO.N,LCD_CS*
X129725400Y-91287200D03*
X118542354Y-93916319D03*
G04 #@! TO.N,QSPI_CLK*
X133545000Y-81920000D03*
X132445000Y-94920000D03*
G04 #@! TO.N,QSPI_DIO0*
X132275000Y-81910000D03*
X131355000Y-94930000D03*
G04 #@! TO.N,~RESET*
X134125000Y-89680000D03*
X132061753Y-76994718D03*
G04 #@! TO.N,QSPI_DIO3*
X134815000Y-81920000D03*
X133555000Y-94920000D03*
G04 #@! TO.N,SWDIO*
X130766354Y-80271319D03*
X135846354Y-80144323D03*
G04 #@! TO.N,ACC_INT*
X132445000Y-98790000D03*
X119175000Y-111860000D03*
G04 #@! TO.N,GES_INT*
X119605000Y-115000000D03*
G04 #@! TO.N,ACC_AG_NT*
X118735000Y-112470000D03*
X133555000Y-98790000D03*
G04 #@! TO.N,IIC_SCL*
X132075000Y-110470000D03*
X115285000Y-108820000D03*
X122582344Y-101756319D03*
X123092354Y-98496319D03*
X115272354Y-115086319D03*
X104243398Y-80169719D03*
X102216754Y-89262919D03*
X109531954Y-114408919D03*
G04 #@! TO.N,IIC_SDA*
X116546700Y-115861700D03*
X133365000Y-110480000D03*
X116645000Y-108780000D03*
X120482356Y-102248919D03*
X123712354Y-97376319D03*
X104248457Y-79102919D03*
X101505554Y-89262919D03*
X108719154Y-114408919D03*
G04 #@! TO.N,Net-(C13-Pad1)*
X117745000Y-117260000D03*
G04 #@! TO.N,Net-(R16-Pad1)*
X109569035Y-118493673D03*
G04 #@! TO.N,Net-(R15-Pad1)*
X107929035Y-115923673D03*
G04 #@! TO.N,SW_C*
X127100000Y-88425000D03*
X121546154Y-88425000D03*
X102597754Y-84081319D03*
G04 #@! TO.N,SW_D*
X134703354Y-95130319D03*
X138259354Y-88399319D03*
G04 #@! TO.N,BATVSENSE*
X131900000Y-95575000D03*
X131882354Y-89286319D03*
G04 #@! TO.N,TS_INT*
X131352354Y-98796319D03*
X125602354Y-101246319D03*
G04 #@! TO.N,TS_RST*
X130592354Y-97946319D03*
X124892354Y-100756319D03*
G04 #@! TO.N,GPIO0_4*
X130002354Y-98886319D03*
G04 #@! TO.N,GPIO0_15*
X128124957Y-89703716D03*
G04 #@! TO.N,GPIO0_5*
X120334954Y-97966319D03*
G04 #@! TO.N,GPIO0_19*
X128082354Y-87316319D03*
X119262354Y-87316317D03*
G04 #@! TO.N,GPIO0_6*
X131002354Y-97396319D03*
G04 #@! TO.N,GPIO0_21*
X127622354Y-87906319D03*
X117742354Y-87916319D03*
G04 #@! TO.N,GPIO0_7*
X120334954Y-96866319D03*
G04 #@! TO.N,GPIO0_24*
X132382600Y-96316319D03*
G04 #@! TD*
D15*
G04 #@! TO.N,+3V0*
G36*
X114679906Y-76339902D02*
X114606435Y-76517278D01*
X114606435Y-76709268D01*
X114679906Y-76886644D01*
X114815664Y-77022402D01*
X114993040Y-77095873D01*
X115185030Y-77095873D01*
X115362406Y-77022402D01*
X115498164Y-76886644D01*
X115571635Y-76709268D01*
X115571635Y-76517278D01*
X115498164Y-76339902D01*
X115468181Y-76309919D01*
X118247293Y-76309919D01*
X117977614Y-76490113D01*
X117794477Y-76764196D01*
X117746400Y-77005891D01*
X117746400Y-77869108D01*
X117794476Y-78110803D01*
X117977613Y-78384887D01*
X118251696Y-78568024D01*
X118575000Y-78632333D01*
X118898303Y-78568024D01*
X119172387Y-78384887D01*
X119355524Y-78110804D01*
X119403600Y-77869109D01*
X119403600Y-77005891D01*
X119355524Y-76764196D01*
X119172387Y-76490113D01*
X118902708Y-76309919D01*
X125247292Y-76309919D01*
X124977613Y-76490113D01*
X124794476Y-76764197D01*
X124746400Y-77005892D01*
X124746400Y-77869109D01*
X124794477Y-78110804D01*
X124977614Y-78384887D01*
X125251697Y-78568024D01*
X125575000Y-78632333D01*
X125733527Y-78600800D01*
X128759754Y-78600800D01*
X128759754Y-78893838D01*
X128871895Y-79164569D01*
X129079104Y-79371778D01*
X129349835Y-79483919D01*
X129642873Y-79483919D01*
X129913604Y-79371778D01*
X130120813Y-79164569D01*
X130232954Y-78893838D01*
X130232954Y-78600800D01*
X130120813Y-78330069D01*
X129913604Y-78122860D01*
X129642873Y-78010719D01*
X129349835Y-78010719D01*
X129079104Y-78122860D01*
X128871895Y-78330069D01*
X128759754Y-78600800D01*
X125733527Y-78600800D01*
X125898304Y-78568024D01*
X126172387Y-78384887D01*
X126355524Y-78110804D01*
X126403600Y-77869109D01*
X126403600Y-77584800D01*
X133839754Y-77584800D01*
X133839754Y-77877838D01*
X133951895Y-78148569D01*
X134159104Y-78355778D01*
X134429835Y-78467919D01*
X134722873Y-78467919D01*
X134993604Y-78355778D01*
X135017230Y-78332152D01*
X136803120Y-78332152D01*
X136803120Y-79178008D01*
X137126814Y-79959476D01*
X137724924Y-80557586D01*
X138506392Y-80881280D01*
X139352248Y-80881280D01*
X140133716Y-80557586D01*
X140731826Y-79959476D01*
X141055520Y-79178008D01*
X141055520Y-78332152D01*
X140731826Y-77550684D01*
X140133716Y-76952574D01*
X139352248Y-76628880D01*
X138506392Y-76628880D01*
X137724924Y-76952574D01*
X137126814Y-77550684D01*
X136803120Y-78332152D01*
X135017230Y-78332152D01*
X135200813Y-78148569D01*
X135312954Y-77877838D01*
X135312954Y-77584800D01*
X135200813Y-77314069D01*
X134993604Y-77106860D01*
X134722873Y-76994719D01*
X134429835Y-76994719D01*
X134159104Y-77106860D01*
X133951895Y-77314069D01*
X133839754Y-77584800D01*
X126403600Y-77584800D01*
X126403600Y-77005891D01*
X126382284Y-76898723D01*
X131579153Y-76898723D01*
X131579153Y-77090713D01*
X131652624Y-77268089D01*
X131788382Y-77403847D01*
X131965758Y-77477318D01*
X132157748Y-77477318D01*
X132335124Y-77403847D01*
X132470882Y-77268089D01*
X132544353Y-77090713D01*
X132544353Y-76898724D01*
X132823754Y-76898724D01*
X132823754Y-77090714D01*
X132897225Y-77268090D01*
X133032983Y-77403848D01*
X133210359Y-77477319D01*
X133402349Y-77477319D01*
X133579725Y-77403848D01*
X133715483Y-77268090D01*
X133788954Y-77090714D01*
X133788954Y-76898724D01*
X133715483Y-76721348D01*
X133579725Y-76585590D01*
X133402349Y-76512119D01*
X133210359Y-76512119D01*
X133032983Y-76585590D01*
X132897225Y-76721348D01*
X132823754Y-76898724D01*
X132544353Y-76898724D01*
X132544353Y-76898723D01*
X132470882Y-76721347D01*
X132335124Y-76585589D01*
X132157748Y-76512118D01*
X131965758Y-76512118D01*
X131788382Y-76585589D01*
X131652624Y-76721347D01*
X131579153Y-76898723D01*
X126382284Y-76898723D01*
X126355524Y-76764196D01*
X126172387Y-76490113D01*
X125902708Y-76309919D01*
X138744719Y-76309919D01*
X139382186Y-76384240D01*
X139968770Y-76597160D01*
X140490642Y-76939315D01*
X140919799Y-77392343D01*
X141233230Y-77931954D01*
X141415320Y-78533168D01*
X141458755Y-79019851D01*
X141458755Y-91663800D01*
X137319554Y-91663800D01*
X137319554Y-91604005D01*
X137246083Y-91426629D01*
X137110325Y-91290871D01*
X136932949Y-91217400D01*
X136740959Y-91217400D01*
X136563583Y-91290871D01*
X136427825Y-91426629D01*
X136354354Y-91604005D01*
X136354354Y-91795995D01*
X136427825Y-91973371D01*
X136563583Y-92109129D01*
X136740959Y-92182600D01*
X136932949Y-92182600D01*
X137018800Y-92147040D01*
X137018800Y-101482960D01*
X136932949Y-101447400D01*
X136740959Y-101447400D01*
X136563583Y-101520871D01*
X136427825Y-101656629D01*
X136354354Y-101834005D01*
X136354354Y-102025995D01*
X136427825Y-102203371D01*
X136563583Y-102339129D01*
X136740959Y-102412600D01*
X136932949Y-102412600D01*
X137110325Y-102339129D01*
X137246083Y-102203371D01*
X137311185Y-102046200D01*
X141458754Y-102046200D01*
X141458754Y-115988684D01*
X141384433Y-116626151D01*
X141171513Y-117212736D01*
X140829361Y-117734604D01*
X140376330Y-118163764D01*
X139836719Y-118477195D01*
X139235505Y-118659285D01*
X138748834Y-118702719D01*
X110894808Y-118702719D01*
X110941635Y-118589668D01*
X110941635Y-118397678D01*
X110868164Y-118220302D01*
X110732406Y-118084544D01*
X110625649Y-118040324D01*
X120109754Y-118040324D01*
X120109754Y-118232314D01*
X120183225Y-118409690D01*
X120318983Y-118545448D01*
X120496359Y-118618919D01*
X120688349Y-118618919D01*
X120865725Y-118545448D01*
X121001483Y-118409690D01*
X121074954Y-118232314D01*
X121074954Y-118040324D01*
X121018490Y-117904005D01*
X124502400Y-117904005D01*
X124502400Y-118095995D01*
X124575871Y-118273371D01*
X124711629Y-118409129D01*
X124889005Y-118482600D01*
X125080995Y-118482600D01*
X125258371Y-118409129D01*
X125394129Y-118273371D01*
X125467600Y-118095995D01*
X125467600Y-117904005D01*
X125453649Y-117870324D01*
X132799754Y-117870324D01*
X132799754Y-118062314D01*
X132873225Y-118239690D01*
X133008983Y-118375448D01*
X133186359Y-118448919D01*
X133378349Y-118448919D01*
X133555725Y-118375448D01*
X133691483Y-118239690D01*
X133764954Y-118062314D01*
X133764954Y-117870324D01*
X133691483Y-117692948D01*
X133555725Y-117557190D01*
X133378349Y-117483719D01*
X133186359Y-117483719D01*
X133008983Y-117557190D01*
X132873225Y-117692948D01*
X132799754Y-117870324D01*
X125453649Y-117870324D01*
X125394129Y-117726629D01*
X125258371Y-117590871D01*
X125080995Y-117517400D01*
X124889005Y-117517400D01*
X124711629Y-117590871D01*
X124575871Y-117726629D01*
X124502400Y-117904005D01*
X121018490Y-117904005D01*
X121001483Y-117862948D01*
X120865725Y-117727190D01*
X120688349Y-117653719D01*
X120496359Y-117653719D01*
X120318983Y-117727190D01*
X120183225Y-117862948D01*
X120109754Y-118040324D01*
X110625649Y-118040324D01*
X110555030Y-118011073D01*
X110363040Y-118011073D01*
X110185664Y-118084544D01*
X110049906Y-118220302D01*
X110014035Y-118306903D01*
X109978164Y-118220302D01*
X109842406Y-118084544D01*
X109665030Y-118011073D01*
X109473040Y-118011073D01*
X109295664Y-118084544D01*
X109159906Y-118220302D01*
X109086435Y-118397678D01*
X109086435Y-118589668D01*
X109133262Y-118702719D01*
X108321454Y-118702719D01*
X108344483Y-118679690D01*
X108417954Y-118502314D01*
X108417954Y-118310324D01*
X108344483Y-118132948D01*
X108208725Y-117997190D01*
X108031349Y-117923719D01*
X107839359Y-117923719D01*
X107661983Y-117997190D01*
X107526225Y-118132948D01*
X107452754Y-118310324D01*
X107452754Y-118502314D01*
X107526225Y-118679690D01*
X107549254Y-118702719D01*
X101779989Y-118702719D01*
X101142522Y-118628398D01*
X100555937Y-118415478D01*
X100034069Y-118073326D01*
X99604909Y-117620295D01*
X99291478Y-117080684D01*
X99109388Y-116479470D01*
X99065954Y-115992799D01*
X99065954Y-115830172D01*
X99317800Y-115830172D01*
X99317800Y-116676028D01*
X99641494Y-117457496D01*
X100239604Y-118055606D01*
X101021072Y-118379300D01*
X101866928Y-118379300D01*
X102648396Y-118055606D01*
X103246506Y-117457496D01*
X103522377Y-116791482D01*
X114307144Y-116791482D01*
X114307144Y-116983472D01*
X114380615Y-117160848D01*
X114516373Y-117296606D01*
X114693749Y-117370077D01*
X114885739Y-117370077D01*
X115063115Y-117296606D01*
X115195716Y-117164005D01*
X117262400Y-117164005D01*
X117262400Y-117355995D01*
X117335871Y-117533371D01*
X117471629Y-117669129D01*
X117649005Y-117742600D01*
X117840995Y-117742600D01*
X118018371Y-117669129D01*
X118154129Y-117533371D01*
X118227600Y-117355995D01*
X118227600Y-117164005D01*
X118154129Y-116986629D01*
X118018371Y-116850871D01*
X117840995Y-116777400D01*
X117649005Y-116777400D01*
X117471629Y-116850871D01*
X117335871Y-116986629D01*
X117262400Y-117164005D01*
X115195716Y-117164005D01*
X115198873Y-117160848D01*
X115272344Y-116983472D01*
X115272344Y-116791482D01*
X115198873Y-116614106D01*
X115063115Y-116478348D01*
X114885739Y-116404877D01*
X114693749Y-116404877D01*
X114516373Y-116478348D01*
X114380615Y-116614106D01*
X114307144Y-116791482D01*
X103522377Y-116791482D01*
X103570200Y-116676028D01*
X103570200Y-115830172D01*
X103569167Y-115827678D01*
X107446435Y-115827678D01*
X107446435Y-116019668D01*
X107519906Y-116197044D01*
X107655664Y-116332802D01*
X107833040Y-116406273D01*
X108025030Y-116406273D01*
X108202406Y-116332802D01*
X108338164Y-116197044D01*
X108411635Y-116019668D01*
X108411635Y-115827678D01*
X108385966Y-115765705D01*
X116064100Y-115765705D01*
X116064100Y-115957695D01*
X116137571Y-116135071D01*
X116273329Y-116270829D01*
X116450705Y-116344300D01*
X116642695Y-116344300D01*
X116820071Y-116270829D01*
X116955829Y-116135071D01*
X117029300Y-115957695D01*
X117029300Y-115935405D01*
X124805800Y-115935405D01*
X124805800Y-116127395D01*
X124879271Y-116304771D01*
X125015029Y-116440529D01*
X125192405Y-116514000D01*
X125384395Y-116514000D01*
X125561771Y-116440529D01*
X125697529Y-116304771D01*
X125771000Y-116127395D01*
X125771000Y-115935405D01*
X125728464Y-115832712D01*
X136815820Y-115832712D01*
X136815820Y-116678568D01*
X137139514Y-117460036D01*
X137737624Y-118058146D01*
X138519092Y-118381840D01*
X139364948Y-118381840D01*
X140146416Y-118058146D01*
X140744526Y-117460036D01*
X141068220Y-116678568D01*
X141068220Y-115832712D01*
X140744526Y-115051244D01*
X140146416Y-114453134D01*
X139364948Y-114129440D01*
X138519092Y-114129440D01*
X137737624Y-114453134D01*
X137139514Y-115051244D01*
X136815820Y-115832712D01*
X125728464Y-115832712D01*
X125697529Y-115758029D01*
X125561771Y-115622271D01*
X125384395Y-115548800D01*
X125192405Y-115548800D01*
X125015029Y-115622271D01*
X124879271Y-115758029D01*
X124805800Y-115935405D01*
X117029300Y-115935405D01*
X117029300Y-115765705D01*
X116955829Y-115588329D01*
X116820071Y-115452571D01*
X116642695Y-115379100D01*
X116450705Y-115379100D01*
X116273329Y-115452571D01*
X116137571Y-115588329D01*
X116064100Y-115765705D01*
X108385966Y-115765705D01*
X108338164Y-115650302D01*
X108202406Y-115514544D01*
X108025030Y-115441073D01*
X107833040Y-115441073D01*
X107655664Y-115514544D01*
X107519906Y-115650302D01*
X107446435Y-115827678D01*
X103569167Y-115827678D01*
X103291645Y-115157678D01*
X105746435Y-115157678D01*
X105746435Y-115349668D01*
X105819906Y-115527044D01*
X105955664Y-115662802D01*
X106133040Y-115736273D01*
X106325030Y-115736273D01*
X106502406Y-115662802D01*
X106638164Y-115527044D01*
X106711635Y-115349668D01*
X106711635Y-115157678D01*
X106642316Y-114990324D01*
X114789754Y-114990324D01*
X114789754Y-115182314D01*
X114863225Y-115359690D01*
X114998983Y-115495448D01*
X115176359Y-115568919D01*
X115368349Y-115568919D01*
X115545725Y-115495448D01*
X115681483Y-115359690D01*
X115754954Y-115182314D01*
X115754954Y-114990324D01*
X115719200Y-114904005D01*
X119122400Y-114904005D01*
X119122400Y-115095995D01*
X119195871Y-115273371D01*
X119331629Y-115409129D01*
X119509005Y-115482600D01*
X119700995Y-115482600D01*
X119878371Y-115409129D01*
X120014129Y-115273371D01*
X120087600Y-115095995D01*
X120087600Y-114904005D01*
X120014129Y-114726629D01*
X119878371Y-114590871D01*
X119700995Y-114517400D01*
X119509005Y-114517400D01*
X119331629Y-114590871D01*
X119195871Y-114726629D01*
X119122400Y-114904005D01*
X115719200Y-114904005D01*
X115681483Y-114812948D01*
X115545725Y-114677190D01*
X115368349Y-114603719D01*
X115176359Y-114603719D01*
X114998983Y-114677190D01*
X114863225Y-114812948D01*
X114789754Y-114990324D01*
X106642316Y-114990324D01*
X106638164Y-114980302D01*
X106502406Y-114844544D01*
X106325030Y-114771073D01*
X106133040Y-114771073D01*
X105955664Y-114844544D01*
X105819906Y-114980302D01*
X105746435Y-115157678D01*
X103291645Y-115157678D01*
X103246506Y-115048704D01*
X102648396Y-114450594D01*
X102316031Y-114312924D01*
X108236554Y-114312924D01*
X108236554Y-114504914D01*
X108310025Y-114682290D01*
X108445783Y-114818048D01*
X108623159Y-114891519D01*
X108815149Y-114891519D01*
X108992525Y-114818048D01*
X109125554Y-114685019D01*
X109258583Y-114818048D01*
X109435959Y-114891519D01*
X109627949Y-114891519D01*
X109805325Y-114818048D01*
X109941083Y-114682290D01*
X110014554Y-114504914D01*
X110014554Y-114312924D01*
X109941083Y-114135548D01*
X109805325Y-113999790D01*
X109627949Y-113926319D01*
X109435959Y-113926319D01*
X109258583Y-113999790D01*
X109125554Y-114132819D01*
X108992525Y-113999790D01*
X108815149Y-113926319D01*
X108623159Y-113926319D01*
X108445783Y-113999790D01*
X108310025Y-114135548D01*
X108236554Y-114312924D01*
X102316031Y-114312924D01*
X101866928Y-114126900D01*
X101021072Y-114126900D01*
X100239604Y-114450594D01*
X99641494Y-115048704D01*
X99317800Y-115830172D01*
X99065954Y-115830172D01*
X99065954Y-113142228D01*
X99834754Y-113142228D01*
X99834754Y-113372410D01*
X99922841Y-113585069D01*
X100085604Y-113747832D01*
X100298263Y-113835919D01*
X100528445Y-113835919D01*
X100741104Y-113747832D01*
X100774931Y-113714005D01*
X111942400Y-113714005D01*
X111942400Y-113905995D01*
X112015871Y-114083371D01*
X112151629Y-114219129D01*
X112329005Y-114292600D01*
X112520995Y-114292600D01*
X112698371Y-114219129D01*
X112834129Y-114083371D01*
X112907600Y-113905995D01*
X112907600Y-113714005D01*
X112834129Y-113536629D01*
X112698371Y-113400871D01*
X112520995Y-113327400D01*
X112329005Y-113327400D01*
X112151629Y-113400871D01*
X112015871Y-113536629D01*
X111942400Y-113714005D01*
X100774931Y-113714005D01*
X100903867Y-113585069D01*
X100991954Y-113372410D01*
X100991954Y-113142228D01*
X100903867Y-112929569D01*
X100741104Y-112766806D01*
X100528445Y-112678719D01*
X100298263Y-112678719D01*
X100085604Y-112766806D01*
X99922841Y-112929569D01*
X99834754Y-113142228D01*
X99065954Y-113142228D01*
X99065954Y-112280924D01*
X102115154Y-112280924D01*
X102115154Y-112472914D01*
X102188625Y-112650290D01*
X102324383Y-112786048D01*
X102501759Y-112859519D01*
X102693749Y-112859519D01*
X102871125Y-112786048D01*
X102953168Y-112704005D01*
X111152400Y-112704005D01*
X111152400Y-112895995D01*
X111225871Y-113073371D01*
X111361629Y-113209129D01*
X111539005Y-113282600D01*
X111730995Y-113282600D01*
X111908371Y-113209129D01*
X112044129Y-113073371D01*
X112117600Y-112895995D01*
X112117600Y-112704005D01*
X112044129Y-112526629D01*
X111908371Y-112390871D01*
X111795226Y-112344005D01*
X113812400Y-112344005D01*
X113812400Y-112535995D01*
X113885871Y-112713371D01*
X113937500Y-112765000D01*
X113895871Y-112806629D01*
X113822400Y-112984005D01*
X113822400Y-113175995D01*
X113895871Y-113353371D01*
X114031629Y-113489129D01*
X114209005Y-113562600D01*
X114400995Y-113562600D01*
X114445887Y-113544005D01*
X115305000Y-113544005D01*
X115305000Y-113735995D01*
X115378471Y-113913371D01*
X115514229Y-114049129D01*
X115691605Y-114122600D01*
X115883595Y-114122600D01*
X116060971Y-114049129D01*
X116196729Y-113913371D01*
X116270200Y-113735995D01*
X116270200Y-113544005D01*
X116592400Y-113544005D01*
X116592400Y-113735995D01*
X116665871Y-113913371D01*
X116801629Y-114049129D01*
X116979005Y-114122600D01*
X117170995Y-114122600D01*
X117348371Y-114049129D01*
X117484129Y-113913371D01*
X117537133Y-113785405D01*
X124805800Y-113785405D01*
X124805800Y-113977395D01*
X124879271Y-114154771D01*
X125015029Y-114290529D01*
X125192405Y-114364000D01*
X125384395Y-114364000D01*
X125561771Y-114290529D01*
X125697529Y-114154771D01*
X125771000Y-113977395D01*
X125771000Y-113785405D01*
X125697529Y-113608029D01*
X125561771Y-113472271D01*
X125384395Y-113398800D01*
X125192405Y-113398800D01*
X125015029Y-113472271D01*
X124879271Y-113608029D01*
X124805800Y-113785405D01*
X117537133Y-113785405D01*
X117557600Y-113735995D01*
X117557600Y-113544005D01*
X117484129Y-113366629D01*
X117348371Y-113230871D01*
X117170995Y-113157400D01*
X116979005Y-113157400D01*
X116801629Y-113230871D01*
X116665871Y-113366629D01*
X116592400Y-113544005D01*
X116270200Y-113544005D01*
X116196729Y-113366629D01*
X116060971Y-113230871D01*
X115883595Y-113157400D01*
X115691605Y-113157400D01*
X115514229Y-113230871D01*
X115378471Y-113366629D01*
X115305000Y-113544005D01*
X114445887Y-113544005D01*
X114578371Y-113489129D01*
X114714129Y-113353371D01*
X114787600Y-113175995D01*
X114787600Y-113142228D01*
X139458754Y-113142228D01*
X139458754Y-113372410D01*
X139546841Y-113585069D01*
X139709604Y-113747832D01*
X139922263Y-113835919D01*
X140152445Y-113835919D01*
X140365104Y-113747832D01*
X140527867Y-113585069D01*
X140615954Y-113372410D01*
X140615954Y-113142228D01*
X140527867Y-112929569D01*
X140365104Y-112766806D01*
X140152445Y-112678719D01*
X139922263Y-112678719D01*
X139709604Y-112766806D01*
X139546841Y-112929569D01*
X139458754Y-113142228D01*
X114787600Y-113142228D01*
X114787600Y-112984005D01*
X114714129Y-112806629D01*
X114662500Y-112755000D01*
X114704129Y-112713371D01*
X114777600Y-112535995D01*
X114777600Y-112374005D01*
X118252400Y-112374005D01*
X118252400Y-112565995D01*
X118325871Y-112743371D01*
X118461629Y-112879129D01*
X118639005Y-112952600D01*
X118830995Y-112952600D01*
X119008371Y-112879129D01*
X119144129Y-112743371D01*
X119217600Y-112565995D01*
X119217600Y-112374005D01*
X119204592Y-112342600D01*
X119270995Y-112342600D01*
X119448371Y-112269129D01*
X119461976Y-112255524D01*
X137319554Y-112255524D01*
X137319554Y-112447514D01*
X137393025Y-112624890D01*
X137528783Y-112760648D01*
X137706159Y-112834119D01*
X137898149Y-112834119D01*
X138075525Y-112760648D01*
X138211283Y-112624890D01*
X138284754Y-112447514D01*
X138284754Y-112255524D01*
X138211283Y-112078148D01*
X138075525Y-111942390D01*
X137898149Y-111868919D01*
X137706159Y-111868919D01*
X137528783Y-111942390D01*
X137393025Y-112078148D01*
X137319554Y-112255524D01*
X119461976Y-112255524D01*
X119584129Y-112133371D01*
X119657600Y-111955995D01*
X119657600Y-111764005D01*
X119584129Y-111586629D01*
X119448371Y-111450871D01*
X119270995Y-111377400D01*
X119079005Y-111377400D01*
X118901629Y-111450871D01*
X118765871Y-111586629D01*
X118692400Y-111764005D01*
X118692400Y-111955995D01*
X118705408Y-111987400D01*
X118639005Y-111987400D01*
X118461629Y-112060871D01*
X118325871Y-112196629D01*
X118252400Y-112374005D01*
X114777600Y-112374005D01*
X114777600Y-112344005D01*
X114704129Y-112166629D01*
X114568371Y-112030871D01*
X114390995Y-111957400D01*
X114199005Y-111957400D01*
X114021629Y-112030871D01*
X113885871Y-112166629D01*
X113812400Y-112344005D01*
X111795226Y-112344005D01*
X111730995Y-112317400D01*
X111539005Y-112317400D01*
X111361629Y-112390871D01*
X111225871Y-112526629D01*
X111152400Y-112704005D01*
X102953168Y-112704005D01*
X103006883Y-112650290D01*
X103080354Y-112472914D01*
X103080354Y-112280924D01*
X103006883Y-112103548D01*
X102871125Y-111967790D01*
X102693749Y-111894319D01*
X102501759Y-111894319D01*
X102324383Y-111967790D01*
X102188625Y-112103548D01*
X102115154Y-112280924D01*
X99065954Y-112280924D01*
X99065954Y-110519324D01*
X104559754Y-110519324D01*
X104559754Y-110711314D01*
X104633225Y-110888690D01*
X104768983Y-111024448D01*
X104946359Y-111097919D01*
X105138349Y-111097919D01*
X105315725Y-111024448D01*
X105451483Y-110888690D01*
X105524954Y-110711314D01*
X105524954Y-110519324D01*
X105451483Y-110341948D01*
X105315725Y-110206190D01*
X105138349Y-110132719D01*
X104946359Y-110132719D01*
X104768983Y-110206190D01*
X104633225Y-110341948D01*
X104559754Y-110519324D01*
X99065954Y-110519324D01*
X99065954Y-109817124D01*
X102115154Y-109817124D01*
X102115154Y-110009114D01*
X102188625Y-110186490D01*
X102324383Y-110322248D01*
X102501759Y-110395719D01*
X102693749Y-110395719D01*
X102871125Y-110322248D01*
X103006883Y-110186490D01*
X103080354Y-110009114D01*
X103080354Y-109817124D01*
X103006883Y-109639748D01*
X102871125Y-109503990D01*
X102693749Y-109430519D01*
X102501759Y-109430519D01*
X102324383Y-109503990D01*
X102188625Y-109639748D01*
X102115154Y-109817124D01*
X99065954Y-109817124D01*
X99065954Y-108892228D01*
X99834754Y-108892228D01*
X99834754Y-109122410D01*
X99922841Y-109335069D01*
X100085604Y-109497832D01*
X100298263Y-109585919D01*
X100528445Y-109585919D01*
X100741104Y-109497832D01*
X100903867Y-109335069D01*
X100991954Y-109122410D01*
X100991954Y-108892228D01*
X100903867Y-108679569D01*
X100741104Y-108516806D01*
X100528445Y-108428719D01*
X100298263Y-108428719D01*
X100085604Y-108516806D01*
X99922841Y-108679569D01*
X99834754Y-108892228D01*
X99065954Y-108892228D01*
X99065954Y-94528720D01*
X100623679Y-94528720D01*
X100680227Y-94813006D01*
X100841262Y-95054011D01*
X101005453Y-95163720D01*
X100841262Y-95273429D01*
X100680227Y-95514434D01*
X100623679Y-95798720D01*
X100680227Y-96083006D01*
X100841262Y-96324011D01*
X101005453Y-96433720D01*
X100841262Y-96543429D01*
X100680227Y-96784434D01*
X100623679Y-97068720D01*
X100680227Y-97353006D01*
X100841262Y-97594011D01*
X101005453Y-97703720D01*
X100841262Y-97813429D01*
X100680227Y-98054434D01*
X100623679Y-98338720D01*
X100680227Y-98623006D01*
X100841262Y-98864011D01*
X101005453Y-98973720D01*
X100841262Y-99083429D01*
X100680227Y-99324434D01*
X100623679Y-99608720D01*
X100680227Y-99893006D01*
X100841262Y-100134011D01*
X101082267Y-100295046D01*
X101294793Y-100337320D01*
X101438313Y-100337320D01*
X101650839Y-100295046D01*
X101891844Y-100134011D01*
X102001553Y-99969820D01*
X102111262Y-100134011D01*
X102352267Y-100295046D01*
X102564793Y-100337320D01*
X102708313Y-100337320D01*
X102920839Y-100295046D01*
X103161844Y-100134011D01*
X103322879Y-99893006D01*
X103379427Y-99608720D01*
X103322879Y-99324434D01*
X103161844Y-99083429D01*
X102997653Y-98973720D01*
X103161844Y-98864011D01*
X103322879Y-98623006D01*
X103379427Y-98338720D01*
X103322879Y-98054434D01*
X103161844Y-97813429D01*
X102997653Y-97703720D01*
X103161844Y-97594011D01*
X103322879Y-97353006D01*
X103379427Y-97068720D01*
X103322879Y-96784434D01*
X103161844Y-96543429D01*
X102997653Y-96433720D01*
X103161844Y-96324011D01*
X103322879Y-96083006D01*
X103379427Y-95798720D01*
X103322879Y-95514434D01*
X103161844Y-95273429D01*
X103137735Y-95257320D01*
X103182024Y-95257320D01*
X103266044Y-95222518D01*
X103330350Y-95158212D01*
X103365153Y-95074192D01*
X103365153Y-94636670D01*
X103308003Y-94579520D01*
X102687353Y-94579520D01*
X102687353Y-94599520D01*
X102585753Y-94599520D01*
X102585753Y-94579520D01*
X102565753Y-94579520D01*
X102565753Y-94477920D01*
X102585753Y-94477920D01*
X102585753Y-93857270D01*
X102687353Y-93857270D01*
X102687353Y-94477920D01*
X103308003Y-94477920D01*
X103365153Y-94420770D01*
X103365153Y-93983248D01*
X103330350Y-93899228D01*
X103266044Y-93834922D01*
X103182024Y-93800120D01*
X102744503Y-93800120D01*
X102687353Y-93857270D01*
X102585753Y-93857270D01*
X102528603Y-93800120D01*
X102091082Y-93800120D01*
X102007062Y-93834922D01*
X101942756Y-93899228D01*
X101907953Y-93983248D01*
X101907953Y-94027538D01*
X101891844Y-94003429D01*
X101650839Y-93842394D01*
X101438313Y-93800120D01*
X101294793Y-93800120D01*
X101082267Y-93842394D01*
X100841262Y-94003429D01*
X100680227Y-94244434D01*
X100623679Y-94528720D01*
X99065954Y-94528720D01*
X99065954Y-89976422D01*
X106458754Y-89976422D01*
X106458755Y-111036217D01*
X106464588Y-111065541D01*
X106464588Y-111065548D01*
X106540707Y-111448226D01*
X106540707Y-111448231D01*
X106586040Y-111557673D01*
X106802813Y-111882097D01*
X106886576Y-111965860D01*
X107211000Y-112182633D01*
X107320442Y-112227966D01*
X107320447Y-112227966D01*
X107703125Y-112304085D01*
X107703127Y-112304085D01*
X107732456Y-112309919D01*
X109792252Y-112309919D01*
X109821581Y-112304085D01*
X109821583Y-112304085D01*
X110204261Y-112227966D01*
X110204266Y-112227966D01*
X110313708Y-112182633D01*
X110638132Y-111965860D01*
X110721895Y-111882097D01*
X110938668Y-111557673D01*
X110984001Y-111448231D01*
X110984001Y-111448226D01*
X111018655Y-111274005D01*
X111172400Y-111274005D01*
X111172400Y-111465995D01*
X111245871Y-111643371D01*
X111381629Y-111779129D01*
X111559005Y-111852600D01*
X111750995Y-111852600D01*
X111928371Y-111779129D01*
X112064129Y-111643371D01*
X112137600Y-111465995D01*
X112137600Y-111274005D01*
X112064129Y-111096629D01*
X112003824Y-111036324D01*
X137141754Y-111036324D01*
X137141754Y-111228314D01*
X137215225Y-111405690D01*
X137350983Y-111541448D01*
X137528359Y-111614919D01*
X137720349Y-111614919D01*
X137897725Y-111541448D01*
X138033483Y-111405690D01*
X138106954Y-111228314D01*
X138106954Y-111036324D01*
X138033483Y-110858948D01*
X137897725Y-110723190D01*
X137720349Y-110649719D01*
X137528359Y-110649719D01*
X137350983Y-110723190D01*
X137215225Y-110858948D01*
X137141754Y-111036324D01*
X112003824Y-111036324D01*
X111928371Y-110960871D01*
X111750995Y-110887400D01*
X111559005Y-110887400D01*
X111381629Y-110960871D01*
X111245871Y-111096629D01*
X111172400Y-111274005D01*
X111018655Y-111274005D01*
X111060120Y-111065548D01*
X111060120Y-111065546D01*
X111065954Y-111036217D01*
X111065954Y-110274005D01*
X111172400Y-110274005D01*
X111172400Y-110465995D01*
X111245871Y-110643371D01*
X111381629Y-110779129D01*
X111559005Y-110852600D01*
X111750995Y-110852600D01*
X111928371Y-110779129D01*
X112064129Y-110643371D01*
X112137600Y-110465995D01*
X112137600Y-110374005D01*
X131592400Y-110374005D01*
X131592400Y-110565995D01*
X131665871Y-110743371D01*
X131801629Y-110879129D01*
X131979005Y-110952600D01*
X132170995Y-110952600D01*
X132348371Y-110879129D01*
X132484129Y-110743371D01*
X132557600Y-110565995D01*
X132557600Y-110384005D01*
X132882400Y-110384005D01*
X132882400Y-110575995D01*
X132955871Y-110753371D01*
X133091629Y-110889129D01*
X133269005Y-110962600D01*
X133460995Y-110962600D01*
X133638371Y-110889129D01*
X133774129Y-110753371D01*
X133847600Y-110575995D01*
X133847600Y-110384005D01*
X133774129Y-110206629D01*
X133638371Y-110070871D01*
X133460995Y-109997400D01*
X133269005Y-109997400D01*
X133091629Y-110070871D01*
X132955871Y-110206629D01*
X132882400Y-110384005D01*
X132557600Y-110384005D01*
X132557600Y-110374005D01*
X132484129Y-110196629D01*
X132348371Y-110060871D01*
X132170995Y-109987400D01*
X131979005Y-109987400D01*
X131801629Y-110060871D01*
X131665871Y-110196629D01*
X131592400Y-110374005D01*
X112137600Y-110374005D01*
X112137600Y-110274005D01*
X112064129Y-110096629D01*
X111928371Y-109960871D01*
X111750995Y-109887400D01*
X111559005Y-109887400D01*
X111381629Y-109960871D01*
X111245871Y-110096629D01*
X111172400Y-110274005D01*
X111065954Y-110274005D01*
X111065954Y-109284005D01*
X111172400Y-109284005D01*
X111172400Y-109475995D01*
X111245871Y-109653371D01*
X111381629Y-109789129D01*
X111559005Y-109862600D01*
X111750995Y-109862600D01*
X111860784Y-109817124D01*
X137319554Y-109817124D01*
X137319554Y-110009114D01*
X137393025Y-110186490D01*
X137528783Y-110322248D01*
X137706159Y-110395719D01*
X137898149Y-110395719D01*
X138075525Y-110322248D01*
X138211283Y-110186490D01*
X138284754Y-110009114D01*
X138284754Y-109817124D01*
X138211283Y-109639748D01*
X138075525Y-109503990D01*
X137898149Y-109430519D01*
X137706159Y-109430519D01*
X137528783Y-109503990D01*
X137393025Y-109639748D01*
X137319554Y-109817124D01*
X111860784Y-109817124D01*
X111928371Y-109789129D01*
X112064129Y-109653371D01*
X112137600Y-109475995D01*
X112137600Y-109284005D01*
X112064129Y-109106629D01*
X111928371Y-108970871D01*
X111750995Y-108897400D01*
X111559005Y-108897400D01*
X111381629Y-108970871D01*
X111245871Y-109106629D01*
X111172400Y-109284005D01*
X111065954Y-109284005D01*
X111065954Y-108724005D01*
X114802400Y-108724005D01*
X114802400Y-108915995D01*
X114875871Y-109093371D01*
X115011629Y-109229129D01*
X115189005Y-109302600D01*
X115380995Y-109302600D01*
X115558371Y-109229129D01*
X115694129Y-109093371D01*
X115767600Y-108915995D01*
X115767600Y-108724005D01*
X115751032Y-108684005D01*
X116162400Y-108684005D01*
X116162400Y-108875995D01*
X116235871Y-109053371D01*
X116371629Y-109189129D01*
X116549005Y-109262600D01*
X116740995Y-109262600D01*
X116918371Y-109189129D01*
X117054129Y-109053371D01*
X117120876Y-108892228D01*
X139458754Y-108892228D01*
X139458754Y-109122410D01*
X139546841Y-109335069D01*
X139709604Y-109497832D01*
X139922263Y-109585919D01*
X140152445Y-109585919D01*
X140365104Y-109497832D01*
X140527867Y-109335069D01*
X140615954Y-109122410D01*
X140615954Y-108892228D01*
X140527867Y-108679569D01*
X140365104Y-108516806D01*
X140152445Y-108428719D01*
X139922263Y-108428719D01*
X139709604Y-108516806D01*
X139546841Y-108679569D01*
X139458754Y-108892228D01*
X117120876Y-108892228D01*
X117127600Y-108875995D01*
X117127600Y-108684005D01*
X117054129Y-108506629D01*
X116918371Y-108370871D01*
X116740995Y-108297400D01*
X116549005Y-108297400D01*
X116371629Y-108370871D01*
X116235871Y-108506629D01*
X116162400Y-108684005D01*
X115751032Y-108684005D01*
X115694129Y-108546629D01*
X115558371Y-108410871D01*
X115380995Y-108337400D01*
X115189005Y-108337400D01*
X115011629Y-108410871D01*
X114875871Y-108546629D01*
X114802400Y-108724005D01*
X111065954Y-108724005D01*
X111065954Y-107904005D01*
X118117400Y-107904005D01*
X118117400Y-108095995D01*
X118190871Y-108273371D01*
X118326629Y-108409129D01*
X118504005Y-108482600D01*
X118695995Y-108482600D01*
X118873371Y-108409129D01*
X119009129Y-108273371D01*
X119082600Y-108095995D01*
X119082600Y-107904005D01*
X119009129Y-107726629D01*
X118873371Y-107590871D01*
X118695995Y-107517400D01*
X118504005Y-107517400D01*
X118326629Y-107590871D01*
X118190871Y-107726629D01*
X118117400Y-107904005D01*
X111065954Y-107904005D01*
X111065954Y-107120324D01*
X135459754Y-107120324D01*
X135459754Y-107312314D01*
X135533225Y-107489690D01*
X135668983Y-107625448D01*
X135846359Y-107698919D01*
X136038349Y-107698919D01*
X136215725Y-107625448D01*
X136351483Y-107489690D01*
X136424954Y-107312314D01*
X136424954Y-107120324D01*
X136351483Y-106942948D01*
X136215725Y-106807190D01*
X136038349Y-106733719D01*
X135846359Y-106733719D01*
X135668983Y-106807190D01*
X135533225Y-106942948D01*
X135459754Y-107120324D01*
X111065954Y-107120324D01*
X111065954Y-106134005D01*
X128852394Y-106134005D01*
X128852394Y-106325995D01*
X128925865Y-106503371D01*
X129061623Y-106639129D01*
X129238999Y-106712600D01*
X129430989Y-106712600D01*
X129608365Y-106639129D01*
X129744123Y-106503371D01*
X129817594Y-106325995D01*
X129817594Y-106154005D01*
X130052400Y-106154005D01*
X130052400Y-106345995D01*
X130125871Y-106523371D01*
X130261629Y-106659129D01*
X130439005Y-106732600D01*
X130630995Y-106732600D01*
X130808371Y-106659129D01*
X130944129Y-106523371D01*
X131017600Y-106345995D01*
X131017600Y-106154005D01*
X130944129Y-105976629D01*
X130928905Y-105961405D01*
X138762400Y-105961405D01*
X138762400Y-106153395D01*
X138835871Y-106330771D01*
X138971629Y-106466529D01*
X139149005Y-106540000D01*
X139340995Y-106540000D01*
X139518371Y-106466529D01*
X139654129Y-106330771D01*
X139727600Y-106153395D01*
X139727600Y-105961405D01*
X139654129Y-105784029D01*
X139518371Y-105648271D01*
X139340995Y-105574800D01*
X139149005Y-105574800D01*
X138971629Y-105648271D01*
X138835871Y-105784029D01*
X138762400Y-105961405D01*
X130928905Y-105961405D01*
X130808371Y-105840871D01*
X130630995Y-105767400D01*
X130439005Y-105767400D01*
X130261629Y-105840871D01*
X130125871Y-105976629D01*
X130052400Y-106154005D01*
X129817594Y-106154005D01*
X129817594Y-106134005D01*
X129744123Y-105956629D01*
X129608365Y-105820871D01*
X129430989Y-105747400D01*
X129238999Y-105747400D01*
X129061623Y-105820871D01*
X128925865Y-105956629D01*
X128852394Y-106134005D01*
X111065954Y-106134005D01*
X111065954Y-104724005D01*
X137542400Y-104724005D01*
X137542400Y-104915995D01*
X137615871Y-105093371D01*
X137751629Y-105229129D01*
X137929005Y-105302600D01*
X138120995Y-105302600D01*
X138298371Y-105229129D01*
X138434129Y-105093371D01*
X138507600Y-104915995D01*
X138507600Y-104724005D01*
X138498189Y-104701283D01*
X138623754Y-104701283D01*
X138623754Y-104951355D01*
X138719453Y-105182392D01*
X138896281Y-105359220D01*
X139127318Y-105454919D01*
X139377390Y-105454919D01*
X139608427Y-105359220D01*
X139785255Y-105182392D01*
X139880954Y-104951355D01*
X139880954Y-104734005D01*
X139992400Y-104734005D01*
X139992400Y-104925995D01*
X140065871Y-105103371D01*
X140201629Y-105239129D01*
X140379005Y-105312600D01*
X140570995Y-105312600D01*
X140748371Y-105239129D01*
X140884129Y-105103371D01*
X140957600Y-104925995D01*
X140957600Y-104734005D01*
X140884129Y-104556629D01*
X140748371Y-104420871D01*
X140570995Y-104347400D01*
X140379005Y-104347400D01*
X140201629Y-104420871D01*
X140065871Y-104556629D01*
X139992400Y-104734005D01*
X139880954Y-104734005D01*
X139880954Y-104701283D01*
X139785255Y-104470246D01*
X139608427Y-104293418D01*
X139377390Y-104197719D01*
X139127318Y-104197719D01*
X138896281Y-104293418D01*
X138719453Y-104470246D01*
X138623754Y-104701283D01*
X138498189Y-104701283D01*
X138434129Y-104546629D01*
X138298371Y-104410871D01*
X138120995Y-104337400D01*
X137929005Y-104337400D01*
X137751629Y-104410871D01*
X137615871Y-104546629D01*
X137542400Y-104724005D01*
X111065954Y-104724005D01*
X111065954Y-103650324D01*
X117607364Y-103650324D01*
X117607364Y-103842314D01*
X117680835Y-104019690D01*
X117816593Y-104155448D01*
X117993969Y-104228919D01*
X118185959Y-104228919D01*
X118363335Y-104155448D01*
X118499093Y-104019690D01*
X118572564Y-103842314D01*
X118572564Y-103650324D01*
X118511958Y-103504005D01*
X138762400Y-103504005D01*
X138762400Y-103695995D01*
X138835871Y-103873371D01*
X138971629Y-104009129D01*
X139149005Y-104082600D01*
X139340995Y-104082600D01*
X139518371Y-104009129D01*
X139654129Y-103873371D01*
X139727600Y-103695995D01*
X139727600Y-103504005D01*
X139654129Y-103326629D01*
X139518371Y-103190871D01*
X139340995Y-103117400D01*
X139149005Y-103117400D01*
X138971629Y-103190871D01*
X138835871Y-103326629D01*
X138762400Y-103504005D01*
X118511958Y-103504005D01*
X118499093Y-103472948D01*
X118363335Y-103337190D01*
X118185959Y-103263719D01*
X117993969Y-103263719D01*
X117816593Y-103337190D01*
X117680835Y-103472948D01*
X117607364Y-103650324D01*
X111065954Y-103650324D01*
X111065954Y-102152924D01*
X119999756Y-102152924D01*
X119999756Y-102344914D01*
X120073227Y-102522290D01*
X120208985Y-102658048D01*
X120386361Y-102731519D01*
X120578351Y-102731519D01*
X120755727Y-102658048D01*
X120891485Y-102522290D01*
X120964956Y-102344914D01*
X120964956Y-102152924D01*
X120891485Y-101975548D01*
X120755727Y-101839790D01*
X120578351Y-101766319D01*
X120386361Y-101766319D01*
X120208985Y-101839790D01*
X120073227Y-101975548D01*
X119999756Y-102152924D01*
X111065954Y-102152924D01*
X111065954Y-101660324D01*
X122099744Y-101660324D01*
X122099744Y-101852314D01*
X122173215Y-102029690D01*
X122308973Y-102165448D01*
X122486349Y-102238919D01*
X122678339Y-102238919D01*
X122855715Y-102165448D01*
X122991473Y-102029690D01*
X123052260Y-101882934D01*
X127572400Y-101882934D01*
X127572400Y-102074924D01*
X127645871Y-102252300D01*
X127781629Y-102388058D01*
X127959005Y-102461529D01*
X128150995Y-102461529D01*
X128328371Y-102388058D01*
X128464129Y-102252300D01*
X128537600Y-102074924D01*
X128537600Y-101882934D01*
X128521476Y-101844005D01*
X134172400Y-101844005D01*
X134172400Y-102035995D01*
X134245871Y-102213371D01*
X134381629Y-102349129D01*
X134559005Y-102422600D01*
X134750995Y-102422600D01*
X134928371Y-102349129D01*
X135064129Y-102213371D01*
X135137600Y-102035995D01*
X135137600Y-101844005D01*
X135262400Y-101844005D01*
X135262400Y-102035995D01*
X135335871Y-102213371D01*
X135471629Y-102349129D01*
X135649005Y-102422600D01*
X135840995Y-102422600D01*
X136018371Y-102349129D01*
X136154129Y-102213371D01*
X136227600Y-102035995D01*
X136227600Y-101844005D01*
X136154129Y-101666629D01*
X136018371Y-101530871D01*
X135840995Y-101457400D01*
X135649005Y-101457400D01*
X135471629Y-101530871D01*
X135335871Y-101666629D01*
X135262400Y-101844005D01*
X135137600Y-101844005D01*
X135064129Y-101666629D01*
X134928371Y-101530871D01*
X134750995Y-101457400D01*
X134559005Y-101457400D01*
X134381629Y-101530871D01*
X134245871Y-101666629D01*
X134172400Y-101844005D01*
X128521476Y-101844005D01*
X128464129Y-101705558D01*
X128328371Y-101569800D01*
X128150995Y-101496329D01*
X127959005Y-101496329D01*
X127781629Y-101569800D01*
X127645871Y-101705558D01*
X127572400Y-101882934D01*
X123052260Y-101882934D01*
X123064944Y-101852314D01*
X123064944Y-101660324D01*
X122991473Y-101482948D01*
X122855715Y-101347190D01*
X122678339Y-101273719D01*
X122486349Y-101273719D01*
X122308973Y-101347190D01*
X122173215Y-101482948D01*
X122099744Y-101660324D01*
X111065954Y-101660324D01*
X111065954Y-100130324D01*
X122069752Y-100130324D01*
X122069752Y-100322314D01*
X122143223Y-100499690D01*
X122278981Y-100635448D01*
X122456357Y-100708919D01*
X122648347Y-100708919D01*
X122765666Y-100660324D01*
X124409754Y-100660324D01*
X124409754Y-100852314D01*
X124483225Y-101029690D01*
X124618983Y-101165448D01*
X124796359Y-101238919D01*
X124988349Y-101238919D01*
X125119754Y-101184490D01*
X125119754Y-101342314D01*
X125193225Y-101519690D01*
X125328983Y-101655448D01*
X125506359Y-101728919D01*
X125698349Y-101728919D01*
X125875725Y-101655448D01*
X126011483Y-101519690D01*
X126084954Y-101342314D01*
X126084954Y-101150324D01*
X126011483Y-100972948D01*
X125875725Y-100837190D01*
X125698349Y-100763719D01*
X125506359Y-100763719D01*
X125374954Y-100818148D01*
X125374954Y-100660324D01*
X125301483Y-100482948D01*
X125165725Y-100347190D01*
X124988349Y-100273719D01*
X124796359Y-100273719D01*
X124618983Y-100347190D01*
X124483225Y-100482948D01*
X124409754Y-100660324D01*
X122765666Y-100660324D01*
X122825723Y-100635448D01*
X122961481Y-100499690D01*
X123034952Y-100322314D01*
X123034952Y-100130324D01*
X122961481Y-99952948D01*
X122825723Y-99817190D01*
X122648347Y-99743719D01*
X122456357Y-99743719D01*
X122278981Y-99817190D01*
X122143223Y-99952948D01*
X122069752Y-100130324D01*
X111065954Y-100130324D01*
X111065954Y-99160324D01*
X117607364Y-99160324D01*
X117607364Y-99352314D01*
X117680835Y-99529690D01*
X117816593Y-99665448D01*
X117993969Y-99738919D01*
X118185959Y-99738919D01*
X118363335Y-99665448D01*
X118499093Y-99529690D01*
X118572564Y-99352314D01*
X118572564Y-99160324D01*
X118499093Y-98982948D01*
X118486469Y-98970324D01*
X121939754Y-98970324D01*
X121939754Y-99162314D01*
X122013225Y-99339690D01*
X122148983Y-99475448D01*
X122326359Y-99548919D01*
X122518349Y-99548919D01*
X122650924Y-99494005D01*
X129142400Y-99494005D01*
X129142400Y-99685995D01*
X129215871Y-99863371D01*
X129351629Y-99999129D01*
X129529005Y-100072600D01*
X129720995Y-100072600D01*
X129898371Y-99999129D01*
X130034129Y-99863371D01*
X130107600Y-99685995D01*
X130107600Y-99494005D01*
X130055788Y-99368919D01*
X130098349Y-99368919D01*
X130275725Y-99295448D01*
X130411483Y-99159690D01*
X130484954Y-98982314D01*
X130484954Y-98790324D01*
X130447676Y-98700324D01*
X130869754Y-98700324D01*
X130869754Y-98892314D01*
X130943225Y-99069690D01*
X131078983Y-99205448D01*
X131256359Y-99278919D01*
X131448349Y-99278919D01*
X131625725Y-99205448D01*
X131761483Y-99069690D01*
X131834954Y-98892314D01*
X131834954Y-98700324D01*
X131832337Y-98694005D01*
X131962400Y-98694005D01*
X131962400Y-98885995D01*
X132035871Y-99063371D01*
X132171629Y-99199129D01*
X132349005Y-99272600D01*
X132540995Y-99272600D01*
X132718371Y-99199129D01*
X132854129Y-99063371D01*
X132927600Y-98885995D01*
X132927600Y-98694005D01*
X133072400Y-98694005D01*
X133072400Y-98885995D01*
X133145871Y-99063371D01*
X133281629Y-99199129D01*
X133459005Y-99272600D01*
X133650995Y-99272600D01*
X133828371Y-99199129D01*
X133964129Y-99063371D01*
X134037600Y-98885995D01*
X134037600Y-98694005D01*
X133964129Y-98516629D01*
X133851505Y-98404005D01*
X135722400Y-98404005D01*
X135722400Y-98595995D01*
X135795871Y-98773371D01*
X135931629Y-98909129D01*
X136109005Y-98982600D01*
X136300995Y-98982600D01*
X136478371Y-98909129D01*
X136614129Y-98773371D01*
X136687600Y-98595995D01*
X136687600Y-98404005D01*
X136614129Y-98226629D01*
X136478371Y-98090871D01*
X136300995Y-98017400D01*
X136109005Y-98017400D01*
X135931629Y-98090871D01*
X135795871Y-98226629D01*
X135722400Y-98404005D01*
X133851505Y-98404005D01*
X133828371Y-98380871D01*
X133650995Y-98307400D01*
X133459005Y-98307400D01*
X133281629Y-98380871D01*
X133145871Y-98516629D01*
X133072400Y-98694005D01*
X132927600Y-98694005D01*
X132854129Y-98516629D01*
X132718371Y-98380871D01*
X132540995Y-98307400D01*
X132349005Y-98307400D01*
X132171629Y-98380871D01*
X132035871Y-98516629D01*
X131962400Y-98694005D01*
X131832337Y-98694005D01*
X131761483Y-98522948D01*
X131625725Y-98387190D01*
X131448349Y-98313719D01*
X131256359Y-98313719D01*
X131078983Y-98387190D01*
X130943225Y-98522948D01*
X130869754Y-98700324D01*
X130447676Y-98700324D01*
X130411483Y-98612948D01*
X130275725Y-98477190D01*
X130098349Y-98403719D01*
X129906359Y-98403719D01*
X129728983Y-98477190D01*
X129593225Y-98612948D01*
X129519754Y-98790324D01*
X129519754Y-98982314D01*
X129571566Y-99107400D01*
X129529005Y-99107400D01*
X129351629Y-99180871D01*
X129215871Y-99316629D01*
X129142400Y-99494005D01*
X122650924Y-99494005D01*
X122695725Y-99475448D01*
X122831483Y-99339690D01*
X122904954Y-99162314D01*
X122904954Y-98970324D01*
X122890321Y-98934997D01*
X122996359Y-98978919D01*
X123188349Y-98978919D01*
X123365725Y-98905448D01*
X123501483Y-98769690D01*
X123574954Y-98592314D01*
X123574954Y-98400324D01*
X123501483Y-98222948D01*
X123365725Y-98087190D01*
X123188349Y-98013719D01*
X122996359Y-98013719D01*
X122818983Y-98087190D01*
X122683225Y-98222948D01*
X122609754Y-98400324D01*
X122609754Y-98592314D01*
X122624387Y-98627641D01*
X122518349Y-98583719D01*
X122326359Y-98583719D01*
X122148983Y-98657190D01*
X122013225Y-98792948D01*
X121939754Y-98970324D01*
X118486469Y-98970324D01*
X118363335Y-98847190D01*
X118185959Y-98773719D01*
X117993969Y-98773719D01*
X117816593Y-98847190D01*
X117680835Y-98982948D01*
X117607364Y-99160324D01*
X111065954Y-99160324D01*
X111065954Y-97870324D01*
X119852354Y-97870324D01*
X119852354Y-98062314D01*
X119925825Y-98239690D01*
X120061583Y-98375448D01*
X120238959Y-98448919D01*
X120430949Y-98448919D01*
X120608325Y-98375448D01*
X120744083Y-98239690D01*
X120817554Y-98062314D01*
X120817554Y-97870324D01*
X120744083Y-97692948D01*
X120608325Y-97557190D01*
X120430949Y-97483719D01*
X120238959Y-97483719D01*
X120061583Y-97557190D01*
X119925825Y-97692948D01*
X119852354Y-97870324D01*
X111065954Y-97870324D01*
X111065954Y-96770324D01*
X119852354Y-96770324D01*
X119852354Y-96962314D01*
X119925825Y-97139690D01*
X120061583Y-97275448D01*
X120238959Y-97348919D01*
X120430949Y-97348919D01*
X120596553Y-97280324D01*
X123229754Y-97280324D01*
X123229754Y-97472314D01*
X123303225Y-97649690D01*
X123438983Y-97785448D01*
X123616359Y-97858919D01*
X123808349Y-97858919D01*
X123829099Y-97850324D01*
X130109754Y-97850324D01*
X130109754Y-98042314D01*
X130183225Y-98219690D01*
X130318983Y-98355448D01*
X130496359Y-98428919D01*
X130688349Y-98428919D01*
X130865725Y-98355448D01*
X131001483Y-98219690D01*
X131074954Y-98042314D01*
X131074954Y-97878919D01*
X131098349Y-97878919D01*
X131275725Y-97805448D01*
X131411483Y-97669690D01*
X131484954Y-97492314D01*
X131484954Y-97300324D01*
X131411483Y-97122948D01*
X131275725Y-96987190D01*
X131098349Y-96913719D01*
X130906359Y-96913719D01*
X130728983Y-96987190D01*
X130593225Y-97122948D01*
X130519754Y-97300324D01*
X130519754Y-97463719D01*
X130496359Y-97463719D01*
X130318983Y-97537190D01*
X130183225Y-97672948D01*
X130109754Y-97850324D01*
X123829099Y-97850324D01*
X123985725Y-97785448D01*
X124121483Y-97649690D01*
X124194954Y-97472314D01*
X124194954Y-97280324D01*
X124121483Y-97102948D01*
X123985725Y-96967190D01*
X123808349Y-96893719D01*
X123616359Y-96893719D01*
X123438983Y-96967190D01*
X123303225Y-97102948D01*
X123229754Y-97280324D01*
X120596553Y-97280324D01*
X120608325Y-97275448D01*
X120744083Y-97139690D01*
X120817554Y-96962314D01*
X120817554Y-96770324D01*
X120744083Y-96592948D01*
X120608325Y-96457190D01*
X120430949Y-96383719D01*
X120238959Y-96383719D01*
X120061583Y-96457190D01*
X119925825Y-96592948D01*
X119852354Y-96770324D01*
X111065954Y-96770324D01*
X111065954Y-94390324D01*
X115139754Y-94390324D01*
X115139754Y-94582314D01*
X115213225Y-94759690D01*
X115348983Y-94895448D01*
X115526359Y-94968919D01*
X115558620Y-94968919D01*
X115549754Y-94990324D01*
X115549754Y-95182314D01*
X115623225Y-95359690D01*
X115699854Y-95436319D01*
X115623225Y-95512948D01*
X115549754Y-95690324D01*
X115549754Y-95882314D01*
X115623225Y-96059690D01*
X115758983Y-96195448D01*
X115936359Y-96268919D01*
X116128349Y-96268919D01*
X116305725Y-96195448D01*
X116441483Y-96059690D01*
X116514954Y-95882314D01*
X116514954Y-95690324D01*
X116499911Y-95654005D01*
X130042400Y-95654005D01*
X130042400Y-95845995D01*
X130115871Y-96023371D01*
X130251629Y-96159129D01*
X130429005Y-96232600D01*
X130487400Y-96232600D01*
X130487400Y-96412395D01*
X130560871Y-96589771D01*
X130696629Y-96725529D01*
X130874005Y-96799000D01*
X131065995Y-96799000D01*
X131243371Y-96725529D01*
X131379129Y-96589771D01*
X131452600Y-96412395D01*
X131452600Y-96220405D01*
X131379129Y-96043029D01*
X131243371Y-95907271D01*
X131065995Y-95833800D01*
X131007600Y-95833800D01*
X131007600Y-95654005D01*
X130934129Y-95476629D01*
X130798371Y-95340871D01*
X130620995Y-95267400D01*
X130429005Y-95267400D01*
X130251629Y-95340871D01*
X130115871Y-95476629D01*
X130042400Y-95654005D01*
X116499911Y-95654005D01*
X116441483Y-95512948D01*
X116364854Y-95436319D01*
X116441483Y-95359690D01*
X116514954Y-95182314D01*
X116514954Y-94990324D01*
X116441483Y-94812948D01*
X116305725Y-94677190D01*
X116128349Y-94603719D01*
X116096088Y-94603719D01*
X116104954Y-94582314D01*
X116104954Y-94390324D01*
X116031483Y-94212948D01*
X115895725Y-94077190D01*
X115718349Y-94003719D01*
X115526359Y-94003719D01*
X115348983Y-94077190D01*
X115213225Y-94212948D01*
X115139754Y-94390324D01*
X111065954Y-94390324D01*
X111065954Y-93820324D01*
X118059754Y-93820324D01*
X118059754Y-94012314D01*
X118133225Y-94189690D01*
X118268983Y-94325448D01*
X118446359Y-94398919D01*
X118638349Y-94398919D01*
X118706365Y-94370746D01*
X119089754Y-94370746D01*
X119089754Y-94562736D01*
X119163225Y-94740112D01*
X119298983Y-94875870D01*
X119476359Y-94949341D01*
X119668349Y-94949341D01*
X119845725Y-94875870D01*
X119981483Y-94740112D01*
X120054954Y-94562736D01*
X120054954Y-94370746D01*
X120010990Y-94264605D01*
X125559800Y-94264605D01*
X125559800Y-94456595D01*
X125633271Y-94633971D01*
X125769029Y-94769729D01*
X125946405Y-94843200D01*
X126138395Y-94843200D01*
X126160593Y-94834005D01*
X130872400Y-94834005D01*
X130872400Y-95025995D01*
X130945871Y-95203371D01*
X131081629Y-95339129D01*
X131259005Y-95412600D01*
X131444906Y-95412600D01*
X131417400Y-95479005D01*
X131417400Y-95670995D01*
X131490871Y-95848371D01*
X131626629Y-95984129D01*
X131804005Y-96057600D01*
X131967402Y-96057600D01*
X131900000Y-96220324D01*
X131900000Y-96412314D01*
X131973471Y-96589690D01*
X132109229Y-96725448D01*
X132286605Y-96798919D01*
X132478595Y-96798919D01*
X132655971Y-96725448D01*
X132791729Y-96589690D01*
X132865200Y-96412314D01*
X132865200Y-96220324D01*
X132791729Y-96042948D01*
X132655971Y-95907190D01*
X132478595Y-95833719D01*
X132315198Y-95833719D01*
X132382600Y-95670995D01*
X132382600Y-95479005D01*
X132350952Y-95402600D01*
X132540995Y-95402600D01*
X132718371Y-95329129D01*
X132854129Y-95193371D01*
X132927600Y-95015995D01*
X132927600Y-94824005D01*
X133072400Y-94824005D01*
X133072400Y-95015995D01*
X133145871Y-95193371D01*
X133281629Y-95329129D01*
X133459005Y-95402600D01*
X133650995Y-95402600D01*
X133828371Y-95329129D01*
X133964129Y-95193371D01*
X134030007Y-95034324D01*
X134220754Y-95034324D01*
X134220754Y-95226314D01*
X134294225Y-95403690D01*
X134429983Y-95539448D01*
X134607359Y-95612919D01*
X134799349Y-95612919D01*
X134976725Y-95539448D01*
X135112483Y-95403690D01*
X135185954Y-95226314D01*
X135185954Y-95104005D01*
X135712400Y-95104005D01*
X135712400Y-95295995D01*
X135785871Y-95473371D01*
X135921629Y-95609129D01*
X136099005Y-95682600D01*
X136290995Y-95682600D01*
X136468371Y-95609129D01*
X136604129Y-95473371D01*
X136677600Y-95295995D01*
X136677600Y-95104005D01*
X136604129Y-94926629D01*
X136468371Y-94790871D01*
X136290995Y-94717400D01*
X136099005Y-94717400D01*
X135921629Y-94790871D01*
X135785871Y-94926629D01*
X135712400Y-95104005D01*
X135185954Y-95104005D01*
X135185954Y-95034324D01*
X135112483Y-94856948D01*
X134976725Y-94721190D01*
X134799349Y-94647719D01*
X134607359Y-94647719D01*
X134429983Y-94721190D01*
X134294225Y-94856948D01*
X134220754Y-95034324D01*
X134030007Y-95034324D01*
X134037600Y-95015995D01*
X134037600Y-94824005D01*
X133964129Y-94646629D01*
X133828371Y-94510871D01*
X133650995Y-94437400D01*
X133459005Y-94437400D01*
X133281629Y-94510871D01*
X133145871Y-94646629D01*
X133072400Y-94824005D01*
X132927600Y-94824005D01*
X132854129Y-94646629D01*
X132718371Y-94510871D01*
X132540995Y-94437400D01*
X132349005Y-94437400D01*
X132171629Y-94510871D01*
X132035871Y-94646629D01*
X131962400Y-94824005D01*
X131962400Y-95015995D01*
X131994048Y-95092400D01*
X131810094Y-95092400D01*
X131837600Y-95025995D01*
X131837600Y-94834005D01*
X131764129Y-94656629D01*
X131628371Y-94520871D01*
X131450995Y-94447400D01*
X131259005Y-94447400D01*
X131081629Y-94520871D01*
X130945871Y-94656629D01*
X130872400Y-94834005D01*
X126160593Y-94834005D01*
X126315771Y-94769729D01*
X126451529Y-94633971D01*
X126525000Y-94456595D01*
X126525000Y-94264605D01*
X126451529Y-94087229D01*
X126315771Y-93951471D01*
X126138395Y-93878000D01*
X125946405Y-93878000D01*
X125769029Y-93951471D01*
X125633271Y-94087229D01*
X125559800Y-94264605D01*
X120010990Y-94264605D01*
X119981483Y-94193370D01*
X119845725Y-94057612D01*
X119668349Y-93984141D01*
X119476359Y-93984141D01*
X119298983Y-94057612D01*
X119163225Y-94193370D01*
X119089754Y-94370746D01*
X118706365Y-94370746D01*
X118815725Y-94325448D01*
X118951483Y-94189690D01*
X119024954Y-94012314D01*
X119024954Y-93820324D01*
X118951483Y-93642948D01*
X118815725Y-93507190D01*
X118638349Y-93433719D01*
X118446359Y-93433719D01*
X118268983Y-93507190D01*
X118133225Y-93642948D01*
X118059754Y-93820324D01*
X111065954Y-93820324D01*
X111065954Y-92000324D01*
X112339754Y-92000324D01*
X112339754Y-92192314D01*
X112413225Y-92369690D01*
X112548983Y-92505448D01*
X112726359Y-92578919D01*
X112918349Y-92578919D01*
X112991463Y-92548635D01*
X112987351Y-92558561D01*
X112987351Y-92750551D01*
X113060822Y-92927927D01*
X113196580Y-93063685D01*
X113344399Y-93124913D01*
X113329731Y-93160324D01*
X113329731Y-93352314D01*
X113403202Y-93529690D01*
X113538960Y-93665448D01*
X113716336Y-93738919D01*
X113908326Y-93738919D01*
X114085702Y-93665448D01*
X114221460Y-93529690D01*
X114294931Y-93352314D01*
X114294931Y-93160324D01*
X114221460Y-92982948D01*
X114085702Y-92847190D01*
X113937883Y-92785962D01*
X113952551Y-92750551D01*
X113952551Y-92558561D01*
X113879080Y-92381185D01*
X113743322Y-92245427D01*
X113565946Y-92171956D01*
X113373956Y-92171956D01*
X113300842Y-92202240D01*
X113304954Y-92192314D01*
X113304954Y-92000324D01*
X113231483Y-91822948D01*
X113098859Y-91690324D01*
X117969754Y-91690324D01*
X117969754Y-91882314D01*
X118043225Y-92059690D01*
X118178983Y-92195448D01*
X118356359Y-92268919D01*
X118548349Y-92268919D01*
X118725725Y-92195448D01*
X118822354Y-92098819D01*
X118908983Y-92185448D01*
X119086359Y-92258919D01*
X119278349Y-92258919D01*
X119455725Y-92185448D01*
X119591483Y-92049690D01*
X119664954Y-91872314D01*
X119664954Y-91680324D01*
X119662254Y-91673805D01*
X127562400Y-91673805D01*
X127562400Y-91865795D01*
X127635871Y-92043171D01*
X127771629Y-92178929D01*
X127949005Y-92252400D01*
X128140995Y-92252400D01*
X128318371Y-92178929D01*
X128454129Y-92043171D01*
X128527600Y-91865795D01*
X128527600Y-91673805D01*
X128454129Y-91496429D01*
X128318371Y-91360671D01*
X128140995Y-91287200D01*
X127949005Y-91287200D01*
X127771629Y-91360671D01*
X127635871Y-91496429D01*
X127562400Y-91673805D01*
X119662254Y-91673805D01*
X119591483Y-91502948D01*
X119455725Y-91367190D01*
X119278349Y-91293719D01*
X119086359Y-91293719D01*
X118908983Y-91367190D01*
X118812354Y-91463819D01*
X118725725Y-91377190D01*
X118548349Y-91303719D01*
X118356359Y-91303719D01*
X118178983Y-91377190D01*
X118043225Y-91512948D01*
X117969754Y-91690324D01*
X113098859Y-91690324D01*
X113095725Y-91687190D01*
X112918349Y-91613719D01*
X112726359Y-91613719D01*
X112548983Y-91687190D01*
X112413225Y-91822948D01*
X112339754Y-92000324D01*
X111065954Y-92000324D01*
X111065954Y-90700324D01*
X115549754Y-90700324D01*
X115549754Y-90892314D01*
X115623225Y-91069690D01*
X115758983Y-91205448D01*
X115936359Y-91278919D01*
X116128349Y-91278919D01*
X116305725Y-91205448D01*
X116441483Y-91069690D01*
X116514954Y-90892314D01*
X116514954Y-90700324D01*
X116441483Y-90522948D01*
X116305725Y-90387190D01*
X116128349Y-90313719D01*
X115936359Y-90313719D01*
X115758983Y-90387190D01*
X115623225Y-90522948D01*
X115549754Y-90700324D01*
X111065954Y-90700324D01*
X111065954Y-89976421D01*
X111060120Y-89947090D01*
X110984001Y-89564412D01*
X110984001Y-89564407D01*
X110938668Y-89454965D01*
X110721895Y-89130541D01*
X110638132Y-89046778D01*
X110613507Y-89030324D01*
X126159754Y-89030324D01*
X126159754Y-89222314D01*
X126233225Y-89399690D01*
X126368983Y-89535448D01*
X126546359Y-89608919D01*
X126738349Y-89608919D01*
X126741241Y-89607721D01*
X127642357Y-89607721D01*
X127642357Y-89799711D01*
X127715828Y-89977087D01*
X127851586Y-90112845D01*
X128028962Y-90186316D01*
X128109754Y-90186316D01*
X128109754Y-90282312D01*
X128183225Y-90459688D01*
X128318983Y-90595446D01*
X128496359Y-90668917D01*
X128669754Y-90668917D01*
X128669754Y-90802314D01*
X128743225Y-90979690D01*
X128878983Y-91115448D01*
X129056359Y-91188919D01*
X129243747Y-91188919D01*
X129242800Y-91191205D01*
X129242800Y-91383195D01*
X129316271Y-91560571D01*
X129452029Y-91696329D01*
X129629405Y-91769800D01*
X129821395Y-91769800D01*
X129998771Y-91696329D01*
X130134529Y-91560571D01*
X130208000Y-91383195D01*
X130208000Y-91191205D01*
X130134529Y-91013829D01*
X129998771Y-90878071D01*
X129821395Y-90804600D01*
X129634007Y-90804600D01*
X129634954Y-90802314D01*
X129634954Y-90610324D01*
X129561483Y-90432948D01*
X129425725Y-90297190D01*
X129248349Y-90223719D01*
X129074954Y-90223719D01*
X129074954Y-90090322D01*
X129001483Y-89912946D01*
X128865725Y-89777188D01*
X128688349Y-89703717D01*
X128607557Y-89703717D01*
X128607557Y-89607721D01*
X128534086Y-89430345D01*
X128398328Y-89294587D01*
X128220952Y-89221116D01*
X128028962Y-89221116D01*
X127851586Y-89294587D01*
X127715828Y-89430345D01*
X127642357Y-89607721D01*
X126741241Y-89607721D01*
X126915725Y-89535448D01*
X127051483Y-89399690D01*
X127124954Y-89222314D01*
X127124954Y-89190324D01*
X131399754Y-89190324D01*
X131399754Y-89382314D01*
X131473225Y-89559690D01*
X131608983Y-89695448D01*
X131786359Y-89768919D01*
X131978349Y-89768919D01*
X132155725Y-89695448D01*
X132267168Y-89584005D01*
X133642400Y-89584005D01*
X133642400Y-89775995D01*
X133715871Y-89953371D01*
X133851629Y-90089129D01*
X134029005Y-90162600D01*
X134220995Y-90162600D01*
X134398371Y-90089129D01*
X134534129Y-89953371D01*
X134607600Y-89775995D01*
X134607600Y-89584005D01*
X134534129Y-89406629D01*
X134398371Y-89270871D01*
X134220995Y-89197400D01*
X134029005Y-89197400D01*
X133851629Y-89270871D01*
X133715871Y-89406629D01*
X133642400Y-89584005D01*
X132267168Y-89584005D01*
X132291483Y-89559690D01*
X132364954Y-89382314D01*
X132364954Y-89190324D01*
X132291483Y-89012948D01*
X132242259Y-88963724D01*
X139275354Y-88963724D01*
X139275354Y-89155714D01*
X139348825Y-89333090D01*
X139484583Y-89468848D01*
X139661959Y-89542319D01*
X139853949Y-89542319D01*
X140031325Y-89468848D01*
X140167083Y-89333090D01*
X140240554Y-89155714D01*
X140240554Y-88963724D01*
X140167083Y-88786348D01*
X140031325Y-88650590D01*
X139853949Y-88577119D01*
X139661959Y-88577119D01*
X139484583Y-88650590D01*
X139348825Y-88786348D01*
X139275354Y-88963724D01*
X132242259Y-88963724D01*
X132155725Y-88877190D01*
X131978349Y-88803719D01*
X131786359Y-88803719D01*
X131608983Y-88877190D01*
X131473225Y-89012948D01*
X131399754Y-89190324D01*
X127124954Y-89190324D01*
X127124954Y-89030324D01*
X127074120Y-88907600D01*
X127195995Y-88907600D01*
X127373371Y-88834129D01*
X127509129Y-88698371D01*
X127582600Y-88520995D01*
X127582600Y-88388919D01*
X127718349Y-88388919D01*
X127895725Y-88315448D01*
X128031483Y-88179690D01*
X128104954Y-88002314D01*
X128104954Y-87980324D01*
X131139754Y-87980324D01*
X131139754Y-88172314D01*
X131213225Y-88349690D01*
X131348983Y-88485448D01*
X131526359Y-88558919D01*
X131718349Y-88558919D01*
X131895725Y-88485448D01*
X132031483Y-88349690D01*
X132050688Y-88303324D01*
X137776754Y-88303324D01*
X137776754Y-88495314D01*
X137850225Y-88672690D01*
X137985983Y-88808448D01*
X138163359Y-88881919D01*
X138355349Y-88881919D01*
X138532725Y-88808448D01*
X138668483Y-88672690D01*
X138741954Y-88495314D01*
X138741954Y-88303324D01*
X138668483Y-88125948D01*
X138532725Y-87990190D01*
X138355349Y-87916719D01*
X138163359Y-87916719D01*
X137985983Y-87990190D01*
X137850225Y-88125948D01*
X137776754Y-88303324D01*
X132050688Y-88303324D01*
X132104954Y-88172314D01*
X132104954Y-87980324D01*
X132031483Y-87802948D01*
X131895725Y-87667190D01*
X131718349Y-87593719D01*
X131526359Y-87593719D01*
X131348983Y-87667190D01*
X131213225Y-87802948D01*
X131139754Y-87980324D01*
X128104954Y-87980324D01*
X128104954Y-87810324D01*
X128100230Y-87798919D01*
X128178349Y-87798919D01*
X128355725Y-87725448D01*
X128491483Y-87589690D01*
X128564954Y-87412314D01*
X128564954Y-87220324D01*
X128491483Y-87042948D01*
X128355725Y-86907190D01*
X128178349Y-86833719D01*
X127986359Y-86833719D01*
X127808983Y-86907190D01*
X127673225Y-87042948D01*
X127599754Y-87220324D01*
X127599754Y-87412314D01*
X127604478Y-87423719D01*
X127526359Y-87423719D01*
X127348983Y-87497190D01*
X127213225Y-87632948D01*
X127139754Y-87810324D01*
X127139754Y-87942400D01*
X127004005Y-87942400D01*
X126826629Y-88015871D01*
X126690871Y-88151629D01*
X126617400Y-88329005D01*
X126617400Y-88520995D01*
X126668234Y-88643719D01*
X126546359Y-88643719D01*
X126368983Y-88717190D01*
X126233225Y-88852948D01*
X126159754Y-89030324D01*
X110613507Y-89030324D01*
X110313708Y-88830005D01*
X110204266Y-88784672D01*
X110204261Y-88784672D01*
X109821583Y-88708553D01*
X109821581Y-88708553D01*
X109792252Y-88702719D01*
X107732456Y-88702719D01*
X107703127Y-88708553D01*
X107703125Y-88708553D01*
X107320447Y-88784672D01*
X107320442Y-88784672D01*
X107211000Y-88830005D01*
X106886576Y-89046778D01*
X106802813Y-89130541D01*
X106586040Y-89454965D01*
X106540707Y-89564407D01*
X106540707Y-89564412D01*
X106464588Y-89947090D01*
X106464588Y-89947093D01*
X106458754Y-89976422D01*
X99065954Y-89976422D01*
X99065954Y-89166924D01*
X101022954Y-89166924D01*
X101022954Y-89358914D01*
X101096425Y-89536290D01*
X101232183Y-89672048D01*
X101409559Y-89745519D01*
X101601549Y-89745519D01*
X101778925Y-89672048D01*
X101861154Y-89589819D01*
X101943383Y-89672048D01*
X102120759Y-89745519D01*
X102312749Y-89745519D01*
X102490125Y-89672048D01*
X102625883Y-89536290D01*
X102699354Y-89358914D01*
X102699354Y-89166924D01*
X102625883Y-88989548D01*
X102490125Y-88853790D01*
X102312749Y-88780319D01*
X102120759Y-88780319D01*
X101943383Y-88853790D01*
X101861154Y-88936019D01*
X101778925Y-88853790D01*
X101601549Y-88780319D01*
X101409559Y-88780319D01*
X101232183Y-88853790D01*
X101096425Y-88989548D01*
X101022954Y-89166924D01*
X99065954Y-89166924D01*
X99065954Y-87537714D01*
X115972400Y-87537714D01*
X115972400Y-87729704D01*
X116045871Y-87907080D01*
X116181629Y-88042838D01*
X116359005Y-88116309D01*
X116550995Y-88116309D01*
X116728371Y-88042838D01*
X116864129Y-87907080D01*
X116900064Y-87820324D01*
X117259754Y-87820324D01*
X117259754Y-88012314D01*
X117333225Y-88189690D01*
X117468983Y-88325448D01*
X117646359Y-88398919D01*
X117838349Y-88398919D01*
X118007137Y-88329005D01*
X121063554Y-88329005D01*
X121063554Y-88520995D01*
X121137025Y-88698371D01*
X121272783Y-88834129D01*
X121450159Y-88907600D01*
X121642149Y-88907600D01*
X121819525Y-88834129D01*
X121955283Y-88698371D01*
X122028754Y-88520995D01*
X122028754Y-88329005D01*
X121955283Y-88151629D01*
X121819525Y-88015871D01*
X121642149Y-87942400D01*
X121450159Y-87942400D01*
X121272783Y-88015871D01*
X121137025Y-88151629D01*
X121063554Y-88329005D01*
X118007137Y-88329005D01*
X118015725Y-88325448D01*
X118151483Y-88189690D01*
X118224954Y-88012314D01*
X118224954Y-87820324D01*
X118151483Y-87642948D01*
X118015725Y-87507190D01*
X117838349Y-87433719D01*
X117646359Y-87433719D01*
X117468983Y-87507190D01*
X117333225Y-87642948D01*
X117259754Y-87820324D01*
X116900064Y-87820324D01*
X116937600Y-87729704D01*
X116937600Y-87537714D01*
X116864129Y-87360338D01*
X116728371Y-87224580D01*
X116718092Y-87220322D01*
X118779754Y-87220322D01*
X118779754Y-87412312D01*
X118853225Y-87589688D01*
X118988983Y-87725446D01*
X119166359Y-87798917D01*
X119358349Y-87798917D01*
X119535725Y-87725446D01*
X119671483Y-87589688D01*
X119744954Y-87412312D01*
X119744954Y-87220322D01*
X119671483Y-87042946D01*
X119535725Y-86907188D01*
X119358349Y-86833717D01*
X119166359Y-86833717D01*
X118988983Y-86907188D01*
X118853225Y-87042946D01*
X118779754Y-87220322D01*
X116718092Y-87220322D01*
X116550995Y-87151109D01*
X116359005Y-87151109D01*
X116181629Y-87224580D01*
X116045871Y-87360338D01*
X115972400Y-87537714D01*
X99065954Y-87537714D01*
X99065954Y-86091228D01*
X99834754Y-86091228D01*
X99834754Y-86321410D01*
X99922841Y-86534069D01*
X100085604Y-86696832D01*
X100298263Y-86784919D01*
X100528445Y-86784919D01*
X100741104Y-86696832D01*
X100903867Y-86534069D01*
X100991954Y-86321410D01*
X100991954Y-86091228D01*
X139458754Y-86091228D01*
X139458754Y-86321410D01*
X139546841Y-86534069D01*
X139709604Y-86696832D01*
X139922263Y-86784919D01*
X140152445Y-86784919D01*
X140365104Y-86696832D01*
X140527867Y-86534069D01*
X140615954Y-86321410D01*
X140615954Y-86091228D01*
X140527867Y-85878569D01*
X140365104Y-85715806D01*
X140152445Y-85627719D01*
X139922263Y-85627719D01*
X139709604Y-85715806D01*
X139546841Y-85878569D01*
X139458754Y-86091228D01*
X100991954Y-86091228D01*
X100903867Y-85878569D01*
X100741104Y-85715806D01*
X100528445Y-85627719D01*
X100298263Y-85627719D01*
X100085604Y-85715806D01*
X99922841Y-85878569D01*
X99834754Y-86091228D01*
X99065954Y-86091228D01*
X99065954Y-85204524D01*
X102115154Y-85204524D01*
X102115154Y-85396514D01*
X102188625Y-85573890D01*
X102324383Y-85709648D01*
X102501759Y-85783119D01*
X102693749Y-85783119D01*
X102871125Y-85709648D01*
X103006883Y-85573890D01*
X103068966Y-85424005D01*
X109752400Y-85424005D01*
X109752400Y-85615995D01*
X109825871Y-85793371D01*
X109961629Y-85929129D01*
X110139005Y-86002600D01*
X110330995Y-86002600D01*
X110508371Y-85929129D01*
X110644129Y-85793371D01*
X110717600Y-85615995D01*
X110717600Y-85424005D01*
X110722400Y-85424005D01*
X110722400Y-85615995D01*
X110795871Y-85793371D01*
X110931629Y-85929129D01*
X111109005Y-86002600D01*
X111300995Y-86002600D01*
X111478371Y-85929129D01*
X111614129Y-85793371D01*
X111687600Y-85615995D01*
X111687600Y-85424005D01*
X111679316Y-85404005D01*
X111732400Y-85404005D01*
X111732400Y-85595995D01*
X111805871Y-85773371D01*
X111941629Y-85909129D01*
X112119005Y-85982600D01*
X112310995Y-85982600D01*
X112488371Y-85909129D01*
X112624129Y-85773371D01*
X112697600Y-85595995D01*
X112697600Y-85504003D01*
X127642398Y-85504003D01*
X127642398Y-85695993D01*
X127715869Y-85873369D01*
X127851627Y-86009127D01*
X128029003Y-86082598D01*
X128220993Y-86082598D01*
X128398369Y-86009127D01*
X128534127Y-85873369D01*
X128607598Y-85695993D01*
X128607598Y-85504003D01*
X128534127Y-85326627D01*
X128412024Y-85204524D01*
X137421164Y-85204524D01*
X137421164Y-85396514D01*
X137494635Y-85573890D01*
X137630393Y-85709648D01*
X137807769Y-85783119D01*
X137999759Y-85783119D01*
X138177135Y-85709648D01*
X138312893Y-85573890D01*
X138386364Y-85396514D01*
X138386364Y-85204524D01*
X138312893Y-85027148D01*
X138177135Y-84891390D01*
X137999759Y-84817919D01*
X137807769Y-84817919D01*
X137630393Y-84891390D01*
X137494635Y-85027148D01*
X137421164Y-85204524D01*
X128412024Y-85204524D01*
X128398369Y-85190869D01*
X128220993Y-85117398D01*
X128029003Y-85117398D01*
X127851627Y-85190869D01*
X127715869Y-85326627D01*
X127642398Y-85504003D01*
X112697600Y-85504003D01*
X112697600Y-85404005D01*
X112624129Y-85226629D01*
X112488371Y-85090871D01*
X112310995Y-85017400D01*
X112119005Y-85017400D01*
X111941629Y-85090871D01*
X111805871Y-85226629D01*
X111732400Y-85404005D01*
X111679316Y-85404005D01*
X111614129Y-85246629D01*
X111478371Y-85110871D01*
X111300995Y-85037400D01*
X111109005Y-85037400D01*
X110931629Y-85110871D01*
X110795871Y-85246629D01*
X110722400Y-85424005D01*
X110717600Y-85424005D01*
X110644129Y-85246629D01*
X110508371Y-85110871D01*
X110330995Y-85037400D01*
X110139005Y-85037400D01*
X109961629Y-85110871D01*
X109825871Y-85246629D01*
X109752400Y-85424005D01*
X103068966Y-85424005D01*
X103080354Y-85396514D01*
X103080354Y-85204524D01*
X103006883Y-85027148D01*
X102871125Y-84891390D01*
X102693749Y-84817919D01*
X102501759Y-84817919D01*
X102324383Y-84891390D01*
X102188625Y-85027148D01*
X102115154Y-85204524D01*
X99065954Y-85204524D01*
X99065954Y-84724005D01*
X116512400Y-84724005D01*
X116512400Y-84915995D01*
X116585871Y-85093371D01*
X116721629Y-85229129D01*
X116899005Y-85302600D01*
X117090995Y-85302600D01*
X117268371Y-85229129D01*
X117404129Y-85093371D01*
X117477600Y-84915995D01*
X117477600Y-84724005D01*
X117404129Y-84546629D01*
X117268371Y-84410871D01*
X117090995Y-84337400D01*
X116899005Y-84337400D01*
X116721629Y-84410871D01*
X116585871Y-84546629D01*
X116512400Y-84724005D01*
X99065954Y-84724005D01*
X99065954Y-83985324D01*
X102115154Y-83985324D01*
X102115154Y-84177314D01*
X102188625Y-84354690D01*
X102324383Y-84490448D01*
X102501759Y-84563919D01*
X102693749Y-84563919D01*
X102871125Y-84490448D01*
X103006883Y-84354690D01*
X103080354Y-84177314D01*
X103080354Y-83985324D01*
X103006883Y-83807948D01*
X102871125Y-83672190D01*
X102693749Y-83598719D01*
X102501759Y-83598719D01*
X102324383Y-83672190D01*
X102188625Y-83807948D01*
X102115154Y-83985324D01*
X99065954Y-83985324D01*
X99065954Y-83579005D01*
X123542400Y-83579005D01*
X123542400Y-83770995D01*
X123615871Y-83948371D01*
X123751629Y-84084129D01*
X123929005Y-84157600D01*
X124120995Y-84157600D01*
X124298371Y-84084129D01*
X124434129Y-83948371D01*
X124452505Y-83904005D01*
X126342400Y-83904005D01*
X126342400Y-84095995D01*
X126415871Y-84273371D01*
X126551629Y-84409129D01*
X126729005Y-84482600D01*
X126920995Y-84482600D01*
X127098371Y-84409129D01*
X127234129Y-84273371D01*
X127307600Y-84095995D01*
X127307600Y-83904005D01*
X127234129Y-83726629D01*
X127098371Y-83590871D01*
X126920995Y-83517400D01*
X126729005Y-83517400D01*
X126551629Y-83590871D01*
X126415871Y-83726629D01*
X126342400Y-83904005D01*
X124452505Y-83904005D01*
X124507600Y-83770995D01*
X124507600Y-83579005D01*
X124434129Y-83401629D01*
X124298371Y-83265871D01*
X124120995Y-83192400D01*
X123929005Y-83192400D01*
X123751629Y-83265871D01*
X123615871Y-83401629D01*
X123542400Y-83579005D01*
X99065954Y-83579005D01*
X99065954Y-82766124D01*
X102115154Y-82766124D01*
X102115154Y-82958114D01*
X102188625Y-83135490D01*
X102324383Y-83271248D01*
X102501759Y-83344719D01*
X102693749Y-83344719D01*
X102871125Y-83271248D01*
X103006883Y-83135490D01*
X103080354Y-82958114D01*
X103080354Y-82766124D01*
X137421164Y-82766124D01*
X137421164Y-82958114D01*
X137494635Y-83135490D01*
X137630393Y-83271248D01*
X137807769Y-83344719D01*
X137999759Y-83344719D01*
X138177135Y-83271248D01*
X138312893Y-83135490D01*
X138386364Y-82958114D01*
X138386364Y-82766124D01*
X138312893Y-82588748D01*
X138177135Y-82452990D01*
X137999759Y-82379519D01*
X137807769Y-82379519D01*
X137630393Y-82452990D01*
X137494635Y-82588748D01*
X137421164Y-82766124D01*
X103080354Y-82766124D01*
X103006883Y-82588748D01*
X102871125Y-82452990D01*
X102693749Y-82379519D01*
X102501759Y-82379519D01*
X102324383Y-82452990D01*
X102188625Y-82588748D01*
X102115154Y-82766124D01*
X99065954Y-82766124D01*
X99065954Y-81841228D01*
X99834754Y-81841228D01*
X99834754Y-82071410D01*
X99922841Y-82284069D01*
X100085604Y-82446832D01*
X100298263Y-82534919D01*
X100528445Y-82534919D01*
X100741104Y-82446832D01*
X100903867Y-82284069D01*
X100991954Y-82071410D01*
X100991954Y-82029524D01*
X103791554Y-82029524D01*
X103791554Y-82221514D01*
X103865025Y-82398890D01*
X104000783Y-82534648D01*
X104178159Y-82608119D01*
X104370149Y-82608119D01*
X104547525Y-82534648D01*
X104683283Y-82398890D01*
X104756754Y-82221514D01*
X104756754Y-82029524D01*
X104683283Y-81852148D01*
X104645140Y-81814005D01*
X131792400Y-81814005D01*
X131792400Y-82005995D01*
X131865871Y-82183371D01*
X132001629Y-82319129D01*
X132179005Y-82392600D01*
X132370995Y-82392600D01*
X132548371Y-82319129D01*
X132684129Y-82183371D01*
X132757600Y-82005995D01*
X132757600Y-81824005D01*
X133062400Y-81824005D01*
X133062400Y-82015995D01*
X133135871Y-82193371D01*
X133271629Y-82329129D01*
X133449005Y-82402600D01*
X133640995Y-82402600D01*
X133818371Y-82329129D01*
X133954129Y-82193371D01*
X134027600Y-82015995D01*
X134027600Y-81824005D01*
X134332400Y-81824005D01*
X134332400Y-82015995D01*
X134405871Y-82193371D01*
X134541629Y-82329129D01*
X134719005Y-82402600D01*
X134910995Y-82402600D01*
X135088371Y-82329129D01*
X135224129Y-82193371D01*
X135297600Y-82015995D01*
X135297600Y-81841228D01*
X139458754Y-81841228D01*
X139458754Y-82071410D01*
X139546841Y-82284069D01*
X139709604Y-82446832D01*
X139922263Y-82534919D01*
X140152445Y-82534919D01*
X140365104Y-82446832D01*
X140527867Y-82284069D01*
X140615954Y-82071410D01*
X140615954Y-81841228D01*
X140527867Y-81628569D01*
X140365104Y-81465806D01*
X140152445Y-81377719D01*
X139922263Y-81377719D01*
X139709604Y-81465806D01*
X139546841Y-81628569D01*
X139458754Y-81841228D01*
X135297600Y-81841228D01*
X135297600Y-81824005D01*
X135224129Y-81646629D01*
X135088371Y-81510871D01*
X134910995Y-81437400D01*
X134719005Y-81437400D01*
X134541629Y-81510871D01*
X134405871Y-81646629D01*
X134332400Y-81824005D01*
X134027600Y-81824005D01*
X133954129Y-81646629D01*
X133818371Y-81510871D01*
X133640995Y-81437400D01*
X133449005Y-81437400D01*
X133271629Y-81510871D01*
X133135871Y-81646629D01*
X133062400Y-81824005D01*
X132757600Y-81824005D01*
X132757600Y-81814005D01*
X132684129Y-81636629D01*
X132548371Y-81500871D01*
X132370995Y-81427400D01*
X132179005Y-81427400D01*
X132001629Y-81500871D01*
X131865871Y-81636629D01*
X131792400Y-81814005D01*
X104645140Y-81814005D01*
X104547525Y-81716390D01*
X104370149Y-81642919D01*
X104178159Y-81642919D01*
X104000783Y-81716390D01*
X103865025Y-81852148D01*
X103791554Y-82029524D01*
X100991954Y-82029524D01*
X100991954Y-81841228D01*
X100903867Y-81628569D01*
X100741104Y-81465806D01*
X100528445Y-81377719D01*
X100298263Y-81377719D01*
X100085604Y-81465806D01*
X99922841Y-81628569D01*
X99834754Y-81841228D01*
X99065954Y-81841228D01*
X99065954Y-79023954D01*
X99140275Y-78386487D01*
X99160919Y-78329612D01*
X99310180Y-78329612D01*
X99310180Y-79175468D01*
X99633874Y-79956936D01*
X100231984Y-80555046D01*
X101013452Y-80878740D01*
X101859308Y-80878740D01*
X102640776Y-80555046D01*
X103122098Y-80073724D01*
X103760798Y-80073724D01*
X103760798Y-80265714D01*
X103834269Y-80443090D01*
X103970027Y-80578848D01*
X104147403Y-80652319D01*
X104339393Y-80652319D01*
X104516769Y-80578848D01*
X104652527Y-80443090D01*
X104725998Y-80265714D01*
X104725998Y-80073724D01*
X104652527Y-79896348D01*
X104516769Y-79760590D01*
X104475568Y-79743524D01*
X106331554Y-79743524D01*
X106331554Y-79935514D01*
X106405025Y-80112890D01*
X106540783Y-80248648D01*
X106718159Y-80322119D01*
X106910149Y-80322119D01*
X107019260Y-80276924D01*
X108033354Y-80276924D01*
X108033354Y-80468914D01*
X108106825Y-80646290D01*
X108242583Y-80782048D01*
X108419959Y-80855519D01*
X108611949Y-80855519D01*
X108789325Y-80782048D01*
X108925083Y-80646290D01*
X108998554Y-80468914D01*
X108998554Y-80276924D01*
X108925585Y-80100759D01*
X110649554Y-80100759D01*
X110649554Y-80292749D01*
X110723025Y-80470125D01*
X110858783Y-80605883D01*
X111036159Y-80679354D01*
X111228149Y-80679354D01*
X111405525Y-80605883D01*
X111541283Y-80470125D01*
X111614754Y-80292749D01*
X111614754Y-80100759D01*
X111551404Y-79947817D01*
X118621400Y-79947817D01*
X118621400Y-80327183D01*
X118766577Y-80677671D01*
X119034829Y-80945923D01*
X119385317Y-81091100D01*
X119764683Y-81091100D01*
X120115171Y-80945923D01*
X120383423Y-80677671D01*
X120528600Y-80327183D01*
X120528600Y-79947817D01*
X123621400Y-79947817D01*
X123621400Y-80327183D01*
X123766577Y-80677671D01*
X124034829Y-80945923D01*
X124385317Y-81091100D01*
X124764683Y-81091100D01*
X125115171Y-80945923D01*
X125383423Y-80677671D01*
X125528600Y-80327183D01*
X125528600Y-80175324D01*
X130283754Y-80175324D01*
X130283754Y-80367314D01*
X130357225Y-80544690D01*
X130492983Y-80680448D01*
X130670359Y-80753919D01*
X130862349Y-80753919D01*
X131039725Y-80680448D01*
X131175483Y-80544690D01*
X131248954Y-80367314D01*
X131248954Y-80175324D01*
X131175483Y-79997948D01*
X131039725Y-79862190D01*
X130862349Y-79788719D01*
X130670359Y-79788719D01*
X130492983Y-79862190D01*
X130357225Y-79997948D01*
X130283754Y-80175324D01*
X125528600Y-80175324D01*
X125528600Y-79947817D01*
X125391489Y-79616800D01*
X133839754Y-79616800D01*
X133839754Y-79909838D01*
X133951895Y-80180569D01*
X134159104Y-80387778D01*
X134429835Y-80499919D01*
X134722873Y-80499919D01*
X134993604Y-80387778D01*
X135200813Y-80180569D01*
X135255589Y-80048328D01*
X135363754Y-80048328D01*
X135363754Y-80240318D01*
X135437225Y-80417694D01*
X135572983Y-80553452D01*
X135750359Y-80626923D01*
X135942349Y-80626923D01*
X136119725Y-80553452D01*
X136255483Y-80417694D01*
X136328954Y-80240318D01*
X136328954Y-80048328D01*
X136255483Y-79870952D01*
X136119725Y-79735194D01*
X135942349Y-79661723D01*
X135750359Y-79661723D01*
X135572983Y-79735194D01*
X135437225Y-79870952D01*
X135363754Y-80048328D01*
X135255589Y-80048328D01*
X135312954Y-79909838D01*
X135312954Y-79616800D01*
X135200813Y-79346069D01*
X134993604Y-79138860D01*
X134722873Y-79026719D01*
X134429835Y-79026719D01*
X134159104Y-79138860D01*
X133951895Y-79346069D01*
X133839754Y-79616800D01*
X125391489Y-79616800D01*
X125383423Y-79597329D01*
X125115171Y-79329077D01*
X124764683Y-79183900D01*
X124385317Y-79183900D01*
X124034829Y-79329077D01*
X123766577Y-79597329D01*
X123621400Y-79947817D01*
X120528600Y-79947817D01*
X120383423Y-79597329D01*
X120115171Y-79329077D01*
X119764683Y-79183900D01*
X119385317Y-79183900D01*
X119034829Y-79329077D01*
X118766577Y-79597329D01*
X118621400Y-79947817D01*
X111551404Y-79947817D01*
X111541283Y-79923383D01*
X111405525Y-79787625D01*
X111228149Y-79714154D01*
X111036159Y-79714154D01*
X110858783Y-79787625D01*
X110723025Y-79923383D01*
X110649554Y-80100759D01*
X108925585Y-80100759D01*
X108925083Y-80099548D01*
X108789325Y-79963790D01*
X108611949Y-79890319D01*
X108419959Y-79890319D01*
X108242583Y-79963790D01*
X108106825Y-80099548D01*
X108033354Y-80276924D01*
X107019260Y-80276924D01*
X107087525Y-80248648D01*
X107223283Y-80112890D01*
X107296754Y-79935514D01*
X107296754Y-79743524D01*
X107223283Y-79566148D01*
X107087525Y-79430390D01*
X106910149Y-79356919D01*
X106718159Y-79356919D01*
X106540783Y-79430390D01*
X106405025Y-79566148D01*
X106331554Y-79743524D01*
X104475568Y-79743524D01*
X104339393Y-79687119D01*
X104147403Y-79687119D01*
X103970027Y-79760590D01*
X103834269Y-79896348D01*
X103760798Y-80073724D01*
X103122098Y-80073724D01*
X103238886Y-79956936D01*
X103562580Y-79175468D01*
X103562580Y-79006924D01*
X103765857Y-79006924D01*
X103765857Y-79198914D01*
X103839328Y-79376290D01*
X103975086Y-79512048D01*
X104152462Y-79585519D01*
X104344452Y-79585519D01*
X104521828Y-79512048D01*
X104657586Y-79376290D01*
X104731057Y-79198914D01*
X104731057Y-79006924D01*
X104657586Y-78829548D01*
X104521828Y-78693790D01*
X104344452Y-78620319D01*
X104152462Y-78620319D01*
X103975086Y-78693790D01*
X103839328Y-78829548D01*
X103765857Y-79006924D01*
X103562580Y-79006924D01*
X103562580Y-78457405D01*
X111546200Y-78457405D01*
X111546200Y-78649395D01*
X111619671Y-78826771D01*
X111736300Y-78943400D01*
X111629671Y-79050029D01*
X111556200Y-79227405D01*
X111556200Y-79419395D01*
X111629671Y-79596771D01*
X111765429Y-79732529D01*
X111942805Y-79806000D01*
X112134795Y-79806000D01*
X112312171Y-79732529D01*
X112447929Y-79596771D01*
X112470871Y-79541384D01*
X112489671Y-79586771D01*
X112625429Y-79722529D01*
X112802805Y-79796000D01*
X112994795Y-79796000D01*
X113172171Y-79722529D01*
X113307929Y-79586771D01*
X113381400Y-79409395D01*
X113381400Y-79217405D01*
X113307929Y-79040029D01*
X113196300Y-78928400D01*
X113307929Y-78816771D01*
X113381400Y-78639395D01*
X113381400Y-78447405D01*
X113307929Y-78270029D01*
X113172171Y-78134271D01*
X112994795Y-78060800D01*
X112802805Y-78060800D01*
X112625429Y-78134271D01*
X112489671Y-78270029D01*
X112461729Y-78337488D01*
X112437929Y-78280029D01*
X112302171Y-78144271D01*
X112124795Y-78070800D01*
X111932805Y-78070800D01*
X111755429Y-78144271D01*
X111619671Y-78280029D01*
X111546200Y-78457405D01*
X103562580Y-78457405D01*
X103562580Y-78329612D01*
X103238886Y-77548144D01*
X102640776Y-76950034D01*
X102578248Y-76924134D01*
X103760780Y-76924134D01*
X103760780Y-77116124D01*
X103834251Y-77293500D01*
X103970009Y-77429258D01*
X104147385Y-77502729D01*
X104339375Y-77502729D01*
X104516751Y-77429258D01*
X104652509Y-77293500D01*
X104725980Y-77116124D01*
X104725980Y-77025724D01*
X107931744Y-77025724D01*
X107931744Y-77217714D01*
X108005215Y-77395090D01*
X108140973Y-77530848D01*
X108318349Y-77604319D01*
X108510339Y-77604319D01*
X108687715Y-77530848D01*
X108823473Y-77395090D01*
X108896944Y-77217714D01*
X108896944Y-77025724D01*
X108823473Y-76848348D01*
X108687715Y-76712590D01*
X108510339Y-76639119D01*
X108318349Y-76639119D01*
X108140973Y-76712590D01*
X108005215Y-76848348D01*
X107931744Y-77025724D01*
X104725980Y-77025724D01*
X104725980Y-76924134D01*
X104652509Y-76746758D01*
X104516751Y-76611000D01*
X104339375Y-76537529D01*
X104147385Y-76537529D01*
X103970009Y-76611000D01*
X103834251Y-76746758D01*
X103760780Y-76924134D01*
X102578248Y-76924134D01*
X101859308Y-76626340D01*
X101013452Y-76626340D01*
X100231984Y-76950034D01*
X99633874Y-77548144D01*
X99310180Y-78329612D01*
X99160919Y-78329612D01*
X99353195Y-77799903D01*
X99695350Y-77278031D01*
X100148378Y-76848874D01*
X100687989Y-76535443D01*
X101289203Y-76353353D01*
X101775875Y-76309919D01*
X114709889Y-76309919D01*
X114679906Y-76339902D01*
X114679906Y-76339902D01*
G37*
X114679906Y-76339902D02*
X114606435Y-76517278D01*
X114606435Y-76709268D01*
X114679906Y-76886644D01*
X114815664Y-77022402D01*
X114993040Y-77095873D01*
X115185030Y-77095873D01*
X115362406Y-77022402D01*
X115498164Y-76886644D01*
X115571635Y-76709268D01*
X115571635Y-76517278D01*
X115498164Y-76339902D01*
X115468181Y-76309919D01*
X118247293Y-76309919D01*
X117977614Y-76490113D01*
X117794477Y-76764196D01*
X117746400Y-77005891D01*
X117746400Y-77869108D01*
X117794476Y-78110803D01*
X117977613Y-78384887D01*
X118251696Y-78568024D01*
X118575000Y-78632333D01*
X118898303Y-78568024D01*
X119172387Y-78384887D01*
X119355524Y-78110804D01*
X119403600Y-77869109D01*
X119403600Y-77005891D01*
X119355524Y-76764196D01*
X119172387Y-76490113D01*
X118902708Y-76309919D01*
X125247292Y-76309919D01*
X124977613Y-76490113D01*
X124794476Y-76764197D01*
X124746400Y-77005892D01*
X124746400Y-77869109D01*
X124794477Y-78110804D01*
X124977614Y-78384887D01*
X125251697Y-78568024D01*
X125575000Y-78632333D01*
X125733527Y-78600800D01*
X128759754Y-78600800D01*
X128759754Y-78893838D01*
X128871895Y-79164569D01*
X129079104Y-79371778D01*
X129349835Y-79483919D01*
X129642873Y-79483919D01*
X129913604Y-79371778D01*
X130120813Y-79164569D01*
X130232954Y-78893838D01*
X130232954Y-78600800D01*
X130120813Y-78330069D01*
X129913604Y-78122860D01*
X129642873Y-78010719D01*
X129349835Y-78010719D01*
X129079104Y-78122860D01*
X128871895Y-78330069D01*
X128759754Y-78600800D01*
X125733527Y-78600800D01*
X125898304Y-78568024D01*
X126172387Y-78384887D01*
X126355524Y-78110804D01*
X126403600Y-77869109D01*
X126403600Y-77584800D01*
X133839754Y-77584800D01*
X133839754Y-77877838D01*
X133951895Y-78148569D01*
X134159104Y-78355778D01*
X134429835Y-78467919D01*
X134722873Y-78467919D01*
X134993604Y-78355778D01*
X135017230Y-78332152D01*
X136803120Y-78332152D01*
X136803120Y-79178008D01*
X137126814Y-79959476D01*
X137724924Y-80557586D01*
X138506392Y-80881280D01*
X139352248Y-80881280D01*
X140133716Y-80557586D01*
X140731826Y-79959476D01*
X141055520Y-79178008D01*
X141055520Y-78332152D01*
X140731826Y-77550684D01*
X140133716Y-76952574D01*
X139352248Y-76628880D01*
X138506392Y-76628880D01*
X137724924Y-76952574D01*
X137126814Y-77550684D01*
X136803120Y-78332152D01*
X135017230Y-78332152D01*
X135200813Y-78148569D01*
X135312954Y-77877838D01*
X135312954Y-77584800D01*
X135200813Y-77314069D01*
X134993604Y-77106860D01*
X134722873Y-76994719D01*
X134429835Y-76994719D01*
X134159104Y-77106860D01*
X133951895Y-77314069D01*
X133839754Y-77584800D01*
X126403600Y-77584800D01*
X126403600Y-77005891D01*
X126382284Y-76898723D01*
X131579153Y-76898723D01*
X131579153Y-77090713D01*
X131652624Y-77268089D01*
X131788382Y-77403847D01*
X131965758Y-77477318D01*
X132157748Y-77477318D01*
X132335124Y-77403847D01*
X132470882Y-77268089D01*
X132544353Y-77090713D01*
X132544353Y-76898724D01*
X132823754Y-76898724D01*
X132823754Y-77090714D01*
X132897225Y-77268090D01*
X133032983Y-77403848D01*
X133210359Y-77477319D01*
X133402349Y-77477319D01*
X133579725Y-77403848D01*
X133715483Y-77268090D01*
X133788954Y-77090714D01*
X133788954Y-76898724D01*
X133715483Y-76721348D01*
X133579725Y-76585590D01*
X133402349Y-76512119D01*
X133210359Y-76512119D01*
X133032983Y-76585590D01*
X132897225Y-76721348D01*
X132823754Y-76898724D01*
X132544353Y-76898724D01*
X132544353Y-76898723D01*
X132470882Y-76721347D01*
X132335124Y-76585589D01*
X132157748Y-76512118D01*
X131965758Y-76512118D01*
X131788382Y-76585589D01*
X131652624Y-76721347D01*
X131579153Y-76898723D01*
X126382284Y-76898723D01*
X126355524Y-76764196D01*
X126172387Y-76490113D01*
X125902708Y-76309919D01*
X138744719Y-76309919D01*
X139382186Y-76384240D01*
X139968770Y-76597160D01*
X140490642Y-76939315D01*
X140919799Y-77392343D01*
X141233230Y-77931954D01*
X141415320Y-78533168D01*
X141458755Y-79019851D01*
X141458755Y-91663800D01*
X137319554Y-91663800D01*
X137319554Y-91604005D01*
X137246083Y-91426629D01*
X137110325Y-91290871D01*
X136932949Y-91217400D01*
X136740959Y-91217400D01*
X136563583Y-91290871D01*
X136427825Y-91426629D01*
X136354354Y-91604005D01*
X136354354Y-91795995D01*
X136427825Y-91973371D01*
X136563583Y-92109129D01*
X136740959Y-92182600D01*
X136932949Y-92182600D01*
X137018800Y-92147040D01*
X137018800Y-101482960D01*
X136932949Y-101447400D01*
X136740959Y-101447400D01*
X136563583Y-101520871D01*
X136427825Y-101656629D01*
X136354354Y-101834005D01*
X136354354Y-102025995D01*
X136427825Y-102203371D01*
X136563583Y-102339129D01*
X136740959Y-102412600D01*
X136932949Y-102412600D01*
X137110325Y-102339129D01*
X137246083Y-102203371D01*
X137311185Y-102046200D01*
X141458754Y-102046200D01*
X141458754Y-115988684D01*
X141384433Y-116626151D01*
X141171513Y-117212736D01*
X140829361Y-117734604D01*
X140376330Y-118163764D01*
X139836719Y-118477195D01*
X139235505Y-118659285D01*
X138748834Y-118702719D01*
X110894808Y-118702719D01*
X110941635Y-118589668D01*
X110941635Y-118397678D01*
X110868164Y-118220302D01*
X110732406Y-118084544D01*
X110625649Y-118040324D01*
X120109754Y-118040324D01*
X120109754Y-118232314D01*
X120183225Y-118409690D01*
X120318983Y-118545448D01*
X120496359Y-118618919D01*
X120688349Y-118618919D01*
X120865725Y-118545448D01*
X121001483Y-118409690D01*
X121074954Y-118232314D01*
X121074954Y-118040324D01*
X121018490Y-117904005D01*
X124502400Y-117904005D01*
X124502400Y-118095995D01*
X124575871Y-118273371D01*
X124711629Y-118409129D01*
X124889005Y-118482600D01*
X125080995Y-118482600D01*
X125258371Y-118409129D01*
X125394129Y-118273371D01*
X125467600Y-118095995D01*
X125467600Y-117904005D01*
X125453649Y-117870324D01*
X132799754Y-117870324D01*
X132799754Y-118062314D01*
X132873225Y-118239690D01*
X133008983Y-118375448D01*
X133186359Y-118448919D01*
X133378349Y-118448919D01*
X133555725Y-118375448D01*
X133691483Y-118239690D01*
X133764954Y-118062314D01*
X133764954Y-117870324D01*
X133691483Y-117692948D01*
X133555725Y-117557190D01*
X133378349Y-117483719D01*
X133186359Y-117483719D01*
X133008983Y-117557190D01*
X132873225Y-117692948D01*
X132799754Y-117870324D01*
X125453649Y-117870324D01*
X125394129Y-117726629D01*
X125258371Y-117590871D01*
X125080995Y-117517400D01*
X124889005Y-117517400D01*
X124711629Y-117590871D01*
X124575871Y-117726629D01*
X124502400Y-117904005D01*
X121018490Y-117904005D01*
X121001483Y-117862948D01*
X120865725Y-117727190D01*
X120688349Y-117653719D01*
X120496359Y-117653719D01*
X120318983Y-117727190D01*
X120183225Y-117862948D01*
X120109754Y-118040324D01*
X110625649Y-118040324D01*
X110555030Y-118011073D01*
X110363040Y-118011073D01*
X110185664Y-118084544D01*
X110049906Y-118220302D01*
X110014035Y-118306903D01*
X109978164Y-118220302D01*
X109842406Y-118084544D01*
X109665030Y-118011073D01*
X109473040Y-118011073D01*
X109295664Y-118084544D01*
X109159906Y-118220302D01*
X109086435Y-118397678D01*
X109086435Y-118589668D01*
X109133262Y-118702719D01*
X108321454Y-118702719D01*
X108344483Y-118679690D01*
X108417954Y-118502314D01*
X108417954Y-118310324D01*
X108344483Y-118132948D01*
X108208725Y-117997190D01*
X108031349Y-117923719D01*
X107839359Y-117923719D01*
X107661983Y-117997190D01*
X107526225Y-118132948D01*
X107452754Y-118310324D01*
X107452754Y-118502314D01*
X107526225Y-118679690D01*
X107549254Y-118702719D01*
X101779989Y-118702719D01*
X101142522Y-118628398D01*
X100555937Y-118415478D01*
X100034069Y-118073326D01*
X99604909Y-117620295D01*
X99291478Y-117080684D01*
X99109388Y-116479470D01*
X99065954Y-115992799D01*
X99065954Y-115830172D01*
X99317800Y-115830172D01*
X99317800Y-116676028D01*
X99641494Y-117457496D01*
X100239604Y-118055606D01*
X101021072Y-118379300D01*
X101866928Y-118379300D01*
X102648396Y-118055606D01*
X103246506Y-117457496D01*
X103522377Y-116791482D01*
X114307144Y-116791482D01*
X114307144Y-116983472D01*
X114380615Y-117160848D01*
X114516373Y-117296606D01*
X114693749Y-117370077D01*
X114885739Y-117370077D01*
X115063115Y-117296606D01*
X115195716Y-117164005D01*
X117262400Y-117164005D01*
X117262400Y-117355995D01*
X117335871Y-117533371D01*
X117471629Y-117669129D01*
X117649005Y-117742600D01*
X117840995Y-117742600D01*
X118018371Y-117669129D01*
X118154129Y-117533371D01*
X118227600Y-117355995D01*
X118227600Y-117164005D01*
X118154129Y-116986629D01*
X118018371Y-116850871D01*
X117840995Y-116777400D01*
X117649005Y-116777400D01*
X117471629Y-116850871D01*
X117335871Y-116986629D01*
X117262400Y-117164005D01*
X115195716Y-117164005D01*
X115198873Y-117160848D01*
X115272344Y-116983472D01*
X115272344Y-116791482D01*
X115198873Y-116614106D01*
X115063115Y-116478348D01*
X114885739Y-116404877D01*
X114693749Y-116404877D01*
X114516373Y-116478348D01*
X114380615Y-116614106D01*
X114307144Y-116791482D01*
X103522377Y-116791482D01*
X103570200Y-116676028D01*
X103570200Y-115830172D01*
X103569167Y-115827678D01*
X107446435Y-115827678D01*
X107446435Y-116019668D01*
X107519906Y-116197044D01*
X107655664Y-116332802D01*
X107833040Y-116406273D01*
X108025030Y-116406273D01*
X108202406Y-116332802D01*
X108338164Y-116197044D01*
X108411635Y-116019668D01*
X108411635Y-115827678D01*
X108385966Y-115765705D01*
X116064100Y-115765705D01*
X116064100Y-115957695D01*
X116137571Y-116135071D01*
X116273329Y-116270829D01*
X116450705Y-116344300D01*
X116642695Y-116344300D01*
X116820071Y-116270829D01*
X116955829Y-116135071D01*
X117029300Y-115957695D01*
X117029300Y-115935405D01*
X124805800Y-115935405D01*
X124805800Y-116127395D01*
X124879271Y-116304771D01*
X125015029Y-116440529D01*
X125192405Y-116514000D01*
X125384395Y-116514000D01*
X125561771Y-116440529D01*
X125697529Y-116304771D01*
X125771000Y-116127395D01*
X125771000Y-115935405D01*
X125728464Y-115832712D01*
X136815820Y-115832712D01*
X136815820Y-116678568D01*
X137139514Y-117460036D01*
X137737624Y-118058146D01*
X138519092Y-118381840D01*
X139364948Y-118381840D01*
X140146416Y-118058146D01*
X140744526Y-117460036D01*
X141068220Y-116678568D01*
X141068220Y-115832712D01*
X140744526Y-115051244D01*
X140146416Y-114453134D01*
X139364948Y-114129440D01*
X138519092Y-114129440D01*
X137737624Y-114453134D01*
X137139514Y-115051244D01*
X136815820Y-115832712D01*
X125728464Y-115832712D01*
X125697529Y-115758029D01*
X125561771Y-115622271D01*
X125384395Y-115548800D01*
X125192405Y-115548800D01*
X125015029Y-115622271D01*
X124879271Y-115758029D01*
X124805800Y-115935405D01*
X117029300Y-115935405D01*
X117029300Y-115765705D01*
X116955829Y-115588329D01*
X116820071Y-115452571D01*
X116642695Y-115379100D01*
X116450705Y-115379100D01*
X116273329Y-115452571D01*
X116137571Y-115588329D01*
X116064100Y-115765705D01*
X108385966Y-115765705D01*
X108338164Y-115650302D01*
X108202406Y-115514544D01*
X108025030Y-115441073D01*
X107833040Y-115441073D01*
X107655664Y-115514544D01*
X107519906Y-115650302D01*
X107446435Y-115827678D01*
X103569167Y-115827678D01*
X103291645Y-115157678D01*
X105746435Y-115157678D01*
X105746435Y-115349668D01*
X105819906Y-115527044D01*
X105955664Y-115662802D01*
X106133040Y-115736273D01*
X106325030Y-115736273D01*
X106502406Y-115662802D01*
X106638164Y-115527044D01*
X106711635Y-115349668D01*
X106711635Y-115157678D01*
X106642316Y-114990324D01*
X114789754Y-114990324D01*
X114789754Y-115182314D01*
X114863225Y-115359690D01*
X114998983Y-115495448D01*
X115176359Y-115568919D01*
X115368349Y-115568919D01*
X115545725Y-115495448D01*
X115681483Y-115359690D01*
X115754954Y-115182314D01*
X115754954Y-114990324D01*
X115719200Y-114904005D01*
X119122400Y-114904005D01*
X119122400Y-115095995D01*
X119195871Y-115273371D01*
X119331629Y-115409129D01*
X119509005Y-115482600D01*
X119700995Y-115482600D01*
X119878371Y-115409129D01*
X120014129Y-115273371D01*
X120087600Y-115095995D01*
X120087600Y-114904005D01*
X120014129Y-114726629D01*
X119878371Y-114590871D01*
X119700995Y-114517400D01*
X119509005Y-114517400D01*
X119331629Y-114590871D01*
X119195871Y-114726629D01*
X119122400Y-114904005D01*
X115719200Y-114904005D01*
X115681483Y-114812948D01*
X115545725Y-114677190D01*
X115368349Y-114603719D01*
X115176359Y-114603719D01*
X114998983Y-114677190D01*
X114863225Y-114812948D01*
X114789754Y-114990324D01*
X106642316Y-114990324D01*
X106638164Y-114980302D01*
X106502406Y-114844544D01*
X106325030Y-114771073D01*
X106133040Y-114771073D01*
X105955664Y-114844544D01*
X105819906Y-114980302D01*
X105746435Y-115157678D01*
X103291645Y-115157678D01*
X103246506Y-115048704D01*
X102648396Y-114450594D01*
X102316031Y-114312924D01*
X108236554Y-114312924D01*
X108236554Y-114504914D01*
X108310025Y-114682290D01*
X108445783Y-114818048D01*
X108623159Y-114891519D01*
X108815149Y-114891519D01*
X108992525Y-114818048D01*
X109125554Y-114685019D01*
X109258583Y-114818048D01*
X109435959Y-114891519D01*
X109627949Y-114891519D01*
X109805325Y-114818048D01*
X109941083Y-114682290D01*
X110014554Y-114504914D01*
X110014554Y-114312924D01*
X109941083Y-114135548D01*
X109805325Y-113999790D01*
X109627949Y-113926319D01*
X109435959Y-113926319D01*
X109258583Y-113999790D01*
X109125554Y-114132819D01*
X108992525Y-113999790D01*
X108815149Y-113926319D01*
X108623159Y-113926319D01*
X108445783Y-113999790D01*
X108310025Y-114135548D01*
X108236554Y-114312924D01*
X102316031Y-114312924D01*
X101866928Y-114126900D01*
X101021072Y-114126900D01*
X100239604Y-114450594D01*
X99641494Y-115048704D01*
X99317800Y-115830172D01*
X99065954Y-115830172D01*
X99065954Y-113142228D01*
X99834754Y-113142228D01*
X99834754Y-113372410D01*
X99922841Y-113585069D01*
X100085604Y-113747832D01*
X100298263Y-113835919D01*
X100528445Y-113835919D01*
X100741104Y-113747832D01*
X100774931Y-113714005D01*
X111942400Y-113714005D01*
X111942400Y-113905995D01*
X112015871Y-114083371D01*
X112151629Y-114219129D01*
X112329005Y-114292600D01*
X112520995Y-114292600D01*
X112698371Y-114219129D01*
X112834129Y-114083371D01*
X112907600Y-113905995D01*
X112907600Y-113714005D01*
X112834129Y-113536629D01*
X112698371Y-113400871D01*
X112520995Y-113327400D01*
X112329005Y-113327400D01*
X112151629Y-113400871D01*
X112015871Y-113536629D01*
X111942400Y-113714005D01*
X100774931Y-113714005D01*
X100903867Y-113585069D01*
X100991954Y-113372410D01*
X100991954Y-113142228D01*
X100903867Y-112929569D01*
X100741104Y-112766806D01*
X100528445Y-112678719D01*
X100298263Y-112678719D01*
X100085604Y-112766806D01*
X99922841Y-112929569D01*
X99834754Y-113142228D01*
X99065954Y-113142228D01*
X99065954Y-112280924D01*
X102115154Y-112280924D01*
X102115154Y-112472914D01*
X102188625Y-112650290D01*
X102324383Y-112786048D01*
X102501759Y-112859519D01*
X102693749Y-112859519D01*
X102871125Y-112786048D01*
X102953168Y-112704005D01*
X111152400Y-112704005D01*
X111152400Y-112895995D01*
X111225871Y-113073371D01*
X111361629Y-113209129D01*
X111539005Y-113282600D01*
X111730995Y-113282600D01*
X111908371Y-113209129D01*
X112044129Y-113073371D01*
X112117600Y-112895995D01*
X112117600Y-112704005D01*
X112044129Y-112526629D01*
X111908371Y-112390871D01*
X111795226Y-112344005D01*
X113812400Y-112344005D01*
X113812400Y-112535995D01*
X113885871Y-112713371D01*
X113937500Y-112765000D01*
X113895871Y-112806629D01*
X113822400Y-112984005D01*
X113822400Y-113175995D01*
X113895871Y-113353371D01*
X114031629Y-113489129D01*
X114209005Y-113562600D01*
X114400995Y-113562600D01*
X114445887Y-113544005D01*
X115305000Y-113544005D01*
X115305000Y-113735995D01*
X115378471Y-113913371D01*
X115514229Y-114049129D01*
X115691605Y-114122600D01*
X115883595Y-114122600D01*
X116060971Y-114049129D01*
X116196729Y-113913371D01*
X116270200Y-113735995D01*
X116270200Y-113544005D01*
X116592400Y-113544005D01*
X116592400Y-113735995D01*
X116665871Y-113913371D01*
X116801629Y-114049129D01*
X116979005Y-114122600D01*
X117170995Y-114122600D01*
X117348371Y-114049129D01*
X117484129Y-113913371D01*
X117537133Y-113785405D01*
X124805800Y-113785405D01*
X124805800Y-113977395D01*
X124879271Y-114154771D01*
X125015029Y-114290529D01*
X125192405Y-114364000D01*
X125384395Y-114364000D01*
X125561771Y-114290529D01*
X125697529Y-114154771D01*
X125771000Y-113977395D01*
X125771000Y-113785405D01*
X125697529Y-113608029D01*
X125561771Y-113472271D01*
X125384395Y-113398800D01*
X125192405Y-113398800D01*
X125015029Y-113472271D01*
X124879271Y-113608029D01*
X124805800Y-113785405D01*
X117537133Y-113785405D01*
X117557600Y-113735995D01*
X117557600Y-113544005D01*
X117484129Y-113366629D01*
X117348371Y-113230871D01*
X117170995Y-113157400D01*
X116979005Y-113157400D01*
X116801629Y-113230871D01*
X116665871Y-113366629D01*
X116592400Y-113544005D01*
X116270200Y-113544005D01*
X116196729Y-113366629D01*
X116060971Y-113230871D01*
X115883595Y-113157400D01*
X115691605Y-113157400D01*
X115514229Y-113230871D01*
X115378471Y-113366629D01*
X115305000Y-113544005D01*
X114445887Y-113544005D01*
X114578371Y-113489129D01*
X114714129Y-113353371D01*
X114787600Y-113175995D01*
X114787600Y-113142228D01*
X139458754Y-113142228D01*
X139458754Y-113372410D01*
X139546841Y-113585069D01*
X139709604Y-113747832D01*
X139922263Y-113835919D01*
X140152445Y-113835919D01*
X140365104Y-113747832D01*
X140527867Y-113585069D01*
X140615954Y-113372410D01*
X140615954Y-113142228D01*
X140527867Y-112929569D01*
X140365104Y-112766806D01*
X140152445Y-112678719D01*
X139922263Y-112678719D01*
X139709604Y-112766806D01*
X139546841Y-112929569D01*
X139458754Y-113142228D01*
X114787600Y-113142228D01*
X114787600Y-112984005D01*
X114714129Y-112806629D01*
X114662500Y-112755000D01*
X114704129Y-112713371D01*
X114777600Y-112535995D01*
X114777600Y-112374005D01*
X118252400Y-112374005D01*
X118252400Y-112565995D01*
X118325871Y-112743371D01*
X118461629Y-112879129D01*
X118639005Y-112952600D01*
X118830995Y-112952600D01*
X119008371Y-112879129D01*
X119144129Y-112743371D01*
X119217600Y-112565995D01*
X119217600Y-112374005D01*
X119204592Y-112342600D01*
X119270995Y-112342600D01*
X119448371Y-112269129D01*
X119461976Y-112255524D01*
X137319554Y-112255524D01*
X137319554Y-112447514D01*
X137393025Y-112624890D01*
X137528783Y-112760648D01*
X137706159Y-112834119D01*
X137898149Y-112834119D01*
X138075525Y-112760648D01*
X138211283Y-112624890D01*
X138284754Y-112447514D01*
X138284754Y-112255524D01*
X138211283Y-112078148D01*
X138075525Y-111942390D01*
X137898149Y-111868919D01*
X137706159Y-111868919D01*
X137528783Y-111942390D01*
X137393025Y-112078148D01*
X137319554Y-112255524D01*
X119461976Y-112255524D01*
X119584129Y-112133371D01*
X119657600Y-111955995D01*
X119657600Y-111764005D01*
X119584129Y-111586629D01*
X119448371Y-111450871D01*
X119270995Y-111377400D01*
X119079005Y-111377400D01*
X118901629Y-111450871D01*
X118765871Y-111586629D01*
X118692400Y-111764005D01*
X118692400Y-111955995D01*
X118705408Y-111987400D01*
X118639005Y-111987400D01*
X118461629Y-112060871D01*
X118325871Y-112196629D01*
X118252400Y-112374005D01*
X114777600Y-112374005D01*
X114777600Y-112344005D01*
X114704129Y-112166629D01*
X114568371Y-112030871D01*
X114390995Y-111957400D01*
X114199005Y-111957400D01*
X114021629Y-112030871D01*
X113885871Y-112166629D01*
X113812400Y-112344005D01*
X111795226Y-112344005D01*
X111730995Y-112317400D01*
X111539005Y-112317400D01*
X111361629Y-112390871D01*
X111225871Y-112526629D01*
X111152400Y-112704005D01*
X102953168Y-112704005D01*
X103006883Y-112650290D01*
X103080354Y-112472914D01*
X103080354Y-112280924D01*
X103006883Y-112103548D01*
X102871125Y-111967790D01*
X102693749Y-111894319D01*
X102501759Y-111894319D01*
X102324383Y-111967790D01*
X102188625Y-112103548D01*
X102115154Y-112280924D01*
X99065954Y-112280924D01*
X99065954Y-110519324D01*
X104559754Y-110519324D01*
X104559754Y-110711314D01*
X104633225Y-110888690D01*
X104768983Y-111024448D01*
X104946359Y-111097919D01*
X105138349Y-111097919D01*
X105315725Y-111024448D01*
X105451483Y-110888690D01*
X105524954Y-110711314D01*
X105524954Y-110519324D01*
X105451483Y-110341948D01*
X105315725Y-110206190D01*
X105138349Y-110132719D01*
X104946359Y-110132719D01*
X104768983Y-110206190D01*
X104633225Y-110341948D01*
X104559754Y-110519324D01*
X99065954Y-110519324D01*
X99065954Y-109817124D01*
X102115154Y-109817124D01*
X102115154Y-110009114D01*
X102188625Y-110186490D01*
X102324383Y-110322248D01*
X102501759Y-110395719D01*
X102693749Y-110395719D01*
X102871125Y-110322248D01*
X103006883Y-110186490D01*
X103080354Y-110009114D01*
X103080354Y-109817124D01*
X103006883Y-109639748D01*
X102871125Y-109503990D01*
X102693749Y-109430519D01*
X102501759Y-109430519D01*
X102324383Y-109503990D01*
X102188625Y-109639748D01*
X102115154Y-109817124D01*
X99065954Y-109817124D01*
X99065954Y-108892228D01*
X99834754Y-108892228D01*
X99834754Y-109122410D01*
X99922841Y-109335069D01*
X100085604Y-109497832D01*
X100298263Y-109585919D01*
X100528445Y-109585919D01*
X100741104Y-109497832D01*
X100903867Y-109335069D01*
X100991954Y-109122410D01*
X100991954Y-108892228D01*
X100903867Y-108679569D01*
X100741104Y-108516806D01*
X100528445Y-108428719D01*
X100298263Y-108428719D01*
X100085604Y-108516806D01*
X99922841Y-108679569D01*
X99834754Y-108892228D01*
X99065954Y-108892228D01*
X99065954Y-94528720D01*
X100623679Y-94528720D01*
X100680227Y-94813006D01*
X100841262Y-95054011D01*
X101005453Y-95163720D01*
X100841262Y-95273429D01*
X100680227Y-95514434D01*
X100623679Y-95798720D01*
X100680227Y-96083006D01*
X100841262Y-96324011D01*
X101005453Y-96433720D01*
X100841262Y-96543429D01*
X100680227Y-96784434D01*
X100623679Y-97068720D01*
X100680227Y-97353006D01*
X100841262Y-97594011D01*
X101005453Y-97703720D01*
X100841262Y-97813429D01*
X100680227Y-98054434D01*
X100623679Y-98338720D01*
X100680227Y-98623006D01*
X100841262Y-98864011D01*
X101005453Y-98973720D01*
X100841262Y-99083429D01*
X100680227Y-99324434D01*
X100623679Y-99608720D01*
X100680227Y-99893006D01*
X100841262Y-100134011D01*
X101082267Y-100295046D01*
X101294793Y-100337320D01*
X101438313Y-100337320D01*
X101650839Y-100295046D01*
X101891844Y-100134011D01*
X102001553Y-99969820D01*
X102111262Y-100134011D01*
X102352267Y-100295046D01*
X102564793Y-100337320D01*
X102708313Y-100337320D01*
X102920839Y-100295046D01*
X103161844Y-100134011D01*
X103322879Y-99893006D01*
X103379427Y-99608720D01*
X103322879Y-99324434D01*
X103161844Y-99083429D01*
X102997653Y-98973720D01*
X103161844Y-98864011D01*
X103322879Y-98623006D01*
X103379427Y-98338720D01*
X103322879Y-98054434D01*
X103161844Y-97813429D01*
X102997653Y-97703720D01*
X103161844Y-97594011D01*
X103322879Y-97353006D01*
X103379427Y-97068720D01*
X103322879Y-96784434D01*
X103161844Y-96543429D01*
X102997653Y-96433720D01*
X103161844Y-96324011D01*
X103322879Y-96083006D01*
X103379427Y-95798720D01*
X103322879Y-95514434D01*
X103161844Y-95273429D01*
X103137735Y-95257320D01*
X103182024Y-95257320D01*
X103266044Y-95222518D01*
X103330350Y-95158212D01*
X103365153Y-95074192D01*
X103365153Y-94636670D01*
X103308003Y-94579520D01*
X102687353Y-94579520D01*
X102687353Y-94599520D01*
X102585753Y-94599520D01*
X102585753Y-94579520D01*
X102565753Y-94579520D01*
X102565753Y-94477920D01*
X102585753Y-94477920D01*
X102585753Y-93857270D01*
X102687353Y-93857270D01*
X102687353Y-94477920D01*
X103308003Y-94477920D01*
X103365153Y-94420770D01*
X103365153Y-93983248D01*
X103330350Y-93899228D01*
X103266044Y-93834922D01*
X103182024Y-93800120D01*
X102744503Y-93800120D01*
X102687353Y-93857270D01*
X102585753Y-93857270D01*
X102528603Y-93800120D01*
X102091082Y-93800120D01*
X102007062Y-93834922D01*
X101942756Y-93899228D01*
X101907953Y-93983248D01*
X101907953Y-94027538D01*
X101891844Y-94003429D01*
X101650839Y-93842394D01*
X101438313Y-93800120D01*
X101294793Y-93800120D01*
X101082267Y-93842394D01*
X100841262Y-94003429D01*
X100680227Y-94244434D01*
X100623679Y-94528720D01*
X99065954Y-94528720D01*
X99065954Y-89976422D01*
X106458754Y-89976422D01*
X106458755Y-111036217D01*
X106464588Y-111065541D01*
X106464588Y-111065548D01*
X106540707Y-111448226D01*
X106540707Y-111448231D01*
X106586040Y-111557673D01*
X106802813Y-111882097D01*
X106886576Y-111965860D01*
X107211000Y-112182633D01*
X107320442Y-112227966D01*
X107320447Y-112227966D01*
X107703125Y-112304085D01*
X107703127Y-112304085D01*
X107732456Y-112309919D01*
X109792252Y-112309919D01*
X109821581Y-112304085D01*
X109821583Y-112304085D01*
X110204261Y-112227966D01*
X110204266Y-112227966D01*
X110313708Y-112182633D01*
X110638132Y-111965860D01*
X110721895Y-111882097D01*
X110938668Y-111557673D01*
X110984001Y-111448231D01*
X110984001Y-111448226D01*
X111018655Y-111274005D01*
X111172400Y-111274005D01*
X111172400Y-111465995D01*
X111245871Y-111643371D01*
X111381629Y-111779129D01*
X111559005Y-111852600D01*
X111750995Y-111852600D01*
X111928371Y-111779129D01*
X112064129Y-111643371D01*
X112137600Y-111465995D01*
X112137600Y-111274005D01*
X112064129Y-111096629D01*
X112003824Y-111036324D01*
X137141754Y-111036324D01*
X137141754Y-111228314D01*
X137215225Y-111405690D01*
X137350983Y-111541448D01*
X137528359Y-111614919D01*
X137720349Y-111614919D01*
X137897725Y-111541448D01*
X138033483Y-111405690D01*
X138106954Y-111228314D01*
X138106954Y-111036324D01*
X138033483Y-110858948D01*
X137897725Y-110723190D01*
X137720349Y-110649719D01*
X137528359Y-110649719D01*
X137350983Y-110723190D01*
X137215225Y-110858948D01*
X137141754Y-111036324D01*
X112003824Y-111036324D01*
X111928371Y-110960871D01*
X111750995Y-110887400D01*
X111559005Y-110887400D01*
X111381629Y-110960871D01*
X111245871Y-111096629D01*
X111172400Y-111274005D01*
X111018655Y-111274005D01*
X111060120Y-111065548D01*
X111060120Y-111065546D01*
X111065954Y-111036217D01*
X111065954Y-110274005D01*
X111172400Y-110274005D01*
X111172400Y-110465995D01*
X111245871Y-110643371D01*
X111381629Y-110779129D01*
X111559005Y-110852600D01*
X111750995Y-110852600D01*
X111928371Y-110779129D01*
X112064129Y-110643371D01*
X112137600Y-110465995D01*
X112137600Y-110374005D01*
X131592400Y-110374005D01*
X131592400Y-110565995D01*
X131665871Y-110743371D01*
X131801629Y-110879129D01*
X131979005Y-110952600D01*
X132170995Y-110952600D01*
X132348371Y-110879129D01*
X132484129Y-110743371D01*
X132557600Y-110565995D01*
X132557600Y-110384005D01*
X132882400Y-110384005D01*
X132882400Y-110575995D01*
X132955871Y-110753371D01*
X133091629Y-110889129D01*
X133269005Y-110962600D01*
X133460995Y-110962600D01*
X133638371Y-110889129D01*
X133774129Y-110753371D01*
X133847600Y-110575995D01*
X133847600Y-110384005D01*
X133774129Y-110206629D01*
X133638371Y-110070871D01*
X133460995Y-109997400D01*
X133269005Y-109997400D01*
X133091629Y-110070871D01*
X132955871Y-110206629D01*
X132882400Y-110384005D01*
X132557600Y-110384005D01*
X132557600Y-110374005D01*
X132484129Y-110196629D01*
X132348371Y-110060871D01*
X132170995Y-109987400D01*
X131979005Y-109987400D01*
X131801629Y-110060871D01*
X131665871Y-110196629D01*
X131592400Y-110374005D01*
X112137600Y-110374005D01*
X112137600Y-110274005D01*
X112064129Y-110096629D01*
X111928371Y-109960871D01*
X111750995Y-109887400D01*
X111559005Y-109887400D01*
X111381629Y-109960871D01*
X111245871Y-110096629D01*
X111172400Y-110274005D01*
X111065954Y-110274005D01*
X111065954Y-109284005D01*
X111172400Y-109284005D01*
X111172400Y-109475995D01*
X111245871Y-109653371D01*
X111381629Y-109789129D01*
X111559005Y-109862600D01*
X111750995Y-109862600D01*
X111860784Y-109817124D01*
X137319554Y-109817124D01*
X137319554Y-110009114D01*
X137393025Y-110186490D01*
X137528783Y-110322248D01*
X137706159Y-110395719D01*
X137898149Y-110395719D01*
X138075525Y-110322248D01*
X138211283Y-110186490D01*
X138284754Y-110009114D01*
X138284754Y-109817124D01*
X138211283Y-109639748D01*
X138075525Y-109503990D01*
X137898149Y-109430519D01*
X137706159Y-109430519D01*
X137528783Y-109503990D01*
X137393025Y-109639748D01*
X137319554Y-109817124D01*
X111860784Y-109817124D01*
X111928371Y-109789129D01*
X112064129Y-109653371D01*
X112137600Y-109475995D01*
X112137600Y-109284005D01*
X112064129Y-109106629D01*
X111928371Y-108970871D01*
X111750995Y-108897400D01*
X111559005Y-108897400D01*
X111381629Y-108970871D01*
X111245871Y-109106629D01*
X111172400Y-109284005D01*
X111065954Y-109284005D01*
X111065954Y-108724005D01*
X114802400Y-108724005D01*
X114802400Y-108915995D01*
X114875871Y-109093371D01*
X115011629Y-109229129D01*
X115189005Y-109302600D01*
X115380995Y-109302600D01*
X115558371Y-109229129D01*
X115694129Y-109093371D01*
X115767600Y-108915995D01*
X115767600Y-108724005D01*
X115751032Y-108684005D01*
X116162400Y-108684005D01*
X116162400Y-108875995D01*
X116235871Y-109053371D01*
X116371629Y-109189129D01*
X116549005Y-109262600D01*
X116740995Y-109262600D01*
X116918371Y-109189129D01*
X117054129Y-109053371D01*
X117120876Y-108892228D01*
X139458754Y-108892228D01*
X139458754Y-109122410D01*
X139546841Y-109335069D01*
X139709604Y-109497832D01*
X139922263Y-109585919D01*
X140152445Y-109585919D01*
X140365104Y-109497832D01*
X140527867Y-109335069D01*
X140615954Y-109122410D01*
X140615954Y-108892228D01*
X140527867Y-108679569D01*
X140365104Y-108516806D01*
X140152445Y-108428719D01*
X139922263Y-108428719D01*
X139709604Y-108516806D01*
X139546841Y-108679569D01*
X139458754Y-108892228D01*
X117120876Y-108892228D01*
X117127600Y-108875995D01*
X117127600Y-108684005D01*
X117054129Y-108506629D01*
X116918371Y-108370871D01*
X116740995Y-108297400D01*
X116549005Y-108297400D01*
X116371629Y-108370871D01*
X116235871Y-108506629D01*
X116162400Y-108684005D01*
X115751032Y-108684005D01*
X115694129Y-108546629D01*
X115558371Y-108410871D01*
X115380995Y-108337400D01*
X115189005Y-108337400D01*
X115011629Y-108410871D01*
X114875871Y-108546629D01*
X114802400Y-108724005D01*
X111065954Y-108724005D01*
X111065954Y-107904005D01*
X118117400Y-107904005D01*
X118117400Y-108095995D01*
X118190871Y-108273371D01*
X118326629Y-108409129D01*
X118504005Y-108482600D01*
X118695995Y-108482600D01*
X118873371Y-108409129D01*
X119009129Y-108273371D01*
X119082600Y-108095995D01*
X119082600Y-107904005D01*
X119009129Y-107726629D01*
X118873371Y-107590871D01*
X118695995Y-107517400D01*
X118504005Y-107517400D01*
X118326629Y-107590871D01*
X118190871Y-107726629D01*
X118117400Y-107904005D01*
X111065954Y-107904005D01*
X111065954Y-107120324D01*
X135459754Y-107120324D01*
X135459754Y-107312314D01*
X135533225Y-107489690D01*
X135668983Y-107625448D01*
X135846359Y-107698919D01*
X136038349Y-107698919D01*
X136215725Y-107625448D01*
X136351483Y-107489690D01*
X136424954Y-107312314D01*
X136424954Y-107120324D01*
X136351483Y-106942948D01*
X136215725Y-106807190D01*
X136038349Y-106733719D01*
X135846359Y-106733719D01*
X135668983Y-106807190D01*
X135533225Y-106942948D01*
X135459754Y-107120324D01*
X111065954Y-107120324D01*
X111065954Y-106134005D01*
X128852394Y-106134005D01*
X128852394Y-106325995D01*
X128925865Y-106503371D01*
X129061623Y-106639129D01*
X129238999Y-106712600D01*
X129430989Y-106712600D01*
X129608365Y-106639129D01*
X129744123Y-106503371D01*
X129817594Y-106325995D01*
X129817594Y-106154005D01*
X130052400Y-106154005D01*
X130052400Y-106345995D01*
X130125871Y-106523371D01*
X130261629Y-106659129D01*
X130439005Y-106732600D01*
X130630995Y-106732600D01*
X130808371Y-106659129D01*
X130944129Y-106523371D01*
X131017600Y-106345995D01*
X131017600Y-106154005D01*
X130944129Y-105976629D01*
X130928905Y-105961405D01*
X138762400Y-105961405D01*
X138762400Y-106153395D01*
X138835871Y-106330771D01*
X138971629Y-106466529D01*
X139149005Y-106540000D01*
X139340995Y-106540000D01*
X139518371Y-106466529D01*
X139654129Y-106330771D01*
X139727600Y-106153395D01*
X139727600Y-105961405D01*
X139654129Y-105784029D01*
X139518371Y-105648271D01*
X139340995Y-105574800D01*
X139149005Y-105574800D01*
X138971629Y-105648271D01*
X138835871Y-105784029D01*
X138762400Y-105961405D01*
X130928905Y-105961405D01*
X130808371Y-105840871D01*
X130630995Y-105767400D01*
X130439005Y-105767400D01*
X130261629Y-105840871D01*
X130125871Y-105976629D01*
X130052400Y-106154005D01*
X129817594Y-106154005D01*
X129817594Y-106134005D01*
X129744123Y-105956629D01*
X129608365Y-105820871D01*
X129430989Y-105747400D01*
X129238999Y-105747400D01*
X129061623Y-105820871D01*
X128925865Y-105956629D01*
X128852394Y-106134005D01*
X111065954Y-106134005D01*
X111065954Y-104724005D01*
X137542400Y-104724005D01*
X137542400Y-104915995D01*
X137615871Y-105093371D01*
X137751629Y-105229129D01*
X137929005Y-105302600D01*
X138120995Y-105302600D01*
X138298371Y-105229129D01*
X138434129Y-105093371D01*
X138507600Y-104915995D01*
X138507600Y-104724005D01*
X138498189Y-104701283D01*
X138623754Y-104701283D01*
X138623754Y-104951355D01*
X138719453Y-105182392D01*
X138896281Y-105359220D01*
X139127318Y-105454919D01*
X139377390Y-105454919D01*
X139608427Y-105359220D01*
X139785255Y-105182392D01*
X139880954Y-104951355D01*
X139880954Y-104734005D01*
X139992400Y-104734005D01*
X139992400Y-104925995D01*
X140065871Y-105103371D01*
X140201629Y-105239129D01*
X140379005Y-105312600D01*
X140570995Y-105312600D01*
X140748371Y-105239129D01*
X140884129Y-105103371D01*
X140957600Y-104925995D01*
X140957600Y-104734005D01*
X140884129Y-104556629D01*
X140748371Y-104420871D01*
X140570995Y-104347400D01*
X140379005Y-104347400D01*
X140201629Y-104420871D01*
X140065871Y-104556629D01*
X139992400Y-104734005D01*
X139880954Y-104734005D01*
X139880954Y-104701283D01*
X139785255Y-104470246D01*
X139608427Y-104293418D01*
X139377390Y-104197719D01*
X139127318Y-104197719D01*
X138896281Y-104293418D01*
X138719453Y-104470246D01*
X138623754Y-104701283D01*
X138498189Y-104701283D01*
X138434129Y-104546629D01*
X138298371Y-104410871D01*
X138120995Y-104337400D01*
X137929005Y-104337400D01*
X137751629Y-104410871D01*
X137615871Y-104546629D01*
X137542400Y-104724005D01*
X111065954Y-104724005D01*
X111065954Y-103650324D01*
X117607364Y-103650324D01*
X117607364Y-103842314D01*
X117680835Y-104019690D01*
X117816593Y-104155448D01*
X117993969Y-104228919D01*
X118185959Y-104228919D01*
X118363335Y-104155448D01*
X118499093Y-104019690D01*
X118572564Y-103842314D01*
X118572564Y-103650324D01*
X118511958Y-103504005D01*
X138762400Y-103504005D01*
X138762400Y-103695995D01*
X138835871Y-103873371D01*
X138971629Y-104009129D01*
X139149005Y-104082600D01*
X139340995Y-104082600D01*
X139518371Y-104009129D01*
X139654129Y-103873371D01*
X139727600Y-103695995D01*
X139727600Y-103504005D01*
X139654129Y-103326629D01*
X139518371Y-103190871D01*
X139340995Y-103117400D01*
X139149005Y-103117400D01*
X138971629Y-103190871D01*
X138835871Y-103326629D01*
X138762400Y-103504005D01*
X118511958Y-103504005D01*
X118499093Y-103472948D01*
X118363335Y-103337190D01*
X118185959Y-103263719D01*
X117993969Y-103263719D01*
X117816593Y-103337190D01*
X117680835Y-103472948D01*
X117607364Y-103650324D01*
X111065954Y-103650324D01*
X111065954Y-102152924D01*
X119999756Y-102152924D01*
X119999756Y-102344914D01*
X120073227Y-102522290D01*
X120208985Y-102658048D01*
X120386361Y-102731519D01*
X120578351Y-102731519D01*
X120755727Y-102658048D01*
X120891485Y-102522290D01*
X120964956Y-102344914D01*
X120964956Y-102152924D01*
X120891485Y-101975548D01*
X120755727Y-101839790D01*
X120578351Y-101766319D01*
X120386361Y-101766319D01*
X120208985Y-101839790D01*
X120073227Y-101975548D01*
X119999756Y-102152924D01*
X111065954Y-102152924D01*
X111065954Y-101660324D01*
X122099744Y-101660324D01*
X122099744Y-101852314D01*
X122173215Y-102029690D01*
X122308973Y-102165448D01*
X122486349Y-102238919D01*
X122678339Y-102238919D01*
X122855715Y-102165448D01*
X122991473Y-102029690D01*
X123052260Y-101882934D01*
X127572400Y-101882934D01*
X127572400Y-102074924D01*
X127645871Y-102252300D01*
X127781629Y-102388058D01*
X127959005Y-102461529D01*
X128150995Y-102461529D01*
X128328371Y-102388058D01*
X128464129Y-102252300D01*
X128537600Y-102074924D01*
X128537600Y-101882934D01*
X128521476Y-101844005D01*
X134172400Y-101844005D01*
X134172400Y-102035995D01*
X134245871Y-102213371D01*
X134381629Y-102349129D01*
X134559005Y-102422600D01*
X134750995Y-102422600D01*
X134928371Y-102349129D01*
X135064129Y-102213371D01*
X135137600Y-102035995D01*
X135137600Y-101844005D01*
X135262400Y-101844005D01*
X135262400Y-102035995D01*
X135335871Y-102213371D01*
X135471629Y-102349129D01*
X135649005Y-102422600D01*
X135840995Y-102422600D01*
X136018371Y-102349129D01*
X136154129Y-102213371D01*
X136227600Y-102035995D01*
X136227600Y-101844005D01*
X136154129Y-101666629D01*
X136018371Y-101530871D01*
X135840995Y-101457400D01*
X135649005Y-101457400D01*
X135471629Y-101530871D01*
X135335871Y-101666629D01*
X135262400Y-101844005D01*
X135137600Y-101844005D01*
X135064129Y-101666629D01*
X134928371Y-101530871D01*
X134750995Y-101457400D01*
X134559005Y-101457400D01*
X134381629Y-101530871D01*
X134245871Y-101666629D01*
X134172400Y-101844005D01*
X128521476Y-101844005D01*
X128464129Y-101705558D01*
X128328371Y-101569800D01*
X128150995Y-101496329D01*
X127959005Y-101496329D01*
X127781629Y-101569800D01*
X127645871Y-101705558D01*
X127572400Y-101882934D01*
X123052260Y-101882934D01*
X123064944Y-101852314D01*
X123064944Y-101660324D01*
X122991473Y-101482948D01*
X122855715Y-101347190D01*
X122678339Y-101273719D01*
X122486349Y-101273719D01*
X122308973Y-101347190D01*
X122173215Y-101482948D01*
X122099744Y-101660324D01*
X111065954Y-101660324D01*
X111065954Y-100130324D01*
X122069752Y-100130324D01*
X122069752Y-100322314D01*
X122143223Y-100499690D01*
X122278981Y-100635448D01*
X122456357Y-100708919D01*
X122648347Y-100708919D01*
X122765666Y-100660324D01*
X124409754Y-100660324D01*
X124409754Y-100852314D01*
X124483225Y-101029690D01*
X124618983Y-101165448D01*
X124796359Y-101238919D01*
X124988349Y-101238919D01*
X125119754Y-101184490D01*
X125119754Y-101342314D01*
X125193225Y-101519690D01*
X125328983Y-101655448D01*
X125506359Y-101728919D01*
X125698349Y-101728919D01*
X125875725Y-101655448D01*
X126011483Y-101519690D01*
X126084954Y-101342314D01*
X126084954Y-101150324D01*
X126011483Y-100972948D01*
X125875725Y-100837190D01*
X125698349Y-100763719D01*
X125506359Y-100763719D01*
X125374954Y-100818148D01*
X125374954Y-100660324D01*
X125301483Y-100482948D01*
X125165725Y-100347190D01*
X124988349Y-100273719D01*
X124796359Y-100273719D01*
X124618983Y-100347190D01*
X124483225Y-100482948D01*
X124409754Y-100660324D01*
X122765666Y-100660324D01*
X122825723Y-100635448D01*
X122961481Y-100499690D01*
X123034952Y-100322314D01*
X123034952Y-100130324D01*
X122961481Y-99952948D01*
X122825723Y-99817190D01*
X122648347Y-99743719D01*
X122456357Y-99743719D01*
X122278981Y-99817190D01*
X122143223Y-99952948D01*
X122069752Y-100130324D01*
X111065954Y-100130324D01*
X111065954Y-99160324D01*
X117607364Y-99160324D01*
X117607364Y-99352314D01*
X117680835Y-99529690D01*
X117816593Y-99665448D01*
X117993969Y-99738919D01*
X118185959Y-99738919D01*
X118363335Y-99665448D01*
X118499093Y-99529690D01*
X118572564Y-99352314D01*
X118572564Y-99160324D01*
X118499093Y-98982948D01*
X118486469Y-98970324D01*
X121939754Y-98970324D01*
X121939754Y-99162314D01*
X122013225Y-99339690D01*
X122148983Y-99475448D01*
X122326359Y-99548919D01*
X122518349Y-99548919D01*
X122650924Y-99494005D01*
X129142400Y-99494005D01*
X129142400Y-99685995D01*
X129215871Y-99863371D01*
X129351629Y-99999129D01*
X129529005Y-100072600D01*
X129720995Y-100072600D01*
X129898371Y-99999129D01*
X130034129Y-99863371D01*
X130107600Y-99685995D01*
X130107600Y-99494005D01*
X130055788Y-99368919D01*
X130098349Y-99368919D01*
X130275725Y-99295448D01*
X130411483Y-99159690D01*
X130484954Y-98982314D01*
X130484954Y-98790324D01*
X130447676Y-98700324D01*
X130869754Y-98700324D01*
X130869754Y-98892314D01*
X130943225Y-99069690D01*
X131078983Y-99205448D01*
X131256359Y-99278919D01*
X131448349Y-99278919D01*
X131625725Y-99205448D01*
X131761483Y-99069690D01*
X131834954Y-98892314D01*
X131834954Y-98700324D01*
X131832337Y-98694005D01*
X131962400Y-98694005D01*
X131962400Y-98885995D01*
X132035871Y-99063371D01*
X132171629Y-99199129D01*
X132349005Y-99272600D01*
X132540995Y-99272600D01*
X132718371Y-99199129D01*
X132854129Y-99063371D01*
X132927600Y-98885995D01*
X132927600Y-98694005D01*
X133072400Y-98694005D01*
X133072400Y-98885995D01*
X133145871Y-99063371D01*
X133281629Y-99199129D01*
X133459005Y-99272600D01*
X133650995Y-99272600D01*
X133828371Y-99199129D01*
X133964129Y-99063371D01*
X134037600Y-98885995D01*
X134037600Y-98694005D01*
X133964129Y-98516629D01*
X133851505Y-98404005D01*
X135722400Y-98404005D01*
X135722400Y-98595995D01*
X135795871Y-98773371D01*
X135931629Y-98909129D01*
X136109005Y-98982600D01*
X136300995Y-98982600D01*
X136478371Y-98909129D01*
X136614129Y-98773371D01*
X136687600Y-98595995D01*
X136687600Y-98404005D01*
X136614129Y-98226629D01*
X136478371Y-98090871D01*
X136300995Y-98017400D01*
X136109005Y-98017400D01*
X135931629Y-98090871D01*
X135795871Y-98226629D01*
X135722400Y-98404005D01*
X133851505Y-98404005D01*
X133828371Y-98380871D01*
X133650995Y-98307400D01*
X133459005Y-98307400D01*
X133281629Y-98380871D01*
X133145871Y-98516629D01*
X133072400Y-98694005D01*
X132927600Y-98694005D01*
X132854129Y-98516629D01*
X132718371Y-98380871D01*
X132540995Y-98307400D01*
X132349005Y-98307400D01*
X132171629Y-98380871D01*
X132035871Y-98516629D01*
X131962400Y-98694005D01*
X131832337Y-98694005D01*
X131761483Y-98522948D01*
X131625725Y-98387190D01*
X131448349Y-98313719D01*
X131256359Y-98313719D01*
X131078983Y-98387190D01*
X130943225Y-98522948D01*
X130869754Y-98700324D01*
X130447676Y-98700324D01*
X130411483Y-98612948D01*
X130275725Y-98477190D01*
X130098349Y-98403719D01*
X129906359Y-98403719D01*
X129728983Y-98477190D01*
X129593225Y-98612948D01*
X129519754Y-98790324D01*
X129519754Y-98982314D01*
X129571566Y-99107400D01*
X129529005Y-99107400D01*
X129351629Y-99180871D01*
X129215871Y-99316629D01*
X129142400Y-99494005D01*
X122650924Y-99494005D01*
X122695725Y-99475448D01*
X122831483Y-99339690D01*
X122904954Y-99162314D01*
X122904954Y-98970324D01*
X122890321Y-98934997D01*
X122996359Y-98978919D01*
X123188349Y-98978919D01*
X123365725Y-98905448D01*
X123501483Y-98769690D01*
X123574954Y-98592314D01*
X123574954Y-98400324D01*
X123501483Y-98222948D01*
X123365725Y-98087190D01*
X123188349Y-98013719D01*
X122996359Y-98013719D01*
X122818983Y-98087190D01*
X122683225Y-98222948D01*
X122609754Y-98400324D01*
X122609754Y-98592314D01*
X122624387Y-98627641D01*
X122518349Y-98583719D01*
X122326359Y-98583719D01*
X122148983Y-98657190D01*
X122013225Y-98792948D01*
X121939754Y-98970324D01*
X118486469Y-98970324D01*
X118363335Y-98847190D01*
X118185959Y-98773719D01*
X117993969Y-98773719D01*
X117816593Y-98847190D01*
X117680835Y-98982948D01*
X117607364Y-99160324D01*
X111065954Y-99160324D01*
X111065954Y-97870324D01*
X119852354Y-97870324D01*
X119852354Y-98062314D01*
X119925825Y-98239690D01*
X120061583Y-98375448D01*
X120238959Y-98448919D01*
X120430949Y-98448919D01*
X120608325Y-98375448D01*
X120744083Y-98239690D01*
X120817554Y-98062314D01*
X120817554Y-97870324D01*
X120744083Y-97692948D01*
X120608325Y-97557190D01*
X120430949Y-97483719D01*
X120238959Y-97483719D01*
X120061583Y-97557190D01*
X119925825Y-97692948D01*
X119852354Y-97870324D01*
X111065954Y-97870324D01*
X111065954Y-96770324D01*
X119852354Y-96770324D01*
X119852354Y-96962314D01*
X119925825Y-97139690D01*
X120061583Y-97275448D01*
X120238959Y-97348919D01*
X120430949Y-97348919D01*
X120596553Y-97280324D01*
X123229754Y-97280324D01*
X123229754Y-97472314D01*
X123303225Y-97649690D01*
X123438983Y-97785448D01*
X123616359Y-97858919D01*
X123808349Y-97858919D01*
X123829099Y-97850324D01*
X130109754Y-97850324D01*
X130109754Y-98042314D01*
X130183225Y-98219690D01*
X130318983Y-98355448D01*
X130496359Y-98428919D01*
X130688349Y-98428919D01*
X130865725Y-98355448D01*
X131001483Y-98219690D01*
X131074954Y-98042314D01*
X131074954Y-97878919D01*
X131098349Y-97878919D01*
X131275725Y-97805448D01*
X131411483Y-97669690D01*
X131484954Y-97492314D01*
X131484954Y-97300324D01*
X131411483Y-97122948D01*
X131275725Y-96987190D01*
X131098349Y-96913719D01*
X130906359Y-96913719D01*
X130728983Y-96987190D01*
X130593225Y-97122948D01*
X130519754Y-97300324D01*
X130519754Y-97463719D01*
X130496359Y-97463719D01*
X130318983Y-97537190D01*
X130183225Y-97672948D01*
X130109754Y-97850324D01*
X123829099Y-97850324D01*
X123985725Y-97785448D01*
X124121483Y-97649690D01*
X124194954Y-97472314D01*
X124194954Y-97280324D01*
X124121483Y-97102948D01*
X123985725Y-96967190D01*
X123808349Y-96893719D01*
X123616359Y-96893719D01*
X123438983Y-96967190D01*
X123303225Y-97102948D01*
X123229754Y-97280324D01*
X120596553Y-97280324D01*
X120608325Y-97275448D01*
X120744083Y-97139690D01*
X120817554Y-96962314D01*
X120817554Y-96770324D01*
X120744083Y-96592948D01*
X120608325Y-96457190D01*
X120430949Y-96383719D01*
X120238959Y-96383719D01*
X120061583Y-96457190D01*
X119925825Y-96592948D01*
X119852354Y-96770324D01*
X111065954Y-96770324D01*
X111065954Y-94390324D01*
X115139754Y-94390324D01*
X115139754Y-94582314D01*
X115213225Y-94759690D01*
X115348983Y-94895448D01*
X115526359Y-94968919D01*
X115558620Y-94968919D01*
X115549754Y-94990324D01*
X115549754Y-95182314D01*
X115623225Y-95359690D01*
X115699854Y-95436319D01*
X115623225Y-95512948D01*
X115549754Y-95690324D01*
X115549754Y-95882314D01*
X115623225Y-96059690D01*
X115758983Y-96195448D01*
X115936359Y-96268919D01*
X116128349Y-96268919D01*
X116305725Y-96195448D01*
X116441483Y-96059690D01*
X116514954Y-95882314D01*
X116514954Y-95690324D01*
X116499911Y-95654005D01*
X130042400Y-95654005D01*
X130042400Y-95845995D01*
X130115871Y-96023371D01*
X130251629Y-96159129D01*
X130429005Y-96232600D01*
X130487400Y-96232600D01*
X130487400Y-96412395D01*
X130560871Y-96589771D01*
X130696629Y-96725529D01*
X130874005Y-96799000D01*
X131065995Y-96799000D01*
X131243371Y-96725529D01*
X131379129Y-96589771D01*
X131452600Y-96412395D01*
X131452600Y-96220405D01*
X131379129Y-96043029D01*
X131243371Y-95907271D01*
X131065995Y-95833800D01*
X131007600Y-95833800D01*
X131007600Y-95654005D01*
X130934129Y-95476629D01*
X130798371Y-95340871D01*
X130620995Y-95267400D01*
X130429005Y-95267400D01*
X130251629Y-95340871D01*
X130115871Y-95476629D01*
X130042400Y-95654005D01*
X116499911Y-95654005D01*
X116441483Y-95512948D01*
X116364854Y-95436319D01*
X116441483Y-95359690D01*
X116514954Y-95182314D01*
X116514954Y-94990324D01*
X116441483Y-94812948D01*
X116305725Y-94677190D01*
X116128349Y-94603719D01*
X116096088Y-94603719D01*
X116104954Y-94582314D01*
X116104954Y-94390324D01*
X116031483Y-94212948D01*
X115895725Y-94077190D01*
X115718349Y-94003719D01*
X115526359Y-94003719D01*
X115348983Y-94077190D01*
X115213225Y-94212948D01*
X115139754Y-94390324D01*
X111065954Y-94390324D01*
X111065954Y-93820324D01*
X118059754Y-93820324D01*
X118059754Y-94012314D01*
X118133225Y-94189690D01*
X118268983Y-94325448D01*
X118446359Y-94398919D01*
X118638349Y-94398919D01*
X118706365Y-94370746D01*
X119089754Y-94370746D01*
X119089754Y-94562736D01*
X119163225Y-94740112D01*
X119298983Y-94875870D01*
X119476359Y-94949341D01*
X119668349Y-94949341D01*
X119845725Y-94875870D01*
X119981483Y-94740112D01*
X120054954Y-94562736D01*
X120054954Y-94370746D01*
X120010990Y-94264605D01*
X125559800Y-94264605D01*
X125559800Y-94456595D01*
X125633271Y-94633971D01*
X125769029Y-94769729D01*
X125946405Y-94843200D01*
X126138395Y-94843200D01*
X126160593Y-94834005D01*
X130872400Y-94834005D01*
X130872400Y-95025995D01*
X130945871Y-95203371D01*
X131081629Y-95339129D01*
X131259005Y-95412600D01*
X131444906Y-95412600D01*
X131417400Y-95479005D01*
X131417400Y-95670995D01*
X131490871Y-95848371D01*
X131626629Y-95984129D01*
X131804005Y-96057600D01*
X131967402Y-96057600D01*
X131900000Y-96220324D01*
X131900000Y-96412314D01*
X131973471Y-96589690D01*
X132109229Y-96725448D01*
X132286605Y-96798919D01*
X132478595Y-96798919D01*
X132655971Y-96725448D01*
X132791729Y-96589690D01*
X132865200Y-96412314D01*
X132865200Y-96220324D01*
X132791729Y-96042948D01*
X132655971Y-95907190D01*
X132478595Y-95833719D01*
X132315198Y-95833719D01*
X132382600Y-95670995D01*
X132382600Y-95479005D01*
X132350952Y-95402600D01*
X132540995Y-95402600D01*
X132718371Y-95329129D01*
X132854129Y-95193371D01*
X132927600Y-95015995D01*
X132927600Y-94824005D01*
X133072400Y-94824005D01*
X133072400Y-95015995D01*
X133145871Y-95193371D01*
X133281629Y-95329129D01*
X133459005Y-95402600D01*
X133650995Y-95402600D01*
X133828371Y-95329129D01*
X133964129Y-95193371D01*
X134030007Y-95034324D01*
X134220754Y-95034324D01*
X134220754Y-95226314D01*
X134294225Y-95403690D01*
X134429983Y-95539448D01*
X134607359Y-95612919D01*
X134799349Y-95612919D01*
X134976725Y-95539448D01*
X135112483Y-95403690D01*
X135185954Y-95226314D01*
X135185954Y-95104005D01*
X135712400Y-95104005D01*
X135712400Y-95295995D01*
X135785871Y-95473371D01*
X135921629Y-95609129D01*
X136099005Y-95682600D01*
X136290995Y-95682600D01*
X136468371Y-95609129D01*
X136604129Y-95473371D01*
X136677600Y-95295995D01*
X136677600Y-95104005D01*
X136604129Y-94926629D01*
X136468371Y-94790871D01*
X136290995Y-94717400D01*
X136099005Y-94717400D01*
X135921629Y-94790871D01*
X135785871Y-94926629D01*
X135712400Y-95104005D01*
X135185954Y-95104005D01*
X135185954Y-95034324D01*
X135112483Y-94856948D01*
X134976725Y-94721190D01*
X134799349Y-94647719D01*
X134607359Y-94647719D01*
X134429983Y-94721190D01*
X134294225Y-94856948D01*
X134220754Y-95034324D01*
X134030007Y-95034324D01*
X134037600Y-95015995D01*
X134037600Y-94824005D01*
X133964129Y-94646629D01*
X133828371Y-94510871D01*
X133650995Y-94437400D01*
X133459005Y-94437400D01*
X133281629Y-94510871D01*
X133145871Y-94646629D01*
X133072400Y-94824005D01*
X132927600Y-94824005D01*
X132854129Y-94646629D01*
X132718371Y-94510871D01*
X132540995Y-94437400D01*
X132349005Y-94437400D01*
X132171629Y-94510871D01*
X132035871Y-94646629D01*
X131962400Y-94824005D01*
X131962400Y-95015995D01*
X131994048Y-95092400D01*
X131810094Y-95092400D01*
X131837600Y-95025995D01*
X131837600Y-94834005D01*
X131764129Y-94656629D01*
X131628371Y-94520871D01*
X131450995Y-94447400D01*
X131259005Y-94447400D01*
X131081629Y-94520871D01*
X130945871Y-94656629D01*
X130872400Y-94834005D01*
X126160593Y-94834005D01*
X126315771Y-94769729D01*
X126451529Y-94633971D01*
X126525000Y-94456595D01*
X126525000Y-94264605D01*
X126451529Y-94087229D01*
X126315771Y-93951471D01*
X126138395Y-93878000D01*
X125946405Y-93878000D01*
X125769029Y-93951471D01*
X125633271Y-94087229D01*
X125559800Y-94264605D01*
X120010990Y-94264605D01*
X119981483Y-94193370D01*
X119845725Y-94057612D01*
X119668349Y-93984141D01*
X119476359Y-93984141D01*
X119298983Y-94057612D01*
X119163225Y-94193370D01*
X119089754Y-94370746D01*
X118706365Y-94370746D01*
X118815725Y-94325448D01*
X118951483Y-94189690D01*
X119024954Y-94012314D01*
X119024954Y-93820324D01*
X118951483Y-93642948D01*
X118815725Y-93507190D01*
X118638349Y-93433719D01*
X118446359Y-93433719D01*
X118268983Y-93507190D01*
X118133225Y-93642948D01*
X118059754Y-93820324D01*
X111065954Y-93820324D01*
X111065954Y-92000324D01*
X112339754Y-92000324D01*
X112339754Y-92192314D01*
X112413225Y-92369690D01*
X112548983Y-92505448D01*
X112726359Y-92578919D01*
X112918349Y-92578919D01*
X112991463Y-92548635D01*
X112987351Y-92558561D01*
X112987351Y-92750551D01*
X113060822Y-92927927D01*
X113196580Y-93063685D01*
X113344399Y-93124913D01*
X113329731Y-93160324D01*
X113329731Y-93352314D01*
X113403202Y-93529690D01*
X113538960Y-93665448D01*
X113716336Y-93738919D01*
X113908326Y-93738919D01*
X114085702Y-93665448D01*
X114221460Y-93529690D01*
X114294931Y-93352314D01*
X114294931Y-93160324D01*
X114221460Y-92982948D01*
X114085702Y-92847190D01*
X113937883Y-92785962D01*
X113952551Y-92750551D01*
X113952551Y-92558561D01*
X113879080Y-92381185D01*
X113743322Y-92245427D01*
X113565946Y-92171956D01*
X113373956Y-92171956D01*
X113300842Y-92202240D01*
X113304954Y-92192314D01*
X113304954Y-92000324D01*
X113231483Y-91822948D01*
X113098859Y-91690324D01*
X117969754Y-91690324D01*
X117969754Y-91882314D01*
X118043225Y-92059690D01*
X118178983Y-92195448D01*
X118356359Y-92268919D01*
X118548349Y-92268919D01*
X118725725Y-92195448D01*
X118822354Y-92098819D01*
X118908983Y-92185448D01*
X119086359Y-92258919D01*
X119278349Y-92258919D01*
X119455725Y-92185448D01*
X119591483Y-92049690D01*
X119664954Y-91872314D01*
X119664954Y-91680324D01*
X119662254Y-91673805D01*
X127562400Y-91673805D01*
X127562400Y-91865795D01*
X127635871Y-92043171D01*
X127771629Y-92178929D01*
X127949005Y-92252400D01*
X128140995Y-92252400D01*
X128318371Y-92178929D01*
X128454129Y-92043171D01*
X128527600Y-91865795D01*
X128527600Y-91673805D01*
X128454129Y-91496429D01*
X128318371Y-91360671D01*
X128140995Y-91287200D01*
X127949005Y-91287200D01*
X127771629Y-91360671D01*
X127635871Y-91496429D01*
X127562400Y-91673805D01*
X119662254Y-91673805D01*
X119591483Y-91502948D01*
X119455725Y-91367190D01*
X119278349Y-91293719D01*
X119086359Y-91293719D01*
X118908983Y-91367190D01*
X118812354Y-91463819D01*
X118725725Y-91377190D01*
X118548349Y-91303719D01*
X118356359Y-91303719D01*
X118178983Y-91377190D01*
X118043225Y-91512948D01*
X117969754Y-91690324D01*
X113098859Y-91690324D01*
X113095725Y-91687190D01*
X112918349Y-91613719D01*
X112726359Y-91613719D01*
X112548983Y-91687190D01*
X112413225Y-91822948D01*
X112339754Y-92000324D01*
X111065954Y-92000324D01*
X111065954Y-90700324D01*
X115549754Y-90700324D01*
X115549754Y-90892314D01*
X115623225Y-91069690D01*
X115758983Y-91205448D01*
X115936359Y-91278919D01*
X116128349Y-91278919D01*
X116305725Y-91205448D01*
X116441483Y-91069690D01*
X116514954Y-90892314D01*
X116514954Y-90700324D01*
X116441483Y-90522948D01*
X116305725Y-90387190D01*
X116128349Y-90313719D01*
X115936359Y-90313719D01*
X115758983Y-90387190D01*
X115623225Y-90522948D01*
X115549754Y-90700324D01*
X111065954Y-90700324D01*
X111065954Y-89976421D01*
X111060120Y-89947090D01*
X110984001Y-89564412D01*
X110984001Y-89564407D01*
X110938668Y-89454965D01*
X110721895Y-89130541D01*
X110638132Y-89046778D01*
X110613507Y-89030324D01*
X126159754Y-89030324D01*
X126159754Y-89222314D01*
X126233225Y-89399690D01*
X126368983Y-89535448D01*
X126546359Y-89608919D01*
X126738349Y-89608919D01*
X126741241Y-89607721D01*
X127642357Y-89607721D01*
X127642357Y-89799711D01*
X127715828Y-89977087D01*
X127851586Y-90112845D01*
X128028962Y-90186316D01*
X128109754Y-90186316D01*
X128109754Y-90282312D01*
X128183225Y-90459688D01*
X128318983Y-90595446D01*
X128496359Y-90668917D01*
X128669754Y-90668917D01*
X128669754Y-90802314D01*
X128743225Y-90979690D01*
X128878983Y-91115448D01*
X129056359Y-91188919D01*
X129243747Y-91188919D01*
X129242800Y-91191205D01*
X129242800Y-91383195D01*
X129316271Y-91560571D01*
X129452029Y-91696329D01*
X129629405Y-91769800D01*
X129821395Y-91769800D01*
X129998771Y-91696329D01*
X130134529Y-91560571D01*
X130208000Y-91383195D01*
X130208000Y-91191205D01*
X130134529Y-91013829D01*
X129998771Y-90878071D01*
X129821395Y-90804600D01*
X129634007Y-90804600D01*
X129634954Y-90802314D01*
X129634954Y-90610324D01*
X129561483Y-90432948D01*
X129425725Y-90297190D01*
X129248349Y-90223719D01*
X129074954Y-90223719D01*
X129074954Y-90090322D01*
X129001483Y-89912946D01*
X128865725Y-89777188D01*
X128688349Y-89703717D01*
X128607557Y-89703717D01*
X128607557Y-89607721D01*
X128534086Y-89430345D01*
X128398328Y-89294587D01*
X128220952Y-89221116D01*
X128028962Y-89221116D01*
X127851586Y-89294587D01*
X127715828Y-89430345D01*
X127642357Y-89607721D01*
X126741241Y-89607721D01*
X126915725Y-89535448D01*
X127051483Y-89399690D01*
X127124954Y-89222314D01*
X127124954Y-89190324D01*
X131399754Y-89190324D01*
X131399754Y-89382314D01*
X131473225Y-89559690D01*
X131608983Y-89695448D01*
X131786359Y-89768919D01*
X131978349Y-89768919D01*
X132155725Y-89695448D01*
X132267168Y-89584005D01*
X133642400Y-89584005D01*
X133642400Y-89775995D01*
X133715871Y-89953371D01*
X133851629Y-90089129D01*
X134029005Y-90162600D01*
X134220995Y-90162600D01*
X134398371Y-90089129D01*
X134534129Y-89953371D01*
X134607600Y-89775995D01*
X134607600Y-89584005D01*
X134534129Y-89406629D01*
X134398371Y-89270871D01*
X134220995Y-89197400D01*
X134029005Y-89197400D01*
X133851629Y-89270871D01*
X133715871Y-89406629D01*
X133642400Y-89584005D01*
X132267168Y-89584005D01*
X132291483Y-89559690D01*
X132364954Y-89382314D01*
X132364954Y-89190324D01*
X132291483Y-89012948D01*
X132242259Y-88963724D01*
X139275354Y-88963724D01*
X139275354Y-89155714D01*
X139348825Y-89333090D01*
X139484583Y-89468848D01*
X139661959Y-89542319D01*
X139853949Y-89542319D01*
X140031325Y-89468848D01*
X140167083Y-89333090D01*
X140240554Y-89155714D01*
X140240554Y-88963724D01*
X140167083Y-88786348D01*
X140031325Y-88650590D01*
X139853949Y-88577119D01*
X139661959Y-88577119D01*
X139484583Y-88650590D01*
X139348825Y-88786348D01*
X139275354Y-88963724D01*
X132242259Y-88963724D01*
X132155725Y-88877190D01*
X131978349Y-88803719D01*
X131786359Y-88803719D01*
X131608983Y-88877190D01*
X131473225Y-89012948D01*
X131399754Y-89190324D01*
X127124954Y-89190324D01*
X127124954Y-89030324D01*
X127074120Y-88907600D01*
X127195995Y-88907600D01*
X127373371Y-88834129D01*
X127509129Y-88698371D01*
X127582600Y-88520995D01*
X127582600Y-88388919D01*
X127718349Y-88388919D01*
X127895725Y-88315448D01*
X128031483Y-88179690D01*
X128104954Y-88002314D01*
X128104954Y-87980324D01*
X131139754Y-87980324D01*
X131139754Y-88172314D01*
X131213225Y-88349690D01*
X131348983Y-88485448D01*
X131526359Y-88558919D01*
X131718349Y-88558919D01*
X131895725Y-88485448D01*
X132031483Y-88349690D01*
X132050688Y-88303324D01*
X137776754Y-88303324D01*
X137776754Y-88495314D01*
X137850225Y-88672690D01*
X137985983Y-88808448D01*
X138163359Y-88881919D01*
X138355349Y-88881919D01*
X138532725Y-88808448D01*
X138668483Y-88672690D01*
X138741954Y-88495314D01*
X138741954Y-88303324D01*
X138668483Y-88125948D01*
X138532725Y-87990190D01*
X138355349Y-87916719D01*
X138163359Y-87916719D01*
X137985983Y-87990190D01*
X137850225Y-88125948D01*
X137776754Y-88303324D01*
X132050688Y-88303324D01*
X132104954Y-88172314D01*
X132104954Y-87980324D01*
X132031483Y-87802948D01*
X131895725Y-87667190D01*
X131718349Y-87593719D01*
X131526359Y-87593719D01*
X131348983Y-87667190D01*
X131213225Y-87802948D01*
X131139754Y-87980324D01*
X128104954Y-87980324D01*
X128104954Y-87810324D01*
X128100230Y-87798919D01*
X128178349Y-87798919D01*
X128355725Y-87725448D01*
X128491483Y-87589690D01*
X128564954Y-87412314D01*
X128564954Y-87220324D01*
X128491483Y-87042948D01*
X128355725Y-86907190D01*
X128178349Y-86833719D01*
X127986359Y-86833719D01*
X127808983Y-86907190D01*
X127673225Y-87042948D01*
X127599754Y-87220324D01*
X127599754Y-87412314D01*
X127604478Y-87423719D01*
X127526359Y-87423719D01*
X127348983Y-87497190D01*
X127213225Y-87632948D01*
X127139754Y-87810324D01*
X127139754Y-87942400D01*
X127004005Y-87942400D01*
X126826629Y-88015871D01*
X126690871Y-88151629D01*
X126617400Y-88329005D01*
X126617400Y-88520995D01*
X126668234Y-88643719D01*
X126546359Y-88643719D01*
X126368983Y-88717190D01*
X126233225Y-88852948D01*
X126159754Y-89030324D01*
X110613507Y-89030324D01*
X110313708Y-88830005D01*
X110204266Y-88784672D01*
X110204261Y-88784672D01*
X109821583Y-88708553D01*
X109821581Y-88708553D01*
X109792252Y-88702719D01*
X107732456Y-88702719D01*
X107703127Y-88708553D01*
X107703125Y-88708553D01*
X107320447Y-88784672D01*
X107320442Y-88784672D01*
X107211000Y-88830005D01*
X106886576Y-89046778D01*
X106802813Y-89130541D01*
X106586040Y-89454965D01*
X106540707Y-89564407D01*
X106540707Y-89564412D01*
X106464588Y-89947090D01*
X106464588Y-89947093D01*
X106458754Y-89976422D01*
X99065954Y-89976422D01*
X99065954Y-89166924D01*
X101022954Y-89166924D01*
X101022954Y-89358914D01*
X101096425Y-89536290D01*
X101232183Y-89672048D01*
X101409559Y-89745519D01*
X101601549Y-89745519D01*
X101778925Y-89672048D01*
X101861154Y-89589819D01*
X101943383Y-89672048D01*
X102120759Y-89745519D01*
X102312749Y-89745519D01*
X102490125Y-89672048D01*
X102625883Y-89536290D01*
X102699354Y-89358914D01*
X102699354Y-89166924D01*
X102625883Y-88989548D01*
X102490125Y-88853790D01*
X102312749Y-88780319D01*
X102120759Y-88780319D01*
X101943383Y-88853790D01*
X101861154Y-88936019D01*
X101778925Y-88853790D01*
X101601549Y-88780319D01*
X101409559Y-88780319D01*
X101232183Y-88853790D01*
X101096425Y-88989548D01*
X101022954Y-89166924D01*
X99065954Y-89166924D01*
X99065954Y-87537714D01*
X115972400Y-87537714D01*
X115972400Y-87729704D01*
X116045871Y-87907080D01*
X116181629Y-88042838D01*
X116359005Y-88116309D01*
X116550995Y-88116309D01*
X116728371Y-88042838D01*
X116864129Y-87907080D01*
X116900064Y-87820324D01*
X117259754Y-87820324D01*
X117259754Y-88012314D01*
X117333225Y-88189690D01*
X117468983Y-88325448D01*
X117646359Y-88398919D01*
X117838349Y-88398919D01*
X118007137Y-88329005D01*
X121063554Y-88329005D01*
X121063554Y-88520995D01*
X121137025Y-88698371D01*
X121272783Y-88834129D01*
X121450159Y-88907600D01*
X121642149Y-88907600D01*
X121819525Y-88834129D01*
X121955283Y-88698371D01*
X122028754Y-88520995D01*
X122028754Y-88329005D01*
X121955283Y-88151629D01*
X121819525Y-88015871D01*
X121642149Y-87942400D01*
X121450159Y-87942400D01*
X121272783Y-88015871D01*
X121137025Y-88151629D01*
X121063554Y-88329005D01*
X118007137Y-88329005D01*
X118015725Y-88325448D01*
X118151483Y-88189690D01*
X118224954Y-88012314D01*
X118224954Y-87820324D01*
X118151483Y-87642948D01*
X118015725Y-87507190D01*
X117838349Y-87433719D01*
X117646359Y-87433719D01*
X117468983Y-87507190D01*
X117333225Y-87642948D01*
X117259754Y-87820324D01*
X116900064Y-87820324D01*
X116937600Y-87729704D01*
X116937600Y-87537714D01*
X116864129Y-87360338D01*
X116728371Y-87224580D01*
X116718092Y-87220322D01*
X118779754Y-87220322D01*
X118779754Y-87412312D01*
X118853225Y-87589688D01*
X118988983Y-87725446D01*
X119166359Y-87798917D01*
X119358349Y-87798917D01*
X119535725Y-87725446D01*
X119671483Y-87589688D01*
X119744954Y-87412312D01*
X119744954Y-87220322D01*
X119671483Y-87042946D01*
X119535725Y-86907188D01*
X119358349Y-86833717D01*
X119166359Y-86833717D01*
X118988983Y-86907188D01*
X118853225Y-87042946D01*
X118779754Y-87220322D01*
X116718092Y-87220322D01*
X116550995Y-87151109D01*
X116359005Y-87151109D01*
X116181629Y-87224580D01*
X116045871Y-87360338D01*
X115972400Y-87537714D01*
X99065954Y-87537714D01*
X99065954Y-86091228D01*
X99834754Y-86091228D01*
X99834754Y-86321410D01*
X99922841Y-86534069D01*
X100085604Y-86696832D01*
X100298263Y-86784919D01*
X100528445Y-86784919D01*
X100741104Y-86696832D01*
X100903867Y-86534069D01*
X100991954Y-86321410D01*
X100991954Y-86091228D01*
X139458754Y-86091228D01*
X139458754Y-86321410D01*
X139546841Y-86534069D01*
X139709604Y-86696832D01*
X139922263Y-86784919D01*
X140152445Y-86784919D01*
X140365104Y-86696832D01*
X140527867Y-86534069D01*
X140615954Y-86321410D01*
X140615954Y-86091228D01*
X140527867Y-85878569D01*
X140365104Y-85715806D01*
X140152445Y-85627719D01*
X139922263Y-85627719D01*
X139709604Y-85715806D01*
X139546841Y-85878569D01*
X139458754Y-86091228D01*
X100991954Y-86091228D01*
X100903867Y-85878569D01*
X100741104Y-85715806D01*
X100528445Y-85627719D01*
X100298263Y-85627719D01*
X100085604Y-85715806D01*
X99922841Y-85878569D01*
X99834754Y-86091228D01*
X99065954Y-86091228D01*
X99065954Y-85204524D01*
X102115154Y-85204524D01*
X102115154Y-85396514D01*
X102188625Y-85573890D01*
X102324383Y-85709648D01*
X102501759Y-85783119D01*
X102693749Y-85783119D01*
X102871125Y-85709648D01*
X103006883Y-85573890D01*
X103068966Y-85424005D01*
X109752400Y-85424005D01*
X109752400Y-85615995D01*
X109825871Y-85793371D01*
X109961629Y-85929129D01*
X110139005Y-86002600D01*
X110330995Y-86002600D01*
X110508371Y-85929129D01*
X110644129Y-85793371D01*
X110717600Y-85615995D01*
X110717600Y-85424005D01*
X110722400Y-85424005D01*
X110722400Y-85615995D01*
X110795871Y-85793371D01*
X110931629Y-85929129D01*
X111109005Y-86002600D01*
X111300995Y-86002600D01*
X111478371Y-85929129D01*
X111614129Y-85793371D01*
X111687600Y-85615995D01*
X111687600Y-85424005D01*
X111679316Y-85404005D01*
X111732400Y-85404005D01*
X111732400Y-85595995D01*
X111805871Y-85773371D01*
X111941629Y-85909129D01*
X112119005Y-85982600D01*
X112310995Y-85982600D01*
X112488371Y-85909129D01*
X112624129Y-85773371D01*
X112697600Y-85595995D01*
X112697600Y-85504003D01*
X127642398Y-85504003D01*
X127642398Y-85695993D01*
X127715869Y-85873369D01*
X127851627Y-86009127D01*
X128029003Y-86082598D01*
X128220993Y-86082598D01*
X128398369Y-86009127D01*
X128534127Y-85873369D01*
X128607598Y-85695993D01*
X128607598Y-85504003D01*
X128534127Y-85326627D01*
X128412024Y-85204524D01*
X137421164Y-85204524D01*
X137421164Y-85396514D01*
X137494635Y-85573890D01*
X137630393Y-85709648D01*
X137807769Y-85783119D01*
X137999759Y-85783119D01*
X138177135Y-85709648D01*
X138312893Y-85573890D01*
X138386364Y-85396514D01*
X138386364Y-85204524D01*
X138312893Y-85027148D01*
X138177135Y-84891390D01*
X137999759Y-84817919D01*
X137807769Y-84817919D01*
X137630393Y-84891390D01*
X137494635Y-85027148D01*
X137421164Y-85204524D01*
X128412024Y-85204524D01*
X128398369Y-85190869D01*
X128220993Y-85117398D01*
X128029003Y-85117398D01*
X127851627Y-85190869D01*
X127715869Y-85326627D01*
X127642398Y-85504003D01*
X112697600Y-85504003D01*
X112697600Y-85404005D01*
X112624129Y-85226629D01*
X112488371Y-85090871D01*
X112310995Y-85017400D01*
X112119005Y-85017400D01*
X111941629Y-85090871D01*
X111805871Y-85226629D01*
X111732400Y-85404005D01*
X111679316Y-85404005D01*
X111614129Y-85246629D01*
X111478371Y-85110871D01*
X111300995Y-85037400D01*
X111109005Y-85037400D01*
X110931629Y-85110871D01*
X110795871Y-85246629D01*
X110722400Y-85424005D01*
X110717600Y-85424005D01*
X110644129Y-85246629D01*
X110508371Y-85110871D01*
X110330995Y-85037400D01*
X110139005Y-85037400D01*
X109961629Y-85110871D01*
X109825871Y-85246629D01*
X109752400Y-85424005D01*
X103068966Y-85424005D01*
X103080354Y-85396514D01*
X103080354Y-85204524D01*
X103006883Y-85027148D01*
X102871125Y-84891390D01*
X102693749Y-84817919D01*
X102501759Y-84817919D01*
X102324383Y-84891390D01*
X102188625Y-85027148D01*
X102115154Y-85204524D01*
X99065954Y-85204524D01*
X99065954Y-84724005D01*
X116512400Y-84724005D01*
X116512400Y-84915995D01*
X116585871Y-85093371D01*
X116721629Y-85229129D01*
X116899005Y-85302600D01*
X117090995Y-85302600D01*
X117268371Y-85229129D01*
X117404129Y-85093371D01*
X117477600Y-84915995D01*
X117477600Y-84724005D01*
X117404129Y-84546629D01*
X117268371Y-84410871D01*
X117090995Y-84337400D01*
X116899005Y-84337400D01*
X116721629Y-84410871D01*
X116585871Y-84546629D01*
X116512400Y-84724005D01*
X99065954Y-84724005D01*
X99065954Y-83985324D01*
X102115154Y-83985324D01*
X102115154Y-84177314D01*
X102188625Y-84354690D01*
X102324383Y-84490448D01*
X102501759Y-84563919D01*
X102693749Y-84563919D01*
X102871125Y-84490448D01*
X103006883Y-84354690D01*
X103080354Y-84177314D01*
X103080354Y-83985324D01*
X103006883Y-83807948D01*
X102871125Y-83672190D01*
X102693749Y-83598719D01*
X102501759Y-83598719D01*
X102324383Y-83672190D01*
X102188625Y-83807948D01*
X102115154Y-83985324D01*
X99065954Y-83985324D01*
X99065954Y-83579005D01*
X123542400Y-83579005D01*
X123542400Y-83770995D01*
X123615871Y-83948371D01*
X123751629Y-84084129D01*
X123929005Y-84157600D01*
X124120995Y-84157600D01*
X124298371Y-84084129D01*
X124434129Y-83948371D01*
X124452505Y-83904005D01*
X126342400Y-83904005D01*
X126342400Y-84095995D01*
X126415871Y-84273371D01*
X126551629Y-84409129D01*
X126729005Y-84482600D01*
X126920995Y-84482600D01*
X127098371Y-84409129D01*
X127234129Y-84273371D01*
X127307600Y-84095995D01*
X127307600Y-83904005D01*
X127234129Y-83726629D01*
X127098371Y-83590871D01*
X126920995Y-83517400D01*
X126729005Y-83517400D01*
X126551629Y-83590871D01*
X126415871Y-83726629D01*
X126342400Y-83904005D01*
X124452505Y-83904005D01*
X124507600Y-83770995D01*
X124507600Y-83579005D01*
X124434129Y-83401629D01*
X124298371Y-83265871D01*
X124120995Y-83192400D01*
X123929005Y-83192400D01*
X123751629Y-83265871D01*
X123615871Y-83401629D01*
X123542400Y-83579005D01*
X99065954Y-83579005D01*
X99065954Y-82766124D01*
X102115154Y-82766124D01*
X102115154Y-82958114D01*
X102188625Y-83135490D01*
X102324383Y-83271248D01*
X102501759Y-83344719D01*
X102693749Y-83344719D01*
X102871125Y-83271248D01*
X103006883Y-83135490D01*
X103080354Y-82958114D01*
X103080354Y-82766124D01*
X137421164Y-82766124D01*
X137421164Y-82958114D01*
X137494635Y-83135490D01*
X137630393Y-83271248D01*
X137807769Y-83344719D01*
X137999759Y-83344719D01*
X138177135Y-83271248D01*
X138312893Y-83135490D01*
X138386364Y-82958114D01*
X138386364Y-82766124D01*
X138312893Y-82588748D01*
X138177135Y-82452990D01*
X137999759Y-82379519D01*
X137807769Y-82379519D01*
X137630393Y-82452990D01*
X137494635Y-82588748D01*
X137421164Y-82766124D01*
X103080354Y-82766124D01*
X103006883Y-82588748D01*
X102871125Y-82452990D01*
X102693749Y-82379519D01*
X102501759Y-82379519D01*
X102324383Y-82452990D01*
X102188625Y-82588748D01*
X102115154Y-82766124D01*
X99065954Y-82766124D01*
X99065954Y-81841228D01*
X99834754Y-81841228D01*
X99834754Y-82071410D01*
X99922841Y-82284069D01*
X100085604Y-82446832D01*
X100298263Y-82534919D01*
X100528445Y-82534919D01*
X100741104Y-82446832D01*
X100903867Y-82284069D01*
X100991954Y-82071410D01*
X100991954Y-82029524D01*
X103791554Y-82029524D01*
X103791554Y-82221514D01*
X103865025Y-82398890D01*
X104000783Y-82534648D01*
X104178159Y-82608119D01*
X104370149Y-82608119D01*
X104547525Y-82534648D01*
X104683283Y-82398890D01*
X104756754Y-82221514D01*
X104756754Y-82029524D01*
X104683283Y-81852148D01*
X104645140Y-81814005D01*
X131792400Y-81814005D01*
X131792400Y-82005995D01*
X131865871Y-82183371D01*
X132001629Y-82319129D01*
X132179005Y-82392600D01*
X132370995Y-82392600D01*
X132548371Y-82319129D01*
X132684129Y-82183371D01*
X132757600Y-82005995D01*
X132757600Y-81824005D01*
X133062400Y-81824005D01*
X133062400Y-82015995D01*
X133135871Y-82193371D01*
X133271629Y-82329129D01*
X133449005Y-82402600D01*
X133640995Y-82402600D01*
X133818371Y-82329129D01*
X133954129Y-82193371D01*
X134027600Y-82015995D01*
X134027600Y-81824005D01*
X134332400Y-81824005D01*
X134332400Y-82015995D01*
X134405871Y-82193371D01*
X134541629Y-82329129D01*
X134719005Y-82402600D01*
X134910995Y-82402600D01*
X135088371Y-82329129D01*
X135224129Y-82193371D01*
X135297600Y-82015995D01*
X135297600Y-81841228D01*
X139458754Y-81841228D01*
X139458754Y-82071410D01*
X139546841Y-82284069D01*
X139709604Y-82446832D01*
X139922263Y-82534919D01*
X140152445Y-82534919D01*
X140365104Y-82446832D01*
X140527867Y-82284069D01*
X140615954Y-82071410D01*
X140615954Y-81841228D01*
X140527867Y-81628569D01*
X140365104Y-81465806D01*
X140152445Y-81377719D01*
X139922263Y-81377719D01*
X139709604Y-81465806D01*
X139546841Y-81628569D01*
X139458754Y-81841228D01*
X135297600Y-81841228D01*
X135297600Y-81824005D01*
X135224129Y-81646629D01*
X135088371Y-81510871D01*
X134910995Y-81437400D01*
X134719005Y-81437400D01*
X134541629Y-81510871D01*
X134405871Y-81646629D01*
X134332400Y-81824005D01*
X134027600Y-81824005D01*
X133954129Y-81646629D01*
X133818371Y-81510871D01*
X133640995Y-81437400D01*
X133449005Y-81437400D01*
X133271629Y-81510871D01*
X133135871Y-81646629D01*
X133062400Y-81824005D01*
X132757600Y-81824005D01*
X132757600Y-81814005D01*
X132684129Y-81636629D01*
X132548371Y-81500871D01*
X132370995Y-81427400D01*
X132179005Y-81427400D01*
X132001629Y-81500871D01*
X131865871Y-81636629D01*
X131792400Y-81814005D01*
X104645140Y-81814005D01*
X104547525Y-81716390D01*
X104370149Y-81642919D01*
X104178159Y-81642919D01*
X104000783Y-81716390D01*
X103865025Y-81852148D01*
X103791554Y-82029524D01*
X100991954Y-82029524D01*
X100991954Y-81841228D01*
X100903867Y-81628569D01*
X100741104Y-81465806D01*
X100528445Y-81377719D01*
X100298263Y-81377719D01*
X100085604Y-81465806D01*
X99922841Y-81628569D01*
X99834754Y-81841228D01*
X99065954Y-81841228D01*
X99065954Y-79023954D01*
X99140275Y-78386487D01*
X99160919Y-78329612D01*
X99310180Y-78329612D01*
X99310180Y-79175468D01*
X99633874Y-79956936D01*
X100231984Y-80555046D01*
X101013452Y-80878740D01*
X101859308Y-80878740D01*
X102640776Y-80555046D01*
X103122098Y-80073724D01*
X103760798Y-80073724D01*
X103760798Y-80265714D01*
X103834269Y-80443090D01*
X103970027Y-80578848D01*
X104147403Y-80652319D01*
X104339393Y-80652319D01*
X104516769Y-80578848D01*
X104652527Y-80443090D01*
X104725998Y-80265714D01*
X104725998Y-80073724D01*
X104652527Y-79896348D01*
X104516769Y-79760590D01*
X104475568Y-79743524D01*
X106331554Y-79743524D01*
X106331554Y-79935514D01*
X106405025Y-80112890D01*
X106540783Y-80248648D01*
X106718159Y-80322119D01*
X106910149Y-80322119D01*
X107019260Y-80276924D01*
X108033354Y-80276924D01*
X108033354Y-80468914D01*
X108106825Y-80646290D01*
X108242583Y-80782048D01*
X108419959Y-80855519D01*
X108611949Y-80855519D01*
X108789325Y-80782048D01*
X108925083Y-80646290D01*
X108998554Y-80468914D01*
X108998554Y-80276924D01*
X108925585Y-80100759D01*
X110649554Y-80100759D01*
X110649554Y-80292749D01*
X110723025Y-80470125D01*
X110858783Y-80605883D01*
X111036159Y-80679354D01*
X111228149Y-80679354D01*
X111405525Y-80605883D01*
X111541283Y-80470125D01*
X111614754Y-80292749D01*
X111614754Y-80100759D01*
X111551404Y-79947817D01*
X118621400Y-79947817D01*
X118621400Y-80327183D01*
X118766577Y-80677671D01*
X119034829Y-80945923D01*
X119385317Y-81091100D01*
X119764683Y-81091100D01*
X120115171Y-80945923D01*
X120383423Y-80677671D01*
X120528600Y-80327183D01*
X120528600Y-79947817D01*
X123621400Y-79947817D01*
X123621400Y-80327183D01*
X123766577Y-80677671D01*
X124034829Y-80945923D01*
X124385317Y-81091100D01*
X124764683Y-81091100D01*
X125115171Y-80945923D01*
X125383423Y-80677671D01*
X125528600Y-80327183D01*
X125528600Y-80175324D01*
X130283754Y-80175324D01*
X130283754Y-80367314D01*
X130357225Y-80544690D01*
X130492983Y-80680448D01*
X130670359Y-80753919D01*
X130862349Y-80753919D01*
X131039725Y-80680448D01*
X131175483Y-80544690D01*
X131248954Y-80367314D01*
X131248954Y-80175324D01*
X131175483Y-79997948D01*
X131039725Y-79862190D01*
X130862349Y-79788719D01*
X130670359Y-79788719D01*
X130492983Y-79862190D01*
X130357225Y-79997948D01*
X130283754Y-80175324D01*
X125528600Y-80175324D01*
X125528600Y-79947817D01*
X125391489Y-79616800D01*
X133839754Y-79616800D01*
X133839754Y-79909838D01*
X133951895Y-80180569D01*
X134159104Y-80387778D01*
X134429835Y-80499919D01*
X134722873Y-80499919D01*
X134993604Y-80387778D01*
X135200813Y-80180569D01*
X135255589Y-80048328D01*
X135363754Y-80048328D01*
X135363754Y-80240318D01*
X135437225Y-80417694D01*
X135572983Y-80553452D01*
X135750359Y-80626923D01*
X135942349Y-80626923D01*
X136119725Y-80553452D01*
X136255483Y-80417694D01*
X136328954Y-80240318D01*
X136328954Y-80048328D01*
X136255483Y-79870952D01*
X136119725Y-79735194D01*
X135942349Y-79661723D01*
X135750359Y-79661723D01*
X135572983Y-79735194D01*
X135437225Y-79870952D01*
X135363754Y-80048328D01*
X135255589Y-80048328D01*
X135312954Y-79909838D01*
X135312954Y-79616800D01*
X135200813Y-79346069D01*
X134993604Y-79138860D01*
X134722873Y-79026719D01*
X134429835Y-79026719D01*
X134159104Y-79138860D01*
X133951895Y-79346069D01*
X133839754Y-79616800D01*
X125391489Y-79616800D01*
X125383423Y-79597329D01*
X125115171Y-79329077D01*
X124764683Y-79183900D01*
X124385317Y-79183900D01*
X124034829Y-79329077D01*
X123766577Y-79597329D01*
X123621400Y-79947817D01*
X120528600Y-79947817D01*
X120383423Y-79597329D01*
X120115171Y-79329077D01*
X119764683Y-79183900D01*
X119385317Y-79183900D01*
X119034829Y-79329077D01*
X118766577Y-79597329D01*
X118621400Y-79947817D01*
X111551404Y-79947817D01*
X111541283Y-79923383D01*
X111405525Y-79787625D01*
X111228149Y-79714154D01*
X111036159Y-79714154D01*
X110858783Y-79787625D01*
X110723025Y-79923383D01*
X110649554Y-80100759D01*
X108925585Y-80100759D01*
X108925083Y-80099548D01*
X108789325Y-79963790D01*
X108611949Y-79890319D01*
X108419959Y-79890319D01*
X108242583Y-79963790D01*
X108106825Y-80099548D01*
X108033354Y-80276924D01*
X107019260Y-80276924D01*
X107087525Y-80248648D01*
X107223283Y-80112890D01*
X107296754Y-79935514D01*
X107296754Y-79743524D01*
X107223283Y-79566148D01*
X107087525Y-79430390D01*
X106910149Y-79356919D01*
X106718159Y-79356919D01*
X106540783Y-79430390D01*
X106405025Y-79566148D01*
X106331554Y-79743524D01*
X104475568Y-79743524D01*
X104339393Y-79687119D01*
X104147403Y-79687119D01*
X103970027Y-79760590D01*
X103834269Y-79896348D01*
X103760798Y-80073724D01*
X103122098Y-80073724D01*
X103238886Y-79956936D01*
X103562580Y-79175468D01*
X103562580Y-79006924D01*
X103765857Y-79006924D01*
X103765857Y-79198914D01*
X103839328Y-79376290D01*
X103975086Y-79512048D01*
X104152462Y-79585519D01*
X104344452Y-79585519D01*
X104521828Y-79512048D01*
X104657586Y-79376290D01*
X104731057Y-79198914D01*
X104731057Y-79006924D01*
X104657586Y-78829548D01*
X104521828Y-78693790D01*
X104344452Y-78620319D01*
X104152462Y-78620319D01*
X103975086Y-78693790D01*
X103839328Y-78829548D01*
X103765857Y-79006924D01*
X103562580Y-79006924D01*
X103562580Y-78457405D01*
X111546200Y-78457405D01*
X111546200Y-78649395D01*
X111619671Y-78826771D01*
X111736300Y-78943400D01*
X111629671Y-79050029D01*
X111556200Y-79227405D01*
X111556200Y-79419395D01*
X111629671Y-79596771D01*
X111765429Y-79732529D01*
X111942805Y-79806000D01*
X112134795Y-79806000D01*
X112312171Y-79732529D01*
X112447929Y-79596771D01*
X112470871Y-79541384D01*
X112489671Y-79586771D01*
X112625429Y-79722529D01*
X112802805Y-79796000D01*
X112994795Y-79796000D01*
X113172171Y-79722529D01*
X113307929Y-79586771D01*
X113381400Y-79409395D01*
X113381400Y-79217405D01*
X113307929Y-79040029D01*
X113196300Y-78928400D01*
X113307929Y-78816771D01*
X113381400Y-78639395D01*
X113381400Y-78447405D01*
X113307929Y-78270029D01*
X113172171Y-78134271D01*
X112994795Y-78060800D01*
X112802805Y-78060800D01*
X112625429Y-78134271D01*
X112489671Y-78270029D01*
X112461729Y-78337488D01*
X112437929Y-78280029D01*
X112302171Y-78144271D01*
X112124795Y-78070800D01*
X111932805Y-78070800D01*
X111755429Y-78144271D01*
X111619671Y-78280029D01*
X111546200Y-78457405D01*
X103562580Y-78457405D01*
X103562580Y-78329612D01*
X103238886Y-77548144D01*
X102640776Y-76950034D01*
X102578248Y-76924134D01*
X103760780Y-76924134D01*
X103760780Y-77116124D01*
X103834251Y-77293500D01*
X103970009Y-77429258D01*
X104147385Y-77502729D01*
X104339375Y-77502729D01*
X104516751Y-77429258D01*
X104652509Y-77293500D01*
X104725980Y-77116124D01*
X104725980Y-77025724D01*
X107931744Y-77025724D01*
X107931744Y-77217714D01*
X108005215Y-77395090D01*
X108140973Y-77530848D01*
X108318349Y-77604319D01*
X108510339Y-77604319D01*
X108687715Y-77530848D01*
X108823473Y-77395090D01*
X108896944Y-77217714D01*
X108896944Y-77025724D01*
X108823473Y-76848348D01*
X108687715Y-76712590D01*
X108510339Y-76639119D01*
X108318349Y-76639119D01*
X108140973Y-76712590D01*
X108005215Y-76848348D01*
X107931744Y-77025724D01*
X104725980Y-77025724D01*
X104725980Y-76924134D01*
X104652509Y-76746758D01*
X104516751Y-76611000D01*
X104339375Y-76537529D01*
X104147385Y-76537529D01*
X103970009Y-76611000D01*
X103834251Y-76746758D01*
X103760780Y-76924134D01*
X102578248Y-76924134D01*
X101859308Y-76626340D01*
X101013452Y-76626340D01*
X100231984Y-76950034D01*
X99633874Y-77548144D01*
X99310180Y-78329612D01*
X99160919Y-78329612D01*
X99353195Y-77799903D01*
X99695350Y-77278031D01*
X100148378Y-76848874D01*
X100687989Y-76535443D01*
X101289203Y-76353353D01*
X101775875Y-76309919D01*
X114709889Y-76309919D01*
X114679906Y-76339902D01*
G04 #@! TD*
M02*
