G04 #@! TF.GenerationSoftware,KiCad,Pcbnew,5.0.2+dfsg1-1*
G04 #@! TF.CreationDate,2020-12-10T00:07:48-08:00*
G04 #@! TF.ProjectId,chronopy,6368726f-6e6f-4707-992e-6b696361645f,rev?*
G04 #@! TF.SameCoordinates,Original*
G04 #@! TF.FileFunction,Copper,L2,Inr*
G04 #@! TF.FilePolarity,Positive*
%FSLAX46Y46*%
G04 Gerber Fmt 4.6, Leading zero omitted, Abs format (unit mm)*
G04 Created by KiCad (PCBNEW 5.0.2+dfsg1-1) date Thu 10 Dec 2020 12:07:48 AM PST*
%MOMM*%
%LPD*%
G01*
G04 APERTURE LIST*
G04 #@! TA.AperFunction,ViaPad*
%ADD10R,1.000000X1.000000*%
G04 #@! TD*
G04 #@! TA.AperFunction,ViaPad*
%ADD11O,1.000000X1.000000*%
G04 #@! TD*
G04 #@! TA.AperFunction,ViaPad*
%ADD12C,1.450000*%
G04 #@! TD*
G04 #@! TA.AperFunction,ViaPad*
%ADD13O,1.200000X1.900000*%
G04 #@! TD*
G04 #@! TA.AperFunction,ViaPad*
%ADD14C,0.508000*%
G04 #@! TD*
G04 #@! TA.AperFunction,Conductor*
%ADD15C,0.152400*%
G04 #@! TD*
G04 APERTURE END LIST*
D10*
G04 #@! TO.N,+3V0*
G04 #@! TO.C,J6*
X102636553Y-94528720D03*
D11*
G04 #@! TO.N,GND*
X101366553Y-94528720D03*
G04 #@! TO.N,GPIO0_7*
X102636553Y-95798720D03*
G04 #@! TO.N,GPIO0_15*
X101366553Y-95798720D03*
G04 #@! TO.N,GPIO0_6*
X102636553Y-97068720D03*
G04 #@! TO.N,GPIO0_19*
X101366553Y-97068720D03*
G04 #@! TO.N,GPIO0_5*
X102636553Y-98338720D03*
G04 #@! TO.N,GPIO0_21*
X101366553Y-98338720D03*
G04 #@! TO.N,GPIO0_4*
X102636553Y-99608720D03*
G04 #@! TO.N,GPIO0_24*
X101366553Y-99608720D03*
G04 #@! TD*
D12*
G04 #@! TO.N,GND*
G04 #@! TO.C,J1*
X119575000Y-80137500D03*
X124575000Y-80137500D03*
D13*
X118575000Y-77437500D03*
X125575000Y-77437500D03*
G04 #@! TD*
D14*
G04 #@! TO.N,+BATT*
X126825000Y-84000000D03*
X124025000Y-83675000D03*
G04 #@! TO.N,CHGSTAT*
X111132154Y-80196754D03*
X126642354Y-89126319D03*
G04 #@! TO.N,GND*
X129334994Y-106230000D03*
X130535000Y-106250000D03*
X115089035Y-76613273D03*
X138025000Y-104820000D03*
X140475000Y-104830000D03*
X139245000Y-103600000D03*
X139245000Y-106057400D03*
X110459035Y-118493673D03*
X117075000Y-113640000D03*
X115787600Y-113640000D03*
X114305000Y-113080000D03*
X114295000Y-112440000D03*
X111655000Y-109380000D03*
X111655000Y-110370000D03*
X111655000Y-111370000D03*
X111635000Y-112800000D03*
X124985000Y-118000000D03*
X125288400Y-116031400D03*
X125288400Y-113881400D03*
X106229035Y-115253673D03*
X136836954Y-91700000D03*
X136195000Y-95200000D03*
X136205000Y-98500000D03*
X136836954Y-101930000D03*
X135745000Y-101940000D03*
X134655000Y-101940000D03*
X129625000Y-99590000D03*
X130525000Y-95750000D03*
X128045000Y-91769800D03*
X116995000Y-84820000D03*
X112898800Y-79313400D03*
X112038800Y-79323400D03*
X112898800Y-78543400D03*
X112028800Y-78553400D03*
X112215000Y-85500000D03*
X111205000Y-85520000D03*
X110235000Y-85520000D03*
X118600000Y-108000000D03*
X128124998Y-85599998D03*
X118452354Y-91786319D03*
X116032354Y-95786319D03*
X116032354Y-90796319D03*
X119182354Y-91776319D03*
X115622354Y-94486319D03*
X116032354Y-95086319D03*
X118089964Y-99256319D03*
X118089964Y-103746319D03*
X122552352Y-100226319D03*
X107935354Y-118406319D03*
X120592354Y-118136319D03*
X133282354Y-117966319D03*
X135942354Y-107216319D03*
X131622354Y-88076319D03*
X128055000Y-101978929D03*
X105042354Y-110615319D03*
X116455000Y-87633709D03*
X114789744Y-116887477D03*
X106814154Y-79839519D03*
X108515954Y-80372919D03*
X104274154Y-82125519D03*
X104243380Y-77020129D03*
X102597754Y-109913119D03*
X102597754Y-112376919D03*
X102597754Y-85300519D03*
X102597754Y-82862119D03*
X137802154Y-109913119D03*
X137802154Y-112351519D03*
X133306354Y-76994719D03*
X137903764Y-82862119D03*
X137903764Y-85300519D03*
X139757954Y-89059719D03*
X108414344Y-77121719D03*
G04 #@! TO.N,SW_B*
X112425000Y-113810000D03*
X122422354Y-99066319D03*
G04 #@! TO.N,SW_A*
X137624354Y-111132319D03*
G04 #@! TO.N,+3V0*
X108719035Y-118393674D03*
X107119035Y-118403673D03*
X122505000Y-117240000D03*
X120462354Y-110876319D03*
X120462354Y-109876319D03*
X120472354Y-108876319D03*
X117432354Y-106776319D03*
X115982354Y-108546319D03*
X113272354Y-112066319D03*
X122322354Y-102776319D03*
X128832354Y-100426319D03*
X116032354Y-93886319D03*
X116712354Y-94186319D03*
X110242354Y-82786319D03*
X111242354Y-82786319D03*
X112242354Y-82786319D03*
X136072354Y-81916319D03*
X105042354Y-109605319D03*
X126422354Y-107066319D03*
X134182354Y-108816319D03*
X107035354Y-115926319D03*
X115472354Y-118156319D03*
X138602354Y-107216319D03*
X126452354Y-96286319D03*
X113202354Y-108746319D03*
X110780625Y-114501390D03*
X121546154Y-90710719D03*
X109811354Y-80931719D03*
X129216954Y-110192519D03*
X123603554Y-110192519D03*
X130461554Y-107093719D03*
X139910354Y-87637319D03*
X130766354Y-77045523D03*
X138894354Y-90736119D03*
G04 #@! TO.N,LCD_DC*
X130970000Y-96316400D03*
X112822354Y-92096319D03*
G04 #@! TO.N,LCD_CLK*
X126042400Y-94360600D03*
X119572354Y-94466741D03*
G04 #@! TO.N,LCD_MOSI*
X113469951Y-92654556D03*
X128592354Y-90186317D03*
G04 #@! TO.N,LCD_RST*
X113812331Y-93256319D03*
X129152354Y-90706319D03*
G04 #@! TO.N,LCD_CS*
X129725400Y-91287200D03*
X118542354Y-93916319D03*
G04 #@! TO.N,QSPI_CLK*
X133545000Y-81920000D03*
X132445000Y-94920000D03*
G04 #@! TO.N,QSPI_DIO0*
X132275000Y-81910000D03*
X131355000Y-94930000D03*
G04 #@! TO.N,~RESET*
X134125000Y-89680000D03*
X132061753Y-76994718D03*
G04 #@! TO.N,QSPI_DIO3*
X134815000Y-81920000D03*
X133555000Y-94920000D03*
G04 #@! TO.N,SWDIO*
X130766354Y-80271319D03*
X135846354Y-80144323D03*
G04 #@! TO.N,ACC_INT*
X132445000Y-98790000D03*
X119175000Y-111860000D03*
G04 #@! TO.N,GES_INT*
X119605000Y-115000000D03*
G04 #@! TO.N,ACC_AG_NT*
X118735000Y-112470000D03*
X133555000Y-98790000D03*
G04 #@! TO.N,IIC_SCL*
X132075000Y-110470000D03*
X115285000Y-108820000D03*
X122582344Y-101756319D03*
X123092354Y-98496319D03*
X115272354Y-115086319D03*
X104243398Y-80169719D03*
X102216754Y-89262919D03*
X109531954Y-114408919D03*
G04 #@! TO.N,IIC_SDA*
X116546700Y-115861700D03*
X133365000Y-110480000D03*
X116645000Y-108780000D03*
X120482356Y-102248919D03*
X123712354Y-97376319D03*
X104248457Y-79102919D03*
X101505554Y-89262919D03*
X108719154Y-114408919D03*
G04 #@! TO.N,Net-(C13-Pad1)*
X117745000Y-117260000D03*
G04 #@! TO.N,Net-(R16-Pad1)*
X109569035Y-118493673D03*
G04 #@! TO.N,Net-(R15-Pad1)*
X107929035Y-115923673D03*
G04 #@! TO.N,SW_C*
X127100000Y-88425000D03*
X121546154Y-88425000D03*
X102597754Y-84081319D03*
G04 #@! TO.N,SW_D*
X134703354Y-95130319D03*
X138259354Y-88399319D03*
G04 #@! TO.N,BATVSENSE*
X131900000Y-95575000D03*
X131882354Y-89286319D03*
G04 #@! TO.N,TS_INT*
X131352354Y-98796319D03*
X125602354Y-101246319D03*
G04 #@! TO.N,TS_RST*
X130592354Y-97946319D03*
X124892354Y-100756319D03*
G04 #@! TO.N,GPIO0_4*
X130002354Y-98886319D03*
G04 #@! TO.N,GPIO0_15*
X128124957Y-89703716D03*
G04 #@! TO.N,GPIO0_5*
X120334954Y-97966319D03*
G04 #@! TO.N,GPIO0_19*
X128082354Y-87316319D03*
X119262354Y-87316317D03*
G04 #@! TO.N,GPIO0_6*
X131002354Y-97396319D03*
G04 #@! TO.N,GPIO0_21*
X127622354Y-87906319D03*
X117742354Y-87916319D03*
G04 #@! TO.N,GPIO0_7*
X120334954Y-96866319D03*
G04 #@! TO.N,GPIO0_24*
X132382600Y-96316319D03*
G04 #@! TD*
D15*
G04 #@! TO.N,GND*
G36*
X118025013Y-76465670D02*
X117828914Y-76723475D01*
X117746400Y-77036700D01*
X117746400Y-77386700D01*
X118524200Y-77386700D01*
X118524200Y-77366700D01*
X118625800Y-77366700D01*
X118625800Y-77386700D01*
X119403600Y-77386700D01*
X119403600Y-77036700D01*
X119321086Y-76723475D01*
X119124987Y-76465670D01*
X118857827Y-76309919D01*
X125292173Y-76309919D01*
X125025013Y-76465670D01*
X124828914Y-76723475D01*
X124746400Y-77036700D01*
X124746400Y-77386700D01*
X125524200Y-77386700D01*
X125524200Y-77366700D01*
X125625800Y-77366700D01*
X125625800Y-77386700D01*
X126403600Y-77386700D01*
X126403600Y-77036700D01*
X126380636Y-76949528D01*
X130283754Y-76949528D01*
X130283754Y-77141518D01*
X130357225Y-77318894D01*
X130492983Y-77454652D01*
X130670359Y-77528123D01*
X130862349Y-77528123D01*
X131039725Y-77454652D01*
X131175483Y-77318894D01*
X131248954Y-77141518D01*
X131248954Y-76949528D01*
X131227911Y-76898723D01*
X131579153Y-76898723D01*
X131579153Y-77090713D01*
X131652624Y-77268089D01*
X131788382Y-77403847D01*
X131965758Y-77477318D01*
X132157748Y-77477318D01*
X132335124Y-77403847D01*
X132470882Y-77268089D01*
X132544353Y-77090713D01*
X132544353Y-76898723D01*
X132470882Y-76721347D01*
X132335124Y-76585589D01*
X132157748Y-76512118D01*
X131965758Y-76512118D01*
X131788382Y-76585589D01*
X131652624Y-76721347D01*
X131579153Y-76898723D01*
X131227911Y-76898723D01*
X131175483Y-76772152D01*
X131039725Y-76636394D01*
X130862349Y-76562923D01*
X130670359Y-76562923D01*
X130492983Y-76636394D01*
X130357225Y-76772152D01*
X130283754Y-76949528D01*
X126380636Y-76949528D01*
X126321086Y-76723475D01*
X126124987Y-76465670D01*
X125857827Y-76309919D01*
X138744719Y-76309919D01*
X139382186Y-76384240D01*
X139968770Y-76597160D01*
X140490642Y-76939315D01*
X140919799Y-77392343D01*
X141233230Y-77931954D01*
X141415320Y-78533168D01*
X141458755Y-79019851D01*
X141458755Y-91663800D01*
X137095000Y-91663800D01*
X137065840Y-91669600D01*
X137041118Y-91686118D01*
X137024600Y-91710840D01*
X137018800Y-91740000D01*
X137018800Y-101970000D01*
X137024600Y-101999160D01*
X137041118Y-102023882D01*
X137065840Y-102040400D01*
X137095000Y-102046200D01*
X141458754Y-102046200D01*
X141458754Y-115988684D01*
X141384433Y-116626151D01*
X141171513Y-117212736D01*
X140829361Y-117734604D01*
X140376330Y-118163764D01*
X139836719Y-118477195D01*
X139235505Y-118659285D01*
X138748834Y-118702719D01*
X110004808Y-118702719D01*
X110051635Y-118589668D01*
X110051635Y-118397678D01*
X109978164Y-118220302D01*
X109842406Y-118084544D01*
X109783934Y-118060324D01*
X114989754Y-118060324D01*
X114989754Y-118252314D01*
X115063225Y-118429690D01*
X115198983Y-118565448D01*
X115376359Y-118638919D01*
X115568349Y-118638919D01*
X115745725Y-118565448D01*
X115881483Y-118429690D01*
X115954954Y-118252314D01*
X115954954Y-118060324D01*
X115881483Y-117882948D01*
X115745725Y-117747190D01*
X115568349Y-117673719D01*
X115376359Y-117673719D01*
X115198983Y-117747190D01*
X115063225Y-117882948D01*
X114989754Y-118060324D01*
X109783934Y-118060324D01*
X109665030Y-118011073D01*
X109473040Y-118011073D01*
X109295664Y-118084544D01*
X109166750Y-118213458D01*
X109128164Y-118120303D01*
X108992406Y-117984545D01*
X108815030Y-117911074D01*
X108623040Y-117911074D01*
X108445664Y-117984545D01*
X108309906Y-118120303D01*
X108236435Y-118297679D01*
X108236435Y-118489669D01*
X108309906Y-118667045D01*
X108345580Y-118702719D01*
X107502489Y-118702719D01*
X107528164Y-118677044D01*
X107601635Y-118499668D01*
X107601635Y-118307678D01*
X107528164Y-118130302D01*
X107392406Y-117994544D01*
X107215030Y-117921073D01*
X107023040Y-117921073D01*
X106845664Y-117994544D01*
X106709906Y-118130302D01*
X106636435Y-118307678D01*
X106636435Y-118499668D01*
X106709906Y-118677044D01*
X106735581Y-118702719D01*
X101779989Y-118702719D01*
X101142522Y-118628398D01*
X100555937Y-118415478D01*
X100034069Y-118073326D01*
X99604909Y-117620295D01*
X99291478Y-117080684D01*
X99109388Y-116479470D01*
X99065954Y-115992799D01*
X99065954Y-115830172D01*
X99317800Y-115830172D01*
X99317800Y-116676028D01*
X99641494Y-117457496D01*
X100239604Y-118055606D01*
X101021072Y-118379300D01*
X101866928Y-118379300D01*
X102648396Y-118055606D01*
X103246506Y-117457496D01*
X103368073Y-117164005D01*
X117262400Y-117164005D01*
X117262400Y-117355995D01*
X117335871Y-117533371D01*
X117471629Y-117669129D01*
X117649005Y-117742600D01*
X117840995Y-117742600D01*
X118018371Y-117669129D01*
X118154129Y-117533371D01*
X118227600Y-117355995D01*
X118227600Y-117164005D01*
X118219316Y-117144005D01*
X122022400Y-117144005D01*
X122022400Y-117335995D01*
X122095871Y-117513371D01*
X122231629Y-117649129D01*
X122409005Y-117722600D01*
X122600995Y-117722600D01*
X122778371Y-117649129D01*
X122914129Y-117513371D01*
X122987600Y-117335995D01*
X122987600Y-117144005D01*
X122914129Y-116966629D01*
X122778371Y-116830871D01*
X122600995Y-116757400D01*
X122409005Y-116757400D01*
X122231629Y-116830871D01*
X122095871Y-116966629D01*
X122022400Y-117144005D01*
X118219316Y-117144005D01*
X118154129Y-116986629D01*
X118018371Y-116850871D01*
X117840995Y-116777400D01*
X117649005Y-116777400D01*
X117471629Y-116850871D01*
X117335871Y-116986629D01*
X117262400Y-117164005D01*
X103368073Y-117164005D01*
X103570200Y-116676028D01*
X103570200Y-115830324D01*
X106552754Y-115830324D01*
X106552754Y-116022314D01*
X106626225Y-116199690D01*
X106761983Y-116335448D01*
X106939359Y-116408919D01*
X107131349Y-116408919D01*
X107308725Y-116335448D01*
X107444483Y-116199690D01*
X107482743Y-116107323D01*
X107519906Y-116197044D01*
X107655664Y-116332802D01*
X107833040Y-116406273D01*
X108025030Y-116406273D01*
X108202406Y-116332802D01*
X108338164Y-116197044D01*
X108411635Y-116019668D01*
X108411635Y-115827678D01*
X108385966Y-115765705D01*
X116064100Y-115765705D01*
X116064100Y-115957695D01*
X116137571Y-116135071D01*
X116273329Y-116270829D01*
X116450705Y-116344300D01*
X116642695Y-116344300D01*
X116820071Y-116270829D01*
X116955829Y-116135071D01*
X117029300Y-115957695D01*
X117029300Y-115832712D01*
X136815820Y-115832712D01*
X136815820Y-116678568D01*
X137139514Y-117460036D01*
X137737624Y-118058146D01*
X138519092Y-118381840D01*
X139364948Y-118381840D01*
X140146416Y-118058146D01*
X140744526Y-117460036D01*
X141068220Y-116678568D01*
X141068220Y-115832712D01*
X140744526Y-115051244D01*
X140146416Y-114453134D01*
X139364948Y-114129440D01*
X138519092Y-114129440D01*
X137737624Y-114453134D01*
X137139514Y-115051244D01*
X136815820Y-115832712D01*
X117029300Y-115832712D01*
X117029300Y-115765705D01*
X116955829Y-115588329D01*
X116820071Y-115452571D01*
X116642695Y-115379100D01*
X116450705Y-115379100D01*
X116273329Y-115452571D01*
X116137571Y-115588329D01*
X116064100Y-115765705D01*
X108385966Y-115765705D01*
X108338164Y-115650302D01*
X108202406Y-115514544D01*
X108025030Y-115441073D01*
X107833040Y-115441073D01*
X107655664Y-115514544D01*
X107519906Y-115650302D01*
X107481646Y-115742669D01*
X107444483Y-115652948D01*
X107308725Y-115517190D01*
X107131349Y-115443719D01*
X106939359Y-115443719D01*
X106761983Y-115517190D01*
X106626225Y-115652948D01*
X106552754Y-115830324D01*
X103570200Y-115830324D01*
X103570200Y-115830172D01*
X103246506Y-115048704D01*
X103188126Y-114990324D01*
X114789754Y-114990324D01*
X114789754Y-115182314D01*
X114863225Y-115359690D01*
X114998983Y-115495448D01*
X115176359Y-115568919D01*
X115368349Y-115568919D01*
X115545725Y-115495448D01*
X115681483Y-115359690D01*
X115754954Y-115182314D01*
X115754954Y-114990324D01*
X115719200Y-114904005D01*
X119122400Y-114904005D01*
X119122400Y-115095995D01*
X119195871Y-115273371D01*
X119331629Y-115409129D01*
X119509005Y-115482600D01*
X119700995Y-115482600D01*
X119878371Y-115409129D01*
X120014129Y-115273371D01*
X120087600Y-115095995D01*
X120087600Y-114904005D01*
X120014129Y-114726629D01*
X119878371Y-114590871D01*
X119700995Y-114517400D01*
X119509005Y-114517400D01*
X119331629Y-114590871D01*
X119195871Y-114726629D01*
X119122400Y-114904005D01*
X115719200Y-114904005D01*
X115681483Y-114812948D01*
X115545725Y-114677190D01*
X115368349Y-114603719D01*
X115176359Y-114603719D01*
X114998983Y-114677190D01*
X114863225Y-114812948D01*
X114789754Y-114990324D01*
X103188126Y-114990324D01*
X102648396Y-114450594D01*
X102316031Y-114312924D01*
X108236554Y-114312924D01*
X108236554Y-114504914D01*
X108310025Y-114682290D01*
X108445783Y-114818048D01*
X108623159Y-114891519D01*
X108815149Y-114891519D01*
X108992525Y-114818048D01*
X109125554Y-114685019D01*
X109258583Y-114818048D01*
X109435959Y-114891519D01*
X109627949Y-114891519D01*
X109805325Y-114818048D01*
X109941083Y-114682290D01*
X110014554Y-114504914D01*
X110014554Y-114405395D01*
X110298025Y-114405395D01*
X110298025Y-114597385D01*
X110371496Y-114774761D01*
X110507254Y-114910519D01*
X110684630Y-114983990D01*
X110876620Y-114983990D01*
X111053996Y-114910519D01*
X111189754Y-114774761D01*
X111263225Y-114597385D01*
X111263225Y-114405395D01*
X111189754Y-114228019D01*
X111053996Y-114092261D01*
X110876620Y-114018790D01*
X110684630Y-114018790D01*
X110507254Y-114092261D01*
X110371496Y-114228019D01*
X110298025Y-114405395D01*
X110014554Y-114405395D01*
X110014554Y-114312924D01*
X109941083Y-114135548D01*
X109805325Y-113999790D01*
X109627949Y-113926319D01*
X109435959Y-113926319D01*
X109258583Y-113999790D01*
X109125554Y-114132819D01*
X108992525Y-113999790D01*
X108815149Y-113926319D01*
X108623159Y-113926319D01*
X108445783Y-113999790D01*
X108310025Y-114135548D01*
X108236554Y-114312924D01*
X102316031Y-114312924D01*
X101866928Y-114126900D01*
X101021072Y-114126900D01*
X100239604Y-114450594D01*
X99641494Y-115048704D01*
X99317800Y-115830172D01*
X99065954Y-115830172D01*
X99065954Y-113142228D01*
X99834754Y-113142228D01*
X99834754Y-113372410D01*
X99922841Y-113585069D01*
X100085604Y-113747832D01*
X100298263Y-113835919D01*
X100528445Y-113835919D01*
X100741104Y-113747832D01*
X100774931Y-113714005D01*
X111942400Y-113714005D01*
X111942400Y-113905995D01*
X112015871Y-114083371D01*
X112151629Y-114219129D01*
X112329005Y-114292600D01*
X112520995Y-114292600D01*
X112698371Y-114219129D01*
X112834129Y-114083371D01*
X112907600Y-113905995D01*
X112907600Y-113714005D01*
X112834129Y-113536629D01*
X112698371Y-113400871D01*
X112520995Y-113327400D01*
X112329005Y-113327400D01*
X112151629Y-113400871D01*
X112015871Y-113536629D01*
X111942400Y-113714005D01*
X100774931Y-113714005D01*
X100903867Y-113585069D01*
X100991954Y-113372410D01*
X100991954Y-113142228D01*
X139458754Y-113142228D01*
X139458754Y-113372410D01*
X139546841Y-113585069D01*
X139709604Y-113747832D01*
X139922263Y-113835919D01*
X140152445Y-113835919D01*
X140365104Y-113747832D01*
X140527867Y-113585069D01*
X140615954Y-113372410D01*
X140615954Y-113142228D01*
X140527867Y-112929569D01*
X140365104Y-112766806D01*
X140152445Y-112678719D01*
X139922263Y-112678719D01*
X139709604Y-112766806D01*
X139546841Y-112929569D01*
X139458754Y-113142228D01*
X100991954Y-113142228D01*
X100903867Y-112929569D01*
X100741104Y-112766806D01*
X100528445Y-112678719D01*
X100298263Y-112678719D01*
X100085604Y-112766806D01*
X99922841Y-112929569D01*
X99834754Y-113142228D01*
X99065954Y-113142228D01*
X99065954Y-108892228D01*
X99834754Y-108892228D01*
X99834754Y-109122410D01*
X99922841Y-109335069D01*
X100085604Y-109497832D01*
X100298263Y-109585919D01*
X100528445Y-109585919D01*
X100713360Y-109509324D01*
X104559754Y-109509324D01*
X104559754Y-109701314D01*
X104633225Y-109878690D01*
X104768983Y-110014448D01*
X104946359Y-110087919D01*
X105138349Y-110087919D01*
X105315725Y-110014448D01*
X105451483Y-109878690D01*
X105524954Y-109701314D01*
X105524954Y-109509324D01*
X105451483Y-109331948D01*
X105315725Y-109196190D01*
X105138349Y-109122719D01*
X104946359Y-109122719D01*
X104768983Y-109196190D01*
X104633225Y-109331948D01*
X104559754Y-109509324D01*
X100713360Y-109509324D01*
X100741104Y-109497832D01*
X100903867Y-109335069D01*
X100991954Y-109122410D01*
X100991954Y-108892228D01*
X100903867Y-108679569D01*
X100741104Y-108516806D01*
X100528445Y-108428719D01*
X100298263Y-108428719D01*
X100085604Y-108516806D01*
X99922841Y-108679569D01*
X99834754Y-108892228D01*
X99065954Y-108892228D01*
X99065954Y-95798720D01*
X100623679Y-95798720D01*
X100680227Y-96083006D01*
X100841262Y-96324011D01*
X101005453Y-96433720D01*
X100841262Y-96543429D01*
X100680227Y-96784434D01*
X100623679Y-97068720D01*
X100680227Y-97353006D01*
X100841262Y-97594011D01*
X101005453Y-97703720D01*
X100841262Y-97813429D01*
X100680227Y-98054434D01*
X100623679Y-98338720D01*
X100680227Y-98623006D01*
X100841262Y-98864011D01*
X101005453Y-98973720D01*
X100841262Y-99083429D01*
X100680227Y-99324434D01*
X100623679Y-99608720D01*
X100680227Y-99893006D01*
X100841262Y-100134011D01*
X101082267Y-100295046D01*
X101294793Y-100337320D01*
X101438313Y-100337320D01*
X101650839Y-100295046D01*
X101891844Y-100134011D01*
X102001553Y-99969820D01*
X102111262Y-100134011D01*
X102352267Y-100295046D01*
X102564793Y-100337320D01*
X102708313Y-100337320D01*
X102920839Y-100295046D01*
X103161844Y-100134011D01*
X103322879Y-99893006D01*
X103379427Y-99608720D01*
X103322879Y-99324434D01*
X103161844Y-99083429D01*
X102997653Y-98973720D01*
X103161844Y-98864011D01*
X103322879Y-98623006D01*
X103379427Y-98338720D01*
X103322879Y-98054434D01*
X103161844Y-97813429D01*
X102997653Y-97703720D01*
X103161844Y-97594011D01*
X103322879Y-97353006D01*
X103379427Y-97068720D01*
X103322879Y-96784434D01*
X103161844Y-96543429D01*
X102997653Y-96433720D01*
X103161844Y-96324011D01*
X103322879Y-96083006D01*
X103379427Y-95798720D01*
X103322879Y-95514434D01*
X103161844Y-95273429D01*
X103142628Y-95260590D01*
X103225748Y-95244056D01*
X103301364Y-95193531D01*
X103351889Y-95117915D01*
X103369631Y-95028720D01*
X103369631Y-94028720D01*
X103351889Y-93939525D01*
X103301364Y-93863909D01*
X103225748Y-93813384D01*
X103136553Y-93795642D01*
X102136553Y-93795642D01*
X102047358Y-93813384D01*
X101971742Y-93863909D01*
X101921217Y-93939525D01*
X101903475Y-94028720D01*
X101903475Y-94056538D01*
X101789638Y-93935534D01*
X101530430Y-93818780D01*
X101417353Y-93859035D01*
X101417353Y-94477920D01*
X101437353Y-94477920D01*
X101437353Y-94579520D01*
X101417353Y-94579520D01*
X101417353Y-94599520D01*
X101315753Y-94599520D01*
X101315753Y-94579520D01*
X100697027Y-94579520D01*
X100656621Y-94692595D01*
X100748671Y-94914845D01*
X100943468Y-95121906D01*
X101017874Y-95155420D01*
X100841262Y-95273429D01*
X100680227Y-95514434D01*
X100623679Y-95798720D01*
X99065954Y-95798720D01*
X99065954Y-94364845D01*
X100656621Y-94364845D01*
X100697027Y-94477920D01*
X101315753Y-94477920D01*
X101315753Y-93859035D01*
X101202676Y-93818780D01*
X100943468Y-93935534D01*
X100748671Y-94142595D01*
X100656621Y-94364845D01*
X99065954Y-94364845D01*
X99065954Y-89976422D01*
X106458754Y-89976422D01*
X106458755Y-111036217D01*
X106464588Y-111065541D01*
X106464588Y-111065548D01*
X106540707Y-111448226D01*
X106540707Y-111448231D01*
X106586040Y-111557673D01*
X106802813Y-111882097D01*
X106886576Y-111965860D01*
X107211000Y-112182633D01*
X107320442Y-112227966D01*
X107320447Y-112227966D01*
X107703125Y-112304085D01*
X107703127Y-112304085D01*
X107732456Y-112309919D01*
X109792252Y-112309919D01*
X109821581Y-112304085D01*
X109821583Y-112304085D01*
X110204261Y-112227966D01*
X110204266Y-112227966D01*
X110313708Y-112182633D01*
X110631451Y-111970324D01*
X112789754Y-111970324D01*
X112789754Y-112162314D01*
X112863225Y-112339690D01*
X112998983Y-112475448D01*
X113176359Y-112548919D01*
X113368349Y-112548919D01*
X113545725Y-112475448D01*
X113647168Y-112374005D01*
X118252400Y-112374005D01*
X118252400Y-112565995D01*
X118325871Y-112743371D01*
X118461629Y-112879129D01*
X118639005Y-112952600D01*
X118830995Y-112952600D01*
X119008371Y-112879129D01*
X119144129Y-112743371D01*
X119217600Y-112565995D01*
X119217600Y-112374005D01*
X119204592Y-112342600D01*
X119270995Y-112342600D01*
X119448371Y-112269129D01*
X119584129Y-112133371D01*
X119657600Y-111955995D01*
X119657600Y-111764005D01*
X119584129Y-111586629D01*
X119448371Y-111450871D01*
X119270995Y-111377400D01*
X119079005Y-111377400D01*
X118901629Y-111450871D01*
X118765871Y-111586629D01*
X118692400Y-111764005D01*
X118692400Y-111955995D01*
X118705408Y-111987400D01*
X118639005Y-111987400D01*
X118461629Y-112060871D01*
X118325871Y-112196629D01*
X118252400Y-112374005D01*
X113647168Y-112374005D01*
X113681483Y-112339690D01*
X113754954Y-112162314D01*
X113754954Y-111970324D01*
X113681483Y-111792948D01*
X113545725Y-111657190D01*
X113368349Y-111583719D01*
X113176359Y-111583719D01*
X112998983Y-111657190D01*
X112863225Y-111792948D01*
X112789754Y-111970324D01*
X110631451Y-111970324D01*
X110638132Y-111965860D01*
X110721895Y-111882097D01*
X110938668Y-111557673D01*
X110984001Y-111448231D01*
X110984001Y-111448226D01*
X111060120Y-111065548D01*
X111060120Y-111065546D01*
X111065954Y-111036217D01*
X111065954Y-110780324D01*
X119979754Y-110780324D01*
X119979754Y-110972314D01*
X120053225Y-111149690D01*
X120188983Y-111285448D01*
X120366359Y-111358919D01*
X120558349Y-111358919D01*
X120735725Y-111285448D01*
X120871483Y-111149690D01*
X120918440Y-111036324D01*
X137141754Y-111036324D01*
X137141754Y-111228314D01*
X137215225Y-111405690D01*
X137350983Y-111541448D01*
X137528359Y-111614919D01*
X137720349Y-111614919D01*
X137897725Y-111541448D01*
X138033483Y-111405690D01*
X138106954Y-111228314D01*
X138106954Y-111036324D01*
X138033483Y-110858948D01*
X137897725Y-110723190D01*
X137720349Y-110649719D01*
X137528359Y-110649719D01*
X137350983Y-110723190D01*
X137215225Y-110858948D01*
X137141754Y-111036324D01*
X120918440Y-111036324D01*
X120944954Y-110972314D01*
X120944954Y-110780324D01*
X120871483Y-110602948D01*
X120735725Y-110467190D01*
X120558349Y-110393719D01*
X120366359Y-110393719D01*
X120188983Y-110467190D01*
X120053225Y-110602948D01*
X119979754Y-110780324D01*
X111065954Y-110780324D01*
X111065954Y-109780324D01*
X119979754Y-109780324D01*
X119979754Y-109972314D01*
X120053225Y-110149690D01*
X120188983Y-110285448D01*
X120366359Y-110358919D01*
X120558349Y-110358919D01*
X120735725Y-110285448D01*
X120871483Y-110149690D01*
X120893504Y-110096524D01*
X123120954Y-110096524D01*
X123120954Y-110288514D01*
X123194425Y-110465890D01*
X123330183Y-110601648D01*
X123507559Y-110675119D01*
X123699549Y-110675119D01*
X123876925Y-110601648D01*
X124012683Y-110465890D01*
X124086154Y-110288514D01*
X124086154Y-110096524D01*
X128734354Y-110096524D01*
X128734354Y-110288514D01*
X128807825Y-110465890D01*
X128943583Y-110601648D01*
X129120959Y-110675119D01*
X129312949Y-110675119D01*
X129490325Y-110601648D01*
X129626083Y-110465890D01*
X129664142Y-110374005D01*
X131592400Y-110374005D01*
X131592400Y-110565995D01*
X131665871Y-110743371D01*
X131801629Y-110879129D01*
X131979005Y-110952600D01*
X132170995Y-110952600D01*
X132348371Y-110879129D01*
X132484129Y-110743371D01*
X132557600Y-110565995D01*
X132557600Y-110384005D01*
X132882400Y-110384005D01*
X132882400Y-110575995D01*
X132955871Y-110753371D01*
X133091629Y-110889129D01*
X133269005Y-110962600D01*
X133460995Y-110962600D01*
X133638371Y-110889129D01*
X133774129Y-110753371D01*
X133847600Y-110575995D01*
X133847600Y-110384005D01*
X133774129Y-110206629D01*
X133638371Y-110070871D01*
X133460995Y-109997400D01*
X133269005Y-109997400D01*
X133091629Y-110070871D01*
X132955871Y-110206629D01*
X132882400Y-110384005D01*
X132557600Y-110384005D01*
X132557600Y-110374005D01*
X132484129Y-110196629D01*
X132348371Y-110060871D01*
X132170995Y-109987400D01*
X131979005Y-109987400D01*
X131801629Y-110060871D01*
X131665871Y-110196629D01*
X131592400Y-110374005D01*
X129664142Y-110374005D01*
X129699554Y-110288514D01*
X129699554Y-110096524D01*
X129626083Y-109919148D01*
X129490325Y-109783390D01*
X129312949Y-109709919D01*
X129120959Y-109709919D01*
X128943583Y-109783390D01*
X128807825Y-109919148D01*
X128734354Y-110096524D01*
X124086154Y-110096524D01*
X124012683Y-109919148D01*
X123876925Y-109783390D01*
X123699549Y-109709919D01*
X123507559Y-109709919D01*
X123330183Y-109783390D01*
X123194425Y-109919148D01*
X123120954Y-110096524D01*
X120893504Y-110096524D01*
X120944954Y-109972314D01*
X120944954Y-109780324D01*
X120871483Y-109602948D01*
X120735725Y-109467190D01*
X120558349Y-109393719D01*
X120366359Y-109393719D01*
X120188983Y-109467190D01*
X120053225Y-109602948D01*
X119979754Y-109780324D01*
X111065954Y-109780324D01*
X111065954Y-108650324D01*
X112719754Y-108650324D01*
X112719754Y-108842314D01*
X112793225Y-109019690D01*
X112928983Y-109155448D01*
X113106359Y-109228919D01*
X113298349Y-109228919D01*
X113475725Y-109155448D01*
X113611483Y-109019690D01*
X113684954Y-108842314D01*
X113684954Y-108724005D01*
X114802400Y-108724005D01*
X114802400Y-108915995D01*
X114875871Y-109093371D01*
X115011629Y-109229129D01*
X115189005Y-109302600D01*
X115380995Y-109302600D01*
X115558371Y-109229129D01*
X115694129Y-109093371D01*
X115745067Y-108970394D01*
X115886359Y-109028919D01*
X116078349Y-109028919D01*
X116204158Y-108976808D01*
X116235871Y-109053371D01*
X116371629Y-109189129D01*
X116549005Y-109262600D01*
X116740995Y-109262600D01*
X116918371Y-109189129D01*
X117054129Y-109053371D01*
X117127600Y-108875995D01*
X117127600Y-108780324D01*
X119989754Y-108780324D01*
X119989754Y-108972314D01*
X120063225Y-109149690D01*
X120198983Y-109285448D01*
X120376359Y-109358919D01*
X120568349Y-109358919D01*
X120745725Y-109285448D01*
X120881483Y-109149690D01*
X120954954Y-108972314D01*
X120954954Y-108780324D01*
X120930102Y-108720324D01*
X133699754Y-108720324D01*
X133699754Y-108912314D01*
X133773225Y-109089690D01*
X133908983Y-109225448D01*
X134086359Y-109298919D01*
X134278349Y-109298919D01*
X134455725Y-109225448D01*
X134591483Y-109089690D01*
X134664954Y-108912314D01*
X134664954Y-108892228D01*
X139458754Y-108892228D01*
X139458754Y-109122410D01*
X139546841Y-109335069D01*
X139709604Y-109497832D01*
X139922263Y-109585919D01*
X140152445Y-109585919D01*
X140365104Y-109497832D01*
X140527867Y-109335069D01*
X140615954Y-109122410D01*
X140615954Y-108892228D01*
X140527867Y-108679569D01*
X140365104Y-108516806D01*
X140152445Y-108428719D01*
X139922263Y-108428719D01*
X139709604Y-108516806D01*
X139546841Y-108679569D01*
X139458754Y-108892228D01*
X134664954Y-108892228D01*
X134664954Y-108720324D01*
X134591483Y-108542948D01*
X134455725Y-108407190D01*
X134278349Y-108333719D01*
X134086359Y-108333719D01*
X133908983Y-108407190D01*
X133773225Y-108542948D01*
X133699754Y-108720324D01*
X120930102Y-108720324D01*
X120881483Y-108602948D01*
X120745725Y-108467190D01*
X120568349Y-108393719D01*
X120376359Y-108393719D01*
X120198983Y-108467190D01*
X120063225Y-108602948D01*
X119989754Y-108780324D01*
X117127600Y-108780324D01*
X117127600Y-108684005D01*
X117054129Y-108506629D01*
X116918371Y-108370871D01*
X116740995Y-108297400D01*
X116549005Y-108297400D01*
X116423196Y-108349511D01*
X116391483Y-108272948D01*
X116255725Y-108137190D01*
X116078349Y-108063719D01*
X115886359Y-108063719D01*
X115708983Y-108137190D01*
X115573225Y-108272948D01*
X115522287Y-108395925D01*
X115380995Y-108337400D01*
X115189005Y-108337400D01*
X115011629Y-108410871D01*
X114875871Y-108546629D01*
X114802400Y-108724005D01*
X113684954Y-108724005D01*
X113684954Y-108650324D01*
X113611483Y-108472948D01*
X113475725Y-108337190D01*
X113298349Y-108263719D01*
X113106359Y-108263719D01*
X112928983Y-108337190D01*
X112793225Y-108472948D01*
X112719754Y-108650324D01*
X111065954Y-108650324D01*
X111065954Y-106680324D01*
X116949754Y-106680324D01*
X116949754Y-106872314D01*
X117023225Y-107049690D01*
X117158983Y-107185448D01*
X117336359Y-107258919D01*
X117528349Y-107258919D01*
X117705725Y-107185448D01*
X117841483Y-107049690D01*
X117874357Y-106970324D01*
X125939754Y-106970324D01*
X125939754Y-107162314D01*
X126013225Y-107339690D01*
X126148983Y-107475448D01*
X126326359Y-107548919D01*
X126518349Y-107548919D01*
X126695725Y-107475448D01*
X126831483Y-107339690D01*
X126904954Y-107162314D01*
X126904954Y-106997724D01*
X129978954Y-106997724D01*
X129978954Y-107189714D01*
X130052425Y-107367090D01*
X130188183Y-107502848D01*
X130365559Y-107576319D01*
X130557549Y-107576319D01*
X130734925Y-107502848D01*
X130870683Y-107367090D01*
X130944154Y-107189714D01*
X130944154Y-107120324D01*
X138119754Y-107120324D01*
X138119754Y-107312314D01*
X138193225Y-107489690D01*
X138328983Y-107625448D01*
X138506359Y-107698919D01*
X138698349Y-107698919D01*
X138875725Y-107625448D01*
X139011483Y-107489690D01*
X139084954Y-107312314D01*
X139084954Y-107120324D01*
X139011483Y-106942948D01*
X138875725Y-106807190D01*
X138698349Y-106733719D01*
X138506359Y-106733719D01*
X138328983Y-106807190D01*
X138193225Y-106942948D01*
X138119754Y-107120324D01*
X130944154Y-107120324D01*
X130944154Y-106997724D01*
X130870683Y-106820348D01*
X130734925Y-106684590D01*
X130557549Y-106611119D01*
X130365559Y-106611119D01*
X130188183Y-106684590D01*
X130052425Y-106820348D01*
X129978954Y-106997724D01*
X126904954Y-106997724D01*
X126904954Y-106970324D01*
X126831483Y-106792948D01*
X126695725Y-106657190D01*
X126518349Y-106583719D01*
X126326359Y-106583719D01*
X126148983Y-106657190D01*
X126013225Y-106792948D01*
X125939754Y-106970324D01*
X117874357Y-106970324D01*
X117914954Y-106872314D01*
X117914954Y-106680324D01*
X117841483Y-106502948D01*
X117705725Y-106367190D01*
X117528349Y-106293719D01*
X117336359Y-106293719D01*
X117158983Y-106367190D01*
X117023225Y-106502948D01*
X116949754Y-106680324D01*
X111065954Y-106680324D01*
X111065954Y-104701283D01*
X138623754Y-104701283D01*
X138623754Y-104951355D01*
X138719453Y-105182392D01*
X138896281Y-105359220D01*
X139127318Y-105454919D01*
X139377390Y-105454919D01*
X139608427Y-105359220D01*
X139785255Y-105182392D01*
X139880954Y-104951355D01*
X139880954Y-104701283D01*
X139785255Y-104470246D01*
X139608427Y-104293418D01*
X139377390Y-104197719D01*
X139127318Y-104197719D01*
X138896281Y-104293418D01*
X138719453Y-104470246D01*
X138623754Y-104701283D01*
X111065954Y-104701283D01*
X111065954Y-102152924D01*
X119999756Y-102152924D01*
X119999756Y-102344914D01*
X120073227Y-102522290D01*
X120208985Y-102658048D01*
X120386361Y-102731519D01*
X120578351Y-102731519D01*
X120701947Y-102680324D01*
X121839754Y-102680324D01*
X121839754Y-102872314D01*
X121913225Y-103049690D01*
X122048983Y-103185448D01*
X122226359Y-103258919D01*
X122418349Y-103258919D01*
X122595725Y-103185448D01*
X122731483Y-103049690D01*
X122804954Y-102872314D01*
X122804954Y-102680324D01*
X122731483Y-102502948D01*
X122595725Y-102367190D01*
X122418349Y-102293719D01*
X122226359Y-102293719D01*
X122048983Y-102367190D01*
X121913225Y-102502948D01*
X121839754Y-102680324D01*
X120701947Y-102680324D01*
X120755727Y-102658048D01*
X120891485Y-102522290D01*
X120964956Y-102344914D01*
X120964956Y-102152924D01*
X120891485Y-101975548D01*
X120755727Y-101839790D01*
X120578351Y-101766319D01*
X120386361Y-101766319D01*
X120208985Y-101839790D01*
X120073227Y-101975548D01*
X119999756Y-102152924D01*
X111065954Y-102152924D01*
X111065954Y-101660324D01*
X122099744Y-101660324D01*
X122099744Y-101852314D01*
X122173215Y-102029690D01*
X122308973Y-102165448D01*
X122486349Y-102238919D01*
X122678339Y-102238919D01*
X122855715Y-102165448D01*
X122991473Y-102029690D01*
X123064944Y-101852314D01*
X123064944Y-101660324D01*
X122991473Y-101482948D01*
X122855715Y-101347190D01*
X122678339Y-101273719D01*
X122486349Y-101273719D01*
X122308973Y-101347190D01*
X122173215Y-101482948D01*
X122099744Y-101660324D01*
X111065954Y-101660324D01*
X111065954Y-100660324D01*
X124409754Y-100660324D01*
X124409754Y-100852314D01*
X124483225Y-101029690D01*
X124618983Y-101165448D01*
X124796359Y-101238919D01*
X124988349Y-101238919D01*
X125119754Y-101184490D01*
X125119754Y-101342314D01*
X125193225Y-101519690D01*
X125328983Y-101655448D01*
X125506359Y-101728919D01*
X125698349Y-101728919D01*
X125875725Y-101655448D01*
X126011483Y-101519690D01*
X126084954Y-101342314D01*
X126084954Y-101150324D01*
X126011483Y-100972948D01*
X125875725Y-100837190D01*
X125698349Y-100763719D01*
X125506359Y-100763719D01*
X125374954Y-100818148D01*
X125374954Y-100660324D01*
X125301483Y-100482948D01*
X125165725Y-100347190D01*
X125125007Y-100330324D01*
X128349754Y-100330324D01*
X128349754Y-100522314D01*
X128423225Y-100699690D01*
X128558983Y-100835448D01*
X128736359Y-100908919D01*
X128928349Y-100908919D01*
X129105725Y-100835448D01*
X129241483Y-100699690D01*
X129314954Y-100522314D01*
X129314954Y-100330324D01*
X129241483Y-100152948D01*
X129105725Y-100017190D01*
X128928349Y-99943719D01*
X128736359Y-99943719D01*
X128558983Y-100017190D01*
X128423225Y-100152948D01*
X128349754Y-100330324D01*
X125125007Y-100330324D01*
X124988349Y-100273719D01*
X124796359Y-100273719D01*
X124618983Y-100347190D01*
X124483225Y-100482948D01*
X124409754Y-100660324D01*
X111065954Y-100660324D01*
X111065954Y-98970324D01*
X121939754Y-98970324D01*
X121939754Y-99162314D01*
X122013225Y-99339690D01*
X122148983Y-99475448D01*
X122326359Y-99548919D01*
X122518349Y-99548919D01*
X122695725Y-99475448D01*
X122831483Y-99339690D01*
X122904954Y-99162314D01*
X122904954Y-98970324D01*
X122890321Y-98934997D01*
X122996359Y-98978919D01*
X123188349Y-98978919D01*
X123365725Y-98905448D01*
X123480849Y-98790324D01*
X129519754Y-98790324D01*
X129519754Y-98982314D01*
X129593225Y-99159690D01*
X129728983Y-99295448D01*
X129906359Y-99368919D01*
X130098349Y-99368919D01*
X130275725Y-99295448D01*
X130411483Y-99159690D01*
X130484954Y-98982314D01*
X130484954Y-98790324D01*
X130447676Y-98700324D01*
X130869754Y-98700324D01*
X130869754Y-98892314D01*
X130943225Y-99069690D01*
X131078983Y-99205448D01*
X131256359Y-99278919D01*
X131448349Y-99278919D01*
X131625725Y-99205448D01*
X131761483Y-99069690D01*
X131834954Y-98892314D01*
X131834954Y-98700324D01*
X131832337Y-98694005D01*
X131962400Y-98694005D01*
X131962400Y-98885995D01*
X132035871Y-99063371D01*
X132171629Y-99199129D01*
X132349005Y-99272600D01*
X132540995Y-99272600D01*
X132718371Y-99199129D01*
X132854129Y-99063371D01*
X132927600Y-98885995D01*
X132927600Y-98694005D01*
X133072400Y-98694005D01*
X133072400Y-98885995D01*
X133145871Y-99063371D01*
X133281629Y-99199129D01*
X133459005Y-99272600D01*
X133650995Y-99272600D01*
X133828371Y-99199129D01*
X133964129Y-99063371D01*
X134037600Y-98885995D01*
X134037600Y-98694005D01*
X133964129Y-98516629D01*
X133828371Y-98380871D01*
X133650995Y-98307400D01*
X133459005Y-98307400D01*
X133281629Y-98380871D01*
X133145871Y-98516629D01*
X133072400Y-98694005D01*
X132927600Y-98694005D01*
X132854129Y-98516629D01*
X132718371Y-98380871D01*
X132540995Y-98307400D01*
X132349005Y-98307400D01*
X132171629Y-98380871D01*
X132035871Y-98516629D01*
X131962400Y-98694005D01*
X131832337Y-98694005D01*
X131761483Y-98522948D01*
X131625725Y-98387190D01*
X131448349Y-98313719D01*
X131256359Y-98313719D01*
X131078983Y-98387190D01*
X130943225Y-98522948D01*
X130869754Y-98700324D01*
X130447676Y-98700324D01*
X130411483Y-98612948D01*
X130275725Y-98477190D01*
X130098349Y-98403719D01*
X129906359Y-98403719D01*
X129728983Y-98477190D01*
X129593225Y-98612948D01*
X129519754Y-98790324D01*
X123480849Y-98790324D01*
X123501483Y-98769690D01*
X123574954Y-98592314D01*
X123574954Y-98400324D01*
X123501483Y-98222948D01*
X123365725Y-98087190D01*
X123188349Y-98013719D01*
X122996359Y-98013719D01*
X122818983Y-98087190D01*
X122683225Y-98222948D01*
X122609754Y-98400324D01*
X122609754Y-98592314D01*
X122624387Y-98627641D01*
X122518349Y-98583719D01*
X122326359Y-98583719D01*
X122148983Y-98657190D01*
X122013225Y-98792948D01*
X121939754Y-98970324D01*
X111065954Y-98970324D01*
X111065954Y-97870324D01*
X119852354Y-97870324D01*
X119852354Y-98062314D01*
X119925825Y-98239690D01*
X120061583Y-98375448D01*
X120238959Y-98448919D01*
X120430949Y-98448919D01*
X120608325Y-98375448D01*
X120744083Y-98239690D01*
X120817554Y-98062314D01*
X120817554Y-97870324D01*
X120744083Y-97692948D01*
X120608325Y-97557190D01*
X120430949Y-97483719D01*
X120238959Y-97483719D01*
X120061583Y-97557190D01*
X119925825Y-97692948D01*
X119852354Y-97870324D01*
X111065954Y-97870324D01*
X111065954Y-96770324D01*
X119852354Y-96770324D01*
X119852354Y-96962314D01*
X119925825Y-97139690D01*
X120061583Y-97275448D01*
X120238959Y-97348919D01*
X120430949Y-97348919D01*
X120596553Y-97280324D01*
X123229754Y-97280324D01*
X123229754Y-97472314D01*
X123303225Y-97649690D01*
X123438983Y-97785448D01*
X123616359Y-97858919D01*
X123808349Y-97858919D01*
X123829099Y-97850324D01*
X130109754Y-97850324D01*
X130109754Y-98042314D01*
X130183225Y-98219690D01*
X130318983Y-98355448D01*
X130496359Y-98428919D01*
X130688349Y-98428919D01*
X130865725Y-98355448D01*
X131001483Y-98219690D01*
X131074954Y-98042314D01*
X131074954Y-97878919D01*
X131098349Y-97878919D01*
X131275725Y-97805448D01*
X131411483Y-97669690D01*
X131484954Y-97492314D01*
X131484954Y-97300324D01*
X131411483Y-97122948D01*
X131275725Y-96987190D01*
X131098349Y-96913719D01*
X130906359Y-96913719D01*
X130728983Y-96987190D01*
X130593225Y-97122948D01*
X130519754Y-97300324D01*
X130519754Y-97463719D01*
X130496359Y-97463719D01*
X130318983Y-97537190D01*
X130183225Y-97672948D01*
X130109754Y-97850324D01*
X123829099Y-97850324D01*
X123985725Y-97785448D01*
X124121483Y-97649690D01*
X124194954Y-97472314D01*
X124194954Y-97280324D01*
X124121483Y-97102948D01*
X123985725Y-96967190D01*
X123808349Y-96893719D01*
X123616359Y-96893719D01*
X123438983Y-96967190D01*
X123303225Y-97102948D01*
X123229754Y-97280324D01*
X120596553Y-97280324D01*
X120608325Y-97275448D01*
X120744083Y-97139690D01*
X120817554Y-96962314D01*
X120817554Y-96770324D01*
X120744083Y-96592948D01*
X120608325Y-96457190D01*
X120430949Y-96383719D01*
X120238959Y-96383719D01*
X120061583Y-96457190D01*
X119925825Y-96592948D01*
X119852354Y-96770324D01*
X111065954Y-96770324D01*
X111065954Y-96190324D01*
X125969754Y-96190324D01*
X125969754Y-96382314D01*
X126043225Y-96559690D01*
X126178983Y-96695448D01*
X126356359Y-96768919D01*
X126548349Y-96768919D01*
X126725725Y-96695448D01*
X126861483Y-96559690D01*
X126934954Y-96382314D01*
X126934954Y-96220405D01*
X130487400Y-96220405D01*
X130487400Y-96412395D01*
X130560871Y-96589771D01*
X130696629Y-96725529D01*
X130874005Y-96799000D01*
X131065995Y-96799000D01*
X131243371Y-96725529D01*
X131379129Y-96589771D01*
X131452600Y-96412395D01*
X131452600Y-96220405D01*
X131379129Y-96043029D01*
X131243371Y-95907271D01*
X131065995Y-95833800D01*
X130874005Y-95833800D01*
X130696629Y-95907271D01*
X130560871Y-96043029D01*
X130487400Y-96220405D01*
X126934954Y-96220405D01*
X126934954Y-96190324D01*
X126861483Y-96012948D01*
X126725725Y-95877190D01*
X126548349Y-95803719D01*
X126356359Y-95803719D01*
X126178983Y-95877190D01*
X126043225Y-96012948D01*
X125969754Y-96190324D01*
X111065954Y-96190324D01*
X111065954Y-93790324D01*
X115549754Y-93790324D01*
X115549754Y-93982314D01*
X115623225Y-94159690D01*
X115758983Y-94295448D01*
X115936359Y-94368919D01*
X116128349Y-94368919D01*
X116245523Y-94320384D01*
X116303225Y-94459690D01*
X116438983Y-94595448D01*
X116616359Y-94668919D01*
X116808349Y-94668919D01*
X116985725Y-94595448D01*
X117121483Y-94459690D01*
X117194954Y-94282314D01*
X117194954Y-94090324D01*
X117121483Y-93912948D01*
X117028859Y-93820324D01*
X118059754Y-93820324D01*
X118059754Y-94012314D01*
X118133225Y-94189690D01*
X118268983Y-94325448D01*
X118446359Y-94398919D01*
X118638349Y-94398919D01*
X118706365Y-94370746D01*
X119089754Y-94370746D01*
X119089754Y-94562736D01*
X119163225Y-94740112D01*
X119298983Y-94875870D01*
X119476359Y-94949341D01*
X119668349Y-94949341D01*
X119845725Y-94875870D01*
X119981483Y-94740112D01*
X120054954Y-94562736D01*
X120054954Y-94370746D01*
X120010990Y-94264605D01*
X125559800Y-94264605D01*
X125559800Y-94456595D01*
X125633271Y-94633971D01*
X125769029Y-94769729D01*
X125946405Y-94843200D01*
X126138395Y-94843200D01*
X126160593Y-94834005D01*
X130872400Y-94834005D01*
X130872400Y-95025995D01*
X130945871Y-95203371D01*
X131081629Y-95339129D01*
X131259005Y-95412600D01*
X131444906Y-95412600D01*
X131417400Y-95479005D01*
X131417400Y-95670995D01*
X131490871Y-95848371D01*
X131626629Y-95984129D01*
X131804005Y-96057600D01*
X131967402Y-96057600D01*
X131900000Y-96220324D01*
X131900000Y-96412314D01*
X131973471Y-96589690D01*
X132109229Y-96725448D01*
X132286605Y-96798919D01*
X132478595Y-96798919D01*
X132655971Y-96725448D01*
X132791729Y-96589690D01*
X132865200Y-96412314D01*
X132865200Y-96220324D01*
X132791729Y-96042948D01*
X132655971Y-95907190D01*
X132478595Y-95833719D01*
X132315198Y-95833719D01*
X132382600Y-95670995D01*
X132382600Y-95479005D01*
X132350952Y-95402600D01*
X132540995Y-95402600D01*
X132718371Y-95329129D01*
X132854129Y-95193371D01*
X132927600Y-95015995D01*
X132927600Y-94824005D01*
X133072400Y-94824005D01*
X133072400Y-95015995D01*
X133145871Y-95193371D01*
X133281629Y-95329129D01*
X133459005Y-95402600D01*
X133650995Y-95402600D01*
X133828371Y-95329129D01*
X133964129Y-95193371D01*
X134030007Y-95034324D01*
X134220754Y-95034324D01*
X134220754Y-95226314D01*
X134294225Y-95403690D01*
X134429983Y-95539448D01*
X134607359Y-95612919D01*
X134799349Y-95612919D01*
X134976725Y-95539448D01*
X135112483Y-95403690D01*
X135185954Y-95226314D01*
X135185954Y-95034324D01*
X135112483Y-94856948D01*
X134976725Y-94721190D01*
X134799349Y-94647719D01*
X134607359Y-94647719D01*
X134429983Y-94721190D01*
X134294225Y-94856948D01*
X134220754Y-95034324D01*
X134030007Y-95034324D01*
X134037600Y-95015995D01*
X134037600Y-94824005D01*
X133964129Y-94646629D01*
X133828371Y-94510871D01*
X133650995Y-94437400D01*
X133459005Y-94437400D01*
X133281629Y-94510871D01*
X133145871Y-94646629D01*
X133072400Y-94824005D01*
X132927600Y-94824005D01*
X132854129Y-94646629D01*
X132718371Y-94510871D01*
X132540995Y-94437400D01*
X132349005Y-94437400D01*
X132171629Y-94510871D01*
X132035871Y-94646629D01*
X131962400Y-94824005D01*
X131962400Y-95015995D01*
X131994048Y-95092400D01*
X131810094Y-95092400D01*
X131837600Y-95025995D01*
X131837600Y-94834005D01*
X131764129Y-94656629D01*
X131628371Y-94520871D01*
X131450995Y-94447400D01*
X131259005Y-94447400D01*
X131081629Y-94520871D01*
X130945871Y-94656629D01*
X130872400Y-94834005D01*
X126160593Y-94834005D01*
X126315771Y-94769729D01*
X126451529Y-94633971D01*
X126525000Y-94456595D01*
X126525000Y-94264605D01*
X126451529Y-94087229D01*
X126315771Y-93951471D01*
X126138395Y-93878000D01*
X125946405Y-93878000D01*
X125769029Y-93951471D01*
X125633271Y-94087229D01*
X125559800Y-94264605D01*
X120010990Y-94264605D01*
X119981483Y-94193370D01*
X119845725Y-94057612D01*
X119668349Y-93984141D01*
X119476359Y-93984141D01*
X119298983Y-94057612D01*
X119163225Y-94193370D01*
X119089754Y-94370746D01*
X118706365Y-94370746D01*
X118815725Y-94325448D01*
X118951483Y-94189690D01*
X119024954Y-94012314D01*
X119024954Y-93820324D01*
X118951483Y-93642948D01*
X118815725Y-93507190D01*
X118638349Y-93433719D01*
X118446359Y-93433719D01*
X118268983Y-93507190D01*
X118133225Y-93642948D01*
X118059754Y-93820324D01*
X117028859Y-93820324D01*
X116985725Y-93777190D01*
X116808349Y-93703719D01*
X116616359Y-93703719D01*
X116499185Y-93752254D01*
X116441483Y-93612948D01*
X116305725Y-93477190D01*
X116128349Y-93403719D01*
X115936359Y-93403719D01*
X115758983Y-93477190D01*
X115623225Y-93612948D01*
X115549754Y-93790324D01*
X111065954Y-93790324D01*
X111065954Y-92000324D01*
X112339754Y-92000324D01*
X112339754Y-92192314D01*
X112413225Y-92369690D01*
X112548983Y-92505448D01*
X112726359Y-92578919D01*
X112918349Y-92578919D01*
X112991463Y-92548635D01*
X112987351Y-92558561D01*
X112987351Y-92750551D01*
X113060822Y-92927927D01*
X113196580Y-93063685D01*
X113344399Y-93124913D01*
X113329731Y-93160324D01*
X113329731Y-93352314D01*
X113403202Y-93529690D01*
X113538960Y-93665448D01*
X113716336Y-93738919D01*
X113908326Y-93738919D01*
X114085702Y-93665448D01*
X114221460Y-93529690D01*
X114294931Y-93352314D01*
X114294931Y-93160324D01*
X114221460Y-92982948D01*
X114085702Y-92847190D01*
X113937883Y-92785962D01*
X113952551Y-92750551D01*
X113952551Y-92558561D01*
X113879080Y-92381185D01*
X113743322Y-92245427D01*
X113565946Y-92171956D01*
X113373956Y-92171956D01*
X113300842Y-92202240D01*
X113304954Y-92192314D01*
X113304954Y-92000324D01*
X113231483Y-91822948D01*
X113095725Y-91687190D01*
X112918349Y-91613719D01*
X112726359Y-91613719D01*
X112548983Y-91687190D01*
X112413225Y-91822948D01*
X112339754Y-92000324D01*
X111065954Y-92000324D01*
X111065954Y-90614724D01*
X121063554Y-90614724D01*
X121063554Y-90806714D01*
X121137025Y-90984090D01*
X121272783Y-91119848D01*
X121450159Y-91193319D01*
X121642149Y-91193319D01*
X121819525Y-91119848D01*
X121955283Y-90984090D01*
X122028754Y-90806714D01*
X122028754Y-90614724D01*
X121955283Y-90437348D01*
X121819525Y-90301590D01*
X121642149Y-90228119D01*
X121450159Y-90228119D01*
X121272783Y-90301590D01*
X121137025Y-90437348D01*
X121063554Y-90614724D01*
X111065954Y-90614724D01*
X111065954Y-89976421D01*
X111060120Y-89947090D01*
X110984001Y-89564412D01*
X110984001Y-89564407D01*
X110938668Y-89454965D01*
X110721895Y-89130541D01*
X110638132Y-89046778D01*
X110613507Y-89030324D01*
X126159754Y-89030324D01*
X126159754Y-89222314D01*
X126233225Y-89399690D01*
X126368983Y-89535448D01*
X126546359Y-89608919D01*
X126738349Y-89608919D01*
X126741241Y-89607721D01*
X127642357Y-89607721D01*
X127642357Y-89799711D01*
X127715828Y-89977087D01*
X127851586Y-90112845D01*
X128028962Y-90186316D01*
X128109754Y-90186316D01*
X128109754Y-90282312D01*
X128183225Y-90459688D01*
X128318983Y-90595446D01*
X128496359Y-90668917D01*
X128669754Y-90668917D01*
X128669754Y-90802314D01*
X128743225Y-90979690D01*
X128878983Y-91115448D01*
X129056359Y-91188919D01*
X129243747Y-91188919D01*
X129242800Y-91191205D01*
X129242800Y-91383195D01*
X129316271Y-91560571D01*
X129452029Y-91696329D01*
X129629405Y-91769800D01*
X129821395Y-91769800D01*
X129998771Y-91696329D01*
X130134529Y-91560571D01*
X130208000Y-91383195D01*
X130208000Y-91191205D01*
X130134529Y-91013829D01*
X129998771Y-90878071D01*
X129821395Y-90804600D01*
X129634007Y-90804600D01*
X129634954Y-90802314D01*
X129634954Y-90640124D01*
X138411754Y-90640124D01*
X138411754Y-90832114D01*
X138485225Y-91009490D01*
X138620983Y-91145248D01*
X138798359Y-91218719D01*
X138990349Y-91218719D01*
X139167725Y-91145248D01*
X139303483Y-91009490D01*
X139376954Y-90832114D01*
X139376954Y-90640124D01*
X139303483Y-90462748D01*
X139167725Y-90326990D01*
X138990349Y-90253519D01*
X138798359Y-90253519D01*
X138620983Y-90326990D01*
X138485225Y-90462748D01*
X138411754Y-90640124D01*
X129634954Y-90640124D01*
X129634954Y-90610324D01*
X129561483Y-90432948D01*
X129425725Y-90297190D01*
X129248349Y-90223719D01*
X129074954Y-90223719D01*
X129074954Y-90090322D01*
X129001483Y-89912946D01*
X128865725Y-89777188D01*
X128688349Y-89703717D01*
X128607557Y-89703717D01*
X128607557Y-89607721D01*
X128534086Y-89430345D01*
X128398328Y-89294587D01*
X128220952Y-89221116D01*
X128028962Y-89221116D01*
X127851586Y-89294587D01*
X127715828Y-89430345D01*
X127642357Y-89607721D01*
X126741241Y-89607721D01*
X126915725Y-89535448D01*
X127051483Y-89399690D01*
X127124954Y-89222314D01*
X127124954Y-89190324D01*
X131399754Y-89190324D01*
X131399754Y-89382314D01*
X131473225Y-89559690D01*
X131608983Y-89695448D01*
X131786359Y-89768919D01*
X131978349Y-89768919D01*
X132155725Y-89695448D01*
X132267168Y-89584005D01*
X133642400Y-89584005D01*
X133642400Y-89775995D01*
X133715871Y-89953371D01*
X133851629Y-90089129D01*
X134029005Y-90162600D01*
X134220995Y-90162600D01*
X134398371Y-90089129D01*
X134534129Y-89953371D01*
X134607600Y-89775995D01*
X134607600Y-89584005D01*
X134534129Y-89406629D01*
X134398371Y-89270871D01*
X134220995Y-89197400D01*
X134029005Y-89197400D01*
X133851629Y-89270871D01*
X133715871Y-89406629D01*
X133642400Y-89584005D01*
X132267168Y-89584005D01*
X132291483Y-89559690D01*
X132364954Y-89382314D01*
X132364954Y-89190324D01*
X132291483Y-89012948D01*
X132155725Y-88877190D01*
X131978349Y-88803719D01*
X131786359Y-88803719D01*
X131608983Y-88877190D01*
X131473225Y-89012948D01*
X131399754Y-89190324D01*
X127124954Y-89190324D01*
X127124954Y-89030324D01*
X127074120Y-88907600D01*
X127195995Y-88907600D01*
X127373371Y-88834129D01*
X127509129Y-88698371D01*
X127582600Y-88520995D01*
X127582600Y-88388919D01*
X127718349Y-88388919D01*
X127895725Y-88315448D01*
X127907849Y-88303324D01*
X137776754Y-88303324D01*
X137776754Y-88495314D01*
X137850225Y-88672690D01*
X137985983Y-88808448D01*
X138163359Y-88881919D01*
X138355349Y-88881919D01*
X138532725Y-88808448D01*
X138668483Y-88672690D01*
X138741954Y-88495314D01*
X138741954Y-88303324D01*
X138668483Y-88125948D01*
X138532725Y-87990190D01*
X138355349Y-87916719D01*
X138163359Y-87916719D01*
X137985983Y-87990190D01*
X137850225Y-88125948D01*
X137776754Y-88303324D01*
X127907849Y-88303324D01*
X128031483Y-88179690D01*
X128104954Y-88002314D01*
X128104954Y-87810324D01*
X128100230Y-87798919D01*
X128178349Y-87798919D01*
X128355725Y-87725448D01*
X128491483Y-87589690D01*
X128511516Y-87541324D01*
X139427754Y-87541324D01*
X139427754Y-87733314D01*
X139501225Y-87910690D01*
X139636983Y-88046448D01*
X139814359Y-88119919D01*
X140006349Y-88119919D01*
X140183725Y-88046448D01*
X140319483Y-87910690D01*
X140392954Y-87733314D01*
X140392954Y-87541324D01*
X140319483Y-87363948D01*
X140183725Y-87228190D01*
X140006349Y-87154719D01*
X139814359Y-87154719D01*
X139636983Y-87228190D01*
X139501225Y-87363948D01*
X139427754Y-87541324D01*
X128511516Y-87541324D01*
X128564954Y-87412314D01*
X128564954Y-87220324D01*
X128491483Y-87042948D01*
X128355725Y-86907190D01*
X128178349Y-86833719D01*
X127986359Y-86833719D01*
X127808983Y-86907190D01*
X127673225Y-87042948D01*
X127599754Y-87220324D01*
X127599754Y-87412314D01*
X127604478Y-87423719D01*
X127526359Y-87423719D01*
X127348983Y-87497190D01*
X127213225Y-87632948D01*
X127139754Y-87810324D01*
X127139754Y-87942400D01*
X127004005Y-87942400D01*
X126826629Y-88015871D01*
X126690871Y-88151629D01*
X126617400Y-88329005D01*
X126617400Y-88520995D01*
X126668234Y-88643719D01*
X126546359Y-88643719D01*
X126368983Y-88717190D01*
X126233225Y-88852948D01*
X126159754Y-89030324D01*
X110613507Y-89030324D01*
X110313708Y-88830005D01*
X110204266Y-88784672D01*
X110204261Y-88784672D01*
X109821583Y-88708553D01*
X109821581Y-88708553D01*
X109792252Y-88702719D01*
X107732456Y-88702719D01*
X107703127Y-88708553D01*
X107703125Y-88708553D01*
X107320447Y-88784672D01*
X107320442Y-88784672D01*
X107211000Y-88830005D01*
X106886576Y-89046778D01*
X106802813Y-89130541D01*
X106586040Y-89454965D01*
X106540707Y-89564407D01*
X106540707Y-89564412D01*
X106464588Y-89947090D01*
X106464588Y-89947093D01*
X106458754Y-89976422D01*
X99065954Y-89976422D01*
X99065954Y-89166924D01*
X101022954Y-89166924D01*
X101022954Y-89358914D01*
X101096425Y-89536290D01*
X101232183Y-89672048D01*
X101409559Y-89745519D01*
X101601549Y-89745519D01*
X101778925Y-89672048D01*
X101861154Y-89589819D01*
X101943383Y-89672048D01*
X102120759Y-89745519D01*
X102312749Y-89745519D01*
X102490125Y-89672048D01*
X102625883Y-89536290D01*
X102699354Y-89358914D01*
X102699354Y-89166924D01*
X102625883Y-88989548D01*
X102490125Y-88853790D01*
X102312749Y-88780319D01*
X102120759Y-88780319D01*
X101943383Y-88853790D01*
X101861154Y-88936019D01*
X101778925Y-88853790D01*
X101601549Y-88780319D01*
X101409559Y-88780319D01*
X101232183Y-88853790D01*
X101096425Y-88989548D01*
X101022954Y-89166924D01*
X99065954Y-89166924D01*
X99065954Y-87820324D01*
X117259754Y-87820324D01*
X117259754Y-88012314D01*
X117333225Y-88189690D01*
X117468983Y-88325448D01*
X117646359Y-88398919D01*
X117838349Y-88398919D01*
X118007137Y-88329005D01*
X121063554Y-88329005D01*
X121063554Y-88520995D01*
X121137025Y-88698371D01*
X121272783Y-88834129D01*
X121450159Y-88907600D01*
X121642149Y-88907600D01*
X121819525Y-88834129D01*
X121955283Y-88698371D01*
X122028754Y-88520995D01*
X122028754Y-88329005D01*
X121955283Y-88151629D01*
X121819525Y-88015871D01*
X121642149Y-87942400D01*
X121450159Y-87942400D01*
X121272783Y-88015871D01*
X121137025Y-88151629D01*
X121063554Y-88329005D01*
X118007137Y-88329005D01*
X118015725Y-88325448D01*
X118151483Y-88189690D01*
X118224954Y-88012314D01*
X118224954Y-87820324D01*
X118151483Y-87642948D01*
X118015725Y-87507190D01*
X117838349Y-87433719D01*
X117646359Y-87433719D01*
X117468983Y-87507190D01*
X117333225Y-87642948D01*
X117259754Y-87820324D01*
X99065954Y-87820324D01*
X99065954Y-87220322D01*
X118779754Y-87220322D01*
X118779754Y-87412312D01*
X118853225Y-87589688D01*
X118988983Y-87725446D01*
X119166359Y-87798917D01*
X119358349Y-87798917D01*
X119535725Y-87725446D01*
X119671483Y-87589688D01*
X119744954Y-87412312D01*
X119744954Y-87220322D01*
X119671483Y-87042946D01*
X119535725Y-86907188D01*
X119358349Y-86833717D01*
X119166359Y-86833717D01*
X118988983Y-86907188D01*
X118853225Y-87042946D01*
X118779754Y-87220322D01*
X99065954Y-87220322D01*
X99065954Y-86091228D01*
X99834754Y-86091228D01*
X99834754Y-86321410D01*
X99922841Y-86534069D01*
X100085604Y-86696832D01*
X100298263Y-86784919D01*
X100528445Y-86784919D01*
X100741104Y-86696832D01*
X100903867Y-86534069D01*
X100991954Y-86321410D01*
X100991954Y-86091228D01*
X139458754Y-86091228D01*
X139458754Y-86321410D01*
X139546841Y-86534069D01*
X139709604Y-86696832D01*
X139922263Y-86784919D01*
X140152445Y-86784919D01*
X140365104Y-86696832D01*
X140527867Y-86534069D01*
X140615954Y-86321410D01*
X140615954Y-86091228D01*
X140527867Y-85878569D01*
X140365104Y-85715806D01*
X140152445Y-85627719D01*
X139922263Y-85627719D01*
X139709604Y-85715806D01*
X139546841Y-85878569D01*
X139458754Y-86091228D01*
X100991954Y-86091228D01*
X100903867Y-85878569D01*
X100741104Y-85715806D01*
X100528445Y-85627719D01*
X100298263Y-85627719D01*
X100085604Y-85715806D01*
X99922841Y-85878569D01*
X99834754Y-86091228D01*
X99065954Y-86091228D01*
X99065954Y-83985324D01*
X102115154Y-83985324D01*
X102115154Y-84177314D01*
X102188625Y-84354690D01*
X102324383Y-84490448D01*
X102501759Y-84563919D01*
X102693749Y-84563919D01*
X102871125Y-84490448D01*
X103006883Y-84354690D01*
X103080354Y-84177314D01*
X103080354Y-83985324D01*
X103006883Y-83807948D01*
X102871125Y-83672190D01*
X102693749Y-83598719D01*
X102501759Y-83598719D01*
X102324383Y-83672190D01*
X102188625Y-83807948D01*
X102115154Y-83985324D01*
X99065954Y-83985324D01*
X99065954Y-83579005D01*
X123542400Y-83579005D01*
X123542400Y-83770995D01*
X123615871Y-83948371D01*
X123751629Y-84084129D01*
X123929005Y-84157600D01*
X124120995Y-84157600D01*
X124298371Y-84084129D01*
X124434129Y-83948371D01*
X124452505Y-83904005D01*
X126342400Y-83904005D01*
X126342400Y-84095995D01*
X126415871Y-84273371D01*
X126551629Y-84409129D01*
X126729005Y-84482600D01*
X126920995Y-84482600D01*
X127098371Y-84409129D01*
X127234129Y-84273371D01*
X127307600Y-84095995D01*
X127307600Y-83904005D01*
X127234129Y-83726629D01*
X127098371Y-83590871D01*
X126920995Y-83517400D01*
X126729005Y-83517400D01*
X126551629Y-83590871D01*
X126415871Y-83726629D01*
X126342400Y-83904005D01*
X124452505Y-83904005D01*
X124507600Y-83770995D01*
X124507600Y-83579005D01*
X124434129Y-83401629D01*
X124298371Y-83265871D01*
X124120995Y-83192400D01*
X123929005Y-83192400D01*
X123751629Y-83265871D01*
X123615871Y-83401629D01*
X123542400Y-83579005D01*
X99065954Y-83579005D01*
X99065954Y-82690324D01*
X109759754Y-82690324D01*
X109759754Y-82882314D01*
X109833225Y-83059690D01*
X109968983Y-83195448D01*
X110146359Y-83268919D01*
X110338349Y-83268919D01*
X110515725Y-83195448D01*
X110651483Y-83059690D01*
X110724954Y-82882314D01*
X110724954Y-82690324D01*
X110759754Y-82690324D01*
X110759754Y-82882314D01*
X110833225Y-83059690D01*
X110968983Y-83195448D01*
X111146359Y-83268919D01*
X111338349Y-83268919D01*
X111515725Y-83195448D01*
X111651483Y-83059690D01*
X111724954Y-82882314D01*
X111724954Y-82690324D01*
X111759754Y-82690324D01*
X111759754Y-82882314D01*
X111833225Y-83059690D01*
X111968983Y-83195448D01*
X112146359Y-83268919D01*
X112338349Y-83268919D01*
X112515725Y-83195448D01*
X112651483Y-83059690D01*
X112724954Y-82882314D01*
X112724954Y-82690324D01*
X112651483Y-82512948D01*
X112515725Y-82377190D01*
X112338349Y-82303719D01*
X112146359Y-82303719D01*
X111968983Y-82377190D01*
X111833225Y-82512948D01*
X111759754Y-82690324D01*
X111724954Y-82690324D01*
X111651483Y-82512948D01*
X111515725Y-82377190D01*
X111338349Y-82303719D01*
X111146359Y-82303719D01*
X110968983Y-82377190D01*
X110833225Y-82512948D01*
X110759754Y-82690324D01*
X110724954Y-82690324D01*
X110651483Y-82512948D01*
X110515725Y-82377190D01*
X110338349Y-82303719D01*
X110146359Y-82303719D01*
X109968983Y-82377190D01*
X109833225Y-82512948D01*
X109759754Y-82690324D01*
X99065954Y-82690324D01*
X99065954Y-81841228D01*
X99834754Y-81841228D01*
X99834754Y-82071410D01*
X99922841Y-82284069D01*
X100085604Y-82446832D01*
X100298263Y-82534919D01*
X100528445Y-82534919D01*
X100741104Y-82446832D01*
X100903867Y-82284069D01*
X100991954Y-82071410D01*
X100991954Y-81841228D01*
X100980678Y-81814005D01*
X131792400Y-81814005D01*
X131792400Y-82005995D01*
X131865871Y-82183371D01*
X132001629Y-82319129D01*
X132179005Y-82392600D01*
X132370995Y-82392600D01*
X132548371Y-82319129D01*
X132684129Y-82183371D01*
X132757600Y-82005995D01*
X132757600Y-81824005D01*
X133062400Y-81824005D01*
X133062400Y-82015995D01*
X133135871Y-82193371D01*
X133271629Y-82329129D01*
X133449005Y-82402600D01*
X133640995Y-82402600D01*
X133818371Y-82329129D01*
X133954129Y-82193371D01*
X134027600Y-82015995D01*
X134027600Y-81824005D01*
X134332400Y-81824005D01*
X134332400Y-82015995D01*
X134405871Y-82193371D01*
X134541629Y-82329129D01*
X134719005Y-82402600D01*
X134910995Y-82402600D01*
X135088371Y-82329129D01*
X135224129Y-82193371D01*
X135297600Y-82015995D01*
X135297600Y-81824005D01*
X135296076Y-81820324D01*
X135589754Y-81820324D01*
X135589754Y-82012314D01*
X135663225Y-82189690D01*
X135798983Y-82325448D01*
X135976359Y-82398919D01*
X136168349Y-82398919D01*
X136345725Y-82325448D01*
X136481483Y-82189690D01*
X136554954Y-82012314D01*
X136554954Y-81841228D01*
X139458754Y-81841228D01*
X139458754Y-82071410D01*
X139546841Y-82284069D01*
X139709604Y-82446832D01*
X139922263Y-82534919D01*
X140152445Y-82534919D01*
X140365104Y-82446832D01*
X140527867Y-82284069D01*
X140615954Y-82071410D01*
X140615954Y-81841228D01*
X140527867Y-81628569D01*
X140365104Y-81465806D01*
X140152445Y-81377719D01*
X139922263Y-81377719D01*
X139709604Y-81465806D01*
X139546841Y-81628569D01*
X139458754Y-81841228D01*
X136554954Y-81841228D01*
X136554954Y-81820324D01*
X136481483Y-81642948D01*
X136345725Y-81507190D01*
X136168349Y-81433719D01*
X135976359Y-81433719D01*
X135798983Y-81507190D01*
X135663225Y-81642948D01*
X135589754Y-81820324D01*
X135296076Y-81820324D01*
X135224129Y-81646629D01*
X135088371Y-81510871D01*
X134910995Y-81437400D01*
X134719005Y-81437400D01*
X134541629Y-81510871D01*
X134405871Y-81646629D01*
X134332400Y-81824005D01*
X134027600Y-81824005D01*
X133954129Y-81646629D01*
X133818371Y-81510871D01*
X133640995Y-81437400D01*
X133449005Y-81437400D01*
X133271629Y-81510871D01*
X133135871Y-81646629D01*
X133062400Y-81824005D01*
X132757600Y-81824005D01*
X132757600Y-81814005D01*
X132684129Y-81636629D01*
X132548371Y-81500871D01*
X132370995Y-81427400D01*
X132179005Y-81427400D01*
X132001629Y-81500871D01*
X131865871Y-81636629D01*
X131792400Y-81814005D01*
X100980678Y-81814005D01*
X100903867Y-81628569D01*
X100741104Y-81465806D01*
X100528445Y-81377719D01*
X100298263Y-81377719D01*
X100085604Y-81465806D01*
X99922841Y-81628569D01*
X99834754Y-81841228D01*
X99065954Y-81841228D01*
X99065954Y-79023954D01*
X99140275Y-78386487D01*
X99160919Y-78329612D01*
X99310180Y-78329612D01*
X99310180Y-79175468D01*
X99633874Y-79956936D01*
X100231984Y-80555046D01*
X101013452Y-80878740D01*
X101859308Y-80878740D01*
X101963158Y-80835724D01*
X109328754Y-80835724D01*
X109328754Y-81027714D01*
X109402225Y-81205090D01*
X109537983Y-81340848D01*
X109715359Y-81414319D01*
X109907349Y-81414319D01*
X110084725Y-81340848D01*
X110220483Y-81205090D01*
X110293954Y-81027714D01*
X110293954Y-80835724D01*
X110287242Y-80819519D01*
X118964823Y-80819519D01*
X119045386Y-80952878D01*
X119397732Y-81093485D01*
X119777065Y-81088552D01*
X120104614Y-80952878D01*
X120185177Y-80819519D01*
X123964823Y-80819519D01*
X124045386Y-80952878D01*
X124397732Y-81093485D01*
X124777065Y-81088552D01*
X125104614Y-80952878D01*
X125185177Y-80819519D01*
X124575000Y-80209342D01*
X123964823Y-80819519D01*
X120185177Y-80819519D01*
X119575000Y-80209342D01*
X118964823Y-80819519D01*
X110287242Y-80819519D01*
X110220483Y-80658348D01*
X110084725Y-80522590D01*
X109907349Y-80449119D01*
X109715359Y-80449119D01*
X109537983Y-80522590D01*
X109402225Y-80658348D01*
X109328754Y-80835724D01*
X101963158Y-80835724D01*
X102640776Y-80555046D01*
X103122098Y-80073724D01*
X103760798Y-80073724D01*
X103760798Y-80265714D01*
X103834269Y-80443090D01*
X103970027Y-80578848D01*
X104147403Y-80652319D01*
X104339393Y-80652319D01*
X104516769Y-80578848D01*
X104652527Y-80443090D01*
X104725998Y-80265714D01*
X104725998Y-80100759D01*
X110649554Y-80100759D01*
X110649554Y-80292749D01*
X110723025Y-80470125D01*
X110858783Y-80605883D01*
X111036159Y-80679354D01*
X111228149Y-80679354D01*
X111405525Y-80605883D01*
X111541283Y-80470125D01*
X111614754Y-80292749D01*
X111614754Y-80100759D01*
X111556547Y-79960232D01*
X118619015Y-79960232D01*
X118623948Y-80339565D01*
X118759622Y-80667114D01*
X118892981Y-80747677D01*
X119503158Y-80137500D01*
X119646842Y-80137500D01*
X120257019Y-80747677D01*
X120390378Y-80667114D01*
X120530985Y-80314768D01*
X120526375Y-79960232D01*
X123619015Y-79960232D01*
X123623948Y-80339565D01*
X123759622Y-80667114D01*
X123892981Y-80747677D01*
X124503158Y-80137500D01*
X124646842Y-80137500D01*
X125257019Y-80747677D01*
X125390378Y-80667114D01*
X125530985Y-80314768D01*
X125529172Y-80175324D01*
X130283754Y-80175324D01*
X130283754Y-80367314D01*
X130357225Y-80544690D01*
X130492983Y-80680448D01*
X130670359Y-80753919D01*
X130862349Y-80753919D01*
X131039725Y-80680448D01*
X131175483Y-80544690D01*
X131248954Y-80367314D01*
X131248954Y-80175324D01*
X131175483Y-79997948D01*
X131039725Y-79862190D01*
X130862349Y-79788719D01*
X130670359Y-79788719D01*
X130492983Y-79862190D01*
X130357225Y-79997948D01*
X130283754Y-80175324D01*
X125529172Y-80175324D01*
X125526052Y-79935435D01*
X125394071Y-79616800D01*
X133839754Y-79616800D01*
X133839754Y-79909838D01*
X133951895Y-80180569D01*
X134159104Y-80387778D01*
X134429835Y-80499919D01*
X134722873Y-80499919D01*
X134993604Y-80387778D01*
X135200813Y-80180569D01*
X135255589Y-80048328D01*
X135363754Y-80048328D01*
X135363754Y-80240318D01*
X135437225Y-80417694D01*
X135572983Y-80553452D01*
X135750359Y-80626923D01*
X135942349Y-80626923D01*
X136119725Y-80553452D01*
X136255483Y-80417694D01*
X136328954Y-80240318D01*
X136328954Y-80048328D01*
X136255483Y-79870952D01*
X136119725Y-79735194D01*
X135942349Y-79661723D01*
X135750359Y-79661723D01*
X135572983Y-79735194D01*
X135437225Y-79870952D01*
X135363754Y-80048328D01*
X135255589Y-80048328D01*
X135312954Y-79909838D01*
X135312954Y-79616800D01*
X135200813Y-79346069D01*
X134993604Y-79138860D01*
X134722873Y-79026719D01*
X134429835Y-79026719D01*
X134159104Y-79138860D01*
X133951895Y-79346069D01*
X133839754Y-79616800D01*
X125394071Y-79616800D01*
X125390378Y-79607886D01*
X125257019Y-79527323D01*
X124646842Y-80137500D01*
X124503158Y-80137500D01*
X123892981Y-79527323D01*
X123759622Y-79607886D01*
X123619015Y-79960232D01*
X120526375Y-79960232D01*
X120526052Y-79935435D01*
X120390378Y-79607886D01*
X120257019Y-79527323D01*
X119646842Y-80137500D01*
X119503158Y-80137500D01*
X118892981Y-79527323D01*
X118759622Y-79607886D01*
X118619015Y-79960232D01*
X111556547Y-79960232D01*
X111541283Y-79923383D01*
X111405525Y-79787625D01*
X111228149Y-79714154D01*
X111036159Y-79714154D01*
X110858783Y-79787625D01*
X110723025Y-79923383D01*
X110649554Y-80100759D01*
X104725998Y-80100759D01*
X104725998Y-80073724D01*
X104652527Y-79896348D01*
X104516769Y-79760590D01*
X104339393Y-79687119D01*
X104147403Y-79687119D01*
X103970027Y-79760590D01*
X103834269Y-79896348D01*
X103760798Y-80073724D01*
X103122098Y-80073724D01*
X103238886Y-79956936D01*
X103562580Y-79175468D01*
X103562580Y-79006924D01*
X103765857Y-79006924D01*
X103765857Y-79198914D01*
X103839328Y-79376290D01*
X103975086Y-79512048D01*
X104152462Y-79585519D01*
X104344452Y-79585519D01*
X104521828Y-79512048D01*
X104578395Y-79455481D01*
X118964823Y-79455481D01*
X119575000Y-80065658D01*
X120185177Y-79455481D01*
X123964823Y-79455481D01*
X124575000Y-80065658D01*
X125185177Y-79455481D01*
X125104614Y-79322122D01*
X124752268Y-79181515D01*
X124372935Y-79186448D01*
X124045386Y-79322122D01*
X123964823Y-79455481D01*
X120185177Y-79455481D01*
X120104614Y-79322122D01*
X119752268Y-79181515D01*
X119372935Y-79186448D01*
X119045386Y-79322122D01*
X118964823Y-79455481D01*
X104578395Y-79455481D01*
X104657586Y-79376290D01*
X104731057Y-79198914D01*
X104731057Y-79006924D01*
X104657586Y-78829548D01*
X104521828Y-78693790D01*
X104344452Y-78620319D01*
X104152462Y-78620319D01*
X103975086Y-78693790D01*
X103839328Y-78829548D01*
X103765857Y-79006924D01*
X103562580Y-79006924D01*
X103562580Y-78600800D01*
X128759754Y-78600800D01*
X128759754Y-78893838D01*
X128871895Y-79164569D01*
X129079104Y-79371778D01*
X129349835Y-79483919D01*
X129642873Y-79483919D01*
X129913604Y-79371778D01*
X130120813Y-79164569D01*
X130232954Y-78893838D01*
X130232954Y-78600800D01*
X130120813Y-78330069D01*
X129913604Y-78122860D01*
X129642873Y-78010719D01*
X129349835Y-78010719D01*
X129079104Y-78122860D01*
X128871895Y-78330069D01*
X128759754Y-78600800D01*
X103562580Y-78600800D01*
X103562580Y-78329612D01*
X103238886Y-77548144D01*
X103179042Y-77488300D01*
X117746400Y-77488300D01*
X117746400Y-77838300D01*
X117828914Y-78151525D01*
X118025013Y-78409330D01*
X118304842Y-78572467D01*
X118395448Y-78596412D01*
X118524200Y-78557276D01*
X118524200Y-77488300D01*
X118625800Y-77488300D01*
X118625800Y-78557276D01*
X118754552Y-78596412D01*
X118845158Y-78572467D01*
X119124987Y-78409330D01*
X119321086Y-78151525D01*
X119403600Y-77838300D01*
X119403600Y-77488300D01*
X124746400Y-77488300D01*
X124746400Y-77838300D01*
X124828914Y-78151525D01*
X125025013Y-78409330D01*
X125304842Y-78572467D01*
X125395448Y-78596412D01*
X125524200Y-78557276D01*
X125524200Y-77488300D01*
X125625800Y-77488300D01*
X125625800Y-78557276D01*
X125754552Y-78596412D01*
X125845158Y-78572467D01*
X126124987Y-78409330D01*
X126321086Y-78151525D01*
X126403600Y-77838300D01*
X126403600Y-77584800D01*
X133839754Y-77584800D01*
X133839754Y-77877838D01*
X133951895Y-78148569D01*
X134159104Y-78355778D01*
X134429835Y-78467919D01*
X134722873Y-78467919D01*
X134993604Y-78355778D01*
X135017230Y-78332152D01*
X136803120Y-78332152D01*
X136803120Y-79178008D01*
X137126814Y-79959476D01*
X137724924Y-80557586D01*
X138506392Y-80881280D01*
X139352248Y-80881280D01*
X140133716Y-80557586D01*
X140731826Y-79959476D01*
X141055520Y-79178008D01*
X141055520Y-78332152D01*
X140731826Y-77550684D01*
X140133716Y-76952574D01*
X139352248Y-76628880D01*
X138506392Y-76628880D01*
X137724924Y-76952574D01*
X137126814Y-77550684D01*
X136803120Y-78332152D01*
X135017230Y-78332152D01*
X135200813Y-78148569D01*
X135312954Y-77877838D01*
X135312954Y-77584800D01*
X135200813Y-77314069D01*
X134993604Y-77106860D01*
X134722873Y-76994719D01*
X134429835Y-76994719D01*
X134159104Y-77106860D01*
X133951895Y-77314069D01*
X133839754Y-77584800D01*
X126403600Y-77584800D01*
X126403600Y-77488300D01*
X125625800Y-77488300D01*
X125524200Y-77488300D01*
X124746400Y-77488300D01*
X119403600Y-77488300D01*
X118625800Y-77488300D01*
X118524200Y-77488300D01*
X117746400Y-77488300D01*
X103179042Y-77488300D01*
X102640776Y-76950034D01*
X101859308Y-76626340D01*
X101013452Y-76626340D01*
X100231984Y-76950034D01*
X99633874Y-77548144D01*
X99310180Y-78329612D01*
X99160919Y-78329612D01*
X99353195Y-77799903D01*
X99695350Y-77278031D01*
X100148378Y-76848874D01*
X100687989Y-76535443D01*
X101289203Y-76353353D01*
X101775875Y-76309919D01*
X118292173Y-76309919D01*
X118025013Y-76465670D01*
X118025013Y-76465670D01*
G37*
X118025013Y-76465670D02*
X117828914Y-76723475D01*
X117746400Y-77036700D01*
X117746400Y-77386700D01*
X118524200Y-77386700D01*
X118524200Y-77366700D01*
X118625800Y-77366700D01*
X118625800Y-77386700D01*
X119403600Y-77386700D01*
X119403600Y-77036700D01*
X119321086Y-76723475D01*
X119124987Y-76465670D01*
X118857827Y-76309919D01*
X125292173Y-76309919D01*
X125025013Y-76465670D01*
X124828914Y-76723475D01*
X124746400Y-77036700D01*
X124746400Y-77386700D01*
X125524200Y-77386700D01*
X125524200Y-77366700D01*
X125625800Y-77366700D01*
X125625800Y-77386700D01*
X126403600Y-77386700D01*
X126403600Y-77036700D01*
X126380636Y-76949528D01*
X130283754Y-76949528D01*
X130283754Y-77141518D01*
X130357225Y-77318894D01*
X130492983Y-77454652D01*
X130670359Y-77528123D01*
X130862349Y-77528123D01*
X131039725Y-77454652D01*
X131175483Y-77318894D01*
X131248954Y-77141518D01*
X131248954Y-76949528D01*
X131227911Y-76898723D01*
X131579153Y-76898723D01*
X131579153Y-77090713D01*
X131652624Y-77268089D01*
X131788382Y-77403847D01*
X131965758Y-77477318D01*
X132157748Y-77477318D01*
X132335124Y-77403847D01*
X132470882Y-77268089D01*
X132544353Y-77090713D01*
X132544353Y-76898723D01*
X132470882Y-76721347D01*
X132335124Y-76585589D01*
X132157748Y-76512118D01*
X131965758Y-76512118D01*
X131788382Y-76585589D01*
X131652624Y-76721347D01*
X131579153Y-76898723D01*
X131227911Y-76898723D01*
X131175483Y-76772152D01*
X131039725Y-76636394D01*
X130862349Y-76562923D01*
X130670359Y-76562923D01*
X130492983Y-76636394D01*
X130357225Y-76772152D01*
X130283754Y-76949528D01*
X126380636Y-76949528D01*
X126321086Y-76723475D01*
X126124987Y-76465670D01*
X125857827Y-76309919D01*
X138744719Y-76309919D01*
X139382186Y-76384240D01*
X139968770Y-76597160D01*
X140490642Y-76939315D01*
X140919799Y-77392343D01*
X141233230Y-77931954D01*
X141415320Y-78533168D01*
X141458755Y-79019851D01*
X141458755Y-91663800D01*
X137095000Y-91663800D01*
X137065840Y-91669600D01*
X137041118Y-91686118D01*
X137024600Y-91710840D01*
X137018800Y-91740000D01*
X137018800Y-101970000D01*
X137024600Y-101999160D01*
X137041118Y-102023882D01*
X137065840Y-102040400D01*
X137095000Y-102046200D01*
X141458754Y-102046200D01*
X141458754Y-115988684D01*
X141384433Y-116626151D01*
X141171513Y-117212736D01*
X140829361Y-117734604D01*
X140376330Y-118163764D01*
X139836719Y-118477195D01*
X139235505Y-118659285D01*
X138748834Y-118702719D01*
X110004808Y-118702719D01*
X110051635Y-118589668D01*
X110051635Y-118397678D01*
X109978164Y-118220302D01*
X109842406Y-118084544D01*
X109783934Y-118060324D01*
X114989754Y-118060324D01*
X114989754Y-118252314D01*
X115063225Y-118429690D01*
X115198983Y-118565448D01*
X115376359Y-118638919D01*
X115568349Y-118638919D01*
X115745725Y-118565448D01*
X115881483Y-118429690D01*
X115954954Y-118252314D01*
X115954954Y-118060324D01*
X115881483Y-117882948D01*
X115745725Y-117747190D01*
X115568349Y-117673719D01*
X115376359Y-117673719D01*
X115198983Y-117747190D01*
X115063225Y-117882948D01*
X114989754Y-118060324D01*
X109783934Y-118060324D01*
X109665030Y-118011073D01*
X109473040Y-118011073D01*
X109295664Y-118084544D01*
X109166750Y-118213458D01*
X109128164Y-118120303D01*
X108992406Y-117984545D01*
X108815030Y-117911074D01*
X108623040Y-117911074D01*
X108445664Y-117984545D01*
X108309906Y-118120303D01*
X108236435Y-118297679D01*
X108236435Y-118489669D01*
X108309906Y-118667045D01*
X108345580Y-118702719D01*
X107502489Y-118702719D01*
X107528164Y-118677044D01*
X107601635Y-118499668D01*
X107601635Y-118307678D01*
X107528164Y-118130302D01*
X107392406Y-117994544D01*
X107215030Y-117921073D01*
X107023040Y-117921073D01*
X106845664Y-117994544D01*
X106709906Y-118130302D01*
X106636435Y-118307678D01*
X106636435Y-118499668D01*
X106709906Y-118677044D01*
X106735581Y-118702719D01*
X101779989Y-118702719D01*
X101142522Y-118628398D01*
X100555937Y-118415478D01*
X100034069Y-118073326D01*
X99604909Y-117620295D01*
X99291478Y-117080684D01*
X99109388Y-116479470D01*
X99065954Y-115992799D01*
X99065954Y-115830172D01*
X99317800Y-115830172D01*
X99317800Y-116676028D01*
X99641494Y-117457496D01*
X100239604Y-118055606D01*
X101021072Y-118379300D01*
X101866928Y-118379300D01*
X102648396Y-118055606D01*
X103246506Y-117457496D01*
X103368073Y-117164005D01*
X117262400Y-117164005D01*
X117262400Y-117355995D01*
X117335871Y-117533371D01*
X117471629Y-117669129D01*
X117649005Y-117742600D01*
X117840995Y-117742600D01*
X118018371Y-117669129D01*
X118154129Y-117533371D01*
X118227600Y-117355995D01*
X118227600Y-117164005D01*
X118219316Y-117144005D01*
X122022400Y-117144005D01*
X122022400Y-117335995D01*
X122095871Y-117513371D01*
X122231629Y-117649129D01*
X122409005Y-117722600D01*
X122600995Y-117722600D01*
X122778371Y-117649129D01*
X122914129Y-117513371D01*
X122987600Y-117335995D01*
X122987600Y-117144005D01*
X122914129Y-116966629D01*
X122778371Y-116830871D01*
X122600995Y-116757400D01*
X122409005Y-116757400D01*
X122231629Y-116830871D01*
X122095871Y-116966629D01*
X122022400Y-117144005D01*
X118219316Y-117144005D01*
X118154129Y-116986629D01*
X118018371Y-116850871D01*
X117840995Y-116777400D01*
X117649005Y-116777400D01*
X117471629Y-116850871D01*
X117335871Y-116986629D01*
X117262400Y-117164005D01*
X103368073Y-117164005D01*
X103570200Y-116676028D01*
X103570200Y-115830324D01*
X106552754Y-115830324D01*
X106552754Y-116022314D01*
X106626225Y-116199690D01*
X106761983Y-116335448D01*
X106939359Y-116408919D01*
X107131349Y-116408919D01*
X107308725Y-116335448D01*
X107444483Y-116199690D01*
X107482743Y-116107323D01*
X107519906Y-116197044D01*
X107655664Y-116332802D01*
X107833040Y-116406273D01*
X108025030Y-116406273D01*
X108202406Y-116332802D01*
X108338164Y-116197044D01*
X108411635Y-116019668D01*
X108411635Y-115827678D01*
X108385966Y-115765705D01*
X116064100Y-115765705D01*
X116064100Y-115957695D01*
X116137571Y-116135071D01*
X116273329Y-116270829D01*
X116450705Y-116344300D01*
X116642695Y-116344300D01*
X116820071Y-116270829D01*
X116955829Y-116135071D01*
X117029300Y-115957695D01*
X117029300Y-115832712D01*
X136815820Y-115832712D01*
X136815820Y-116678568D01*
X137139514Y-117460036D01*
X137737624Y-118058146D01*
X138519092Y-118381840D01*
X139364948Y-118381840D01*
X140146416Y-118058146D01*
X140744526Y-117460036D01*
X141068220Y-116678568D01*
X141068220Y-115832712D01*
X140744526Y-115051244D01*
X140146416Y-114453134D01*
X139364948Y-114129440D01*
X138519092Y-114129440D01*
X137737624Y-114453134D01*
X137139514Y-115051244D01*
X136815820Y-115832712D01*
X117029300Y-115832712D01*
X117029300Y-115765705D01*
X116955829Y-115588329D01*
X116820071Y-115452571D01*
X116642695Y-115379100D01*
X116450705Y-115379100D01*
X116273329Y-115452571D01*
X116137571Y-115588329D01*
X116064100Y-115765705D01*
X108385966Y-115765705D01*
X108338164Y-115650302D01*
X108202406Y-115514544D01*
X108025030Y-115441073D01*
X107833040Y-115441073D01*
X107655664Y-115514544D01*
X107519906Y-115650302D01*
X107481646Y-115742669D01*
X107444483Y-115652948D01*
X107308725Y-115517190D01*
X107131349Y-115443719D01*
X106939359Y-115443719D01*
X106761983Y-115517190D01*
X106626225Y-115652948D01*
X106552754Y-115830324D01*
X103570200Y-115830324D01*
X103570200Y-115830172D01*
X103246506Y-115048704D01*
X103188126Y-114990324D01*
X114789754Y-114990324D01*
X114789754Y-115182314D01*
X114863225Y-115359690D01*
X114998983Y-115495448D01*
X115176359Y-115568919D01*
X115368349Y-115568919D01*
X115545725Y-115495448D01*
X115681483Y-115359690D01*
X115754954Y-115182314D01*
X115754954Y-114990324D01*
X115719200Y-114904005D01*
X119122400Y-114904005D01*
X119122400Y-115095995D01*
X119195871Y-115273371D01*
X119331629Y-115409129D01*
X119509005Y-115482600D01*
X119700995Y-115482600D01*
X119878371Y-115409129D01*
X120014129Y-115273371D01*
X120087600Y-115095995D01*
X120087600Y-114904005D01*
X120014129Y-114726629D01*
X119878371Y-114590871D01*
X119700995Y-114517400D01*
X119509005Y-114517400D01*
X119331629Y-114590871D01*
X119195871Y-114726629D01*
X119122400Y-114904005D01*
X115719200Y-114904005D01*
X115681483Y-114812948D01*
X115545725Y-114677190D01*
X115368349Y-114603719D01*
X115176359Y-114603719D01*
X114998983Y-114677190D01*
X114863225Y-114812948D01*
X114789754Y-114990324D01*
X103188126Y-114990324D01*
X102648396Y-114450594D01*
X102316031Y-114312924D01*
X108236554Y-114312924D01*
X108236554Y-114504914D01*
X108310025Y-114682290D01*
X108445783Y-114818048D01*
X108623159Y-114891519D01*
X108815149Y-114891519D01*
X108992525Y-114818048D01*
X109125554Y-114685019D01*
X109258583Y-114818048D01*
X109435959Y-114891519D01*
X109627949Y-114891519D01*
X109805325Y-114818048D01*
X109941083Y-114682290D01*
X110014554Y-114504914D01*
X110014554Y-114405395D01*
X110298025Y-114405395D01*
X110298025Y-114597385D01*
X110371496Y-114774761D01*
X110507254Y-114910519D01*
X110684630Y-114983990D01*
X110876620Y-114983990D01*
X111053996Y-114910519D01*
X111189754Y-114774761D01*
X111263225Y-114597385D01*
X111263225Y-114405395D01*
X111189754Y-114228019D01*
X111053996Y-114092261D01*
X110876620Y-114018790D01*
X110684630Y-114018790D01*
X110507254Y-114092261D01*
X110371496Y-114228019D01*
X110298025Y-114405395D01*
X110014554Y-114405395D01*
X110014554Y-114312924D01*
X109941083Y-114135548D01*
X109805325Y-113999790D01*
X109627949Y-113926319D01*
X109435959Y-113926319D01*
X109258583Y-113999790D01*
X109125554Y-114132819D01*
X108992525Y-113999790D01*
X108815149Y-113926319D01*
X108623159Y-113926319D01*
X108445783Y-113999790D01*
X108310025Y-114135548D01*
X108236554Y-114312924D01*
X102316031Y-114312924D01*
X101866928Y-114126900D01*
X101021072Y-114126900D01*
X100239604Y-114450594D01*
X99641494Y-115048704D01*
X99317800Y-115830172D01*
X99065954Y-115830172D01*
X99065954Y-113142228D01*
X99834754Y-113142228D01*
X99834754Y-113372410D01*
X99922841Y-113585069D01*
X100085604Y-113747832D01*
X100298263Y-113835919D01*
X100528445Y-113835919D01*
X100741104Y-113747832D01*
X100774931Y-113714005D01*
X111942400Y-113714005D01*
X111942400Y-113905995D01*
X112015871Y-114083371D01*
X112151629Y-114219129D01*
X112329005Y-114292600D01*
X112520995Y-114292600D01*
X112698371Y-114219129D01*
X112834129Y-114083371D01*
X112907600Y-113905995D01*
X112907600Y-113714005D01*
X112834129Y-113536629D01*
X112698371Y-113400871D01*
X112520995Y-113327400D01*
X112329005Y-113327400D01*
X112151629Y-113400871D01*
X112015871Y-113536629D01*
X111942400Y-113714005D01*
X100774931Y-113714005D01*
X100903867Y-113585069D01*
X100991954Y-113372410D01*
X100991954Y-113142228D01*
X139458754Y-113142228D01*
X139458754Y-113372410D01*
X139546841Y-113585069D01*
X139709604Y-113747832D01*
X139922263Y-113835919D01*
X140152445Y-113835919D01*
X140365104Y-113747832D01*
X140527867Y-113585069D01*
X140615954Y-113372410D01*
X140615954Y-113142228D01*
X140527867Y-112929569D01*
X140365104Y-112766806D01*
X140152445Y-112678719D01*
X139922263Y-112678719D01*
X139709604Y-112766806D01*
X139546841Y-112929569D01*
X139458754Y-113142228D01*
X100991954Y-113142228D01*
X100903867Y-112929569D01*
X100741104Y-112766806D01*
X100528445Y-112678719D01*
X100298263Y-112678719D01*
X100085604Y-112766806D01*
X99922841Y-112929569D01*
X99834754Y-113142228D01*
X99065954Y-113142228D01*
X99065954Y-108892228D01*
X99834754Y-108892228D01*
X99834754Y-109122410D01*
X99922841Y-109335069D01*
X100085604Y-109497832D01*
X100298263Y-109585919D01*
X100528445Y-109585919D01*
X100713360Y-109509324D01*
X104559754Y-109509324D01*
X104559754Y-109701314D01*
X104633225Y-109878690D01*
X104768983Y-110014448D01*
X104946359Y-110087919D01*
X105138349Y-110087919D01*
X105315725Y-110014448D01*
X105451483Y-109878690D01*
X105524954Y-109701314D01*
X105524954Y-109509324D01*
X105451483Y-109331948D01*
X105315725Y-109196190D01*
X105138349Y-109122719D01*
X104946359Y-109122719D01*
X104768983Y-109196190D01*
X104633225Y-109331948D01*
X104559754Y-109509324D01*
X100713360Y-109509324D01*
X100741104Y-109497832D01*
X100903867Y-109335069D01*
X100991954Y-109122410D01*
X100991954Y-108892228D01*
X100903867Y-108679569D01*
X100741104Y-108516806D01*
X100528445Y-108428719D01*
X100298263Y-108428719D01*
X100085604Y-108516806D01*
X99922841Y-108679569D01*
X99834754Y-108892228D01*
X99065954Y-108892228D01*
X99065954Y-95798720D01*
X100623679Y-95798720D01*
X100680227Y-96083006D01*
X100841262Y-96324011D01*
X101005453Y-96433720D01*
X100841262Y-96543429D01*
X100680227Y-96784434D01*
X100623679Y-97068720D01*
X100680227Y-97353006D01*
X100841262Y-97594011D01*
X101005453Y-97703720D01*
X100841262Y-97813429D01*
X100680227Y-98054434D01*
X100623679Y-98338720D01*
X100680227Y-98623006D01*
X100841262Y-98864011D01*
X101005453Y-98973720D01*
X100841262Y-99083429D01*
X100680227Y-99324434D01*
X100623679Y-99608720D01*
X100680227Y-99893006D01*
X100841262Y-100134011D01*
X101082267Y-100295046D01*
X101294793Y-100337320D01*
X101438313Y-100337320D01*
X101650839Y-100295046D01*
X101891844Y-100134011D01*
X102001553Y-99969820D01*
X102111262Y-100134011D01*
X102352267Y-100295046D01*
X102564793Y-100337320D01*
X102708313Y-100337320D01*
X102920839Y-100295046D01*
X103161844Y-100134011D01*
X103322879Y-99893006D01*
X103379427Y-99608720D01*
X103322879Y-99324434D01*
X103161844Y-99083429D01*
X102997653Y-98973720D01*
X103161844Y-98864011D01*
X103322879Y-98623006D01*
X103379427Y-98338720D01*
X103322879Y-98054434D01*
X103161844Y-97813429D01*
X102997653Y-97703720D01*
X103161844Y-97594011D01*
X103322879Y-97353006D01*
X103379427Y-97068720D01*
X103322879Y-96784434D01*
X103161844Y-96543429D01*
X102997653Y-96433720D01*
X103161844Y-96324011D01*
X103322879Y-96083006D01*
X103379427Y-95798720D01*
X103322879Y-95514434D01*
X103161844Y-95273429D01*
X103142628Y-95260590D01*
X103225748Y-95244056D01*
X103301364Y-95193531D01*
X103351889Y-95117915D01*
X103369631Y-95028720D01*
X103369631Y-94028720D01*
X103351889Y-93939525D01*
X103301364Y-93863909D01*
X103225748Y-93813384D01*
X103136553Y-93795642D01*
X102136553Y-93795642D01*
X102047358Y-93813384D01*
X101971742Y-93863909D01*
X101921217Y-93939525D01*
X101903475Y-94028720D01*
X101903475Y-94056538D01*
X101789638Y-93935534D01*
X101530430Y-93818780D01*
X101417353Y-93859035D01*
X101417353Y-94477920D01*
X101437353Y-94477920D01*
X101437353Y-94579520D01*
X101417353Y-94579520D01*
X101417353Y-94599520D01*
X101315753Y-94599520D01*
X101315753Y-94579520D01*
X100697027Y-94579520D01*
X100656621Y-94692595D01*
X100748671Y-94914845D01*
X100943468Y-95121906D01*
X101017874Y-95155420D01*
X100841262Y-95273429D01*
X100680227Y-95514434D01*
X100623679Y-95798720D01*
X99065954Y-95798720D01*
X99065954Y-94364845D01*
X100656621Y-94364845D01*
X100697027Y-94477920D01*
X101315753Y-94477920D01*
X101315753Y-93859035D01*
X101202676Y-93818780D01*
X100943468Y-93935534D01*
X100748671Y-94142595D01*
X100656621Y-94364845D01*
X99065954Y-94364845D01*
X99065954Y-89976422D01*
X106458754Y-89976422D01*
X106458755Y-111036217D01*
X106464588Y-111065541D01*
X106464588Y-111065548D01*
X106540707Y-111448226D01*
X106540707Y-111448231D01*
X106586040Y-111557673D01*
X106802813Y-111882097D01*
X106886576Y-111965860D01*
X107211000Y-112182633D01*
X107320442Y-112227966D01*
X107320447Y-112227966D01*
X107703125Y-112304085D01*
X107703127Y-112304085D01*
X107732456Y-112309919D01*
X109792252Y-112309919D01*
X109821581Y-112304085D01*
X109821583Y-112304085D01*
X110204261Y-112227966D01*
X110204266Y-112227966D01*
X110313708Y-112182633D01*
X110631451Y-111970324D01*
X112789754Y-111970324D01*
X112789754Y-112162314D01*
X112863225Y-112339690D01*
X112998983Y-112475448D01*
X113176359Y-112548919D01*
X113368349Y-112548919D01*
X113545725Y-112475448D01*
X113647168Y-112374005D01*
X118252400Y-112374005D01*
X118252400Y-112565995D01*
X118325871Y-112743371D01*
X118461629Y-112879129D01*
X118639005Y-112952600D01*
X118830995Y-112952600D01*
X119008371Y-112879129D01*
X119144129Y-112743371D01*
X119217600Y-112565995D01*
X119217600Y-112374005D01*
X119204592Y-112342600D01*
X119270995Y-112342600D01*
X119448371Y-112269129D01*
X119584129Y-112133371D01*
X119657600Y-111955995D01*
X119657600Y-111764005D01*
X119584129Y-111586629D01*
X119448371Y-111450871D01*
X119270995Y-111377400D01*
X119079005Y-111377400D01*
X118901629Y-111450871D01*
X118765871Y-111586629D01*
X118692400Y-111764005D01*
X118692400Y-111955995D01*
X118705408Y-111987400D01*
X118639005Y-111987400D01*
X118461629Y-112060871D01*
X118325871Y-112196629D01*
X118252400Y-112374005D01*
X113647168Y-112374005D01*
X113681483Y-112339690D01*
X113754954Y-112162314D01*
X113754954Y-111970324D01*
X113681483Y-111792948D01*
X113545725Y-111657190D01*
X113368349Y-111583719D01*
X113176359Y-111583719D01*
X112998983Y-111657190D01*
X112863225Y-111792948D01*
X112789754Y-111970324D01*
X110631451Y-111970324D01*
X110638132Y-111965860D01*
X110721895Y-111882097D01*
X110938668Y-111557673D01*
X110984001Y-111448231D01*
X110984001Y-111448226D01*
X111060120Y-111065548D01*
X111060120Y-111065546D01*
X111065954Y-111036217D01*
X111065954Y-110780324D01*
X119979754Y-110780324D01*
X119979754Y-110972314D01*
X120053225Y-111149690D01*
X120188983Y-111285448D01*
X120366359Y-111358919D01*
X120558349Y-111358919D01*
X120735725Y-111285448D01*
X120871483Y-111149690D01*
X120918440Y-111036324D01*
X137141754Y-111036324D01*
X137141754Y-111228314D01*
X137215225Y-111405690D01*
X137350983Y-111541448D01*
X137528359Y-111614919D01*
X137720349Y-111614919D01*
X137897725Y-111541448D01*
X138033483Y-111405690D01*
X138106954Y-111228314D01*
X138106954Y-111036324D01*
X138033483Y-110858948D01*
X137897725Y-110723190D01*
X137720349Y-110649719D01*
X137528359Y-110649719D01*
X137350983Y-110723190D01*
X137215225Y-110858948D01*
X137141754Y-111036324D01*
X120918440Y-111036324D01*
X120944954Y-110972314D01*
X120944954Y-110780324D01*
X120871483Y-110602948D01*
X120735725Y-110467190D01*
X120558349Y-110393719D01*
X120366359Y-110393719D01*
X120188983Y-110467190D01*
X120053225Y-110602948D01*
X119979754Y-110780324D01*
X111065954Y-110780324D01*
X111065954Y-109780324D01*
X119979754Y-109780324D01*
X119979754Y-109972314D01*
X120053225Y-110149690D01*
X120188983Y-110285448D01*
X120366359Y-110358919D01*
X120558349Y-110358919D01*
X120735725Y-110285448D01*
X120871483Y-110149690D01*
X120893504Y-110096524D01*
X123120954Y-110096524D01*
X123120954Y-110288514D01*
X123194425Y-110465890D01*
X123330183Y-110601648D01*
X123507559Y-110675119D01*
X123699549Y-110675119D01*
X123876925Y-110601648D01*
X124012683Y-110465890D01*
X124086154Y-110288514D01*
X124086154Y-110096524D01*
X128734354Y-110096524D01*
X128734354Y-110288514D01*
X128807825Y-110465890D01*
X128943583Y-110601648D01*
X129120959Y-110675119D01*
X129312949Y-110675119D01*
X129490325Y-110601648D01*
X129626083Y-110465890D01*
X129664142Y-110374005D01*
X131592400Y-110374005D01*
X131592400Y-110565995D01*
X131665871Y-110743371D01*
X131801629Y-110879129D01*
X131979005Y-110952600D01*
X132170995Y-110952600D01*
X132348371Y-110879129D01*
X132484129Y-110743371D01*
X132557600Y-110565995D01*
X132557600Y-110384005D01*
X132882400Y-110384005D01*
X132882400Y-110575995D01*
X132955871Y-110753371D01*
X133091629Y-110889129D01*
X133269005Y-110962600D01*
X133460995Y-110962600D01*
X133638371Y-110889129D01*
X133774129Y-110753371D01*
X133847600Y-110575995D01*
X133847600Y-110384005D01*
X133774129Y-110206629D01*
X133638371Y-110070871D01*
X133460995Y-109997400D01*
X133269005Y-109997400D01*
X133091629Y-110070871D01*
X132955871Y-110206629D01*
X132882400Y-110384005D01*
X132557600Y-110384005D01*
X132557600Y-110374005D01*
X132484129Y-110196629D01*
X132348371Y-110060871D01*
X132170995Y-109987400D01*
X131979005Y-109987400D01*
X131801629Y-110060871D01*
X131665871Y-110196629D01*
X131592400Y-110374005D01*
X129664142Y-110374005D01*
X129699554Y-110288514D01*
X129699554Y-110096524D01*
X129626083Y-109919148D01*
X129490325Y-109783390D01*
X129312949Y-109709919D01*
X129120959Y-109709919D01*
X128943583Y-109783390D01*
X128807825Y-109919148D01*
X128734354Y-110096524D01*
X124086154Y-110096524D01*
X124012683Y-109919148D01*
X123876925Y-109783390D01*
X123699549Y-109709919D01*
X123507559Y-109709919D01*
X123330183Y-109783390D01*
X123194425Y-109919148D01*
X123120954Y-110096524D01*
X120893504Y-110096524D01*
X120944954Y-109972314D01*
X120944954Y-109780324D01*
X120871483Y-109602948D01*
X120735725Y-109467190D01*
X120558349Y-109393719D01*
X120366359Y-109393719D01*
X120188983Y-109467190D01*
X120053225Y-109602948D01*
X119979754Y-109780324D01*
X111065954Y-109780324D01*
X111065954Y-108650324D01*
X112719754Y-108650324D01*
X112719754Y-108842314D01*
X112793225Y-109019690D01*
X112928983Y-109155448D01*
X113106359Y-109228919D01*
X113298349Y-109228919D01*
X113475725Y-109155448D01*
X113611483Y-109019690D01*
X113684954Y-108842314D01*
X113684954Y-108724005D01*
X114802400Y-108724005D01*
X114802400Y-108915995D01*
X114875871Y-109093371D01*
X115011629Y-109229129D01*
X115189005Y-109302600D01*
X115380995Y-109302600D01*
X115558371Y-109229129D01*
X115694129Y-109093371D01*
X115745067Y-108970394D01*
X115886359Y-109028919D01*
X116078349Y-109028919D01*
X116204158Y-108976808D01*
X116235871Y-109053371D01*
X116371629Y-109189129D01*
X116549005Y-109262600D01*
X116740995Y-109262600D01*
X116918371Y-109189129D01*
X117054129Y-109053371D01*
X117127600Y-108875995D01*
X117127600Y-108780324D01*
X119989754Y-108780324D01*
X119989754Y-108972314D01*
X120063225Y-109149690D01*
X120198983Y-109285448D01*
X120376359Y-109358919D01*
X120568349Y-109358919D01*
X120745725Y-109285448D01*
X120881483Y-109149690D01*
X120954954Y-108972314D01*
X120954954Y-108780324D01*
X120930102Y-108720324D01*
X133699754Y-108720324D01*
X133699754Y-108912314D01*
X133773225Y-109089690D01*
X133908983Y-109225448D01*
X134086359Y-109298919D01*
X134278349Y-109298919D01*
X134455725Y-109225448D01*
X134591483Y-109089690D01*
X134664954Y-108912314D01*
X134664954Y-108892228D01*
X139458754Y-108892228D01*
X139458754Y-109122410D01*
X139546841Y-109335069D01*
X139709604Y-109497832D01*
X139922263Y-109585919D01*
X140152445Y-109585919D01*
X140365104Y-109497832D01*
X140527867Y-109335069D01*
X140615954Y-109122410D01*
X140615954Y-108892228D01*
X140527867Y-108679569D01*
X140365104Y-108516806D01*
X140152445Y-108428719D01*
X139922263Y-108428719D01*
X139709604Y-108516806D01*
X139546841Y-108679569D01*
X139458754Y-108892228D01*
X134664954Y-108892228D01*
X134664954Y-108720324D01*
X134591483Y-108542948D01*
X134455725Y-108407190D01*
X134278349Y-108333719D01*
X134086359Y-108333719D01*
X133908983Y-108407190D01*
X133773225Y-108542948D01*
X133699754Y-108720324D01*
X120930102Y-108720324D01*
X120881483Y-108602948D01*
X120745725Y-108467190D01*
X120568349Y-108393719D01*
X120376359Y-108393719D01*
X120198983Y-108467190D01*
X120063225Y-108602948D01*
X119989754Y-108780324D01*
X117127600Y-108780324D01*
X117127600Y-108684005D01*
X117054129Y-108506629D01*
X116918371Y-108370871D01*
X116740995Y-108297400D01*
X116549005Y-108297400D01*
X116423196Y-108349511D01*
X116391483Y-108272948D01*
X116255725Y-108137190D01*
X116078349Y-108063719D01*
X115886359Y-108063719D01*
X115708983Y-108137190D01*
X115573225Y-108272948D01*
X115522287Y-108395925D01*
X115380995Y-108337400D01*
X115189005Y-108337400D01*
X115011629Y-108410871D01*
X114875871Y-108546629D01*
X114802400Y-108724005D01*
X113684954Y-108724005D01*
X113684954Y-108650324D01*
X113611483Y-108472948D01*
X113475725Y-108337190D01*
X113298349Y-108263719D01*
X113106359Y-108263719D01*
X112928983Y-108337190D01*
X112793225Y-108472948D01*
X112719754Y-108650324D01*
X111065954Y-108650324D01*
X111065954Y-106680324D01*
X116949754Y-106680324D01*
X116949754Y-106872314D01*
X117023225Y-107049690D01*
X117158983Y-107185448D01*
X117336359Y-107258919D01*
X117528349Y-107258919D01*
X117705725Y-107185448D01*
X117841483Y-107049690D01*
X117874357Y-106970324D01*
X125939754Y-106970324D01*
X125939754Y-107162314D01*
X126013225Y-107339690D01*
X126148983Y-107475448D01*
X126326359Y-107548919D01*
X126518349Y-107548919D01*
X126695725Y-107475448D01*
X126831483Y-107339690D01*
X126904954Y-107162314D01*
X126904954Y-106997724D01*
X129978954Y-106997724D01*
X129978954Y-107189714D01*
X130052425Y-107367090D01*
X130188183Y-107502848D01*
X130365559Y-107576319D01*
X130557549Y-107576319D01*
X130734925Y-107502848D01*
X130870683Y-107367090D01*
X130944154Y-107189714D01*
X130944154Y-107120324D01*
X138119754Y-107120324D01*
X138119754Y-107312314D01*
X138193225Y-107489690D01*
X138328983Y-107625448D01*
X138506359Y-107698919D01*
X138698349Y-107698919D01*
X138875725Y-107625448D01*
X139011483Y-107489690D01*
X139084954Y-107312314D01*
X139084954Y-107120324D01*
X139011483Y-106942948D01*
X138875725Y-106807190D01*
X138698349Y-106733719D01*
X138506359Y-106733719D01*
X138328983Y-106807190D01*
X138193225Y-106942948D01*
X138119754Y-107120324D01*
X130944154Y-107120324D01*
X130944154Y-106997724D01*
X130870683Y-106820348D01*
X130734925Y-106684590D01*
X130557549Y-106611119D01*
X130365559Y-106611119D01*
X130188183Y-106684590D01*
X130052425Y-106820348D01*
X129978954Y-106997724D01*
X126904954Y-106997724D01*
X126904954Y-106970324D01*
X126831483Y-106792948D01*
X126695725Y-106657190D01*
X126518349Y-106583719D01*
X126326359Y-106583719D01*
X126148983Y-106657190D01*
X126013225Y-106792948D01*
X125939754Y-106970324D01*
X117874357Y-106970324D01*
X117914954Y-106872314D01*
X117914954Y-106680324D01*
X117841483Y-106502948D01*
X117705725Y-106367190D01*
X117528349Y-106293719D01*
X117336359Y-106293719D01*
X117158983Y-106367190D01*
X117023225Y-106502948D01*
X116949754Y-106680324D01*
X111065954Y-106680324D01*
X111065954Y-104701283D01*
X138623754Y-104701283D01*
X138623754Y-104951355D01*
X138719453Y-105182392D01*
X138896281Y-105359220D01*
X139127318Y-105454919D01*
X139377390Y-105454919D01*
X139608427Y-105359220D01*
X139785255Y-105182392D01*
X139880954Y-104951355D01*
X139880954Y-104701283D01*
X139785255Y-104470246D01*
X139608427Y-104293418D01*
X139377390Y-104197719D01*
X139127318Y-104197719D01*
X138896281Y-104293418D01*
X138719453Y-104470246D01*
X138623754Y-104701283D01*
X111065954Y-104701283D01*
X111065954Y-102152924D01*
X119999756Y-102152924D01*
X119999756Y-102344914D01*
X120073227Y-102522290D01*
X120208985Y-102658048D01*
X120386361Y-102731519D01*
X120578351Y-102731519D01*
X120701947Y-102680324D01*
X121839754Y-102680324D01*
X121839754Y-102872314D01*
X121913225Y-103049690D01*
X122048983Y-103185448D01*
X122226359Y-103258919D01*
X122418349Y-103258919D01*
X122595725Y-103185448D01*
X122731483Y-103049690D01*
X122804954Y-102872314D01*
X122804954Y-102680324D01*
X122731483Y-102502948D01*
X122595725Y-102367190D01*
X122418349Y-102293719D01*
X122226359Y-102293719D01*
X122048983Y-102367190D01*
X121913225Y-102502948D01*
X121839754Y-102680324D01*
X120701947Y-102680324D01*
X120755727Y-102658048D01*
X120891485Y-102522290D01*
X120964956Y-102344914D01*
X120964956Y-102152924D01*
X120891485Y-101975548D01*
X120755727Y-101839790D01*
X120578351Y-101766319D01*
X120386361Y-101766319D01*
X120208985Y-101839790D01*
X120073227Y-101975548D01*
X119999756Y-102152924D01*
X111065954Y-102152924D01*
X111065954Y-101660324D01*
X122099744Y-101660324D01*
X122099744Y-101852314D01*
X122173215Y-102029690D01*
X122308973Y-102165448D01*
X122486349Y-102238919D01*
X122678339Y-102238919D01*
X122855715Y-102165448D01*
X122991473Y-102029690D01*
X123064944Y-101852314D01*
X123064944Y-101660324D01*
X122991473Y-101482948D01*
X122855715Y-101347190D01*
X122678339Y-101273719D01*
X122486349Y-101273719D01*
X122308973Y-101347190D01*
X122173215Y-101482948D01*
X122099744Y-101660324D01*
X111065954Y-101660324D01*
X111065954Y-100660324D01*
X124409754Y-100660324D01*
X124409754Y-100852314D01*
X124483225Y-101029690D01*
X124618983Y-101165448D01*
X124796359Y-101238919D01*
X124988349Y-101238919D01*
X125119754Y-101184490D01*
X125119754Y-101342314D01*
X125193225Y-101519690D01*
X125328983Y-101655448D01*
X125506359Y-101728919D01*
X125698349Y-101728919D01*
X125875725Y-101655448D01*
X126011483Y-101519690D01*
X126084954Y-101342314D01*
X126084954Y-101150324D01*
X126011483Y-100972948D01*
X125875725Y-100837190D01*
X125698349Y-100763719D01*
X125506359Y-100763719D01*
X125374954Y-100818148D01*
X125374954Y-100660324D01*
X125301483Y-100482948D01*
X125165725Y-100347190D01*
X125125007Y-100330324D01*
X128349754Y-100330324D01*
X128349754Y-100522314D01*
X128423225Y-100699690D01*
X128558983Y-100835448D01*
X128736359Y-100908919D01*
X128928349Y-100908919D01*
X129105725Y-100835448D01*
X129241483Y-100699690D01*
X129314954Y-100522314D01*
X129314954Y-100330324D01*
X129241483Y-100152948D01*
X129105725Y-100017190D01*
X128928349Y-99943719D01*
X128736359Y-99943719D01*
X128558983Y-100017190D01*
X128423225Y-100152948D01*
X128349754Y-100330324D01*
X125125007Y-100330324D01*
X124988349Y-100273719D01*
X124796359Y-100273719D01*
X124618983Y-100347190D01*
X124483225Y-100482948D01*
X124409754Y-100660324D01*
X111065954Y-100660324D01*
X111065954Y-98970324D01*
X121939754Y-98970324D01*
X121939754Y-99162314D01*
X122013225Y-99339690D01*
X122148983Y-99475448D01*
X122326359Y-99548919D01*
X122518349Y-99548919D01*
X122695725Y-99475448D01*
X122831483Y-99339690D01*
X122904954Y-99162314D01*
X122904954Y-98970324D01*
X122890321Y-98934997D01*
X122996359Y-98978919D01*
X123188349Y-98978919D01*
X123365725Y-98905448D01*
X123480849Y-98790324D01*
X129519754Y-98790324D01*
X129519754Y-98982314D01*
X129593225Y-99159690D01*
X129728983Y-99295448D01*
X129906359Y-99368919D01*
X130098349Y-99368919D01*
X130275725Y-99295448D01*
X130411483Y-99159690D01*
X130484954Y-98982314D01*
X130484954Y-98790324D01*
X130447676Y-98700324D01*
X130869754Y-98700324D01*
X130869754Y-98892314D01*
X130943225Y-99069690D01*
X131078983Y-99205448D01*
X131256359Y-99278919D01*
X131448349Y-99278919D01*
X131625725Y-99205448D01*
X131761483Y-99069690D01*
X131834954Y-98892314D01*
X131834954Y-98700324D01*
X131832337Y-98694005D01*
X131962400Y-98694005D01*
X131962400Y-98885995D01*
X132035871Y-99063371D01*
X132171629Y-99199129D01*
X132349005Y-99272600D01*
X132540995Y-99272600D01*
X132718371Y-99199129D01*
X132854129Y-99063371D01*
X132927600Y-98885995D01*
X132927600Y-98694005D01*
X133072400Y-98694005D01*
X133072400Y-98885995D01*
X133145871Y-99063371D01*
X133281629Y-99199129D01*
X133459005Y-99272600D01*
X133650995Y-99272600D01*
X133828371Y-99199129D01*
X133964129Y-99063371D01*
X134037600Y-98885995D01*
X134037600Y-98694005D01*
X133964129Y-98516629D01*
X133828371Y-98380871D01*
X133650995Y-98307400D01*
X133459005Y-98307400D01*
X133281629Y-98380871D01*
X133145871Y-98516629D01*
X133072400Y-98694005D01*
X132927600Y-98694005D01*
X132854129Y-98516629D01*
X132718371Y-98380871D01*
X132540995Y-98307400D01*
X132349005Y-98307400D01*
X132171629Y-98380871D01*
X132035871Y-98516629D01*
X131962400Y-98694005D01*
X131832337Y-98694005D01*
X131761483Y-98522948D01*
X131625725Y-98387190D01*
X131448349Y-98313719D01*
X131256359Y-98313719D01*
X131078983Y-98387190D01*
X130943225Y-98522948D01*
X130869754Y-98700324D01*
X130447676Y-98700324D01*
X130411483Y-98612948D01*
X130275725Y-98477190D01*
X130098349Y-98403719D01*
X129906359Y-98403719D01*
X129728983Y-98477190D01*
X129593225Y-98612948D01*
X129519754Y-98790324D01*
X123480849Y-98790324D01*
X123501483Y-98769690D01*
X123574954Y-98592314D01*
X123574954Y-98400324D01*
X123501483Y-98222948D01*
X123365725Y-98087190D01*
X123188349Y-98013719D01*
X122996359Y-98013719D01*
X122818983Y-98087190D01*
X122683225Y-98222948D01*
X122609754Y-98400324D01*
X122609754Y-98592314D01*
X122624387Y-98627641D01*
X122518349Y-98583719D01*
X122326359Y-98583719D01*
X122148983Y-98657190D01*
X122013225Y-98792948D01*
X121939754Y-98970324D01*
X111065954Y-98970324D01*
X111065954Y-97870324D01*
X119852354Y-97870324D01*
X119852354Y-98062314D01*
X119925825Y-98239690D01*
X120061583Y-98375448D01*
X120238959Y-98448919D01*
X120430949Y-98448919D01*
X120608325Y-98375448D01*
X120744083Y-98239690D01*
X120817554Y-98062314D01*
X120817554Y-97870324D01*
X120744083Y-97692948D01*
X120608325Y-97557190D01*
X120430949Y-97483719D01*
X120238959Y-97483719D01*
X120061583Y-97557190D01*
X119925825Y-97692948D01*
X119852354Y-97870324D01*
X111065954Y-97870324D01*
X111065954Y-96770324D01*
X119852354Y-96770324D01*
X119852354Y-96962314D01*
X119925825Y-97139690D01*
X120061583Y-97275448D01*
X120238959Y-97348919D01*
X120430949Y-97348919D01*
X120596553Y-97280324D01*
X123229754Y-97280324D01*
X123229754Y-97472314D01*
X123303225Y-97649690D01*
X123438983Y-97785448D01*
X123616359Y-97858919D01*
X123808349Y-97858919D01*
X123829099Y-97850324D01*
X130109754Y-97850324D01*
X130109754Y-98042314D01*
X130183225Y-98219690D01*
X130318983Y-98355448D01*
X130496359Y-98428919D01*
X130688349Y-98428919D01*
X130865725Y-98355448D01*
X131001483Y-98219690D01*
X131074954Y-98042314D01*
X131074954Y-97878919D01*
X131098349Y-97878919D01*
X131275725Y-97805448D01*
X131411483Y-97669690D01*
X131484954Y-97492314D01*
X131484954Y-97300324D01*
X131411483Y-97122948D01*
X131275725Y-96987190D01*
X131098349Y-96913719D01*
X130906359Y-96913719D01*
X130728983Y-96987190D01*
X130593225Y-97122948D01*
X130519754Y-97300324D01*
X130519754Y-97463719D01*
X130496359Y-97463719D01*
X130318983Y-97537190D01*
X130183225Y-97672948D01*
X130109754Y-97850324D01*
X123829099Y-97850324D01*
X123985725Y-97785448D01*
X124121483Y-97649690D01*
X124194954Y-97472314D01*
X124194954Y-97280324D01*
X124121483Y-97102948D01*
X123985725Y-96967190D01*
X123808349Y-96893719D01*
X123616359Y-96893719D01*
X123438983Y-96967190D01*
X123303225Y-97102948D01*
X123229754Y-97280324D01*
X120596553Y-97280324D01*
X120608325Y-97275448D01*
X120744083Y-97139690D01*
X120817554Y-96962314D01*
X120817554Y-96770324D01*
X120744083Y-96592948D01*
X120608325Y-96457190D01*
X120430949Y-96383719D01*
X120238959Y-96383719D01*
X120061583Y-96457190D01*
X119925825Y-96592948D01*
X119852354Y-96770324D01*
X111065954Y-96770324D01*
X111065954Y-96190324D01*
X125969754Y-96190324D01*
X125969754Y-96382314D01*
X126043225Y-96559690D01*
X126178983Y-96695448D01*
X126356359Y-96768919D01*
X126548349Y-96768919D01*
X126725725Y-96695448D01*
X126861483Y-96559690D01*
X126934954Y-96382314D01*
X126934954Y-96220405D01*
X130487400Y-96220405D01*
X130487400Y-96412395D01*
X130560871Y-96589771D01*
X130696629Y-96725529D01*
X130874005Y-96799000D01*
X131065995Y-96799000D01*
X131243371Y-96725529D01*
X131379129Y-96589771D01*
X131452600Y-96412395D01*
X131452600Y-96220405D01*
X131379129Y-96043029D01*
X131243371Y-95907271D01*
X131065995Y-95833800D01*
X130874005Y-95833800D01*
X130696629Y-95907271D01*
X130560871Y-96043029D01*
X130487400Y-96220405D01*
X126934954Y-96220405D01*
X126934954Y-96190324D01*
X126861483Y-96012948D01*
X126725725Y-95877190D01*
X126548349Y-95803719D01*
X126356359Y-95803719D01*
X126178983Y-95877190D01*
X126043225Y-96012948D01*
X125969754Y-96190324D01*
X111065954Y-96190324D01*
X111065954Y-93790324D01*
X115549754Y-93790324D01*
X115549754Y-93982314D01*
X115623225Y-94159690D01*
X115758983Y-94295448D01*
X115936359Y-94368919D01*
X116128349Y-94368919D01*
X116245523Y-94320384D01*
X116303225Y-94459690D01*
X116438983Y-94595448D01*
X116616359Y-94668919D01*
X116808349Y-94668919D01*
X116985725Y-94595448D01*
X117121483Y-94459690D01*
X117194954Y-94282314D01*
X117194954Y-94090324D01*
X117121483Y-93912948D01*
X117028859Y-93820324D01*
X118059754Y-93820324D01*
X118059754Y-94012314D01*
X118133225Y-94189690D01*
X118268983Y-94325448D01*
X118446359Y-94398919D01*
X118638349Y-94398919D01*
X118706365Y-94370746D01*
X119089754Y-94370746D01*
X119089754Y-94562736D01*
X119163225Y-94740112D01*
X119298983Y-94875870D01*
X119476359Y-94949341D01*
X119668349Y-94949341D01*
X119845725Y-94875870D01*
X119981483Y-94740112D01*
X120054954Y-94562736D01*
X120054954Y-94370746D01*
X120010990Y-94264605D01*
X125559800Y-94264605D01*
X125559800Y-94456595D01*
X125633271Y-94633971D01*
X125769029Y-94769729D01*
X125946405Y-94843200D01*
X126138395Y-94843200D01*
X126160593Y-94834005D01*
X130872400Y-94834005D01*
X130872400Y-95025995D01*
X130945871Y-95203371D01*
X131081629Y-95339129D01*
X131259005Y-95412600D01*
X131444906Y-95412600D01*
X131417400Y-95479005D01*
X131417400Y-95670995D01*
X131490871Y-95848371D01*
X131626629Y-95984129D01*
X131804005Y-96057600D01*
X131967402Y-96057600D01*
X131900000Y-96220324D01*
X131900000Y-96412314D01*
X131973471Y-96589690D01*
X132109229Y-96725448D01*
X132286605Y-96798919D01*
X132478595Y-96798919D01*
X132655971Y-96725448D01*
X132791729Y-96589690D01*
X132865200Y-96412314D01*
X132865200Y-96220324D01*
X132791729Y-96042948D01*
X132655971Y-95907190D01*
X132478595Y-95833719D01*
X132315198Y-95833719D01*
X132382600Y-95670995D01*
X132382600Y-95479005D01*
X132350952Y-95402600D01*
X132540995Y-95402600D01*
X132718371Y-95329129D01*
X132854129Y-95193371D01*
X132927600Y-95015995D01*
X132927600Y-94824005D01*
X133072400Y-94824005D01*
X133072400Y-95015995D01*
X133145871Y-95193371D01*
X133281629Y-95329129D01*
X133459005Y-95402600D01*
X133650995Y-95402600D01*
X133828371Y-95329129D01*
X133964129Y-95193371D01*
X134030007Y-95034324D01*
X134220754Y-95034324D01*
X134220754Y-95226314D01*
X134294225Y-95403690D01*
X134429983Y-95539448D01*
X134607359Y-95612919D01*
X134799349Y-95612919D01*
X134976725Y-95539448D01*
X135112483Y-95403690D01*
X135185954Y-95226314D01*
X135185954Y-95034324D01*
X135112483Y-94856948D01*
X134976725Y-94721190D01*
X134799349Y-94647719D01*
X134607359Y-94647719D01*
X134429983Y-94721190D01*
X134294225Y-94856948D01*
X134220754Y-95034324D01*
X134030007Y-95034324D01*
X134037600Y-95015995D01*
X134037600Y-94824005D01*
X133964129Y-94646629D01*
X133828371Y-94510871D01*
X133650995Y-94437400D01*
X133459005Y-94437400D01*
X133281629Y-94510871D01*
X133145871Y-94646629D01*
X133072400Y-94824005D01*
X132927600Y-94824005D01*
X132854129Y-94646629D01*
X132718371Y-94510871D01*
X132540995Y-94437400D01*
X132349005Y-94437400D01*
X132171629Y-94510871D01*
X132035871Y-94646629D01*
X131962400Y-94824005D01*
X131962400Y-95015995D01*
X131994048Y-95092400D01*
X131810094Y-95092400D01*
X131837600Y-95025995D01*
X131837600Y-94834005D01*
X131764129Y-94656629D01*
X131628371Y-94520871D01*
X131450995Y-94447400D01*
X131259005Y-94447400D01*
X131081629Y-94520871D01*
X130945871Y-94656629D01*
X130872400Y-94834005D01*
X126160593Y-94834005D01*
X126315771Y-94769729D01*
X126451529Y-94633971D01*
X126525000Y-94456595D01*
X126525000Y-94264605D01*
X126451529Y-94087229D01*
X126315771Y-93951471D01*
X126138395Y-93878000D01*
X125946405Y-93878000D01*
X125769029Y-93951471D01*
X125633271Y-94087229D01*
X125559800Y-94264605D01*
X120010990Y-94264605D01*
X119981483Y-94193370D01*
X119845725Y-94057612D01*
X119668349Y-93984141D01*
X119476359Y-93984141D01*
X119298983Y-94057612D01*
X119163225Y-94193370D01*
X119089754Y-94370746D01*
X118706365Y-94370746D01*
X118815725Y-94325448D01*
X118951483Y-94189690D01*
X119024954Y-94012314D01*
X119024954Y-93820324D01*
X118951483Y-93642948D01*
X118815725Y-93507190D01*
X118638349Y-93433719D01*
X118446359Y-93433719D01*
X118268983Y-93507190D01*
X118133225Y-93642948D01*
X118059754Y-93820324D01*
X117028859Y-93820324D01*
X116985725Y-93777190D01*
X116808349Y-93703719D01*
X116616359Y-93703719D01*
X116499185Y-93752254D01*
X116441483Y-93612948D01*
X116305725Y-93477190D01*
X116128349Y-93403719D01*
X115936359Y-93403719D01*
X115758983Y-93477190D01*
X115623225Y-93612948D01*
X115549754Y-93790324D01*
X111065954Y-93790324D01*
X111065954Y-92000324D01*
X112339754Y-92000324D01*
X112339754Y-92192314D01*
X112413225Y-92369690D01*
X112548983Y-92505448D01*
X112726359Y-92578919D01*
X112918349Y-92578919D01*
X112991463Y-92548635D01*
X112987351Y-92558561D01*
X112987351Y-92750551D01*
X113060822Y-92927927D01*
X113196580Y-93063685D01*
X113344399Y-93124913D01*
X113329731Y-93160324D01*
X113329731Y-93352314D01*
X113403202Y-93529690D01*
X113538960Y-93665448D01*
X113716336Y-93738919D01*
X113908326Y-93738919D01*
X114085702Y-93665448D01*
X114221460Y-93529690D01*
X114294931Y-93352314D01*
X114294931Y-93160324D01*
X114221460Y-92982948D01*
X114085702Y-92847190D01*
X113937883Y-92785962D01*
X113952551Y-92750551D01*
X113952551Y-92558561D01*
X113879080Y-92381185D01*
X113743322Y-92245427D01*
X113565946Y-92171956D01*
X113373956Y-92171956D01*
X113300842Y-92202240D01*
X113304954Y-92192314D01*
X113304954Y-92000324D01*
X113231483Y-91822948D01*
X113095725Y-91687190D01*
X112918349Y-91613719D01*
X112726359Y-91613719D01*
X112548983Y-91687190D01*
X112413225Y-91822948D01*
X112339754Y-92000324D01*
X111065954Y-92000324D01*
X111065954Y-90614724D01*
X121063554Y-90614724D01*
X121063554Y-90806714D01*
X121137025Y-90984090D01*
X121272783Y-91119848D01*
X121450159Y-91193319D01*
X121642149Y-91193319D01*
X121819525Y-91119848D01*
X121955283Y-90984090D01*
X122028754Y-90806714D01*
X122028754Y-90614724D01*
X121955283Y-90437348D01*
X121819525Y-90301590D01*
X121642149Y-90228119D01*
X121450159Y-90228119D01*
X121272783Y-90301590D01*
X121137025Y-90437348D01*
X121063554Y-90614724D01*
X111065954Y-90614724D01*
X111065954Y-89976421D01*
X111060120Y-89947090D01*
X110984001Y-89564412D01*
X110984001Y-89564407D01*
X110938668Y-89454965D01*
X110721895Y-89130541D01*
X110638132Y-89046778D01*
X110613507Y-89030324D01*
X126159754Y-89030324D01*
X126159754Y-89222314D01*
X126233225Y-89399690D01*
X126368983Y-89535448D01*
X126546359Y-89608919D01*
X126738349Y-89608919D01*
X126741241Y-89607721D01*
X127642357Y-89607721D01*
X127642357Y-89799711D01*
X127715828Y-89977087D01*
X127851586Y-90112845D01*
X128028962Y-90186316D01*
X128109754Y-90186316D01*
X128109754Y-90282312D01*
X128183225Y-90459688D01*
X128318983Y-90595446D01*
X128496359Y-90668917D01*
X128669754Y-90668917D01*
X128669754Y-90802314D01*
X128743225Y-90979690D01*
X128878983Y-91115448D01*
X129056359Y-91188919D01*
X129243747Y-91188919D01*
X129242800Y-91191205D01*
X129242800Y-91383195D01*
X129316271Y-91560571D01*
X129452029Y-91696329D01*
X129629405Y-91769800D01*
X129821395Y-91769800D01*
X129998771Y-91696329D01*
X130134529Y-91560571D01*
X130208000Y-91383195D01*
X130208000Y-91191205D01*
X130134529Y-91013829D01*
X129998771Y-90878071D01*
X129821395Y-90804600D01*
X129634007Y-90804600D01*
X129634954Y-90802314D01*
X129634954Y-90640124D01*
X138411754Y-90640124D01*
X138411754Y-90832114D01*
X138485225Y-91009490D01*
X138620983Y-91145248D01*
X138798359Y-91218719D01*
X138990349Y-91218719D01*
X139167725Y-91145248D01*
X139303483Y-91009490D01*
X139376954Y-90832114D01*
X139376954Y-90640124D01*
X139303483Y-90462748D01*
X139167725Y-90326990D01*
X138990349Y-90253519D01*
X138798359Y-90253519D01*
X138620983Y-90326990D01*
X138485225Y-90462748D01*
X138411754Y-90640124D01*
X129634954Y-90640124D01*
X129634954Y-90610324D01*
X129561483Y-90432948D01*
X129425725Y-90297190D01*
X129248349Y-90223719D01*
X129074954Y-90223719D01*
X129074954Y-90090322D01*
X129001483Y-89912946D01*
X128865725Y-89777188D01*
X128688349Y-89703717D01*
X128607557Y-89703717D01*
X128607557Y-89607721D01*
X128534086Y-89430345D01*
X128398328Y-89294587D01*
X128220952Y-89221116D01*
X128028962Y-89221116D01*
X127851586Y-89294587D01*
X127715828Y-89430345D01*
X127642357Y-89607721D01*
X126741241Y-89607721D01*
X126915725Y-89535448D01*
X127051483Y-89399690D01*
X127124954Y-89222314D01*
X127124954Y-89190324D01*
X131399754Y-89190324D01*
X131399754Y-89382314D01*
X131473225Y-89559690D01*
X131608983Y-89695448D01*
X131786359Y-89768919D01*
X131978349Y-89768919D01*
X132155725Y-89695448D01*
X132267168Y-89584005D01*
X133642400Y-89584005D01*
X133642400Y-89775995D01*
X133715871Y-89953371D01*
X133851629Y-90089129D01*
X134029005Y-90162600D01*
X134220995Y-90162600D01*
X134398371Y-90089129D01*
X134534129Y-89953371D01*
X134607600Y-89775995D01*
X134607600Y-89584005D01*
X134534129Y-89406629D01*
X134398371Y-89270871D01*
X134220995Y-89197400D01*
X134029005Y-89197400D01*
X133851629Y-89270871D01*
X133715871Y-89406629D01*
X133642400Y-89584005D01*
X132267168Y-89584005D01*
X132291483Y-89559690D01*
X132364954Y-89382314D01*
X132364954Y-89190324D01*
X132291483Y-89012948D01*
X132155725Y-88877190D01*
X131978349Y-88803719D01*
X131786359Y-88803719D01*
X131608983Y-88877190D01*
X131473225Y-89012948D01*
X131399754Y-89190324D01*
X127124954Y-89190324D01*
X127124954Y-89030324D01*
X127074120Y-88907600D01*
X127195995Y-88907600D01*
X127373371Y-88834129D01*
X127509129Y-88698371D01*
X127582600Y-88520995D01*
X127582600Y-88388919D01*
X127718349Y-88388919D01*
X127895725Y-88315448D01*
X127907849Y-88303324D01*
X137776754Y-88303324D01*
X137776754Y-88495314D01*
X137850225Y-88672690D01*
X137985983Y-88808448D01*
X138163359Y-88881919D01*
X138355349Y-88881919D01*
X138532725Y-88808448D01*
X138668483Y-88672690D01*
X138741954Y-88495314D01*
X138741954Y-88303324D01*
X138668483Y-88125948D01*
X138532725Y-87990190D01*
X138355349Y-87916719D01*
X138163359Y-87916719D01*
X137985983Y-87990190D01*
X137850225Y-88125948D01*
X137776754Y-88303324D01*
X127907849Y-88303324D01*
X128031483Y-88179690D01*
X128104954Y-88002314D01*
X128104954Y-87810324D01*
X128100230Y-87798919D01*
X128178349Y-87798919D01*
X128355725Y-87725448D01*
X128491483Y-87589690D01*
X128511516Y-87541324D01*
X139427754Y-87541324D01*
X139427754Y-87733314D01*
X139501225Y-87910690D01*
X139636983Y-88046448D01*
X139814359Y-88119919D01*
X140006349Y-88119919D01*
X140183725Y-88046448D01*
X140319483Y-87910690D01*
X140392954Y-87733314D01*
X140392954Y-87541324D01*
X140319483Y-87363948D01*
X140183725Y-87228190D01*
X140006349Y-87154719D01*
X139814359Y-87154719D01*
X139636983Y-87228190D01*
X139501225Y-87363948D01*
X139427754Y-87541324D01*
X128511516Y-87541324D01*
X128564954Y-87412314D01*
X128564954Y-87220324D01*
X128491483Y-87042948D01*
X128355725Y-86907190D01*
X128178349Y-86833719D01*
X127986359Y-86833719D01*
X127808983Y-86907190D01*
X127673225Y-87042948D01*
X127599754Y-87220324D01*
X127599754Y-87412314D01*
X127604478Y-87423719D01*
X127526359Y-87423719D01*
X127348983Y-87497190D01*
X127213225Y-87632948D01*
X127139754Y-87810324D01*
X127139754Y-87942400D01*
X127004005Y-87942400D01*
X126826629Y-88015871D01*
X126690871Y-88151629D01*
X126617400Y-88329005D01*
X126617400Y-88520995D01*
X126668234Y-88643719D01*
X126546359Y-88643719D01*
X126368983Y-88717190D01*
X126233225Y-88852948D01*
X126159754Y-89030324D01*
X110613507Y-89030324D01*
X110313708Y-88830005D01*
X110204266Y-88784672D01*
X110204261Y-88784672D01*
X109821583Y-88708553D01*
X109821581Y-88708553D01*
X109792252Y-88702719D01*
X107732456Y-88702719D01*
X107703127Y-88708553D01*
X107703125Y-88708553D01*
X107320447Y-88784672D01*
X107320442Y-88784672D01*
X107211000Y-88830005D01*
X106886576Y-89046778D01*
X106802813Y-89130541D01*
X106586040Y-89454965D01*
X106540707Y-89564407D01*
X106540707Y-89564412D01*
X106464588Y-89947090D01*
X106464588Y-89947093D01*
X106458754Y-89976422D01*
X99065954Y-89976422D01*
X99065954Y-89166924D01*
X101022954Y-89166924D01*
X101022954Y-89358914D01*
X101096425Y-89536290D01*
X101232183Y-89672048D01*
X101409559Y-89745519D01*
X101601549Y-89745519D01*
X101778925Y-89672048D01*
X101861154Y-89589819D01*
X101943383Y-89672048D01*
X102120759Y-89745519D01*
X102312749Y-89745519D01*
X102490125Y-89672048D01*
X102625883Y-89536290D01*
X102699354Y-89358914D01*
X102699354Y-89166924D01*
X102625883Y-88989548D01*
X102490125Y-88853790D01*
X102312749Y-88780319D01*
X102120759Y-88780319D01*
X101943383Y-88853790D01*
X101861154Y-88936019D01*
X101778925Y-88853790D01*
X101601549Y-88780319D01*
X101409559Y-88780319D01*
X101232183Y-88853790D01*
X101096425Y-88989548D01*
X101022954Y-89166924D01*
X99065954Y-89166924D01*
X99065954Y-87820324D01*
X117259754Y-87820324D01*
X117259754Y-88012314D01*
X117333225Y-88189690D01*
X117468983Y-88325448D01*
X117646359Y-88398919D01*
X117838349Y-88398919D01*
X118007137Y-88329005D01*
X121063554Y-88329005D01*
X121063554Y-88520995D01*
X121137025Y-88698371D01*
X121272783Y-88834129D01*
X121450159Y-88907600D01*
X121642149Y-88907600D01*
X121819525Y-88834129D01*
X121955283Y-88698371D01*
X122028754Y-88520995D01*
X122028754Y-88329005D01*
X121955283Y-88151629D01*
X121819525Y-88015871D01*
X121642149Y-87942400D01*
X121450159Y-87942400D01*
X121272783Y-88015871D01*
X121137025Y-88151629D01*
X121063554Y-88329005D01*
X118007137Y-88329005D01*
X118015725Y-88325448D01*
X118151483Y-88189690D01*
X118224954Y-88012314D01*
X118224954Y-87820324D01*
X118151483Y-87642948D01*
X118015725Y-87507190D01*
X117838349Y-87433719D01*
X117646359Y-87433719D01*
X117468983Y-87507190D01*
X117333225Y-87642948D01*
X117259754Y-87820324D01*
X99065954Y-87820324D01*
X99065954Y-87220322D01*
X118779754Y-87220322D01*
X118779754Y-87412312D01*
X118853225Y-87589688D01*
X118988983Y-87725446D01*
X119166359Y-87798917D01*
X119358349Y-87798917D01*
X119535725Y-87725446D01*
X119671483Y-87589688D01*
X119744954Y-87412312D01*
X119744954Y-87220322D01*
X119671483Y-87042946D01*
X119535725Y-86907188D01*
X119358349Y-86833717D01*
X119166359Y-86833717D01*
X118988983Y-86907188D01*
X118853225Y-87042946D01*
X118779754Y-87220322D01*
X99065954Y-87220322D01*
X99065954Y-86091228D01*
X99834754Y-86091228D01*
X99834754Y-86321410D01*
X99922841Y-86534069D01*
X100085604Y-86696832D01*
X100298263Y-86784919D01*
X100528445Y-86784919D01*
X100741104Y-86696832D01*
X100903867Y-86534069D01*
X100991954Y-86321410D01*
X100991954Y-86091228D01*
X139458754Y-86091228D01*
X139458754Y-86321410D01*
X139546841Y-86534069D01*
X139709604Y-86696832D01*
X139922263Y-86784919D01*
X140152445Y-86784919D01*
X140365104Y-86696832D01*
X140527867Y-86534069D01*
X140615954Y-86321410D01*
X140615954Y-86091228D01*
X140527867Y-85878569D01*
X140365104Y-85715806D01*
X140152445Y-85627719D01*
X139922263Y-85627719D01*
X139709604Y-85715806D01*
X139546841Y-85878569D01*
X139458754Y-86091228D01*
X100991954Y-86091228D01*
X100903867Y-85878569D01*
X100741104Y-85715806D01*
X100528445Y-85627719D01*
X100298263Y-85627719D01*
X100085604Y-85715806D01*
X99922841Y-85878569D01*
X99834754Y-86091228D01*
X99065954Y-86091228D01*
X99065954Y-83985324D01*
X102115154Y-83985324D01*
X102115154Y-84177314D01*
X102188625Y-84354690D01*
X102324383Y-84490448D01*
X102501759Y-84563919D01*
X102693749Y-84563919D01*
X102871125Y-84490448D01*
X103006883Y-84354690D01*
X103080354Y-84177314D01*
X103080354Y-83985324D01*
X103006883Y-83807948D01*
X102871125Y-83672190D01*
X102693749Y-83598719D01*
X102501759Y-83598719D01*
X102324383Y-83672190D01*
X102188625Y-83807948D01*
X102115154Y-83985324D01*
X99065954Y-83985324D01*
X99065954Y-83579005D01*
X123542400Y-83579005D01*
X123542400Y-83770995D01*
X123615871Y-83948371D01*
X123751629Y-84084129D01*
X123929005Y-84157600D01*
X124120995Y-84157600D01*
X124298371Y-84084129D01*
X124434129Y-83948371D01*
X124452505Y-83904005D01*
X126342400Y-83904005D01*
X126342400Y-84095995D01*
X126415871Y-84273371D01*
X126551629Y-84409129D01*
X126729005Y-84482600D01*
X126920995Y-84482600D01*
X127098371Y-84409129D01*
X127234129Y-84273371D01*
X127307600Y-84095995D01*
X127307600Y-83904005D01*
X127234129Y-83726629D01*
X127098371Y-83590871D01*
X126920995Y-83517400D01*
X126729005Y-83517400D01*
X126551629Y-83590871D01*
X126415871Y-83726629D01*
X126342400Y-83904005D01*
X124452505Y-83904005D01*
X124507600Y-83770995D01*
X124507600Y-83579005D01*
X124434129Y-83401629D01*
X124298371Y-83265871D01*
X124120995Y-83192400D01*
X123929005Y-83192400D01*
X123751629Y-83265871D01*
X123615871Y-83401629D01*
X123542400Y-83579005D01*
X99065954Y-83579005D01*
X99065954Y-82690324D01*
X109759754Y-82690324D01*
X109759754Y-82882314D01*
X109833225Y-83059690D01*
X109968983Y-83195448D01*
X110146359Y-83268919D01*
X110338349Y-83268919D01*
X110515725Y-83195448D01*
X110651483Y-83059690D01*
X110724954Y-82882314D01*
X110724954Y-82690324D01*
X110759754Y-82690324D01*
X110759754Y-82882314D01*
X110833225Y-83059690D01*
X110968983Y-83195448D01*
X111146359Y-83268919D01*
X111338349Y-83268919D01*
X111515725Y-83195448D01*
X111651483Y-83059690D01*
X111724954Y-82882314D01*
X111724954Y-82690324D01*
X111759754Y-82690324D01*
X111759754Y-82882314D01*
X111833225Y-83059690D01*
X111968983Y-83195448D01*
X112146359Y-83268919D01*
X112338349Y-83268919D01*
X112515725Y-83195448D01*
X112651483Y-83059690D01*
X112724954Y-82882314D01*
X112724954Y-82690324D01*
X112651483Y-82512948D01*
X112515725Y-82377190D01*
X112338349Y-82303719D01*
X112146359Y-82303719D01*
X111968983Y-82377190D01*
X111833225Y-82512948D01*
X111759754Y-82690324D01*
X111724954Y-82690324D01*
X111651483Y-82512948D01*
X111515725Y-82377190D01*
X111338349Y-82303719D01*
X111146359Y-82303719D01*
X110968983Y-82377190D01*
X110833225Y-82512948D01*
X110759754Y-82690324D01*
X110724954Y-82690324D01*
X110651483Y-82512948D01*
X110515725Y-82377190D01*
X110338349Y-82303719D01*
X110146359Y-82303719D01*
X109968983Y-82377190D01*
X109833225Y-82512948D01*
X109759754Y-82690324D01*
X99065954Y-82690324D01*
X99065954Y-81841228D01*
X99834754Y-81841228D01*
X99834754Y-82071410D01*
X99922841Y-82284069D01*
X100085604Y-82446832D01*
X100298263Y-82534919D01*
X100528445Y-82534919D01*
X100741104Y-82446832D01*
X100903867Y-82284069D01*
X100991954Y-82071410D01*
X100991954Y-81841228D01*
X100980678Y-81814005D01*
X131792400Y-81814005D01*
X131792400Y-82005995D01*
X131865871Y-82183371D01*
X132001629Y-82319129D01*
X132179005Y-82392600D01*
X132370995Y-82392600D01*
X132548371Y-82319129D01*
X132684129Y-82183371D01*
X132757600Y-82005995D01*
X132757600Y-81824005D01*
X133062400Y-81824005D01*
X133062400Y-82015995D01*
X133135871Y-82193371D01*
X133271629Y-82329129D01*
X133449005Y-82402600D01*
X133640995Y-82402600D01*
X133818371Y-82329129D01*
X133954129Y-82193371D01*
X134027600Y-82015995D01*
X134027600Y-81824005D01*
X134332400Y-81824005D01*
X134332400Y-82015995D01*
X134405871Y-82193371D01*
X134541629Y-82329129D01*
X134719005Y-82402600D01*
X134910995Y-82402600D01*
X135088371Y-82329129D01*
X135224129Y-82193371D01*
X135297600Y-82015995D01*
X135297600Y-81824005D01*
X135296076Y-81820324D01*
X135589754Y-81820324D01*
X135589754Y-82012314D01*
X135663225Y-82189690D01*
X135798983Y-82325448D01*
X135976359Y-82398919D01*
X136168349Y-82398919D01*
X136345725Y-82325448D01*
X136481483Y-82189690D01*
X136554954Y-82012314D01*
X136554954Y-81841228D01*
X139458754Y-81841228D01*
X139458754Y-82071410D01*
X139546841Y-82284069D01*
X139709604Y-82446832D01*
X139922263Y-82534919D01*
X140152445Y-82534919D01*
X140365104Y-82446832D01*
X140527867Y-82284069D01*
X140615954Y-82071410D01*
X140615954Y-81841228D01*
X140527867Y-81628569D01*
X140365104Y-81465806D01*
X140152445Y-81377719D01*
X139922263Y-81377719D01*
X139709604Y-81465806D01*
X139546841Y-81628569D01*
X139458754Y-81841228D01*
X136554954Y-81841228D01*
X136554954Y-81820324D01*
X136481483Y-81642948D01*
X136345725Y-81507190D01*
X136168349Y-81433719D01*
X135976359Y-81433719D01*
X135798983Y-81507190D01*
X135663225Y-81642948D01*
X135589754Y-81820324D01*
X135296076Y-81820324D01*
X135224129Y-81646629D01*
X135088371Y-81510871D01*
X134910995Y-81437400D01*
X134719005Y-81437400D01*
X134541629Y-81510871D01*
X134405871Y-81646629D01*
X134332400Y-81824005D01*
X134027600Y-81824005D01*
X133954129Y-81646629D01*
X133818371Y-81510871D01*
X133640995Y-81437400D01*
X133449005Y-81437400D01*
X133271629Y-81510871D01*
X133135871Y-81646629D01*
X133062400Y-81824005D01*
X132757600Y-81824005D01*
X132757600Y-81814005D01*
X132684129Y-81636629D01*
X132548371Y-81500871D01*
X132370995Y-81427400D01*
X132179005Y-81427400D01*
X132001629Y-81500871D01*
X131865871Y-81636629D01*
X131792400Y-81814005D01*
X100980678Y-81814005D01*
X100903867Y-81628569D01*
X100741104Y-81465806D01*
X100528445Y-81377719D01*
X100298263Y-81377719D01*
X100085604Y-81465806D01*
X99922841Y-81628569D01*
X99834754Y-81841228D01*
X99065954Y-81841228D01*
X99065954Y-79023954D01*
X99140275Y-78386487D01*
X99160919Y-78329612D01*
X99310180Y-78329612D01*
X99310180Y-79175468D01*
X99633874Y-79956936D01*
X100231984Y-80555046D01*
X101013452Y-80878740D01*
X101859308Y-80878740D01*
X101963158Y-80835724D01*
X109328754Y-80835724D01*
X109328754Y-81027714D01*
X109402225Y-81205090D01*
X109537983Y-81340848D01*
X109715359Y-81414319D01*
X109907349Y-81414319D01*
X110084725Y-81340848D01*
X110220483Y-81205090D01*
X110293954Y-81027714D01*
X110293954Y-80835724D01*
X110287242Y-80819519D01*
X118964823Y-80819519D01*
X119045386Y-80952878D01*
X119397732Y-81093485D01*
X119777065Y-81088552D01*
X120104614Y-80952878D01*
X120185177Y-80819519D01*
X123964823Y-80819519D01*
X124045386Y-80952878D01*
X124397732Y-81093485D01*
X124777065Y-81088552D01*
X125104614Y-80952878D01*
X125185177Y-80819519D01*
X124575000Y-80209342D01*
X123964823Y-80819519D01*
X120185177Y-80819519D01*
X119575000Y-80209342D01*
X118964823Y-80819519D01*
X110287242Y-80819519D01*
X110220483Y-80658348D01*
X110084725Y-80522590D01*
X109907349Y-80449119D01*
X109715359Y-80449119D01*
X109537983Y-80522590D01*
X109402225Y-80658348D01*
X109328754Y-80835724D01*
X101963158Y-80835724D01*
X102640776Y-80555046D01*
X103122098Y-80073724D01*
X103760798Y-80073724D01*
X103760798Y-80265714D01*
X103834269Y-80443090D01*
X103970027Y-80578848D01*
X104147403Y-80652319D01*
X104339393Y-80652319D01*
X104516769Y-80578848D01*
X104652527Y-80443090D01*
X104725998Y-80265714D01*
X104725998Y-80100759D01*
X110649554Y-80100759D01*
X110649554Y-80292749D01*
X110723025Y-80470125D01*
X110858783Y-80605883D01*
X111036159Y-80679354D01*
X111228149Y-80679354D01*
X111405525Y-80605883D01*
X111541283Y-80470125D01*
X111614754Y-80292749D01*
X111614754Y-80100759D01*
X111556547Y-79960232D01*
X118619015Y-79960232D01*
X118623948Y-80339565D01*
X118759622Y-80667114D01*
X118892981Y-80747677D01*
X119503158Y-80137500D01*
X119646842Y-80137500D01*
X120257019Y-80747677D01*
X120390378Y-80667114D01*
X120530985Y-80314768D01*
X120526375Y-79960232D01*
X123619015Y-79960232D01*
X123623948Y-80339565D01*
X123759622Y-80667114D01*
X123892981Y-80747677D01*
X124503158Y-80137500D01*
X124646842Y-80137500D01*
X125257019Y-80747677D01*
X125390378Y-80667114D01*
X125530985Y-80314768D01*
X125529172Y-80175324D01*
X130283754Y-80175324D01*
X130283754Y-80367314D01*
X130357225Y-80544690D01*
X130492983Y-80680448D01*
X130670359Y-80753919D01*
X130862349Y-80753919D01*
X131039725Y-80680448D01*
X131175483Y-80544690D01*
X131248954Y-80367314D01*
X131248954Y-80175324D01*
X131175483Y-79997948D01*
X131039725Y-79862190D01*
X130862349Y-79788719D01*
X130670359Y-79788719D01*
X130492983Y-79862190D01*
X130357225Y-79997948D01*
X130283754Y-80175324D01*
X125529172Y-80175324D01*
X125526052Y-79935435D01*
X125394071Y-79616800D01*
X133839754Y-79616800D01*
X133839754Y-79909838D01*
X133951895Y-80180569D01*
X134159104Y-80387778D01*
X134429835Y-80499919D01*
X134722873Y-80499919D01*
X134993604Y-80387778D01*
X135200813Y-80180569D01*
X135255589Y-80048328D01*
X135363754Y-80048328D01*
X135363754Y-80240318D01*
X135437225Y-80417694D01*
X135572983Y-80553452D01*
X135750359Y-80626923D01*
X135942349Y-80626923D01*
X136119725Y-80553452D01*
X136255483Y-80417694D01*
X136328954Y-80240318D01*
X136328954Y-80048328D01*
X136255483Y-79870952D01*
X136119725Y-79735194D01*
X135942349Y-79661723D01*
X135750359Y-79661723D01*
X135572983Y-79735194D01*
X135437225Y-79870952D01*
X135363754Y-80048328D01*
X135255589Y-80048328D01*
X135312954Y-79909838D01*
X135312954Y-79616800D01*
X135200813Y-79346069D01*
X134993604Y-79138860D01*
X134722873Y-79026719D01*
X134429835Y-79026719D01*
X134159104Y-79138860D01*
X133951895Y-79346069D01*
X133839754Y-79616800D01*
X125394071Y-79616800D01*
X125390378Y-79607886D01*
X125257019Y-79527323D01*
X124646842Y-80137500D01*
X124503158Y-80137500D01*
X123892981Y-79527323D01*
X123759622Y-79607886D01*
X123619015Y-79960232D01*
X120526375Y-79960232D01*
X120526052Y-79935435D01*
X120390378Y-79607886D01*
X120257019Y-79527323D01*
X119646842Y-80137500D01*
X119503158Y-80137500D01*
X118892981Y-79527323D01*
X118759622Y-79607886D01*
X118619015Y-79960232D01*
X111556547Y-79960232D01*
X111541283Y-79923383D01*
X111405525Y-79787625D01*
X111228149Y-79714154D01*
X111036159Y-79714154D01*
X110858783Y-79787625D01*
X110723025Y-79923383D01*
X110649554Y-80100759D01*
X104725998Y-80100759D01*
X104725998Y-80073724D01*
X104652527Y-79896348D01*
X104516769Y-79760590D01*
X104339393Y-79687119D01*
X104147403Y-79687119D01*
X103970027Y-79760590D01*
X103834269Y-79896348D01*
X103760798Y-80073724D01*
X103122098Y-80073724D01*
X103238886Y-79956936D01*
X103562580Y-79175468D01*
X103562580Y-79006924D01*
X103765857Y-79006924D01*
X103765857Y-79198914D01*
X103839328Y-79376290D01*
X103975086Y-79512048D01*
X104152462Y-79585519D01*
X104344452Y-79585519D01*
X104521828Y-79512048D01*
X104578395Y-79455481D01*
X118964823Y-79455481D01*
X119575000Y-80065658D01*
X120185177Y-79455481D01*
X123964823Y-79455481D01*
X124575000Y-80065658D01*
X125185177Y-79455481D01*
X125104614Y-79322122D01*
X124752268Y-79181515D01*
X124372935Y-79186448D01*
X124045386Y-79322122D01*
X123964823Y-79455481D01*
X120185177Y-79455481D01*
X120104614Y-79322122D01*
X119752268Y-79181515D01*
X119372935Y-79186448D01*
X119045386Y-79322122D01*
X118964823Y-79455481D01*
X104578395Y-79455481D01*
X104657586Y-79376290D01*
X104731057Y-79198914D01*
X104731057Y-79006924D01*
X104657586Y-78829548D01*
X104521828Y-78693790D01*
X104344452Y-78620319D01*
X104152462Y-78620319D01*
X103975086Y-78693790D01*
X103839328Y-78829548D01*
X103765857Y-79006924D01*
X103562580Y-79006924D01*
X103562580Y-78600800D01*
X128759754Y-78600800D01*
X128759754Y-78893838D01*
X128871895Y-79164569D01*
X129079104Y-79371778D01*
X129349835Y-79483919D01*
X129642873Y-79483919D01*
X129913604Y-79371778D01*
X130120813Y-79164569D01*
X130232954Y-78893838D01*
X130232954Y-78600800D01*
X130120813Y-78330069D01*
X129913604Y-78122860D01*
X129642873Y-78010719D01*
X129349835Y-78010719D01*
X129079104Y-78122860D01*
X128871895Y-78330069D01*
X128759754Y-78600800D01*
X103562580Y-78600800D01*
X103562580Y-78329612D01*
X103238886Y-77548144D01*
X103179042Y-77488300D01*
X117746400Y-77488300D01*
X117746400Y-77838300D01*
X117828914Y-78151525D01*
X118025013Y-78409330D01*
X118304842Y-78572467D01*
X118395448Y-78596412D01*
X118524200Y-78557276D01*
X118524200Y-77488300D01*
X118625800Y-77488300D01*
X118625800Y-78557276D01*
X118754552Y-78596412D01*
X118845158Y-78572467D01*
X119124987Y-78409330D01*
X119321086Y-78151525D01*
X119403600Y-77838300D01*
X119403600Y-77488300D01*
X124746400Y-77488300D01*
X124746400Y-77838300D01*
X124828914Y-78151525D01*
X125025013Y-78409330D01*
X125304842Y-78572467D01*
X125395448Y-78596412D01*
X125524200Y-78557276D01*
X125524200Y-77488300D01*
X125625800Y-77488300D01*
X125625800Y-78557276D01*
X125754552Y-78596412D01*
X125845158Y-78572467D01*
X126124987Y-78409330D01*
X126321086Y-78151525D01*
X126403600Y-77838300D01*
X126403600Y-77584800D01*
X133839754Y-77584800D01*
X133839754Y-77877838D01*
X133951895Y-78148569D01*
X134159104Y-78355778D01*
X134429835Y-78467919D01*
X134722873Y-78467919D01*
X134993604Y-78355778D01*
X135017230Y-78332152D01*
X136803120Y-78332152D01*
X136803120Y-79178008D01*
X137126814Y-79959476D01*
X137724924Y-80557586D01*
X138506392Y-80881280D01*
X139352248Y-80881280D01*
X140133716Y-80557586D01*
X140731826Y-79959476D01*
X141055520Y-79178008D01*
X141055520Y-78332152D01*
X140731826Y-77550684D01*
X140133716Y-76952574D01*
X139352248Y-76628880D01*
X138506392Y-76628880D01*
X137724924Y-76952574D01*
X137126814Y-77550684D01*
X136803120Y-78332152D01*
X135017230Y-78332152D01*
X135200813Y-78148569D01*
X135312954Y-77877838D01*
X135312954Y-77584800D01*
X135200813Y-77314069D01*
X134993604Y-77106860D01*
X134722873Y-76994719D01*
X134429835Y-76994719D01*
X134159104Y-77106860D01*
X133951895Y-77314069D01*
X133839754Y-77584800D01*
X126403600Y-77584800D01*
X126403600Y-77488300D01*
X125625800Y-77488300D01*
X125524200Y-77488300D01*
X124746400Y-77488300D01*
X119403600Y-77488300D01*
X118625800Y-77488300D01*
X118524200Y-77488300D01*
X117746400Y-77488300D01*
X103179042Y-77488300D01*
X102640776Y-76950034D01*
X101859308Y-76626340D01*
X101013452Y-76626340D01*
X100231984Y-76950034D01*
X99633874Y-77548144D01*
X99310180Y-78329612D01*
X99160919Y-78329612D01*
X99353195Y-77799903D01*
X99695350Y-77278031D01*
X100148378Y-76848874D01*
X100687989Y-76535443D01*
X101289203Y-76353353D01*
X101775875Y-76309919D01*
X118292173Y-76309919D01*
X118025013Y-76465670D01*
G04 #@! TD*
M02*
