G04 #@! TF.GenerationSoftware,KiCad,Pcbnew,5.0.2+dfsg1-1*
G04 #@! TF.CreationDate,2020-12-10T00:07:48-08:00*
G04 #@! TF.ProjectId,chronopy,6368726f-6e6f-4707-992e-6b696361645f,rev?*
G04 #@! TF.SameCoordinates,Original*
G04 #@! TF.FileFunction,Legend,Top*
G04 #@! TF.FilePolarity,Positive*
%FSLAX46Y46*%
G04 Gerber Fmt 4.6, Leading zero omitted, Abs format (unit mm)*
G04 Created by KiCad (PCBNEW 5.0.2+dfsg1-1) date Thu 10 Dec 2020 12:07:48 AM PST*
%MOMM*%
%LPD*%
G01*
G04 APERTURE LIST*
%ADD10C,0.120000*%
%ADD11C,0.101600*%
%ADD12C,0.063500*%
%ADD13C,0.127000*%
%ADD14C,0.200000*%
%ADD15C,0.150000*%
%ADD16C,0.152400*%
G04 APERTURE END LIST*
D10*
G04 #@! TO.C,SW1*
X141687354Y-110182319D02*
X142237354Y-110182319D01*
X142237354Y-110182319D02*
X142237354Y-112082319D01*
X142237354Y-112082319D02*
X141687354Y-112082319D01*
X141687354Y-109382319D02*
X141687354Y-112882319D01*
G04 #@! TO.C,SW3*
X98763354Y-85831319D02*
X98763354Y-82331319D01*
X98213354Y-83131319D02*
X98763354Y-83131319D01*
X98213354Y-85031319D02*
X98213354Y-83131319D01*
X98763354Y-85031319D02*
X98213354Y-85031319D01*
G04 #@! TO.C,SW2*
X98763354Y-112082319D02*
X98213354Y-112082319D01*
X98213354Y-112082319D02*
X98213354Y-110182319D01*
X98213354Y-110182319D02*
X98763354Y-110182319D01*
X98763354Y-112882319D02*
X98763354Y-109382319D01*
G04 #@! TO.C,SW4*
X141687354Y-82331319D02*
X141687354Y-85831319D01*
X142237354Y-85031319D02*
X141687354Y-85031319D01*
X142237354Y-83131319D02*
X142237354Y-85031319D01*
X141687354Y-83131319D02*
X142237354Y-83131319D01*
D11*
G04 #@! TO.C,U7*
X118632740Y-114916820D02*
G75*
G03X118632740Y-114916820I-154460J0D01*
G01*
D12*
X121842385Y-116560200D02*
G75*
G03X121842385Y-116560200I-316105J0D01*
G01*
X119216747Y-116560200D02*
G75*
G03X119216747Y-116560200I-387947J0D01*
G01*
D13*
X120916680Y-117738760D02*
X120916680Y-115381640D01*
X122067300Y-117738760D02*
X122067300Y-115381640D01*
X118130300Y-117738760D02*
X118130300Y-115381640D01*
X120916680Y-117738760D02*
X122067300Y-117738760D01*
X118130300Y-117738760D02*
X120916680Y-117738760D01*
X120916680Y-115381640D02*
X122067300Y-115381640D01*
X118130300Y-115381640D02*
X120916680Y-115381640D01*
G04 #@! TO.C,U6*
X106560435Y-114935873D02*
X106560435Y-117995873D01*
X110100435Y-117995873D02*
X110100435Y-114935873D01*
D14*
X107230435Y-114420873D02*
G75*
G03X107230435Y-114420873I-100000J0D01*
G01*
G04 #@! TO.C,SW1*
D15*
X138704020Y-108108080D02*
X138846877Y-108155699D01*
X139084973Y-108155699D01*
X139180211Y-108108080D01*
X139227830Y-108060461D01*
X139275449Y-107965223D01*
X139275449Y-107869985D01*
X139227830Y-107774747D01*
X139180211Y-107727128D01*
X139084973Y-107679509D01*
X138894496Y-107631890D01*
X138799258Y-107584271D01*
X138751639Y-107536652D01*
X138704020Y-107441414D01*
X138704020Y-107346176D01*
X138751639Y-107250938D01*
X138799258Y-107203319D01*
X138894496Y-107155699D01*
X139132592Y-107155699D01*
X139275449Y-107203319D01*
X139608782Y-107155699D02*
X139846877Y-108155699D01*
X140037354Y-107441414D01*
X140227830Y-108155699D01*
X140465925Y-107155699D01*
X141370687Y-108155699D02*
X140799258Y-108155699D01*
X141084973Y-108155699D02*
X141084973Y-107155699D01*
X140989734Y-107298557D01*
X140894496Y-107393795D01*
X140799258Y-107441414D01*
G04 #@! TO.C,SW3*
X99080020Y-88042080D02*
X99222877Y-88089699D01*
X99460973Y-88089699D01*
X99556211Y-88042080D01*
X99603830Y-87994461D01*
X99651449Y-87899223D01*
X99651449Y-87803985D01*
X99603830Y-87708747D01*
X99556211Y-87661128D01*
X99460973Y-87613509D01*
X99270496Y-87565890D01*
X99175258Y-87518271D01*
X99127639Y-87470652D01*
X99080020Y-87375414D01*
X99080020Y-87280176D01*
X99127639Y-87184938D01*
X99175258Y-87137319D01*
X99270496Y-87089699D01*
X99508592Y-87089699D01*
X99651449Y-87137319D01*
X99984782Y-87089699D02*
X100222877Y-88089699D01*
X100413354Y-87375414D01*
X100603830Y-88089699D01*
X100841925Y-87089699D01*
X101127639Y-87089699D02*
X101746687Y-87089699D01*
X101413354Y-87470652D01*
X101556211Y-87470652D01*
X101651449Y-87518271D01*
X101699068Y-87565890D01*
X101746687Y-87661128D01*
X101746687Y-87899223D01*
X101699068Y-87994461D01*
X101651449Y-88042080D01*
X101556211Y-88089699D01*
X101270496Y-88089699D01*
X101175258Y-88042080D01*
X101127639Y-87994461D01*
G04 #@! TO.C,SW2*
X99080020Y-108108080D02*
X99222877Y-108155699D01*
X99460973Y-108155699D01*
X99556211Y-108108080D01*
X99603830Y-108060461D01*
X99651449Y-107965223D01*
X99651449Y-107869985D01*
X99603830Y-107774747D01*
X99556211Y-107727128D01*
X99460973Y-107679509D01*
X99270496Y-107631890D01*
X99175258Y-107584271D01*
X99127639Y-107536652D01*
X99080020Y-107441414D01*
X99080020Y-107346176D01*
X99127639Y-107250938D01*
X99175258Y-107203319D01*
X99270496Y-107155699D01*
X99508592Y-107155699D01*
X99651449Y-107203319D01*
X99984782Y-107155699D02*
X100222877Y-108155699D01*
X100413354Y-107441414D01*
X100603830Y-108155699D01*
X100841925Y-107155699D01*
X101175258Y-107250938D02*
X101222877Y-107203319D01*
X101318115Y-107155699D01*
X101556211Y-107155699D01*
X101651449Y-107203319D01*
X101699068Y-107250938D01*
X101746687Y-107346176D01*
X101746687Y-107441414D01*
X101699068Y-107584271D01*
X101127639Y-108155699D01*
X101746687Y-108155699D01*
G04 #@! TO.C,SW4*
X138704020Y-88169080D02*
X138846877Y-88216699D01*
X139084973Y-88216699D01*
X139180211Y-88169080D01*
X139227830Y-88121461D01*
X139275449Y-88026223D01*
X139275449Y-87930985D01*
X139227830Y-87835747D01*
X139180211Y-87788128D01*
X139084973Y-87740509D01*
X138894496Y-87692890D01*
X138799258Y-87645271D01*
X138751639Y-87597652D01*
X138704020Y-87502414D01*
X138704020Y-87407176D01*
X138751639Y-87311938D01*
X138799258Y-87264319D01*
X138894496Y-87216699D01*
X139132592Y-87216699D01*
X139275449Y-87264319D01*
X139608782Y-87216699D02*
X139846877Y-88216699D01*
X140037354Y-87502414D01*
X140227830Y-88216699D01*
X140465925Y-87216699D01*
X141275449Y-87550033D02*
X141275449Y-88216699D01*
X141037354Y-87169080D02*
X140799258Y-87883366D01*
X141418306Y-87883366D01*
G04 #@! TO.C,U7*
D16*
X122560944Y-116016980D02*
X122560944Y-116531028D01*
X122591182Y-116591504D01*
X122621420Y-116621742D01*
X122681896Y-116651980D01*
X122802849Y-116651980D01*
X122863325Y-116621742D01*
X122893563Y-116591504D01*
X122923801Y-116531028D01*
X122923801Y-116016980D01*
X123165706Y-116016980D02*
X123589039Y-116016980D01*
X123316896Y-116651980D01*
G04 #@! TO.C,U6*
X110470544Y-116118580D02*
X110470544Y-116632628D01*
X110500782Y-116693104D01*
X110531020Y-116723342D01*
X110591496Y-116753580D01*
X110712449Y-116753580D01*
X110772925Y-116723342D01*
X110803163Y-116693104D01*
X110833401Y-116632628D01*
X110833401Y-116118580D01*
X111407925Y-116118580D02*
X111286973Y-116118580D01*
X111226496Y-116148819D01*
X111196258Y-116179057D01*
X111135782Y-116269771D01*
X111105544Y-116390723D01*
X111105544Y-116632628D01*
X111135782Y-116693104D01*
X111166020Y-116723342D01*
X111226496Y-116753580D01*
X111347449Y-116753580D01*
X111407925Y-116723342D01*
X111438163Y-116693104D01*
X111468401Y-116632628D01*
X111468401Y-116481438D01*
X111438163Y-116420961D01*
X111407925Y-116390723D01*
X111347449Y-116360485D01*
X111226496Y-116360485D01*
X111166020Y-116390723D01*
X111135782Y-116420961D01*
X111105544Y-116481438D01*
G04 #@! TD*
M02*
