G04 #@! TF.GenerationSoftware,KiCad,Pcbnew,5.0.2+dfsg1-1*
G04 #@! TF.CreationDate,2020-12-10T00:07:48-08:00*
G04 #@! TF.ProjectId,chronopy,6368726f-6e6f-4707-992e-6b696361645f,rev?*
G04 #@! TF.SameCoordinates,Original*
G04 #@! TF.FileFunction,Soldermask,Top*
G04 #@! TF.FilePolarity,Negative*
%FSLAX46Y46*%
G04 Gerber Fmt 4.6, Leading zero omitted, Abs format (unit mm)*
G04 Created by KiCad (PCBNEW 5.0.2+dfsg1-1) date Thu 10 Dec 2020 12:07:48 AM PST*
%MOMM*%
%LPD*%
G01*
G04 APERTURE LIST*
%ADD10C,0.100000*%
G04 APERTURE END LIST*
D10*
G36*
X109825835Y-117941273D02*
X109275035Y-117941273D01*
X109275035Y-117390473D01*
X109825835Y-117390473D01*
X109825835Y-117941273D01*
X109825835Y-117941273D01*
G37*
G36*
X109005835Y-117941273D02*
X106855035Y-117941273D01*
X106855035Y-117390473D01*
X109005835Y-117390473D01*
X109005835Y-117941273D01*
X109005835Y-117941273D01*
G37*
G36*
X139372376Y-114836938D02*
X139372379Y-114836939D01*
X139372378Y-114836939D01*
X139640884Y-114948157D01*
X139640885Y-114948158D01*
X139882536Y-115109624D01*
X140088036Y-115315124D01*
X140088038Y-115315127D01*
X140249503Y-115556776D01*
X140335526Y-115764454D01*
X140360722Y-115825284D01*
X140417420Y-116110324D01*
X140417420Y-116400956D01*
X140360722Y-116685996D01*
X140360721Y-116685998D01*
X140249503Y-116954504D01*
X140249502Y-116954505D01*
X140088036Y-117196156D01*
X139882536Y-117401656D01*
X139882533Y-117401658D01*
X139640884Y-117563123D01*
X139433206Y-117649146D01*
X139372376Y-117674342D01*
X139087336Y-117731040D01*
X138796704Y-117731040D01*
X138511664Y-117674342D01*
X138450834Y-117649146D01*
X138243156Y-117563123D01*
X138001507Y-117401658D01*
X138001504Y-117401656D01*
X137796004Y-117196156D01*
X137634538Y-116954505D01*
X137634537Y-116954504D01*
X137523319Y-116685998D01*
X137523318Y-116685996D01*
X137466620Y-116400956D01*
X137466620Y-116110324D01*
X137523318Y-115825284D01*
X137548514Y-115764454D01*
X137634537Y-115556776D01*
X137796002Y-115315127D01*
X137796004Y-115315124D01*
X138001504Y-115109624D01*
X138243155Y-114948158D01*
X138243156Y-114948157D01*
X138511662Y-114836939D01*
X138511661Y-114836939D01*
X138511664Y-114836938D01*
X138796704Y-114780240D01*
X139087336Y-114780240D01*
X139372376Y-114836938D01*
X139372376Y-114836938D01*
G37*
G36*
X101874356Y-114834398D02*
X101935186Y-114859594D01*
X102142864Y-114945617D01*
X102381255Y-115104905D01*
X102384516Y-115107084D01*
X102590016Y-115312584D01*
X102590018Y-115312587D01*
X102751483Y-115554236D01*
X102752535Y-115556776D01*
X102862702Y-115822744D01*
X102919400Y-116107784D01*
X102919400Y-116398416D01*
X102862702Y-116683456D01*
X102862701Y-116683458D01*
X102751483Y-116951964D01*
X102749785Y-116954505D01*
X102590016Y-117193616D01*
X102384516Y-117399116D01*
X102384513Y-117399118D01*
X102142864Y-117560583D01*
X101935186Y-117646606D01*
X101874356Y-117671802D01*
X101589316Y-117728500D01*
X101298684Y-117728500D01*
X101013644Y-117671802D01*
X100952814Y-117646606D01*
X100745136Y-117560583D01*
X100503487Y-117399118D01*
X100503484Y-117399116D01*
X100297984Y-117193616D01*
X100138215Y-116954505D01*
X100136517Y-116951964D01*
X100025299Y-116683458D01*
X100025298Y-116683456D01*
X99968600Y-116398416D01*
X99968600Y-116107784D01*
X100025298Y-115822744D01*
X100135465Y-115556776D01*
X100136517Y-115554236D01*
X100297982Y-115312587D01*
X100297984Y-115312584D01*
X100503484Y-115107084D01*
X100506745Y-115104905D01*
X100745136Y-114945617D01*
X100952814Y-114859594D01*
X101013644Y-114834398D01*
X101298684Y-114777700D01*
X101589316Y-114777700D01*
X101874356Y-114834398D01*
X101874356Y-114834398D01*
G37*
G36*
X121936490Y-117583820D02*
X118261110Y-117583820D01*
X118261110Y-116933580D01*
X121936490Y-116933580D01*
X121936490Y-117583820D01*
X121936490Y-117583820D01*
G37*
G36*
X121936490Y-116186820D02*
X118261110Y-116186820D01*
X118261110Y-115536580D01*
X121936490Y-115536580D01*
X121936490Y-116186820D01*
X121936490Y-116186820D01*
G37*
G36*
X109805835Y-115541273D02*
X106855035Y-115541273D01*
X106855035Y-114990473D01*
X109805835Y-114990473D01*
X109805835Y-115541273D01*
X109805835Y-115541273D01*
G37*
G36*
X102238754Y-112757719D02*
X100746426Y-112757719D01*
X100722040Y-112760121D01*
X100698591Y-112767234D01*
X100676980Y-112778785D01*
X100658038Y-112794331D01*
X100642492Y-112813273D01*
X100630941Y-112834884D01*
X100623828Y-112858333D01*
X100621426Y-112882719D01*
X100623828Y-112907105D01*
X100630941Y-112930554D01*
X100642492Y-112952165D01*
X100658038Y-112971107D01*
X100704946Y-113018015D01*
X100746029Y-113079500D01*
X100774328Y-113147819D01*
X100788754Y-113220344D01*
X100788754Y-113294294D01*
X100774328Y-113366819D01*
X100746029Y-113435138D01*
X100704946Y-113496623D01*
X100652658Y-113548911D01*
X100591173Y-113589994D01*
X100522854Y-113618293D01*
X100450329Y-113632719D01*
X100376379Y-113632719D01*
X100303854Y-113618293D01*
X100235535Y-113589994D01*
X100174050Y-113548911D01*
X100121762Y-113496623D01*
X100080679Y-113435138D01*
X100079239Y-113431662D01*
X100067688Y-113410051D01*
X100052143Y-113391109D01*
X100033201Y-113375564D01*
X100011590Y-113364012D01*
X99988141Y-113356899D01*
X99963755Y-113354497D01*
X99939368Y-113356899D01*
X99915919Y-113364012D01*
X99894308Y-113375563D01*
X99875366Y-113391108D01*
X99859821Y-113410050D01*
X99848269Y-113431661D01*
X99841156Y-113455110D01*
X99838754Y-113479497D01*
X99838754Y-113657719D01*
X98887954Y-113657719D01*
X98887954Y-112306919D01*
X99838754Y-112306919D01*
X99838754Y-113035141D01*
X99841156Y-113059527D01*
X99848269Y-113082976D01*
X99859820Y-113104587D01*
X99875366Y-113123529D01*
X99894308Y-113139075D01*
X99915919Y-113150626D01*
X99939368Y-113157739D01*
X99963754Y-113160141D01*
X99988140Y-113157739D01*
X100011589Y-113150626D01*
X100033200Y-113139075D01*
X100052142Y-113123529D01*
X100067688Y-113104587D01*
X100079239Y-113082976D01*
X100080679Y-113079500D01*
X100121762Y-113018015D01*
X100174050Y-112965727D01*
X100235535Y-112924644D01*
X100310789Y-112893473D01*
X100332400Y-112881922D01*
X100351342Y-112866377D01*
X100366887Y-112847435D01*
X100378439Y-112825824D01*
X100385552Y-112802375D01*
X100387954Y-112777988D01*
X100387954Y-111956919D01*
X102238754Y-111956919D01*
X102238754Y-112757719D01*
X102238754Y-112757719D01*
G37*
G36*
X140062754Y-112777988D02*
X140065156Y-112802374D01*
X140072269Y-112825823D01*
X140083820Y-112847434D01*
X140099366Y-112866376D01*
X140118308Y-112881922D01*
X140139919Y-112893473D01*
X140215173Y-112924644D01*
X140276658Y-112965727D01*
X140328946Y-113018015D01*
X140370029Y-113079500D01*
X140371469Y-113082976D01*
X140383020Y-113104587D01*
X140398565Y-113123529D01*
X140417507Y-113139074D01*
X140439118Y-113150626D01*
X140462567Y-113157739D01*
X140486953Y-113160141D01*
X140511340Y-113157739D01*
X140534789Y-113150626D01*
X140556400Y-113139075D01*
X140575342Y-113123530D01*
X140590887Y-113104588D01*
X140602439Y-113082977D01*
X140609552Y-113059528D01*
X140611954Y-113035141D01*
X140611954Y-112306919D01*
X141562754Y-112306919D01*
X141562754Y-113657719D01*
X140611954Y-113657719D01*
X140611954Y-113479497D01*
X140609552Y-113455111D01*
X140602439Y-113431662D01*
X140590888Y-113410051D01*
X140575342Y-113391109D01*
X140556400Y-113375563D01*
X140534789Y-113364012D01*
X140511340Y-113356899D01*
X140486954Y-113354497D01*
X140462568Y-113356899D01*
X140439119Y-113364012D01*
X140417508Y-113375563D01*
X140398566Y-113391109D01*
X140383020Y-113410051D01*
X140371469Y-113431662D01*
X140370029Y-113435138D01*
X140328946Y-113496623D01*
X140276658Y-113548911D01*
X140215173Y-113589994D01*
X140146854Y-113618293D01*
X140074329Y-113632719D01*
X140000379Y-113632719D01*
X139927854Y-113618293D01*
X139859535Y-113589994D01*
X139798050Y-113548911D01*
X139745762Y-113496623D01*
X139704679Y-113435138D01*
X139676380Y-113366819D01*
X139661954Y-113294294D01*
X139661954Y-113220344D01*
X139676380Y-113147819D01*
X139704679Y-113079500D01*
X139745762Y-113018015D01*
X139792670Y-112971107D01*
X139808216Y-112952165D01*
X139819767Y-112930554D01*
X139826880Y-112907105D01*
X139829282Y-112882719D01*
X139826880Y-112858333D01*
X139819767Y-112834884D01*
X139808216Y-112813273D01*
X139792670Y-112794331D01*
X139773728Y-112778785D01*
X139752117Y-112767234D01*
X139728668Y-112760121D01*
X139704282Y-112757719D01*
X138211954Y-112757719D01*
X138211954Y-111956919D01*
X140062754Y-111956919D01*
X140062754Y-112777988D01*
X140062754Y-112777988D01*
G37*
G36*
X102238754Y-111457719D02*
X100387954Y-111457719D01*
X100387954Y-110806919D01*
X102238754Y-110806919D01*
X102238754Y-111457719D01*
X102238754Y-111457719D01*
G37*
G36*
X140062754Y-111457719D02*
X138211954Y-111457719D01*
X138211954Y-110806919D01*
X140062754Y-110806919D01*
X140062754Y-111457719D01*
X140062754Y-111457719D01*
G37*
G36*
X99838754Y-108785141D02*
X99841156Y-108809527D01*
X99848269Y-108832976D01*
X99859820Y-108854587D01*
X99875366Y-108873529D01*
X99894308Y-108889075D01*
X99915919Y-108900626D01*
X99939368Y-108907739D01*
X99963754Y-108910141D01*
X99988140Y-108907739D01*
X100011589Y-108900626D01*
X100033200Y-108889075D01*
X100052142Y-108873529D01*
X100067688Y-108854587D01*
X100079239Y-108832976D01*
X100080679Y-108829500D01*
X100121762Y-108768015D01*
X100174050Y-108715727D01*
X100235535Y-108674644D01*
X100303854Y-108646345D01*
X100376379Y-108631919D01*
X100450329Y-108631919D01*
X100522854Y-108646345D01*
X100591173Y-108674644D01*
X100652658Y-108715727D01*
X100704946Y-108768015D01*
X100746029Y-108829500D01*
X100774328Y-108897819D01*
X100788754Y-108970344D01*
X100788754Y-109044294D01*
X100774328Y-109116819D01*
X100746029Y-109185138D01*
X100704946Y-109246623D01*
X100658038Y-109293531D01*
X100642492Y-109312473D01*
X100630941Y-109334084D01*
X100623828Y-109357533D01*
X100621426Y-109381919D01*
X100623828Y-109406305D01*
X100630941Y-109429754D01*
X100642492Y-109451365D01*
X100658038Y-109470307D01*
X100676980Y-109485853D01*
X100698591Y-109497404D01*
X100722040Y-109504517D01*
X100746426Y-109506919D01*
X102238754Y-109506919D01*
X102238754Y-110307719D01*
X100387954Y-110307719D01*
X100387954Y-109486650D01*
X100385552Y-109462264D01*
X100378439Y-109438815D01*
X100366888Y-109417204D01*
X100351342Y-109398262D01*
X100332400Y-109382716D01*
X100310789Y-109371165D01*
X100235535Y-109339994D01*
X100174050Y-109298911D01*
X100121762Y-109246623D01*
X100080679Y-109185138D01*
X100079239Y-109181662D01*
X100067688Y-109160051D01*
X100052143Y-109141109D01*
X100033201Y-109125564D01*
X100011590Y-109114012D01*
X99988141Y-109106899D01*
X99963755Y-109104497D01*
X99939368Y-109106899D01*
X99915919Y-109114012D01*
X99894308Y-109125563D01*
X99875366Y-109141108D01*
X99859821Y-109160050D01*
X99848269Y-109181661D01*
X99841156Y-109205110D01*
X99838754Y-109229497D01*
X99838754Y-109957719D01*
X98887954Y-109957719D01*
X98887954Y-108606919D01*
X99838754Y-108606919D01*
X99838754Y-108785141D01*
X99838754Y-108785141D01*
G37*
G36*
X141562754Y-109957719D02*
X140611954Y-109957719D01*
X140611954Y-109229497D01*
X140609552Y-109205111D01*
X140602439Y-109181662D01*
X140590888Y-109160051D01*
X140575342Y-109141109D01*
X140556400Y-109125563D01*
X140534789Y-109114012D01*
X140511340Y-109106899D01*
X140486954Y-109104497D01*
X140462568Y-109106899D01*
X140439119Y-109114012D01*
X140417508Y-109125563D01*
X140398566Y-109141109D01*
X140383020Y-109160051D01*
X140371469Y-109181662D01*
X140370029Y-109185138D01*
X140328946Y-109246623D01*
X140276658Y-109298911D01*
X140215173Y-109339994D01*
X140139919Y-109371165D01*
X140118308Y-109382716D01*
X140099366Y-109398261D01*
X140083821Y-109417203D01*
X140072269Y-109438814D01*
X140065156Y-109462263D01*
X140062754Y-109486650D01*
X140062754Y-110307719D01*
X138211954Y-110307719D01*
X138211954Y-109506919D01*
X139704282Y-109506919D01*
X139728668Y-109504517D01*
X139752117Y-109497404D01*
X139773728Y-109485853D01*
X139792670Y-109470307D01*
X139808216Y-109451365D01*
X139819767Y-109429754D01*
X139826880Y-109406305D01*
X139829282Y-109381919D01*
X139826880Y-109357533D01*
X139819767Y-109334084D01*
X139808216Y-109312473D01*
X139792670Y-109293531D01*
X139745762Y-109246623D01*
X139704679Y-109185138D01*
X139676380Y-109116819D01*
X139661954Y-109044294D01*
X139661954Y-108970344D01*
X139676380Y-108897819D01*
X139704679Y-108829500D01*
X139745762Y-108768015D01*
X139798050Y-108715727D01*
X139859535Y-108674644D01*
X139927854Y-108646345D01*
X140000379Y-108631919D01*
X140074329Y-108631919D01*
X140146854Y-108646345D01*
X140215173Y-108674644D01*
X140276658Y-108715727D01*
X140328946Y-108768015D01*
X140370029Y-108829500D01*
X140371469Y-108832976D01*
X140383020Y-108854587D01*
X140398565Y-108873529D01*
X140417507Y-108889074D01*
X140439118Y-108900626D01*
X140462567Y-108907739D01*
X140486953Y-108910141D01*
X140511340Y-108907739D01*
X140534789Y-108900626D01*
X140556400Y-108889075D01*
X140575342Y-108873530D01*
X140590887Y-108854588D01*
X140602439Y-108832977D01*
X140609552Y-108809528D01*
X140611954Y-108785141D01*
X140611954Y-108606919D01*
X141562754Y-108606919D01*
X141562754Y-109957719D01*
X141562754Y-109957719D01*
G37*
G36*
X139376439Y-104417267D02*
X139453856Y-104449335D01*
X139523531Y-104495890D01*
X139582783Y-104555142D01*
X139629338Y-104624817D01*
X139661406Y-104702234D01*
X139677754Y-104784421D01*
X139677754Y-104868217D01*
X139661406Y-104950404D01*
X139629338Y-105027821D01*
X139582783Y-105097496D01*
X139523531Y-105156748D01*
X139453856Y-105203303D01*
X139376439Y-105235371D01*
X139294252Y-105251719D01*
X139210456Y-105251719D01*
X139128269Y-105235371D01*
X139050852Y-105203303D01*
X138981177Y-105156748D01*
X138921925Y-105097496D01*
X138875370Y-105027821D01*
X138843302Y-104950404D01*
X138826954Y-104868217D01*
X138826954Y-104784421D01*
X138843302Y-104702234D01*
X138875370Y-104624817D01*
X138921925Y-104555142D01*
X138981177Y-104495890D01*
X139050852Y-104449335D01*
X139128269Y-104417267D01*
X139210456Y-104400919D01*
X139294252Y-104400919D01*
X139376439Y-104417267D01*
X139376439Y-104417267D01*
G37*
G36*
X101430956Y-94007121D02*
X101469549Y-94010922D01*
X101519068Y-94025943D01*
X101568589Y-94040965D01*
X101617376Y-94067043D01*
X101659862Y-94089752D01*
X101659864Y-94089753D01*
X101659863Y-94089753D01*
X101739865Y-94155408D01*
X101805520Y-94235410D01*
X101854308Y-94326684D01*
X101859245Y-94342961D01*
X101866536Y-94366995D01*
X101875913Y-94389632D01*
X101889526Y-94410007D01*
X101906853Y-94427334D01*
X101927228Y-94440948D01*
X101949867Y-94450325D01*
X101973900Y-94455106D01*
X101998404Y-94455106D01*
X102022438Y-94450326D01*
X102045077Y-94440948D01*
X102065452Y-94427335D01*
X102082779Y-94410008D01*
X102096393Y-94389633D01*
X102105770Y-94366994D01*
X102110551Y-94342961D01*
X102111153Y-94330708D01*
X102111153Y-94003320D01*
X103161953Y-94003320D01*
X103161953Y-95054120D01*
X102834565Y-95054120D01*
X102810179Y-95056522D01*
X102786730Y-95063635D01*
X102765119Y-95075186D01*
X102746177Y-95090732D01*
X102730631Y-95109674D01*
X102719080Y-95131285D01*
X102711967Y-95154734D01*
X102709565Y-95179120D01*
X102711967Y-95203506D01*
X102719080Y-95226955D01*
X102730631Y-95248566D01*
X102746177Y-95267508D01*
X102765119Y-95283054D01*
X102786730Y-95294605D01*
X102798276Y-95298736D01*
X102815925Y-95304090D01*
X102838589Y-95310965D01*
X102887376Y-95337043D01*
X102929862Y-95359752D01*
X102929864Y-95359753D01*
X102929863Y-95359753D01*
X103009865Y-95425408D01*
X103075520Y-95505410D01*
X103124308Y-95596684D01*
X103124308Y-95596685D01*
X103154351Y-95695724D01*
X103164495Y-95798720D01*
X103155797Y-95887039D01*
X103154351Y-95901715D01*
X103124308Y-96000756D01*
X103075520Y-96092030D01*
X103009865Y-96172032D01*
X102937035Y-96231801D01*
X102929862Y-96237688D01*
X102887376Y-96260397D01*
X102838589Y-96286475D01*
X102802519Y-96297416D01*
X102747508Y-96314104D01*
X102724873Y-96323480D01*
X102704498Y-96337093D01*
X102687171Y-96354420D01*
X102673557Y-96374795D01*
X102664180Y-96397434D01*
X102659399Y-96421467D01*
X102659399Y-96445971D01*
X102664179Y-96470005D01*
X102673557Y-96492644D01*
X102687170Y-96513019D01*
X102704497Y-96530346D01*
X102724872Y-96543960D01*
X102747508Y-96553336D01*
X102802519Y-96570024D01*
X102838589Y-96580965D01*
X102887376Y-96607043D01*
X102929862Y-96629752D01*
X102929864Y-96629753D01*
X102929863Y-96629753D01*
X103009865Y-96695408D01*
X103075520Y-96775410D01*
X103124308Y-96866684D01*
X103124308Y-96866685D01*
X103154351Y-96965724D01*
X103164495Y-97068720D01*
X103155797Y-97157039D01*
X103154351Y-97171715D01*
X103124308Y-97270756D01*
X103075520Y-97362030D01*
X103009865Y-97442032D01*
X102937035Y-97501801D01*
X102929862Y-97507688D01*
X102887376Y-97530397D01*
X102838589Y-97556475D01*
X102802519Y-97567416D01*
X102747508Y-97584104D01*
X102724873Y-97593480D01*
X102704498Y-97607093D01*
X102687171Y-97624420D01*
X102673557Y-97644795D01*
X102664180Y-97667434D01*
X102659399Y-97691467D01*
X102659399Y-97715971D01*
X102664179Y-97740005D01*
X102673557Y-97762644D01*
X102687170Y-97783019D01*
X102704497Y-97800346D01*
X102724872Y-97813960D01*
X102747508Y-97823336D01*
X102802519Y-97840024D01*
X102838589Y-97850965D01*
X102887376Y-97877043D01*
X102929862Y-97899752D01*
X102929864Y-97899753D01*
X102929863Y-97899753D01*
X103009865Y-97965408D01*
X103075520Y-98045410D01*
X103124308Y-98136684D01*
X103124308Y-98136685D01*
X103154351Y-98235724D01*
X103164495Y-98338720D01*
X103155797Y-98427039D01*
X103154351Y-98441715D01*
X103124308Y-98540756D01*
X103075520Y-98632030D01*
X103009865Y-98712032D01*
X102937036Y-98771801D01*
X102929862Y-98777688D01*
X102887376Y-98800397D01*
X102838589Y-98826475D01*
X102802519Y-98837416D01*
X102747508Y-98854104D01*
X102724873Y-98863480D01*
X102704498Y-98877093D01*
X102687171Y-98894420D01*
X102673557Y-98914795D01*
X102664180Y-98937434D01*
X102659399Y-98961467D01*
X102659399Y-98985971D01*
X102664179Y-99010005D01*
X102673557Y-99032644D01*
X102687170Y-99053019D01*
X102704497Y-99070346D01*
X102724872Y-99083960D01*
X102747508Y-99093336D01*
X102802519Y-99110024D01*
X102838589Y-99120965D01*
X102887376Y-99147043D01*
X102929862Y-99169752D01*
X102929864Y-99169753D01*
X102929863Y-99169753D01*
X103009865Y-99235408D01*
X103075520Y-99315410D01*
X103124308Y-99406684D01*
X103124308Y-99406685D01*
X103154351Y-99505724D01*
X103164495Y-99608720D01*
X103155797Y-99697039D01*
X103154351Y-99711715D01*
X103124308Y-99810756D01*
X103075520Y-99902030D01*
X103009865Y-99982032D01*
X102937036Y-100041801D01*
X102929862Y-100047688D01*
X102887376Y-100070397D01*
X102838589Y-100096475D01*
X102789069Y-100111496D01*
X102739549Y-100126518D01*
X102700956Y-100130319D01*
X102662364Y-100134120D01*
X102610742Y-100134120D01*
X102572150Y-100130319D01*
X102533557Y-100126518D01*
X102484037Y-100111496D01*
X102434517Y-100096475D01*
X102385730Y-100070397D01*
X102343244Y-100047688D01*
X102336070Y-100041801D01*
X102263241Y-99982032D01*
X102197586Y-99902030D01*
X102148798Y-99810756D01*
X102121171Y-99719679D01*
X102111793Y-99697040D01*
X102098180Y-99676665D01*
X102080853Y-99659338D01*
X102060478Y-99645724D01*
X102037839Y-99636347D01*
X102013806Y-99631566D01*
X101989302Y-99631566D01*
X101965268Y-99636346D01*
X101942629Y-99645724D01*
X101922254Y-99659337D01*
X101904927Y-99676664D01*
X101891313Y-99697039D01*
X101881935Y-99719679D01*
X101854308Y-99810756D01*
X101805520Y-99902030D01*
X101739865Y-99982032D01*
X101667036Y-100041801D01*
X101659862Y-100047688D01*
X101617376Y-100070397D01*
X101568589Y-100096475D01*
X101519069Y-100111496D01*
X101469549Y-100126518D01*
X101430956Y-100130319D01*
X101392364Y-100134120D01*
X101340742Y-100134120D01*
X101302150Y-100130319D01*
X101263557Y-100126518D01*
X101214037Y-100111496D01*
X101164517Y-100096475D01*
X101115730Y-100070397D01*
X101073244Y-100047688D01*
X101066070Y-100041801D01*
X100993241Y-99982032D01*
X100927586Y-99902030D01*
X100878798Y-99810756D01*
X100848755Y-99711715D01*
X100847310Y-99697039D01*
X100838611Y-99608720D01*
X100848755Y-99505724D01*
X100878798Y-99406685D01*
X100878798Y-99406684D01*
X100927586Y-99315410D01*
X100993241Y-99235408D01*
X101073243Y-99169753D01*
X101073242Y-99169753D01*
X101073244Y-99169752D01*
X101115730Y-99147043D01*
X101164517Y-99120965D01*
X101200587Y-99110024D01*
X101255598Y-99093336D01*
X101278233Y-99083960D01*
X101298608Y-99070347D01*
X101315935Y-99053020D01*
X101329549Y-99032645D01*
X101338926Y-99010006D01*
X101343707Y-98985973D01*
X101343707Y-98961469D01*
X101343707Y-98961467D01*
X101389399Y-98961467D01*
X101389399Y-98985971D01*
X101394179Y-99010005D01*
X101403557Y-99032644D01*
X101417170Y-99053019D01*
X101434497Y-99070346D01*
X101454872Y-99083960D01*
X101477508Y-99093336D01*
X101532519Y-99110024D01*
X101568589Y-99120965D01*
X101617376Y-99147043D01*
X101659862Y-99169752D01*
X101659864Y-99169753D01*
X101659863Y-99169753D01*
X101739865Y-99235408D01*
X101805520Y-99315410D01*
X101854308Y-99406684D01*
X101881935Y-99497761D01*
X101891313Y-99520400D01*
X101904926Y-99540775D01*
X101922253Y-99558102D01*
X101942628Y-99571716D01*
X101965267Y-99581093D01*
X101989300Y-99585874D01*
X102013804Y-99585874D01*
X102037838Y-99581094D01*
X102060477Y-99571716D01*
X102080852Y-99558103D01*
X102098179Y-99540776D01*
X102111793Y-99520401D01*
X102121171Y-99497761D01*
X102148798Y-99406684D01*
X102197586Y-99315410D01*
X102263241Y-99235408D01*
X102343243Y-99169753D01*
X102343242Y-99169753D01*
X102343244Y-99169752D01*
X102385730Y-99147043D01*
X102434517Y-99120965D01*
X102470587Y-99110024D01*
X102525598Y-99093336D01*
X102548233Y-99083960D01*
X102568608Y-99070347D01*
X102585935Y-99053020D01*
X102599549Y-99032645D01*
X102608926Y-99010006D01*
X102613707Y-98985973D01*
X102613707Y-98961469D01*
X102608927Y-98937435D01*
X102599549Y-98914796D01*
X102585936Y-98894421D01*
X102568609Y-98877094D01*
X102548234Y-98863480D01*
X102525598Y-98854104D01*
X102470587Y-98837416D01*
X102434517Y-98826475D01*
X102385730Y-98800397D01*
X102343244Y-98777688D01*
X102336070Y-98771801D01*
X102263241Y-98712032D01*
X102197586Y-98632030D01*
X102148798Y-98540756D01*
X102121171Y-98449679D01*
X102111793Y-98427040D01*
X102098180Y-98406665D01*
X102080853Y-98389338D01*
X102060478Y-98375724D01*
X102037839Y-98366347D01*
X102013806Y-98361566D01*
X101989302Y-98361566D01*
X101965268Y-98366346D01*
X101942629Y-98375724D01*
X101922254Y-98389337D01*
X101904927Y-98406664D01*
X101891313Y-98427039D01*
X101881935Y-98449679D01*
X101854308Y-98540756D01*
X101805520Y-98632030D01*
X101739865Y-98712032D01*
X101667036Y-98771801D01*
X101659862Y-98777688D01*
X101617376Y-98800397D01*
X101568589Y-98826475D01*
X101532519Y-98837416D01*
X101477508Y-98854104D01*
X101454873Y-98863480D01*
X101434498Y-98877093D01*
X101417171Y-98894420D01*
X101403557Y-98914795D01*
X101394180Y-98937434D01*
X101389399Y-98961467D01*
X101343707Y-98961467D01*
X101338927Y-98937435D01*
X101329549Y-98914796D01*
X101315936Y-98894421D01*
X101298609Y-98877094D01*
X101278234Y-98863480D01*
X101255598Y-98854104D01*
X101200587Y-98837416D01*
X101164517Y-98826475D01*
X101115730Y-98800397D01*
X101073244Y-98777688D01*
X101066070Y-98771801D01*
X100993241Y-98712032D01*
X100927586Y-98632030D01*
X100878798Y-98540756D01*
X100848755Y-98441715D01*
X100847310Y-98427039D01*
X100838611Y-98338720D01*
X100848755Y-98235724D01*
X100878798Y-98136685D01*
X100878798Y-98136684D01*
X100927586Y-98045410D01*
X100993241Y-97965408D01*
X101073243Y-97899753D01*
X101073242Y-97899753D01*
X101073244Y-97899752D01*
X101115730Y-97877043D01*
X101164517Y-97850965D01*
X101200587Y-97840024D01*
X101255598Y-97823336D01*
X101278233Y-97813960D01*
X101298608Y-97800347D01*
X101315935Y-97783020D01*
X101329549Y-97762645D01*
X101338926Y-97740006D01*
X101343707Y-97715973D01*
X101343707Y-97691469D01*
X101343707Y-97691467D01*
X101389399Y-97691467D01*
X101389399Y-97715971D01*
X101394179Y-97740005D01*
X101403557Y-97762644D01*
X101417170Y-97783019D01*
X101434497Y-97800346D01*
X101454872Y-97813960D01*
X101477508Y-97823336D01*
X101532519Y-97840024D01*
X101568589Y-97850965D01*
X101617376Y-97877043D01*
X101659862Y-97899752D01*
X101659864Y-97899753D01*
X101659863Y-97899753D01*
X101739865Y-97965408D01*
X101805520Y-98045410D01*
X101854308Y-98136684D01*
X101881935Y-98227761D01*
X101891313Y-98250400D01*
X101904926Y-98270775D01*
X101922253Y-98288102D01*
X101942628Y-98301716D01*
X101965267Y-98311093D01*
X101989300Y-98315874D01*
X102013804Y-98315874D01*
X102037838Y-98311094D01*
X102060477Y-98301716D01*
X102080852Y-98288103D01*
X102098179Y-98270776D01*
X102111793Y-98250401D01*
X102121171Y-98227761D01*
X102148798Y-98136684D01*
X102197586Y-98045410D01*
X102263241Y-97965408D01*
X102343243Y-97899753D01*
X102343242Y-97899753D01*
X102343244Y-97899752D01*
X102385730Y-97877043D01*
X102434517Y-97850965D01*
X102470587Y-97840024D01*
X102525598Y-97823336D01*
X102548233Y-97813960D01*
X102568608Y-97800347D01*
X102585935Y-97783020D01*
X102599549Y-97762645D01*
X102608926Y-97740006D01*
X102613707Y-97715973D01*
X102613707Y-97691469D01*
X102608927Y-97667435D01*
X102599549Y-97644796D01*
X102585936Y-97624421D01*
X102568609Y-97607094D01*
X102548234Y-97593480D01*
X102525598Y-97584104D01*
X102470587Y-97567416D01*
X102434517Y-97556475D01*
X102385730Y-97530397D01*
X102343244Y-97507688D01*
X102336071Y-97501801D01*
X102263241Y-97442032D01*
X102197586Y-97362030D01*
X102148798Y-97270756D01*
X102121171Y-97179679D01*
X102111793Y-97157040D01*
X102098180Y-97136665D01*
X102080853Y-97119338D01*
X102060478Y-97105724D01*
X102037839Y-97096347D01*
X102013806Y-97091566D01*
X101989302Y-97091566D01*
X101965268Y-97096346D01*
X101942629Y-97105724D01*
X101922254Y-97119337D01*
X101904927Y-97136664D01*
X101891313Y-97157039D01*
X101881935Y-97179679D01*
X101854308Y-97270756D01*
X101805520Y-97362030D01*
X101739865Y-97442032D01*
X101667035Y-97501801D01*
X101659862Y-97507688D01*
X101617376Y-97530397D01*
X101568589Y-97556475D01*
X101532519Y-97567416D01*
X101477508Y-97584104D01*
X101454873Y-97593480D01*
X101434498Y-97607093D01*
X101417171Y-97624420D01*
X101403557Y-97644795D01*
X101394180Y-97667434D01*
X101389399Y-97691467D01*
X101343707Y-97691467D01*
X101338927Y-97667435D01*
X101329549Y-97644796D01*
X101315936Y-97624421D01*
X101298609Y-97607094D01*
X101278234Y-97593480D01*
X101255598Y-97584104D01*
X101200587Y-97567416D01*
X101164517Y-97556475D01*
X101115730Y-97530397D01*
X101073244Y-97507688D01*
X101066071Y-97501801D01*
X100993241Y-97442032D01*
X100927586Y-97362030D01*
X100878798Y-97270756D01*
X100848755Y-97171715D01*
X100847310Y-97157039D01*
X100838611Y-97068720D01*
X100848755Y-96965724D01*
X100878798Y-96866685D01*
X100878798Y-96866684D01*
X100927586Y-96775410D01*
X100993241Y-96695408D01*
X101073243Y-96629753D01*
X101073242Y-96629753D01*
X101073244Y-96629752D01*
X101115730Y-96607043D01*
X101164517Y-96580965D01*
X101200587Y-96570024D01*
X101255598Y-96553336D01*
X101278233Y-96543960D01*
X101298608Y-96530347D01*
X101315935Y-96513020D01*
X101329549Y-96492645D01*
X101338926Y-96470006D01*
X101343707Y-96445973D01*
X101343707Y-96421469D01*
X101343707Y-96421467D01*
X101389399Y-96421467D01*
X101389399Y-96445971D01*
X101394179Y-96470005D01*
X101403557Y-96492644D01*
X101417170Y-96513019D01*
X101434497Y-96530346D01*
X101454872Y-96543960D01*
X101477508Y-96553336D01*
X101532519Y-96570024D01*
X101568589Y-96580965D01*
X101617376Y-96607043D01*
X101659862Y-96629752D01*
X101659864Y-96629753D01*
X101659863Y-96629753D01*
X101739865Y-96695408D01*
X101805520Y-96775410D01*
X101854308Y-96866684D01*
X101881935Y-96957761D01*
X101891313Y-96980400D01*
X101904926Y-97000775D01*
X101922253Y-97018102D01*
X101942628Y-97031716D01*
X101965267Y-97041093D01*
X101989300Y-97045874D01*
X102013804Y-97045874D01*
X102037838Y-97041094D01*
X102060477Y-97031716D01*
X102080852Y-97018103D01*
X102098179Y-97000776D01*
X102111793Y-96980401D01*
X102121171Y-96957761D01*
X102148798Y-96866684D01*
X102197586Y-96775410D01*
X102263241Y-96695408D01*
X102343243Y-96629753D01*
X102343242Y-96629753D01*
X102343244Y-96629752D01*
X102385730Y-96607043D01*
X102434517Y-96580965D01*
X102470587Y-96570024D01*
X102525598Y-96553336D01*
X102548233Y-96543960D01*
X102568608Y-96530347D01*
X102585935Y-96513020D01*
X102599549Y-96492645D01*
X102608926Y-96470006D01*
X102613707Y-96445973D01*
X102613707Y-96421469D01*
X102608927Y-96397435D01*
X102599549Y-96374796D01*
X102585936Y-96354421D01*
X102568609Y-96337094D01*
X102548234Y-96323480D01*
X102525598Y-96314104D01*
X102470587Y-96297416D01*
X102434517Y-96286475D01*
X102385730Y-96260397D01*
X102343244Y-96237688D01*
X102336071Y-96231801D01*
X102263241Y-96172032D01*
X102197586Y-96092030D01*
X102148798Y-96000756D01*
X102121171Y-95909679D01*
X102111793Y-95887040D01*
X102098180Y-95866665D01*
X102080853Y-95849338D01*
X102060478Y-95835724D01*
X102037839Y-95826347D01*
X102013806Y-95821566D01*
X101989302Y-95821566D01*
X101965268Y-95826346D01*
X101942629Y-95835724D01*
X101922254Y-95849337D01*
X101904927Y-95866664D01*
X101891313Y-95887039D01*
X101881935Y-95909679D01*
X101854308Y-96000756D01*
X101805520Y-96092030D01*
X101739865Y-96172032D01*
X101667035Y-96231801D01*
X101659862Y-96237688D01*
X101617376Y-96260397D01*
X101568589Y-96286475D01*
X101532519Y-96297416D01*
X101477508Y-96314104D01*
X101454873Y-96323480D01*
X101434498Y-96337093D01*
X101417171Y-96354420D01*
X101403557Y-96374795D01*
X101394180Y-96397434D01*
X101389399Y-96421467D01*
X101343707Y-96421467D01*
X101338927Y-96397435D01*
X101329549Y-96374796D01*
X101315936Y-96354421D01*
X101298609Y-96337094D01*
X101278234Y-96323480D01*
X101255598Y-96314104D01*
X101200587Y-96297416D01*
X101164517Y-96286475D01*
X101115730Y-96260397D01*
X101073244Y-96237688D01*
X101066071Y-96231801D01*
X100993241Y-96172032D01*
X100927586Y-96092030D01*
X100878798Y-96000756D01*
X100848755Y-95901715D01*
X100847310Y-95887039D01*
X100838611Y-95798720D01*
X100848755Y-95695724D01*
X100878798Y-95596685D01*
X100878798Y-95596684D01*
X100927586Y-95505410D01*
X100993241Y-95425408D01*
X101073243Y-95359753D01*
X101073242Y-95359753D01*
X101073244Y-95359752D01*
X101115730Y-95337043D01*
X101164517Y-95310965D01*
X101235741Y-95289360D01*
X101255598Y-95283336D01*
X101278233Y-95273960D01*
X101298608Y-95260347D01*
X101315935Y-95243020D01*
X101329549Y-95222645D01*
X101338926Y-95200006D01*
X101343707Y-95175973D01*
X101343707Y-95151469D01*
X101343707Y-95151467D01*
X101389399Y-95151467D01*
X101389399Y-95175971D01*
X101394179Y-95200005D01*
X101403557Y-95222644D01*
X101417170Y-95243019D01*
X101434497Y-95260346D01*
X101454872Y-95273960D01*
X101477508Y-95283336D01*
X101497365Y-95289360D01*
X101568589Y-95310965D01*
X101617376Y-95337043D01*
X101659862Y-95359752D01*
X101659864Y-95359753D01*
X101659863Y-95359753D01*
X101739865Y-95425408D01*
X101805520Y-95505410D01*
X101854308Y-95596684D01*
X101881935Y-95687761D01*
X101891313Y-95710400D01*
X101904926Y-95730775D01*
X101922253Y-95748102D01*
X101942628Y-95761716D01*
X101965267Y-95771093D01*
X101989300Y-95775874D01*
X102013804Y-95775874D01*
X102037838Y-95771094D01*
X102060477Y-95761716D01*
X102080852Y-95748103D01*
X102098179Y-95730776D01*
X102111793Y-95710401D01*
X102121171Y-95687761D01*
X102148798Y-95596684D01*
X102197586Y-95505410D01*
X102263241Y-95425408D01*
X102343243Y-95359753D01*
X102343242Y-95359753D01*
X102343244Y-95359752D01*
X102385730Y-95337043D01*
X102434517Y-95310965D01*
X102457181Y-95304090D01*
X102474828Y-95298737D01*
X102497465Y-95289360D01*
X102517840Y-95275747D01*
X102535167Y-95258420D01*
X102548781Y-95238045D01*
X102558158Y-95215406D01*
X102562939Y-95191373D01*
X102562939Y-95166869D01*
X102558159Y-95142835D01*
X102548781Y-95120196D01*
X102535168Y-95099821D01*
X102517841Y-95082494D01*
X102497466Y-95068880D01*
X102474827Y-95059503D01*
X102450794Y-95054722D01*
X102438541Y-95054120D01*
X102111153Y-95054120D01*
X102111153Y-94726732D01*
X102108751Y-94702346D01*
X102101638Y-94678897D01*
X102090087Y-94657286D01*
X102074541Y-94638344D01*
X102055599Y-94622798D01*
X102033988Y-94611247D01*
X102010539Y-94604134D01*
X101986153Y-94601732D01*
X101961767Y-94604134D01*
X101938318Y-94611247D01*
X101916707Y-94622798D01*
X101897765Y-94638344D01*
X101882219Y-94657286D01*
X101870668Y-94678897D01*
X101866535Y-94690447D01*
X101854308Y-94730756D01*
X101805520Y-94822030D01*
X101739865Y-94902032D01*
X101667035Y-94961801D01*
X101659862Y-94967688D01*
X101617376Y-94990397D01*
X101568589Y-95016475D01*
X101532519Y-95027416D01*
X101477508Y-95044104D01*
X101454873Y-95053480D01*
X101434498Y-95067093D01*
X101417171Y-95084420D01*
X101403557Y-95104795D01*
X101394180Y-95127434D01*
X101389399Y-95151467D01*
X101343707Y-95151467D01*
X101338927Y-95127435D01*
X101329549Y-95104796D01*
X101315936Y-95084421D01*
X101298609Y-95067094D01*
X101278234Y-95053480D01*
X101255598Y-95044104D01*
X101200587Y-95027416D01*
X101164517Y-95016475D01*
X101115730Y-94990397D01*
X101073244Y-94967688D01*
X101066071Y-94961801D01*
X100993241Y-94902032D01*
X100927586Y-94822030D01*
X100878798Y-94730756D01*
X100848755Y-94631715D01*
X100846039Y-94604134D01*
X100838611Y-94528720D01*
X100848755Y-94425724D01*
X100873861Y-94342961D01*
X100878798Y-94326684D01*
X100927586Y-94235410D01*
X100993241Y-94155408D01*
X101073243Y-94089753D01*
X101073242Y-94089753D01*
X101073244Y-94089752D01*
X101115730Y-94067043D01*
X101164517Y-94040965D01*
X101214038Y-94025943D01*
X101263557Y-94010922D01*
X101302150Y-94007121D01*
X101340742Y-94003320D01*
X101392364Y-94003320D01*
X101430956Y-94007121D01*
X101430956Y-94007121D01*
G37*
G36*
X140062754Y-85726988D02*
X140065156Y-85751374D01*
X140072269Y-85774823D01*
X140083820Y-85796434D01*
X140099366Y-85815376D01*
X140118308Y-85830922D01*
X140139919Y-85842473D01*
X140215173Y-85873644D01*
X140276658Y-85914727D01*
X140328946Y-85967015D01*
X140370029Y-86028500D01*
X140371469Y-86031976D01*
X140383020Y-86053587D01*
X140398565Y-86072529D01*
X140417507Y-86088074D01*
X140439118Y-86099626D01*
X140462567Y-86106739D01*
X140486953Y-86109141D01*
X140511340Y-86106739D01*
X140534789Y-86099626D01*
X140556400Y-86088075D01*
X140575342Y-86072530D01*
X140590887Y-86053588D01*
X140602439Y-86031977D01*
X140609552Y-86008528D01*
X140611954Y-85984141D01*
X140611954Y-85255919D01*
X141562754Y-85255919D01*
X141562754Y-86606719D01*
X140611954Y-86606719D01*
X140611954Y-86428497D01*
X140609552Y-86404111D01*
X140602439Y-86380662D01*
X140590888Y-86359051D01*
X140575342Y-86340109D01*
X140556400Y-86324563D01*
X140534789Y-86313012D01*
X140511340Y-86305899D01*
X140486954Y-86303497D01*
X140462568Y-86305899D01*
X140439119Y-86313012D01*
X140417508Y-86324563D01*
X140398566Y-86340109D01*
X140383020Y-86359051D01*
X140371469Y-86380662D01*
X140370029Y-86384138D01*
X140328946Y-86445623D01*
X140276658Y-86497911D01*
X140215173Y-86538994D01*
X140146854Y-86567293D01*
X140074329Y-86581719D01*
X140000379Y-86581719D01*
X139927854Y-86567293D01*
X139859535Y-86538994D01*
X139798050Y-86497911D01*
X139745762Y-86445623D01*
X139704679Y-86384138D01*
X139676380Y-86315819D01*
X139661954Y-86243294D01*
X139661954Y-86169344D01*
X139676380Y-86096819D01*
X139704679Y-86028500D01*
X139745762Y-85967015D01*
X139792670Y-85920107D01*
X139808216Y-85901165D01*
X139819767Y-85879554D01*
X139826880Y-85856105D01*
X139829282Y-85831719D01*
X139826880Y-85807333D01*
X139819767Y-85783884D01*
X139808216Y-85762273D01*
X139792670Y-85743331D01*
X139773728Y-85727785D01*
X139752117Y-85716234D01*
X139728668Y-85709121D01*
X139704282Y-85706719D01*
X138211954Y-85706719D01*
X138211954Y-84905919D01*
X140062754Y-84905919D01*
X140062754Y-85726988D01*
X140062754Y-85726988D01*
G37*
G36*
X102238754Y-85706719D02*
X100746426Y-85706719D01*
X100722040Y-85709121D01*
X100698591Y-85716234D01*
X100676980Y-85727785D01*
X100658038Y-85743331D01*
X100642492Y-85762273D01*
X100630941Y-85783884D01*
X100623828Y-85807333D01*
X100621426Y-85831719D01*
X100623828Y-85856105D01*
X100630941Y-85879554D01*
X100642492Y-85901165D01*
X100658038Y-85920107D01*
X100704946Y-85967015D01*
X100746029Y-86028500D01*
X100774328Y-86096819D01*
X100788754Y-86169344D01*
X100788754Y-86243294D01*
X100774328Y-86315819D01*
X100746029Y-86384138D01*
X100704946Y-86445623D01*
X100652658Y-86497911D01*
X100591173Y-86538994D01*
X100522854Y-86567293D01*
X100450329Y-86581719D01*
X100376379Y-86581719D01*
X100303854Y-86567293D01*
X100235535Y-86538994D01*
X100174050Y-86497911D01*
X100121762Y-86445623D01*
X100080679Y-86384138D01*
X100079239Y-86380662D01*
X100067688Y-86359051D01*
X100052143Y-86340109D01*
X100033201Y-86324564D01*
X100011590Y-86313012D01*
X99988141Y-86305899D01*
X99963755Y-86303497D01*
X99939368Y-86305899D01*
X99915919Y-86313012D01*
X99894308Y-86324563D01*
X99875366Y-86340108D01*
X99859821Y-86359050D01*
X99848269Y-86380661D01*
X99841156Y-86404110D01*
X99838754Y-86428497D01*
X99838754Y-86606719D01*
X98887954Y-86606719D01*
X98887954Y-85255919D01*
X99838754Y-85255919D01*
X99838754Y-85984141D01*
X99841156Y-86008527D01*
X99848269Y-86031976D01*
X99859820Y-86053587D01*
X99875366Y-86072529D01*
X99894308Y-86088075D01*
X99915919Y-86099626D01*
X99939368Y-86106739D01*
X99963754Y-86109141D01*
X99988140Y-86106739D01*
X100011589Y-86099626D01*
X100033200Y-86088075D01*
X100052142Y-86072529D01*
X100067688Y-86053587D01*
X100079239Y-86031976D01*
X100080679Y-86028500D01*
X100121762Y-85967015D01*
X100174050Y-85914727D01*
X100235535Y-85873644D01*
X100310789Y-85842473D01*
X100332400Y-85830922D01*
X100351342Y-85815377D01*
X100366887Y-85796435D01*
X100378439Y-85774824D01*
X100385552Y-85751375D01*
X100387954Y-85726988D01*
X100387954Y-84905919D01*
X102238754Y-84905919D01*
X102238754Y-85706719D01*
X102238754Y-85706719D01*
G37*
G36*
X140062754Y-84406719D02*
X138211954Y-84406719D01*
X138211954Y-83755919D01*
X140062754Y-83755919D01*
X140062754Y-84406719D01*
X140062754Y-84406719D01*
G37*
G36*
X102238754Y-84406719D02*
X100387954Y-84406719D01*
X100387954Y-83755919D01*
X102238754Y-83755919D01*
X102238754Y-84406719D01*
X102238754Y-84406719D01*
G37*
G36*
X141562754Y-82906719D02*
X140611954Y-82906719D01*
X140611954Y-82178497D01*
X140609552Y-82154111D01*
X140602439Y-82130662D01*
X140590888Y-82109051D01*
X140575342Y-82090109D01*
X140556400Y-82074563D01*
X140534789Y-82063012D01*
X140511340Y-82055899D01*
X140486954Y-82053497D01*
X140462568Y-82055899D01*
X140439119Y-82063012D01*
X140417508Y-82074563D01*
X140398566Y-82090109D01*
X140383020Y-82109051D01*
X140371469Y-82130662D01*
X140370029Y-82134138D01*
X140328946Y-82195623D01*
X140276658Y-82247911D01*
X140215173Y-82288994D01*
X140139919Y-82320165D01*
X140118308Y-82331716D01*
X140099366Y-82347261D01*
X140083821Y-82366203D01*
X140072269Y-82387814D01*
X140065156Y-82411263D01*
X140062754Y-82435650D01*
X140062754Y-83256719D01*
X138211954Y-83256719D01*
X138211954Y-82455919D01*
X139704282Y-82455919D01*
X139728668Y-82453517D01*
X139752117Y-82446404D01*
X139773728Y-82434853D01*
X139792670Y-82419307D01*
X139808216Y-82400365D01*
X139819767Y-82378754D01*
X139826880Y-82355305D01*
X139829282Y-82330919D01*
X139826880Y-82306533D01*
X139819767Y-82283084D01*
X139808216Y-82261473D01*
X139792670Y-82242531D01*
X139745762Y-82195623D01*
X139704679Y-82134138D01*
X139676380Y-82065819D01*
X139661954Y-81993294D01*
X139661954Y-81919344D01*
X139676380Y-81846819D01*
X139704679Y-81778500D01*
X139745762Y-81717015D01*
X139798050Y-81664727D01*
X139859535Y-81623644D01*
X139927854Y-81595345D01*
X140000379Y-81580919D01*
X140074329Y-81580919D01*
X140146854Y-81595345D01*
X140215173Y-81623644D01*
X140276658Y-81664727D01*
X140328946Y-81717015D01*
X140370029Y-81778500D01*
X140371469Y-81781976D01*
X140383020Y-81803587D01*
X140398565Y-81822529D01*
X140417507Y-81838074D01*
X140439118Y-81849626D01*
X140462567Y-81856739D01*
X140486953Y-81859141D01*
X140511340Y-81856739D01*
X140534789Y-81849626D01*
X140556400Y-81838075D01*
X140575342Y-81822530D01*
X140590887Y-81803588D01*
X140602439Y-81781977D01*
X140609552Y-81758528D01*
X140611954Y-81734141D01*
X140611954Y-81555919D01*
X141562754Y-81555919D01*
X141562754Y-82906719D01*
X141562754Y-82906719D01*
G37*
G36*
X99838754Y-81734141D02*
X99841156Y-81758527D01*
X99848269Y-81781976D01*
X99859820Y-81803587D01*
X99875366Y-81822529D01*
X99894308Y-81838075D01*
X99915919Y-81849626D01*
X99939368Y-81856739D01*
X99963754Y-81859141D01*
X99988140Y-81856739D01*
X100011589Y-81849626D01*
X100033200Y-81838075D01*
X100052142Y-81822529D01*
X100067688Y-81803587D01*
X100079239Y-81781976D01*
X100080679Y-81778500D01*
X100121762Y-81717015D01*
X100174050Y-81664727D01*
X100235535Y-81623644D01*
X100303854Y-81595345D01*
X100376379Y-81580919D01*
X100450329Y-81580919D01*
X100522854Y-81595345D01*
X100591173Y-81623644D01*
X100652658Y-81664727D01*
X100704946Y-81717015D01*
X100746029Y-81778500D01*
X100774328Y-81846819D01*
X100788754Y-81919344D01*
X100788754Y-81993294D01*
X100774328Y-82065819D01*
X100746029Y-82134138D01*
X100704946Y-82195623D01*
X100658038Y-82242531D01*
X100642492Y-82261473D01*
X100630941Y-82283084D01*
X100623828Y-82306533D01*
X100621426Y-82330919D01*
X100623828Y-82355305D01*
X100630941Y-82378754D01*
X100642492Y-82400365D01*
X100658038Y-82419307D01*
X100676980Y-82434853D01*
X100698591Y-82446404D01*
X100722040Y-82453517D01*
X100746426Y-82455919D01*
X102238754Y-82455919D01*
X102238754Y-83256719D01*
X100387954Y-83256719D01*
X100387954Y-82435650D01*
X100385552Y-82411264D01*
X100378439Y-82387815D01*
X100366888Y-82366204D01*
X100351342Y-82347262D01*
X100332400Y-82331716D01*
X100310789Y-82320165D01*
X100235535Y-82288994D01*
X100174050Y-82247911D01*
X100121762Y-82195623D01*
X100080679Y-82134138D01*
X100079239Y-82130662D01*
X100067688Y-82109051D01*
X100052143Y-82090109D01*
X100033201Y-82074564D01*
X100011590Y-82063012D01*
X99988141Y-82055899D01*
X99963755Y-82053497D01*
X99939368Y-82055899D01*
X99915919Y-82063012D01*
X99894308Y-82074563D01*
X99875366Y-82090108D01*
X99859821Y-82109050D01*
X99848269Y-82130661D01*
X99841156Y-82154110D01*
X99838754Y-82178497D01*
X99838754Y-82906719D01*
X98887954Y-82906719D01*
X98887954Y-81555919D01*
X99838754Y-81555919D01*
X99838754Y-81734141D01*
X99838754Y-81734141D01*
G37*
G36*
X119793884Y-79415937D02*
X119930445Y-79472502D01*
X120053356Y-79554629D01*
X120157871Y-79659144D01*
X120157873Y-79659147D01*
X120157874Y-79659148D01*
X120182226Y-79695593D01*
X120239998Y-79782055D01*
X120296563Y-79918616D01*
X120325400Y-80063591D01*
X120325400Y-80211409D01*
X120296563Y-80356384D01*
X120239998Y-80492945D01*
X120157871Y-80615856D01*
X120053356Y-80720371D01*
X119930445Y-80802498D01*
X119793884Y-80859063D01*
X119648909Y-80887900D01*
X119501091Y-80887900D01*
X119356116Y-80859063D01*
X119219555Y-80802498D01*
X119096644Y-80720371D01*
X118992129Y-80615856D01*
X118910002Y-80492945D01*
X118853437Y-80356384D01*
X118824600Y-80211409D01*
X118824600Y-80063591D01*
X118853437Y-79918616D01*
X118910002Y-79782055D01*
X118967774Y-79695593D01*
X118992126Y-79659148D01*
X118992127Y-79659147D01*
X118992129Y-79659144D01*
X119096644Y-79554629D01*
X119219555Y-79472502D01*
X119356116Y-79415937D01*
X119501091Y-79387100D01*
X119648909Y-79387100D01*
X119793884Y-79415937D01*
X119793884Y-79415937D01*
G37*
G36*
X124793884Y-79415937D02*
X124930445Y-79472502D01*
X125053356Y-79554629D01*
X125157871Y-79659144D01*
X125157873Y-79659147D01*
X125157874Y-79659148D01*
X125182226Y-79695593D01*
X125239998Y-79782055D01*
X125296563Y-79918616D01*
X125325400Y-80063591D01*
X125325400Y-80211409D01*
X125296563Y-80356384D01*
X125239998Y-80492945D01*
X125157871Y-80615856D01*
X125053356Y-80720371D01*
X124930445Y-80802498D01*
X124793884Y-80859063D01*
X124648909Y-80887900D01*
X124501091Y-80887900D01*
X124356116Y-80859063D01*
X124219555Y-80802498D01*
X124096644Y-80720371D01*
X123992129Y-80615856D01*
X123910002Y-80492945D01*
X123853437Y-80356384D01*
X123824600Y-80211409D01*
X123824600Y-80063591D01*
X123853437Y-79918616D01*
X123910002Y-79782055D01*
X123967774Y-79695593D01*
X123992126Y-79659148D01*
X123992127Y-79659147D01*
X123992129Y-79659144D01*
X124096644Y-79554629D01*
X124219555Y-79472502D01*
X124356116Y-79415937D01*
X124501091Y-79387100D01*
X124648909Y-79387100D01*
X124793884Y-79415937D01*
X124793884Y-79415937D01*
G37*
G36*
X134731941Y-79250417D02*
X134829013Y-79290625D01*
X134916380Y-79349002D01*
X134990671Y-79423293D01*
X135049048Y-79510660D01*
X135089256Y-79607732D01*
X135109754Y-79710782D01*
X135109754Y-79815856D01*
X135089256Y-79918906D01*
X135049048Y-80015978D01*
X134990671Y-80103345D01*
X134916380Y-80177636D01*
X134829013Y-80236013D01*
X134731941Y-80276221D01*
X134628891Y-80296719D01*
X134523817Y-80296719D01*
X134420767Y-80276221D01*
X134323695Y-80236013D01*
X134236328Y-80177636D01*
X134162037Y-80103345D01*
X134103660Y-80015978D01*
X134063452Y-79918906D01*
X134042954Y-79815856D01*
X134042954Y-79710782D01*
X134063452Y-79607732D01*
X134103660Y-79510660D01*
X134162037Y-79423293D01*
X134236328Y-79349002D01*
X134323695Y-79290625D01*
X134420767Y-79250417D01*
X134523817Y-79229919D01*
X134628891Y-79229919D01*
X134731941Y-79250417D01*
X134731941Y-79250417D01*
G37*
G36*
X139359676Y-77336378D02*
X139359679Y-77336379D01*
X139359678Y-77336379D01*
X139628184Y-77447597D01*
X139628185Y-77447598D01*
X139869836Y-77609064D01*
X140075336Y-77814564D01*
X140075338Y-77814567D01*
X140236803Y-78056216D01*
X140298022Y-78204013D01*
X140348022Y-78324724D01*
X140404720Y-78609764D01*
X140404720Y-78900396D01*
X140348022Y-79185436D01*
X140348021Y-79185438D01*
X140236803Y-79453944D01*
X140169529Y-79554626D01*
X140075336Y-79695596D01*
X139869836Y-79901096D01*
X139869833Y-79901098D01*
X139628184Y-80062563D01*
X139420506Y-80148586D01*
X139359676Y-80173782D01*
X139074636Y-80230480D01*
X138784004Y-80230480D01*
X138498964Y-80173782D01*
X138438134Y-80148586D01*
X138230456Y-80062563D01*
X137988807Y-79901098D01*
X137988804Y-79901096D01*
X137783304Y-79695596D01*
X137689111Y-79554626D01*
X137621837Y-79453944D01*
X137510619Y-79185438D01*
X137510618Y-79185436D01*
X137453920Y-78900396D01*
X137453920Y-78609764D01*
X137510618Y-78324724D01*
X137560618Y-78204013D01*
X137621837Y-78056216D01*
X137783302Y-77814567D01*
X137783304Y-77814564D01*
X137988804Y-77609064D01*
X138230455Y-77447598D01*
X138230456Y-77447597D01*
X138498962Y-77336379D01*
X138498961Y-77336379D01*
X138498964Y-77336378D01*
X138784004Y-77279680D01*
X139074636Y-77279680D01*
X139359676Y-77336378D01*
X139359676Y-77336378D01*
G37*
G36*
X101866736Y-77333838D02*
X101927566Y-77359034D01*
X102135244Y-77445057D01*
X102185534Y-77478660D01*
X102376896Y-77606524D01*
X102582396Y-77812024D01*
X102582398Y-77812027D01*
X102743863Y-78053676D01*
X102818728Y-78234417D01*
X102855082Y-78322184D01*
X102911780Y-78607224D01*
X102911780Y-78897856D01*
X102855082Y-79182896D01*
X102855081Y-79182898D01*
X102743863Y-79451404D01*
X102729764Y-79472504D01*
X102582396Y-79693056D01*
X102376896Y-79898556D01*
X102376893Y-79898558D01*
X102135244Y-80060023D01*
X101927566Y-80146046D01*
X101866736Y-80171242D01*
X101581696Y-80227940D01*
X101291064Y-80227940D01*
X101006024Y-80171242D01*
X100945194Y-80146046D01*
X100737516Y-80060023D01*
X100495867Y-79898558D01*
X100495864Y-79898556D01*
X100290364Y-79693056D01*
X100142996Y-79472504D01*
X100128897Y-79451404D01*
X100017679Y-79182898D01*
X100017678Y-79182896D01*
X99960980Y-78897856D01*
X99960980Y-78607224D01*
X100017678Y-78322184D01*
X100054032Y-78234417D01*
X100128897Y-78053676D01*
X100290362Y-77812027D01*
X100290364Y-77812024D01*
X100495864Y-77606524D01*
X100687226Y-77478660D01*
X100737516Y-77445057D01*
X100945194Y-77359034D01*
X101006024Y-77333838D01*
X101291064Y-77277140D01*
X101581696Y-77277140D01*
X101866736Y-77333838D01*
X101866736Y-77333838D01*
G37*
G36*
X129651941Y-78234417D02*
X129749013Y-78274625D01*
X129836380Y-78333002D01*
X129910671Y-78407293D01*
X129969048Y-78494660D01*
X130009256Y-78591732D01*
X130029754Y-78694782D01*
X130029754Y-78799856D01*
X130009256Y-78902906D01*
X129969048Y-78999978D01*
X129910671Y-79087345D01*
X129836380Y-79161636D01*
X129749013Y-79220013D01*
X129651941Y-79260221D01*
X129548891Y-79280719D01*
X129443817Y-79280719D01*
X129340767Y-79260221D01*
X129243695Y-79220013D01*
X129156328Y-79161636D01*
X129082037Y-79087345D01*
X129023660Y-78999978D01*
X128983452Y-78902906D01*
X128962954Y-78799856D01*
X128962954Y-78694782D01*
X128983452Y-78591732D01*
X129023660Y-78494660D01*
X129082037Y-78407293D01*
X129156328Y-78333002D01*
X129243695Y-78274625D01*
X129340767Y-78234417D01*
X129443817Y-78213919D01*
X129548891Y-78213919D01*
X129651941Y-78234417D01*
X129651941Y-78234417D01*
G37*
G36*
X118686609Y-76470066D02*
X118697601Y-76471149D01*
X118736896Y-76483069D01*
X118815488Y-76506910D01*
X118924135Y-76564983D01*
X119019364Y-76643136D01*
X119097517Y-76738365D01*
X119155590Y-76847012D01*
X119191351Y-76964900D01*
X119200400Y-77056776D01*
X119200400Y-77818224D01*
X119191351Y-77910100D01*
X119155590Y-78027988D01*
X119097517Y-78136635D01*
X119043847Y-78202031D01*
X119019367Y-78231861D01*
X119019365Y-78231862D01*
X119019364Y-78231864D01*
X118924134Y-78310017D01*
X118815487Y-78368090D01*
X118736895Y-78391931D01*
X118697600Y-78403851D01*
X118686608Y-78404934D01*
X118575000Y-78415926D01*
X118463391Y-78404934D01*
X118452399Y-78403851D01*
X118413104Y-78391931D01*
X118334512Y-78368090D01*
X118225865Y-78310017D01*
X118145693Y-78244221D01*
X118130639Y-78231867D01*
X118130638Y-78231865D01*
X118130636Y-78231864D01*
X118052483Y-78136634D01*
X117994410Y-78027987D01*
X117970569Y-77949395D01*
X117958649Y-77910100D01*
X117956365Y-77886906D01*
X117949600Y-77818223D01*
X117949600Y-77056776D01*
X117958649Y-76964900D01*
X117994410Y-76847012D01*
X118052484Y-76738365D01*
X118130637Y-76643136D01*
X118225866Y-76564983D01*
X118334513Y-76506910D01*
X118413105Y-76483069D01*
X118452400Y-76471149D01*
X118463392Y-76470066D01*
X118575000Y-76459074D01*
X118686609Y-76470066D01*
X118686609Y-76470066D01*
G37*
G36*
X125686608Y-76470066D02*
X125697600Y-76471149D01*
X125736895Y-76483069D01*
X125815487Y-76506910D01*
X125924134Y-76564983D01*
X126019364Y-76643136D01*
X126019365Y-76643138D01*
X126019367Y-76643139D01*
X126043847Y-76672969D01*
X126097517Y-76738365D01*
X126155590Y-76847012D01*
X126191351Y-76964900D01*
X126200400Y-77056776D01*
X126200400Y-77818224D01*
X126191351Y-77910100D01*
X126155590Y-78027988D01*
X126097517Y-78136635D01*
X126019364Y-78231864D01*
X125924135Y-78310017D01*
X125815488Y-78368090D01*
X125736896Y-78391931D01*
X125697601Y-78403851D01*
X125686609Y-78404934D01*
X125575000Y-78415926D01*
X125463392Y-78404934D01*
X125452400Y-78403851D01*
X125413105Y-78391931D01*
X125334513Y-78368090D01*
X125225866Y-78310017D01*
X125130637Y-78231864D01*
X125052484Y-78136635D01*
X124994410Y-78027988D01*
X124958649Y-77910100D01*
X124949600Y-77818224D01*
X124949600Y-77056777D01*
X124958649Y-76964901D01*
X124958650Y-76964899D01*
X124970569Y-76925605D01*
X124994410Y-76847013D01*
X125052483Y-76738366D01*
X125130636Y-76643136D01*
X125130638Y-76643135D01*
X125130639Y-76643133D01*
X125160469Y-76618653D01*
X125225865Y-76564983D01*
X125334512Y-76506910D01*
X125413104Y-76483069D01*
X125452399Y-76471149D01*
X125463391Y-76470066D01*
X125575000Y-76459074D01*
X125686608Y-76470066D01*
X125686608Y-76470066D01*
G37*
G36*
X134731941Y-77218417D02*
X134829013Y-77258625D01*
X134916380Y-77317002D01*
X134990671Y-77391293D01*
X135049048Y-77478660D01*
X135089256Y-77575732D01*
X135109754Y-77678782D01*
X135109754Y-77783856D01*
X135089256Y-77886906D01*
X135049048Y-77983978D01*
X134990671Y-78071345D01*
X134916380Y-78145636D01*
X134829013Y-78204013D01*
X134731941Y-78244221D01*
X134628891Y-78264719D01*
X134523817Y-78264719D01*
X134420767Y-78244221D01*
X134323695Y-78204013D01*
X134236328Y-78145636D01*
X134162037Y-78071345D01*
X134103660Y-77983978D01*
X134063452Y-77886906D01*
X134042954Y-77783856D01*
X134042954Y-77678782D01*
X134063452Y-77575732D01*
X134103660Y-77478660D01*
X134162037Y-77391293D01*
X134236328Y-77317002D01*
X134323695Y-77258625D01*
X134420767Y-77218417D01*
X134523817Y-77197919D01*
X134628891Y-77197919D01*
X134731941Y-77218417D01*
X134731941Y-77218417D01*
G37*
M02*
